%TF.GenerationSoftware,KiCad,Pcbnew,7.0.7*%
%TF.CreationDate,2023-08-31T16:12:03-04:00*%
%TF.ProjectId,protopico,70726f74-6f70-4696-936f-2e6b69636164,rev?*%
%TF.SameCoordinates,Original*%
%TF.FileFunction,Copper,L3,Inr*%
%TF.FilePolarity,Positive*%
%FSLAX46Y46*%
G04 Gerber Fmt 4.6, Leading zero omitted, Abs format (unit mm)*
G04 Created by KiCad (PCBNEW 7.0.7) date 2023-08-31 16:12:03*
%MOMM*%
%LPD*%
G01*
G04 APERTURE LIST*
%TA.AperFunction,ComponentPad*%
%ADD10C,1.695450*%
%TD*%
%TA.AperFunction,ComponentPad*%
%ADD11R,1.695450X1.695450*%
%TD*%
%TA.AperFunction,ViaPad*%
%ADD12C,0.812800*%
%TD*%
%TA.AperFunction,ViaPad*%
%ADD13C,0.609600*%
%TD*%
%TA.AperFunction,ViaPad*%
%ADD14C,0.500000*%
%TD*%
%TA.AperFunction,Conductor*%
%ADD15C,0.177800*%
%TD*%
G04 APERTURE END LIST*
D10*
%TO.N,5V_PG*%
%TO.C,VR2*%
X142240000Y-114300000D03*
%TO.N,unconnected-(VR2-EN-Pad2)*%
X142240000Y-111760000D03*
%TO.N,+BATT*%
X142240000Y-109220000D03*
D11*
%TO.N,GND*%
X142240000Y-106680000D03*
D10*
%TO.N,+5V*%
X142240000Y-104140000D03*
D11*
%TO.N,GND*%
X152908000Y-114300000D03*
%TD*%
D10*
%TO.N,unconnected-(VR1-PG-Pad1)*%
%TO.C,VR1*%
X142240000Y-95885000D03*
%TO.N,5V_PG*%
X142240000Y-93345000D03*
%TO.N,/3V3_IN*%
X142240000Y-90805000D03*
D11*
%TO.N,GND*%
X142240000Y-88265000D03*
D10*
%TO.N,+3.3V*%
X142240000Y-85725000D03*
%TD*%
D12*
%TO.N,+5V*%
X144526000Y-111215000D03*
%TO.N,GND*%
X135571366Y-134317814D03*
X123458047Y-126223953D03*
X116586000Y-101346000D03*
X184355814Y-114110634D03*
X123458047Y-73420047D03*
X176261953Y-126223953D03*
X187198000Y-99822000D03*
X126614000Y-108712000D03*
X115364186Y-85533366D03*
X138303000Y-99060000D03*
X121666000Y-107696000D03*
X184355814Y-85533366D03*
X164148634Y-65326186D03*
D13*
X120396000Y-91948000D03*
D12*
X124414000Y-113162000D03*
X135571366Y-65326186D03*
D13*
X124968000Y-91186000D03*
X125984000Y-91186000D03*
D12*
X116586000Y-97536000D03*
D14*
X132969000Y-96520000D03*
D12*
X133604000Y-101727000D03*
X112522000Y-99822000D03*
X176276000Y-73406000D03*
X116586000Y-96139000D03*
X126111000Y-107569000D03*
X124714000Y-100330000D03*
X149860000Y-62484000D03*
X123190000Y-108402000D03*
X133693000Y-89497000D03*
X115364186Y-114110634D03*
X164148634Y-134317814D03*
X149860000Y-137160000D03*
D13*
X121412000Y-91948000D03*
D14*
%TO.N,Ring DIN*%
X135636000Y-96266000D03*
D12*
X147828000Y-78486000D03*
D14*
X140462000Y-84074000D03*
D12*
%TO.N,Ring DOUT*%
X155702000Y-78486000D03*
D14*
%TO.N,Fan Tach*%
X130810000Y-111506000D03*
%TO.N,Fan PWM*%
X127889000Y-107061000D03*
%TO.N,SDA1*%
X129286000Y-100203000D03*
%TO.N,SCL1*%
X129921000Y-100711000D03*
%TO.N,UART0 RX*%
X136906000Y-120015000D03*
%TO.N,UART0 TX*%
X135890000Y-116459000D03*
%TO.N,UART1 TX*%
X144526000Y-119888000D03*
%TO.N,UART1 RX*%
X145542000Y-121285000D03*
D12*
%TO.N,Face TX_3.3*%
X156464000Y-94107000D03*
%TO.N,Face SCK_3.3*%
X152654000Y-92075000D03*
%TO.N,Face CS_3.3*%
X159385000Y-92456000D03*
%TO.N,+5V*%
X135622860Y-111265140D03*
X154432000Y-80869000D03*
X133477000Y-118110000D03*
X165227000Y-76708000D03*
X147193000Y-74676000D03*
X143764000Y-115951000D03*
X122047000Y-83439000D03*
X139573000Y-89789000D03*
D14*
%TO.N,+3.3V*%
X124333000Y-106045000D03*
X128651000Y-96012000D03*
X124333000Y-95631000D03*
X137668000Y-96774000D03*
X121285000Y-96774000D03*
X129921000Y-101600000D03*
X127000000Y-99568000D03*
X125222000Y-102616000D03*
X118872000Y-102616000D03*
X129667000Y-97663000D03*
%TO.N,RUN*%
X130302000Y-82804000D03*
X119888000Y-104648000D03*
%TO.N,Net-(R2-Pad2)*%
X127762000Y-80518000D03*
D12*
%TO.N,+BATT*%
X148336000Y-86487000D03*
X155575000Y-74676000D03*
%TO.N,VSENSE*%
X138303000Y-105791000D03*
D14*
X118872000Y-99292000D03*
D12*
%TO.N,D-*%
X117983000Y-89662000D03*
%TO.N,D+*%
X118999000Y-88519000D03*
D14*
%TO.N,/Microcontroller/SWCLK*%
X119888000Y-106680000D03*
%TO.N,/Microcontroller/SWD*%
X119888000Y-105664000D03*
%TD*%
D15*
%TO.N,VSENSE*%
X123212000Y-103632000D02*
X118872000Y-99292000D01*
X136144000Y-103632000D02*
X123212000Y-103632000D01*
X138303000Y-105791000D02*
X136144000Y-103632000D01*
%TD*%
%TA.AperFunction,Conductor*%
%TO.N,GND*%
G36*
X151825684Y-56887474D02*
G01*
X153134109Y-56967390D01*
X154439487Y-57087170D01*
X155740606Y-57246703D01*
X157036254Y-57445842D01*
X158325227Y-57684400D01*
X159606325Y-57962156D01*
X160878357Y-58278851D01*
X162140139Y-58634191D01*
X163390498Y-59027845D01*
X164628270Y-59459448D01*
X165852304Y-59928597D01*
X167061462Y-60434856D01*
X168254618Y-60977754D01*
X169430664Y-61556787D01*
X170588503Y-62171415D01*
X171727061Y-62821067D01*
X172845277Y-63505138D01*
X173942111Y-64222993D01*
X175016544Y-64973962D01*
X176067575Y-65757349D01*
X177094227Y-66572424D01*
X178095544Y-67418428D01*
X179070596Y-68294576D01*
X180018476Y-69200051D01*
X180938301Y-70134012D01*
X181829216Y-71095589D01*
X182690392Y-72083889D01*
X183521028Y-73097992D01*
X184320352Y-74136954D01*
X185087619Y-75199809D01*
X185822117Y-76285569D01*
X186523161Y-77393223D01*
X187190100Y-78521741D01*
X187822314Y-79670073D01*
X188419213Y-80837151D01*
X188980244Y-82021890D01*
X189504884Y-83223187D01*
X189992645Y-84439924D01*
X190443073Y-85670971D01*
X190855749Y-86915181D01*
X191230290Y-88171397D01*
X191566347Y-89438452D01*
X191863607Y-90715165D01*
X192121794Y-92000350D01*
X192340667Y-93292811D01*
X192520024Y-94591345D01*
X192659697Y-95894745D01*
X192759557Y-97201799D01*
X192819510Y-98511290D01*
X192839500Y-99822000D01*
X192819510Y-101132710D01*
X192759557Y-102442201D01*
X192659697Y-103749255D01*
X192520024Y-105052655D01*
X192340667Y-106351189D01*
X192121794Y-107643650D01*
X191863607Y-108928835D01*
X191566347Y-110205548D01*
X191230290Y-111472603D01*
X190855749Y-112728819D01*
X190443073Y-113973029D01*
X189992645Y-115204076D01*
X189504884Y-116420813D01*
X188980244Y-117622110D01*
X188419213Y-118806849D01*
X187822314Y-119973927D01*
X187190100Y-121122259D01*
X186523161Y-122250777D01*
X185822117Y-123358431D01*
X185087619Y-124444191D01*
X184320352Y-125507046D01*
X183521028Y-126546008D01*
X182690392Y-127560111D01*
X181829216Y-128548411D01*
X180938301Y-129509988D01*
X180018476Y-130443949D01*
X179070596Y-131349424D01*
X178095544Y-132225572D01*
X177094227Y-133071576D01*
X176067575Y-133886651D01*
X175016544Y-134670038D01*
X173942111Y-135421007D01*
X172845277Y-136138862D01*
X171727061Y-136822933D01*
X170588503Y-137472585D01*
X169430664Y-138087213D01*
X168254618Y-138666246D01*
X167061462Y-139209144D01*
X165852304Y-139715403D01*
X164628270Y-140184552D01*
X163390498Y-140616155D01*
X162140139Y-141009809D01*
X160878357Y-141365149D01*
X159606325Y-141681844D01*
X158325227Y-141959600D01*
X157036254Y-142198158D01*
X155740606Y-142397297D01*
X154439487Y-142556830D01*
X153134109Y-142676610D01*
X151825684Y-142756526D01*
X150515431Y-142796502D01*
X149204569Y-142796502D01*
X147894316Y-142756526D01*
X146585891Y-142676610D01*
X145280513Y-142556830D01*
X143979394Y-142397297D01*
X142683746Y-142198158D01*
X141394773Y-141959600D01*
X140113675Y-141681844D01*
X138841643Y-141365149D01*
X137579861Y-141009809D01*
X136329502Y-140616155D01*
X135091730Y-140184552D01*
X133867696Y-139715403D01*
X132658538Y-139209144D01*
X131465382Y-138666246D01*
X130289336Y-138087213D01*
X129131497Y-137472585D01*
X127992939Y-136822933D01*
X126874723Y-136138862D01*
X125777889Y-135421007D01*
X124703456Y-134670038D01*
X123652425Y-133886651D01*
X122625773Y-133071576D01*
X121624456Y-132225572D01*
X120649404Y-131349424D01*
X120358912Y-131071928D01*
X148059500Y-131071928D01*
X148099720Y-131338773D01*
X148099722Y-131338782D01*
X148179259Y-131596632D01*
X148179260Y-131596636D01*
X148296349Y-131839774D01*
X148448358Y-132062732D01*
X148448361Y-132062735D01*
X148448365Y-132062741D01*
X148631915Y-132260561D01*
X148631919Y-132260564D01*
X148631922Y-132260567D01*
X148842888Y-132428808D01*
X148842892Y-132428810D01*
X148842898Y-132428815D01*
X149076602Y-132563743D01*
X149327805Y-132662334D01*
X149327807Y-132662334D01*
X149327811Y-132662336D01*
X149446106Y-132689335D01*
X149590897Y-132722383D01*
X149734466Y-132733141D01*
X149792619Y-132737500D01*
X149792624Y-132737500D01*
X149927381Y-132737500D01*
X149979520Y-132733592D01*
X150129103Y-132722383D01*
X150302040Y-132682911D01*
X150392188Y-132662336D01*
X150392190Y-132662335D01*
X150392195Y-132662334D01*
X150643398Y-132563743D01*
X150877102Y-132428815D01*
X151088085Y-132260561D01*
X151271635Y-132062741D01*
X151423651Y-131839775D01*
X151540738Y-131596641D01*
X151620280Y-131338772D01*
X151660500Y-131071929D01*
X151660500Y-130802071D01*
X151620280Y-130535228D01*
X151609458Y-130500145D01*
X151540740Y-130277367D01*
X151540739Y-130277363D01*
X151540738Y-130277359D01*
X151423651Y-130034226D01*
X151367659Y-129952101D01*
X151271641Y-129811267D01*
X151271638Y-129811264D01*
X151271635Y-129811259D01*
X151088085Y-129613439D01*
X151088080Y-129613435D01*
X151088077Y-129613432D01*
X150877111Y-129445191D01*
X150877105Y-129445187D01*
X150877102Y-129445185D01*
X150643398Y-129310257D01*
X150527897Y-129264925D01*
X150392188Y-129211663D01*
X150129103Y-129151617D01*
X149927381Y-129136500D01*
X149927376Y-129136500D01*
X149792624Y-129136500D01*
X149792619Y-129136500D01*
X149590897Y-129151617D01*
X149590895Y-129151617D01*
X149327811Y-129211663D01*
X149076599Y-129310258D01*
X148842888Y-129445191D01*
X148631922Y-129613432D01*
X148631917Y-129613437D01*
X148448358Y-129811267D01*
X148296349Y-130034224D01*
X148179260Y-130277363D01*
X148179259Y-130277367D01*
X148099722Y-130535217D01*
X148099720Y-130535226D01*
X148059500Y-130802071D01*
X148059500Y-131071928D01*
X120358912Y-131071928D01*
X119701524Y-130443949D01*
X118781699Y-129509988D01*
X117890784Y-128548411D01*
X117029608Y-127560111D01*
X116198972Y-126546008D01*
X115399648Y-125507046D01*
X114632381Y-124444191D01*
X113897883Y-123358431D01*
X113196839Y-122250777D01*
X113024140Y-121958555D01*
X126057873Y-121958555D01*
X126098093Y-122225400D01*
X126098095Y-122225409D01*
X126177632Y-122483259D01*
X126177633Y-122483263D01*
X126294722Y-122726401D01*
X126446731Y-122949359D01*
X126446734Y-122949362D01*
X126446738Y-122949368D01*
X126630288Y-123147188D01*
X126630292Y-123147191D01*
X126630295Y-123147194D01*
X126841261Y-123315435D01*
X126841265Y-123315437D01*
X126841271Y-123315442D01*
X127074975Y-123450370D01*
X127326178Y-123548961D01*
X127326180Y-123548961D01*
X127326184Y-123548963D01*
X127444479Y-123575962D01*
X127589270Y-123609010D01*
X127732839Y-123619768D01*
X127790992Y-123624127D01*
X127790997Y-123624127D01*
X127925754Y-123624127D01*
X127977893Y-123620219D01*
X128127476Y-123609010D01*
X128300413Y-123569538D01*
X128390561Y-123548963D01*
X128390563Y-123548962D01*
X128390568Y-123548961D01*
X128641771Y-123450370D01*
X128875475Y-123315442D01*
X129086458Y-123147188D01*
X129270008Y-122949368D01*
X129422024Y-122726402D01*
X129539111Y-122483268D01*
X129618653Y-122225399D01*
X129658873Y-121958556D01*
X129658873Y-121958555D01*
X170061127Y-121958555D01*
X170101347Y-122225400D01*
X170101349Y-122225409D01*
X170180886Y-122483259D01*
X170180887Y-122483263D01*
X170297976Y-122726401D01*
X170449985Y-122949359D01*
X170449988Y-122949362D01*
X170449992Y-122949368D01*
X170633542Y-123147188D01*
X170633546Y-123147191D01*
X170633549Y-123147194D01*
X170844515Y-123315435D01*
X170844519Y-123315437D01*
X170844525Y-123315442D01*
X171078229Y-123450370D01*
X171329432Y-123548961D01*
X171329434Y-123548961D01*
X171329438Y-123548963D01*
X171447733Y-123575962D01*
X171592524Y-123609010D01*
X171736093Y-123619768D01*
X171794246Y-123624127D01*
X171794251Y-123624127D01*
X171929008Y-123624127D01*
X171981147Y-123620219D01*
X172130730Y-123609010D01*
X172303667Y-123569538D01*
X172393815Y-123548963D01*
X172393817Y-123548962D01*
X172393822Y-123548961D01*
X172645025Y-123450370D01*
X172878729Y-123315442D01*
X173089712Y-123147188D01*
X173273262Y-122949368D01*
X173425278Y-122726402D01*
X173542365Y-122483268D01*
X173621907Y-122225399D01*
X173662127Y-121958556D01*
X173662127Y-121688698D01*
X173621907Y-121421855D01*
X173617296Y-121406908D01*
X173579693Y-121285000D01*
X173542365Y-121163986D01*
X173425278Y-120920853D01*
X173369286Y-120838728D01*
X173273268Y-120697894D01*
X173273265Y-120697891D01*
X173273262Y-120697886D01*
X173089712Y-120500066D01*
X173089707Y-120500062D01*
X173089704Y-120500059D01*
X172878738Y-120331818D01*
X172878732Y-120331814D01*
X172878729Y-120331812D01*
X172645025Y-120196884D01*
X172529524Y-120151552D01*
X172393815Y-120098290D01*
X172130730Y-120038244D01*
X171929008Y-120023127D01*
X171929003Y-120023127D01*
X171794251Y-120023127D01*
X171794246Y-120023127D01*
X171592524Y-120038244D01*
X171592522Y-120038244D01*
X171329438Y-120098290D01*
X171078226Y-120196885D01*
X170844515Y-120331818D01*
X170633549Y-120500059D01*
X170633544Y-120500064D01*
X170449985Y-120697894D01*
X170297976Y-120920851D01*
X170180887Y-121163990D01*
X170180886Y-121163994D01*
X170101349Y-121421844D01*
X170101347Y-121421853D01*
X170061127Y-121688698D01*
X170061127Y-121958555D01*
X129658873Y-121958555D01*
X129658873Y-121688698D01*
X129618653Y-121421855D01*
X129614042Y-121406908D01*
X129576439Y-121285000D01*
X129576439Y-121284999D01*
X145109296Y-121284999D01*
X145126823Y-121406905D01*
X145126824Y-121406908D01*
X145133650Y-121421855D01*
X145177986Y-121518937D01*
X145177988Y-121518939D01*
X145258639Y-121612016D01*
X145258640Y-121612017D01*
X145362243Y-121678598D01*
X145362248Y-121678601D01*
X145441029Y-121701733D01*
X145480419Y-121713300D01*
X145480420Y-121713300D01*
X145603580Y-121713300D01*
X145721752Y-121678601D01*
X145825361Y-121612016D01*
X145906014Y-121518937D01*
X145957176Y-121406907D01*
X145974704Y-121285000D01*
X145957176Y-121163093D01*
X145906014Y-121051063D01*
X145825361Y-120957984D01*
X145825360Y-120957983D01*
X145825359Y-120957982D01*
X145721756Y-120891401D01*
X145721753Y-120891399D01*
X145721752Y-120891399D01*
X145721749Y-120891398D01*
X145603581Y-120856700D01*
X145603580Y-120856700D01*
X145480420Y-120856700D01*
X145480419Y-120856700D01*
X145362250Y-120891398D01*
X145362243Y-120891401D01*
X145258640Y-120957982D01*
X145258639Y-120957983D01*
X145177988Y-121051060D01*
X145177985Y-121051065D01*
X145126824Y-121163091D01*
X145126823Y-121163094D01*
X145109296Y-121284999D01*
X129576439Y-121284999D01*
X129539111Y-121163986D01*
X129422024Y-120920853D01*
X129366032Y-120838728D01*
X129270014Y-120697894D01*
X129270011Y-120697891D01*
X129270008Y-120697886D01*
X129086458Y-120500066D01*
X129086453Y-120500062D01*
X129086450Y-120500059D01*
X128875484Y-120331818D01*
X128875478Y-120331814D01*
X128875475Y-120331812D01*
X128641771Y-120196884D01*
X128526270Y-120151552D01*
X128390561Y-120098290D01*
X128127476Y-120038244D01*
X127925754Y-120023127D01*
X127925749Y-120023127D01*
X127790997Y-120023127D01*
X127790992Y-120023127D01*
X127589270Y-120038244D01*
X127589268Y-120038244D01*
X127326184Y-120098290D01*
X127074972Y-120196885D01*
X126841261Y-120331818D01*
X126630295Y-120500059D01*
X126630290Y-120500064D01*
X126446731Y-120697894D01*
X126294722Y-120920851D01*
X126177633Y-121163990D01*
X126177632Y-121163994D01*
X126098095Y-121421844D01*
X126098093Y-121421853D01*
X126057873Y-121688698D01*
X126057873Y-121958555D01*
X113024140Y-121958555D01*
X112529900Y-121122259D01*
X111920299Y-120015000D01*
X136473296Y-120015000D01*
X136490823Y-120136905D01*
X136490824Y-120136907D01*
X136541986Y-120248937D01*
X136600356Y-120316300D01*
X136622639Y-120342016D01*
X136622640Y-120342017D01*
X136726243Y-120408598D01*
X136726248Y-120408601D01*
X136805029Y-120431733D01*
X136844419Y-120443300D01*
X136844420Y-120443300D01*
X136967580Y-120443300D01*
X137085752Y-120408601D01*
X137189361Y-120342016D01*
X137270014Y-120248937D01*
X137321176Y-120136907D01*
X137338704Y-120015000D01*
X137321176Y-119893093D01*
X137318850Y-119888000D01*
X144093296Y-119888000D01*
X144110823Y-120009905D01*
X144110824Y-120009908D01*
X144116861Y-120023127D01*
X144161986Y-120121937D01*
X144242639Y-120215015D01*
X144242639Y-120215016D01*
X144242640Y-120215017D01*
X144346243Y-120281598D01*
X144346248Y-120281601D01*
X144425029Y-120304733D01*
X144464419Y-120316300D01*
X144464420Y-120316300D01*
X144587580Y-120316300D01*
X144705752Y-120281601D01*
X144809361Y-120215016D01*
X144890014Y-120121937D01*
X144941176Y-120009907D01*
X144958704Y-119888000D01*
X144941176Y-119766093D01*
X144890014Y-119654063D01*
X144809361Y-119560984D01*
X144809360Y-119560983D01*
X144809359Y-119560982D01*
X144705756Y-119494401D01*
X144705753Y-119494399D01*
X144705752Y-119494399D01*
X144705749Y-119494398D01*
X144587581Y-119459700D01*
X144587580Y-119459700D01*
X144464420Y-119459700D01*
X144464419Y-119459700D01*
X144346250Y-119494398D01*
X144346243Y-119494401D01*
X144242640Y-119560982D01*
X144242639Y-119560983D01*
X144161988Y-119654060D01*
X144161985Y-119654065D01*
X144110824Y-119766091D01*
X144110823Y-119766094D01*
X144093296Y-119888000D01*
X137318850Y-119888000D01*
X137270014Y-119781063D01*
X137189361Y-119687984D01*
X137189360Y-119687983D01*
X137189359Y-119687982D01*
X137085756Y-119621401D01*
X137085753Y-119621399D01*
X137085752Y-119621399D01*
X137085749Y-119621398D01*
X136967581Y-119586700D01*
X136967580Y-119586700D01*
X136844420Y-119586700D01*
X136844419Y-119586700D01*
X136726250Y-119621398D01*
X136726243Y-119621401D01*
X136622640Y-119687982D01*
X136622639Y-119687983D01*
X136541988Y-119781060D01*
X136541985Y-119781065D01*
X136490824Y-119893091D01*
X136490823Y-119893094D01*
X136473296Y-120015000D01*
X111920299Y-120015000D01*
X111897686Y-119973927D01*
X111300787Y-118806849D01*
X110970796Y-118110001D01*
X132887255Y-118110001D01*
X132907348Y-118262630D01*
X132907349Y-118262633D01*
X132907350Y-118262637D01*
X132966266Y-118404873D01*
X133059987Y-118527013D01*
X133182127Y-118620734D01*
X133324363Y-118679650D01*
X133324367Y-118679650D01*
X133324369Y-118679651D01*
X133476998Y-118699745D01*
X133477000Y-118699745D01*
X133477002Y-118699745D01*
X133629630Y-118679651D01*
X133629630Y-118679650D01*
X133629637Y-118679650D01*
X133771873Y-118620734D01*
X133894013Y-118527013D01*
X133987734Y-118404873D01*
X134046650Y-118262637D01*
X134066745Y-118110000D01*
X134046650Y-117957363D01*
X133987734Y-117815128D01*
X133894013Y-117692987D01*
X133894011Y-117692986D01*
X133894011Y-117692985D01*
X133771874Y-117599267D01*
X133771873Y-117599266D01*
X133629637Y-117540350D01*
X133629634Y-117540349D01*
X133629633Y-117540349D01*
X133629630Y-117540348D01*
X133477002Y-117520255D01*
X133476998Y-117520255D01*
X133324369Y-117540348D01*
X133324359Y-117540351D01*
X133182131Y-117599264D01*
X133059987Y-117692987D01*
X132966264Y-117815131D01*
X132907351Y-117957359D01*
X132907348Y-117957369D01*
X132887255Y-118109998D01*
X132887255Y-118110001D01*
X110970796Y-118110001D01*
X110739756Y-117622110D01*
X110231793Y-116459000D01*
X135457296Y-116459000D01*
X135474823Y-116580905D01*
X135474824Y-116580907D01*
X135525986Y-116692937D01*
X135525988Y-116692939D01*
X135606639Y-116786016D01*
X135606640Y-116786017D01*
X135710243Y-116852598D01*
X135710248Y-116852601D01*
X135789029Y-116875733D01*
X135828419Y-116887300D01*
X135828420Y-116887300D01*
X135951580Y-116887300D01*
X136069752Y-116852601D01*
X136173361Y-116786016D01*
X136254014Y-116692937D01*
X136305176Y-116580907D01*
X136322704Y-116459000D01*
X136305176Y-116337093D01*
X136254014Y-116225063D01*
X136173361Y-116131984D01*
X136173360Y-116131983D01*
X136173359Y-116131982D01*
X136069756Y-116065401D01*
X136069753Y-116065399D01*
X136069752Y-116065399D01*
X136069749Y-116065398D01*
X135951581Y-116030700D01*
X135951580Y-116030700D01*
X135828420Y-116030700D01*
X135828419Y-116030700D01*
X135710250Y-116065398D01*
X135710243Y-116065401D01*
X135606640Y-116131982D01*
X135606639Y-116131983D01*
X135525988Y-116225060D01*
X135525985Y-116225065D01*
X135474824Y-116337091D01*
X135474823Y-116337094D01*
X135457296Y-116459000D01*
X110231793Y-116459000D01*
X110215116Y-116420813D01*
X110026780Y-115951001D01*
X143174255Y-115951001D01*
X143194348Y-116103630D01*
X143194349Y-116103633D01*
X143194350Y-116103637D01*
X143253266Y-116245873D01*
X143346987Y-116368013D01*
X143469127Y-116461734D01*
X143611363Y-116520650D01*
X143611367Y-116520650D01*
X143611369Y-116520651D01*
X143763998Y-116540745D01*
X143764000Y-116540745D01*
X143764002Y-116540745D01*
X143916630Y-116520651D01*
X143916630Y-116520650D01*
X143916637Y-116520650D01*
X144058873Y-116461734D01*
X144181013Y-116368013D01*
X144274734Y-116245873D01*
X144333650Y-116103637D01*
X144353745Y-115951000D01*
X144333650Y-115798363D01*
X144274734Y-115656128D01*
X144181013Y-115533987D01*
X144181011Y-115533986D01*
X144181011Y-115533985D01*
X144058874Y-115440267D01*
X144058873Y-115440266D01*
X143916637Y-115381350D01*
X143916634Y-115381349D01*
X143916633Y-115381349D01*
X143916630Y-115381348D01*
X143764002Y-115361255D01*
X143763998Y-115361255D01*
X143611369Y-115381348D01*
X143611359Y-115381351D01*
X143469131Y-115440264D01*
X143469128Y-115440265D01*
X143469128Y-115440266D01*
X143346987Y-115533987D01*
X143253576Y-115655725D01*
X143253264Y-115656131D01*
X143194351Y-115798359D01*
X143194348Y-115798369D01*
X143174255Y-115950998D01*
X143174255Y-115951001D01*
X110026780Y-115951001D01*
X109727355Y-115204076D01*
X109396562Y-114300000D01*
X141209011Y-114300000D01*
X141228820Y-114501134D01*
X141228821Y-114501136D01*
X141287490Y-114694542D01*
X141287491Y-114694543D01*
X141382760Y-114872781D01*
X141382764Y-114872787D01*
X141510981Y-115029019D01*
X141667213Y-115157236D01*
X141667215Y-115157237D01*
X141667218Y-115157239D01*
X141713595Y-115182028D01*
X141845458Y-115252510D01*
X142038864Y-115311179D01*
X142240000Y-115330989D01*
X142441136Y-115311179D01*
X142634542Y-115252510D01*
X142739662Y-115196322D01*
X151552275Y-115196322D01*
X151558780Y-115256820D01*
X151609827Y-115393684D01*
X151609830Y-115393688D01*
X151697371Y-115510628D01*
X151814311Y-115598169D01*
X151814315Y-115598172D01*
X151951179Y-115649219D01*
X152011677Y-115655724D01*
X152011691Y-115655725D01*
X152654000Y-115655725D01*
X152654000Y-114839721D01*
X152672306Y-114795527D01*
X152716500Y-114777221D01*
X152742462Y-114782869D01*
X152763408Y-114792435D01*
X152784914Y-114795527D01*
X152871664Y-114808000D01*
X152871666Y-114808000D01*
X152944336Y-114808000D01*
X152998463Y-114800217D01*
X153052592Y-114792435D01*
X153073536Y-114782869D01*
X153121340Y-114781161D01*
X153156351Y-114813756D01*
X153162000Y-114839721D01*
X153162000Y-115655725D01*
X153804309Y-115655725D01*
X153804322Y-115655724D01*
X153864820Y-115649219D01*
X154001684Y-115598172D01*
X154001688Y-115598169D01*
X154118628Y-115510628D01*
X154206169Y-115393688D01*
X154206172Y-115393684D01*
X154257219Y-115256820D01*
X154263724Y-115196322D01*
X154263725Y-115196309D01*
X154263725Y-114554000D01*
X153446356Y-114554000D01*
X153402162Y-114535694D01*
X153383856Y-114491500D01*
X153386388Y-114473892D01*
X153415999Y-114373041D01*
X153416000Y-114373040D01*
X153416000Y-114226959D01*
X153415999Y-114226958D01*
X153386388Y-114126108D01*
X153391501Y-114078547D01*
X153428748Y-114048532D01*
X153446356Y-114046000D01*
X154263725Y-114046000D01*
X154263725Y-113403690D01*
X154263724Y-113403677D01*
X154257219Y-113343179D01*
X154235147Y-113284002D01*
X155166362Y-113284002D01*
X155186075Y-113509328D01*
X155186078Y-113509344D01*
X155244617Y-113727814D01*
X155244618Y-113727816D01*
X155340212Y-113932818D01*
X155469952Y-114118107D01*
X155629892Y-114278047D01*
X155697301Y-114325247D01*
X155815181Y-114407787D01*
X155815180Y-114407787D01*
X155917681Y-114455584D01*
X156020182Y-114503381D01*
X156020184Y-114503381D01*
X156020185Y-114503382D01*
X156238655Y-114561921D01*
X156238661Y-114561922D01*
X156238668Y-114561924D01*
X156373867Y-114573752D01*
X156463998Y-114581638D01*
X156464000Y-114581638D01*
X156464002Y-114581638D01*
X156539110Y-114575066D01*
X156689332Y-114561924D01*
X156689341Y-114561921D01*
X156689344Y-114561921D01*
X156907814Y-114503382D01*
X156907813Y-114503382D01*
X156907818Y-114503381D01*
X157112819Y-114407787D01*
X157298106Y-114278048D01*
X157458048Y-114118106D01*
X157587787Y-113932819D01*
X157683381Y-113727818D01*
X157741924Y-113509332D01*
X157761638Y-113284000D01*
X157754841Y-113206315D01*
X157741924Y-113058671D01*
X157741924Y-113058668D01*
X157726694Y-113001830D01*
X157683382Y-112840185D01*
X157683381Y-112840183D01*
X157660441Y-112790989D01*
X157587787Y-112635181D01*
X157575221Y-112617235D01*
X157458047Y-112449892D01*
X157298107Y-112289952D01*
X157180226Y-112207412D01*
X157112819Y-112160213D01*
X157112817Y-112160212D01*
X157112819Y-112160212D01*
X156907816Y-112064618D01*
X156907814Y-112064617D01*
X156689344Y-112006078D01*
X156689328Y-112006075D01*
X156464002Y-111986362D01*
X156463998Y-111986362D01*
X156238671Y-112006075D01*
X156238655Y-112006078D01*
X156020185Y-112064617D01*
X156020183Y-112064618D01*
X155815181Y-112160212D01*
X155629892Y-112289952D01*
X155469952Y-112449892D01*
X155340212Y-112635181D01*
X155244618Y-112840183D01*
X155244617Y-112840185D01*
X155186078Y-113058655D01*
X155186075Y-113058671D01*
X155166362Y-113283997D01*
X155166362Y-113284002D01*
X154235147Y-113284002D01*
X154206172Y-113206315D01*
X154206169Y-113206311D01*
X154118628Y-113089371D01*
X154001688Y-113001830D01*
X154001684Y-113001827D01*
X153864820Y-112950780D01*
X153804322Y-112944275D01*
X153162000Y-112944275D01*
X153162000Y-113760277D01*
X153143694Y-113804471D01*
X153099500Y-113822777D01*
X153073539Y-113817130D01*
X153052593Y-113807565D01*
X153052590Y-113807564D01*
X152944336Y-113792000D01*
X152944334Y-113792000D01*
X152871666Y-113792000D01*
X152871664Y-113792000D01*
X152763409Y-113807564D01*
X152763406Y-113807565D01*
X152742461Y-113817130D01*
X152694656Y-113818836D01*
X152659647Y-113786238D01*
X152654000Y-113760277D01*
X152654000Y-112944275D01*
X152011677Y-112944275D01*
X151951179Y-112950780D01*
X151814315Y-113001827D01*
X151814311Y-113001830D01*
X151697371Y-113089371D01*
X151609830Y-113206311D01*
X151609827Y-113206315D01*
X151558780Y-113343179D01*
X151552275Y-113403677D01*
X151552275Y-114046000D01*
X152369644Y-114046000D01*
X152413838Y-114064306D01*
X152432144Y-114108500D01*
X152429612Y-114126108D01*
X152400000Y-114226958D01*
X152400000Y-114373041D01*
X152429612Y-114473892D01*
X152424499Y-114521453D01*
X152387252Y-114551468D01*
X152369644Y-114554000D01*
X151552275Y-114554000D01*
X151552275Y-115196322D01*
X142739662Y-115196322D01*
X142812787Y-115157236D01*
X142969019Y-115029019D01*
X143097236Y-114872787D01*
X143192510Y-114694542D01*
X143251179Y-114501136D01*
X143270989Y-114300000D01*
X143251179Y-114098864D01*
X143192510Y-113905458D01*
X143114909Y-113760277D01*
X143097239Y-113727218D01*
X143097235Y-113727212D01*
X142969019Y-113570981D01*
X142812787Y-113442764D01*
X142812781Y-113442760D01*
X142700473Y-113382730D01*
X142634542Y-113347490D01*
X142510924Y-113309991D01*
X142441134Y-113288820D01*
X142240000Y-113269011D01*
X142038865Y-113288820D01*
X141915246Y-113326319D01*
X141845458Y-113347490D01*
X141845456Y-113347490D01*
X141845456Y-113347491D01*
X141667218Y-113442760D01*
X141667212Y-113442764D01*
X141510981Y-113570981D01*
X141382764Y-113727212D01*
X141382760Y-113727218D01*
X141307379Y-113868248D01*
X141287490Y-113905458D01*
X141279190Y-113932819D01*
X141228820Y-114098865D01*
X141209011Y-114299999D01*
X141209011Y-114300000D01*
X109396562Y-114300000D01*
X109276927Y-113973029D01*
X108864251Y-112728819D01*
X108499667Y-111505999D01*
X130377296Y-111505999D01*
X130394823Y-111627905D01*
X130394824Y-111627908D01*
X130396699Y-111632013D01*
X130445986Y-111739937D01*
X130484730Y-111784650D01*
X130526639Y-111833016D01*
X130526640Y-111833017D01*
X130560668Y-111854885D01*
X130630248Y-111899601D01*
X130709029Y-111922733D01*
X130748419Y-111934300D01*
X130748420Y-111934300D01*
X130871580Y-111934300D01*
X130989752Y-111899601D01*
X131093361Y-111833016D01*
X131174014Y-111739937D01*
X131225176Y-111627907D01*
X131242704Y-111506000D01*
X131225176Y-111384093D01*
X131174014Y-111272063D01*
X131168016Y-111265141D01*
X135033115Y-111265141D01*
X135053208Y-111417770D01*
X135053209Y-111417773D01*
X135053210Y-111417777D01*
X135112126Y-111560013D01*
X135205847Y-111682153D01*
X135327987Y-111775874D01*
X135470223Y-111834790D01*
X135470227Y-111834790D01*
X135470229Y-111834791D01*
X135622858Y-111854885D01*
X135622860Y-111854885D01*
X135622862Y-111854885D01*
X135775490Y-111834791D01*
X135775490Y-111834790D01*
X135775497Y-111834790D01*
X135917733Y-111775874D01*
X135938420Y-111760000D01*
X141209011Y-111760000D01*
X141228820Y-111961134D01*
X141228821Y-111961136D01*
X141287490Y-112154542D01*
X141322730Y-112220473D01*
X141382760Y-112332781D01*
X141382764Y-112332787D01*
X141510981Y-112489019D01*
X141667213Y-112617236D01*
X141667215Y-112617237D01*
X141667218Y-112617239D01*
X141674887Y-112621338D01*
X141845458Y-112712510D01*
X142038864Y-112771179D01*
X142240000Y-112790989D01*
X142441136Y-112771179D01*
X142634542Y-112712510D01*
X142812787Y-112617236D01*
X142969019Y-112489019D01*
X143097236Y-112332787D01*
X143192510Y-112154542D01*
X143251179Y-111961136D01*
X143270989Y-111760000D01*
X143251179Y-111558864D01*
X143192510Y-111365458D01*
X143112089Y-111215001D01*
X143936255Y-111215001D01*
X143956348Y-111367630D01*
X143956349Y-111367633D01*
X143956350Y-111367637D01*
X144015266Y-111509873D01*
X144108987Y-111632013D01*
X144231127Y-111725734D01*
X144373363Y-111784650D01*
X144373367Y-111784650D01*
X144373369Y-111784651D01*
X144525998Y-111804745D01*
X144526000Y-111804745D01*
X144526002Y-111804745D01*
X144678630Y-111784651D01*
X144678630Y-111784650D01*
X144678637Y-111784650D01*
X144820873Y-111725734D01*
X144943013Y-111632013D01*
X145036734Y-111509873D01*
X145095650Y-111367637D01*
X145115745Y-111215000D01*
X145112087Y-111187218D01*
X145095651Y-111062369D01*
X145095650Y-111062367D01*
X145095650Y-111062363D01*
X145036734Y-110920128D01*
X144943013Y-110797987D01*
X144943011Y-110797986D01*
X144943011Y-110797985D01*
X144820874Y-110704267D01*
X144820873Y-110704266D01*
X144678637Y-110645350D01*
X144678634Y-110645349D01*
X144678633Y-110645349D01*
X144678630Y-110645348D01*
X144526002Y-110625255D01*
X144525998Y-110625255D01*
X144373369Y-110645348D01*
X144373359Y-110645351D01*
X144231131Y-110704264D01*
X144231128Y-110704265D01*
X144231128Y-110704266D01*
X144173062Y-110748821D01*
X144108987Y-110797987D01*
X144015264Y-110920131D01*
X143956351Y-111062359D01*
X143956348Y-111062369D01*
X143936255Y-111214998D01*
X143936255Y-111215001D01*
X143112089Y-111215001D01*
X143097239Y-111187218D01*
X143097235Y-111187212D01*
X142969019Y-111030981D01*
X142812787Y-110902764D01*
X142812781Y-110902760D01*
X142700473Y-110842730D01*
X142634542Y-110807490D01*
X142510924Y-110769991D01*
X142441134Y-110748820D01*
X142240000Y-110729011D01*
X142038865Y-110748820D01*
X141915246Y-110786319D01*
X141845458Y-110807490D01*
X141845456Y-110807490D01*
X141845456Y-110807491D01*
X141667218Y-110902760D01*
X141667212Y-110902764D01*
X141510981Y-111030981D01*
X141382764Y-111187212D01*
X141382760Y-111187218D01*
X141287491Y-111365456D01*
X141287490Y-111365458D01*
X141271619Y-111417777D01*
X141228820Y-111558865D01*
X141209011Y-111759999D01*
X141209011Y-111760000D01*
X135938420Y-111760000D01*
X136039873Y-111682153D01*
X136133594Y-111560013D01*
X136192510Y-111417777D01*
X136192511Y-111417770D01*
X136212605Y-111265141D01*
X136212605Y-111265138D01*
X136192511Y-111112509D01*
X136192510Y-111112507D01*
X136192510Y-111112503D01*
X136133594Y-110970268D01*
X136039873Y-110848127D01*
X136039871Y-110848126D01*
X136039871Y-110848125D01*
X135917734Y-110754407D01*
X135917733Y-110754406D01*
X135775497Y-110695490D01*
X135775494Y-110695489D01*
X135775493Y-110695489D01*
X135775490Y-110695488D01*
X135622862Y-110675395D01*
X135622858Y-110675395D01*
X135470229Y-110695488D01*
X135470219Y-110695491D01*
X135327991Y-110754404D01*
X135327988Y-110754405D01*
X135327988Y-110754406D01*
X135205847Y-110848127D01*
X135150600Y-110920128D01*
X135112124Y-110970271D01*
X135053211Y-111112499D01*
X135053208Y-111112509D01*
X135033115Y-111265138D01*
X135033115Y-111265141D01*
X131168016Y-111265141D01*
X131093361Y-111178984D01*
X131093360Y-111178983D01*
X131093359Y-111178982D01*
X130989756Y-111112401D01*
X130989753Y-111112399D01*
X130989752Y-111112399D01*
X130989749Y-111112398D01*
X130871581Y-111077700D01*
X130871580Y-111077700D01*
X130748420Y-111077700D01*
X130748419Y-111077700D01*
X130630250Y-111112398D01*
X130630243Y-111112401D01*
X130526640Y-111178982D01*
X130526639Y-111178983D01*
X130445988Y-111272060D01*
X130445985Y-111272065D01*
X130394824Y-111384091D01*
X130394823Y-111384094D01*
X130377296Y-111505999D01*
X108499667Y-111505999D01*
X108489710Y-111472603D01*
X108153653Y-110205548D01*
X107924186Y-109220000D01*
X141209011Y-109220000D01*
X141228820Y-109421134D01*
X141228821Y-109421136D01*
X141287490Y-109614542D01*
X141287491Y-109614543D01*
X141382760Y-109792781D01*
X141382764Y-109792787D01*
X141510981Y-109949019D01*
X141667213Y-110077236D01*
X141667215Y-110077237D01*
X141667218Y-110077239D01*
X141713595Y-110102028D01*
X141845458Y-110172510D01*
X142038864Y-110231179D01*
X142240000Y-110250989D01*
X142441136Y-110231179D01*
X142634542Y-110172510D01*
X142812787Y-110077236D01*
X142969019Y-109949019D01*
X143097236Y-109792787D01*
X143192510Y-109614542D01*
X143251179Y-109421136D01*
X143270989Y-109220000D01*
X143251179Y-109018864D01*
X143192510Y-108825458D01*
X143097236Y-108647213D01*
X142969019Y-108490981D01*
X142812787Y-108362764D01*
X142812781Y-108362760D01*
X142700473Y-108302730D01*
X142634542Y-108267490D01*
X142510924Y-108229991D01*
X142441134Y-108208820D01*
X142240000Y-108189011D01*
X142038865Y-108208820D01*
X141915246Y-108246319D01*
X141845458Y-108267490D01*
X141845456Y-108267490D01*
X141845456Y-108267491D01*
X141667218Y-108362760D01*
X141667212Y-108362764D01*
X141510981Y-108490981D01*
X141382764Y-108647212D01*
X141382760Y-108647218D01*
X141287491Y-108825456D01*
X141228820Y-109018865D01*
X141209011Y-109219999D01*
X141209011Y-109220000D01*
X107924186Y-109220000D01*
X107856393Y-108928835D01*
X107598206Y-107643650D01*
X107586804Y-107576322D01*
X140884275Y-107576322D01*
X140890780Y-107636820D01*
X140899795Y-107660991D01*
X140899796Y-107660991D01*
X141677011Y-106883776D01*
X141721205Y-106865470D01*
X141765399Y-106883776D01*
X141773783Y-106894180D01*
X141852129Y-107016088D01*
X141852131Y-107016090D01*
X141962526Y-107111749D01*
X141962527Y-107111750D01*
X141962530Y-107111752D01*
X141991683Y-107125065D01*
X142021327Y-107138604D01*
X142053923Y-107173614D01*
X142052216Y-107221419D01*
X142039558Y-107239650D01*
X141259006Y-108020202D01*
X141283178Y-108029218D01*
X141283186Y-108029220D01*
X141343677Y-108035724D01*
X141343691Y-108035725D01*
X143136309Y-108035725D01*
X143136322Y-108035724D01*
X143196816Y-108029220D01*
X143220991Y-108020202D01*
X143220992Y-108020202D01*
X142440440Y-107239650D01*
X142422134Y-107195456D01*
X142440440Y-107151262D01*
X142458669Y-107138605D01*
X142517470Y-107111752D01*
X142627869Y-107016090D01*
X142706217Y-106894177D01*
X142745507Y-106866898D01*
X142792583Y-106875391D01*
X142802987Y-106883776D01*
X143580202Y-107660991D01*
X143589220Y-107636816D01*
X143595724Y-107576322D01*
X143595725Y-107576309D01*
X143595725Y-105783690D01*
X143595724Y-105783677D01*
X143589220Y-105723186D01*
X143589218Y-105723178D01*
X143580202Y-105699007D01*
X143580202Y-105699006D01*
X142802987Y-106476222D01*
X142758793Y-106494528D01*
X142714599Y-106476222D01*
X142706215Y-106465818D01*
X142627870Y-106343911D01*
X142627868Y-106343909D01*
X142517473Y-106248250D01*
X142517468Y-106248247D01*
X142458670Y-106221395D01*
X142426074Y-106186385D01*
X142427781Y-106138580D01*
X142440439Y-106120349D01*
X143220991Y-105339796D01*
X143220991Y-105339795D01*
X143196820Y-105330780D01*
X143136322Y-105324275D01*
X141343677Y-105324275D01*
X141283181Y-105330780D01*
X141259007Y-105339796D01*
X142039559Y-106120349D01*
X142057865Y-106164543D01*
X142039559Y-106208737D01*
X142021329Y-106221395D01*
X141962528Y-106248248D01*
X141962526Y-106248250D01*
X141852131Y-106343909D01*
X141852129Y-106343911D01*
X141773784Y-106465819D01*
X141734491Y-106493101D01*
X141687416Y-106484607D01*
X141677012Y-106476223D01*
X140899796Y-105699007D01*
X140890780Y-105723181D01*
X140884275Y-105783677D01*
X140884275Y-107576322D01*
X107586804Y-107576322D01*
X107435016Y-106680000D01*
X119455296Y-106680000D01*
X119472823Y-106801905D01*
X119472824Y-106801907D01*
X119523986Y-106913937D01*
X119523988Y-106913939D01*
X119604639Y-107007016D01*
X119604640Y-107007017D01*
X119618760Y-107016091D01*
X119708248Y-107073601D01*
X119787029Y-107096733D01*
X119826419Y-107108300D01*
X119826420Y-107108300D01*
X119949580Y-107108300D01*
X120067752Y-107073601D01*
X120087360Y-107061000D01*
X127456296Y-107061000D01*
X127473823Y-107182905D01*
X127473824Y-107182908D01*
X127479555Y-107195456D01*
X127524986Y-107294937D01*
X127524988Y-107294939D01*
X127605639Y-107388016D01*
X127605640Y-107388017D01*
X127709243Y-107454598D01*
X127709248Y-107454601D01*
X127788029Y-107477733D01*
X127827419Y-107489300D01*
X127827420Y-107489300D01*
X127950580Y-107489300D01*
X128068752Y-107454601D01*
X128172361Y-107388016D01*
X128253014Y-107294937D01*
X128304176Y-107182907D01*
X128321704Y-107061000D01*
X128304176Y-106939093D01*
X128253014Y-106827063D01*
X128172361Y-106733984D01*
X128172360Y-106733983D01*
X128172359Y-106733982D01*
X128068756Y-106667401D01*
X128068753Y-106667399D01*
X128068752Y-106667399D01*
X128068749Y-106667398D01*
X127950581Y-106632700D01*
X127950580Y-106632700D01*
X127827420Y-106632700D01*
X127827419Y-106632700D01*
X127709250Y-106667398D01*
X127709243Y-106667401D01*
X127605640Y-106733982D01*
X127605639Y-106733983D01*
X127524988Y-106827060D01*
X127524985Y-106827065D01*
X127473824Y-106939091D01*
X127473823Y-106939094D01*
X127456296Y-107061000D01*
X120087360Y-107061000D01*
X120171361Y-107007016D01*
X120252014Y-106913937D01*
X120303176Y-106801907D01*
X120320704Y-106680000D01*
X120303176Y-106558093D01*
X120252014Y-106446063D01*
X120171361Y-106352984D01*
X120171360Y-106352983D01*
X120171359Y-106352982D01*
X120067756Y-106286401D01*
X120067753Y-106286399D01*
X120067752Y-106286399D01*
X120067749Y-106286398D01*
X119949581Y-106251700D01*
X119949580Y-106251700D01*
X119826420Y-106251700D01*
X119826419Y-106251700D01*
X119708250Y-106286398D01*
X119708243Y-106286401D01*
X119604640Y-106352982D01*
X119604639Y-106352983D01*
X119523988Y-106446060D01*
X119523985Y-106446065D01*
X119472824Y-106558091D01*
X119472823Y-106558094D01*
X119455296Y-106680000D01*
X107435016Y-106680000D01*
X107379333Y-106351189D01*
X107284417Y-105664000D01*
X119455296Y-105664000D01*
X119472823Y-105785905D01*
X119472824Y-105785908D01*
X119475150Y-105791001D01*
X119523986Y-105897937D01*
X119523988Y-105897939D01*
X119604639Y-105991016D01*
X119604640Y-105991017D01*
X119688640Y-106045000D01*
X119708248Y-106057601D01*
X119787029Y-106080733D01*
X119826419Y-106092300D01*
X119826420Y-106092300D01*
X119949580Y-106092300D01*
X120067752Y-106057601D01*
X120087360Y-106045000D01*
X123900296Y-106045000D01*
X123917823Y-106166905D01*
X123917824Y-106166908D01*
X123926719Y-106186385D01*
X123968986Y-106278937D01*
X123968988Y-106278939D01*
X124049639Y-106372016D01*
X124049640Y-106372017D01*
X124153243Y-106438598D01*
X124153248Y-106438601D01*
X124232029Y-106461733D01*
X124271419Y-106473300D01*
X124271420Y-106473300D01*
X124394580Y-106473300D01*
X124512752Y-106438601D01*
X124616361Y-106372016D01*
X124697014Y-106278937D01*
X124748176Y-106166907D01*
X124765704Y-106045000D01*
X124748176Y-105923093D01*
X124697014Y-105811063D01*
X124616361Y-105717984D01*
X124616360Y-105717983D01*
X124616359Y-105717982D01*
X124512756Y-105651401D01*
X124512753Y-105651399D01*
X124512752Y-105651399D01*
X124468377Y-105638369D01*
X124394581Y-105616700D01*
X124394580Y-105616700D01*
X124271420Y-105616700D01*
X124271419Y-105616700D01*
X124153250Y-105651398D01*
X124153243Y-105651401D01*
X124049640Y-105717982D01*
X124049639Y-105717983D01*
X123968988Y-105811060D01*
X123968985Y-105811065D01*
X123917824Y-105923091D01*
X123917823Y-105923094D01*
X123900296Y-106045000D01*
X120087360Y-106045000D01*
X120171361Y-105991016D01*
X120252014Y-105897937D01*
X120303176Y-105785907D01*
X120320704Y-105664000D01*
X120303176Y-105542093D01*
X120252014Y-105430063D01*
X120171361Y-105336984D01*
X120171360Y-105336983D01*
X120171359Y-105336982D01*
X120067756Y-105270401D01*
X120067753Y-105270399D01*
X120067752Y-105270399D01*
X120067749Y-105270398D01*
X119949581Y-105235700D01*
X119949580Y-105235700D01*
X119826420Y-105235700D01*
X119826419Y-105235700D01*
X119708250Y-105270398D01*
X119708243Y-105270401D01*
X119604640Y-105336982D01*
X119604639Y-105336983D01*
X119523988Y-105430060D01*
X119523985Y-105430065D01*
X119472824Y-105542091D01*
X119472823Y-105542094D01*
X119455296Y-105664000D01*
X107284417Y-105664000D01*
X107199976Y-105052655D01*
X107156613Y-104648000D01*
X119455296Y-104648000D01*
X119472823Y-104769905D01*
X119472824Y-104769907D01*
X119523986Y-104881937D01*
X119523988Y-104881939D01*
X119604639Y-104975016D01*
X119604640Y-104975017D01*
X119708243Y-105041598D01*
X119708248Y-105041601D01*
X119787029Y-105064733D01*
X119826419Y-105076300D01*
X119826420Y-105076300D01*
X119949580Y-105076300D01*
X120067752Y-105041601D01*
X120171361Y-104975016D01*
X120252014Y-104881937D01*
X120303176Y-104769907D01*
X120320704Y-104648000D01*
X120303176Y-104526093D01*
X120252014Y-104414063D01*
X120171361Y-104320984D01*
X120171360Y-104320983D01*
X120171359Y-104320982D01*
X120067756Y-104254401D01*
X120067753Y-104254399D01*
X120067752Y-104254399D01*
X120067749Y-104254398D01*
X119949581Y-104219700D01*
X119949580Y-104219700D01*
X119826420Y-104219700D01*
X119826419Y-104219700D01*
X119708250Y-104254398D01*
X119708243Y-104254401D01*
X119604640Y-104320982D01*
X119604639Y-104320983D01*
X119523988Y-104414060D01*
X119523985Y-104414065D01*
X119472824Y-104526091D01*
X119472823Y-104526094D01*
X119455296Y-104648000D01*
X107156613Y-104648000D01*
X107060303Y-103749255D01*
X106973721Y-102616000D01*
X118439296Y-102616000D01*
X118456823Y-102737905D01*
X118456824Y-102737907D01*
X118507986Y-102849937D01*
X118507988Y-102849939D01*
X118588639Y-102943016D01*
X118588640Y-102943017D01*
X118692243Y-103009598D01*
X118692248Y-103009601D01*
X118771029Y-103032733D01*
X118810419Y-103044300D01*
X118810420Y-103044300D01*
X118933580Y-103044300D01*
X119051752Y-103009601D01*
X119155361Y-102943016D01*
X119236014Y-102849937D01*
X119287176Y-102737907D01*
X119304704Y-102616000D01*
X119287176Y-102494093D01*
X119236014Y-102382063D01*
X119155361Y-102288984D01*
X119155360Y-102288983D01*
X119155359Y-102288982D01*
X119051756Y-102222401D01*
X119051753Y-102222399D01*
X119051752Y-102222399D01*
X119051749Y-102222398D01*
X118933581Y-102187700D01*
X118933580Y-102187700D01*
X118810420Y-102187700D01*
X118810419Y-102187700D01*
X118692250Y-102222398D01*
X118692243Y-102222401D01*
X118588640Y-102288982D01*
X118588639Y-102288983D01*
X118507988Y-102382060D01*
X118507985Y-102382065D01*
X118456824Y-102494091D01*
X118456823Y-102494094D01*
X118439296Y-102616000D01*
X106973721Y-102616000D01*
X106960443Y-102442201D01*
X106900490Y-101132710D01*
X106880500Y-99822000D01*
X106888583Y-99292000D01*
X118439296Y-99292000D01*
X118456823Y-99413905D01*
X118456824Y-99413907D01*
X118507986Y-99525937D01*
X118507988Y-99525939D01*
X118588639Y-99619016D01*
X118588640Y-99619017D01*
X118692243Y-99685598D01*
X118692248Y-99685601D01*
X118771029Y-99708733D01*
X118810419Y-99720300D01*
X118810420Y-99720300D01*
X118896534Y-99720300D01*
X118940728Y-99738606D01*
X123000095Y-103797973D01*
X123007868Y-103807444D01*
X123019356Y-103824638D01*
X123019359Y-103824641D01*
X123041671Y-103839549D01*
X123107744Y-103883697D01*
X123212000Y-103904436D01*
X123232284Y-103900400D01*
X123244478Y-103899200D01*
X136007434Y-103899200D01*
X136051628Y-103917506D01*
X137716108Y-105581986D01*
X137734414Y-105626180D01*
X137733879Y-105634338D01*
X137713255Y-105790998D01*
X137713255Y-105791001D01*
X137733348Y-105943630D01*
X137733349Y-105943633D01*
X137733350Y-105943637D01*
X137792266Y-106085873D01*
X137885987Y-106208013D01*
X138008127Y-106301734D01*
X138150363Y-106360650D01*
X138150367Y-106360650D01*
X138150369Y-106360651D01*
X138302998Y-106380745D01*
X138303000Y-106380745D01*
X138303002Y-106380745D01*
X138455630Y-106360651D01*
X138455630Y-106360650D01*
X138455637Y-106360650D01*
X138597873Y-106301734D01*
X138720013Y-106208013D01*
X138813734Y-106085873D01*
X138872650Y-105943637D01*
X138878667Y-105897934D01*
X138892745Y-105791001D01*
X138892745Y-105790998D01*
X138872651Y-105638369D01*
X138872650Y-105638367D01*
X138872650Y-105638363D01*
X138813734Y-105496128D01*
X138720013Y-105373987D01*
X138720011Y-105373986D01*
X138720011Y-105373985D01*
X138597874Y-105280267D01*
X138597873Y-105280266D01*
X138455637Y-105221350D01*
X138455634Y-105221349D01*
X138455633Y-105221349D01*
X138455630Y-105221348D01*
X138303002Y-105201255D01*
X138302998Y-105201255D01*
X138146338Y-105221879D01*
X138100132Y-105209498D01*
X138093986Y-105204108D01*
X137029878Y-104140000D01*
X141209011Y-104140000D01*
X141228820Y-104341134D01*
X141228821Y-104341136D01*
X141287490Y-104534542D01*
X141287491Y-104534543D01*
X141382760Y-104712781D01*
X141382764Y-104712787D01*
X141510981Y-104869019D01*
X141667213Y-104997236D01*
X141667215Y-104997237D01*
X141667218Y-104997239D01*
X141713595Y-105022028D01*
X141845458Y-105092510D01*
X142038864Y-105151179D01*
X142240000Y-105170989D01*
X142441136Y-105151179D01*
X142634542Y-105092510D01*
X142812787Y-104997236D01*
X142969019Y-104869019D01*
X143097236Y-104712787D01*
X143192510Y-104534542D01*
X143251179Y-104341136D01*
X143270989Y-104140000D01*
X143251179Y-103938864D01*
X143192510Y-103745458D01*
X143097236Y-103567213D01*
X142969019Y-103410981D01*
X142812787Y-103282764D01*
X142812781Y-103282760D01*
X142700473Y-103222730D01*
X142634542Y-103187490D01*
X142510924Y-103149991D01*
X142441134Y-103128820D01*
X142240000Y-103109011D01*
X142038865Y-103128820D01*
X141915246Y-103166319D01*
X141845458Y-103187490D01*
X141845456Y-103187490D01*
X141845456Y-103187491D01*
X141667218Y-103282760D01*
X141667212Y-103282764D01*
X141510981Y-103410981D01*
X141382764Y-103567212D01*
X141382760Y-103567218D01*
X141287491Y-103745456D01*
X141287490Y-103745458D01*
X141271560Y-103797973D01*
X141228820Y-103938865D01*
X141209011Y-104139999D01*
X141209011Y-104140000D01*
X137029878Y-104140000D01*
X136355901Y-103466023D01*
X136348132Y-103456557D01*
X136336641Y-103439359D01*
X136294170Y-103410981D01*
X136248257Y-103380303D01*
X136144000Y-103359564D01*
X136123716Y-103363599D01*
X136111522Y-103364800D01*
X123348566Y-103364800D01*
X123304372Y-103346494D01*
X122573878Y-102616000D01*
X124789296Y-102616000D01*
X124806823Y-102737905D01*
X124806824Y-102737907D01*
X124857986Y-102849937D01*
X124857988Y-102849939D01*
X124938639Y-102943016D01*
X124938640Y-102943017D01*
X125042243Y-103009598D01*
X125042248Y-103009601D01*
X125121029Y-103032733D01*
X125160419Y-103044300D01*
X125160420Y-103044300D01*
X125283580Y-103044300D01*
X125401752Y-103009601D01*
X125505361Y-102943016D01*
X125586014Y-102849937D01*
X125637176Y-102737907D01*
X125654704Y-102616000D01*
X125637176Y-102494093D01*
X125586014Y-102382063D01*
X125505361Y-102288984D01*
X125505360Y-102288983D01*
X125505359Y-102288982D01*
X125401756Y-102222401D01*
X125401753Y-102222399D01*
X125401752Y-102222399D01*
X125401749Y-102222398D01*
X125283581Y-102187700D01*
X125283580Y-102187700D01*
X125160420Y-102187700D01*
X125160419Y-102187700D01*
X125042250Y-102222398D01*
X125042243Y-102222401D01*
X124938640Y-102288982D01*
X124938639Y-102288983D01*
X124857988Y-102382060D01*
X124857985Y-102382065D01*
X124806824Y-102494091D01*
X124806823Y-102494094D01*
X124789296Y-102616000D01*
X122573878Y-102616000D01*
X120160877Y-100202999D01*
X128853296Y-100202999D01*
X128870823Y-100324905D01*
X128870824Y-100324907D01*
X128921986Y-100436937D01*
X128956753Y-100477060D01*
X129002639Y-100530016D01*
X129002640Y-100530017D01*
X129106243Y-100596598D01*
X129106248Y-100596601D01*
X129185029Y-100619733D01*
X129224419Y-100631300D01*
X129224420Y-100631300D01*
X129347580Y-100631300D01*
X129413149Y-100612047D01*
X129460711Y-100617160D01*
X129490726Y-100654406D01*
X129492622Y-100680909D01*
X129488296Y-100710999D01*
X129505823Y-100832905D01*
X129505824Y-100832907D01*
X129556986Y-100944937D01*
X129637638Y-101038016D01*
X129637639Y-101038016D01*
X129637640Y-101038017D01*
X129738634Y-101102922D01*
X129765916Y-101142215D01*
X129757422Y-101189290D01*
X129738634Y-101208078D01*
X129637640Y-101272982D01*
X129637639Y-101272983D01*
X129556988Y-101366060D01*
X129556985Y-101366065D01*
X129505824Y-101478091D01*
X129505823Y-101478094D01*
X129488296Y-101600000D01*
X129505823Y-101721905D01*
X129505824Y-101721907D01*
X129556986Y-101833937D01*
X129556988Y-101833939D01*
X129637639Y-101927016D01*
X129637640Y-101927017D01*
X129741243Y-101993598D01*
X129741248Y-101993601D01*
X129820029Y-102016733D01*
X129859419Y-102028300D01*
X129859420Y-102028300D01*
X129982580Y-102028300D01*
X130100752Y-101993601D01*
X130204361Y-101927016D01*
X130285014Y-101833937D01*
X130336176Y-101721907D01*
X130353704Y-101600000D01*
X130336176Y-101478093D01*
X130285014Y-101366063D01*
X130204361Y-101272984D01*
X130204360Y-101272983D01*
X130204359Y-101272982D01*
X130103365Y-101208078D01*
X130076083Y-101168786D01*
X130084577Y-101121710D01*
X130103365Y-101102922D01*
X130204359Y-101038017D01*
X130204358Y-101038017D01*
X130204361Y-101038016D01*
X130285014Y-100944937D01*
X130336176Y-100832907D01*
X130353704Y-100711000D01*
X130336176Y-100589093D01*
X130285014Y-100477063D01*
X130204361Y-100383984D01*
X130204360Y-100383983D01*
X130204359Y-100383982D01*
X130100756Y-100317401D01*
X130100753Y-100317399D01*
X130100752Y-100317399D01*
X130046034Y-100301332D01*
X129982581Y-100282700D01*
X129982580Y-100282700D01*
X129859420Y-100282700D01*
X129859418Y-100282700D01*
X129793849Y-100301953D01*
X129746288Y-100296840D01*
X129716273Y-100259593D01*
X129714377Y-100233092D01*
X129718704Y-100203000D01*
X129701176Y-100081093D01*
X129698851Y-100076002D01*
X141958362Y-100076002D01*
X141978075Y-100301328D01*
X141978078Y-100301344D01*
X142036617Y-100519814D01*
X142036618Y-100519816D01*
X142132212Y-100724818D01*
X142261952Y-100910107D01*
X142421892Y-101070047D01*
X142468843Y-101102922D01*
X142607181Y-101199787D01*
X142607180Y-101199787D01*
X142709681Y-101247584D01*
X142812182Y-101295381D01*
X142812184Y-101295381D01*
X142812185Y-101295382D01*
X143030655Y-101353921D01*
X143030661Y-101353922D01*
X143030668Y-101353924D01*
X143165867Y-101365752D01*
X143255998Y-101373638D01*
X143256000Y-101373638D01*
X143256002Y-101373638D01*
X143331110Y-101367066D01*
X143481332Y-101353924D01*
X143481341Y-101353921D01*
X143481344Y-101353921D01*
X143699814Y-101295382D01*
X143699813Y-101295382D01*
X143699818Y-101295381D01*
X143904819Y-101199787D01*
X144090106Y-101070048D01*
X144250048Y-100910106D01*
X144379787Y-100724819D01*
X144475381Y-100519818D01*
X144527608Y-100324905D01*
X144533921Y-100301344D01*
X144533921Y-100301341D01*
X144533924Y-100301332D01*
X144553192Y-100081094D01*
X144553638Y-100076002D01*
X144553638Y-100075997D01*
X144536139Y-99875983D01*
X144533924Y-99850668D01*
X144526242Y-99822000D01*
X144475382Y-99632185D01*
X144475381Y-99632183D01*
X144469241Y-99619016D01*
X144379787Y-99427181D01*
X144334186Y-99362056D01*
X144250047Y-99241892D01*
X144090107Y-99081952D01*
X143923055Y-98964982D01*
X143904819Y-98952213D01*
X143904817Y-98952212D01*
X143904819Y-98952212D01*
X143699816Y-98856618D01*
X143699814Y-98856617D01*
X143481344Y-98798078D01*
X143481328Y-98798075D01*
X143256002Y-98778362D01*
X143255998Y-98778362D01*
X143030671Y-98798075D01*
X143030655Y-98798078D01*
X142812185Y-98856617D01*
X142812183Y-98856618D01*
X142607181Y-98952212D01*
X142421892Y-99081952D01*
X142261952Y-99241892D01*
X142132212Y-99427181D01*
X142036618Y-99632183D01*
X142036617Y-99632185D01*
X141978078Y-99850655D01*
X141978075Y-99850671D01*
X141958362Y-100075997D01*
X141958362Y-100076002D01*
X129698851Y-100076002D01*
X129650014Y-99969063D01*
X129569361Y-99875984D01*
X129569360Y-99875983D01*
X129569359Y-99875982D01*
X129465756Y-99809401D01*
X129465753Y-99809399D01*
X129465752Y-99809399D01*
X129465749Y-99809398D01*
X129347581Y-99774700D01*
X129347580Y-99774700D01*
X129224420Y-99774700D01*
X129224419Y-99774700D01*
X129106250Y-99809398D01*
X129106243Y-99809401D01*
X129002640Y-99875982D01*
X129002639Y-99875983D01*
X128921988Y-99969060D01*
X128921985Y-99969065D01*
X128870824Y-100081091D01*
X128870823Y-100081094D01*
X128853296Y-100202999D01*
X120160877Y-100202999D01*
X119525878Y-99568000D01*
X126567296Y-99568000D01*
X126584823Y-99689905D01*
X126584824Y-99689907D01*
X126635986Y-99801937D01*
X126678214Y-99850671D01*
X126716639Y-99895016D01*
X126716640Y-99895017D01*
X126820243Y-99961598D01*
X126820248Y-99961601D01*
X126899029Y-99984733D01*
X126938419Y-99996300D01*
X126938420Y-99996300D01*
X127061580Y-99996300D01*
X127179752Y-99961601D01*
X127283361Y-99895016D01*
X127364014Y-99801937D01*
X127415176Y-99689907D01*
X127432704Y-99568000D01*
X127415176Y-99446093D01*
X127364014Y-99334063D01*
X127283361Y-99240984D01*
X127283360Y-99240983D01*
X127283359Y-99240982D01*
X127179756Y-99174401D01*
X127179753Y-99174399D01*
X127179752Y-99174399D01*
X127165091Y-99170094D01*
X127061581Y-99139700D01*
X127061580Y-99139700D01*
X126938420Y-99139700D01*
X126938419Y-99139700D01*
X126820250Y-99174398D01*
X126820243Y-99174401D01*
X126716640Y-99240982D01*
X126716639Y-99240983D01*
X126635988Y-99334060D01*
X126635985Y-99334065D01*
X126584824Y-99446091D01*
X126584823Y-99446094D01*
X126567296Y-99568000D01*
X119525878Y-99568000D01*
X119319934Y-99362056D01*
X119301628Y-99317862D01*
X119302264Y-99308966D01*
X119303012Y-99303765D01*
X119304704Y-99292000D01*
X119287176Y-99170093D01*
X119236014Y-99058063D01*
X119155361Y-98964984D01*
X119155360Y-98964983D01*
X119155359Y-98964982D01*
X119051756Y-98898401D01*
X119051753Y-98898399D01*
X119051752Y-98898399D01*
X119051749Y-98898398D01*
X118933581Y-98863700D01*
X118933580Y-98863700D01*
X118810420Y-98863700D01*
X118810419Y-98863700D01*
X118692250Y-98898398D01*
X118692243Y-98898401D01*
X118588640Y-98964982D01*
X118588639Y-98964983D01*
X118507988Y-99058060D01*
X118507985Y-99058065D01*
X118456824Y-99170091D01*
X118456823Y-99170094D01*
X118439296Y-99292000D01*
X106888583Y-99292000D01*
X106900490Y-98511290D01*
X106939328Y-97663000D01*
X129234296Y-97663000D01*
X129251823Y-97784905D01*
X129251824Y-97784907D01*
X129302986Y-97896937D01*
X129302988Y-97896939D01*
X129383639Y-97990016D01*
X129383640Y-97990017D01*
X129487243Y-98056598D01*
X129487248Y-98056601D01*
X129566029Y-98079733D01*
X129605419Y-98091300D01*
X129605420Y-98091300D01*
X129728580Y-98091300D01*
X129846752Y-98056601D01*
X129950361Y-97990016D01*
X130031014Y-97896937D01*
X130082176Y-97784907D01*
X130099704Y-97663000D01*
X130082176Y-97541093D01*
X130031014Y-97429063D01*
X129950361Y-97335984D01*
X129950360Y-97335983D01*
X129950359Y-97335982D01*
X129846756Y-97269401D01*
X129846753Y-97269399D01*
X129846752Y-97269399D01*
X129846749Y-97269398D01*
X129728581Y-97234700D01*
X129728580Y-97234700D01*
X129605420Y-97234700D01*
X129605419Y-97234700D01*
X129487250Y-97269398D01*
X129487243Y-97269401D01*
X129383640Y-97335982D01*
X129383639Y-97335983D01*
X129302988Y-97429060D01*
X129302985Y-97429065D01*
X129251824Y-97541091D01*
X129251823Y-97541094D01*
X129234296Y-97663000D01*
X106939328Y-97663000D01*
X106960443Y-97201799D01*
X106993127Y-96774000D01*
X120852296Y-96774000D01*
X120869823Y-96895905D01*
X120869824Y-96895907D01*
X120920986Y-97007937D01*
X120920988Y-97007939D01*
X121001639Y-97101016D01*
X121001640Y-97101017D01*
X121105243Y-97167598D01*
X121105248Y-97167601D01*
X121184029Y-97190733D01*
X121223419Y-97202300D01*
X121223420Y-97202300D01*
X121346580Y-97202300D01*
X121464752Y-97167601D01*
X121568361Y-97101016D01*
X121649014Y-97007937D01*
X121700176Y-96895907D01*
X121717704Y-96774000D01*
X137235296Y-96774000D01*
X137252823Y-96895905D01*
X137252824Y-96895907D01*
X137303986Y-97007937D01*
X137303988Y-97007939D01*
X137384639Y-97101016D01*
X137384640Y-97101017D01*
X137488243Y-97167598D01*
X137488248Y-97167601D01*
X137567029Y-97190733D01*
X137606419Y-97202300D01*
X137606420Y-97202300D01*
X137729580Y-97202300D01*
X137847752Y-97167601D01*
X137951361Y-97101016D01*
X138032014Y-97007937D01*
X138083176Y-96895907D01*
X138100704Y-96774000D01*
X138083176Y-96652093D01*
X138032014Y-96540063D01*
X137951361Y-96446984D01*
X137951360Y-96446983D01*
X137951359Y-96446982D01*
X137847756Y-96380401D01*
X137847753Y-96380399D01*
X137847752Y-96380399D01*
X137847749Y-96380398D01*
X137729581Y-96345700D01*
X137729580Y-96345700D01*
X137606420Y-96345700D01*
X137606419Y-96345700D01*
X137488250Y-96380398D01*
X137488243Y-96380401D01*
X137384640Y-96446982D01*
X137384639Y-96446983D01*
X137303988Y-96540060D01*
X137303985Y-96540065D01*
X137252824Y-96652091D01*
X137252823Y-96652094D01*
X137235296Y-96774000D01*
X121717704Y-96774000D01*
X121700176Y-96652093D01*
X121649014Y-96540063D01*
X121568361Y-96446984D01*
X121568360Y-96446983D01*
X121568359Y-96446982D01*
X121464756Y-96380401D01*
X121464753Y-96380399D01*
X121464752Y-96380399D01*
X121464749Y-96380398D01*
X121346581Y-96345700D01*
X121346580Y-96345700D01*
X121223420Y-96345700D01*
X121223419Y-96345700D01*
X121105250Y-96380398D01*
X121105243Y-96380401D01*
X121001640Y-96446982D01*
X121001639Y-96446983D01*
X120920988Y-96540060D01*
X120920985Y-96540065D01*
X120869824Y-96652091D01*
X120869823Y-96652094D01*
X120852296Y-96774000D01*
X106993127Y-96774000D01*
X107060303Y-95894745D01*
X107088566Y-95631000D01*
X123900296Y-95631000D01*
X123917823Y-95752905D01*
X123917824Y-95752907D01*
X123968986Y-95864937D01*
X123968988Y-95864939D01*
X124049639Y-95958016D01*
X124049640Y-95958017D01*
X124133640Y-96012000D01*
X124153248Y-96024601D01*
X124232029Y-96047733D01*
X124271419Y-96059300D01*
X124271420Y-96059300D01*
X124394580Y-96059300D01*
X124512752Y-96024601D01*
X124532360Y-96012000D01*
X128218296Y-96012000D01*
X128235823Y-96133905D01*
X128235824Y-96133908D01*
X128240476Y-96144094D01*
X128286986Y-96245937D01*
X128286988Y-96245939D01*
X128367639Y-96339016D01*
X128367640Y-96339017D01*
X128443712Y-96387905D01*
X128471248Y-96405601D01*
X128550029Y-96428733D01*
X128589419Y-96440300D01*
X128589420Y-96440300D01*
X128712580Y-96440300D01*
X128830752Y-96405601D01*
X128934361Y-96339016D01*
X128997629Y-96266000D01*
X135203296Y-96266000D01*
X135220823Y-96387905D01*
X135220824Y-96387908D01*
X135244751Y-96440300D01*
X135271986Y-96499937D01*
X135271988Y-96499939D01*
X135352639Y-96593016D01*
X135352640Y-96593017D01*
X135456243Y-96659598D01*
X135456248Y-96659601D01*
X135535029Y-96682733D01*
X135574419Y-96694300D01*
X135574420Y-96694300D01*
X135697580Y-96694300D01*
X135815752Y-96659601D01*
X135919361Y-96593016D01*
X136000014Y-96499937D01*
X136051176Y-96387907D01*
X136068704Y-96266000D01*
X136051176Y-96144093D01*
X136000014Y-96032063D01*
X135919361Y-95938984D01*
X135919360Y-95938983D01*
X135919359Y-95938982D01*
X135835361Y-95885000D01*
X141209011Y-95885000D01*
X141228820Y-96086134D01*
X141243312Y-96133907D01*
X141287490Y-96279542D01*
X141287491Y-96279543D01*
X141382760Y-96457781D01*
X141382764Y-96457787D01*
X141510981Y-96614019D01*
X141667213Y-96742236D01*
X141667215Y-96742237D01*
X141667218Y-96742239D01*
X141713595Y-96767028D01*
X141845458Y-96837510D01*
X142038864Y-96896179D01*
X142240000Y-96915989D01*
X142441136Y-96896179D01*
X142634542Y-96837510D01*
X142812787Y-96742236D01*
X142969019Y-96614019D01*
X143097236Y-96457787D01*
X143192510Y-96279542D01*
X143251179Y-96086136D01*
X143270989Y-95885000D01*
X143251179Y-95683864D01*
X143192510Y-95490458D01*
X143097236Y-95312213D01*
X142969019Y-95155981D01*
X142812787Y-95027764D01*
X142812781Y-95027760D01*
X142700473Y-94967730D01*
X142634542Y-94932490D01*
X142510924Y-94894991D01*
X142441134Y-94873820D01*
X142240000Y-94854011D01*
X142038865Y-94873820D01*
X141915246Y-94911319D01*
X141845458Y-94932490D01*
X141845456Y-94932490D01*
X141845456Y-94932491D01*
X141667218Y-95027760D01*
X141667212Y-95027764D01*
X141510981Y-95155981D01*
X141382764Y-95312212D01*
X141382760Y-95312218D01*
X141287491Y-95490456D01*
X141228820Y-95683865D01*
X141209011Y-95884999D01*
X141209011Y-95885000D01*
X135835361Y-95885000D01*
X135815756Y-95872401D01*
X135815753Y-95872399D01*
X135815752Y-95872399D01*
X135815749Y-95872398D01*
X135697581Y-95837700D01*
X135697580Y-95837700D01*
X135574420Y-95837700D01*
X135574419Y-95837700D01*
X135456250Y-95872398D01*
X135456243Y-95872401D01*
X135352640Y-95938982D01*
X135352639Y-95938983D01*
X135271988Y-96032060D01*
X135271985Y-96032065D01*
X135220824Y-96144091D01*
X135220823Y-96144094D01*
X135203296Y-96266000D01*
X128997629Y-96266000D01*
X129015014Y-96245937D01*
X129066176Y-96133907D01*
X129083704Y-96012000D01*
X129066176Y-95890093D01*
X129015014Y-95778063D01*
X128934361Y-95684984D01*
X128934360Y-95684983D01*
X128934359Y-95684982D01*
X128830756Y-95618401D01*
X128830753Y-95618399D01*
X128830752Y-95618399D01*
X128830749Y-95618398D01*
X128712581Y-95583700D01*
X128712580Y-95583700D01*
X128589420Y-95583700D01*
X128589419Y-95583700D01*
X128471250Y-95618398D01*
X128471243Y-95618401D01*
X128367640Y-95684982D01*
X128367639Y-95684983D01*
X128286988Y-95778060D01*
X128286985Y-95778065D01*
X128235824Y-95890091D01*
X128235823Y-95890094D01*
X128218296Y-96012000D01*
X124532360Y-96012000D01*
X124616361Y-95958016D01*
X124697014Y-95864937D01*
X124748176Y-95752907D01*
X124765704Y-95631000D01*
X124748176Y-95509093D01*
X124697014Y-95397063D01*
X124616361Y-95303984D01*
X124616360Y-95303983D01*
X124616359Y-95303982D01*
X124512756Y-95237401D01*
X124512753Y-95237399D01*
X124512752Y-95237399D01*
X124512749Y-95237398D01*
X124394581Y-95202700D01*
X124394580Y-95202700D01*
X124271420Y-95202700D01*
X124271419Y-95202700D01*
X124153250Y-95237398D01*
X124153243Y-95237401D01*
X124049640Y-95303982D01*
X124049639Y-95303983D01*
X123968988Y-95397060D01*
X123968985Y-95397065D01*
X123917824Y-95509091D01*
X123917823Y-95509094D01*
X123900296Y-95631000D01*
X107088566Y-95631000D01*
X107199976Y-94591345D01*
X107372125Y-93345000D01*
X141209011Y-93345000D01*
X141228820Y-93546134D01*
X141228821Y-93546136D01*
X141287490Y-93739542D01*
X141287491Y-93739543D01*
X141382760Y-93917781D01*
X141382764Y-93917787D01*
X141510981Y-94074019D01*
X141667213Y-94202236D01*
X141667215Y-94202237D01*
X141667218Y-94202239D01*
X141713595Y-94227028D01*
X141845458Y-94297510D01*
X142038864Y-94356179D01*
X142240000Y-94375989D01*
X142441136Y-94356179D01*
X142634542Y-94297510D01*
X142812787Y-94202236D01*
X142928831Y-94107001D01*
X155874255Y-94107001D01*
X155894348Y-94259630D01*
X155894349Y-94259633D01*
X155894350Y-94259637D01*
X155953266Y-94401873D01*
X156046987Y-94524013D01*
X156169127Y-94617734D01*
X156311363Y-94676650D01*
X156311367Y-94676650D01*
X156311369Y-94676651D01*
X156463998Y-94696745D01*
X156464000Y-94696745D01*
X156464002Y-94696745D01*
X156616630Y-94676651D01*
X156616630Y-94676650D01*
X156616637Y-94676650D01*
X156758873Y-94617734D01*
X156881013Y-94524013D01*
X156974734Y-94401873D01*
X157033650Y-94259637D01*
X157053745Y-94107000D01*
X157033650Y-93954363D01*
X156974734Y-93812128D01*
X156881013Y-93689987D01*
X156881011Y-93689986D01*
X156881011Y-93689985D01*
X156758874Y-93596267D01*
X156758873Y-93596266D01*
X156616637Y-93537350D01*
X156616634Y-93537349D01*
X156616633Y-93537349D01*
X156616630Y-93537348D01*
X156464002Y-93517255D01*
X156463998Y-93517255D01*
X156311369Y-93537348D01*
X156311359Y-93537351D01*
X156169131Y-93596264D01*
X156046987Y-93689987D01*
X155953264Y-93812131D01*
X155894351Y-93954359D01*
X155894348Y-93954369D01*
X155874255Y-94106998D01*
X155874255Y-94107001D01*
X142928831Y-94107001D01*
X142969019Y-94074019D01*
X143097236Y-93917787D01*
X143192510Y-93739542D01*
X143251179Y-93546136D01*
X143270989Y-93345000D01*
X143251179Y-93143864D01*
X143192510Y-92950458D01*
X143097236Y-92772213D01*
X142969019Y-92615981D01*
X142812787Y-92487764D01*
X142812781Y-92487760D01*
X142700473Y-92427730D01*
X142634542Y-92392490D01*
X142510924Y-92354991D01*
X142441134Y-92333820D01*
X142240000Y-92314011D01*
X142038865Y-92333820D01*
X141920020Y-92369872D01*
X141845458Y-92392490D01*
X141845456Y-92392490D01*
X141845456Y-92392491D01*
X141667218Y-92487760D01*
X141667212Y-92487764D01*
X141510981Y-92615981D01*
X141382764Y-92772212D01*
X141382760Y-92772218D01*
X141287491Y-92950456D01*
X141228820Y-93143865D01*
X141209011Y-93344999D01*
X141209011Y-93345000D01*
X107372125Y-93345000D01*
X107379333Y-93292811D01*
X107585564Y-92075001D01*
X152064255Y-92075001D01*
X152084348Y-92227630D01*
X152084349Y-92227633D01*
X152084350Y-92227637D01*
X152143266Y-92369873D01*
X152236987Y-92492013D01*
X152359127Y-92585734D01*
X152501363Y-92644650D01*
X152501367Y-92644650D01*
X152501369Y-92644651D01*
X152653998Y-92664745D01*
X152654000Y-92664745D01*
X152654002Y-92664745D01*
X152806630Y-92644651D01*
X152806630Y-92644650D01*
X152806637Y-92644650D01*
X152948873Y-92585734D01*
X153071013Y-92492013D01*
X153098646Y-92456001D01*
X158795255Y-92456001D01*
X158815348Y-92608630D01*
X158815349Y-92608633D01*
X158815350Y-92608637D01*
X158874266Y-92750873D01*
X158967987Y-92873013D01*
X159090127Y-92966734D01*
X159232363Y-93025650D01*
X159232367Y-93025650D01*
X159232369Y-93025651D01*
X159384998Y-93045745D01*
X159385000Y-93045745D01*
X159385002Y-93045745D01*
X159537630Y-93025651D01*
X159537630Y-93025650D01*
X159537637Y-93025650D01*
X159679873Y-92966734D01*
X159802013Y-92873013D01*
X159895734Y-92750873D01*
X159954650Y-92608637D01*
X159974745Y-92456000D01*
X159954650Y-92303363D01*
X159895734Y-92161128D01*
X159802013Y-92038987D01*
X159802011Y-92038986D01*
X159802011Y-92038985D01*
X159679874Y-91945267D01*
X159679873Y-91945266D01*
X159537637Y-91886350D01*
X159537634Y-91886349D01*
X159537633Y-91886349D01*
X159537630Y-91886348D01*
X159385002Y-91866255D01*
X159384998Y-91866255D01*
X159232369Y-91886348D01*
X159232359Y-91886351D01*
X159090131Y-91945264D01*
X158967987Y-92038987D01*
X158874264Y-92161131D01*
X158815351Y-92303359D01*
X158815348Y-92303369D01*
X158795255Y-92455998D01*
X158795255Y-92456001D01*
X153098646Y-92456001D01*
X153164734Y-92369873D01*
X153223650Y-92227637D01*
X153243745Y-92075000D01*
X153226665Y-91945267D01*
X153223651Y-91922369D01*
X153223650Y-91922367D01*
X153223650Y-91922363D01*
X153164734Y-91780128D01*
X153071013Y-91657987D01*
X153071011Y-91657986D01*
X153071011Y-91657985D01*
X152948874Y-91564267D01*
X152948873Y-91564266D01*
X152806637Y-91505350D01*
X152806634Y-91505349D01*
X152806633Y-91505349D01*
X152806630Y-91505348D01*
X152654002Y-91485255D01*
X152653998Y-91485255D01*
X152501369Y-91505348D01*
X152501359Y-91505351D01*
X152359131Y-91564264D01*
X152236987Y-91657987D01*
X152143264Y-91780131D01*
X152084351Y-91922359D01*
X152084348Y-91922369D01*
X152064255Y-92074998D01*
X152064255Y-92075001D01*
X107585564Y-92075001D01*
X107598206Y-92000350D01*
X107838346Y-90805000D01*
X141209011Y-90805000D01*
X141228820Y-91006134D01*
X141228821Y-91006136D01*
X141287490Y-91199542D01*
X141287491Y-91199543D01*
X141382760Y-91377781D01*
X141382764Y-91377787D01*
X141510981Y-91534019D01*
X141667213Y-91662236D01*
X141667215Y-91662237D01*
X141667218Y-91662239D01*
X141713595Y-91687028D01*
X141845458Y-91757510D01*
X142038864Y-91816179D01*
X142240000Y-91835989D01*
X142441136Y-91816179D01*
X142634542Y-91757510D01*
X142812787Y-91662236D01*
X142969019Y-91534019D01*
X143097236Y-91377787D01*
X143192510Y-91199542D01*
X143251179Y-91006136D01*
X143270989Y-90805000D01*
X143251179Y-90603864D01*
X143192510Y-90410458D01*
X143097236Y-90232213D01*
X142969019Y-90075981D01*
X142812787Y-89947764D01*
X142812781Y-89947760D01*
X142700473Y-89887730D01*
X142634542Y-89852490D01*
X142509734Y-89814630D01*
X142441134Y-89793820D01*
X142240000Y-89774011D01*
X142038865Y-89793820D01*
X141915246Y-89831319D01*
X141845458Y-89852490D01*
X141845456Y-89852490D01*
X141845456Y-89852491D01*
X141667218Y-89947760D01*
X141667212Y-89947764D01*
X141510981Y-90075981D01*
X141382764Y-90232212D01*
X141382760Y-90232218D01*
X141287491Y-90410456D01*
X141228820Y-90603865D01*
X141209011Y-90804999D01*
X141209011Y-90805000D01*
X107838346Y-90805000D01*
X107856393Y-90715165D01*
X108101604Y-89662001D01*
X117393255Y-89662001D01*
X117413348Y-89814630D01*
X117413349Y-89814633D01*
X117413350Y-89814637D01*
X117472266Y-89956873D01*
X117565987Y-90079013D01*
X117688127Y-90172734D01*
X117830363Y-90231650D01*
X117830367Y-90231650D01*
X117830369Y-90231651D01*
X117982998Y-90251745D01*
X117983000Y-90251745D01*
X117983002Y-90251745D01*
X118135630Y-90231651D01*
X118135630Y-90231650D01*
X118135637Y-90231650D01*
X118277873Y-90172734D01*
X118400013Y-90079013D01*
X118493734Y-89956873D01*
X118552650Y-89814637D01*
X118552651Y-89814630D01*
X118556025Y-89789001D01*
X138983255Y-89789001D01*
X139003348Y-89941630D01*
X139003349Y-89941633D01*
X139003350Y-89941637D01*
X139062266Y-90083873D01*
X139155987Y-90206013D01*
X139278127Y-90299734D01*
X139420363Y-90358650D01*
X139420367Y-90358650D01*
X139420369Y-90358651D01*
X139572998Y-90378745D01*
X139573000Y-90378745D01*
X139573002Y-90378745D01*
X139725630Y-90358651D01*
X139725630Y-90358650D01*
X139725637Y-90358650D01*
X139867873Y-90299734D01*
X139990013Y-90206013D01*
X140083734Y-90083873D01*
X140142650Y-89941637D01*
X140154386Y-89852491D01*
X140162745Y-89789001D01*
X140162745Y-89788998D01*
X140142651Y-89636369D01*
X140142650Y-89636367D01*
X140142650Y-89636363D01*
X140083734Y-89494128D01*
X139990013Y-89371987D01*
X139990011Y-89371986D01*
X139990011Y-89371985D01*
X139867874Y-89278267D01*
X139867873Y-89278266D01*
X139725637Y-89219350D01*
X139725634Y-89219349D01*
X139725633Y-89219349D01*
X139725630Y-89219348D01*
X139573002Y-89199255D01*
X139572998Y-89199255D01*
X139420369Y-89219348D01*
X139420359Y-89219351D01*
X139278131Y-89278264D01*
X139155987Y-89371987D01*
X139062264Y-89494131D01*
X139003351Y-89636359D01*
X139003348Y-89636369D01*
X138983255Y-89788998D01*
X138983255Y-89789001D01*
X118556025Y-89789001D01*
X118572745Y-89662001D01*
X118572745Y-89661998D01*
X118552651Y-89509369D01*
X118552650Y-89509367D01*
X118552650Y-89509363D01*
X118493734Y-89367128D01*
X118400013Y-89244987D01*
X118400011Y-89244986D01*
X118400011Y-89244985D01*
X118290978Y-89161322D01*
X140884275Y-89161322D01*
X140890780Y-89221820D01*
X140899795Y-89245991D01*
X140899796Y-89245991D01*
X141677011Y-88468776D01*
X141721205Y-88450470D01*
X141765399Y-88468776D01*
X141773783Y-88479180D01*
X141852129Y-88601088D01*
X141852131Y-88601090D01*
X141962526Y-88696749D01*
X141962527Y-88696750D01*
X141962530Y-88696752D01*
X141991683Y-88710065D01*
X142021327Y-88723604D01*
X142053923Y-88758614D01*
X142052216Y-88806419D01*
X142039558Y-88824650D01*
X141259006Y-89605202D01*
X141283178Y-89614218D01*
X141283186Y-89614220D01*
X141343677Y-89620724D01*
X141343691Y-89620725D01*
X143136309Y-89620725D01*
X143136322Y-89620724D01*
X143196816Y-89614220D01*
X143220991Y-89605202D01*
X143220992Y-89605202D01*
X142440440Y-88824650D01*
X142422134Y-88780456D01*
X142440440Y-88736262D01*
X142458669Y-88723605D01*
X142517470Y-88696752D01*
X142627869Y-88601090D01*
X142706217Y-88479177D01*
X142745507Y-88451898D01*
X142792583Y-88460391D01*
X142802987Y-88468776D01*
X143580202Y-89245991D01*
X143589220Y-89221816D01*
X143595724Y-89161322D01*
X143595725Y-89161309D01*
X143595725Y-87368690D01*
X143595724Y-87368677D01*
X143589220Y-87308186D01*
X143589218Y-87308178D01*
X143580202Y-87284007D01*
X143580202Y-87284006D01*
X142802987Y-88061222D01*
X142758793Y-88079528D01*
X142714599Y-88061222D01*
X142706215Y-88050818D01*
X142627870Y-87928911D01*
X142627868Y-87928909D01*
X142517473Y-87833250D01*
X142517468Y-87833247D01*
X142458670Y-87806395D01*
X142426074Y-87771385D01*
X142427781Y-87723580D01*
X142440439Y-87705349D01*
X143220991Y-86924796D01*
X143220991Y-86924795D01*
X143196820Y-86915780D01*
X143136322Y-86909275D01*
X141343677Y-86909275D01*
X141283181Y-86915780D01*
X141259007Y-86924796D01*
X142039559Y-87705349D01*
X142057865Y-87749543D01*
X142039559Y-87793737D01*
X142021329Y-87806395D01*
X141962528Y-87833248D01*
X141962526Y-87833250D01*
X141852131Y-87928909D01*
X141852129Y-87928911D01*
X141773784Y-88050819D01*
X141734491Y-88078101D01*
X141687416Y-88069607D01*
X141677012Y-88061223D01*
X140899796Y-87284007D01*
X140890780Y-87308181D01*
X140884275Y-87368677D01*
X140884275Y-89161322D01*
X118290978Y-89161322D01*
X118277874Y-89151267D01*
X118277873Y-89151266D01*
X118135637Y-89092350D01*
X118135634Y-89092349D01*
X118135633Y-89092349D01*
X118135630Y-89092348D01*
X117983002Y-89072255D01*
X117982998Y-89072255D01*
X117830369Y-89092348D01*
X117830359Y-89092351D01*
X117688131Y-89151264D01*
X117688128Y-89151265D01*
X117688128Y-89151266D01*
X117565987Y-89244987D01*
X117540452Y-89278266D01*
X117472264Y-89367131D01*
X117413351Y-89509359D01*
X117413348Y-89509369D01*
X117393255Y-89661998D01*
X117393255Y-89662001D01*
X108101604Y-89662001D01*
X108153653Y-89438452D01*
X108397516Y-88519001D01*
X118409255Y-88519001D01*
X118429348Y-88671630D01*
X118429349Y-88671633D01*
X118429350Y-88671637D01*
X118488266Y-88813873D01*
X118581987Y-88936013D01*
X118704127Y-89029734D01*
X118846363Y-89088650D01*
X118846367Y-89088650D01*
X118846369Y-89088651D01*
X118998998Y-89108745D01*
X118999000Y-89108745D01*
X118999002Y-89108745D01*
X119151630Y-89088651D01*
X119151630Y-89088650D01*
X119151637Y-89088650D01*
X119293873Y-89029734D01*
X119416013Y-88936013D01*
X119509734Y-88813873D01*
X119568650Y-88671637D01*
X119588745Y-88519000D01*
X119568650Y-88366363D01*
X119509734Y-88224128D01*
X119416013Y-88101987D01*
X119416011Y-88101986D01*
X119416011Y-88101985D01*
X119293874Y-88008267D01*
X119293873Y-88008266D01*
X119151637Y-87949350D01*
X119151634Y-87949349D01*
X119151633Y-87949349D01*
X119151630Y-87949348D01*
X118999002Y-87929255D01*
X118998998Y-87929255D01*
X118846369Y-87949348D01*
X118846359Y-87949351D01*
X118704131Y-88008264D01*
X118704128Y-88008265D01*
X118704128Y-88008266D01*
X118581987Y-88101987D01*
X118512949Y-88191961D01*
X118488264Y-88224131D01*
X118429351Y-88366359D01*
X118429348Y-88366369D01*
X118409255Y-88518998D01*
X118409255Y-88519001D01*
X108397516Y-88519001D01*
X108489710Y-88171397D01*
X108864251Y-86915181D01*
X109259007Y-85725000D01*
X141209011Y-85725000D01*
X141228820Y-85926134D01*
X141228821Y-85926136D01*
X141287490Y-86119542D01*
X141287491Y-86119543D01*
X141382760Y-86297781D01*
X141382764Y-86297787D01*
X141510981Y-86454019D01*
X141667213Y-86582236D01*
X141667215Y-86582237D01*
X141667218Y-86582239D01*
X141713595Y-86607028D01*
X141845458Y-86677510D01*
X142038864Y-86736179D01*
X142240000Y-86755989D01*
X142441136Y-86736179D01*
X142634542Y-86677510D01*
X142812787Y-86582236D01*
X142928831Y-86487001D01*
X147746255Y-86487001D01*
X147766348Y-86639630D01*
X147766349Y-86639633D01*
X147766350Y-86639637D01*
X147825266Y-86781873D01*
X147918987Y-86904013D01*
X148041127Y-86997734D01*
X148183363Y-87056650D01*
X148183367Y-87056650D01*
X148183369Y-87056651D01*
X148335998Y-87076745D01*
X148336000Y-87076745D01*
X148336002Y-87076745D01*
X148488630Y-87056651D01*
X148488630Y-87056650D01*
X148488637Y-87056650D01*
X148630873Y-86997734D01*
X148753013Y-86904013D01*
X148846734Y-86781873D01*
X148905650Y-86639637D01*
X148925745Y-86487000D01*
X148905650Y-86334363D01*
X148846734Y-86192128D01*
X148753013Y-86069987D01*
X148753011Y-86069986D01*
X148753011Y-86069985D01*
X148630874Y-85976267D01*
X148630873Y-85976266D01*
X148488637Y-85917350D01*
X148488634Y-85917349D01*
X148488633Y-85917349D01*
X148488630Y-85917348D01*
X148336002Y-85897255D01*
X148335998Y-85897255D01*
X148183369Y-85917348D01*
X148183359Y-85917351D01*
X148041131Y-85976264D01*
X147918987Y-86069987D01*
X147825264Y-86192131D01*
X147766351Y-86334359D01*
X147766348Y-86334369D01*
X147746255Y-86486998D01*
X147746255Y-86487001D01*
X142928831Y-86487001D01*
X142969019Y-86454019D01*
X143097236Y-86297787D01*
X143192510Y-86119542D01*
X143251179Y-85926136D01*
X143270989Y-85725000D01*
X143251179Y-85523864D01*
X143192510Y-85330458D01*
X143097236Y-85152213D01*
X142969019Y-84995981D01*
X142812787Y-84867764D01*
X142812781Y-84867760D01*
X142700473Y-84807730D01*
X142634542Y-84772490D01*
X142510924Y-84734991D01*
X142441134Y-84713820D01*
X142240000Y-84694011D01*
X142038865Y-84713820D01*
X141915246Y-84751319D01*
X141845458Y-84772490D01*
X141845456Y-84772490D01*
X141845456Y-84772491D01*
X141667218Y-84867760D01*
X141667212Y-84867764D01*
X141510981Y-84995981D01*
X141382764Y-85152212D01*
X141382760Y-85152218D01*
X141287491Y-85330456D01*
X141228820Y-85523865D01*
X141209011Y-85724999D01*
X141209011Y-85725000D01*
X109259007Y-85725000D01*
X109276927Y-85670971D01*
X109727355Y-84439924D01*
X109874045Y-84074000D01*
X140029296Y-84074000D01*
X140046823Y-84195905D01*
X140046824Y-84195907D01*
X140097986Y-84307937D01*
X140097988Y-84307939D01*
X140178639Y-84401016D01*
X140178640Y-84401017D01*
X140239181Y-84439924D01*
X140282248Y-84467601D01*
X140361029Y-84490733D01*
X140400419Y-84502300D01*
X140400420Y-84502300D01*
X140523580Y-84502300D01*
X140641752Y-84467601D01*
X140745361Y-84401016D01*
X140826014Y-84307937D01*
X140877176Y-84195907D01*
X140894704Y-84074000D01*
X140877176Y-83952093D01*
X140826014Y-83840063D01*
X140745361Y-83746984D01*
X140745360Y-83746983D01*
X140745359Y-83746982D01*
X140641756Y-83680401D01*
X140641753Y-83680399D01*
X140641752Y-83680399D01*
X140641749Y-83680398D01*
X140523581Y-83645700D01*
X140523580Y-83645700D01*
X140400420Y-83645700D01*
X140400419Y-83645700D01*
X140282250Y-83680398D01*
X140282243Y-83680401D01*
X140178640Y-83746982D01*
X140178639Y-83746983D01*
X140097988Y-83840060D01*
X140097985Y-83840065D01*
X140046824Y-83952091D01*
X140046823Y-83952094D01*
X140029296Y-84074000D01*
X109874045Y-84074000D01*
X110128601Y-83439001D01*
X121457255Y-83439001D01*
X121477348Y-83591630D01*
X121477349Y-83591633D01*
X121477350Y-83591637D01*
X121536266Y-83733873D01*
X121629987Y-83856013D01*
X121752127Y-83949734D01*
X121894363Y-84008650D01*
X121894367Y-84008650D01*
X121894369Y-84008651D01*
X122046998Y-84028745D01*
X122047000Y-84028745D01*
X122047002Y-84028745D01*
X122199630Y-84008651D01*
X122199630Y-84008650D01*
X122199637Y-84008650D01*
X122341873Y-83949734D01*
X122464013Y-83856013D01*
X122557734Y-83733873D01*
X122616650Y-83591637D01*
X122636745Y-83439000D01*
X122616650Y-83286363D01*
X122557734Y-83144128D01*
X122464013Y-83021987D01*
X122464011Y-83021986D01*
X122464011Y-83021985D01*
X122341874Y-82928267D01*
X122341873Y-82928266D01*
X122199637Y-82869350D01*
X122199634Y-82869349D01*
X122199633Y-82869349D01*
X122199630Y-82869348D01*
X122047002Y-82849255D01*
X122046998Y-82849255D01*
X121894369Y-82869348D01*
X121894359Y-82869351D01*
X121752131Y-82928264D01*
X121752128Y-82928265D01*
X121752128Y-82928266D01*
X121629987Y-83021987D01*
X121546327Y-83131017D01*
X121536264Y-83144131D01*
X121477351Y-83286359D01*
X121477348Y-83286369D01*
X121457255Y-83438998D01*
X121457255Y-83439001D01*
X110128601Y-83439001D01*
X110215116Y-83223187D01*
X110398187Y-82804000D01*
X129869296Y-82804000D01*
X129886823Y-82925905D01*
X129886824Y-82925908D01*
X129915085Y-82987790D01*
X129937986Y-83037937D01*
X129937988Y-83037939D01*
X130018639Y-83131016D01*
X130018640Y-83131017D01*
X130039046Y-83144131D01*
X130122248Y-83197601D01*
X130195490Y-83219107D01*
X130240419Y-83232300D01*
X130240420Y-83232300D01*
X130363580Y-83232300D01*
X130481752Y-83197601D01*
X130585361Y-83131016D01*
X130666014Y-83037937D01*
X130717176Y-82925907D01*
X130734704Y-82804000D01*
X130717176Y-82682093D01*
X130666014Y-82570063D01*
X130585361Y-82476984D01*
X130585360Y-82476983D01*
X130585359Y-82476982D01*
X130481756Y-82410401D01*
X130481753Y-82410399D01*
X130481752Y-82410399D01*
X130481749Y-82410398D01*
X130363581Y-82375700D01*
X130363580Y-82375700D01*
X130240420Y-82375700D01*
X130240419Y-82375700D01*
X130122250Y-82410398D01*
X130122243Y-82410401D01*
X130018640Y-82476982D01*
X130018639Y-82476983D01*
X129937988Y-82570060D01*
X129937985Y-82570065D01*
X129886824Y-82682091D01*
X129886823Y-82682094D01*
X129869296Y-82804000D01*
X110398187Y-82804000D01*
X110739756Y-82021890D01*
X111300787Y-80837151D01*
X111464016Y-80517999D01*
X127329296Y-80517999D01*
X127346823Y-80639905D01*
X127346824Y-80639907D01*
X127397986Y-80751937D01*
X127471824Y-80837151D01*
X127478639Y-80845016D01*
X127478640Y-80845017D01*
X127582243Y-80911598D01*
X127582248Y-80911601D01*
X127661029Y-80934733D01*
X127700419Y-80946300D01*
X127700420Y-80946300D01*
X127823580Y-80946300D01*
X127941752Y-80911601D01*
X128008039Y-80869001D01*
X153842255Y-80869001D01*
X153862348Y-81021630D01*
X153862349Y-81021633D01*
X153862350Y-81021637D01*
X153921266Y-81163873D01*
X154014987Y-81286013D01*
X154137127Y-81379734D01*
X154279363Y-81438650D01*
X154279367Y-81438650D01*
X154279369Y-81438651D01*
X154431998Y-81458745D01*
X154432000Y-81458745D01*
X154432002Y-81458745D01*
X154584630Y-81438651D01*
X154584630Y-81438650D01*
X154584637Y-81438650D01*
X154726873Y-81379734D01*
X154849013Y-81286013D01*
X154942734Y-81163873D01*
X155001650Y-81021637D01*
X155011568Y-80946300D01*
X155021745Y-80869001D01*
X155021745Y-80868998D01*
X155001651Y-80716369D01*
X155001650Y-80716367D01*
X155001650Y-80716363D01*
X154942734Y-80574128D01*
X154849013Y-80451987D01*
X154849011Y-80451986D01*
X154849011Y-80451985D01*
X154726874Y-80358267D01*
X154726873Y-80358266D01*
X154584637Y-80299350D01*
X154584634Y-80299349D01*
X154584633Y-80299349D01*
X154584630Y-80299348D01*
X154432002Y-80279255D01*
X154431998Y-80279255D01*
X154279369Y-80299348D01*
X154279359Y-80299351D01*
X154137131Y-80358264D01*
X154137128Y-80358265D01*
X154137128Y-80358266D01*
X154087829Y-80396094D01*
X154014987Y-80451987D01*
X153921264Y-80574131D01*
X153862351Y-80716359D01*
X153862348Y-80716369D01*
X153842255Y-80868998D01*
X153842255Y-80869001D01*
X128008039Y-80869001D01*
X128045361Y-80845016D01*
X128126014Y-80751937D01*
X128177176Y-80639907D01*
X128194704Y-80518000D01*
X128177176Y-80396093D01*
X128126014Y-80284063D01*
X128045361Y-80190984D01*
X128045360Y-80190983D01*
X128045359Y-80190982D01*
X127941756Y-80124401D01*
X127941753Y-80124399D01*
X127941752Y-80124399D01*
X127941749Y-80124398D01*
X127823581Y-80089700D01*
X127823580Y-80089700D01*
X127700420Y-80089700D01*
X127700419Y-80089700D01*
X127582250Y-80124398D01*
X127582243Y-80124401D01*
X127478640Y-80190982D01*
X127478639Y-80190983D01*
X127397988Y-80284060D01*
X127397985Y-80284065D01*
X127346824Y-80396091D01*
X127346823Y-80396094D01*
X127329296Y-80517999D01*
X111464016Y-80517999D01*
X111897686Y-79670073D01*
X112529900Y-78521741D01*
X112551022Y-78486001D01*
X147238255Y-78486001D01*
X147258348Y-78638630D01*
X147258349Y-78638633D01*
X147258350Y-78638637D01*
X147317266Y-78780873D01*
X147410987Y-78903013D01*
X147533127Y-78996734D01*
X147675363Y-79055650D01*
X147675367Y-79055650D01*
X147675369Y-79055651D01*
X147827998Y-79075745D01*
X147828000Y-79075745D01*
X147828002Y-79075745D01*
X147980630Y-79055651D01*
X147980630Y-79055650D01*
X147980637Y-79055650D01*
X148122873Y-78996734D01*
X148245013Y-78903013D01*
X148338734Y-78780873D01*
X148397650Y-78638637D01*
X148417745Y-78486001D01*
X155112255Y-78486001D01*
X155132348Y-78638630D01*
X155132349Y-78638633D01*
X155132350Y-78638637D01*
X155191266Y-78780873D01*
X155284987Y-78903013D01*
X155407127Y-78996734D01*
X155549363Y-79055650D01*
X155549367Y-79055650D01*
X155549369Y-79055651D01*
X155701998Y-79075745D01*
X155702000Y-79075745D01*
X155702002Y-79075745D01*
X155854630Y-79055651D01*
X155854630Y-79055650D01*
X155854637Y-79055650D01*
X155996873Y-78996734D01*
X156119013Y-78903013D01*
X156212734Y-78780873D01*
X156271650Y-78638637D01*
X156291745Y-78486000D01*
X156271650Y-78333363D01*
X156212734Y-78191128D01*
X156119013Y-78068987D01*
X156119011Y-78068986D01*
X156119011Y-78068985D01*
X155996874Y-77975267D01*
X155996873Y-77975266D01*
X155854637Y-77916350D01*
X155854634Y-77916349D01*
X155854633Y-77916349D01*
X155854630Y-77916348D01*
X155702002Y-77896255D01*
X155701998Y-77896255D01*
X155549369Y-77916348D01*
X155549359Y-77916351D01*
X155407131Y-77975264D01*
X155284987Y-78068987D01*
X155191264Y-78191131D01*
X155132351Y-78333359D01*
X155132348Y-78333369D01*
X155112255Y-78485998D01*
X155112255Y-78486001D01*
X148417745Y-78486001D01*
X148417745Y-78486000D01*
X148397650Y-78333363D01*
X148338734Y-78191128D01*
X148245013Y-78068987D01*
X148245011Y-78068986D01*
X148245011Y-78068985D01*
X148122874Y-77975267D01*
X148122873Y-77975266D01*
X147980637Y-77916350D01*
X147980634Y-77916349D01*
X147980633Y-77916349D01*
X147980630Y-77916348D01*
X147828002Y-77896255D01*
X147827998Y-77896255D01*
X147675369Y-77916348D01*
X147675359Y-77916351D01*
X147533131Y-77975264D01*
X147410987Y-78068987D01*
X147317264Y-78191131D01*
X147258351Y-78333359D01*
X147258348Y-78333369D01*
X147238255Y-78485998D01*
X147238255Y-78486001D01*
X112551022Y-78486001D01*
X113196839Y-77393223D01*
X113630522Y-76708001D01*
X164637255Y-76708001D01*
X164657348Y-76860630D01*
X164657349Y-76860633D01*
X164657350Y-76860637D01*
X164716266Y-77002873D01*
X164809987Y-77125013D01*
X164932127Y-77218734D01*
X165074363Y-77277650D01*
X165074367Y-77277650D01*
X165074369Y-77277651D01*
X165226998Y-77297745D01*
X165227000Y-77297745D01*
X165227002Y-77297745D01*
X165379630Y-77277651D01*
X165379630Y-77277650D01*
X165379637Y-77277650D01*
X165521873Y-77218734D01*
X165644013Y-77125013D01*
X165737734Y-77002873D01*
X165796650Y-76860637D01*
X165816745Y-76708000D01*
X165796650Y-76555363D01*
X165737734Y-76413128D01*
X165644013Y-76290987D01*
X165644011Y-76290986D01*
X165644011Y-76290985D01*
X165521874Y-76197267D01*
X165521873Y-76197266D01*
X165379637Y-76138350D01*
X165379634Y-76138349D01*
X165379633Y-76138349D01*
X165379630Y-76138348D01*
X165227002Y-76118255D01*
X165226998Y-76118255D01*
X165074369Y-76138348D01*
X165074359Y-76138351D01*
X164932131Y-76197264D01*
X164809987Y-76290987D01*
X164716264Y-76413131D01*
X164657351Y-76555359D01*
X164657348Y-76555369D01*
X164637255Y-76707998D01*
X164637255Y-76708001D01*
X113630522Y-76708001D01*
X113897883Y-76285569D01*
X114632381Y-75199809D01*
X115010514Y-74676001D01*
X146603255Y-74676001D01*
X146623348Y-74828630D01*
X146623349Y-74828633D01*
X146623350Y-74828637D01*
X146682266Y-74970873D01*
X146775987Y-75093013D01*
X146898127Y-75186734D01*
X147040363Y-75245650D01*
X147040367Y-75245650D01*
X147040369Y-75245651D01*
X147192998Y-75265745D01*
X147193000Y-75265745D01*
X147193002Y-75265745D01*
X147345630Y-75245651D01*
X147345630Y-75245650D01*
X147345637Y-75245650D01*
X147487873Y-75186734D01*
X147610013Y-75093013D01*
X147703734Y-74970873D01*
X147762650Y-74828637D01*
X147782745Y-74676001D01*
X154985255Y-74676001D01*
X155005348Y-74828630D01*
X155005349Y-74828633D01*
X155005350Y-74828637D01*
X155064266Y-74970873D01*
X155157987Y-75093013D01*
X155280127Y-75186734D01*
X155422363Y-75245650D01*
X155422367Y-75245650D01*
X155422369Y-75245651D01*
X155574998Y-75265745D01*
X155575000Y-75265745D01*
X155575002Y-75265745D01*
X155727630Y-75245651D01*
X155727630Y-75245650D01*
X155727637Y-75245650D01*
X155869873Y-75186734D01*
X155992013Y-75093013D01*
X156085734Y-74970873D01*
X156144650Y-74828637D01*
X156164745Y-74676000D01*
X156144650Y-74523363D01*
X156085734Y-74381128D01*
X155992013Y-74258987D01*
X155992011Y-74258986D01*
X155992011Y-74258985D01*
X155869874Y-74165267D01*
X155869873Y-74165266D01*
X155727637Y-74106350D01*
X155727634Y-74106349D01*
X155727633Y-74106349D01*
X155727630Y-74106348D01*
X155575002Y-74086255D01*
X155574998Y-74086255D01*
X155422369Y-74106348D01*
X155422359Y-74106351D01*
X155280131Y-74165264D01*
X155157987Y-74258987D01*
X155064264Y-74381131D01*
X155005351Y-74523359D01*
X155005348Y-74523369D01*
X154985255Y-74675998D01*
X154985255Y-74676001D01*
X147782745Y-74676001D01*
X147782745Y-74676000D01*
X147762650Y-74523363D01*
X147703734Y-74381128D01*
X147610013Y-74258987D01*
X147610011Y-74258986D01*
X147610011Y-74258985D01*
X147487874Y-74165267D01*
X147487873Y-74165266D01*
X147345637Y-74106350D01*
X147345634Y-74106349D01*
X147345633Y-74106349D01*
X147345630Y-74106348D01*
X147193002Y-74086255D01*
X147192998Y-74086255D01*
X147040369Y-74106348D01*
X147040359Y-74106351D01*
X146898131Y-74165264D01*
X146775987Y-74258987D01*
X146682264Y-74381131D01*
X146623351Y-74523359D01*
X146623348Y-74523369D01*
X146603255Y-74675998D01*
X146603255Y-74676001D01*
X115010514Y-74676001D01*
X115399648Y-74136954D01*
X116198972Y-73097992D01*
X117029608Y-72083889D01*
X117890784Y-71095589D01*
X118781699Y-70134012D01*
X119701524Y-69200051D01*
X120076419Y-68841928D01*
X148059500Y-68841928D01*
X148099720Y-69108773D01*
X148099722Y-69108782D01*
X148179259Y-69366632D01*
X148179260Y-69366636D01*
X148296349Y-69609774D01*
X148448358Y-69832732D01*
X148448361Y-69832735D01*
X148448365Y-69832741D01*
X148631915Y-70030561D01*
X148631919Y-70030564D01*
X148631922Y-70030567D01*
X148842888Y-70198808D01*
X148842892Y-70198810D01*
X148842898Y-70198815D01*
X149076602Y-70333743D01*
X149327805Y-70432334D01*
X149327807Y-70432334D01*
X149327811Y-70432336D01*
X149446106Y-70459335D01*
X149590897Y-70492383D01*
X149734466Y-70503141D01*
X149792619Y-70507500D01*
X149792624Y-70507500D01*
X149927381Y-70507500D01*
X149979520Y-70503592D01*
X150129103Y-70492383D01*
X150302040Y-70452911D01*
X150392188Y-70432336D01*
X150392190Y-70432335D01*
X150392195Y-70432334D01*
X150643398Y-70333743D01*
X150877102Y-70198815D01*
X151088085Y-70030561D01*
X151271635Y-69832741D01*
X151423651Y-69609775D01*
X151540738Y-69366641D01*
X151620280Y-69108772D01*
X151660500Y-68841929D01*
X151660500Y-68572071D01*
X151620280Y-68305228D01*
X151616994Y-68294576D01*
X151540740Y-68047367D01*
X151540739Y-68047363D01*
X151540738Y-68047359D01*
X151423651Y-67804226D01*
X151367659Y-67722101D01*
X151271641Y-67581267D01*
X151271638Y-67581264D01*
X151271635Y-67581259D01*
X151088085Y-67383439D01*
X151088080Y-67383435D01*
X151088077Y-67383432D01*
X150877111Y-67215191D01*
X150877105Y-67215187D01*
X150877102Y-67215185D01*
X150643398Y-67080257D01*
X150527897Y-67034925D01*
X150392188Y-66981663D01*
X150129103Y-66921617D01*
X149927381Y-66906500D01*
X149927376Y-66906500D01*
X149792624Y-66906500D01*
X149792619Y-66906500D01*
X149590897Y-66921617D01*
X149590895Y-66921617D01*
X149327811Y-66981663D01*
X149076599Y-67080258D01*
X148842888Y-67215191D01*
X148631922Y-67383432D01*
X148631917Y-67383437D01*
X148448358Y-67581267D01*
X148296349Y-67804224D01*
X148179260Y-68047363D01*
X148179259Y-68047367D01*
X148099722Y-68305217D01*
X148099720Y-68305226D01*
X148059500Y-68572071D01*
X148059500Y-68841928D01*
X120076419Y-68841928D01*
X120649404Y-68294576D01*
X121624456Y-67418428D01*
X122625773Y-66572424D01*
X123652425Y-65757349D01*
X124703456Y-64973962D01*
X125777889Y-64222993D01*
X126874723Y-63505138D01*
X127992939Y-62821067D01*
X129131497Y-62171415D01*
X130289336Y-61556787D01*
X131465382Y-60977754D01*
X132658538Y-60434856D01*
X133867696Y-59928597D01*
X135091730Y-59459448D01*
X136329502Y-59027845D01*
X137579861Y-58634191D01*
X138841643Y-58278851D01*
X140113675Y-57962156D01*
X141394773Y-57684400D01*
X142683746Y-57445842D01*
X143979394Y-57246703D01*
X145280513Y-57087170D01*
X146585891Y-56967390D01*
X147894316Y-56887474D01*
X149204569Y-56847498D01*
X150515431Y-56847498D01*
X151825684Y-56887474D01*
G37*
%TD.AperFunction*%
%TD*%
M02*
