%TF.GenerationSoftware,KiCad,Pcbnew,7.0.2*%
%TF.CreationDate,2023-06-22T15:29:01-04:00*%
%TF.ProjectId,protopico,70726f74-6f70-4696-936f-2e6b69636164,rev?*%
%TF.SameCoordinates,Original*%
%TF.FileFunction,Legend,Bot*%
%TF.FilePolarity,Positive*%
%FSLAX46Y46*%
G04 Gerber Fmt 4.6, Leading zero omitted, Abs format (unit mm)*
G04 Created by KiCad (PCBNEW 7.0.2) date 2023-06-22 15:29:01*
%MOMM*%
%LPD*%
G01*
G04 APERTURE LIST*
G04 Aperture macros list*
%AMRotRect*
0 Rectangle, with rotation*
0 The origin of the aperture is its center*
0 $1 length*
0 $2 width*
0 $3 Rotation angle, in degrees counterclockwise*
0 Add horizontal line*
21,1,$1,$2,0,0,$3*%
%AMFreePoly0*
4,1,6,1.000000,0.000000,0.500000,-0.750000,-0.500000,-0.750000,-0.500000,0.750000,0.500000,0.750000,1.000000,0.000000,1.000000,0.000000,$1*%
G04 Aperture macros list end*
%ADD10C,0.150000*%
%ADD11C,0.200000*%
%ADD12C,0.120000*%
%ADD13C,0.101600*%
%ADD14RotRect,1.500000X0.900000X337.500000*%
%ADD15RotRect,1.500000X0.900000X315.000000*%
%ADD16RotRect,1.500000X0.900000X292.500000*%
%ADD17R,0.900000X1.500000*%
%ADD18RotRect,1.500000X0.900000X247.500000*%
%ADD19RotRect,1.500000X0.900000X225.000000*%
%ADD20RotRect,1.500000X0.900000X202.500000*%
%ADD21R,1.500000X0.900000*%
%ADD22RotRect,1.500000X0.900000X157.500000*%
%ADD23RotRect,1.500000X0.900000X135.000000*%
%ADD24RotRect,1.500000X0.900000X112.500000*%
%ADD25RotRect,1.500000X0.900000X67.500000*%
%ADD26RotRect,1.500000X0.900000X45.000000*%
%ADD27RotRect,1.500000X0.900000X22.500000*%
%ADD28C,3.200000*%
%ADD29R,1.600000X1.600000*%
%ADD30O,1.600000X1.600000*%
%ADD31R,1.700000X1.700000*%
%ADD32O,1.700000X1.700000*%
%ADD33R,3.000000X3.000000*%
%ADD34C,3.000000*%
%ADD35R,1.500000X1.500000*%
%ADD36FreePoly0,180.000000*%
%ADD37FreePoly0,0.000000*%
%ADD38FreePoly0,90.000000*%
%ADD39FreePoly0,270.000000*%
G04 APERTURE END LIST*
D10*
X136128190Y-112923619D02*
X136128190Y-113637904D01*
X136128190Y-113637904D02*
X136175809Y-113780761D01*
X136175809Y-113780761D02*
X136271047Y-113876000D01*
X136271047Y-113876000D02*
X136413904Y-113923619D01*
X136413904Y-113923619D02*
X136509142Y-113923619D01*
X135175809Y-113923619D02*
X135651999Y-113923619D01*
X135651999Y-113923619D02*
X135651999Y-112923619D01*
X134271047Y-113828380D02*
X134318666Y-113876000D01*
X134318666Y-113876000D02*
X134461523Y-113923619D01*
X134461523Y-113923619D02*
X134556761Y-113923619D01*
X134556761Y-113923619D02*
X134699618Y-113876000D01*
X134699618Y-113876000D02*
X134794856Y-113780761D01*
X134794856Y-113780761D02*
X134842475Y-113685523D01*
X134842475Y-113685523D02*
X134890094Y-113495047D01*
X134890094Y-113495047D02*
X134890094Y-113352190D01*
X134890094Y-113352190D02*
X134842475Y-113161714D01*
X134842475Y-113161714D02*
X134794856Y-113066476D01*
X134794856Y-113066476D02*
X134699618Y-112971238D01*
X134699618Y-112971238D02*
X134556761Y-112923619D01*
X134556761Y-112923619D02*
X134461523Y-112923619D01*
X134461523Y-112923619D02*
X134318666Y-112971238D01*
X134318666Y-112971238D02*
X134271047Y-113018857D01*
X133556761Y-112923619D02*
X133556761Y-113637904D01*
X133556761Y-113637904D02*
X133604380Y-113780761D01*
X133604380Y-113780761D02*
X133699618Y-113876000D01*
X133699618Y-113876000D02*
X133842475Y-113923619D01*
X133842475Y-113923619D02*
X133937713Y-113923619D01*
X132604380Y-113923619D02*
X133080570Y-113923619D01*
X133080570Y-113923619D02*
X133080570Y-112923619D01*
X131699618Y-113828380D02*
X131747237Y-113876000D01*
X131747237Y-113876000D02*
X131890094Y-113923619D01*
X131890094Y-113923619D02*
X131985332Y-113923619D01*
X131985332Y-113923619D02*
X132128189Y-113876000D01*
X132128189Y-113876000D02*
X132223427Y-113780761D01*
X132223427Y-113780761D02*
X132271046Y-113685523D01*
X132271046Y-113685523D02*
X132318665Y-113495047D01*
X132318665Y-113495047D02*
X132318665Y-113352190D01*
X132318665Y-113352190D02*
X132271046Y-113161714D01*
X132271046Y-113161714D02*
X132223427Y-113066476D01*
X132223427Y-113066476D02*
X132128189Y-112971238D01*
X132128189Y-112971238D02*
X131985332Y-112923619D01*
X131985332Y-112923619D02*
X131890094Y-112923619D01*
X131890094Y-112923619D02*
X131747237Y-112971238D01*
X131747237Y-112971238D02*
X131699618Y-113018857D01*
X130985332Y-112923619D02*
X130985332Y-113637904D01*
X130985332Y-113637904D02*
X131032951Y-113780761D01*
X131032951Y-113780761D02*
X131128189Y-113876000D01*
X131128189Y-113876000D02*
X131271046Y-113923619D01*
X131271046Y-113923619D02*
X131366284Y-113923619D01*
X130032951Y-113923619D02*
X130509141Y-113923619D01*
X130509141Y-113923619D02*
X130509141Y-112923619D01*
X129128189Y-113828380D02*
X129175808Y-113876000D01*
X129175808Y-113876000D02*
X129318665Y-113923619D01*
X129318665Y-113923619D02*
X129413903Y-113923619D01*
X129413903Y-113923619D02*
X129556760Y-113876000D01*
X129556760Y-113876000D02*
X129651998Y-113780761D01*
X129651998Y-113780761D02*
X129699617Y-113685523D01*
X129699617Y-113685523D02*
X129747236Y-113495047D01*
X129747236Y-113495047D02*
X129747236Y-113352190D01*
X129747236Y-113352190D02*
X129699617Y-113161714D01*
X129699617Y-113161714D02*
X129651998Y-113066476D01*
X129651998Y-113066476D02*
X129556760Y-112971238D01*
X129556760Y-112971238D02*
X129413903Y-112923619D01*
X129413903Y-112923619D02*
X129318665Y-112923619D01*
X129318665Y-112923619D02*
X129175808Y-112971238D01*
X129175808Y-112971238D02*
X129128189Y-113018857D01*
X128413903Y-112923619D02*
X128413903Y-113637904D01*
X128413903Y-113637904D02*
X128461522Y-113780761D01*
X128461522Y-113780761D02*
X128556760Y-113876000D01*
X128556760Y-113876000D02*
X128699617Y-113923619D01*
X128699617Y-113923619D02*
X128794855Y-113923619D01*
X127461522Y-113923619D02*
X127937712Y-113923619D01*
X127937712Y-113923619D02*
X127937712Y-112923619D01*
X126556760Y-113828380D02*
X126604379Y-113876000D01*
X126604379Y-113876000D02*
X126747236Y-113923619D01*
X126747236Y-113923619D02*
X126842474Y-113923619D01*
X126842474Y-113923619D02*
X126985331Y-113876000D01*
X126985331Y-113876000D02*
X127080569Y-113780761D01*
X127080569Y-113780761D02*
X127128188Y-113685523D01*
X127128188Y-113685523D02*
X127175807Y-113495047D01*
X127175807Y-113495047D02*
X127175807Y-113352190D01*
X127175807Y-113352190D02*
X127128188Y-113161714D01*
X127128188Y-113161714D02*
X127080569Y-113066476D01*
X127080569Y-113066476D02*
X126985331Y-112971238D01*
X126985331Y-112971238D02*
X126842474Y-112923619D01*
X126842474Y-112923619D02*
X126747236Y-112923619D01*
X126747236Y-112923619D02*
X126604379Y-112971238D01*
X126604379Y-112971238D02*
X126556760Y-113018857D01*
X162115500Y-102425500D02*
X162115500Y-111125000D01*
X151701500Y-102362000D02*
X167322500Y-102362000D01*
X167322500Y-111125000D01*
X151701500Y-111125000D01*
X151701500Y-102362000D01*
X167322500Y-107950000D02*
X151701500Y-107950000D01*
X156781500Y-102362000D02*
X156781500Y-111125000D01*
X155551023Y-110016000D02*
X155408166Y-110063619D01*
X155408166Y-110063619D02*
X155170071Y-110063619D01*
X155170071Y-110063619D02*
X155074833Y-110016000D01*
X155074833Y-110016000D02*
X155027214Y-109968380D01*
X155027214Y-109968380D02*
X154979595Y-109873142D01*
X154979595Y-109873142D02*
X154979595Y-109777904D01*
X154979595Y-109777904D02*
X155027214Y-109682666D01*
X155027214Y-109682666D02*
X155074833Y-109635047D01*
X155074833Y-109635047D02*
X155170071Y-109587428D01*
X155170071Y-109587428D02*
X155360547Y-109539809D01*
X155360547Y-109539809D02*
X155455785Y-109492190D01*
X155455785Y-109492190D02*
X155503404Y-109444571D01*
X155503404Y-109444571D02*
X155551023Y-109349333D01*
X155551023Y-109349333D02*
X155551023Y-109254095D01*
X155551023Y-109254095D02*
X155503404Y-109158857D01*
X155503404Y-109158857D02*
X155455785Y-109111238D01*
X155455785Y-109111238D02*
X155360547Y-109063619D01*
X155360547Y-109063619D02*
X155122452Y-109063619D01*
X155122452Y-109063619D02*
X154979595Y-109111238D01*
X154551023Y-109063619D02*
X154551023Y-109873142D01*
X154551023Y-109873142D02*
X154503404Y-109968380D01*
X154503404Y-109968380D02*
X154455785Y-110016000D01*
X154455785Y-110016000D02*
X154360547Y-110063619D01*
X154360547Y-110063619D02*
X154170071Y-110063619D01*
X154170071Y-110063619D02*
X154074833Y-110016000D01*
X154074833Y-110016000D02*
X154027214Y-109968380D01*
X154027214Y-109968380D02*
X153979595Y-109873142D01*
X153979595Y-109873142D02*
X153979595Y-109063619D01*
X153170071Y-109539809D02*
X153027214Y-109587428D01*
X153027214Y-109587428D02*
X152979595Y-109635047D01*
X152979595Y-109635047D02*
X152931976Y-109730285D01*
X152931976Y-109730285D02*
X152931976Y-109873142D01*
X152931976Y-109873142D02*
X152979595Y-109968380D01*
X152979595Y-109968380D02*
X153027214Y-110016000D01*
X153027214Y-110016000D02*
X153122452Y-110063619D01*
X153122452Y-110063619D02*
X153503404Y-110063619D01*
X153503404Y-110063619D02*
X153503404Y-109063619D01*
X153503404Y-109063619D02*
X153170071Y-109063619D01*
X153170071Y-109063619D02*
X153074833Y-109111238D01*
X153074833Y-109111238D02*
X153027214Y-109158857D01*
X153027214Y-109158857D02*
X152979595Y-109254095D01*
X152979595Y-109254095D02*
X152979595Y-109349333D01*
X152979595Y-109349333D02*
X153027214Y-109444571D01*
X153027214Y-109444571D02*
X153074833Y-109492190D01*
X153074833Y-109492190D02*
X153170071Y-109539809D01*
X153170071Y-109539809D02*
X153503404Y-109539809D01*
X155765308Y-106888619D02*
X155765308Y-105888619D01*
X155765308Y-105888619D02*
X155431975Y-106602904D01*
X155431975Y-106602904D02*
X155098642Y-105888619D01*
X155098642Y-105888619D02*
X155098642Y-106888619D01*
X154670070Y-106602904D02*
X154193880Y-106602904D01*
X154765308Y-106888619D02*
X154431975Y-105888619D01*
X154431975Y-105888619D02*
X154098642Y-106888619D01*
X153765308Y-106888619D02*
X153765308Y-105888619D01*
X153289118Y-106888619D02*
X153289118Y-105888619D01*
X153289118Y-105888619D02*
X152717690Y-106888619D01*
X152717690Y-106888619D02*
X152717690Y-105888619D01*
D11*
G36*
X153984353Y-103391428D02*
G01*
X153727007Y-103391428D01*
X153667399Y-103361624D01*
X153642729Y-103336954D01*
X153612925Y-103277345D01*
X153612925Y-103181701D01*
X153642729Y-103122092D01*
X153667399Y-103097422D01*
X153727007Y-103067619D01*
X153984353Y-103067619D01*
X153984353Y-103391428D01*
G37*
G36*
X159746259Y-103391428D02*
G01*
X159488913Y-103391428D01*
X159429305Y-103361624D01*
X159404635Y-103336954D01*
X159374831Y-103277345D01*
X159374831Y-103181701D01*
X159404635Y-103122092D01*
X159429305Y-103097422D01*
X159488913Y-103067619D01*
X159746259Y-103067619D01*
X159746259Y-103391428D01*
G37*
G36*
X167384357Y-104697857D02*
G01*
X151627211Y-104697857D01*
X151627211Y-103257100D01*
X152456390Y-103257100D01*
X152465103Y-103283239D01*
X152472867Y-103309680D01*
X152474343Y-103310959D01*
X152511590Y-103422700D01*
X152516690Y-103446138D01*
X152531140Y-103460589D01*
X152542804Y-103477371D01*
X152551534Y-103480982D01*
X152938170Y-103867619D01*
X152546165Y-103867619D01*
X152504197Y-103879942D01*
X152465740Y-103924324D01*
X152457383Y-103982451D01*
X152481778Y-104035870D01*
X152531181Y-104067619D01*
X153154067Y-104067619D01*
X153157437Y-104069459D01*
X153183166Y-104067619D01*
X153193970Y-104067619D01*
X153197448Y-104066597D01*
X153216013Y-104065270D01*
X153225076Y-104058485D01*
X153235938Y-104055296D01*
X153248125Y-104041230D01*
X153263025Y-104030077D01*
X153266981Y-104019469D01*
X153274395Y-104010914D01*
X153277043Y-103992493D01*
X153283548Y-103975054D01*
X153281141Y-103963990D01*
X153282752Y-103952787D01*
X153275021Y-103935859D01*
X153271065Y-103917671D01*
X153263059Y-103909665D01*
X153258357Y-103899368D01*
X153242699Y-103889305D01*
X152695566Y-103342172D01*
X152660544Y-103237105D01*
X152660544Y-103181701D01*
X152666753Y-103169283D01*
X153409305Y-103169283D01*
X153412925Y-103178011D01*
X153412925Y-103295566D01*
X153410351Y-103319410D01*
X153419489Y-103337686D01*
X153425248Y-103357299D01*
X153432389Y-103363487D01*
X153465493Y-103429695D01*
X153469071Y-103446138D01*
X153488550Y-103465617D01*
X153507322Y-103485798D01*
X153509215Y-103486282D01*
X153528586Y-103505653D01*
X153537179Y-103520120D01*
X153561815Y-103532438D01*
X153586009Y-103545649D01*
X153587957Y-103545509D01*
X153653862Y-103578462D01*
X153674038Y-103591428D01*
X153694473Y-103591428D01*
X153714589Y-103595048D01*
X153723317Y-103591428D01*
X153984353Y-103591428D01*
X153984353Y-103981998D01*
X153996676Y-104023966D01*
X154041058Y-104062423D01*
X154099185Y-104070780D01*
X154152604Y-104046385D01*
X154184353Y-103996982D01*
X154184353Y-103685671D01*
X154456390Y-103685671D01*
X154465103Y-103711810D01*
X154472867Y-103738251D01*
X154474343Y-103739530D01*
X154511589Y-103851268D01*
X154516689Y-103874708D01*
X154531141Y-103889160D01*
X154542804Y-103905942D01*
X154551534Y-103909553D01*
X154628878Y-103986898D01*
X154643922Y-104005583D01*
X154663307Y-104012044D01*
X154681247Y-104021841D01*
X154690673Y-104021166D01*
X154802739Y-104058521D01*
X154816895Y-104067619D01*
X154844450Y-104067619D01*
X154871987Y-104068615D01*
X154873667Y-104067619D01*
X154955875Y-104067619D01*
X154997843Y-104055296D01*
X155036300Y-104010914D01*
X155040392Y-103982451D01*
X158219289Y-103982451D01*
X158243684Y-104035870D01*
X158293087Y-104067619D01*
X158601010Y-104067619D01*
X158622996Y-104070780D01*
X158629918Y-104067619D01*
X158908257Y-104067619D01*
X158950225Y-104055296D01*
X158988682Y-104010914D01*
X158997039Y-103952787D01*
X158972644Y-103899368D01*
X158923241Y-103867619D01*
X158708164Y-103867619D01*
X158708164Y-103256658D01*
X158719063Y-103267558D01*
X158727656Y-103282025D01*
X158752292Y-103294343D01*
X158776486Y-103307554D01*
X158778434Y-103307414D01*
X158862017Y-103349206D01*
X158905066Y-103356953D01*
X158959311Y-103334455D01*
X158992781Y-103286202D01*
X158994851Y-103227513D01*
X158964862Y-103177022D01*
X158949384Y-103169283D01*
X159171211Y-103169283D01*
X159174831Y-103178011D01*
X159174831Y-103295566D01*
X159172257Y-103319410D01*
X159181395Y-103337686D01*
X159187154Y-103357299D01*
X159194295Y-103363487D01*
X159227399Y-103429695D01*
X159230977Y-103446138D01*
X159250456Y-103465617D01*
X159269228Y-103485798D01*
X159271121Y-103486282D01*
X159290492Y-103505653D01*
X159299085Y-103520120D01*
X159323721Y-103532438D01*
X159347915Y-103545649D01*
X159349863Y-103545509D01*
X159415768Y-103578462D01*
X159435944Y-103591428D01*
X159456379Y-103591428D01*
X159476495Y-103595048D01*
X159485223Y-103591428D01*
X159746259Y-103591428D01*
X159746259Y-103981998D01*
X159758582Y-104023966D01*
X159802964Y-104062423D01*
X159861091Y-104070780D01*
X159914510Y-104046385D01*
X159946259Y-103996982D01*
X159946259Y-103685671D01*
X160218296Y-103685671D01*
X160227009Y-103711810D01*
X160234773Y-103738251D01*
X160236249Y-103739530D01*
X160273495Y-103851268D01*
X160278595Y-103874708D01*
X160293047Y-103889160D01*
X160304710Y-103905942D01*
X160313440Y-103909553D01*
X160390784Y-103986898D01*
X160405828Y-104005583D01*
X160425213Y-104012044D01*
X160443153Y-104021841D01*
X160452579Y-104021166D01*
X160564645Y-104058521D01*
X160578801Y-104067619D01*
X160606356Y-104067619D01*
X160633893Y-104068615D01*
X160635573Y-104067619D01*
X160717781Y-104067619D01*
X160759749Y-104055296D01*
X160798206Y-104010914D01*
X160806563Y-103952787D01*
X160782168Y-103899368D01*
X160732765Y-103867619D01*
X160624391Y-103867619D01*
X160519325Y-103832597D01*
X160457472Y-103770742D01*
X160422450Y-103665676D01*
X160422450Y-102953240D01*
X160410127Y-102911272D01*
X160365745Y-102872815D01*
X160307618Y-102864458D01*
X160254199Y-102888853D01*
X160222450Y-102938256D01*
X160222450Y-103669364D01*
X160218296Y-103685671D01*
X159946259Y-103685671D01*
X159946259Y-103498582D01*
X159949420Y-103476596D01*
X159946259Y-103469674D01*
X159946259Y-102974773D01*
X159949420Y-102952787D01*
X159940193Y-102932583D01*
X159933936Y-102911272D01*
X159928185Y-102906289D01*
X159925025Y-102899368D01*
X159906339Y-102887359D01*
X159889554Y-102872815D01*
X159882022Y-102871732D01*
X159875622Y-102867619D01*
X159853413Y-102867619D01*
X159831427Y-102864458D01*
X159824505Y-102867619D01*
X159470691Y-102867619D01*
X159446848Y-102865045D01*
X159428570Y-102874183D01*
X159408960Y-102879942D01*
X159402772Y-102887083D01*
X159336561Y-102920188D01*
X159320121Y-102923765D01*
X159300646Y-102943239D01*
X159280460Y-102962016D01*
X159279975Y-102963910D01*
X159260605Y-102983280D01*
X159246139Y-102991873D01*
X159233821Y-103016507D01*
X159220610Y-103040703D01*
X159220749Y-103042652D01*
X159187798Y-103108553D01*
X159174831Y-103128732D01*
X159174831Y-103149167D01*
X159171211Y-103169283D01*
X158949384Y-103169283D01*
X158857877Y-103123529D01*
X158781114Y-103046767D01*
X158699821Y-102924827D01*
X158695841Y-102911272D01*
X158683867Y-102900897D01*
X158683393Y-102900185D01*
X158673019Y-102891496D01*
X158651459Y-102872815D01*
X158650557Y-102872685D01*
X158649860Y-102872101D01*
X158621574Y-102868518D01*
X158593332Y-102864458D01*
X158592503Y-102864836D01*
X158591600Y-102864722D01*
X158565867Y-102877000D01*
X158539913Y-102888853D01*
X158539420Y-102889619D01*
X158538600Y-102890011D01*
X158523591Y-102914250D01*
X158508164Y-102938256D01*
X158508164Y-102939165D01*
X158507684Y-102939941D01*
X158508164Y-102968496D01*
X158508164Y-103867619D01*
X158308071Y-103867619D01*
X158266103Y-103879942D01*
X158227646Y-103924324D01*
X158219289Y-103982451D01*
X155040392Y-103982451D01*
X155044657Y-103952787D01*
X155020262Y-103899368D01*
X154970859Y-103867619D01*
X154862485Y-103867619D01*
X154757419Y-103832597D01*
X154695566Y-103770742D01*
X154660544Y-103665676D01*
X154660544Y-102953240D01*
X154648221Y-102911272D01*
X154603839Y-102872815D01*
X154545712Y-102864458D01*
X154492293Y-102888853D01*
X154460544Y-102938256D01*
X154460544Y-103669364D01*
X154456390Y-103685671D01*
X154184353Y-103685671D01*
X154184353Y-103498582D01*
X154187514Y-103476596D01*
X154184353Y-103469674D01*
X154184353Y-102974773D01*
X154187514Y-102952787D01*
X154178287Y-102932583D01*
X154172030Y-102911272D01*
X154166279Y-102906289D01*
X154163119Y-102899368D01*
X154144433Y-102887359D01*
X154127648Y-102872815D01*
X154120116Y-102871732D01*
X154113716Y-102867619D01*
X154091507Y-102867619D01*
X154069521Y-102864458D01*
X154062599Y-102867619D01*
X153708785Y-102867619D01*
X153684942Y-102865045D01*
X153666664Y-102874183D01*
X153647054Y-102879942D01*
X153640866Y-102887083D01*
X153574655Y-102920188D01*
X153558215Y-102923765D01*
X153538740Y-102943239D01*
X153518554Y-102962016D01*
X153518069Y-102963910D01*
X153498699Y-102983280D01*
X153484233Y-102991873D01*
X153471915Y-103016507D01*
X153458704Y-103040703D01*
X153458843Y-103042652D01*
X153425892Y-103108553D01*
X153412925Y-103128732D01*
X153412925Y-103149167D01*
X153409305Y-103169283D01*
X152666753Y-103169283D01*
X152690348Y-103122092D01*
X152715018Y-103097422D01*
X152774626Y-103067619D01*
X152965509Y-103067619D01*
X153025117Y-103097423D01*
X153071429Y-103143735D01*
X153109818Y-103164697D01*
X153168394Y-103160507D01*
X153215405Y-103125315D01*
X153235928Y-103070292D01*
X153223445Y-103012909D01*
X153163929Y-102953393D01*
X153155337Y-102938927D01*
X153130702Y-102926609D01*
X153106507Y-102913398D01*
X153104557Y-102913537D01*
X153038656Y-102880586D01*
X153018478Y-102867619D01*
X152998042Y-102867619D01*
X152977927Y-102863999D01*
X152969199Y-102867619D01*
X152756404Y-102867619D01*
X152732561Y-102865045D01*
X152714283Y-102874183D01*
X152694673Y-102879942D01*
X152688485Y-102887083D01*
X152622274Y-102920188D01*
X152605834Y-102923765D01*
X152586359Y-102943239D01*
X152566173Y-102962016D01*
X152565688Y-102963910D01*
X152546318Y-102983280D01*
X152531852Y-102991873D01*
X152519534Y-103016507D01*
X152506323Y-103040703D01*
X152506462Y-103042652D01*
X152473511Y-103108553D01*
X152460544Y-103128732D01*
X152460544Y-103149167D01*
X152456924Y-103169283D01*
X152460544Y-103178011D01*
X152460544Y-103240793D01*
X152456390Y-103257100D01*
X151627211Y-103257100D01*
X151627211Y-102312143D01*
X167384357Y-102312143D01*
X167384357Y-104697857D01*
G37*
D10*
X159638976Y-109063619D02*
X160115166Y-109063619D01*
X160115166Y-109063619D02*
X160162785Y-109539809D01*
X160162785Y-109539809D02*
X160115166Y-109492190D01*
X160115166Y-109492190D02*
X160019928Y-109444571D01*
X160019928Y-109444571D02*
X159781833Y-109444571D01*
X159781833Y-109444571D02*
X159686595Y-109492190D01*
X159686595Y-109492190D02*
X159638976Y-109539809D01*
X159638976Y-109539809D02*
X159591357Y-109635047D01*
X159591357Y-109635047D02*
X159591357Y-109873142D01*
X159591357Y-109873142D02*
X159638976Y-109968380D01*
X159638976Y-109968380D02*
X159686595Y-110016000D01*
X159686595Y-110016000D02*
X159781833Y-110063619D01*
X159781833Y-110063619D02*
X160019928Y-110063619D01*
X160019928Y-110063619D02*
X160115166Y-110016000D01*
X160115166Y-110016000D02*
X160162785Y-109968380D01*
X159305642Y-109063619D02*
X158972309Y-110063619D01*
X158972309Y-110063619D02*
X158638976Y-109063619D01*
X160924689Y-105761619D02*
X160305642Y-105761619D01*
X160305642Y-105761619D02*
X160638975Y-106142571D01*
X160638975Y-106142571D02*
X160496118Y-106142571D01*
X160496118Y-106142571D02*
X160400880Y-106190190D01*
X160400880Y-106190190D02*
X160353261Y-106237809D01*
X160353261Y-106237809D02*
X160305642Y-106333047D01*
X160305642Y-106333047D02*
X160305642Y-106571142D01*
X160305642Y-106571142D02*
X160353261Y-106666380D01*
X160353261Y-106666380D02*
X160400880Y-106714000D01*
X160400880Y-106714000D02*
X160496118Y-106761619D01*
X160496118Y-106761619D02*
X160781832Y-106761619D01*
X160781832Y-106761619D02*
X160877070Y-106714000D01*
X160877070Y-106714000D02*
X160924689Y-106666380D01*
X159877070Y-106666380D02*
X159829451Y-106714000D01*
X159829451Y-106714000D02*
X159877070Y-106761619D01*
X159877070Y-106761619D02*
X159924689Y-106714000D01*
X159924689Y-106714000D02*
X159877070Y-106666380D01*
X159877070Y-106666380D02*
X159877070Y-106761619D01*
X159496118Y-105761619D02*
X158877071Y-105761619D01*
X158877071Y-105761619D02*
X159210404Y-106142571D01*
X159210404Y-106142571D02*
X159067547Y-106142571D01*
X159067547Y-106142571D02*
X158972309Y-106190190D01*
X158972309Y-106190190D02*
X158924690Y-106237809D01*
X158924690Y-106237809D02*
X158877071Y-106333047D01*
X158877071Y-106333047D02*
X158877071Y-106571142D01*
X158877071Y-106571142D02*
X158924690Y-106666380D01*
X158924690Y-106666380D02*
X158972309Y-106714000D01*
X158972309Y-106714000D02*
X159067547Y-106761619D01*
X159067547Y-106761619D02*
X159353261Y-106761619D01*
X159353261Y-106761619D02*
X159448499Y-106714000D01*
X159448499Y-106714000D02*
X159496118Y-106666380D01*
X158591356Y-105761619D02*
X158258023Y-106761619D01*
X158258023Y-106761619D02*
X157924690Y-105761619D01*
X165385785Y-106634619D02*
X165957213Y-106634619D01*
X165671499Y-106634619D02*
X165671499Y-105634619D01*
X165671499Y-105634619D02*
X165766737Y-105777476D01*
X165766737Y-105777476D02*
X165861975Y-105872714D01*
X165861975Y-105872714D02*
X165957213Y-105920333D01*
X166004832Y-108936619D02*
X165385785Y-108936619D01*
X165385785Y-108936619D02*
X165719118Y-109317571D01*
X165719118Y-109317571D02*
X165576261Y-109317571D01*
X165576261Y-109317571D02*
X165481023Y-109365190D01*
X165481023Y-109365190D02*
X165433404Y-109412809D01*
X165433404Y-109412809D02*
X165385785Y-109508047D01*
X165385785Y-109508047D02*
X165385785Y-109746142D01*
X165385785Y-109746142D02*
X165433404Y-109841380D01*
X165433404Y-109841380D02*
X165481023Y-109889000D01*
X165481023Y-109889000D02*
X165576261Y-109936619D01*
X165576261Y-109936619D02*
X165861975Y-109936619D01*
X165861975Y-109936619D02*
X165957213Y-109889000D01*
X165957213Y-109889000D02*
X166004832Y-109841380D01*
%TO.C,D16*%
X163754059Y-69451855D02*
X164136742Y-68527975D01*
X164136742Y-68527975D02*
X163916771Y-68436860D01*
X163916771Y-68436860D02*
X163766565Y-68426185D01*
X163766565Y-68426185D02*
X163642130Y-68477728D01*
X163642130Y-68477728D02*
X163561690Y-68547493D01*
X163561690Y-68547493D02*
X163444804Y-68705247D01*
X163444804Y-68705247D02*
X163390135Y-68837230D01*
X163390135Y-68837230D02*
X163361237Y-69031430D01*
X163361237Y-69031430D02*
X163368785Y-69137642D01*
X163368785Y-69137642D02*
X163420328Y-69262076D01*
X163420328Y-69262076D02*
X163534087Y-69360740D01*
X163534087Y-69360740D02*
X163754059Y-69451855D01*
X162346242Y-68868718D02*
X162874173Y-69087394D01*
X162610208Y-68978056D02*
X162992891Y-68054177D01*
X162992891Y-68054177D02*
X163026211Y-68222606D01*
X163026211Y-68222606D02*
X163077753Y-68347040D01*
X163077753Y-68347040D02*
X163147519Y-68427480D01*
X161937029Y-67616824D02*
X162113006Y-67689716D01*
X162113006Y-67689716D02*
X162182771Y-67770157D01*
X162182771Y-67770157D02*
X162208543Y-67832374D01*
X162208543Y-67832374D02*
X162241862Y-68000803D01*
X162241862Y-68000803D02*
X162212964Y-68195003D01*
X162212964Y-68195003D02*
X162067180Y-68546957D01*
X162067180Y-68546957D02*
X161986740Y-68616722D01*
X161986740Y-68616722D02*
X161924523Y-68642494D01*
X161924523Y-68642494D02*
X161818311Y-68650042D01*
X161818311Y-68650042D02*
X161642334Y-68577150D01*
X161642334Y-68577150D02*
X161572568Y-68496710D01*
X161572568Y-68496710D02*
X161546797Y-68434492D01*
X161546797Y-68434492D02*
X161539249Y-68328281D01*
X161539249Y-68328281D02*
X161630364Y-68108309D01*
X161630364Y-68108309D02*
X161710804Y-68038544D01*
X161710804Y-68038544D02*
X161773022Y-68012773D01*
X161773022Y-68012773D02*
X161879233Y-68005224D01*
X161879233Y-68005224D02*
X162055210Y-68078116D01*
X162055210Y-68078116D02*
X162124976Y-68158557D01*
X162124976Y-68158557D02*
X162150747Y-68220774D01*
X162150747Y-68220774D02*
X162158295Y-68326986D01*
X159261237Y-65534322D02*
X159789168Y-65752999D01*
X159525202Y-65643661D02*
X159907886Y-64719781D01*
X159907886Y-64719781D02*
X159941205Y-64888210D01*
X159941205Y-64888210D02*
X159992748Y-65012644D01*
X159992748Y-65012644D02*
X160062513Y-65093085D01*
%TO.C,D15*%
X174318587Y-77080671D02*
X175025694Y-76373564D01*
X175025694Y-76373564D02*
X174857335Y-76205206D01*
X174857335Y-76205206D02*
X174722648Y-76137862D01*
X174722648Y-76137862D02*
X174587961Y-76137862D01*
X174587961Y-76137862D02*
X174486946Y-76171534D01*
X174486946Y-76171534D02*
X174318587Y-76272549D01*
X174318587Y-76272549D02*
X174217572Y-76373564D01*
X174217572Y-76373564D02*
X174116557Y-76541923D01*
X174116557Y-76541923D02*
X174082885Y-76642938D01*
X174082885Y-76642938D02*
X174082885Y-76777625D01*
X174082885Y-76777625D02*
X174150228Y-76912313D01*
X174150228Y-76912313D02*
X174318587Y-77080671D01*
X173241091Y-76003175D02*
X173645152Y-76407236D01*
X173443122Y-76205206D02*
X174150228Y-75498099D01*
X174150228Y-75498099D02*
X174116557Y-75666458D01*
X174116557Y-75666458D02*
X174116557Y-75801145D01*
X174116557Y-75801145D02*
X174150228Y-75902160D01*
X173308435Y-74656305D02*
X173645152Y-74993023D01*
X173645152Y-74993023D02*
X173342106Y-75363412D01*
X173342106Y-75363412D02*
X173342106Y-75296068D01*
X173342106Y-75296068D02*
X173308435Y-75195053D01*
X173308435Y-75195053D02*
X173140076Y-75026694D01*
X173140076Y-75026694D02*
X173039061Y-74993023D01*
X173039061Y-74993023D02*
X172971717Y-74993023D01*
X172971717Y-74993023D02*
X172870702Y-75026694D01*
X172870702Y-75026694D02*
X172702343Y-75195053D01*
X172702343Y-75195053D02*
X172668671Y-75296068D01*
X172668671Y-75296068D02*
X172668671Y-75363412D01*
X172668671Y-75363412D02*
X172702343Y-75464427D01*
X172702343Y-75464427D02*
X172870702Y-75632786D01*
X172870702Y-75632786D02*
X172971717Y-75666458D01*
X172971717Y-75666458D02*
X173039061Y-75666458D01*
X171666937Y-71742015D02*
X172070998Y-72146076D01*
X171868967Y-71944045D02*
X172576074Y-71236938D01*
X172576074Y-71236938D02*
X172542402Y-71405297D01*
X172542402Y-71405297D02*
X172542402Y-71539984D01*
X172542402Y-71539984D02*
X172576074Y-71640999D01*
%TO.C,D14*%
X181159518Y-88171648D02*
X182083398Y-87788964D01*
X182083398Y-87788964D02*
X181992283Y-87568993D01*
X181992283Y-87568993D02*
X181893619Y-87455233D01*
X181893619Y-87455233D02*
X181769185Y-87403691D01*
X181769185Y-87403691D02*
X181662973Y-87396143D01*
X181662973Y-87396143D02*
X181468773Y-87425040D01*
X181468773Y-87425040D02*
X181336790Y-87479710D01*
X181336790Y-87479710D02*
X181179036Y-87596596D01*
X181179036Y-87596596D02*
X181109271Y-87677036D01*
X181109271Y-87677036D02*
X181057728Y-87801471D01*
X181057728Y-87801471D02*
X181068403Y-87951677D01*
X181068403Y-87951677D02*
X181159518Y-88171648D01*
X180576382Y-86763831D02*
X180795058Y-87291763D01*
X180685720Y-87027797D02*
X181609599Y-86645114D01*
X181609599Y-86645114D02*
X181514063Y-86787771D01*
X181514063Y-86787771D02*
X181462520Y-86912206D01*
X181462520Y-86912206D02*
X181454972Y-87018417D01*
X180864287Y-85716812D02*
X180248367Y-85971935D01*
X181307356Y-85791000D02*
X180738557Y-86284316D01*
X180738557Y-86284316D02*
X180501658Y-85712391D01*
X180752728Y-82224629D02*
X180971404Y-82752560D01*
X180862066Y-82488595D02*
X181785946Y-82105911D01*
X181785946Y-82105911D02*
X181690409Y-82248569D01*
X181690409Y-82248569D02*
X181638866Y-82373003D01*
X181638866Y-82373003D02*
X181631318Y-82479215D01*
%TO.C,D13*%
X184160619Y-98607714D02*
X183160619Y-98607714D01*
X183160619Y-98607714D02*
X183160619Y-98845809D01*
X183160619Y-98845809D02*
X183208238Y-98988666D01*
X183208238Y-98988666D02*
X183303476Y-99083904D01*
X183303476Y-99083904D02*
X183398714Y-99131523D01*
X183398714Y-99131523D02*
X183589190Y-99179142D01*
X183589190Y-99179142D02*
X183732047Y-99179142D01*
X183732047Y-99179142D02*
X183922523Y-99131523D01*
X183922523Y-99131523D02*
X184017761Y-99083904D01*
X184017761Y-99083904D02*
X184113000Y-98988666D01*
X184113000Y-98988666D02*
X184160619Y-98845809D01*
X184160619Y-98845809D02*
X184160619Y-98607714D01*
X184160619Y-100131523D02*
X184160619Y-99560095D01*
X184160619Y-99845809D02*
X183160619Y-99845809D01*
X183160619Y-99845809D02*
X183303476Y-99750571D01*
X183303476Y-99750571D02*
X183398714Y-99655333D01*
X183398714Y-99655333D02*
X183446333Y-99560095D01*
X183160619Y-100464857D02*
X183160619Y-101083904D01*
X183160619Y-101083904D02*
X183541571Y-100750571D01*
X183541571Y-100750571D02*
X183541571Y-100893428D01*
X183541571Y-100893428D02*
X183589190Y-100988666D01*
X183589190Y-100988666D02*
X183636809Y-101036285D01*
X183636809Y-101036285D02*
X183732047Y-101083904D01*
X183732047Y-101083904D02*
X183970142Y-101083904D01*
X183970142Y-101083904D02*
X184065380Y-101036285D01*
X184065380Y-101036285D02*
X184113000Y-100988666D01*
X184113000Y-100988666D02*
X184160619Y-100893428D01*
X184160619Y-100893428D02*
X184160619Y-100607714D01*
X184160619Y-100607714D02*
X184113000Y-100512476D01*
X184113000Y-100512476D02*
X184065380Y-100464857D01*
X186060619Y-95957714D02*
X186060619Y-95386286D01*
X186060619Y-95672000D02*
X185060619Y-95672000D01*
X185060619Y-95672000D02*
X185203476Y-95576762D01*
X185203476Y-95576762D02*
X185298714Y-95481524D01*
X185298714Y-95481524D02*
X185346333Y-95386286D01*
%TO.C,D12*%
X182014327Y-111826424D02*
X181090447Y-111443741D01*
X181090447Y-111443741D02*
X180999332Y-111663712D01*
X180999332Y-111663712D02*
X180988657Y-111813918D01*
X180988657Y-111813918D02*
X181040200Y-111938353D01*
X181040200Y-111938353D02*
X181109965Y-112018793D01*
X181109965Y-112018793D02*
X181267719Y-112135679D01*
X181267719Y-112135679D02*
X181399702Y-112190348D01*
X181399702Y-112190348D02*
X181593902Y-112219246D01*
X181593902Y-112219246D02*
X181700114Y-112211698D01*
X181700114Y-112211698D02*
X181824548Y-112160155D01*
X181824548Y-112160155D02*
X181923212Y-112046396D01*
X181923212Y-112046396D02*
X182014327Y-111826424D01*
X181431190Y-113234241D02*
X181649866Y-112706310D01*
X181540528Y-112970275D02*
X180616649Y-112587592D01*
X180616649Y-112587592D02*
X180785078Y-112554272D01*
X180785078Y-112554272D02*
X180909512Y-112502730D01*
X180909512Y-112502730D02*
X180989952Y-112432964D01*
X180449515Y-113239958D02*
X180387298Y-113265729D01*
X180387298Y-113265729D02*
X180306857Y-113335494D01*
X180306857Y-113335494D02*
X180215742Y-113555466D01*
X180215742Y-113555466D02*
X180223290Y-113661677D01*
X180223290Y-113661677D02*
X180249062Y-113723894D01*
X180249062Y-113723894D02*
X180318827Y-113804335D01*
X180318827Y-113804335D02*
X180406816Y-113840781D01*
X180406816Y-113840781D02*
X180557022Y-113851456D01*
X180557022Y-113851456D02*
X181303629Y-113542201D01*
X181303629Y-113542201D02*
X181066730Y-114114126D01*
X184783808Y-110105242D02*
X185002485Y-109577311D01*
X184893147Y-109841277D02*
X183969267Y-109458593D01*
X183969267Y-109458593D02*
X184137696Y-109425274D01*
X184137696Y-109425274D02*
X184262130Y-109373731D01*
X184262130Y-109373731D02*
X184342571Y-109303966D01*
%TO.C,D11*%
X174972829Y-123217570D02*
X174265722Y-122510463D01*
X174265722Y-122510463D02*
X174097364Y-122678822D01*
X174097364Y-122678822D02*
X174030020Y-122813509D01*
X174030020Y-122813509D02*
X174030020Y-122948196D01*
X174030020Y-122948196D02*
X174063692Y-123049211D01*
X174063692Y-123049211D02*
X174164707Y-123217570D01*
X174164707Y-123217570D02*
X174265722Y-123318585D01*
X174265722Y-123318585D02*
X174434081Y-123419600D01*
X174434081Y-123419600D02*
X174535096Y-123453272D01*
X174535096Y-123453272D02*
X174669783Y-123453272D01*
X174669783Y-123453272D02*
X174804471Y-123385929D01*
X174804471Y-123385929D02*
X174972829Y-123217570D01*
X173895333Y-124295066D02*
X174299394Y-123891005D01*
X174097364Y-124093035D02*
X173390257Y-123385929D01*
X173390257Y-123385929D02*
X173558616Y-123419600D01*
X173558616Y-123419600D02*
X173693303Y-123419600D01*
X173693303Y-123419600D02*
X173794318Y-123385929D01*
X173221898Y-124968501D02*
X173625959Y-124564440D01*
X173423929Y-124766470D02*
X172716822Y-124059364D01*
X172716822Y-124059364D02*
X172885181Y-124093035D01*
X172885181Y-124093035D02*
X173019868Y-124093035D01*
X173019868Y-124093035D02*
X173120883Y-124059364D01*
X178190165Y-122687240D02*
X178594226Y-122283179D01*
X178392195Y-122485210D02*
X177685088Y-121778103D01*
X177685088Y-121778103D02*
X177853447Y-121811775D01*
X177853447Y-121811775D02*
X177988134Y-121811775D01*
X177988134Y-121811775D02*
X178089149Y-121778103D01*
%TO.C,D10*%
X164108132Y-131046953D02*
X163725448Y-130123073D01*
X163725448Y-130123073D02*
X163505477Y-130214188D01*
X163505477Y-130214188D02*
X163391717Y-130312852D01*
X163391717Y-130312852D02*
X163340175Y-130437286D01*
X163340175Y-130437286D02*
X163332627Y-130543498D01*
X163332627Y-130543498D02*
X163361524Y-130737698D01*
X163361524Y-130737698D02*
X163416194Y-130869681D01*
X163416194Y-130869681D02*
X163533080Y-131027435D01*
X163533080Y-131027435D02*
X163613520Y-131097200D01*
X163613520Y-131097200D02*
X163737955Y-131148743D01*
X163737955Y-131148743D02*
X163888161Y-131138068D01*
X163888161Y-131138068D02*
X164108132Y-131046953D01*
X162700315Y-131630089D02*
X163228247Y-131411413D01*
X162964281Y-131520751D02*
X162581598Y-130596872D01*
X162581598Y-130596872D02*
X162724255Y-130692408D01*
X162724255Y-130692408D02*
X162848690Y-130743951D01*
X162848690Y-130743951D02*
X162954901Y-130751499D01*
X161745707Y-130943109D02*
X161657718Y-130979555D01*
X161657718Y-130979555D02*
X161587953Y-131059995D01*
X161587953Y-131059995D02*
X161562181Y-131122213D01*
X161562181Y-131122213D02*
X161554633Y-131228424D01*
X161554633Y-131228424D02*
X161583531Y-131422624D01*
X161583531Y-131422624D02*
X161674646Y-131642596D01*
X161674646Y-131642596D02*
X161791532Y-131800350D01*
X161791532Y-131800350D02*
X161871973Y-131870115D01*
X161871973Y-131870115D02*
X161934190Y-131895886D01*
X161934190Y-131895886D02*
X162040401Y-131903435D01*
X162040401Y-131903435D02*
X162128390Y-131866989D01*
X162128390Y-131866989D02*
X162198156Y-131786548D01*
X162198156Y-131786548D02*
X162223927Y-131724331D01*
X162223927Y-131724331D02*
X162231475Y-131618120D01*
X162231475Y-131618120D02*
X162202577Y-131423919D01*
X162202577Y-131423919D02*
X162111462Y-131203948D01*
X162111462Y-131203948D02*
X161994576Y-131046194D01*
X161994576Y-131046194D02*
X161914135Y-130976429D01*
X161914135Y-130976429D02*
X161851918Y-130950657D01*
X161851918Y-130950657D02*
X161745707Y-130943109D01*
X167283511Y-131788213D02*
X167811442Y-131569537D01*
X167547477Y-131678875D02*
X167164793Y-130754995D01*
X167164793Y-130754995D02*
X167307451Y-130850532D01*
X167307451Y-130850532D02*
X167431885Y-130902075D01*
X167431885Y-130902075D02*
X167538097Y-130909623D01*
%TO.C,D9*%
X150598094Y-134122619D02*
X150598094Y-133122619D01*
X150598094Y-133122619D02*
X150359999Y-133122619D01*
X150359999Y-133122619D02*
X150217142Y-133170238D01*
X150217142Y-133170238D02*
X150121904Y-133265476D01*
X150121904Y-133265476D02*
X150074285Y-133360714D01*
X150074285Y-133360714D02*
X150026666Y-133551190D01*
X150026666Y-133551190D02*
X150026666Y-133694047D01*
X150026666Y-133694047D02*
X150074285Y-133884523D01*
X150074285Y-133884523D02*
X150121904Y-133979761D01*
X150121904Y-133979761D02*
X150217142Y-134075000D01*
X150217142Y-134075000D02*
X150359999Y-134122619D01*
X150359999Y-134122619D02*
X150598094Y-134122619D01*
X149550475Y-134122619D02*
X149359999Y-134122619D01*
X149359999Y-134122619D02*
X149264761Y-134075000D01*
X149264761Y-134075000D02*
X149217142Y-134027380D01*
X149217142Y-134027380D02*
X149121904Y-133884523D01*
X149121904Y-133884523D02*
X149074285Y-133694047D01*
X149074285Y-133694047D02*
X149074285Y-133313095D01*
X149074285Y-133313095D02*
X149121904Y-133217857D01*
X149121904Y-133217857D02*
X149169523Y-133170238D01*
X149169523Y-133170238D02*
X149264761Y-133122619D01*
X149264761Y-133122619D02*
X149455237Y-133122619D01*
X149455237Y-133122619D02*
X149550475Y-133170238D01*
X149550475Y-133170238D02*
X149598094Y-133217857D01*
X149598094Y-133217857D02*
X149645713Y-133313095D01*
X149645713Y-133313095D02*
X149645713Y-133551190D01*
X149645713Y-133551190D02*
X149598094Y-133646428D01*
X149598094Y-133646428D02*
X149550475Y-133694047D01*
X149550475Y-133694047D02*
X149455237Y-133741666D01*
X149455237Y-133741666D02*
X149264761Y-133741666D01*
X149264761Y-133741666D02*
X149169523Y-133694047D01*
X149169523Y-133694047D02*
X149121904Y-133646428D01*
X149121904Y-133646428D02*
X149074285Y-133551190D01*
X153724285Y-136022619D02*
X154295713Y-136022619D01*
X154009999Y-136022619D02*
X154009999Y-135022619D01*
X154009999Y-135022619D02*
X154105237Y-135165476D01*
X154105237Y-135165476D02*
X154200475Y-135260714D01*
X154200475Y-135260714D02*
X154295713Y-135308333D01*
%TO.C,D8*%
X137415631Y-131794096D02*
X137798315Y-130870217D01*
X137798315Y-130870217D02*
X137578344Y-130779102D01*
X137578344Y-130779102D02*
X137428138Y-130768427D01*
X137428138Y-130768427D02*
X137303703Y-130819969D01*
X137303703Y-130819969D02*
X137223263Y-130889735D01*
X137223263Y-130889735D02*
X137106377Y-131047489D01*
X137106377Y-131047489D02*
X137051708Y-131179472D01*
X137051708Y-131179472D02*
X137022810Y-131373672D01*
X137022810Y-131373672D02*
X137030358Y-131479883D01*
X137030358Y-131479883D02*
X137081900Y-131604318D01*
X137081900Y-131604318D02*
X137195660Y-131702981D01*
X137195660Y-131702981D02*
X137415631Y-131794096D01*
X136578445Y-130828813D02*
X136684657Y-130821265D01*
X136684657Y-130821265D02*
X136746874Y-130795493D01*
X136746874Y-130795493D02*
X136827315Y-130725728D01*
X136827315Y-130725728D02*
X136845538Y-130681734D01*
X136845538Y-130681734D02*
X136837989Y-130575522D01*
X136837989Y-130575522D02*
X136812218Y-130513305D01*
X136812218Y-130513305D02*
X136742453Y-130432864D01*
X136742453Y-130432864D02*
X136566476Y-130359972D01*
X136566476Y-130359972D02*
X136460264Y-130367521D01*
X136460264Y-130367521D02*
X136398047Y-130393292D01*
X136398047Y-130393292D02*
X136317606Y-130463057D01*
X136317606Y-130463057D02*
X136299383Y-130507052D01*
X136299383Y-130507052D02*
X136306932Y-130613263D01*
X136306932Y-130613263D02*
X136332703Y-130675480D01*
X136332703Y-130675480D02*
X136402468Y-130755921D01*
X136402468Y-130755921D02*
X136578445Y-130828813D01*
X136578445Y-130828813D02*
X136648211Y-130909253D01*
X136648211Y-130909253D02*
X136673982Y-130971470D01*
X136673982Y-130971470D02*
X136681530Y-131077682D01*
X136681530Y-131077682D02*
X136608638Y-131253659D01*
X136608638Y-131253659D02*
X136528198Y-131323424D01*
X136528198Y-131323424D02*
X136465981Y-131349196D01*
X136465981Y-131349196D02*
X136359769Y-131356744D01*
X136359769Y-131356744D02*
X136183792Y-131283852D01*
X136183792Y-131283852D02*
X136114027Y-131203412D01*
X136114027Y-131203412D02*
X136088255Y-131141194D01*
X136088255Y-131141194D02*
X136080707Y-131034983D01*
X136080707Y-131034983D02*
X136153599Y-130859006D01*
X136153599Y-130859006D02*
X136234040Y-130789240D01*
X136234040Y-130789240D02*
X136296257Y-130763469D01*
X136296257Y-130763469D02*
X136402468Y-130755921D01*
X139576757Y-134745808D02*
X140104688Y-134964485D01*
X139840722Y-134855147D02*
X140223406Y-133931267D01*
X140223406Y-133931267D02*
X140256725Y-134099696D01*
X140256725Y-134099696D02*
X140308268Y-134224130D01*
X140308268Y-134224130D02*
X140378033Y-134304571D01*
%TO.C,D7*%
X126127711Y-124598111D02*
X126834818Y-123891005D01*
X126834818Y-123891005D02*
X126666459Y-123722646D01*
X126666459Y-123722646D02*
X126531772Y-123655302D01*
X126531772Y-123655302D02*
X126397085Y-123655302D01*
X126397085Y-123655302D02*
X126296070Y-123688974D01*
X126296070Y-123688974D02*
X126127711Y-123789989D01*
X126127711Y-123789989D02*
X126026696Y-123891005D01*
X126026696Y-123891005D02*
X125925681Y-124059363D01*
X125925681Y-124059363D02*
X125892009Y-124160379D01*
X125892009Y-124160379D02*
X125892009Y-124295066D01*
X125892009Y-124295066D02*
X125959352Y-124429753D01*
X125959352Y-124429753D02*
X126127711Y-124598111D01*
X126195055Y-123251241D02*
X125723650Y-122779837D01*
X125723650Y-122779837D02*
X125319589Y-123789989D01*
X126994759Y-128152165D02*
X127398820Y-128556226D01*
X127196789Y-128354195D02*
X127903896Y-127647088D01*
X127903896Y-127647088D02*
X127870224Y-127815447D01*
X127870224Y-127815447D02*
X127870224Y-127950134D01*
X127870224Y-127950134D02*
X127903896Y-128051149D01*
%TO.C,D6*%
X118452816Y-113630189D02*
X119376695Y-113247505D01*
X119376695Y-113247505D02*
X119285580Y-113027534D01*
X119285580Y-113027534D02*
X119186917Y-112913774D01*
X119186917Y-112913774D02*
X119062482Y-112862232D01*
X119062482Y-112862232D02*
X118956271Y-112854684D01*
X118956271Y-112854684D02*
X118762071Y-112883581D01*
X118762071Y-112883581D02*
X118630088Y-112938250D01*
X118630088Y-112938250D02*
X118472334Y-113055137D01*
X118472334Y-113055137D02*
X118402568Y-113135577D01*
X118402568Y-113135577D02*
X118351026Y-113260012D01*
X118351026Y-113260012D02*
X118361701Y-113410217D01*
X118361701Y-113410217D02*
X118452816Y-113630189D01*
X118830005Y-111927677D02*
X118902897Y-112103655D01*
X118902897Y-112103655D02*
X118895349Y-112209866D01*
X118895349Y-112209866D02*
X118869577Y-112272083D01*
X118869577Y-112272083D02*
X118774041Y-112414741D01*
X118774041Y-112414741D02*
X118616287Y-112531627D01*
X118616287Y-112531627D02*
X118264333Y-112677411D01*
X118264333Y-112677411D02*
X118158121Y-112669863D01*
X118158121Y-112669863D02*
X118095904Y-112644092D01*
X118095904Y-112644092D02*
X118015463Y-112574326D01*
X118015463Y-112574326D02*
X117942571Y-112398349D01*
X117942571Y-112398349D02*
X117950120Y-112292138D01*
X117950120Y-112292138D02*
X117975891Y-112229921D01*
X117975891Y-112229921D02*
X118045656Y-112149480D01*
X118045656Y-112149480D02*
X118265628Y-112058365D01*
X118265628Y-112058365D02*
X118371839Y-112065913D01*
X118371839Y-112065913D02*
X118434056Y-112091685D01*
X118434056Y-112091685D02*
X118514497Y-112161450D01*
X118514497Y-112161450D02*
X118587389Y-112337427D01*
X118587389Y-112337427D02*
X118579841Y-112443639D01*
X118579841Y-112443639D02*
X118554069Y-112505856D01*
X118554069Y-112505856D02*
X118484304Y-112586296D01*
X117893786Y-117245511D02*
X118112462Y-117773442D01*
X118003124Y-117509477D02*
X118927004Y-117126793D01*
X118927004Y-117126793D02*
X118831467Y-117269451D01*
X118831467Y-117269451D02*
X118779924Y-117393885D01*
X118779924Y-117393885D02*
X118772376Y-117500097D01*
%TO.C,D5*%
X116484619Y-99083905D02*
X115484619Y-99083905D01*
X115484619Y-99083905D02*
X115484619Y-99322000D01*
X115484619Y-99322000D02*
X115532238Y-99464857D01*
X115532238Y-99464857D02*
X115627476Y-99560095D01*
X115627476Y-99560095D02*
X115722714Y-99607714D01*
X115722714Y-99607714D02*
X115913190Y-99655333D01*
X115913190Y-99655333D02*
X116056047Y-99655333D01*
X116056047Y-99655333D02*
X116246523Y-99607714D01*
X116246523Y-99607714D02*
X116341761Y-99560095D01*
X116341761Y-99560095D02*
X116437000Y-99464857D01*
X116437000Y-99464857D02*
X116484619Y-99322000D01*
X116484619Y-99322000D02*
X116484619Y-99083905D01*
X115484619Y-100560095D02*
X115484619Y-100083905D01*
X115484619Y-100083905D02*
X115960809Y-100036286D01*
X115960809Y-100036286D02*
X115913190Y-100083905D01*
X115913190Y-100083905D02*
X115865571Y-100179143D01*
X115865571Y-100179143D02*
X115865571Y-100417238D01*
X115865571Y-100417238D02*
X115913190Y-100512476D01*
X115913190Y-100512476D02*
X115960809Y-100560095D01*
X115960809Y-100560095D02*
X116056047Y-100607714D01*
X116056047Y-100607714D02*
X116294142Y-100607714D01*
X116294142Y-100607714D02*
X116389380Y-100560095D01*
X116389380Y-100560095D02*
X116437000Y-100512476D01*
X116437000Y-100512476D02*
X116484619Y-100417238D01*
X116484619Y-100417238D02*
X116484619Y-100179143D01*
X116484619Y-100179143D02*
X116437000Y-100083905D01*
X116437000Y-100083905D02*
X116389380Y-100036286D01*
X114584619Y-104257714D02*
X114584619Y-103686286D01*
X114584619Y-103972000D02*
X113584619Y-103972000D01*
X113584619Y-103972000D02*
X113727476Y-103876762D01*
X113727476Y-103876762D02*
X113822714Y-103781524D01*
X113822714Y-103781524D02*
X113870333Y-103686286D01*
%TO.C,D4*%
X119307624Y-86367884D02*
X118383745Y-85985200D01*
X118383745Y-85985200D02*
X118292630Y-86205171D01*
X118292630Y-86205171D02*
X118281955Y-86355377D01*
X118281955Y-86355377D02*
X118333497Y-86479812D01*
X118333497Y-86479812D02*
X118403263Y-86560252D01*
X118403263Y-86560252D02*
X118561017Y-86677138D01*
X118561017Y-86677138D02*
X118693000Y-86731807D01*
X118693000Y-86731807D02*
X118887200Y-86760705D01*
X118887200Y-86760705D02*
X118993411Y-86753157D01*
X118993411Y-86753157D02*
X119117846Y-86701615D01*
X119117846Y-86701615D02*
X119216509Y-86587855D01*
X119216509Y-86587855D02*
X119307624Y-86367884D01*
X118145014Y-87432589D02*
X118760934Y-87687711D01*
X117884175Y-87066834D02*
X118635204Y-87120208D01*
X118635204Y-87120208D02*
X118398305Y-87692133D01*
X115572322Y-90420762D02*
X115790999Y-89892831D01*
X115681661Y-90156797D02*
X114757781Y-89774113D01*
X114757781Y-89774113D02*
X114926210Y-89740794D01*
X114926210Y-89740794D02*
X115050644Y-89689251D01*
X115050644Y-89689251D02*
X115131085Y-89619486D01*
%TO.C,D3*%
X126781953Y-75700130D02*
X126074847Y-74993023D01*
X126074847Y-74993023D02*
X125906488Y-75161382D01*
X125906488Y-75161382D02*
X125839144Y-75296069D01*
X125839144Y-75296069D02*
X125839144Y-75430756D01*
X125839144Y-75430756D02*
X125872816Y-75531771D01*
X125872816Y-75531771D02*
X125973831Y-75700130D01*
X125973831Y-75700130D02*
X126074847Y-75801145D01*
X126074847Y-75801145D02*
X126243205Y-75902160D01*
X126243205Y-75902160D02*
X126344221Y-75935832D01*
X126344221Y-75935832D02*
X126478908Y-75935832D01*
X126478908Y-75935832D02*
X126613595Y-75868489D01*
X126613595Y-75868489D02*
X126781953Y-75700130D01*
X125435083Y-75632786D02*
X124997351Y-76070519D01*
X124997351Y-76070519D02*
X125502427Y-76104191D01*
X125502427Y-76104191D02*
X125401412Y-76205206D01*
X125401412Y-76205206D02*
X125367740Y-76306221D01*
X125367740Y-76306221D02*
X125367740Y-76373565D01*
X125367740Y-76373565D02*
X125401412Y-76474580D01*
X125401412Y-76474580D02*
X125569770Y-76642939D01*
X125569770Y-76642939D02*
X125670786Y-76676611D01*
X125670786Y-76676611D02*
X125738129Y-76676611D01*
X125738129Y-76676611D02*
X125839144Y-76642939D01*
X125839144Y-76642939D02*
X126041175Y-76440908D01*
X126041175Y-76440908D02*
X126074847Y-76339893D01*
X126074847Y-76339893D02*
X126074847Y-76272550D01*
X121780015Y-78015062D02*
X122184076Y-77611001D01*
X121982045Y-77813032D02*
X121274938Y-77105925D01*
X121274938Y-77105925D02*
X121443297Y-77139597D01*
X121443297Y-77139597D02*
X121577984Y-77139597D01*
X121577984Y-77139597D02*
X121678999Y-77105925D01*
%TO.C,D2*%
X137769705Y-68704711D02*
X137387021Y-67780832D01*
X137387021Y-67780832D02*
X137167050Y-67871947D01*
X137167050Y-67871947D02*
X137053290Y-67970610D01*
X137053290Y-67970610D02*
X137001748Y-68095045D01*
X137001748Y-68095045D02*
X136994200Y-68201256D01*
X136994200Y-68201256D02*
X137023097Y-68395456D01*
X137023097Y-68395456D02*
X137077766Y-68527439D01*
X137077766Y-68527439D02*
X137194653Y-68685193D01*
X137194653Y-68685193D02*
X137275093Y-68754959D01*
X137275093Y-68754959D02*
X137399528Y-68806501D01*
X137399528Y-68806501D02*
X137549733Y-68795826D01*
X137549733Y-68795826D02*
X137769705Y-68704711D01*
X136543582Y-68233281D02*
X136481365Y-68207509D01*
X136481365Y-68207509D02*
X136375153Y-68199961D01*
X136375153Y-68199961D02*
X136155182Y-68291076D01*
X136155182Y-68291076D02*
X136085416Y-68371516D01*
X136085416Y-68371516D02*
X136059645Y-68433734D01*
X136059645Y-68433734D02*
X136052097Y-68539945D01*
X136052097Y-68539945D02*
X136088543Y-68627934D01*
X136088543Y-68627934D02*
X136187206Y-68741694D01*
X136187206Y-68741694D02*
X136933814Y-69050949D01*
X136933814Y-69050949D02*
X136361888Y-69287848D01*
X132262629Y-68929271D02*
X132790560Y-68710595D01*
X132526595Y-68819933D02*
X132143911Y-67896053D01*
X132143911Y-67896053D02*
X132286569Y-67991590D01*
X132286569Y-67991590D02*
X132411003Y-68043133D01*
X132411003Y-68043133D02*
X132517215Y-68050681D01*
%TO.C,U3*%
X138937904Y-81758619D02*
X138937904Y-82568142D01*
X138937904Y-82568142D02*
X138890285Y-82663380D01*
X138890285Y-82663380D02*
X138842666Y-82711000D01*
X138842666Y-82711000D02*
X138747428Y-82758619D01*
X138747428Y-82758619D02*
X138556952Y-82758619D01*
X138556952Y-82758619D02*
X138461714Y-82711000D01*
X138461714Y-82711000D02*
X138414095Y-82663380D01*
X138414095Y-82663380D02*
X138366476Y-82568142D01*
X138366476Y-82568142D02*
X138366476Y-81758619D01*
X137985523Y-81758619D02*
X137366476Y-81758619D01*
X137366476Y-81758619D02*
X137699809Y-82139571D01*
X137699809Y-82139571D02*
X137556952Y-82139571D01*
X137556952Y-82139571D02*
X137461714Y-82187190D01*
X137461714Y-82187190D02*
X137414095Y-82234809D01*
X137414095Y-82234809D02*
X137366476Y-82330047D01*
X137366476Y-82330047D02*
X137366476Y-82568142D01*
X137366476Y-82568142D02*
X137414095Y-82663380D01*
X137414095Y-82663380D02*
X137461714Y-82711000D01*
X137461714Y-82711000D02*
X137556952Y-82758619D01*
X137556952Y-82758619D02*
X137842666Y-82758619D01*
X137842666Y-82758619D02*
X137937904Y-82711000D01*
X137937904Y-82711000D02*
X137985523Y-82663380D01*
X124142476Y-91660000D02*
X124285333Y-91612380D01*
X124285333Y-91612380D02*
X124523428Y-91612380D01*
X124523428Y-91612380D02*
X124618666Y-91660000D01*
X124618666Y-91660000D02*
X124666285Y-91707619D01*
X124666285Y-91707619D02*
X124713904Y-91802857D01*
X124713904Y-91802857D02*
X124713904Y-91898095D01*
X124713904Y-91898095D02*
X124666285Y-91993333D01*
X124666285Y-91993333D02*
X124618666Y-92040952D01*
X124618666Y-92040952D02*
X124523428Y-92088571D01*
X124523428Y-92088571D02*
X124332952Y-92136190D01*
X124332952Y-92136190D02*
X124237714Y-92183809D01*
X124237714Y-92183809D02*
X124190095Y-92231428D01*
X124190095Y-92231428D02*
X124142476Y-92326666D01*
X124142476Y-92326666D02*
X124142476Y-92421904D01*
X124142476Y-92421904D02*
X124190095Y-92517142D01*
X124190095Y-92517142D02*
X124237714Y-92564761D01*
X124237714Y-92564761D02*
X124332952Y-92612380D01*
X124332952Y-92612380D02*
X124571047Y-92612380D01*
X124571047Y-92612380D02*
X124713904Y-92564761D01*
X125142476Y-91612380D02*
X125142476Y-92612380D01*
X125142476Y-92136190D02*
X125713904Y-92136190D01*
X125713904Y-91612380D02*
X125713904Y-92612380D01*
X126190095Y-91612380D02*
X126190095Y-92612380D01*
X126190095Y-92612380D02*
X126428190Y-92612380D01*
X126428190Y-92612380D02*
X126571047Y-92564761D01*
X126571047Y-92564761D02*
X126666285Y-92469523D01*
X126666285Y-92469523D02*
X126713904Y-92374285D01*
X126713904Y-92374285D02*
X126761523Y-92183809D01*
X126761523Y-92183809D02*
X126761523Y-92040952D01*
X126761523Y-92040952D02*
X126713904Y-91850476D01*
X126713904Y-91850476D02*
X126666285Y-91755238D01*
X126666285Y-91755238D02*
X126571047Y-91660000D01*
X126571047Y-91660000D02*
X126428190Y-91612380D01*
X126428190Y-91612380D02*
X126190095Y-91612380D01*
X127190095Y-91612380D02*
X127190095Y-92612380D01*
X127190095Y-92612380D02*
X127761523Y-91612380D01*
X127761523Y-91612380D02*
X127761523Y-92612380D01*
X124052000Y-93060000D02*
X127899619Y-93060000D01*
X124713904Y-87484761D02*
X124618666Y-87532380D01*
X124618666Y-87532380D02*
X124475809Y-87532380D01*
X124475809Y-87532380D02*
X124332952Y-87484761D01*
X124332952Y-87484761D02*
X124237714Y-87389523D01*
X124237714Y-87389523D02*
X124190095Y-87294285D01*
X124190095Y-87294285D02*
X124142476Y-87103809D01*
X124142476Y-87103809D02*
X124142476Y-86960952D01*
X124142476Y-86960952D02*
X124190095Y-86770476D01*
X124190095Y-86770476D02*
X124237714Y-86675238D01*
X124237714Y-86675238D02*
X124332952Y-86580000D01*
X124332952Y-86580000D02*
X124475809Y-86532380D01*
X124475809Y-86532380D02*
X124571047Y-86532380D01*
X124571047Y-86532380D02*
X124713904Y-86580000D01*
X124713904Y-86580000D02*
X124761523Y-86627619D01*
X124761523Y-86627619D02*
X124761523Y-86960952D01*
X124761523Y-86960952D02*
X124571047Y-86960952D01*
X125190095Y-86532380D02*
X125190095Y-87532380D01*
X125190095Y-87532380D02*
X125761523Y-86532380D01*
X125761523Y-86532380D02*
X125761523Y-87532380D01*
X126237714Y-86532380D02*
X126237714Y-87532380D01*
X126237714Y-87532380D02*
X126475809Y-87532380D01*
X126475809Y-87532380D02*
X126618666Y-87484761D01*
X126618666Y-87484761D02*
X126713904Y-87389523D01*
X126713904Y-87389523D02*
X126761523Y-87294285D01*
X126761523Y-87294285D02*
X126809142Y-87103809D01*
X126809142Y-87103809D02*
X126809142Y-86960952D01*
X126809142Y-86960952D02*
X126761523Y-86770476D01*
X126761523Y-86770476D02*
X126713904Y-86675238D01*
X126713904Y-86675238D02*
X126618666Y-86580000D01*
X126618666Y-86580000D02*
X126475809Y-86532380D01*
X126475809Y-86532380D02*
X126237714Y-86532380D01*
X124190095Y-94152380D02*
X124190095Y-95152380D01*
X124190095Y-95152380D02*
X124571047Y-95152380D01*
X124571047Y-95152380D02*
X124666285Y-95104761D01*
X124666285Y-95104761D02*
X124713904Y-95057142D01*
X124713904Y-95057142D02*
X124761523Y-94961904D01*
X124761523Y-94961904D02*
X124761523Y-94819047D01*
X124761523Y-94819047D02*
X124713904Y-94723809D01*
X124713904Y-94723809D02*
X124666285Y-94676190D01*
X124666285Y-94676190D02*
X124571047Y-94628571D01*
X124571047Y-94628571D02*
X124190095Y-94628571D01*
X125713904Y-95104761D02*
X125618666Y-95152380D01*
X125618666Y-95152380D02*
X125475809Y-95152380D01*
X125475809Y-95152380D02*
X125332952Y-95104761D01*
X125332952Y-95104761D02*
X125237714Y-95009523D01*
X125237714Y-95009523D02*
X125190095Y-94914285D01*
X125190095Y-94914285D02*
X125142476Y-94723809D01*
X125142476Y-94723809D02*
X125142476Y-94580952D01*
X125142476Y-94580952D02*
X125190095Y-94390476D01*
X125190095Y-94390476D02*
X125237714Y-94295238D01*
X125237714Y-94295238D02*
X125332952Y-94200000D01*
X125332952Y-94200000D02*
X125475809Y-94152380D01*
X125475809Y-94152380D02*
X125571047Y-94152380D01*
X125571047Y-94152380D02*
X125713904Y-94200000D01*
X125713904Y-94200000D02*
X125761523Y-94247619D01*
X125761523Y-94247619D02*
X125761523Y-94580952D01*
X125761523Y-94580952D02*
X125571047Y-94580952D01*
X124047238Y-84992380D02*
X124380571Y-83992380D01*
X124380571Y-83992380D02*
X124713904Y-84992380D01*
X125237714Y-84992380D02*
X125428190Y-84992380D01*
X125428190Y-84992380D02*
X125523428Y-84944761D01*
X125523428Y-84944761D02*
X125618666Y-84849523D01*
X125618666Y-84849523D02*
X125666285Y-84659047D01*
X125666285Y-84659047D02*
X125666285Y-84325714D01*
X125666285Y-84325714D02*
X125618666Y-84135238D01*
X125618666Y-84135238D02*
X125523428Y-84040000D01*
X125523428Y-84040000D02*
X125428190Y-83992380D01*
X125428190Y-83992380D02*
X125237714Y-83992380D01*
X125237714Y-83992380D02*
X125142476Y-84040000D01*
X125142476Y-84040000D02*
X125047238Y-84135238D01*
X125047238Y-84135238D02*
X124999619Y-84325714D01*
X124999619Y-84325714D02*
X124999619Y-84659047D01*
X124999619Y-84659047D02*
X125047238Y-84849523D01*
X125047238Y-84849523D02*
X125142476Y-84944761D01*
X125142476Y-84944761D02*
X125237714Y-84992380D01*
X126094857Y-84992380D02*
X126094857Y-84182857D01*
X126094857Y-84182857D02*
X126142476Y-84087619D01*
X126142476Y-84087619D02*
X126190095Y-84040000D01*
X126190095Y-84040000D02*
X126285333Y-83992380D01*
X126285333Y-83992380D02*
X126475809Y-83992380D01*
X126475809Y-83992380D02*
X126571047Y-84040000D01*
X126571047Y-84040000D02*
X126618666Y-84087619D01*
X126618666Y-84087619D02*
X126666285Y-84182857D01*
X126666285Y-84182857D02*
X126666285Y-84992380D01*
X126999619Y-84992380D02*
X127571047Y-84992380D01*
X127285333Y-83992380D02*
X127285333Y-84992380D01*
X124047238Y-90072380D02*
X124380571Y-89072380D01*
X124380571Y-89072380D02*
X124713904Y-90072380D01*
X125047238Y-89072380D02*
X125047238Y-90072380D01*
X125523428Y-89072380D02*
X125523428Y-90072380D01*
X125523428Y-90072380D02*
X126094856Y-89072380D01*
X126094856Y-89072380D02*
X126094856Y-90072380D01*
%TO.C,U2*%
X140985904Y-95220619D02*
X140985904Y-96030142D01*
X140985904Y-96030142D02*
X140938285Y-96125380D01*
X140938285Y-96125380D02*
X140890666Y-96173000D01*
X140890666Y-96173000D02*
X140795428Y-96220619D01*
X140795428Y-96220619D02*
X140604952Y-96220619D01*
X140604952Y-96220619D02*
X140509714Y-96173000D01*
X140509714Y-96173000D02*
X140462095Y-96125380D01*
X140462095Y-96125380D02*
X140414476Y-96030142D01*
X140414476Y-96030142D02*
X140414476Y-95220619D01*
X139985904Y-95315857D02*
X139938285Y-95268238D01*
X139938285Y-95268238D02*
X139843047Y-95220619D01*
X139843047Y-95220619D02*
X139604952Y-95220619D01*
X139604952Y-95220619D02*
X139509714Y-95268238D01*
X139509714Y-95268238D02*
X139462095Y-95315857D01*
X139462095Y-95315857D02*
X139414476Y-95411095D01*
X139414476Y-95411095D02*
X139414476Y-95506333D01*
X139414476Y-95506333D02*
X139462095Y-95649190D01*
X139462095Y-95649190D02*
X140033523Y-96220619D01*
X140033523Y-96220619D02*
X139414476Y-96220619D01*
X124047238Y-100867380D02*
X124380571Y-99867380D01*
X124380571Y-99867380D02*
X124713904Y-100867380D01*
X125047238Y-99867380D02*
X125047238Y-100867380D01*
X125523428Y-99867380D02*
X125523428Y-100867380D01*
X125523428Y-100867380D02*
X126094856Y-99867380D01*
X126094856Y-99867380D02*
X126094856Y-100867380D01*
X124713904Y-105899761D02*
X124618666Y-105947380D01*
X124618666Y-105947380D02*
X124475809Y-105947380D01*
X124475809Y-105947380D02*
X124332952Y-105899761D01*
X124332952Y-105899761D02*
X124237714Y-105804523D01*
X124237714Y-105804523D02*
X124190095Y-105709285D01*
X124190095Y-105709285D02*
X124142476Y-105518809D01*
X124142476Y-105518809D02*
X124142476Y-105375952D01*
X124142476Y-105375952D02*
X124190095Y-105185476D01*
X124190095Y-105185476D02*
X124237714Y-105090238D01*
X124237714Y-105090238D02*
X124332952Y-104995000D01*
X124332952Y-104995000D02*
X124475809Y-104947380D01*
X124475809Y-104947380D02*
X124571047Y-104947380D01*
X124571047Y-104947380D02*
X124713904Y-104995000D01*
X124713904Y-104995000D02*
X124761523Y-105042619D01*
X124761523Y-105042619D02*
X124761523Y-105375952D01*
X124761523Y-105375952D02*
X124571047Y-105375952D01*
X125190095Y-104947380D02*
X125190095Y-105947380D01*
X125190095Y-105947380D02*
X125761523Y-104947380D01*
X125761523Y-104947380D02*
X125761523Y-105947380D01*
X126237714Y-104947380D02*
X126237714Y-105947380D01*
X126237714Y-105947380D02*
X126475809Y-105947380D01*
X126475809Y-105947380D02*
X126618666Y-105899761D01*
X126618666Y-105899761D02*
X126713904Y-105804523D01*
X126713904Y-105804523D02*
X126761523Y-105709285D01*
X126761523Y-105709285D02*
X126809142Y-105518809D01*
X126809142Y-105518809D02*
X126809142Y-105375952D01*
X126809142Y-105375952D02*
X126761523Y-105185476D01*
X126761523Y-105185476D02*
X126713904Y-105090238D01*
X126713904Y-105090238D02*
X126618666Y-104995000D01*
X126618666Y-104995000D02*
X126475809Y-104947380D01*
X126475809Y-104947380D02*
X126237714Y-104947380D01*
X124713904Y-103359761D02*
X124618666Y-103407380D01*
X124618666Y-103407380D02*
X124475809Y-103407380D01*
X124475809Y-103407380D02*
X124332952Y-103359761D01*
X124332952Y-103359761D02*
X124237714Y-103264523D01*
X124237714Y-103264523D02*
X124190095Y-103169285D01*
X124190095Y-103169285D02*
X124142476Y-102978809D01*
X124142476Y-102978809D02*
X124142476Y-102835952D01*
X124142476Y-102835952D02*
X124190095Y-102645476D01*
X124190095Y-102645476D02*
X124237714Y-102550238D01*
X124237714Y-102550238D02*
X124332952Y-102455000D01*
X124332952Y-102455000D02*
X124475809Y-102407380D01*
X124475809Y-102407380D02*
X124571047Y-102407380D01*
X124571047Y-102407380D02*
X124713904Y-102455000D01*
X124713904Y-102455000D02*
X124761523Y-102502619D01*
X124761523Y-102502619D02*
X124761523Y-102835952D01*
X124761523Y-102835952D02*
X124571047Y-102835952D01*
X125190095Y-102407380D02*
X125190095Y-103407380D01*
X125190095Y-103407380D02*
X125761523Y-102407380D01*
X125761523Y-102407380D02*
X125761523Y-103407380D01*
X126237714Y-102407380D02*
X126237714Y-103407380D01*
X126237714Y-103407380D02*
X126475809Y-103407380D01*
X126475809Y-103407380D02*
X126618666Y-103359761D01*
X126618666Y-103359761D02*
X126713904Y-103264523D01*
X126713904Y-103264523D02*
X126761523Y-103169285D01*
X126761523Y-103169285D02*
X126809142Y-102978809D01*
X126809142Y-102978809D02*
X126809142Y-102835952D01*
X126809142Y-102835952D02*
X126761523Y-102645476D01*
X126761523Y-102645476D02*
X126713904Y-102550238D01*
X126713904Y-102550238D02*
X126618666Y-102455000D01*
X126618666Y-102455000D02*
X126475809Y-102407380D01*
X126475809Y-102407380D02*
X126237714Y-102407380D01*
X124047238Y-108487380D02*
X124380571Y-107487380D01*
X124380571Y-107487380D02*
X124713904Y-108487380D01*
X125237714Y-108487380D02*
X125428190Y-108487380D01*
X125428190Y-108487380D02*
X125523428Y-108439761D01*
X125523428Y-108439761D02*
X125618666Y-108344523D01*
X125618666Y-108344523D02*
X125666285Y-108154047D01*
X125666285Y-108154047D02*
X125666285Y-107820714D01*
X125666285Y-107820714D02*
X125618666Y-107630238D01*
X125618666Y-107630238D02*
X125523428Y-107535000D01*
X125523428Y-107535000D02*
X125428190Y-107487380D01*
X125428190Y-107487380D02*
X125237714Y-107487380D01*
X125237714Y-107487380D02*
X125142476Y-107535000D01*
X125142476Y-107535000D02*
X125047238Y-107630238D01*
X125047238Y-107630238D02*
X124999619Y-107820714D01*
X124999619Y-107820714D02*
X124999619Y-108154047D01*
X124999619Y-108154047D02*
X125047238Y-108344523D01*
X125047238Y-108344523D02*
X125142476Y-108439761D01*
X125142476Y-108439761D02*
X125237714Y-108487380D01*
X126094857Y-108487380D02*
X126094857Y-107677857D01*
X126094857Y-107677857D02*
X126142476Y-107582619D01*
X126142476Y-107582619D02*
X126190095Y-107535000D01*
X126190095Y-107535000D02*
X126285333Y-107487380D01*
X126285333Y-107487380D02*
X126475809Y-107487380D01*
X126475809Y-107487380D02*
X126571047Y-107535000D01*
X126571047Y-107535000D02*
X126618666Y-107582619D01*
X126618666Y-107582619D02*
X126666285Y-107677857D01*
X126666285Y-107677857D02*
X126666285Y-108487380D01*
X126999619Y-108487380D02*
X127571047Y-108487380D01*
X127285333Y-107487380D02*
X127285333Y-108487380D01*
X124190095Y-97851190D02*
X124523428Y-97851190D01*
X124666285Y-97327380D02*
X124190095Y-97327380D01*
X124190095Y-97327380D02*
X124190095Y-98327380D01*
X124190095Y-98327380D02*
X124666285Y-98327380D01*
X125094857Y-97327380D02*
X125094857Y-98327380D01*
X125094857Y-98327380D02*
X125666285Y-97327380D01*
X125666285Y-97327380D02*
X125666285Y-98327380D01*
%TO.C,D1*%
X150598094Y-66446619D02*
X150598094Y-65446619D01*
X150598094Y-65446619D02*
X150359999Y-65446619D01*
X150359999Y-65446619D02*
X150217142Y-65494238D01*
X150217142Y-65494238D02*
X150121904Y-65589476D01*
X150121904Y-65589476D02*
X150074285Y-65684714D01*
X150074285Y-65684714D02*
X150026666Y-65875190D01*
X150026666Y-65875190D02*
X150026666Y-66018047D01*
X150026666Y-66018047D02*
X150074285Y-66208523D01*
X150074285Y-66208523D02*
X150121904Y-66303761D01*
X150121904Y-66303761D02*
X150217142Y-66399000D01*
X150217142Y-66399000D02*
X150359999Y-66446619D01*
X150359999Y-66446619D02*
X150598094Y-66446619D01*
X149074285Y-66446619D02*
X149645713Y-66446619D01*
X149359999Y-66446619D02*
X149359999Y-65446619D01*
X149359999Y-65446619D02*
X149455237Y-65589476D01*
X149455237Y-65589476D02*
X149550475Y-65684714D01*
X149550475Y-65684714D02*
X149645713Y-65732333D01*
X145424285Y-64546619D02*
X145995713Y-64546619D01*
X145709999Y-64546619D02*
X145709999Y-63546619D01*
X145709999Y-63546619D02*
X145805237Y-63689476D01*
X145805237Y-63689476D02*
X145900475Y-63784714D01*
X145900475Y-63784714D02*
X145995713Y-63832333D01*
%TO.C,JP2*%
X134310333Y-76297619D02*
X134310333Y-77011904D01*
X134310333Y-77011904D02*
X134357952Y-77154761D01*
X134357952Y-77154761D02*
X134453190Y-77250000D01*
X134453190Y-77250000D02*
X134596047Y-77297619D01*
X134596047Y-77297619D02*
X134691285Y-77297619D01*
X133834142Y-77297619D02*
X133834142Y-76297619D01*
X133834142Y-76297619D02*
X133453190Y-76297619D01*
X133453190Y-76297619D02*
X133357952Y-76345238D01*
X133357952Y-76345238D02*
X133310333Y-76392857D01*
X133310333Y-76392857D02*
X133262714Y-76488095D01*
X133262714Y-76488095D02*
X133262714Y-76630952D01*
X133262714Y-76630952D02*
X133310333Y-76726190D01*
X133310333Y-76726190D02*
X133357952Y-76773809D01*
X133357952Y-76773809D02*
X133453190Y-76821428D01*
X133453190Y-76821428D02*
X133834142Y-76821428D01*
X132881761Y-76392857D02*
X132834142Y-76345238D01*
X132834142Y-76345238D02*
X132738904Y-76297619D01*
X132738904Y-76297619D02*
X132500809Y-76297619D01*
X132500809Y-76297619D02*
X132405571Y-76345238D01*
X132405571Y-76345238D02*
X132357952Y-76392857D01*
X132357952Y-76392857D02*
X132310333Y-76488095D01*
X132310333Y-76488095D02*
X132310333Y-76583333D01*
X132310333Y-76583333D02*
X132357952Y-76726190D01*
X132357952Y-76726190D02*
X132929380Y-77297619D01*
X132929380Y-77297619D02*
X132310333Y-77297619D01*
X130283332Y-78202619D02*
X129664285Y-78202619D01*
X129664285Y-78202619D02*
X129997618Y-78583571D01*
X129997618Y-78583571D02*
X129854761Y-78583571D01*
X129854761Y-78583571D02*
X129759523Y-78631190D01*
X129759523Y-78631190D02*
X129711904Y-78678809D01*
X129711904Y-78678809D02*
X129664285Y-78774047D01*
X129664285Y-78774047D02*
X129664285Y-79012142D01*
X129664285Y-79012142D02*
X129711904Y-79107380D01*
X129711904Y-79107380D02*
X129759523Y-79155000D01*
X129759523Y-79155000D02*
X129854761Y-79202619D01*
X129854761Y-79202619D02*
X130140475Y-79202619D01*
X130140475Y-79202619D02*
X130235713Y-79155000D01*
X130235713Y-79155000D02*
X130283332Y-79107380D01*
X136414285Y-79202619D02*
X136985713Y-79202619D01*
X136699999Y-79202619D02*
X136699999Y-78202619D01*
X136699999Y-78202619D02*
X136795237Y-78345476D01*
X136795237Y-78345476D02*
X136890475Y-78440714D01*
X136890475Y-78440714D02*
X136985713Y-78488333D01*
%TO.C,JP1*%
X175358619Y-83465666D02*
X176072904Y-83465666D01*
X176072904Y-83465666D02*
X176215761Y-83418047D01*
X176215761Y-83418047D02*
X176311000Y-83322809D01*
X176311000Y-83322809D02*
X176358619Y-83179952D01*
X176358619Y-83179952D02*
X176358619Y-83084714D01*
X176358619Y-83941857D02*
X175358619Y-83941857D01*
X175358619Y-83941857D02*
X175358619Y-84322809D01*
X175358619Y-84322809D02*
X175406238Y-84418047D01*
X175406238Y-84418047D02*
X175453857Y-84465666D01*
X175453857Y-84465666D02*
X175549095Y-84513285D01*
X175549095Y-84513285D02*
X175691952Y-84513285D01*
X175691952Y-84513285D02*
X175787190Y-84465666D01*
X175787190Y-84465666D02*
X175834809Y-84418047D01*
X175834809Y-84418047D02*
X175882428Y-84322809D01*
X175882428Y-84322809D02*
X175882428Y-83941857D01*
X176358619Y-85465666D02*
X176358619Y-84894238D01*
X176358619Y-85179952D02*
X175358619Y-85179952D01*
X175358619Y-85179952D02*
X175501476Y-85084714D01*
X175501476Y-85084714D02*
X175596714Y-84989476D01*
X175596714Y-84989476D02*
X175644333Y-84894238D01*
X173262619Y-80516667D02*
X173262619Y-81135714D01*
X173262619Y-81135714D02*
X173643571Y-80802381D01*
X173643571Y-80802381D02*
X173643571Y-80945238D01*
X173643571Y-80945238D02*
X173691190Y-81040476D01*
X173691190Y-81040476D02*
X173738809Y-81088095D01*
X173738809Y-81088095D02*
X173834047Y-81135714D01*
X173834047Y-81135714D02*
X174072142Y-81135714D01*
X174072142Y-81135714D02*
X174167380Y-81088095D01*
X174167380Y-81088095D02*
X174215000Y-81040476D01*
X174215000Y-81040476D02*
X174262619Y-80945238D01*
X174262619Y-80945238D02*
X174262619Y-80659524D01*
X174262619Y-80659524D02*
X174215000Y-80564286D01*
X174215000Y-80564286D02*
X174167380Y-80516667D01*
X174262619Y-87885714D02*
X174262619Y-87314286D01*
X174262619Y-87600000D02*
X173262619Y-87600000D01*
X173262619Y-87600000D02*
X173405476Y-87504762D01*
X173405476Y-87504762D02*
X173500714Y-87409524D01*
X173500714Y-87409524D02*
X173548333Y-87314286D01*
D12*
%TO.C,D16*%
X161828853Y-61388723D02*
X168573174Y-64182312D01*
X159724094Y-66470060D02*
X166468415Y-69263649D01*
X168573174Y-64182312D02*
X168133088Y-65244773D01*
%TO.C,D15*%
X175625557Y-68894564D02*
X180787436Y-74056443D01*
X171736470Y-72783651D02*
X176898349Y-77945530D01*
X180787436Y-74056443D02*
X179974264Y-74869616D01*
%TO.C,D14*%
X185499688Y-81108826D02*
X188293277Y-87853147D01*
X180418351Y-83213585D02*
X183211940Y-89957906D01*
X188293277Y-87853147D02*
X187230816Y-88293233D01*
%TO.C,D13*%
X189948000Y-96172000D02*
X189948000Y-103472000D01*
X184448000Y-96172000D02*
X184448000Y-103472000D01*
X189948000Y-103472000D02*
X188798000Y-103472000D01*
%TO.C,D12*%
X188293277Y-111790853D02*
X185499688Y-118535174D01*
X183211940Y-109686094D02*
X180418351Y-116430415D01*
X185499688Y-118535174D02*
X184437227Y-118095088D01*
%TO.C,D11*%
X180787436Y-125587557D02*
X175625557Y-130749436D01*
X176898349Y-121698470D02*
X171736470Y-126860349D01*
X175625557Y-130749436D02*
X174812384Y-129936264D01*
%TO.C,D10*%
X168573174Y-135461688D02*
X161828853Y-138255277D01*
X166468415Y-130380351D02*
X159724094Y-133173940D01*
X161828853Y-138255277D02*
X161388767Y-137192816D01*
%TO.C,D9*%
X153510000Y-139910000D02*
X146210000Y-139910000D01*
X153510000Y-134410000D02*
X146210000Y-134410000D01*
X146210000Y-139910000D02*
X146210000Y-138760000D01*
%TO.C,D8*%
X137891147Y-138255277D02*
X131146826Y-135461688D01*
X139995906Y-133173940D02*
X133251585Y-130380351D01*
X131146826Y-135461688D02*
X131586912Y-134399227D01*
%TO.C,D7*%
X124094443Y-130749436D02*
X118932564Y-125587557D01*
X127983530Y-126860349D02*
X122821651Y-121698470D01*
X118932564Y-125587557D02*
X119745736Y-124774384D01*
%TO.C,D6*%
X114220312Y-118535174D02*
X111426723Y-111790853D01*
X119301649Y-116430415D02*
X116508060Y-109686094D01*
X111426723Y-111790853D02*
X112489184Y-111350767D01*
%TO.C,D5*%
X109772000Y-103472000D02*
X109772000Y-96172000D01*
X115272000Y-103472000D02*
X115272000Y-96172000D01*
X109772000Y-96172000D02*
X110922000Y-96172000D01*
%TO.C,D4*%
X111426723Y-87853147D02*
X114220312Y-81108826D01*
X116508060Y-89957906D02*
X119301649Y-83213585D01*
X114220312Y-81108826D02*
X115282773Y-81548912D01*
%TO.C,D3*%
X118932564Y-74056443D02*
X124094443Y-68894564D01*
X122821651Y-77945530D02*
X127983530Y-72783651D01*
X124094443Y-68894564D02*
X124907616Y-69707736D01*
%TO.C,D2*%
X131146826Y-64182312D02*
X137891147Y-61388723D01*
X133251585Y-69263649D02*
X139995906Y-66470060D01*
X137891147Y-61388723D02*
X138331233Y-62451184D01*
%TO.C,U3*%
X120844000Y-95945000D02*
X122174000Y-95945000D01*
X120844000Y-94615000D02*
X120844000Y-95945000D01*
X120844000Y-93345000D02*
X120844000Y-83125000D01*
X120844000Y-93345000D02*
X123504000Y-93345000D01*
X120844000Y-83125000D02*
X123504000Y-83125000D01*
X123504000Y-93345000D02*
X123504000Y-83125000D01*
D13*
%TO.C,U2*%
X120904000Y-114300000D02*
X141224000Y-114300000D01*
X120904000Y-109220000D02*
X123444000Y-109220000D01*
X120904000Y-99060000D02*
X120904000Y-114300000D01*
X120904000Y-99060000D02*
X123444000Y-99060000D01*
X123444000Y-109220000D02*
X123444000Y-99060000D01*
X141224000Y-114300000D02*
X141224000Y-96520000D01*
X141224000Y-96520000D02*
X122174000Y-96520000D01*
D12*
%TO.C,D1*%
X146210000Y-59734000D02*
X153510000Y-59734000D01*
X146210000Y-65234000D02*
X153510000Y-65234000D01*
X153510000Y-59734000D02*
X153510000Y-60884000D01*
%TO.C,JP2*%
X136100000Y-79690000D02*
X136100000Y-77740000D01*
X136100000Y-77740000D02*
X130600000Y-77740000D01*
X130600000Y-79690000D02*
X136100000Y-79690000D01*
X130600000Y-77740000D02*
X130600000Y-79690000D01*
%TO.C,JP1*%
X172850000Y-87000000D02*
X174800000Y-87000000D01*
X174800000Y-87000000D02*
X174800000Y-81500000D01*
X172850000Y-81500000D02*
X172850000Y-87000000D01*
X174800000Y-81500000D02*
X172850000Y-81500000D01*
%TD*%
%LPC*%
D14*
%TO.C,D16*%
X161253701Y-65913013D03*
X162516557Y-62864210D03*
X167043567Y-64739359D03*
X165780711Y-67788162D03*
%TD*%
D15*
%TO.C,D15*%
X173362815Y-72854362D03*
X175696268Y-70520909D03*
X179161091Y-73985732D03*
X176827638Y-76319185D03*
%TD*%
D16*
%TO.C,D14*%
X181893838Y-83901289D03*
X184942641Y-82638433D03*
X186817790Y-87165443D03*
X183768987Y-88428299D03*
%TD*%
D17*
%TO.C,D13*%
X185548000Y-97372000D03*
X188848000Y-97372000D03*
X188848000Y-102272000D03*
X185548000Y-102272000D03*
%TD*%
D18*
%TO.C,D12*%
X183768987Y-111215701D03*
X186817790Y-112478557D03*
X184942641Y-117005567D03*
X181893838Y-115742711D03*
%TD*%
D19*
%TO.C,D11*%
X176827638Y-123324815D03*
X179161091Y-125658268D03*
X175696268Y-129123091D03*
X173362815Y-126789638D03*
%TD*%
D20*
%TO.C,D10*%
X165780711Y-131855838D03*
X167043567Y-134904641D03*
X162516557Y-136779790D03*
X161253701Y-133730987D03*
%TD*%
D21*
%TO.C,D9*%
X152310000Y-135510000D03*
X152310000Y-138810000D03*
X147410000Y-138810000D03*
X147410000Y-135510000D03*
%TD*%
D22*
%TO.C,D8*%
X138466299Y-133730987D03*
X137203443Y-136779790D03*
X132676433Y-134904641D03*
X133939289Y-131855838D03*
%TD*%
D23*
%TO.C,D7*%
X126357185Y-126789638D03*
X124023732Y-129123091D03*
X120558909Y-125658268D03*
X122892362Y-123324815D03*
%TD*%
D24*
%TO.C,D6*%
X117826162Y-115742711D03*
X114777359Y-117005567D03*
X112902210Y-112478557D03*
X115951013Y-111215701D03*
%TD*%
D17*
%TO.C,D5*%
X114172000Y-102272000D03*
X110872000Y-102272000D03*
X110872000Y-97372000D03*
X114172000Y-97372000D03*
%TD*%
D25*
%TO.C,D4*%
X115951013Y-88428299D03*
X112902210Y-87165443D03*
X114777359Y-82638433D03*
X117826162Y-83901289D03*
%TD*%
D26*
%TO.C,D3*%
X122892362Y-76319185D03*
X120558909Y-73985732D03*
X124023732Y-70520909D03*
X126357185Y-72854362D03*
%TD*%
D27*
%TO.C,D2*%
X133939289Y-67788162D03*
X132676433Y-64739359D03*
X137203443Y-62864210D03*
X138466299Y-65913013D03*
%TD*%
D28*
%TO.C,H4*%
X171861627Y-121823627D03*
%TD*%
%TO.C,H2*%
X127858373Y-121823627D03*
%TD*%
%TO.C,H3*%
X149860000Y-130937000D03*
%TD*%
%TO.C,H1*%
X149860000Y-68707000D03*
%TD*%
D29*
%TO.C,U1*%
X166370000Y-100330000D03*
D30*
X166370000Y-97790000D03*
X166370000Y-95250000D03*
X166370000Y-92710000D03*
X166370000Y-90170000D03*
X166370000Y-87630000D03*
X166370000Y-85090000D03*
X166370000Y-82550000D03*
X148590000Y-82550000D03*
X148590000Y-85090000D03*
X148590000Y-87630000D03*
X148590000Y-90170000D03*
X148590000Y-92710000D03*
X148590000Y-95250000D03*
X148590000Y-97790000D03*
X148590000Y-100330000D03*
%TD*%
D31*
%TO.C,U3*%
X122174000Y-94615000D03*
D32*
X122174000Y-92075000D03*
X122174000Y-89535000D03*
X122174000Y-86995000D03*
X122174000Y-84455000D03*
%TD*%
D33*
%TO.C,J6*%
X166370000Y-76200000D03*
D34*
X171450000Y-76200000D03*
%TD*%
D33*
%TO.C,J1*%
X147066000Y-109474000D03*
D34*
X141986000Y-109474000D03*
%TD*%
D31*
%TO.C,U2*%
X122174000Y-97790000D03*
D32*
X122174000Y-100330000D03*
X122174000Y-102870000D03*
X122174000Y-105410000D03*
X122174000Y-107950000D03*
%TD*%
D21*
%TO.C,D1*%
X147410000Y-64134000D03*
X147410000Y-60834000D03*
X152310000Y-60834000D03*
X152310000Y-64134000D03*
%TD*%
D35*
%TO.C,JP2*%
X134550000Y-78740000D03*
X132150000Y-78740000D03*
D36*
X135350000Y-78740000D03*
D37*
X131350000Y-78740000D03*
%TD*%
D35*
%TO.C,JP1*%
X173800000Y-85450000D03*
X173800000Y-83050000D03*
D38*
X173800000Y-86250000D03*
D39*
X173800000Y-82250000D03*
%TD*%
%LPD*%
M02*
