%TF.GenerationSoftware,KiCad,Pcbnew,7.0.2*%
%TF.CreationDate,2023-06-22T15:29:07-04:00*%
%TF.ProjectId,protopico,70726f74-6f70-4696-936f-2e6b69636164,rev?*%
%TF.SameCoordinates,Original*%
%TF.FileFunction,Drillmap*%
%TF.FilePolarity,Positive*%
%FSLAX45Y45*%
G04 Gerber Fmt 4.5, Leading zero omitted, Abs format (unit mm)*
G04 Created by KiCad (PCBNEW 7.0.2) date 2023-06-22 15:29:07*
%MOMM*%
%LPD*%
G01*
G04 APERTURE LIST*
%ADD10C,0.101600*%
%ADD11C,0.200000*%
%ADD12C,0.320000*%
G04 APERTURE END LIST*
D10*
X19304000Y-9982200D02*
G75*
G03*
X19304000Y-9982200I-4318000J0D01*
G01*
D11*
D12*
X12625837Y-12022363D02*
X12945837Y-12342363D01*
X12945837Y-12022363D02*
X12625837Y-12342363D01*
X14826000Y-6710700D02*
X15146000Y-7030700D01*
X15146000Y-6710700D02*
X14826000Y-7030700D01*
X14826000Y-12933700D02*
X15146000Y-13253700D01*
X15146000Y-12933700D02*
X14826000Y-13253700D01*
X17026163Y-12022363D02*
X17346163Y-12342363D01*
X17346163Y-12022363D02*
X17026163Y-12342363D01*
D11*
X10910539Y-14617804D02*
X10910539Y-14417804D01*
X10910539Y-14417804D02*
X10958158Y-14417804D01*
X10958158Y-14417804D02*
X10986730Y-14427328D01*
X10986730Y-14427328D02*
X11005777Y-14446375D01*
X11005777Y-14446375D02*
X11015301Y-14465423D01*
X11015301Y-14465423D02*
X11024825Y-14503518D01*
X11024825Y-14503518D02*
X11024825Y-14532089D01*
X11024825Y-14532089D02*
X11015301Y-14570185D01*
X11015301Y-14570185D02*
X11005777Y-14589232D01*
X11005777Y-14589232D02*
X10986730Y-14608280D01*
X10986730Y-14608280D02*
X10958158Y-14617804D01*
X10958158Y-14617804D02*
X10910539Y-14617804D01*
X11110539Y-14617804D02*
X11110539Y-14484470D01*
X11110539Y-14522566D02*
X11120063Y-14503518D01*
X11120063Y-14503518D02*
X11129587Y-14493994D01*
X11129587Y-14493994D02*
X11148634Y-14484470D01*
X11148634Y-14484470D02*
X11167682Y-14484470D01*
X11234348Y-14617804D02*
X11234348Y-14484470D01*
X11234348Y-14417804D02*
X11224825Y-14427328D01*
X11224825Y-14427328D02*
X11234348Y-14436851D01*
X11234348Y-14436851D02*
X11243872Y-14427328D01*
X11243872Y-14427328D02*
X11234348Y-14417804D01*
X11234348Y-14417804D02*
X11234348Y-14436851D01*
X11358158Y-14617804D02*
X11339110Y-14608280D01*
X11339110Y-14608280D02*
X11329587Y-14589232D01*
X11329587Y-14589232D02*
X11329587Y-14417804D01*
X11462920Y-14617804D02*
X11443872Y-14608280D01*
X11443872Y-14608280D02*
X11434348Y-14589232D01*
X11434348Y-14589232D02*
X11434348Y-14417804D01*
X11691491Y-14617804D02*
X11691491Y-14417804D01*
X11691491Y-14417804D02*
X11758158Y-14560661D01*
X11758158Y-14560661D02*
X11824825Y-14417804D01*
X11824825Y-14417804D02*
X11824825Y-14617804D01*
X12005777Y-14617804D02*
X12005777Y-14513042D01*
X12005777Y-14513042D02*
X11996253Y-14493994D01*
X11996253Y-14493994D02*
X11977206Y-14484470D01*
X11977206Y-14484470D02*
X11939110Y-14484470D01*
X11939110Y-14484470D02*
X11920063Y-14493994D01*
X12005777Y-14608280D02*
X11986729Y-14617804D01*
X11986729Y-14617804D02*
X11939110Y-14617804D01*
X11939110Y-14617804D02*
X11920063Y-14608280D01*
X11920063Y-14608280D02*
X11910539Y-14589232D01*
X11910539Y-14589232D02*
X11910539Y-14570185D01*
X11910539Y-14570185D02*
X11920063Y-14551137D01*
X11920063Y-14551137D02*
X11939110Y-14541613D01*
X11939110Y-14541613D02*
X11986729Y-14541613D01*
X11986729Y-14541613D02*
X12005777Y-14532089D01*
X12101015Y-14484470D02*
X12101015Y-14684470D01*
X12101015Y-14493994D02*
X12120063Y-14484470D01*
X12120063Y-14484470D02*
X12158158Y-14484470D01*
X12158158Y-14484470D02*
X12177206Y-14493994D01*
X12177206Y-14493994D02*
X12186729Y-14503518D01*
X12186729Y-14503518D02*
X12196253Y-14522566D01*
X12196253Y-14522566D02*
X12196253Y-14579708D01*
X12196253Y-14579708D02*
X12186729Y-14598756D01*
X12186729Y-14598756D02*
X12177206Y-14608280D01*
X12177206Y-14608280D02*
X12158158Y-14617804D01*
X12158158Y-14617804D02*
X12120063Y-14617804D01*
X12120063Y-14617804D02*
X12101015Y-14608280D01*
X12281968Y-14598756D02*
X12291491Y-14608280D01*
X12291491Y-14608280D02*
X12281968Y-14617804D01*
X12281968Y-14617804D02*
X12272444Y-14608280D01*
X12272444Y-14608280D02*
X12281968Y-14598756D01*
X12281968Y-14598756D02*
X12281968Y-14617804D01*
X12281968Y-14493994D02*
X12291491Y-14503518D01*
X12291491Y-14503518D02*
X12281968Y-14513042D01*
X12281968Y-14513042D02*
X12272444Y-14503518D01*
X12272444Y-14503518D02*
X12281968Y-14493994D01*
X12281968Y-14493994D02*
X12281968Y-14513042D01*
X10462920Y-14845280D02*
X10662920Y-15045280D01*
X10662920Y-14845280D02*
X10462920Y-15045280D01*
X10891491Y-14837804D02*
X11015301Y-14837804D01*
X11015301Y-14837804D02*
X10948634Y-14913994D01*
X10948634Y-14913994D02*
X10977206Y-14913994D01*
X10977206Y-14913994D02*
X10996253Y-14923518D01*
X10996253Y-14923518D02*
X11005777Y-14933042D01*
X11005777Y-14933042D02*
X11015301Y-14952089D01*
X11015301Y-14952089D02*
X11015301Y-14999708D01*
X11015301Y-14999708D02*
X11005777Y-15018756D01*
X11005777Y-15018756D02*
X10996253Y-15028280D01*
X10996253Y-15028280D02*
X10977206Y-15037804D01*
X10977206Y-15037804D02*
X10920063Y-15037804D01*
X10920063Y-15037804D02*
X10901015Y-15028280D01*
X10901015Y-15028280D02*
X10891491Y-15018756D01*
X11101015Y-15018756D02*
X11110539Y-15028280D01*
X11110539Y-15028280D02*
X11101015Y-15037804D01*
X11101015Y-15037804D02*
X11091491Y-15028280D01*
X11091491Y-15028280D02*
X11101015Y-15018756D01*
X11101015Y-15018756D02*
X11101015Y-15037804D01*
X11186729Y-14856851D02*
X11196253Y-14847328D01*
X11196253Y-14847328D02*
X11215301Y-14837804D01*
X11215301Y-14837804D02*
X11262920Y-14837804D01*
X11262920Y-14837804D02*
X11281968Y-14847328D01*
X11281968Y-14847328D02*
X11291491Y-14856851D01*
X11291491Y-14856851D02*
X11301015Y-14875899D01*
X11301015Y-14875899D02*
X11301015Y-14894947D01*
X11301015Y-14894947D02*
X11291491Y-14923518D01*
X11291491Y-14923518D02*
X11177206Y-15037804D01*
X11177206Y-15037804D02*
X11301015Y-15037804D01*
X11424825Y-14837804D02*
X11443872Y-14837804D01*
X11443872Y-14837804D02*
X11462920Y-14847328D01*
X11462920Y-14847328D02*
X11472444Y-14856851D01*
X11472444Y-14856851D02*
X11481968Y-14875899D01*
X11481968Y-14875899D02*
X11491491Y-14913994D01*
X11491491Y-14913994D02*
X11491491Y-14961613D01*
X11491491Y-14961613D02*
X11481968Y-14999708D01*
X11481968Y-14999708D02*
X11472444Y-15018756D01*
X11472444Y-15018756D02*
X11462920Y-15028280D01*
X11462920Y-15028280D02*
X11443872Y-15037804D01*
X11443872Y-15037804D02*
X11424825Y-15037804D01*
X11424825Y-15037804D02*
X11405777Y-15028280D01*
X11405777Y-15028280D02*
X11396253Y-15018756D01*
X11396253Y-15018756D02*
X11386729Y-14999708D01*
X11386729Y-14999708D02*
X11377206Y-14961613D01*
X11377206Y-14961613D02*
X11377206Y-14913994D01*
X11377206Y-14913994D02*
X11386729Y-14875899D01*
X11386729Y-14875899D02*
X11396253Y-14856851D01*
X11396253Y-14856851D02*
X11405777Y-14847328D01*
X11405777Y-14847328D02*
X11424825Y-14837804D01*
X11615301Y-14837804D02*
X11634349Y-14837804D01*
X11634349Y-14837804D02*
X11653396Y-14847328D01*
X11653396Y-14847328D02*
X11662920Y-14856851D01*
X11662920Y-14856851D02*
X11672444Y-14875899D01*
X11672444Y-14875899D02*
X11681968Y-14913994D01*
X11681968Y-14913994D02*
X11681968Y-14961613D01*
X11681968Y-14961613D02*
X11672444Y-14999708D01*
X11672444Y-14999708D02*
X11662920Y-15018756D01*
X11662920Y-15018756D02*
X11653396Y-15028280D01*
X11653396Y-15028280D02*
X11634349Y-15037804D01*
X11634349Y-15037804D02*
X11615301Y-15037804D01*
X11615301Y-15037804D02*
X11596253Y-15028280D01*
X11596253Y-15028280D02*
X11586729Y-15018756D01*
X11586729Y-15018756D02*
X11577206Y-14999708D01*
X11577206Y-14999708D02*
X11567682Y-14961613D01*
X11567682Y-14961613D02*
X11567682Y-14913994D01*
X11567682Y-14913994D02*
X11577206Y-14875899D01*
X11577206Y-14875899D02*
X11586729Y-14856851D01*
X11586729Y-14856851D02*
X11596253Y-14847328D01*
X11596253Y-14847328D02*
X11615301Y-14837804D01*
X11767682Y-15037804D02*
X11767682Y-14904470D01*
X11767682Y-14923518D02*
X11777206Y-14913994D01*
X11777206Y-14913994D02*
X11796253Y-14904470D01*
X11796253Y-14904470D02*
X11824825Y-14904470D01*
X11824825Y-14904470D02*
X11843872Y-14913994D01*
X11843872Y-14913994D02*
X11853396Y-14933042D01*
X11853396Y-14933042D02*
X11853396Y-15037804D01*
X11853396Y-14933042D02*
X11862920Y-14913994D01*
X11862920Y-14913994D02*
X11881968Y-14904470D01*
X11881968Y-14904470D02*
X11910539Y-14904470D01*
X11910539Y-14904470D02*
X11929587Y-14913994D01*
X11929587Y-14913994D02*
X11939110Y-14933042D01*
X11939110Y-14933042D02*
X11939110Y-15037804D01*
X12034349Y-15037804D02*
X12034349Y-14904470D01*
X12034349Y-14923518D02*
X12043872Y-14913994D01*
X12043872Y-14913994D02*
X12062920Y-14904470D01*
X12062920Y-14904470D02*
X12091491Y-14904470D01*
X12091491Y-14904470D02*
X12110539Y-14913994D01*
X12110539Y-14913994D02*
X12120063Y-14933042D01*
X12120063Y-14933042D02*
X12120063Y-15037804D01*
X12120063Y-14933042D02*
X12129587Y-14913994D01*
X12129587Y-14913994D02*
X12148634Y-14904470D01*
X12148634Y-14904470D02*
X12177206Y-14904470D01*
X12177206Y-14904470D02*
X12196253Y-14913994D01*
X12196253Y-14913994D02*
X12205777Y-14933042D01*
X12205777Y-14933042D02*
X12205777Y-15037804D01*
X12596253Y-14828280D02*
X12424825Y-15085423D01*
X12853396Y-14837804D02*
X12872444Y-14837804D01*
X12872444Y-14837804D02*
X12891492Y-14847328D01*
X12891492Y-14847328D02*
X12901015Y-14856851D01*
X12901015Y-14856851D02*
X12910539Y-14875899D01*
X12910539Y-14875899D02*
X12920063Y-14913994D01*
X12920063Y-14913994D02*
X12920063Y-14961613D01*
X12920063Y-14961613D02*
X12910539Y-14999708D01*
X12910539Y-14999708D02*
X12901015Y-15018756D01*
X12901015Y-15018756D02*
X12891492Y-15028280D01*
X12891492Y-15028280D02*
X12872444Y-15037804D01*
X12872444Y-15037804D02*
X12853396Y-15037804D01*
X12853396Y-15037804D02*
X12834349Y-15028280D01*
X12834349Y-15028280D02*
X12824825Y-15018756D01*
X12824825Y-15018756D02*
X12815301Y-14999708D01*
X12815301Y-14999708D02*
X12805777Y-14961613D01*
X12805777Y-14961613D02*
X12805777Y-14913994D01*
X12805777Y-14913994D02*
X12815301Y-14875899D01*
X12815301Y-14875899D02*
X12824825Y-14856851D01*
X12824825Y-14856851D02*
X12834349Y-14847328D01*
X12834349Y-14847328D02*
X12853396Y-14837804D01*
X13005777Y-15018756D02*
X13015301Y-15028280D01*
X13015301Y-15028280D02*
X13005777Y-15037804D01*
X13005777Y-15037804D02*
X12996253Y-15028280D01*
X12996253Y-15028280D02*
X13005777Y-15018756D01*
X13005777Y-15018756D02*
X13005777Y-15037804D01*
X13205777Y-15037804D02*
X13091492Y-15037804D01*
X13148634Y-15037804D02*
X13148634Y-14837804D01*
X13148634Y-14837804D02*
X13129587Y-14866375D01*
X13129587Y-14866375D02*
X13110539Y-14885423D01*
X13110539Y-14885423D02*
X13091492Y-14894947D01*
X13281968Y-14856851D02*
X13291492Y-14847328D01*
X13291492Y-14847328D02*
X13310539Y-14837804D01*
X13310539Y-14837804D02*
X13358158Y-14837804D01*
X13358158Y-14837804D02*
X13377206Y-14847328D01*
X13377206Y-14847328D02*
X13386730Y-14856851D01*
X13386730Y-14856851D02*
X13396253Y-14875899D01*
X13396253Y-14875899D02*
X13396253Y-14894947D01*
X13396253Y-14894947D02*
X13386730Y-14923518D01*
X13386730Y-14923518D02*
X13272444Y-15037804D01*
X13272444Y-15037804D02*
X13396253Y-15037804D01*
X13567682Y-14837804D02*
X13529587Y-14837804D01*
X13529587Y-14837804D02*
X13510539Y-14847328D01*
X13510539Y-14847328D02*
X13501015Y-14856851D01*
X13501015Y-14856851D02*
X13481968Y-14885423D01*
X13481968Y-14885423D02*
X13472444Y-14923518D01*
X13472444Y-14923518D02*
X13472444Y-14999708D01*
X13472444Y-14999708D02*
X13481968Y-15018756D01*
X13481968Y-15018756D02*
X13491492Y-15028280D01*
X13491492Y-15028280D02*
X13510539Y-15037804D01*
X13510539Y-15037804D02*
X13548634Y-15037804D01*
X13548634Y-15037804D02*
X13567682Y-15028280D01*
X13567682Y-15028280D02*
X13577206Y-15018756D01*
X13577206Y-15018756D02*
X13586730Y-14999708D01*
X13586730Y-14999708D02*
X13586730Y-14952089D01*
X13586730Y-14952089D02*
X13577206Y-14933042D01*
X13577206Y-14933042D02*
X13567682Y-14923518D01*
X13567682Y-14923518D02*
X13548634Y-14913994D01*
X13548634Y-14913994D02*
X13510539Y-14913994D01*
X13510539Y-14913994D02*
X13491492Y-14923518D01*
X13491492Y-14923518D02*
X13481968Y-14933042D01*
X13481968Y-14933042D02*
X13472444Y-14952089D01*
X13710539Y-14837804D02*
X13729587Y-14837804D01*
X13729587Y-14837804D02*
X13748634Y-14847328D01*
X13748634Y-14847328D02*
X13758158Y-14856851D01*
X13758158Y-14856851D02*
X13767682Y-14875899D01*
X13767682Y-14875899D02*
X13777206Y-14913994D01*
X13777206Y-14913994D02*
X13777206Y-14961613D01*
X13777206Y-14961613D02*
X13767682Y-14999708D01*
X13767682Y-14999708D02*
X13758158Y-15018756D01*
X13758158Y-15018756D02*
X13748634Y-15028280D01*
X13748634Y-15028280D02*
X13729587Y-15037804D01*
X13729587Y-15037804D02*
X13710539Y-15037804D01*
X13710539Y-15037804D02*
X13691492Y-15028280D01*
X13691492Y-15028280D02*
X13681968Y-15018756D01*
X13681968Y-15018756D02*
X13672444Y-14999708D01*
X13672444Y-14999708D02*
X13662920Y-14961613D01*
X13662920Y-14961613D02*
X13662920Y-14913994D01*
X13662920Y-14913994D02*
X13672444Y-14875899D01*
X13672444Y-14875899D02*
X13681968Y-14856851D01*
X13681968Y-14856851D02*
X13691492Y-14847328D01*
X13691492Y-14847328D02*
X13710539Y-14837804D01*
X13853396Y-14837804D02*
X13853396Y-14875899D01*
X13929587Y-14837804D02*
X13929587Y-14875899D01*
X14224825Y-15113994D02*
X14215301Y-15104470D01*
X14215301Y-15104470D02*
X14196254Y-15075899D01*
X14196254Y-15075899D02*
X14186730Y-15056851D01*
X14186730Y-15056851D02*
X14177206Y-15028280D01*
X14177206Y-15028280D02*
X14167682Y-14980661D01*
X14167682Y-14980661D02*
X14167682Y-14942566D01*
X14167682Y-14942566D02*
X14177206Y-14894947D01*
X14177206Y-14894947D02*
X14186730Y-14866375D01*
X14186730Y-14866375D02*
X14196254Y-14847328D01*
X14196254Y-14847328D02*
X14215301Y-14818756D01*
X14215301Y-14818756D02*
X14224825Y-14809232D01*
X14386730Y-14904470D02*
X14386730Y-15037804D01*
X14339111Y-14828280D02*
X14291492Y-14971137D01*
X14291492Y-14971137D02*
X14415301Y-14971137D01*
X14643873Y-15037804D02*
X14643873Y-14837804D01*
X14729587Y-15037804D02*
X14729587Y-14933042D01*
X14729587Y-14933042D02*
X14720063Y-14913994D01*
X14720063Y-14913994D02*
X14701016Y-14904470D01*
X14701016Y-14904470D02*
X14672444Y-14904470D01*
X14672444Y-14904470D02*
X14653396Y-14913994D01*
X14653396Y-14913994D02*
X14643873Y-14923518D01*
X14853396Y-15037804D02*
X14834349Y-15028280D01*
X14834349Y-15028280D02*
X14824825Y-15018756D01*
X14824825Y-15018756D02*
X14815301Y-14999708D01*
X14815301Y-14999708D02*
X14815301Y-14942566D01*
X14815301Y-14942566D02*
X14824825Y-14923518D01*
X14824825Y-14923518D02*
X14834349Y-14913994D01*
X14834349Y-14913994D02*
X14853396Y-14904470D01*
X14853396Y-14904470D02*
X14881968Y-14904470D01*
X14881968Y-14904470D02*
X14901016Y-14913994D01*
X14901016Y-14913994D02*
X14910539Y-14923518D01*
X14910539Y-14923518D02*
X14920063Y-14942566D01*
X14920063Y-14942566D02*
X14920063Y-14999708D01*
X14920063Y-14999708D02*
X14910539Y-15018756D01*
X14910539Y-15018756D02*
X14901016Y-15028280D01*
X14901016Y-15028280D02*
X14881968Y-15037804D01*
X14881968Y-15037804D02*
X14853396Y-15037804D01*
X15034349Y-15037804D02*
X15015301Y-15028280D01*
X15015301Y-15028280D02*
X15005777Y-15009232D01*
X15005777Y-15009232D02*
X15005777Y-14837804D01*
X15186730Y-15028280D02*
X15167682Y-15037804D01*
X15167682Y-15037804D02*
X15129587Y-15037804D01*
X15129587Y-15037804D02*
X15110539Y-15028280D01*
X15110539Y-15028280D02*
X15101016Y-15009232D01*
X15101016Y-15009232D02*
X15101016Y-14933042D01*
X15101016Y-14933042D02*
X15110539Y-14913994D01*
X15110539Y-14913994D02*
X15129587Y-14904470D01*
X15129587Y-14904470D02*
X15167682Y-14904470D01*
X15167682Y-14904470D02*
X15186730Y-14913994D01*
X15186730Y-14913994D02*
X15196254Y-14933042D01*
X15196254Y-14933042D02*
X15196254Y-14952089D01*
X15196254Y-14952089D02*
X15101016Y-14971137D01*
X15272444Y-15028280D02*
X15291492Y-15037804D01*
X15291492Y-15037804D02*
X15329587Y-15037804D01*
X15329587Y-15037804D02*
X15348635Y-15028280D01*
X15348635Y-15028280D02*
X15358158Y-15009232D01*
X15358158Y-15009232D02*
X15358158Y-14999708D01*
X15358158Y-14999708D02*
X15348635Y-14980661D01*
X15348635Y-14980661D02*
X15329587Y-14971137D01*
X15329587Y-14971137D02*
X15301016Y-14971137D01*
X15301016Y-14971137D02*
X15281968Y-14961613D01*
X15281968Y-14961613D02*
X15272444Y-14942566D01*
X15272444Y-14942566D02*
X15272444Y-14933042D01*
X15272444Y-14933042D02*
X15281968Y-14913994D01*
X15281968Y-14913994D02*
X15301016Y-14904470D01*
X15301016Y-14904470D02*
X15329587Y-14904470D01*
X15329587Y-14904470D02*
X15348635Y-14913994D01*
X15424825Y-15113994D02*
X15434349Y-15104470D01*
X15434349Y-15104470D02*
X15453397Y-15075899D01*
X15453397Y-15075899D02*
X15462920Y-15056851D01*
X15462920Y-15056851D02*
X15472444Y-15028280D01*
X15472444Y-15028280D02*
X15481968Y-14980661D01*
X15481968Y-14980661D02*
X15481968Y-14942566D01*
X15481968Y-14942566D02*
X15472444Y-14894947D01*
X15472444Y-14894947D02*
X15462920Y-14866375D01*
X15462920Y-14866375D02*
X15453397Y-14847328D01*
X15453397Y-14847328D02*
X15434349Y-14818756D01*
X15434349Y-14818756D02*
X15424825Y-14809232D01*
X15786730Y-15113994D02*
X15777206Y-15104470D01*
X15777206Y-15104470D02*
X15758158Y-15075899D01*
X15758158Y-15075899D02*
X15748635Y-15056851D01*
X15748635Y-15056851D02*
X15739111Y-15028280D01*
X15739111Y-15028280D02*
X15729587Y-14980661D01*
X15729587Y-14980661D02*
X15729587Y-14942566D01*
X15729587Y-14942566D02*
X15739111Y-14894947D01*
X15739111Y-14894947D02*
X15748635Y-14866375D01*
X15748635Y-14866375D02*
X15758158Y-14847328D01*
X15758158Y-14847328D02*
X15777206Y-14818756D01*
X15777206Y-14818756D02*
X15786730Y-14809232D01*
X15862920Y-14904470D02*
X15862920Y-15037804D01*
X15862920Y-14923518D02*
X15872444Y-14913994D01*
X15872444Y-14913994D02*
X15891492Y-14904470D01*
X15891492Y-14904470D02*
X15920063Y-14904470D01*
X15920063Y-14904470D02*
X15939111Y-14913994D01*
X15939111Y-14913994D02*
X15948635Y-14933042D01*
X15948635Y-14933042D02*
X15948635Y-15037804D01*
X16072444Y-15037804D02*
X16053397Y-15028280D01*
X16053397Y-15028280D02*
X16043873Y-15018756D01*
X16043873Y-15018756D02*
X16034349Y-14999708D01*
X16034349Y-14999708D02*
X16034349Y-14942566D01*
X16034349Y-14942566D02*
X16043873Y-14923518D01*
X16043873Y-14923518D02*
X16053397Y-14913994D01*
X16053397Y-14913994D02*
X16072444Y-14904470D01*
X16072444Y-14904470D02*
X16101016Y-14904470D01*
X16101016Y-14904470D02*
X16120063Y-14913994D01*
X16120063Y-14913994D02*
X16129587Y-14923518D01*
X16129587Y-14923518D02*
X16139111Y-14942566D01*
X16139111Y-14942566D02*
X16139111Y-14999708D01*
X16139111Y-14999708D02*
X16129587Y-15018756D01*
X16129587Y-15018756D02*
X16120063Y-15028280D01*
X16120063Y-15028280D02*
X16101016Y-15037804D01*
X16101016Y-15037804D02*
X16072444Y-15037804D01*
X16196254Y-14904470D02*
X16272444Y-14904470D01*
X16224825Y-14837804D02*
X16224825Y-15009232D01*
X16224825Y-15009232D02*
X16234349Y-15028280D01*
X16234349Y-15028280D02*
X16253397Y-15037804D01*
X16253397Y-15037804D02*
X16272444Y-15037804D01*
X16491492Y-14904470D02*
X16491492Y-15104470D01*
X16491492Y-14913994D02*
X16510539Y-14904470D01*
X16510539Y-14904470D02*
X16548635Y-14904470D01*
X16548635Y-14904470D02*
X16567682Y-14913994D01*
X16567682Y-14913994D02*
X16577206Y-14923518D01*
X16577206Y-14923518D02*
X16586730Y-14942566D01*
X16586730Y-14942566D02*
X16586730Y-14999708D01*
X16586730Y-14999708D02*
X16577206Y-15018756D01*
X16577206Y-15018756D02*
X16567682Y-15028280D01*
X16567682Y-15028280D02*
X16548635Y-15037804D01*
X16548635Y-15037804D02*
X16510539Y-15037804D01*
X16510539Y-15037804D02*
X16491492Y-15028280D01*
X16701016Y-15037804D02*
X16681968Y-15028280D01*
X16681968Y-15028280D02*
X16672444Y-15009232D01*
X16672444Y-15009232D02*
X16672444Y-14837804D01*
X16862921Y-15037804D02*
X16862921Y-14933042D01*
X16862921Y-14933042D02*
X16853397Y-14913994D01*
X16853397Y-14913994D02*
X16834349Y-14904470D01*
X16834349Y-14904470D02*
X16796254Y-14904470D01*
X16796254Y-14904470D02*
X16777206Y-14913994D01*
X16862921Y-15028280D02*
X16843873Y-15037804D01*
X16843873Y-15037804D02*
X16796254Y-15037804D01*
X16796254Y-15037804D02*
X16777206Y-15028280D01*
X16777206Y-15028280D02*
X16767682Y-15009232D01*
X16767682Y-15009232D02*
X16767682Y-14990185D01*
X16767682Y-14990185D02*
X16777206Y-14971137D01*
X16777206Y-14971137D02*
X16796254Y-14961613D01*
X16796254Y-14961613D02*
X16843873Y-14961613D01*
X16843873Y-14961613D02*
X16862921Y-14952089D01*
X16929587Y-14904470D02*
X17005778Y-14904470D01*
X16958159Y-14837804D02*
X16958159Y-15009232D01*
X16958159Y-15009232D02*
X16967682Y-15028280D01*
X16967682Y-15028280D02*
X16986730Y-15037804D01*
X16986730Y-15037804D02*
X17005778Y-15037804D01*
X17148635Y-15028280D02*
X17129587Y-15037804D01*
X17129587Y-15037804D02*
X17091492Y-15037804D01*
X17091492Y-15037804D02*
X17072444Y-15028280D01*
X17072444Y-15028280D02*
X17062921Y-15009232D01*
X17062921Y-15009232D02*
X17062921Y-14933042D01*
X17062921Y-14933042D02*
X17072444Y-14913994D01*
X17072444Y-14913994D02*
X17091492Y-14904470D01*
X17091492Y-14904470D02*
X17129587Y-14904470D01*
X17129587Y-14904470D02*
X17148635Y-14913994D01*
X17148635Y-14913994D02*
X17158159Y-14933042D01*
X17158159Y-14933042D02*
X17158159Y-14952089D01*
X17158159Y-14952089D02*
X17062921Y-14971137D01*
X17329587Y-15037804D02*
X17329587Y-14837804D01*
X17329587Y-15028280D02*
X17310540Y-15037804D01*
X17310540Y-15037804D02*
X17272444Y-15037804D01*
X17272444Y-15037804D02*
X17253397Y-15028280D01*
X17253397Y-15028280D02*
X17243873Y-15018756D01*
X17243873Y-15018756D02*
X17234349Y-14999708D01*
X17234349Y-14999708D02*
X17234349Y-14942566D01*
X17234349Y-14942566D02*
X17243873Y-14923518D01*
X17243873Y-14923518D02*
X17253397Y-14913994D01*
X17253397Y-14913994D02*
X17272444Y-14904470D01*
X17272444Y-14904470D02*
X17310540Y-14904470D01*
X17310540Y-14904470D02*
X17329587Y-14913994D01*
X17405778Y-15113994D02*
X17415302Y-15104470D01*
X17415302Y-15104470D02*
X17434349Y-15075899D01*
X17434349Y-15075899D02*
X17443873Y-15056851D01*
X17443873Y-15056851D02*
X17453397Y-15028280D01*
X17453397Y-15028280D02*
X17462921Y-14980661D01*
X17462921Y-14980661D02*
X17462921Y-14942566D01*
X17462921Y-14942566D02*
X17453397Y-14894947D01*
X17453397Y-14894947D02*
X17443873Y-14866375D01*
X17443873Y-14866375D02*
X17434349Y-14847328D01*
X17434349Y-14847328D02*
X17415302Y-14818756D01*
X17415302Y-14818756D02*
X17405778Y-14809232D01*
M02*
