%TF.GenerationSoftware,KiCad,Pcbnew,7.0.2*%
%TF.CreationDate,2023-06-22T15:29:01-04:00*%
%TF.ProjectId,protopico,70726f74-6f70-4696-936f-2e6b69636164,rev?*%
%TF.SameCoordinates,Original*%
%TF.FileFunction,Soldermask,Bot*%
%TF.FilePolarity,Negative*%
%FSLAX46Y46*%
G04 Gerber Fmt 4.6, Leading zero omitted, Abs format (unit mm)*
G04 Created by KiCad (PCBNEW 7.0.2) date 2023-06-22 15:29:01*
%MOMM*%
%LPD*%
G01*
G04 APERTURE LIST*
G04 Aperture macros list*
%AMRotRect*
0 Rectangle, with rotation*
0 The origin of the aperture is its center*
0 $1 length*
0 $2 width*
0 $3 Rotation angle, in degrees counterclockwise*
0 Add horizontal line*
21,1,$1,$2,0,0,$3*%
%AMFreePoly0*
4,1,6,1.000000,0.000000,0.500000,-0.750000,-0.500000,-0.750000,-0.500000,0.750000,0.500000,0.750000,1.000000,0.000000,1.000000,0.000000,$1*%
G04 Aperture macros list end*
%ADD10RotRect,1.500000X0.900000X337.500000*%
%ADD11RotRect,1.500000X0.900000X315.000000*%
%ADD12RotRect,1.500000X0.900000X292.500000*%
%ADD13R,0.900000X1.500000*%
%ADD14RotRect,1.500000X0.900000X247.500000*%
%ADD15RotRect,1.500000X0.900000X225.000000*%
%ADD16RotRect,1.500000X0.900000X202.500000*%
%ADD17R,1.500000X0.900000*%
%ADD18RotRect,1.500000X0.900000X157.500000*%
%ADD19RotRect,1.500000X0.900000X135.000000*%
%ADD20RotRect,1.500000X0.900000X112.500000*%
%ADD21RotRect,1.500000X0.900000X67.500000*%
%ADD22RotRect,1.500000X0.900000X45.000000*%
%ADD23RotRect,1.500000X0.900000X22.500000*%
%ADD24C,3.200000*%
%ADD25R,1.600000X1.600000*%
%ADD26O,1.600000X1.600000*%
%ADD27R,1.700000X1.700000*%
%ADD28O,1.700000X1.700000*%
%ADD29R,3.000000X3.000000*%
%ADD30C,3.000000*%
%ADD31R,1.500000X1.500000*%
%ADD32FreePoly0,180.000000*%
%ADD33FreePoly0,0.000000*%
%ADD34FreePoly0,90.000000*%
%ADD35FreePoly0,270.000000*%
G04 APERTURE END LIST*
D10*
%TO.C,D16*%
X161253701Y-65913013D03*
X162516557Y-62864210D03*
X167043567Y-64739359D03*
X165780711Y-67788162D03*
%TD*%
D11*
%TO.C,D15*%
X173362815Y-72854362D03*
X175696268Y-70520909D03*
X179161091Y-73985732D03*
X176827638Y-76319185D03*
%TD*%
D12*
%TO.C,D14*%
X181893838Y-83901289D03*
X184942641Y-82638433D03*
X186817790Y-87165443D03*
X183768987Y-88428299D03*
%TD*%
D13*
%TO.C,D13*%
X185548000Y-97372000D03*
X188848000Y-97372000D03*
X188848000Y-102272000D03*
X185548000Y-102272000D03*
%TD*%
D14*
%TO.C,D12*%
X183768987Y-111215701D03*
X186817790Y-112478557D03*
X184942641Y-117005567D03*
X181893838Y-115742711D03*
%TD*%
D15*
%TO.C,D11*%
X176827638Y-123324815D03*
X179161091Y-125658268D03*
X175696268Y-129123091D03*
X173362815Y-126789638D03*
%TD*%
D16*
%TO.C,D10*%
X165780711Y-131855838D03*
X167043567Y-134904641D03*
X162516557Y-136779790D03*
X161253701Y-133730987D03*
%TD*%
D17*
%TO.C,D9*%
X152310000Y-135510000D03*
X152310000Y-138810000D03*
X147410000Y-138810000D03*
X147410000Y-135510000D03*
%TD*%
D18*
%TO.C,D8*%
X138466299Y-133730987D03*
X137203443Y-136779790D03*
X132676433Y-134904641D03*
X133939289Y-131855838D03*
%TD*%
D19*
%TO.C,D7*%
X126357185Y-126789638D03*
X124023732Y-129123091D03*
X120558909Y-125658268D03*
X122892362Y-123324815D03*
%TD*%
D20*
%TO.C,D6*%
X117826162Y-115742711D03*
X114777359Y-117005567D03*
X112902210Y-112478557D03*
X115951013Y-111215701D03*
%TD*%
D13*
%TO.C,D5*%
X114172000Y-102272000D03*
X110872000Y-102272000D03*
X110872000Y-97372000D03*
X114172000Y-97372000D03*
%TD*%
D21*
%TO.C,D4*%
X115951013Y-88428299D03*
X112902210Y-87165443D03*
X114777359Y-82638433D03*
X117826162Y-83901289D03*
%TD*%
D22*
%TO.C,D3*%
X122892362Y-76319185D03*
X120558909Y-73985732D03*
X124023732Y-70520909D03*
X126357185Y-72854362D03*
%TD*%
D23*
%TO.C,D2*%
X133939289Y-67788162D03*
X132676433Y-64739359D03*
X137203443Y-62864210D03*
X138466299Y-65913013D03*
%TD*%
D24*
%TO.C,H4*%
X171861627Y-121823627D03*
%TD*%
%TO.C,H2*%
X127858373Y-121823627D03*
%TD*%
%TO.C,H3*%
X149860000Y-130937000D03*
%TD*%
%TO.C,H1*%
X149860000Y-68707000D03*
%TD*%
D25*
%TO.C,U1*%
X166370000Y-100330000D03*
D26*
X166370000Y-97790000D03*
X166370000Y-95250000D03*
X166370000Y-92710000D03*
X166370000Y-90170000D03*
X166370000Y-87630000D03*
X166370000Y-85090000D03*
X166370000Y-82550000D03*
X148590000Y-82550000D03*
X148590000Y-85090000D03*
X148590000Y-87630000D03*
X148590000Y-90170000D03*
X148590000Y-92710000D03*
X148590000Y-95250000D03*
X148590000Y-97790000D03*
X148590000Y-100330000D03*
%TD*%
D27*
%TO.C,U3*%
X122174000Y-94615000D03*
D28*
X122174000Y-92075000D03*
X122174000Y-89535000D03*
X122174000Y-86995000D03*
X122174000Y-84455000D03*
%TD*%
D29*
%TO.C,J6*%
X166370000Y-76200000D03*
D30*
X171450000Y-76200000D03*
%TD*%
D29*
%TO.C,J1*%
X147066000Y-109474000D03*
D30*
X141986000Y-109474000D03*
%TD*%
D27*
%TO.C,U2*%
X122174000Y-97790000D03*
D28*
X122174000Y-100330000D03*
X122174000Y-102870000D03*
X122174000Y-105410000D03*
X122174000Y-107950000D03*
%TD*%
D17*
%TO.C,D1*%
X147410000Y-64134000D03*
X147410000Y-60834000D03*
X152310000Y-60834000D03*
X152310000Y-64134000D03*
%TD*%
D31*
%TO.C,JP2*%
X134550000Y-78740000D03*
X132150000Y-78740000D03*
D32*
X135350000Y-78740000D03*
D33*
X131350000Y-78740000D03*
%TD*%
D31*
%TO.C,JP1*%
X173800000Y-85450000D03*
X173800000Y-83050000D03*
D34*
X173800000Y-86250000D03*
D35*
X173800000Y-82250000D03*
%TD*%
M02*
