%TF.GenerationSoftware,KiCad,Pcbnew,7.0.7*%
%TF.CreationDate,2023-08-31T16:12:04-04:00*%
%TF.ProjectId,protopico,70726f74-6f70-4696-936f-2e6b69636164,rev?*%
%TF.SameCoordinates,Original*%
%TF.FileFunction,Soldermask,Bot*%
%TF.FilePolarity,Negative*%
%FSLAX46Y46*%
G04 Gerber Fmt 4.6, Leading zero omitted, Abs format (unit mm)*
G04 Created by KiCad (PCBNEW 7.0.7) date 2023-08-31 16:12:04*
%MOMM*%
%LPD*%
G01*
G04 APERTURE LIST*
G04 Aperture macros list*
%AMRoundRect*
0 Rectangle with rounded corners*
0 $1 Rounding radius*
0 $2 $3 $4 $5 $6 $7 $8 $9 X,Y pos of 4 corners*
0 Add a 4 corners polygon primitive as box body*
4,1,4,$2,$3,$4,$5,$6,$7,$8,$9,$2,$3,0*
0 Add four circle primitives for the rounded corners*
1,1,$1+$1,$2,$3*
1,1,$1+$1,$4,$5*
1,1,$1+$1,$6,$7*
1,1,$1+$1,$8,$9*
0 Add four rect primitives between the rounded corners*
20,1,$1+$1,$2,$3,$4,$5,0*
20,1,$1+$1,$4,$5,$6,$7,0*
20,1,$1+$1,$6,$7,$8,$9,0*
20,1,$1+$1,$8,$9,$2,$3,0*%
%AMRotRect*
0 Rectangle, with rotation*
0 The origin of the aperture is its center*
0 $1 length*
0 $2 width*
0 $3 Rotation angle, in degrees counterclockwise*
0 Add horizontal line*
21,1,$1,$2,0,0,$3*%
G04 Aperture macros list end*
%ADD10R,1.400000X1.200000*%
%ADD11C,3.200000*%
%ADD12RotRect,1.500000X0.900000X337.500000*%
%ADD13RotRect,1.500000X0.900000X292.500000*%
%ADD14RotRect,1.500000X0.900000X45.000000*%
%ADD15RotRect,1.500000X0.900000X22.500000*%
%ADD16RotRect,1.500000X0.900000X225.000000*%
%ADD17RoundRect,0.250000X0.450000X-0.262500X0.450000X0.262500X-0.450000X0.262500X-0.450000X-0.262500X0*%
%ADD18C,1.695450*%
%ADD19R,1.695450X1.695450*%
%ADD20R,0.900000X1.500000*%
%ADD21RoundRect,0.250000X0.475000X-0.250000X0.475000X0.250000X-0.475000X0.250000X-0.475000X-0.250000X0*%
%ADD22R,1.500000X0.900000*%
%ADD23RoundRect,0.050000X0.387500X0.050000X-0.387500X0.050000X-0.387500X-0.050000X0.387500X-0.050000X0*%
%ADD24RoundRect,0.050000X0.050000X0.387500X-0.050000X0.387500X-0.050000X-0.387500X0.050000X-0.387500X0*%
%ADD25R,3.200000X3.200000*%
%ADD26RoundRect,0.140000X0.170000X-0.140000X0.170000X0.140000X-0.170000X0.140000X-0.170000X-0.140000X0*%
%ADD27RoundRect,0.140000X-0.170000X0.140000X-0.170000X-0.140000X0.170000X-0.140000X0.170000X0.140000X0*%
%ADD28RoundRect,0.135000X-0.185000X0.135000X-0.185000X-0.135000X0.185000X-0.135000X0.185000X0.135000X0*%
%ADD29RotRect,1.500000X0.900000X247.500000*%
%ADD30RoundRect,0.250000X-0.475000X0.250000X-0.475000X-0.250000X0.475000X-0.250000X0.475000X0.250000X0*%
%ADD31RoundRect,0.250000X0.262500X0.450000X-0.262500X0.450000X-0.262500X-0.450000X0.262500X-0.450000X0*%
%ADD32RotRect,1.500000X0.900000X202.500000*%
%ADD33RotRect,1.500000X0.900000X67.500000*%
%ADD34RotRect,1.500000X0.900000X112.500000*%
%ADD35RotRect,1.500000X0.900000X157.500000*%
%ADD36RoundRect,0.250000X-0.450000X0.262500X-0.450000X-0.262500X0.450000X-0.262500X0.450000X0.262500X0*%
%ADD37RoundRect,0.140000X-0.140000X-0.170000X0.140000X-0.170000X0.140000X0.170000X-0.140000X0.170000X0*%
%ADD38RotRect,1.500000X0.900000X315.000000*%
%ADD39RoundRect,0.140000X0.140000X0.170000X-0.140000X0.170000X-0.140000X-0.170000X0.140000X-0.170000X0*%
%ADD40RoundRect,0.150000X0.650000X0.150000X-0.650000X0.150000X-0.650000X-0.150000X0.650000X-0.150000X0*%
%ADD41RotRect,1.500000X0.900000X135.000000*%
%ADD42RoundRect,0.140000X-0.021213X0.219203X-0.219203X0.021213X0.021213X-0.219203X0.219203X-0.021213X0*%
G04 APERTURE END LIST*
D10*
%TO.C,Y1*%
X124376000Y-110148000D03*
X126576000Y-110148000D03*
X126576000Y-111848000D03*
X124376000Y-111848000D03*
%TD*%
D11*
%TO.C,H2*%
X127858373Y-121823627D03*
%TD*%
%TO.C,H3*%
X171861627Y-121823627D03*
%TD*%
%TO.C,H4*%
X149860000Y-130937000D03*
%TD*%
%TO.C,H1*%
X149860000Y-68707000D03*
%TD*%
D12*
%TO.C,D16*%
X161253701Y-65913013D03*
X162516557Y-62864210D03*
X167043567Y-64739359D03*
X165780711Y-67788162D03*
%TD*%
D13*
%TO.C,D14*%
X181893838Y-83901289D03*
X184942641Y-82638433D03*
X186817790Y-87165443D03*
X183768987Y-88428299D03*
%TD*%
D14*
%TO.C,D3*%
X122892362Y-76319185D03*
X120558909Y-73985732D03*
X124023732Y-70520909D03*
X126357185Y-72854362D03*
%TD*%
D15*
%TO.C,D2*%
X133939289Y-67788162D03*
X132676433Y-64739359D03*
X137203443Y-62864210D03*
X138466299Y-65913013D03*
%TD*%
D16*
%TO.C,D11*%
X176827638Y-123324815D03*
X179161091Y-125658268D03*
X175696268Y-129123091D03*
X173362815Y-126789638D03*
%TD*%
D17*
%TO.C,R7*%
X138303000Y-109220000D03*
X138303000Y-107395000D03*
%TD*%
D18*
%TO.C,VR2*%
X142240000Y-114300000D03*
X142240000Y-111760000D03*
X142240000Y-109220000D03*
D19*
X142240000Y-106680000D03*
D18*
X142240000Y-104140000D03*
D19*
X152908000Y-114300000D03*
%TD*%
D20*
%TO.C,D5*%
X114172000Y-102272000D03*
X110872000Y-102272000D03*
X110872000Y-97372000D03*
X114172000Y-97372000D03*
%TD*%
D21*
%TO.C,C14*%
X122212000Y-111910000D03*
X122212000Y-110010000D03*
%TD*%
D18*
%TO.C,VR1*%
X142240000Y-95885000D03*
X142240000Y-93345000D03*
X142240000Y-90805000D03*
D19*
X142240000Y-88265000D03*
D18*
X142240000Y-85725000D03*
%TD*%
D22*
%TO.C,D1*%
X147410000Y-64134000D03*
X147410000Y-60834000D03*
X152310000Y-60834000D03*
X152310000Y-64134000D03*
%TD*%
D23*
%TO.C,U3*%
X128189500Y-97692000D03*
X128189500Y-98092000D03*
X128189500Y-98492000D03*
X128189500Y-98892000D03*
X128189500Y-99292000D03*
X128189500Y-99692000D03*
X128189500Y-100092000D03*
X128189500Y-100492000D03*
X128189500Y-100892000D03*
X128189500Y-101292000D03*
X128189500Y-101692000D03*
X128189500Y-102092000D03*
X128189500Y-102492000D03*
X128189500Y-102892000D03*
D24*
X127352000Y-103729500D03*
X126952000Y-103729500D03*
X126552000Y-103729500D03*
X126152000Y-103729500D03*
X125752000Y-103729500D03*
X125352000Y-103729500D03*
X124952000Y-103729500D03*
X124552000Y-103729500D03*
X124152000Y-103729500D03*
X123752000Y-103729500D03*
X123352000Y-103729500D03*
X122952000Y-103729500D03*
X122552000Y-103729500D03*
X122152000Y-103729500D03*
D23*
X121314500Y-102892000D03*
X121314500Y-102492000D03*
X121314500Y-102092000D03*
X121314500Y-101692000D03*
X121314500Y-101292000D03*
X121314500Y-100892000D03*
X121314500Y-100492000D03*
X121314500Y-100092000D03*
X121314500Y-99692000D03*
X121314500Y-99292000D03*
X121314500Y-98892000D03*
X121314500Y-98492000D03*
X121314500Y-98092000D03*
X121314500Y-97692000D03*
D24*
X122152000Y-96854500D03*
X122552000Y-96854500D03*
X122952000Y-96854500D03*
X123352000Y-96854500D03*
X123752000Y-96854500D03*
X124152000Y-96854500D03*
X124552000Y-96854500D03*
X124952000Y-96854500D03*
X125352000Y-96854500D03*
X125752000Y-96854500D03*
X126152000Y-96854500D03*
X126552000Y-96854500D03*
X126952000Y-96854500D03*
X127352000Y-96854500D03*
D25*
X124752000Y-100292000D03*
%TD*%
D20*
%TO.C,D13*%
X185548000Y-97372000D03*
X188848000Y-97372000D03*
X188848000Y-102272000D03*
X185548000Y-102272000D03*
%TD*%
D26*
%TO.C,C3*%
X124460000Y-93190000D03*
X124460000Y-92230000D03*
%TD*%
%TO.C,C4*%
X121412000Y-94178000D03*
X121412000Y-93218000D03*
%TD*%
D27*
%TO.C,C11*%
X124206000Y-107442000D03*
X124206000Y-108402000D03*
%TD*%
D22*
%TO.C,D9*%
X152310000Y-135510000D03*
X152310000Y-138810000D03*
X147410000Y-138810000D03*
X147410000Y-135510000D03*
%TD*%
D28*
%TO.C,R5*%
X122428000Y-93216000D03*
X122428000Y-94236000D03*
%TD*%
D29*
%TO.C,D12*%
X183768987Y-111215701D03*
X186817790Y-112478557D03*
X184942641Y-117005567D03*
X181893838Y-115742711D03*
%TD*%
D30*
%TO.C,C13*%
X128816000Y-110010000D03*
X128816000Y-111910000D03*
%TD*%
D31*
%TO.C,R2*%
X131722500Y-80518000D03*
X129897500Y-80518000D03*
%TD*%
D26*
%TO.C,C5*%
X120396000Y-94178000D03*
X120396000Y-93218000D03*
%TD*%
D32*
%TO.C,D10*%
X165780711Y-131855838D03*
X167043567Y-134904641D03*
X162516557Y-136779790D03*
X161253701Y-133730987D03*
%TD*%
D33*
%TO.C,D4*%
X115951013Y-88428299D03*
X112902210Y-87165443D03*
X114777359Y-82638433D03*
X117826162Y-83901289D03*
%TD*%
D26*
%TO.C,C2*%
X125476000Y-93190000D03*
X125476000Y-92230000D03*
%TD*%
D31*
%TO.C,R3*%
X128420500Y-82804000D03*
X126595500Y-82804000D03*
%TD*%
D34*
%TO.C,D6*%
X117826162Y-115742711D03*
X114777359Y-117005567D03*
X112902210Y-112478557D03*
X115951013Y-111215701D03*
%TD*%
D35*
%TO.C,D8*%
X138466299Y-133730987D03*
X137203443Y-136779790D03*
X132676433Y-134904641D03*
X133939289Y-131855838D03*
%TD*%
D36*
%TO.C,R1*%
X134620000Y-78693000D03*
X134620000Y-80518000D03*
%TD*%
D37*
%TO.C,C9*%
X131092000Y-101727000D03*
X132052000Y-101727000D03*
%TD*%
D38*
%TO.C,D15*%
X173362815Y-72854362D03*
X175696268Y-70520909D03*
X179161091Y-73985732D03*
X176827638Y-76319185D03*
%TD*%
D39*
%TO.C,C7*%
X118872000Y-96139000D03*
X117912000Y-96139000D03*
%TD*%
D40*
%TO.C,U2*%
X136442000Y-85687000D03*
X136442000Y-86957000D03*
X136442000Y-88227000D03*
X136442000Y-89497000D03*
X129242000Y-89497000D03*
X129242000Y-88227000D03*
X129242000Y-86957000D03*
X129242000Y-85687000D03*
%TD*%
D37*
%TO.C,C6*%
X131092000Y-96520000D03*
X132052000Y-96520000D03*
%TD*%
D41*
%TO.C,D7*%
X126357185Y-126789638D03*
X124023732Y-129123091D03*
X120558909Y-125658268D03*
X122892362Y-123324815D03*
%TD*%
D17*
%TO.C,R6*%
X138303000Y-104013000D03*
X138303000Y-102188000D03*
%TD*%
D39*
%TO.C,C8*%
X118872000Y-97536000D03*
X117912000Y-97536000D03*
%TD*%
%TO.C,C10*%
X118844000Y-101346000D03*
X117884000Y-101346000D03*
%TD*%
D42*
%TO.C,C12*%
X123275411Y-106086589D03*
X122596589Y-106765411D03*
%TD*%
D28*
%TO.C,R4*%
X123444000Y-93216000D03*
X123444000Y-94236000D03*
%TD*%
M02*
