%TF.GenerationSoftware,KiCad,Pcbnew,7.0.2*%
%TF.CreationDate,2023-06-22T18:12:36-04:00*%
%TF.ProjectId,ProtogenBackpackPCB,50726f74-6f67-4656-9e42-61636b706163,rev?*%
%TF.SameCoordinates,Original*%
%TF.FileFunction,Drillmap*%
%TF.FilePolarity,Positive*%
%FSLAX45Y45*%
G04 Gerber Fmt 4.5, Leading zero omitted, Abs format (unit mm)*
G04 Created by KiCad (PCBNEW 7.0.2) date 2023-06-22 18:12:36*
%MOMM*%
%LPD*%
G01*
G04 APERTURE LIST*
%ADD10C,0.101600*%
%ADD11C,0.200000*%
%ADD12C,0.040000*%
%ADD13C,0.040640*%
%ADD14C,0.050000*%
%ADD15C,0.075000*%
%ADD16C,0.100000*%
%ADD17C,0.102000*%
%ADD18C,0.320000*%
%ADD19C,0.450000*%
G04 APERTURE END LIST*
D10*
X11811000Y-2540000D02*
G75*
G03*
X11430000Y-2921000I0J-381000D01*
G01*
X16433800Y-2921000D02*
G75*
G03*
X16052800Y-2540000I-381000J0D01*
G01*
X16052800Y-17526000D02*
G75*
G03*
X16433800Y-17145000I0J381000D01*
G01*
X11430000Y-17145000D02*
G75*
G03*
X11811000Y-17526000I381000J0D01*
G01*
X11430000Y-17145000D02*
X11430000Y-2921000D01*
X16052800Y-17526000D02*
X11811000Y-17526000D01*
X16433800Y-2921000D02*
X16433800Y-17145000D01*
X11811000Y-2540000D02*
X16052800Y-2540000D01*
D11*
D12*
X16109000Y-13467400D02*
X16149000Y-13507400D01*
X16149000Y-13467400D02*
X16109000Y-13507400D01*
X16109000Y-13873800D02*
X16149000Y-13913800D01*
X16149000Y-13873800D02*
X16109000Y-13913800D01*
X16109000Y-15550200D02*
X16149000Y-15590200D01*
X16149000Y-15550200D02*
X16109000Y-15590200D01*
X16109000Y-15959600D02*
X16149000Y-15999600D01*
X16149000Y-15959600D02*
X16109000Y-15999600D01*
D13*
X13634720Y-8839200D02*
G75*
G03*
X13634720Y-8839200I-20320J0D01*
G01*
X13634720Y-8966200D02*
G75*
G03*
X13634720Y-8966200I-20320J0D01*
G01*
X16073120Y-4724400D02*
G75*
G03*
X16073120Y-4724400I-20320J0D01*
G01*
X16123920Y-7975600D02*
G75*
G03*
X16123920Y-7975600I-20320J0D01*
G01*
D14*
X11571000Y-2896000D02*
X11571000Y-2946000D01*
X11546000Y-2921000D02*
X11596000Y-2921000D01*
X11571000Y-17120000D02*
X11571000Y-17170000D01*
X11546000Y-17145000D02*
X11596000Y-17145000D01*
X11641294Y-2726294D02*
X11641294Y-2776294D01*
X11616294Y-2751294D02*
X11666294Y-2751294D01*
X11641294Y-3065706D02*
X11641294Y-3115706D01*
X11616294Y-3090706D02*
X11666294Y-3090706D01*
X11641294Y-16950294D02*
X11641294Y-17000294D01*
X11616294Y-16975294D02*
X11666294Y-16975294D01*
X11641294Y-17289706D02*
X11641294Y-17339706D01*
X11616294Y-17314706D02*
X11666294Y-17314706D01*
X11811000Y-2656000D02*
X11811000Y-2706000D01*
X11786000Y-2681000D02*
X11836000Y-2681000D01*
X11811000Y-3136000D02*
X11811000Y-3186000D01*
X11786000Y-3161000D02*
X11836000Y-3161000D01*
X11811000Y-16880000D02*
X11811000Y-16930000D01*
X11786000Y-16905000D02*
X11836000Y-16905000D01*
X11811000Y-17360000D02*
X11811000Y-17410000D01*
X11786000Y-17385000D02*
X11836000Y-17385000D01*
X11980706Y-2726294D02*
X11980706Y-2776294D01*
X11955706Y-2751294D02*
X12005706Y-2751294D01*
X11980706Y-3065706D02*
X11980706Y-3115706D01*
X11955706Y-3090706D02*
X12005706Y-3090706D01*
X11980706Y-16950294D02*
X11980706Y-17000294D01*
X11955706Y-16975294D02*
X12005706Y-16975294D01*
X11980706Y-17289706D02*
X11980706Y-17339706D01*
X11955706Y-17314706D02*
X12005706Y-17314706D01*
X12051000Y-2896000D02*
X12051000Y-2946000D01*
X12026000Y-2921000D02*
X12076000Y-2921000D01*
X12051000Y-17120000D02*
X12051000Y-17170000D01*
X12026000Y-17145000D02*
X12076000Y-17145000D01*
X15812800Y-2896000D02*
X15812800Y-2946000D01*
X15787800Y-2921000D02*
X15837800Y-2921000D01*
X15812800Y-17120000D02*
X15812800Y-17170000D01*
X15787800Y-17145000D02*
X15837800Y-17145000D01*
X15883094Y-2726294D02*
X15883094Y-2776294D01*
X15858094Y-2751294D02*
X15908094Y-2751294D01*
X15883094Y-3065706D02*
X15883094Y-3115706D01*
X15858094Y-3090706D02*
X15908094Y-3090706D01*
X15883094Y-16950294D02*
X15883094Y-17000294D01*
X15858094Y-16975294D02*
X15908094Y-16975294D01*
X15883094Y-17289706D02*
X15883094Y-17339706D01*
X15858094Y-17314706D02*
X15908094Y-17314706D01*
X16052800Y-2656000D02*
X16052800Y-2706000D01*
X16027800Y-2681000D02*
X16077800Y-2681000D01*
X16052800Y-3136000D02*
X16052800Y-3186000D01*
X16027800Y-3161000D02*
X16077800Y-3161000D01*
X16052800Y-16880000D02*
X16052800Y-16930000D01*
X16027800Y-16905000D02*
X16077800Y-16905000D01*
X16052800Y-17360000D02*
X16052800Y-17410000D01*
X16027800Y-17385000D02*
X16077800Y-17385000D01*
X16222506Y-2726294D02*
X16222506Y-2776294D01*
X16197506Y-2751294D02*
X16247506Y-2751294D01*
X16222506Y-3065706D02*
X16222506Y-3115706D01*
X16197506Y-3090706D02*
X16247506Y-3090706D01*
X16222506Y-16950294D02*
X16222506Y-17000294D01*
X16197506Y-16975294D02*
X16247506Y-16975294D01*
X16222506Y-17289706D02*
X16222506Y-17339706D01*
X16197506Y-17314706D02*
X16247506Y-17314706D01*
X16292800Y-2896000D02*
X16292800Y-2946000D01*
X16267800Y-2921000D02*
X16317800Y-2921000D01*
X16292800Y-17120000D02*
X16292800Y-17170000D01*
X16267800Y-17145000D02*
X16317800Y-17145000D01*
D15*
X12624917Y-7062317D02*
X12624917Y-7009283D01*
X12571883Y-7009283D01*
X12571883Y-7062317D01*
X12624917Y-7062317D01*
X12624917Y-7262317D02*
X12624917Y-7209283D01*
X12571883Y-7209283D01*
X12571883Y-7262317D01*
X12624917Y-7262317D01*
X12624917Y-7462317D02*
X12624917Y-7409283D01*
X12571883Y-7409283D01*
X12571883Y-7462317D01*
X12624917Y-7462317D01*
X12624917Y-7662317D02*
X12624917Y-7609283D01*
X12571883Y-7609283D01*
X12571883Y-7662317D01*
X12624917Y-7662317D01*
X12624917Y-7862317D02*
X12624917Y-7809283D01*
X12571883Y-7809283D01*
X12571883Y-7862317D01*
X12624917Y-7862317D01*
X12624917Y-8062317D02*
X12624917Y-8009283D01*
X12571883Y-8009283D01*
X12571883Y-8062317D01*
X12624917Y-8062317D01*
X12624917Y-8611717D02*
X12624917Y-8558683D01*
X12571883Y-8558683D01*
X12571883Y-8611717D01*
X12624917Y-8611717D01*
X12624917Y-8811717D02*
X12624917Y-8758683D01*
X12571883Y-8758683D01*
X12571883Y-8811717D01*
X12624917Y-8811717D01*
X12624917Y-9011717D02*
X12624917Y-8958683D01*
X12571883Y-8958683D01*
X12571883Y-9011717D01*
X12624917Y-9011717D01*
X12624917Y-9211717D02*
X12624917Y-9158683D01*
X12571883Y-9158683D01*
X12571883Y-9211717D01*
X12624917Y-9211717D01*
X12624917Y-9411717D02*
X12624917Y-9358683D01*
X12571883Y-9358683D01*
X12571883Y-9411717D01*
X12624917Y-9411717D01*
X12624917Y-9611717D02*
X12624917Y-9558683D01*
X12571883Y-9558683D01*
X12571883Y-9611717D01*
X12624917Y-9611717D01*
X13530817Y-12909117D02*
X13530817Y-12856083D01*
X13477783Y-12856083D01*
X13477783Y-12909117D01*
X13530817Y-12909117D01*
X13530817Y-13109117D02*
X13530817Y-13056083D01*
X13477783Y-13056083D01*
X13477783Y-13109117D01*
X13530817Y-13109117D01*
X13530817Y-13309117D02*
X13530817Y-13256083D01*
X13477783Y-13256083D01*
X13477783Y-13309117D01*
X13530817Y-13309117D01*
X13530817Y-13509117D02*
X13530817Y-13456083D01*
X13477783Y-13456083D01*
X13477783Y-13509117D01*
X13530817Y-13509117D01*
X13530817Y-14991917D02*
X13530817Y-14938883D01*
X13477783Y-14938883D01*
X13477783Y-14991917D01*
X13530817Y-14991917D01*
X13530817Y-15191917D02*
X13530817Y-15138883D01*
X13477783Y-15138883D01*
X13477783Y-15191917D01*
X13530817Y-15191917D01*
X13530817Y-15391917D02*
X13530817Y-15338883D01*
X13477783Y-15338883D01*
X13477783Y-15391917D01*
X13530817Y-15391917D01*
X13530817Y-15591917D02*
X13530817Y-15538883D01*
X13477783Y-15538883D01*
X13477783Y-15591917D01*
X13530817Y-15591917D01*
X15015717Y-3328517D02*
X15015717Y-3275483D01*
X14962683Y-3275483D01*
X14962683Y-3328517D01*
X15015717Y-3328517D01*
X15215717Y-3328517D02*
X15215717Y-3275483D01*
X15162683Y-3275483D01*
X15162683Y-3328517D01*
X15215717Y-3328517D01*
X15622117Y-4252517D02*
X15622117Y-4199483D01*
X15569083Y-4199483D01*
X15569083Y-4252517D01*
X15622117Y-4252517D01*
X15622117Y-4452517D02*
X15622117Y-4399483D01*
X15569083Y-4399483D01*
X15569083Y-4452517D01*
X15622117Y-4452517D01*
X15622117Y-4652517D02*
X15622117Y-4599483D01*
X15569083Y-4599483D01*
X15569083Y-4652517D01*
X15622117Y-4652517D01*
X15622117Y-4852517D02*
X15622117Y-4799483D01*
X15569083Y-4799483D01*
X15569083Y-4852517D01*
X15622117Y-4852517D01*
X15622117Y-5052517D02*
X15622117Y-4999483D01*
X15569083Y-4999483D01*
X15569083Y-5052517D01*
X15622117Y-5052517D01*
D16*
X11861800Y-4114000D02*
X11911800Y-4064000D01*
X11861800Y-4014000D01*
X11811800Y-4064000D01*
X11861800Y-4114000D01*
X12115800Y-4114000D02*
X12165800Y-4064000D01*
X12115800Y-4014000D01*
X12065800Y-4064000D01*
X12115800Y-4114000D01*
X12369800Y-4114000D02*
X12419800Y-4064000D01*
X12369800Y-4014000D01*
X12319800Y-4064000D01*
X12369800Y-4114000D01*
X12623800Y-4114000D02*
X12673800Y-4064000D01*
X12623800Y-4014000D01*
X12573800Y-4064000D01*
X12623800Y-4114000D01*
X12877800Y-4114000D02*
X12927800Y-4064000D01*
X12877800Y-4014000D01*
X12827800Y-4064000D01*
X12877800Y-4114000D01*
X13716000Y-4114000D02*
X13766000Y-4064000D01*
X13716000Y-4014000D01*
X13666000Y-4064000D01*
X13716000Y-4114000D01*
X13970000Y-4114000D02*
X14020000Y-4064000D01*
X13970000Y-4014000D01*
X13920000Y-4064000D01*
X13970000Y-4114000D01*
X14007950Y-12343600D02*
X14057950Y-12293600D01*
X14007950Y-12243600D01*
X13957950Y-12293600D01*
X14007950Y-12343600D01*
X14007950Y-12597600D02*
X14057950Y-12547600D01*
X14007950Y-12497600D01*
X13957950Y-12547600D01*
X14007950Y-12597600D01*
X14007950Y-12851600D02*
X14057950Y-12801600D01*
X14007950Y-12751600D01*
X13957950Y-12801600D01*
X14007950Y-12851600D01*
X14007950Y-13105600D02*
X14057950Y-13055600D01*
X14007950Y-13005600D01*
X13957950Y-13055600D01*
X14007950Y-13105600D01*
X14007950Y-13359600D02*
X14057950Y-13309600D01*
X14007950Y-13259600D01*
X13957950Y-13309600D01*
X14007950Y-13359600D01*
X14007950Y-13613600D02*
X14057950Y-13563600D01*
X14007950Y-13513600D01*
X13957950Y-13563600D01*
X14007950Y-13613600D01*
X14007950Y-13867600D02*
X14057950Y-13817600D01*
X14007950Y-13767600D01*
X13957950Y-13817600D01*
X14007950Y-13867600D01*
X14007950Y-14121600D02*
X14057950Y-14071600D01*
X14007950Y-14021600D01*
X13957950Y-14071600D01*
X14007950Y-14121600D01*
X14008100Y-14426400D02*
X14058100Y-14376400D01*
X14008100Y-14326400D01*
X13958100Y-14376400D01*
X14008100Y-14426400D01*
X14008100Y-14680400D02*
X14058100Y-14630400D01*
X14008100Y-14580400D01*
X13958100Y-14630400D01*
X14008100Y-14680400D01*
X14008100Y-14934400D02*
X14058100Y-14884400D01*
X14008100Y-14834400D01*
X13958100Y-14884400D01*
X14008100Y-14934400D01*
X14008100Y-15188400D02*
X14058100Y-15138400D01*
X14008100Y-15088400D01*
X13958100Y-15138400D01*
X14008100Y-15188400D01*
X14008100Y-15442400D02*
X14058100Y-15392400D01*
X14008100Y-15342400D01*
X13958100Y-15392400D01*
X14008100Y-15442400D01*
X14008100Y-15696400D02*
X14058100Y-15646400D01*
X14008100Y-15596400D01*
X13958100Y-15646400D01*
X14008100Y-15696400D01*
X14008100Y-15950400D02*
X14058100Y-15900400D01*
X14008100Y-15850400D01*
X13958100Y-15900400D01*
X14008100Y-15950400D01*
X14008100Y-16204400D02*
X14058100Y-16154400D01*
X14008100Y-16104400D01*
X13958100Y-16154400D01*
X14008100Y-16204400D01*
X14224000Y-4114000D02*
X14274000Y-4064000D01*
X14224000Y-4014000D01*
X14174000Y-4064000D01*
X14224000Y-4114000D01*
X14478000Y-4114000D02*
X14528000Y-4064000D01*
X14478000Y-4014000D01*
X14428000Y-4064000D01*
X14478000Y-4114000D01*
X14732000Y-4114000D02*
X14782000Y-4064000D01*
X14732000Y-4014000D01*
X14682000Y-4064000D01*
X14732000Y-4114000D01*
X15161300Y-4620500D02*
X15211300Y-4570500D01*
X15161300Y-4520500D01*
X15111300Y-4570500D01*
X15161300Y-4620500D01*
X15161300Y-4874500D02*
X15211300Y-4824500D01*
X15161300Y-4774500D01*
X15111300Y-4824500D01*
X15161300Y-4874500D01*
X15161300Y-5128500D02*
X15211300Y-5078500D01*
X15161300Y-5028500D01*
X15111300Y-5078500D01*
X15161300Y-5128500D01*
X15277950Y-12343600D02*
X15327950Y-12293600D01*
X15277950Y-12243600D01*
X15227950Y-12293600D01*
X15277950Y-12343600D01*
X15277950Y-12597600D02*
X15327950Y-12547600D01*
X15277950Y-12497600D01*
X15227950Y-12547600D01*
X15277950Y-12597600D01*
X15277950Y-12851600D02*
X15327950Y-12801600D01*
X15277950Y-12751600D01*
X15227950Y-12801600D01*
X15277950Y-12851600D01*
X15277950Y-13105600D02*
X15327950Y-13055600D01*
X15277950Y-13005600D01*
X15227950Y-13055600D01*
X15277950Y-13105600D01*
X15277950Y-13359600D02*
X15327950Y-13309600D01*
X15277950Y-13259600D01*
X15227950Y-13309600D01*
X15277950Y-13359600D01*
X15277950Y-13613600D02*
X15327950Y-13563600D01*
X15277950Y-13513600D01*
X15227950Y-13563600D01*
X15277950Y-13613600D01*
X15277950Y-13867600D02*
X15327950Y-13817600D01*
X15277950Y-13767600D01*
X15227950Y-13817600D01*
X15277950Y-13867600D01*
X15277950Y-14121600D02*
X15327950Y-14071600D01*
X15277950Y-14021600D01*
X15227950Y-14071600D01*
X15277950Y-14121600D01*
X15278100Y-14426400D02*
X15328100Y-14376400D01*
X15278100Y-14326400D01*
X15228100Y-14376400D01*
X15278100Y-14426400D01*
X15278100Y-14680400D02*
X15328100Y-14630400D01*
X15278100Y-14580400D01*
X15228100Y-14630400D01*
X15278100Y-14680400D01*
X15278100Y-14934400D02*
X15328100Y-14884400D01*
X15278100Y-14834400D01*
X15228100Y-14884400D01*
X15278100Y-14934400D01*
X15278100Y-15188400D02*
X15328100Y-15138400D01*
X15278100Y-15088400D01*
X15228100Y-15138400D01*
X15278100Y-15188400D01*
X15278100Y-15442400D02*
X15328100Y-15392400D01*
X15278100Y-15342400D01*
X15228100Y-15392400D01*
X15278100Y-15442400D01*
X15278100Y-15696400D02*
X15328100Y-15646400D01*
X15278100Y-15596400D01*
X15228100Y-15646400D01*
X15278100Y-15696400D01*
X15278100Y-15950400D02*
X15328100Y-15900400D01*
X15278100Y-15850400D01*
X15228100Y-15900400D01*
X15278100Y-15950400D01*
X15278100Y-16204400D02*
X15328100Y-16154400D01*
X15278100Y-16104400D01*
X15228100Y-16154400D01*
X15278100Y-16204400D01*
D17*
X13957100Y-6222800D02*
X14059100Y-6324800D01*
X14059100Y-6222800D02*
X13957100Y-6324800D01*
X14059100Y-6273800D02*
G75*
G03*
X14059100Y-6273800I-51000J0D01*
G01*
X13957100Y-6476800D02*
X14059100Y-6578800D01*
X14059100Y-6476800D02*
X13957100Y-6578800D01*
X14059100Y-6527800D02*
G75*
G03*
X14059100Y-6527800I-51000J0D01*
G01*
X13957100Y-6730800D02*
X14059100Y-6832800D01*
X14059100Y-6730800D02*
X13957100Y-6832800D01*
X14059100Y-6781800D02*
G75*
G03*
X14059100Y-6781800I-51000J0D01*
G01*
X13957100Y-6984800D02*
X14059100Y-7086800D01*
X14059100Y-6984800D02*
X13957100Y-7086800D01*
X14059100Y-7035800D02*
G75*
G03*
X14059100Y-7035800I-51000J0D01*
G01*
X13957100Y-7238800D02*
X14059100Y-7340800D01*
X14059100Y-7238800D02*
X13957100Y-7340800D01*
X14059100Y-7289800D02*
G75*
G03*
X14059100Y-7289800I-51000J0D01*
G01*
X13957100Y-7492800D02*
X14059100Y-7594800D01*
X14059100Y-7492800D02*
X13957100Y-7594800D01*
X14059100Y-7543800D02*
G75*
G03*
X14059100Y-7543800I-51000J0D01*
G01*
X13957100Y-7746800D02*
X14059100Y-7848800D01*
X14059100Y-7746800D02*
X13957100Y-7848800D01*
X14059100Y-7797800D02*
G75*
G03*
X14059100Y-7797800I-51000J0D01*
G01*
X13957100Y-8000800D02*
X14059100Y-8102800D01*
X14059100Y-8000800D02*
X13957100Y-8102800D01*
X14059100Y-8051800D02*
G75*
G03*
X14059100Y-8051800I-51000J0D01*
G01*
X13957100Y-8254800D02*
X14059100Y-8356800D01*
X14059100Y-8254800D02*
X13957100Y-8356800D01*
X14059100Y-8305800D02*
G75*
G03*
X14059100Y-8305800I-51000J0D01*
G01*
X13957100Y-8508800D02*
X14059100Y-8610800D01*
X14059100Y-8508800D02*
X13957100Y-8610800D01*
X14059100Y-8559800D02*
G75*
G03*
X14059100Y-8559800I-51000J0D01*
G01*
X13957100Y-8762800D02*
X14059100Y-8864800D01*
X14059100Y-8762800D02*
X13957100Y-8864800D01*
X14059100Y-8813800D02*
G75*
G03*
X14059100Y-8813800I-51000J0D01*
G01*
X13957100Y-9016800D02*
X14059100Y-9118800D01*
X14059100Y-9016800D02*
X13957100Y-9118800D01*
X14059100Y-9067800D02*
G75*
G03*
X14059100Y-9067800I-51000J0D01*
G01*
X13957100Y-9270800D02*
X14059100Y-9372800D01*
X14059100Y-9270800D02*
X13957100Y-9372800D01*
X14059100Y-9321800D02*
G75*
G03*
X14059100Y-9321800I-51000J0D01*
G01*
X13957100Y-9524800D02*
X14059100Y-9626800D01*
X14059100Y-9524800D02*
X13957100Y-9626800D01*
X14059100Y-9575800D02*
G75*
G03*
X14059100Y-9575800I-51000J0D01*
G01*
X13957100Y-9778800D02*
X14059100Y-9880800D01*
X14059100Y-9778800D02*
X13957100Y-9880800D01*
X14059100Y-9829800D02*
G75*
G03*
X14059100Y-9829800I-51000J0D01*
G01*
X13957100Y-10032800D02*
X14059100Y-10134800D01*
X14059100Y-10032800D02*
X13957100Y-10134800D01*
X14059100Y-10083800D02*
G75*
G03*
X14059100Y-10083800I-51000J0D01*
G01*
X13957100Y-10286800D02*
X14059100Y-10388800D01*
X14059100Y-10286800D02*
X13957100Y-10388800D01*
X14059100Y-10337800D02*
G75*
G03*
X14059100Y-10337800I-51000J0D01*
G01*
X13957100Y-10540800D02*
X14059100Y-10642800D01*
X14059100Y-10540800D02*
X13957100Y-10642800D01*
X14059100Y-10591800D02*
G75*
G03*
X14059100Y-10591800I-51000J0D01*
G01*
X13957100Y-10794800D02*
X14059100Y-10896800D01*
X14059100Y-10794800D02*
X13957100Y-10896800D01*
X14059100Y-10845800D02*
G75*
G03*
X14059100Y-10845800I-51000J0D01*
G01*
X13957100Y-11048800D02*
X14059100Y-11150800D01*
X14059100Y-11048800D02*
X13957100Y-11150800D01*
X14059100Y-11099800D02*
G75*
G03*
X14059100Y-11099800I-51000J0D01*
G01*
X15735100Y-6222800D02*
X15837100Y-6324800D01*
X15837100Y-6222800D02*
X15735100Y-6324800D01*
X15837100Y-6273800D02*
G75*
G03*
X15837100Y-6273800I-51000J0D01*
G01*
X15735100Y-6476800D02*
X15837100Y-6578800D01*
X15837100Y-6476800D02*
X15735100Y-6578800D01*
X15837100Y-6527800D02*
G75*
G03*
X15837100Y-6527800I-51000J0D01*
G01*
X15735100Y-6730800D02*
X15837100Y-6832800D01*
X15837100Y-6730800D02*
X15735100Y-6832800D01*
X15837100Y-6781800D02*
G75*
G03*
X15837100Y-6781800I-51000J0D01*
G01*
X15735100Y-6984800D02*
X15837100Y-7086800D01*
X15837100Y-6984800D02*
X15735100Y-7086800D01*
X15837100Y-7035800D02*
G75*
G03*
X15837100Y-7035800I-51000J0D01*
G01*
X15735100Y-7238800D02*
X15837100Y-7340800D01*
X15837100Y-7238800D02*
X15735100Y-7340800D01*
X15837100Y-7289800D02*
G75*
G03*
X15837100Y-7289800I-51000J0D01*
G01*
X15735100Y-7492800D02*
X15837100Y-7594800D01*
X15837100Y-7492800D02*
X15735100Y-7594800D01*
X15837100Y-7543800D02*
G75*
G03*
X15837100Y-7543800I-51000J0D01*
G01*
X15735100Y-7746800D02*
X15837100Y-7848800D01*
X15837100Y-7746800D02*
X15735100Y-7848800D01*
X15837100Y-7797800D02*
G75*
G03*
X15837100Y-7797800I-51000J0D01*
G01*
X15735100Y-8000800D02*
X15837100Y-8102800D01*
X15837100Y-8000800D02*
X15735100Y-8102800D01*
X15837100Y-8051800D02*
G75*
G03*
X15837100Y-8051800I-51000J0D01*
G01*
X15735100Y-8254800D02*
X15837100Y-8356800D01*
X15837100Y-8254800D02*
X15735100Y-8356800D01*
X15837100Y-8305800D02*
G75*
G03*
X15837100Y-8305800I-51000J0D01*
G01*
X15735100Y-8508800D02*
X15837100Y-8610800D01*
X15837100Y-8508800D02*
X15735100Y-8610800D01*
X15837100Y-8559800D02*
G75*
G03*
X15837100Y-8559800I-51000J0D01*
G01*
X15735100Y-8762800D02*
X15837100Y-8864800D01*
X15837100Y-8762800D02*
X15735100Y-8864800D01*
X15837100Y-8813800D02*
G75*
G03*
X15837100Y-8813800I-51000J0D01*
G01*
X15735100Y-9016800D02*
X15837100Y-9118800D01*
X15837100Y-9016800D02*
X15735100Y-9118800D01*
X15837100Y-9067800D02*
G75*
G03*
X15837100Y-9067800I-51000J0D01*
G01*
X15735100Y-9270800D02*
X15837100Y-9372800D01*
X15837100Y-9270800D02*
X15735100Y-9372800D01*
X15837100Y-9321800D02*
G75*
G03*
X15837100Y-9321800I-51000J0D01*
G01*
X15735100Y-9524800D02*
X15837100Y-9626800D01*
X15837100Y-9524800D02*
X15735100Y-9626800D01*
X15837100Y-9575800D02*
G75*
G03*
X15837100Y-9575800I-51000J0D01*
G01*
X15735100Y-9778800D02*
X15837100Y-9880800D01*
X15837100Y-9778800D02*
X15735100Y-9880800D01*
X15837100Y-9829800D02*
G75*
G03*
X15837100Y-9829800I-51000J0D01*
G01*
X15735100Y-10032800D02*
X15837100Y-10134800D01*
X15837100Y-10032800D02*
X15735100Y-10134800D01*
X15837100Y-10083800D02*
G75*
G03*
X15837100Y-10083800I-51000J0D01*
G01*
X15735100Y-10286800D02*
X15837100Y-10388800D01*
X15837100Y-10286800D02*
X15735100Y-10388800D01*
X15837100Y-10337800D02*
G75*
G03*
X15837100Y-10337800I-51000J0D01*
G01*
X15735100Y-10540800D02*
X15837100Y-10642800D01*
X15837100Y-10540800D02*
X15735100Y-10642800D01*
X15837100Y-10591800D02*
G75*
G03*
X15837100Y-10591800I-51000J0D01*
G01*
X15735100Y-10794800D02*
X15837100Y-10896800D01*
X15837100Y-10794800D02*
X15735100Y-10896800D01*
X15837100Y-10845800D02*
G75*
G03*
X15837100Y-10845800I-51000J0D01*
G01*
X15735100Y-11048800D02*
X15837100Y-11150800D01*
X15837100Y-11048800D02*
X15735100Y-11150800D01*
X15837100Y-11099800D02*
G75*
G03*
X15837100Y-11099800I-51000J0D01*
G01*
D18*
X11651000Y-2761000D02*
X11971000Y-3081000D01*
X11971000Y-2761000D02*
X11651000Y-3081000D01*
X11811000Y-2761000D02*
X11811000Y-3081000D01*
X11651000Y-2921000D02*
X11971000Y-2921000D01*
X11651000Y-16985000D02*
X11971000Y-17305000D01*
X11971000Y-16985000D02*
X11651000Y-17305000D01*
X11811000Y-16985000D02*
X11811000Y-17305000D01*
X11651000Y-17145000D02*
X11971000Y-17145000D01*
X15892800Y-2761000D02*
X16212800Y-3081000D01*
X16212800Y-2761000D02*
X15892800Y-3081000D01*
X16052800Y-2761000D02*
X16052800Y-3081000D01*
X15892800Y-2921000D02*
X16212800Y-2921000D01*
X15892800Y-16985000D02*
X16212800Y-17305000D01*
X16212800Y-16985000D02*
X15892800Y-17305000D01*
X16052800Y-16985000D02*
X16052800Y-17305000D01*
X15892800Y-17145000D02*
X16212800Y-17145000D01*
D19*
X12623000Y-3077000D02*
X13073000Y-3527000D01*
X13073000Y-3077000D02*
X12623000Y-3527000D01*
X13007101Y-3461101D02*
X13007101Y-3142899D01*
X12688899Y-3142899D01*
X12688899Y-3461101D01*
X13007101Y-3461101D01*
X13343000Y-3077000D02*
X13793000Y-3527000D01*
X13793000Y-3077000D02*
X13343000Y-3527000D01*
X13727101Y-3461101D02*
X13727101Y-3142899D01*
X13408899Y-3142899D01*
X13408899Y-3461101D01*
X13727101Y-3461101D01*
D11*
X11672539Y-17843604D02*
X11672539Y-17643604D01*
X11672539Y-17643604D02*
X11720158Y-17643604D01*
X11720158Y-17643604D02*
X11748729Y-17653128D01*
X11748729Y-17653128D02*
X11767777Y-17672175D01*
X11767777Y-17672175D02*
X11777301Y-17691223D01*
X11777301Y-17691223D02*
X11786825Y-17729318D01*
X11786825Y-17729318D02*
X11786825Y-17757890D01*
X11786825Y-17757890D02*
X11777301Y-17795985D01*
X11777301Y-17795985D02*
X11767777Y-17815032D01*
X11767777Y-17815032D02*
X11748729Y-17834080D01*
X11748729Y-17834080D02*
X11720158Y-17843604D01*
X11720158Y-17843604D02*
X11672539Y-17843604D01*
X11872539Y-17843604D02*
X11872539Y-17710270D01*
X11872539Y-17748366D02*
X11882063Y-17729318D01*
X11882063Y-17729318D02*
X11891587Y-17719794D01*
X11891587Y-17719794D02*
X11910634Y-17710270D01*
X11910634Y-17710270D02*
X11929682Y-17710270D01*
X11996348Y-17843604D02*
X11996348Y-17710270D01*
X11996348Y-17643604D02*
X11986825Y-17653128D01*
X11986825Y-17653128D02*
X11996348Y-17662651D01*
X11996348Y-17662651D02*
X12005872Y-17653128D01*
X12005872Y-17653128D02*
X11996348Y-17643604D01*
X11996348Y-17643604D02*
X11996348Y-17662651D01*
X12120158Y-17843604D02*
X12101110Y-17834080D01*
X12101110Y-17834080D02*
X12091587Y-17815032D01*
X12091587Y-17815032D02*
X12091587Y-17643604D01*
X12224920Y-17843604D02*
X12205872Y-17834080D01*
X12205872Y-17834080D02*
X12196348Y-17815032D01*
X12196348Y-17815032D02*
X12196348Y-17643604D01*
X12453491Y-17843604D02*
X12453491Y-17643604D01*
X12453491Y-17643604D02*
X12520158Y-17786461D01*
X12520158Y-17786461D02*
X12586825Y-17643604D01*
X12586825Y-17643604D02*
X12586825Y-17843604D01*
X12767777Y-17843604D02*
X12767777Y-17738842D01*
X12767777Y-17738842D02*
X12758253Y-17719794D01*
X12758253Y-17719794D02*
X12739206Y-17710270D01*
X12739206Y-17710270D02*
X12701110Y-17710270D01*
X12701110Y-17710270D02*
X12682063Y-17719794D01*
X12767777Y-17834080D02*
X12748729Y-17843604D01*
X12748729Y-17843604D02*
X12701110Y-17843604D01*
X12701110Y-17843604D02*
X12682063Y-17834080D01*
X12682063Y-17834080D02*
X12672539Y-17815032D01*
X12672539Y-17815032D02*
X12672539Y-17795985D01*
X12672539Y-17795985D02*
X12682063Y-17776937D01*
X12682063Y-17776937D02*
X12701110Y-17767413D01*
X12701110Y-17767413D02*
X12748729Y-17767413D01*
X12748729Y-17767413D02*
X12767777Y-17757890D01*
X12863015Y-17710270D02*
X12863015Y-17910270D01*
X12863015Y-17719794D02*
X12882063Y-17710270D01*
X12882063Y-17710270D02*
X12920158Y-17710270D01*
X12920158Y-17710270D02*
X12939206Y-17719794D01*
X12939206Y-17719794D02*
X12948729Y-17729318D01*
X12948729Y-17729318D02*
X12958253Y-17748366D01*
X12958253Y-17748366D02*
X12958253Y-17805509D01*
X12958253Y-17805509D02*
X12948729Y-17824556D01*
X12948729Y-17824556D02*
X12939206Y-17834080D01*
X12939206Y-17834080D02*
X12920158Y-17843604D01*
X12920158Y-17843604D02*
X12882063Y-17843604D01*
X12882063Y-17843604D02*
X12863015Y-17834080D01*
X13043968Y-17824556D02*
X13053491Y-17834080D01*
X13053491Y-17834080D02*
X13043968Y-17843604D01*
X13043968Y-17843604D02*
X13034444Y-17834080D01*
X13034444Y-17834080D02*
X13043968Y-17824556D01*
X13043968Y-17824556D02*
X13043968Y-17843604D01*
X13043968Y-17719794D02*
X13053491Y-17729318D01*
X13053491Y-17729318D02*
X13043968Y-17738842D01*
X13043968Y-17738842D02*
X13034444Y-17729318D01*
X13034444Y-17729318D02*
X13043968Y-17719794D01*
X13043968Y-17719794D02*
X13043968Y-17738842D01*
D12*
X11384920Y-18151080D02*
X11424920Y-18191080D01*
X11424920Y-18151080D02*
X11384920Y-18191080D01*
D11*
X11710634Y-18063604D02*
X11729682Y-18063604D01*
X11729682Y-18063604D02*
X11748729Y-18073128D01*
X11748729Y-18073128D02*
X11758253Y-18082651D01*
X11758253Y-18082651D02*
X11767777Y-18101699D01*
X11767777Y-18101699D02*
X11777301Y-18139794D01*
X11777301Y-18139794D02*
X11777301Y-18187413D01*
X11777301Y-18187413D02*
X11767777Y-18225509D01*
X11767777Y-18225509D02*
X11758253Y-18244556D01*
X11758253Y-18244556D02*
X11748729Y-18254080D01*
X11748729Y-18254080D02*
X11729682Y-18263604D01*
X11729682Y-18263604D02*
X11710634Y-18263604D01*
X11710634Y-18263604D02*
X11691587Y-18254080D01*
X11691587Y-18254080D02*
X11682063Y-18244556D01*
X11682063Y-18244556D02*
X11672539Y-18225509D01*
X11672539Y-18225509D02*
X11663015Y-18187413D01*
X11663015Y-18187413D02*
X11663015Y-18139794D01*
X11663015Y-18139794D02*
X11672539Y-18101699D01*
X11672539Y-18101699D02*
X11682063Y-18082651D01*
X11682063Y-18082651D02*
X11691587Y-18073128D01*
X11691587Y-18073128D02*
X11710634Y-18063604D01*
X11863015Y-18244556D02*
X11872539Y-18254080D01*
X11872539Y-18254080D02*
X11863015Y-18263604D01*
X11863015Y-18263604D02*
X11853491Y-18254080D01*
X11853491Y-18254080D02*
X11863015Y-18244556D01*
X11863015Y-18244556D02*
X11863015Y-18263604D01*
X12043968Y-18130270D02*
X12043968Y-18263604D01*
X11996348Y-18054080D02*
X11948729Y-18196937D01*
X11948729Y-18196937D02*
X12072539Y-18196937D01*
X12186825Y-18063604D02*
X12205872Y-18063604D01*
X12205872Y-18063604D02*
X12224920Y-18073128D01*
X12224920Y-18073128D02*
X12234444Y-18082651D01*
X12234444Y-18082651D02*
X12243968Y-18101699D01*
X12243968Y-18101699D02*
X12253491Y-18139794D01*
X12253491Y-18139794D02*
X12253491Y-18187413D01*
X12253491Y-18187413D02*
X12243968Y-18225509D01*
X12243968Y-18225509D02*
X12234444Y-18244556D01*
X12234444Y-18244556D02*
X12224920Y-18254080D01*
X12224920Y-18254080D02*
X12205872Y-18263604D01*
X12205872Y-18263604D02*
X12186825Y-18263604D01*
X12186825Y-18263604D02*
X12167777Y-18254080D01*
X12167777Y-18254080D02*
X12158253Y-18244556D01*
X12158253Y-18244556D02*
X12148729Y-18225509D01*
X12148729Y-18225509D02*
X12139206Y-18187413D01*
X12139206Y-18187413D02*
X12139206Y-18139794D01*
X12139206Y-18139794D02*
X12148729Y-18101699D01*
X12148729Y-18101699D02*
X12158253Y-18082651D01*
X12158253Y-18082651D02*
X12167777Y-18073128D01*
X12167777Y-18073128D02*
X12186825Y-18063604D01*
X12377301Y-18063604D02*
X12396349Y-18063604D01*
X12396349Y-18063604D02*
X12415396Y-18073128D01*
X12415396Y-18073128D02*
X12424920Y-18082651D01*
X12424920Y-18082651D02*
X12434444Y-18101699D01*
X12434444Y-18101699D02*
X12443968Y-18139794D01*
X12443968Y-18139794D02*
X12443968Y-18187413D01*
X12443968Y-18187413D02*
X12434444Y-18225509D01*
X12434444Y-18225509D02*
X12424920Y-18244556D01*
X12424920Y-18244556D02*
X12415396Y-18254080D01*
X12415396Y-18254080D02*
X12396349Y-18263604D01*
X12396349Y-18263604D02*
X12377301Y-18263604D01*
X12377301Y-18263604D02*
X12358253Y-18254080D01*
X12358253Y-18254080D02*
X12348729Y-18244556D01*
X12348729Y-18244556D02*
X12339206Y-18225509D01*
X12339206Y-18225509D02*
X12329682Y-18187413D01*
X12329682Y-18187413D02*
X12329682Y-18139794D01*
X12329682Y-18139794D02*
X12339206Y-18101699D01*
X12339206Y-18101699D02*
X12348729Y-18082651D01*
X12348729Y-18082651D02*
X12358253Y-18073128D01*
X12358253Y-18073128D02*
X12377301Y-18063604D01*
X12529682Y-18263604D02*
X12529682Y-18130270D01*
X12529682Y-18149318D02*
X12539206Y-18139794D01*
X12539206Y-18139794D02*
X12558253Y-18130270D01*
X12558253Y-18130270D02*
X12586825Y-18130270D01*
X12586825Y-18130270D02*
X12605872Y-18139794D01*
X12605872Y-18139794D02*
X12615396Y-18158842D01*
X12615396Y-18158842D02*
X12615396Y-18263604D01*
X12615396Y-18158842D02*
X12624920Y-18139794D01*
X12624920Y-18139794D02*
X12643968Y-18130270D01*
X12643968Y-18130270D02*
X12672539Y-18130270D01*
X12672539Y-18130270D02*
X12691587Y-18139794D01*
X12691587Y-18139794D02*
X12701110Y-18158842D01*
X12701110Y-18158842D02*
X12701110Y-18263604D01*
X12796349Y-18263604D02*
X12796349Y-18130270D01*
X12796349Y-18149318D02*
X12805872Y-18139794D01*
X12805872Y-18139794D02*
X12824920Y-18130270D01*
X12824920Y-18130270D02*
X12853491Y-18130270D01*
X12853491Y-18130270D02*
X12872539Y-18139794D01*
X12872539Y-18139794D02*
X12882063Y-18158842D01*
X12882063Y-18158842D02*
X12882063Y-18263604D01*
X12882063Y-18158842D02*
X12891587Y-18139794D01*
X12891587Y-18139794D02*
X12910634Y-18130270D01*
X12910634Y-18130270D02*
X12939206Y-18130270D01*
X12939206Y-18130270D02*
X12958253Y-18139794D01*
X12958253Y-18139794D02*
X12967777Y-18158842D01*
X12967777Y-18158842D02*
X12967777Y-18263604D01*
X13358253Y-18054080D02*
X13186825Y-18311223D01*
X13615396Y-18063604D02*
X13634444Y-18063604D01*
X13634444Y-18063604D02*
X13653492Y-18073128D01*
X13653492Y-18073128D02*
X13663015Y-18082651D01*
X13663015Y-18082651D02*
X13672539Y-18101699D01*
X13672539Y-18101699D02*
X13682063Y-18139794D01*
X13682063Y-18139794D02*
X13682063Y-18187413D01*
X13682063Y-18187413D02*
X13672539Y-18225509D01*
X13672539Y-18225509D02*
X13663015Y-18244556D01*
X13663015Y-18244556D02*
X13653492Y-18254080D01*
X13653492Y-18254080D02*
X13634444Y-18263604D01*
X13634444Y-18263604D02*
X13615396Y-18263604D01*
X13615396Y-18263604D02*
X13596349Y-18254080D01*
X13596349Y-18254080D02*
X13586825Y-18244556D01*
X13586825Y-18244556D02*
X13577301Y-18225509D01*
X13577301Y-18225509D02*
X13567777Y-18187413D01*
X13567777Y-18187413D02*
X13567777Y-18139794D01*
X13567777Y-18139794D02*
X13577301Y-18101699D01*
X13577301Y-18101699D02*
X13586825Y-18082651D01*
X13586825Y-18082651D02*
X13596349Y-18073128D01*
X13596349Y-18073128D02*
X13615396Y-18063604D01*
X13767777Y-18244556D02*
X13777301Y-18254080D01*
X13777301Y-18254080D02*
X13767777Y-18263604D01*
X13767777Y-18263604D02*
X13758253Y-18254080D01*
X13758253Y-18254080D02*
X13767777Y-18244556D01*
X13767777Y-18244556D02*
X13767777Y-18263604D01*
X13901111Y-18063604D02*
X13920158Y-18063604D01*
X13920158Y-18063604D02*
X13939206Y-18073128D01*
X13939206Y-18073128D02*
X13948730Y-18082651D01*
X13948730Y-18082651D02*
X13958253Y-18101699D01*
X13958253Y-18101699D02*
X13967777Y-18139794D01*
X13967777Y-18139794D02*
X13967777Y-18187413D01*
X13967777Y-18187413D02*
X13958253Y-18225509D01*
X13958253Y-18225509D02*
X13948730Y-18244556D01*
X13948730Y-18244556D02*
X13939206Y-18254080D01*
X13939206Y-18254080D02*
X13920158Y-18263604D01*
X13920158Y-18263604D02*
X13901111Y-18263604D01*
X13901111Y-18263604D02*
X13882063Y-18254080D01*
X13882063Y-18254080D02*
X13872539Y-18244556D01*
X13872539Y-18244556D02*
X13863015Y-18225509D01*
X13863015Y-18225509D02*
X13853492Y-18187413D01*
X13853492Y-18187413D02*
X13853492Y-18139794D01*
X13853492Y-18139794D02*
X13863015Y-18101699D01*
X13863015Y-18101699D02*
X13872539Y-18082651D01*
X13872539Y-18082651D02*
X13882063Y-18073128D01*
X13882063Y-18073128D02*
X13901111Y-18063604D01*
X14158253Y-18263604D02*
X14043968Y-18263604D01*
X14101111Y-18263604D02*
X14101111Y-18063604D01*
X14101111Y-18063604D02*
X14082063Y-18092175D01*
X14082063Y-18092175D02*
X14063015Y-18111223D01*
X14063015Y-18111223D02*
X14043968Y-18120747D01*
X14339206Y-18063604D02*
X14243968Y-18063604D01*
X14243968Y-18063604D02*
X14234444Y-18158842D01*
X14234444Y-18158842D02*
X14243968Y-18149318D01*
X14243968Y-18149318D02*
X14263015Y-18139794D01*
X14263015Y-18139794D02*
X14310634Y-18139794D01*
X14310634Y-18139794D02*
X14329682Y-18149318D01*
X14329682Y-18149318D02*
X14339206Y-18158842D01*
X14339206Y-18158842D02*
X14348730Y-18177890D01*
X14348730Y-18177890D02*
X14348730Y-18225509D01*
X14348730Y-18225509D02*
X14339206Y-18244556D01*
X14339206Y-18244556D02*
X14329682Y-18254080D01*
X14329682Y-18254080D02*
X14310634Y-18263604D01*
X14310634Y-18263604D02*
X14263015Y-18263604D01*
X14263015Y-18263604D02*
X14243968Y-18254080D01*
X14243968Y-18254080D02*
X14234444Y-18244556D01*
X14415396Y-18063604D02*
X14548730Y-18063604D01*
X14548730Y-18063604D02*
X14463015Y-18263604D01*
X14615396Y-18063604D02*
X14615396Y-18101699D01*
X14691587Y-18063604D02*
X14691587Y-18101699D01*
X14986825Y-18339794D02*
X14977301Y-18330270D01*
X14977301Y-18330270D02*
X14958254Y-18301699D01*
X14958254Y-18301699D02*
X14948730Y-18282651D01*
X14948730Y-18282651D02*
X14939206Y-18254080D01*
X14939206Y-18254080D02*
X14929682Y-18206461D01*
X14929682Y-18206461D02*
X14929682Y-18168366D01*
X14929682Y-18168366D02*
X14939206Y-18120747D01*
X14939206Y-18120747D02*
X14948730Y-18092175D01*
X14948730Y-18092175D02*
X14958254Y-18073128D01*
X14958254Y-18073128D02*
X14977301Y-18044556D01*
X14977301Y-18044556D02*
X14986825Y-18035032D01*
X15148730Y-18130270D02*
X15148730Y-18263604D01*
X15101111Y-18054080D02*
X15053492Y-18196937D01*
X15053492Y-18196937D02*
X15177301Y-18196937D01*
X15405873Y-18263604D02*
X15405873Y-18063604D01*
X15491587Y-18263604D02*
X15491587Y-18158842D01*
X15491587Y-18158842D02*
X15482063Y-18139794D01*
X15482063Y-18139794D02*
X15463016Y-18130270D01*
X15463016Y-18130270D02*
X15434444Y-18130270D01*
X15434444Y-18130270D02*
X15415396Y-18139794D01*
X15415396Y-18139794D02*
X15405873Y-18149318D01*
X15615396Y-18263604D02*
X15596349Y-18254080D01*
X15596349Y-18254080D02*
X15586825Y-18244556D01*
X15586825Y-18244556D02*
X15577301Y-18225509D01*
X15577301Y-18225509D02*
X15577301Y-18168366D01*
X15577301Y-18168366D02*
X15586825Y-18149318D01*
X15586825Y-18149318D02*
X15596349Y-18139794D01*
X15596349Y-18139794D02*
X15615396Y-18130270D01*
X15615396Y-18130270D02*
X15643968Y-18130270D01*
X15643968Y-18130270D02*
X15663016Y-18139794D01*
X15663016Y-18139794D02*
X15672539Y-18149318D01*
X15672539Y-18149318D02*
X15682063Y-18168366D01*
X15682063Y-18168366D02*
X15682063Y-18225509D01*
X15682063Y-18225509D02*
X15672539Y-18244556D01*
X15672539Y-18244556D02*
X15663016Y-18254080D01*
X15663016Y-18254080D02*
X15643968Y-18263604D01*
X15643968Y-18263604D02*
X15615396Y-18263604D01*
X15796349Y-18263604D02*
X15777301Y-18254080D01*
X15777301Y-18254080D02*
X15767777Y-18235032D01*
X15767777Y-18235032D02*
X15767777Y-18063604D01*
X15948730Y-18254080D02*
X15929682Y-18263604D01*
X15929682Y-18263604D02*
X15891587Y-18263604D01*
X15891587Y-18263604D02*
X15872539Y-18254080D01*
X15872539Y-18254080D02*
X15863016Y-18235032D01*
X15863016Y-18235032D02*
X15863016Y-18158842D01*
X15863016Y-18158842D02*
X15872539Y-18139794D01*
X15872539Y-18139794D02*
X15891587Y-18130270D01*
X15891587Y-18130270D02*
X15929682Y-18130270D01*
X15929682Y-18130270D02*
X15948730Y-18139794D01*
X15948730Y-18139794D02*
X15958254Y-18158842D01*
X15958254Y-18158842D02*
X15958254Y-18177890D01*
X15958254Y-18177890D02*
X15863016Y-18196937D01*
X16034444Y-18254080D02*
X16053492Y-18263604D01*
X16053492Y-18263604D02*
X16091587Y-18263604D01*
X16091587Y-18263604D02*
X16110635Y-18254080D01*
X16110635Y-18254080D02*
X16120158Y-18235032D01*
X16120158Y-18235032D02*
X16120158Y-18225509D01*
X16120158Y-18225509D02*
X16110635Y-18206461D01*
X16110635Y-18206461D02*
X16091587Y-18196937D01*
X16091587Y-18196937D02*
X16063016Y-18196937D01*
X16063016Y-18196937D02*
X16043968Y-18187413D01*
X16043968Y-18187413D02*
X16034444Y-18168366D01*
X16034444Y-18168366D02*
X16034444Y-18158842D01*
X16034444Y-18158842D02*
X16043968Y-18139794D01*
X16043968Y-18139794D02*
X16063016Y-18130270D01*
X16063016Y-18130270D02*
X16091587Y-18130270D01*
X16091587Y-18130270D02*
X16110635Y-18139794D01*
X16186825Y-18339794D02*
X16196349Y-18330270D01*
X16196349Y-18330270D02*
X16215397Y-18301699D01*
X16215397Y-18301699D02*
X16224920Y-18282651D01*
X16224920Y-18282651D02*
X16234444Y-18254080D01*
X16234444Y-18254080D02*
X16243968Y-18206461D01*
X16243968Y-18206461D02*
X16243968Y-18168366D01*
X16243968Y-18168366D02*
X16234444Y-18120747D01*
X16234444Y-18120747D02*
X16224920Y-18092175D01*
X16224920Y-18092175D02*
X16215397Y-18073128D01*
X16215397Y-18073128D02*
X16196349Y-18044556D01*
X16196349Y-18044556D02*
X16186825Y-18035032D01*
D13*
X11424920Y-18435080D02*
G75*
G03*
X11424920Y-18435080I-20320J0D01*
G01*
D11*
X11710634Y-18327604D02*
X11729682Y-18327604D01*
X11729682Y-18327604D02*
X11748729Y-18337128D01*
X11748729Y-18337128D02*
X11758253Y-18346651D01*
X11758253Y-18346651D02*
X11767777Y-18365699D01*
X11767777Y-18365699D02*
X11777301Y-18403794D01*
X11777301Y-18403794D02*
X11777301Y-18451413D01*
X11777301Y-18451413D02*
X11767777Y-18489509D01*
X11767777Y-18489509D02*
X11758253Y-18508556D01*
X11758253Y-18508556D02*
X11748729Y-18518080D01*
X11748729Y-18518080D02*
X11729682Y-18527604D01*
X11729682Y-18527604D02*
X11710634Y-18527604D01*
X11710634Y-18527604D02*
X11691587Y-18518080D01*
X11691587Y-18518080D02*
X11682063Y-18508556D01*
X11682063Y-18508556D02*
X11672539Y-18489509D01*
X11672539Y-18489509D02*
X11663015Y-18451413D01*
X11663015Y-18451413D02*
X11663015Y-18403794D01*
X11663015Y-18403794D02*
X11672539Y-18365699D01*
X11672539Y-18365699D02*
X11682063Y-18346651D01*
X11682063Y-18346651D02*
X11691587Y-18337128D01*
X11691587Y-18337128D02*
X11710634Y-18327604D01*
X11863015Y-18508556D02*
X11872539Y-18518080D01*
X11872539Y-18518080D02*
X11863015Y-18527604D01*
X11863015Y-18527604D02*
X11853491Y-18518080D01*
X11853491Y-18518080D02*
X11863015Y-18508556D01*
X11863015Y-18508556D02*
X11863015Y-18527604D01*
X12043968Y-18394270D02*
X12043968Y-18527604D01*
X11996348Y-18318080D02*
X11948729Y-18460937D01*
X11948729Y-18460937D02*
X12072539Y-18460937D01*
X12186825Y-18327604D02*
X12205872Y-18327604D01*
X12205872Y-18327604D02*
X12224920Y-18337128D01*
X12224920Y-18337128D02*
X12234444Y-18346651D01*
X12234444Y-18346651D02*
X12243968Y-18365699D01*
X12243968Y-18365699D02*
X12253491Y-18403794D01*
X12253491Y-18403794D02*
X12253491Y-18451413D01*
X12253491Y-18451413D02*
X12243968Y-18489509D01*
X12243968Y-18489509D02*
X12234444Y-18508556D01*
X12234444Y-18508556D02*
X12224920Y-18518080D01*
X12224920Y-18518080D02*
X12205872Y-18527604D01*
X12205872Y-18527604D02*
X12186825Y-18527604D01*
X12186825Y-18527604D02*
X12167777Y-18518080D01*
X12167777Y-18518080D02*
X12158253Y-18508556D01*
X12158253Y-18508556D02*
X12148729Y-18489509D01*
X12148729Y-18489509D02*
X12139206Y-18451413D01*
X12139206Y-18451413D02*
X12139206Y-18403794D01*
X12139206Y-18403794D02*
X12148729Y-18365699D01*
X12148729Y-18365699D02*
X12158253Y-18346651D01*
X12158253Y-18346651D02*
X12167777Y-18337128D01*
X12167777Y-18337128D02*
X12186825Y-18327604D01*
X12424920Y-18327604D02*
X12386825Y-18327604D01*
X12386825Y-18327604D02*
X12367777Y-18337128D01*
X12367777Y-18337128D02*
X12358253Y-18346651D01*
X12358253Y-18346651D02*
X12339206Y-18375223D01*
X12339206Y-18375223D02*
X12329682Y-18413318D01*
X12329682Y-18413318D02*
X12329682Y-18489509D01*
X12329682Y-18489509D02*
X12339206Y-18508556D01*
X12339206Y-18508556D02*
X12348729Y-18518080D01*
X12348729Y-18518080D02*
X12367777Y-18527604D01*
X12367777Y-18527604D02*
X12405872Y-18527604D01*
X12405872Y-18527604D02*
X12424920Y-18518080D01*
X12424920Y-18518080D02*
X12434444Y-18508556D01*
X12434444Y-18508556D02*
X12443968Y-18489509D01*
X12443968Y-18489509D02*
X12443968Y-18441890D01*
X12443968Y-18441890D02*
X12434444Y-18422842D01*
X12434444Y-18422842D02*
X12424920Y-18413318D01*
X12424920Y-18413318D02*
X12405872Y-18403794D01*
X12405872Y-18403794D02*
X12367777Y-18403794D01*
X12367777Y-18403794D02*
X12348729Y-18413318D01*
X12348729Y-18413318D02*
X12339206Y-18422842D01*
X12339206Y-18422842D02*
X12329682Y-18441890D01*
X12529682Y-18527604D02*
X12529682Y-18394270D01*
X12529682Y-18413318D02*
X12539206Y-18403794D01*
X12539206Y-18403794D02*
X12558253Y-18394270D01*
X12558253Y-18394270D02*
X12586825Y-18394270D01*
X12586825Y-18394270D02*
X12605872Y-18403794D01*
X12605872Y-18403794D02*
X12615396Y-18422842D01*
X12615396Y-18422842D02*
X12615396Y-18527604D01*
X12615396Y-18422842D02*
X12624920Y-18403794D01*
X12624920Y-18403794D02*
X12643968Y-18394270D01*
X12643968Y-18394270D02*
X12672539Y-18394270D01*
X12672539Y-18394270D02*
X12691587Y-18403794D01*
X12691587Y-18403794D02*
X12701110Y-18422842D01*
X12701110Y-18422842D02*
X12701110Y-18527604D01*
X12796349Y-18527604D02*
X12796349Y-18394270D01*
X12796349Y-18413318D02*
X12805872Y-18403794D01*
X12805872Y-18403794D02*
X12824920Y-18394270D01*
X12824920Y-18394270D02*
X12853491Y-18394270D01*
X12853491Y-18394270D02*
X12872539Y-18403794D01*
X12872539Y-18403794D02*
X12882063Y-18422842D01*
X12882063Y-18422842D02*
X12882063Y-18527604D01*
X12882063Y-18422842D02*
X12891587Y-18403794D01*
X12891587Y-18403794D02*
X12910634Y-18394270D01*
X12910634Y-18394270D02*
X12939206Y-18394270D01*
X12939206Y-18394270D02*
X12958253Y-18403794D01*
X12958253Y-18403794D02*
X12967777Y-18422842D01*
X12967777Y-18422842D02*
X12967777Y-18527604D01*
X13358253Y-18318080D02*
X13186825Y-18575223D01*
X13615396Y-18327604D02*
X13634444Y-18327604D01*
X13634444Y-18327604D02*
X13653492Y-18337128D01*
X13653492Y-18337128D02*
X13663015Y-18346651D01*
X13663015Y-18346651D02*
X13672539Y-18365699D01*
X13672539Y-18365699D02*
X13682063Y-18403794D01*
X13682063Y-18403794D02*
X13682063Y-18451413D01*
X13682063Y-18451413D02*
X13672539Y-18489509D01*
X13672539Y-18489509D02*
X13663015Y-18508556D01*
X13663015Y-18508556D02*
X13653492Y-18518080D01*
X13653492Y-18518080D02*
X13634444Y-18527604D01*
X13634444Y-18527604D02*
X13615396Y-18527604D01*
X13615396Y-18527604D02*
X13596349Y-18518080D01*
X13596349Y-18518080D02*
X13586825Y-18508556D01*
X13586825Y-18508556D02*
X13577301Y-18489509D01*
X13577301Y-18489509D02*
X13567777Y-18451413D01*
X13567777Y-18451413D02*
X13567777Y-18403794D01*
X13567777Y-18403794D02*
X13577301Y-18365699D01*
X13577301Y-18365699D02*
X13586825Y-18346651D01*
X13586825Y-18346651D02*
X13596349Y-18337128D01*
X13596349Y-18337128D02*
X13615396Y-18327604D01*
X13767777Y-18508556D02*
X13777301Y-18518080D01*
X13777301Y-18518080D02*
X13767777Y-18527604D01*
X13767777Y-18527604D02*
X13758253Y-18518080D01*
X13758253Y-18518080D02*
X13767777Y-18508556D01*
X13767777Y-18508556D02*
X13767777Y-18527604D01*
X13901111Y-18327604D02*
X13920158Y-18327604D01*
X13920158Y-18327604D02*
X13939206Y-18337128D01*
X13939206Y-18337128D02*
X13948730Y-18346651D01*
X13948730Y-18346651D02*
X13958253Y-18365699D01*
X13958253Y-18365699D02*
X13967777Y-18403794D01*
X13967777Y-18403794D02*
X13967777Y-18451413D01*
X13967777Y-18451413D02*
X13958253Y-18489509D01*
X13958253Y-18489509D02*
X13948730Y-18508556D01*
X13948730Y-18508556D02*
X13939206Y-18518080D01*
X13939206Y-18518080D02*
X13920158Y-18527604D01*
X13920158Y-18527604D02*
X13901111Y-18527604D01*
X13901111Y-18527604D02*
X13882063Y-18518080D01*
X13882063Y-18518080D02*
X13872539Y-18508556D01*
X13872539Y-18508556D02*
X13863015Y-18489509D01*
X13863015Y-18489509D02*
X13853492Y-18451413D01*
X13853492Y-18451413D02*
X13853492Y-18403794D01*
X13853492Y-18403794D02*
X13863015Y-18365699D01*
X13863015Y-18365699D02*
X13872539Y-18346651D01*
X13872539Y-18346651D02*
X13882063Y-18337128D01*
X13882063Y-18337128D02*
X13901111Y-18327604D01*
X14158253Y-18527604D02*
X14043968Y-18527604D01*
X14101111Y-18527604D02*
X14101111Y-18327604D01*
X14101111Y-18327604D02*
X14082063Y-18356175D01*
X14082063Y-18356175D02*
X14063015Y-18375223D01*
X14063015Y-18375223D02*
X14043968Y-18384747D01*
X14329682Y-18327604D02*
X14291587Y-18327604D01*
X14291587Y-18327604D02*
X14272539Y-18337128D01*
X14272539Y-18337128D02*
X14263015Y-18346651D01*
X14263015Y-18346651D02*
X14243968Y-18375223D01*
X14243968Y-18375223D02*
X14234444Y-18413318D01*
X14234444Y-18413318D02*
X14234444Y-18489509D01*
X14234444Y-18489509D02*
X14243968Y-18508556D01*
X14243968Y-18508556D02*
X14253492Y-18518080D01*
X14253492Y-18518080D02*
X14272539Y-18527604D01*
X14272539Y-18527604D02*
X14310634Y-18527604D01*
X14310634Y-18527604D02*
X14329682Y-18518080D01*
X14329682Y-18518080D02*
X14339206Y-18508556D01*
X14339206Y-18508556D02*
X14348730Y-18489509D01*
X14348730Y-18489509D02*
X14348730Y-18441890D01*
X14348730Y-18441890D02*
X14339206Y-18422842D01*
X14339206Y-18422842D02*
X14329682Y-18413318D01*
X14329682Y-18413318D02*
X14310634Y-18403794D01*
X14310634Y-18403794D02*
X14272539Y-18403794D01*
X14272539Y-18403794D02*
X14253492Y-18413318D01*
X14253492Y-18413318D02*
X14243968Y-18422842D01*
X14243968Y-18422842D02*
X14234444Y-18441890D01*
X14472539Y-18327604D02*
X14491587Y-18327604D01*
X14491587Y-18327604D02*
X14510634Y-18337128D01*
X14510634Y-18337128D02*
X14520158Y-18346651D01*
X14520158Y-18346651D02*
X14529682Y-18365699D01*
X14529682Y-18365699D02*
X14539206Y-18403794D01*
X14539206Y-18403794D02*
X14539206Y-18451413D01*
X14539206Y-18451413D02*
X14529682Y-18489509D01*
X14529682Y-18489509D02*
X14520158Y-18508556D01*
X14520158Y-18508556D02*
X14510634Y-18518080D01*
X14510634Y-18518080D02*
X14491587Y-18527604D01*
X14491587Y-18527604D02*
X14472539Y-18527604D01*
X14472539Y-18527604D02*
X14453492Y-18518080D01*
X14453492Y-18518080D02*
X14443968Y-18508556D01*
X14443968Y-18508556D02*
X14434444Y-18489509D01*
X14434444Y-18489509D02*
X14424920Y-18451413D01*
X14424920Y-18451413D02*
X14424920Y-18403794D01*
X14424920Y-18403794D02*
X14434444Y-18365699D01*
X14434444Y-18365699D02*
X14443968Y-18346651D01*
X14443968Y-18346651D02*
X14453492Y-18337128D01*
X14453492Y-18337128D02*
X14472539Y-18327604D01*
X14615396Y-18327604D02*
X14615396Y-18365699D01*
X14691587Y-18327604D02*
X14691587Y-18365699D01*
X14986825Y-18603794D02*
X14977301Y-18594270D01*
X14977301Y-18594270D02*
X14958254Y-18565699D01*
X14958254Y-18565699D02*
X14948730Y-18546651D01*
X14948730Y-18546651D02*
X14939206Y-18518080D01*
X14939206Y-18518080D02*
X14929682Y-18470461D01*
X14929682Y-18470461D02*
X14929682Y-18432366D01*
X14929682Y-18432366D02*
X14939206Y-18384747D01*
X14939206Y-18384747D02*
X14948730Y-18356175D01*
X14948730Y-18356175D02*
X14958254Y-18337128D01*
X14958254Y-18337128D02*
X14977301Y-18308556D01*
X14977301Y-18308556D02*
X14986825Y-18299032D01*
X15148730Y-18394270D02*
X15148730Y-18527604D01*
X15101111Y-18318080D02*
X15053492Y-18460937D01*
X15053492Y-18460937D02*
X15177301Y-18460937D01*
X15405873Y-18527604D02*
X15405873Y-18327604D01*
X15491587Y-18527604D02*
X15491587Y-18422842D01*
X15491587Y-18422842D02*
X15482063Y-18403794D01*
X15482063Y-18403794D02*
X15463016Y-18394270D01*
X15463016Y-18394270D02*
X15434444Y-18394270D01*
X15434444Y-18394270D02*
X15415396Y-18403794D01*
X15415396Y-18403794D02*
X15405873Y-18413318D01*
X15615396Y-18527604D02*
X15596349Y-18518080D01*
X15596349Y-18518080D02*
X15586825Y-18508556D01*
X15586825Y-18508556D02*
X15577301Y-18489509D01*
X15577301Y-18489509D02*
X15577301Y-18432366D01*
X15577301Y-18432366D02*
X15586825Y-18413318D01*
X15586825Y-18413318D02*
X15596349Y-18403794D01*
X15596349Y-18403794D02*
X15615396Y-18394270D01*
X15615396Y-18394270D02*
X15643968Y-18394270D01*
X15643968Y-18394270D02*
X15663016Y-18403794D01*
X15663016Y-18403794D02*
X15672539Y-18413318D01*
X15672539Y-18413318D02*
X15682063Y-18432366D01*
X15682063Y-18432366D02*
X15682063Y-18489509D01*
X15682063Y-18489509D02*
X15672539Y-18508556D01*
X15672539Y-18508556D02*
X15663016Y-18518080D01*
X15663016Y-18518080D02*
X15643968Y-18527604D01*
X15643968Y-18527604D02*
X15615396Y-18527604D01*
X15796349Y-18527604D02*
X15777301Y-18518080D01*
X15777301Y-18518080D02*
X15767777Y-18499032D01*
X15767777Y-18499032D02*
X15767777Y-18327604D01*
X15948730Y-18518080D02*
X15929682Y-18527604D01*
X15929682Y-18527604D02*
X15891587Y-18527604D01*
X15891587Y-18527604D02*
X15872539Y-18518080D01*
X15872539Y-18518080D02*
X15863016Y-18499032D01*
X15863016Y-18499032D02*
X15863016Y-18422842D01*
X15863016Y-18422842D02*
X15872539Y-18403794D01*
X15872539Y-18403794D02*
X15891587Y-18394270D01*
X15891587Y-18394270D02*
X15929682Y-18394270D01*
X15929682Y-18394270D02*
X15948730Y-18403794D01*
X15948730Y-18403794D02*
X15958254Y-18422842D01*
X15958254Y-18422842D02*
X15958254Y-18441890D01*
X15958254Y-18441890D02*
X15863016Y-18460937D01*
X16034444Y-18518080D02*
X16053492Y-18527604D01*
X16053492Y-18527604D02*
X16091587Y-18527604D01*
X16091587Y-18527604D02*
X16110635Y-18518080D01*
X16110635Y-18518080D02*
X16120158Y-18499032D01*
X16120158Y-18499032D02*
X16120158Y-18489509D01*
X16120158Y-18489509D02*
X16110635Y-18470461D01*
X16110635Y-18470461D02*
X16091587Y-18460937D01*
X16091587Y-18460937D02*
X16063016Y-18460937D01*
X16063016Y-18460937D02*
X16043968Y-18451413D01*
X16043968Y-18451413D02*
X16034444Y-18432366D01*
X16034444Y-18432366D02*
X16034444Y-18422842D01*
X16034444Y-18422842D02*
X16043968Y-18403794D01*
X16043968Y-18403794D02*
X16063016Y-18394270D01*
X16063016Y-18394270D02*
X16091587Y-18394270D01*
X16091587Y-18394270D02*
X16110635Y-18403794D01*
X16186825Y-18603794D02*
X16196349Y-18594270D01*
X16196349Y-18594270D02*
X16215397Y-18565699D01*
X16215397Y-18565699D02*
X16224920Y-18546651D01*
X16224920Y-18546651D02*
X16234444Y-18518080D01*
X16234444Y-18518080D02*
X16243968Y-18470461D01*
X16243968Y-18470461D02*
X16243968Y-18432366D01*
X16243968Y-18432366D02*
X16234444Y-18384747D01*
X16234444Y-18384747D02*
X16224920Y-18356175D01*
X16224920Y-18356175D02*
X16215397Y-18337128D01*
X16215397Y-18337128D02*
X16196349Y-18308556D01*
X16196349Y-18308556D02*
X16186825Y-18299032D01*
D14*
X11399920Y-18674080D02*
X11399920Y-18724080D01*
X11374920Y-18699080D02*
X11424920Y-18699080D01*
D11*
X11710634Y-18591604D02*
X11729682Y-18591604D01*
X11729682Y-18591604D02*
X11748729Y-18601128D01*
X11748729Y-18601128D02*
X11758253Y-18610651D01*
X11758253Y-18610651D02*
X11767777Y-18629699D01*
X11767777Y-18629699D02*
X11777301Y-18667794D01*
X11777301Y-18667794D02*
X11777301Y-18715413D01*
X11777301Y-18715413D02*
X11767777Y-18753509D01*
X11767777Y-18753509D02*
X11758253Y-18772556D01*
X11758253Y-18772556D02*
X11748729Y-18782080D01*
X11748729Y-18782080D02*
X11729682Y-18791604D01*
X11729682Y-18791604D02*
X11710634Y-18791604D01*
X11710634Y-18791604D02*
X11691587Y-18782080D01*
X11691587Y-18782080D02*
X11682063Y-18772556D01*
X11682063Y-18772556D02*
X11672539Y-18753509D01*
X11672539Y-18753509D02*
X11663015Y-18715413D01*
X11663015Y-18715413D02*
X11663015Y-18667794D01*
X11663015Y-18667794D02*
X11672539Y-18629699D01*
X11672539Y-18629699D02*
X11682063Y-18610651D01*
X11682063Y-18610651D02*
X11691587Y-18601128D01*
X11691587Y-18601128D02*
X11710634Y-18591604D01*
X11863015Y-18772556D02*
X11872539Y-18782080D01*
X11872539Y-18782080D02*
X11863015Y-18791604D01*
X11863015Y-18791604D02*
X11853491Y-18782080D01*
X11853491Y-18782080D02*
X11863015Y-18772556D01*
X11863015Y-18772556D02*
X11863015Y-18791604D01*
X12053491Y-18591604D02*
X11958253Y-18591604D01*
X11958253Y-18591604D02*
X11948729Y-18686842D01*
X11948729Y-18686842D02*
X11958253Y-18677318D01*
X11958253Y-18677318D02*
X11977301Y-18667794D01*
X11977301Y-18667794D02*
X12024920Y-18667794D01*
X12024920Y-18667794D02*
X12043968Y-18677318D01*
X12043968Y-18677318D02*
X12053491Y-18686842D01*
X12053491Y-18686842D02*
X12063015Y-18705890D01*
X12063015Y-18705890D02*
X12063015Y-18753509D01*
X12063015Y-18753509D02*
X12053491Y-18772556D01*
X12053491Y-18772556D02*
X12043968Y-18782080D01*
X12043968Y-18782080D02*
X12024920Y-18791604D01*
X12024920Y-18791604D02*
X11977301Y-18791604D01*
X11977301Y-18791604D02*
X11958253Y-18782080D01*
X11958253Y-18782080D02*
X11948729Y-18772556D01*
X12186825Y-18591604D02*
X12205872Y-18591604D01*
X12205872Y-18591604D02*
X12224920Y-18601128D01*
X12224920Y-18601128D02*
X12234444Y-18610651D01*
X12234444Y-18610651D02*
X12243968Y-18629699D01*
X12243968Y-18629699D02*
X12253491Y-18667794D01*
X12253491Y-18667794D02*
X12253491Y-18715413D01*
X12253491Y-18715413D02*
X12243968Y-18753509D01*
X12243968Y-18753509D02*
X12234444Y-18772556D01*
X12234444Y-18772556D02*
X12224920Y-18782080D01*
X12224920Y-18782080D02*
X12205872Y-18791604D01*
X12205872Y-18791604D02*
X12186825Y-18791604D01*
X12186825Y-18791604D02*
X12167777Y-18782080D01*
X12167777Y-18782080D02*
X12158253Y-18772556D01*
X12158253Y-18772556D02*
X12148729Y-18753509D01*
X12148729Y-18753509D02*
X12139206Y-18715413D01*
X12139206Y-18715413D02*
X12139206Y-18667794D01*
X12139206Y-18667794D02*
X12148729Y-18629699D01*
X12148729Y-18629699D02*
X12158253Y-18610651D01*
X12158253Y-18610651D02*
X12167777Y-18601128D01*
X12167777Y-18601128D02*
X12186825Y-18591604D01*
X12377301Y-18591604D02*
X12396349Y-18591604D01*
X12396349Y-18591604D02*
X12415396Y-18601128D01*
X12415396Y-18601128D02*
X12424920Y-18610651D01*
X12424920Y-18610651D02*
X12434444Y-18629699D01*
X12434444Y-18629699D02*
X12443968Y-18667794D01*
X12443968Y-18667794D02*
X12443968Y-18715413D01*
X12443968Y-18715413D02*
X12434444Y-18753509D01*
X12434444Y-18753509D02*
X12424920Y-18772556D01*
X12424920Y-18772556D02*
X12415396Y-18782080D01*
X12415396Y-18782080D02*
X12396349Y-18791604D01*
X12396349Y-18791604D02*
X12377301Y-18791604D01*
X12377301Y-18791604D02*
X12358253Y-18782080D01*
X12358253Y-18782080D02*
X12348729Y-18772556D01*
X12348729Y-18772556D02*
X12339206Y-18753509D01*
X12339206Y-18753509D02*
X12329682Y-18715413D01*
X12329682Y-18715413D02*
X12329682Y-18667794D01*
X12329682Y-18667794D02*
X12339206Y-18629699D01*
X12339206Y-18629699D02*
X12348729Y-18610651D01*
X12348729Y-18610651D02*
X12358253Y-18601128D01*
X12358253Y-18601128D02*
X12377301Y-18591604D01*
X12529682Y-18791604D02*
X12529682Y-18658270D01*
X12529682Y-18677318D02*
X12539206Y-18667794D01*
X12539206Y-18667794D02*
X12558253Y-18658270D01*
X12558253Y-18658270D02*
X12586825Y-18658270D01*
X12586825Y-18658270D02*
X12605872Y-18667794D01*
X12605872Y-18667794D02*
X12615396Y-18686842D01*
X12615396Y-18686842D02*
X12615396Y-18791604D01*
X12615396Y-18686842D02*
X12624920Y-18667794D01*
X12624920Y-18667794D02*
X12643968Y-18658270D01*
X12643968Y-18658270D02*
X12672539Y-18658270D01*
X12672539Y-18658270D02*
X12691587Y-18667794D01*
X12691587Y-18667794D02*
X12701110Y-18686842D01*
X12701110Y-18686842D02*
X12701110Y-18791604D01*
X12796349Y-18791604D02*
X12796349Y-18658270D01*
X12796349Y-18677318D02*
X12805872Y-18667794D01*
X12805872Y-18667794D02*
X12824920Y-18658270D01*
X12824920Y-18658270D02*
X12853491Y-18658270D01*
X12853491Y-18658270D02*
X12872539Y-18667794D01*
X12872539Y-18667794D02*
X12882063Y-18686842D01*
X12882063Y-18686842D02*
X12882063Y-18791604D01*
X12882063Y-18686842D02*
X12891587Y-18667794D01*
X12891587Y-18667794D02*
X12910634Y-18658270D01*
X12910634Y-18658270D02*
X12939206Y-18658270D01*
X12939206Y-18658270D02*
X12958253Y-18667794D01*
X12958253Y-18667794D02*
X12967777Y-18686842D01*
X12967777Y-18686842D02*
X12967777Y-18791604D01*
X13358253Y-18582080D02*
X13186825Y-18839223D01*
X13615396Y-18591604D02*
X13634444Y-18591604D01*
X13634444Y-18591604D02*
X13653492Y-18601128D01*
X13653492Y-18601128D02*
X13663015Y-18610651D01*
X13663015Y-18610651D02*
X13672539Y-18629699D01*
X13672539Y-18629699D02*
X13682063Y-18667794D01*
X13682063Y-18667794D02*
X13682063Y-18715413D01*
X13682063Y-18715413D02*
X13672539Y-18753509D01*
X13672539Y-18753509D02*
X13663015Y-18772556D01*
X13663015Y-18772556D02*
X13653492Y-18782080D01*
X13653492Y-18782080D02*
X13634444Y-18791604D01*
X13634444Y-18791604D02*
X13615396Y-18791604D01*
X13615396Y-18791604D02*
X13596349Y-18782080D01*
X13596349Y-18782080D02*
X13586825Y-18772556D01*
X13586825Y-18772556D02*
X13577301Y-18753509D01*
X13577301Y-18753509D02*
X13567777Y-18715413D01*
X13567777Y-18715413D02*
X13567777Y-18667794D01*
X13567777Y-18667794D02*
X13577301Y-18629699D01*
X13577301Y-18629699D02*
X13586825Y-18610651D01*
X13586825Y-18610651D02*
X13596349Y-18601128D01*
X13596349Y-18601128D02*
X13615396Y-18591604D01*
X13767777Y-18772556D02*
X13777301Y-18782080D01*
X13777301Y-18782080D02*
X13767777Y-18791604D01*
X13767777Y-18791604D02*
X13758253Y-18782080D01*
X13758253Y-18782080D02*
X13767777Y-18772556D01*
X13767777Y-18772556D02*
X13767777Y-18791604D01*
X13901111Y-18591604D02*
X13920158Y-18591604D01*
X13920158Y-18591604D02*
X13939206Y-18601128D01*
X13939206Y-18601128D02*
X13948730Y-18610651D01*
X13948730Y-18610651D02*
X13958253Y-18629699D01*
X13958253Y-18629699D02*
X13967777Y-18667794D01*
X13967777Y-18667794D02*
X13967777Y-18715413D01*
X13967777Y-18715413D02*
X13958253Y-18753509D01*
X13958253Y-18753509D02*
X13948730Y-18772556D01*
X13948730Y-18772556D02*
X13939206Y-18782080D01*
X13939206Y-18782080D02*
X13920158Y-18791604D01*
X13920158Y-18791604D02*
X13901111Y-18791604D01*
X13901111Y-18791604D02*
X13882063Y-18782080D01*
X13882063Y-18782080D02*
X13872539Y-18772556D01*
X13872539Y-18772556D02*
X13863015Y-18753509D01*
X13863015Y-18753509D02*
X13853492Y-18715413D01*
X13853492Y-18715413D02*
X13853492Y-18667794D01*
X13853492Y-18667794D02*
X13863015Y-18629699D01*
X13863015Y-18629699D02*
X13872539Y-18610651D01*
X13872539Y-18610651D02*
X13882063Y-18601128D01*
X13882063Y-18601128D02*
X13901111Y-18591604D01*
X14158253Y-18791604D02*
X14043968Y-18791604D01*
X14101111Y-18791604D02*
X14101111Y-18591604D01*
X14101111Y-18591604D02*
X14082063Y-18620175D01*
X14082063Y-18620175D02*
X14063015Y-18639223D01*
X14063015Y-18639223D02*
X14043968Y-18648747D01*
X14253492Y-18791604D02*
X14291587Y-18791604D01*
X14291587Y-18791604D02*
X14310634Y-18782080D01*
X14310634Y-18782080D02*
X14320158Y-18772556D01*
X14320158Y-18772556D02*
X14339206Y-18743985D01*
X14339206Y-18743985D02*
X14348730Y-18705890D01*
X14348730Y-18705890D02*
X14348730Y-18629699D01*
X14348730Y-18629699D02*
X14339206Y-18610651D01*
X14339206Y-18610651D02*
X14329682Y-18601128D01*
X14329682Y-18601128D02*
X14310634Y-18591604D01*
X14310634Y-18591604D02*
X14272539Y-18591604D01*
X14272539Y-18591604D02*
X14253492Y-18601128D01*
X14253492Y-18601128D02*
X14243968Y-18610651D01*
X14243968Y-18610651D02*
X14234444Y-18629699D01*
X14234444Y-18629699D02*
X14234444Y-18677318D01*
X14234444Y-18677318D02*
X14243968Y-18696366D01*
X14243968Y-18696366D02*
X14253492Y-18705890D01*
X14253492Y-18705890D02*
X14272539Y-18715413D01*
X14272539Y-18715413D02*
X14310634Y-18715413D01*
X14310634Y-18715413D02*
X14329682Y-18705890D01*
X14329682Y-18705890D02*
X14339206Y-18696366D01*
X14339206Y-18696366D02*
X14348730Y-18677318D01*
X14415396Y-18591604D02*
X14548730Y-18591604D01*
X14548730Y-18591604D02*
X14463015Y-18791604D01*
X14615396Y-18591604D02*
X14615396Y-18629699D01*
X14691587Y-18591604D02*
X14691587Y-18629699D01*
X14986825Y-18867794D02*
X14977301Y-18858270D01*
X14977301Y-18858270D02*
X14958254Y-18829699D01*
X14958254Y-18829699D02*
X14948730Y-18810651D01*
X14948730Y-18810651D02*
X14939206Y-18782080D01*
X14939206Y-18782080D02*
X14929682Y-18734461D01*
X14929682Y-18734461D02*
X14929682Y-18696366D01*
X14929682Y-18696366D02*
X14939206Y-18648747D01*
X14939206Y-18648747D02*
X14948730Y-18620175D01*
X14948730Y-18620175D02*
X14958254Y-18601128D01*
X14958254Y-18601128D02*
X14977301Y-18572556D01*
X14977301Y-18572556D02*
X14986825Y-18563032D01*
X15043968Y-18591604D02*
X15167777Y-18591604D01*
X15167777Y-18591604D02*
X15101111Y-18667794D01*
X15101111Y-18667794D02*
X15129682Y-18667794D01*
X15129682Y-18667794D02*
X15148730Y-18677318D01*
X15148730Y-18677318D02*
X15158254Y-18686842D01*
X15158254Y-18686842D02*
X15167777Y-18705890D01*
X15167777Y-18705890D02*
X15167777Y-18753509D01*
X15167777Y-18753509D02*
X15158254Y-18772556D01*
X15158254Y-18772556D02*
X15148730Y-18782080D01*
X15148730Y-18782080D02*
X15129682Y-18791604D01*
X15129682Y-18791604D02*
X15072539Y-18791604D01*
X15072539Y-18791604D02*
X15053492Y-18782080D01*
X15053492Y-18782080D02*
X15043968Y-18772556D01*
X15243968Y-18610651D02*
X15253492Y-18601128D01*
X15253492Y-18601128D02*
X15272539Y-18591604D01*
X15272539Y-18591604D02*
X15320158Y-18591604D01*
X15320158Y-18591604D02*
X15339206Y-18601128D01*
X15339206Y-18601128D02*
X15348730Y-18610651D01*
X15348730Y-18610651D02*
X15358254Y-18629699D01*
X15358254Y-18629699D02*
X15358254Y-18648747D01*
X15358254Y-18648747D02*
X15348730Y-18677318D01*
X15348730Y-18677318D02*
X15234444Y-18791604D01*
X15234444Y-18791604D02*
X15358254Y-18791604D01*
X15596349Y-18791604D02*
X15596349Y-18591604D01*
X15682063Y-18791604D02*
X15682063Y-18686842D01*
X15682063Y-18686842D02*
X15672539Y-18667794D01*
X15672539Y-18667794D02*
X15653492Y-18658270D01*
X15653492Y-18658270D02*
X15624920Y-18658270D01*
X15624920Y-18658270D02*
X15605873Y-18667794D01*
X15605873Y-18667794D02*
X15596349Y-18677318D01*
X15805873Y-18791604D02*
X15786825Y-18782080D01*
X15786825Y-18782080D02*
X15777301Y-18772556D01*
X15777301Y-18772556D02*
X15767777Y-18753509D01*
X15767777Y-18753509D02*
X15767777Y-18696366D01*
X15767777Y-18696366D02*
X15777301Y-18677318D01*
X15777301Y-18677318D02*
X15786825Y-18667794D01*
X15786825Y-18667794D02*
X15805873Y-18658270D01*
X15805873Y-18658270D02*
X15834444Y-18658270D01*
X15834444Y-18658270D02*
X15853492Y-18667794D01*
X15853492Y-18667794D02*
X15863016Y-18677318D01*
X15863016Y-18677318D02*
X15872539Y-18696366D01*
X15872539Y-18696366D02*
X15872539Y-18753509D01*
X15872539Y-18753509D02*
X15863016Y-18772556D01*
X15863016Y-18772556D02*
X15853492Y-18782080D01*
X15853492Y-18782080D02*
X15834444Y-18791604D01*
X15834444Y-18791604D02*
X15805873Y-18791604D01*
X15986825Y-18791604D02*
X15967777Y-18782080D01*
X15967777Y-18782080D02*
X15958254Y-18763032D01*
X15958254Y-18763032D02*
X15958254Y-18591604D01*
X16139206Y-18782080D02*
X16120158Y-18791604D01*
X16120158Y-18791604D02*
X16082063Y-18791604D01*
X16082063Y-18791604D02*
X16063016Y-18782080D01*
X16063016Y-18782080D02*
X16053492Y-18763032D01*
X16053492Y-18763032D02*
X16053492Y-18686842D01*
X16053492Y-18686842D02*
X16063016Y-18667794D01*
X16063016Y-18667794D02*
X16082063Y-18658270D01*
X16082063Y-18658270D02*
X16120158Y-18658270D01*
X16120158Y-18658270D02*
X16139206Y-18667794D01*
X16139206Y-18667794D02*
X16148730Y-18686842D01*
X16148730Y-18686842D02*
X16148730Y-18705890D01*
X16148730Y-18705890D02*
X16053492Y-18724937D01*
X16224920Y-18782080D02*
X16243968Y-18791604D01*
X16243968Y-18791604D02*
X16282063Y-18791604D01*
X16282063Y-18791604D02*
X16301111Y-18782080D01*
X16301111Y-18782080D02*
X16310635Y-18763032D01*
X16310635Y-18763032D02*
X16310635Y-18753509D01*
X16310635Y-18753509D02*
X16301111Y-18734461D01*
X16301111Y-18734461D02*
X16282063Y-18724937D01*
X16282063Y-18724937D02*
X16253492Y-18724937D01*
X16253492Y-18724937D02*
X16234444Y-18715413D01*
X16234444Y-18715413D02*
X16224920Y-18696366D01*
X16224920Y-18696366D02*
X16224920Y-18686842D01*
X16224920Y-18686842D02*
X16234444Y-18667794D01*
X16234444Y-18667794D02*
X16253492Y-18658270D01*
X16253492Y-18658270D02*
X16282063Y-18658270D01*
X16282063Y-18658270D02*
X16301111Y-18667794D01*
X16377301Y-18867794D02*
X16386825Y-18858270D01*
X16386825Y-18858270D02*
X16405873Y-18829699D01*
X16405873Y-18829699D02*
X16415397Y-18810651D01*
X16415397Y-18810651D02*
X16424920Y-18782080D01*
X16424920Y-18782080D02*
X16434444Y-18734461D01*
X16434444Y-18734461D02*
X16434444Y-18696366D01*
X16434444Y-18696366D02*
X16424920Y-18648747D01*
X16424920Y-18648747D02*
X16415397Y-18620175D01*
X16415397Y-18620175D02*
X16405873Y-18601128D01*
X16405873Y-18601128D02*
X16386825Y-18572556D01*
X16386825Y-18572556D02*
X16377301Y-18563032D01*
D15*
X11413937Y-18989597D02*
X11413937Y-18936563D01*
X11360903Y-18936563D01*
X11360903Y-18989597D01*
X11413937Y-18989597D01*
D11*
X11710634Y-18855604D02*
X11729682Y-18855604D01*
X11729682Y-18855604D02*
X11748729Y-18865128D01*
X11748729Y-18865128D02*
X11758253Y-18874651D01*
X11758253Y-18874651D02*
X11767777Y-18893699D01*
X11767777Y-18893699D02*
X11777301Y-18931794D01*
X11777301Y-18931794D02*
X11777301Y-18979413D01*
X11777301Y-18979413D02*
X11767777Y-19017509D01*
X11767777Y-19017509D02*
X11758253Y-19036556D01*
X11758253Y-19036556D02*
X11748729Y-19046080D01*
X11748729Y-19046080D02*
X11729682Y-19055604D01*
X11729682Y-19055604D02*
X11710634Y-19055604D01*
X11710634Y-19055604D02*
X11691587Y-19046080D01*
X11691587Y-19046080D02*
X11682063Y-19036556D01*
X11682063Y-19036556D02*
X11672539Y-19017509D01*
X11672539Y-19017509D02*
X11663015Y-18979413D01*
X11663015Y-18979413D02*
X11663015Y-18931794D01*
X11663015Y-18931794D02*
X11672539Y-18893699D01*
X11672539Y-18893699D02*
X11682063Y-18874651D01*
X11682063Y-18874651D02*
X11691587Y-18865128D01*
X11691587Y-18865128D02*
X11710634Y-18855604D01*
X11863015Y-19036556D02*
X11872539Y-19046080D01*
X11872539Y-19046080D02*
X11863015Y-19055604D01*
X11863015Y-19055604D02*
X11853491Y-19046080D01*
X11853491Y-19046080D02*
X11863015Y-19036556D01*
X11863015Y-19036556D02*
X11863015Y-19055604D01*
X11939206Y-18855604D02*
X12072539Y-18855604D01*
X12072539Y-18855604D02*
X11986825Y-19055604D01*
X12243968Y-18855604D02*
X12148729Y-18855604D01*
X12148729Y-18855604D02*
X12139206Y-18950842D01*
X12139206Y-18950842D02*
X12148729Y-18941318D01*
X12148729Y-18941318D02*
X12167777Y-18931794D01*
X12167777Y-18931794D02*
X12215396Y-18931794D01*
X12215396Y-18931794D02*
X12234444Y-18941318D01*
X12234444Y-18941318D02*
X12243968Y-18950842D01*
X12243968Y-18950842D02*
X12253491Y-18969890D01*
X12253491Y-18969890D02*
X12253491Y-19017509D01*
X12253491Y-19017509D02*
X12243968Y-19036556D01*
X12243968Y-19036556D02*
X12234444Y-19046080D01*
X12234444Y-19046080D02*
X12215396Y-19055604D01*
X12215396Y-19055604D02*
X12167777Y-19055604D01*
X12167777Y-19055604D02*
X12148729Y-19046080D01*
X12148729Y-19046080D02*
X12139206Y-19036556D01*
X12377301Y-18855604D02*
X12396349Y-18855604D01*
X12396349Y-18855604D02*
X12415396Y-18865128D01*
X12415396Y-18865128D02*
X12424920Y-18874651D01*
X12424920Y-18874651D02*
X12434444Y-18893699D01*
X12434444Y-18893699D02*
X12443968Y-18931794D01*
X12443968Y-18931794D02*
X12443968Y-18979413D01*
X12443968Y-18979413D02*
X12434444Y-19017509D01*
X12434444Y-19017509D02*
X12424920Y-19036556D01*
X12424920Y-19036556D02*
X12415396Y-19046080D01*
X12415396Y-19046080D02*
X12396349Y-19055604D01*
X12396349Y-19055604D02*
X12377301Y-19055604D01*
X12377301Y-19055604D02*
X12358253Y-19046080D01*
X12358253Y-19046080D02*
X12348729Y-19036556D01*
X12348729Y-19036556D02*
X12339206Y-19017509D01*
X12339206Y-19017509D02*
X12329682Y-18979413D01*
X12329682Y-18979413D02*
X12329682Y-18931794D01*
X12329682Y-18931794D02*
X12339206Y-18893699D01*
X12339206Y-18893699D02*
X12348729Y-18874651D01*
X12348729Y-18874651D02*
X12358253Y-18865128D01*
X12358253Y-18865128D02*
X12377301Y-18855604D01*
X12529682Y-19055604D02*
X12529682Y-18922270D01*
X12529682Y-18941318D02*
X12539206Y-18931794D01*
X12539206Y-18931794D02*
X12558253Y-18922270D01*
X12558253Y-18922270D02*
X12586825Y-18922270D01*
X12586825Y-18922270D02*
X12605872Y-18931794D01*
X12605872Y-18931794D02*
X12615396Y-18950842D01*
X12615396Y-18950842D02*
X12615396Y-19055604D01*
X12615396Y-18950842D02*
X12624920Y-18931794D01*
X12624920Y-18931794D02*
X12643968Y-18922270D01*
X12643968Y-18922270D02*
X12672539Y-18922270D01*
X12672539Y-18922270D02*
X12691587Y-18931794D01*
X12691587Y-18931794D02*
X12701110Y-18950842D01*
X12701110Y-18950842D02*
X12701110Y-19055604D01*
X12796349Y-19055604D02*
X12796349Y-18922270D01*
X12796349Y-18941318D02*
X12805872Y-18931794D01*
X12805872Y-18931794D02*
X12824920Y-18922270D01*
X12824920Y-18922270D02*
X12853491Y-18922270D01*
X12853491Y-18922270D02*
X12872539Y-18931794D01*
X12872539Y-18931794D02*
X12882063Y-18950842D01*
X12882063Y-18950842D02*
X12882063Y-19055604D01*
X12882063Y-18950842D02*
X12891587Y-18931794D01*
X12891587Y-18931794D02*
X12910634Y-18922270D01*
X12910634Y-18922270D02*
X12939206Y-18922270D01*
X12939206Y-18922270D02*
X12958253Y-18931794D01*
X12958253Y-18931794D02*
X12967777Y-18950842D01*
X12967777Y-18950842D02*
X12967777Y-19055604D01*
X13358253Y-18846080D02*
X13186825Y-19103223D01*
X13615396Y-18855604D02*
X13634444Y-18855604D01*
X13634444Y-18855604D02*
X13653492Y-18865128D01*
X13653492Y-18865128D02*
X13663015Y-18874651D01*
X13663015Y-18874651D02*
X13672539Y-18893699D01*
X13672539Y-18893699D02*
X13682063Y-18931794D01*
X13682063Y-18931794D02*
X13682063Y-18979413D01*
X13682063Y-18979413D02*
X13672539Y-19017509D01*
X13672539Y-19017509D02*
X13663015Y-19036556D01*
X13663015Y-19036556D02*
X13653492Y-19046080D01*
X13653492Y-19046080D02*
X13634444Y-19055604D01*
X13634444Y-19055604D02*
X13615396Y-19055604D01*
X13615396Y-19055604D02*
X13596349Y-19046080D01*
X13596349Y-19046080D02*
X13586825Y-19036556D01*
X13586825Y-19036556D02*
X13577301Y-19017509D01*
X13577301Y-19017509D02*
X13567777Y-18979413D01*
X13567777Y-18979413D02*
X13567777Y-18931794D01*
X13567777Y-18931794D02*
X13577301Y-18893699D01*
X13577301Y-18893699D02*
X13586825Y-18874651D01*
X13586825Y-18874651D02*
X13596349Y-18865128D01*
X13596349Y-18865128D02*
X13615396Y-18855604D01*
X13767777Y-19036556D02*
X13777301Y-19046080D01*
X13777301Y-19046080D02*
X13767777Y-19055604D01*
X13767777Y-19055604D02*
X13758253Y-19046080D01*
X13758253Y-19046080D02*
X13767777Y-19036556D01*
X13767777Y-19036556D02*
X13767777Y-19055604D01*
X13901111Y-18855604D02*
X13920158Y-18855604D01*
X13920158Y-18855604D02*
X13939206Y-18865128D01*
X13939206Y-18865128D02*
X13948730Y-18874651D01*
X13948730Y-18874651D02*
X13958253Y-18893699D01*
X13958253Y-18893699D02*
X13967777Y-18931794D01*
X13967777Y-18931794D02*
X13967777Y-18979413D01*
X13967777Y-18979413D02*
X13958253Y-19017509D01*
X13958253Y-19017509D02*
X13948730Y-19036556D01*
X13948730Y-19036556D02*
X13939206Y-19046080D01*
X13939206Y-19046080D02*
X13920158Y-19055604D01*
X13920158Y-19055604D02*
X13901111Y-19055604D01*
X13901111Y-19055604D02*
X13882063Y-19046080D01*
X13882063Y-19046080D02*
X13872539Y-19036556D01*
X13872539Y-19036556D02*
X13863015Y-19017509D01*
X13863015Y-19017509D02*
X13853492Y-18979413D01*
X13853492Y-18979413D02*
X13853492Y-18931794D01*
X13853492Y-18931794D02*
X13863015Y-18893699D01*
X13863015Y-18893699D02*
X13872539Y-18874651D01*
X13872539Y-18874651D02*
X13882063Y-18865128D01*
X13882063Y-18865128D02*
X13901111Y-18855604D01*
X14043968Y-18874651D02*
X14053492Y-18865128D01*
X14053492Y-18865128D02*
X14072539Y-18855604D01*
X14072539Y-18855604D02*
X14120158Y-18855604D01*
X14120158Y-18855604D02*
X14139206Y-18865128D01*
X14139206Y-18865128D02*
X14148730Y-18874651D01*
X14148730Y-18874651D02*
X14158253Y-18893699D01*
X14158253Y-18893699D02*
X14158253Y-18912747D01*
X14158253Y-18912747D02*
X14148730Y-18941318D01*
X14148730Y-18941318D02*
X14034444Y-19055604D01*
X14034444Y-19055604D02*
X14158253Y-19055604D01*
X14253492Y-19055604D02*
X14291587Y-19055604D01*
X14291587Y-19055604D02*
X14310634Y-19046080D01*
X14310634Y-19046080D02*
X14320158Y-19036556D01*
X14320158Y-19036556D02*
X14339206Y-19007985D01*
X14339206Y-19007985D02*
X14348730Y-18969890D01*
X14348730Y-18969890D02*
X14348730Y-18893699D01*
X14348730Y-18893699D02*
X14339206Y-18874651D01*
X14339206Y-18874651D02*
X14329682Y-18865128D01*
X14329682Y-18865128D02*
X14310634Y-18855604D01*
X14310634Y-18855604D02*
X14272539Y-18855604D01*
X14272539Y-18855604D02*
X14253492Y-18865128D01*
X14253492Y-18865128D02*
X14243968Y-18874651D01*
X14243968Y-18874651D02*
X14234444Y-18893699D01*
X14234444Y-18893699D02*
X14234444Y-18941318D01*
X14234444Y-18941318D02*
X14243968Y-18960366D01*
X14243968Y-18960366D02*
X14253492Y-18969890D01*
X14253492Y-18969890D02*
X14272539Y-18979413D01*
X14272539Y-18979413D02*
X14310634Y-18979413D01*
X14310634Y-18979413D02*
X14329682Y-18969890D01*
X14329682Y-18969890D02*
X14339206Y-18960366D01*
X14339206Y-18960366D02*
X14348730Y-18941318D01*
X14529682Y-18855604D02*
X14434444Y-18855604D01*
X14434444Y-18855604D02*
X14424920Y-18950842D01*
X14424920Y-18950842D02*
X14434444Y-18941318D01*
X14434444Y-18941318D02*
X14453492Y-18931794D01*
X14453492Y-18931794D02*
X14501111Y-18931794D01*
X14501111Y-18931794D02*
X14520158Y-18941318D01*
X14520158Y-18941318D02*
X14529682Y-18950842D01*
X14529682Y-18950842D02*
X14539206Y-18969890D01*
X14539206Y-18969890D02*
X14539206Y-19017509D01*
X14539206Y-19017509D02*
X14529682Y-19036556D01*
X14529682Y-19036556D02*
X14520158Y-19046080D01*
X14520158Y-19046080D02*
X14501111Y-19055604D01*
X14501111Y-19055604D02*
X14453492Y-19055604D01*
X14453492Y-19055604D02*
X14434444Y-19046080D01*
X14434444Y-19046080D02*
X14424920Y-19036556D01*
X14615396Y-18855604D02*
X14615396Y-18893699D01*
X14691587Y-18855604D02*
X14691587Y-18893699D01*
X14986825Y-19131794D02*
X14977301Y-19122270D01*
X14977301Y-19122270D02*
X14958254Y-19093699D01*
X14958254Y-19093699D02*
X14948730Y-19074651D01*
X14948730Y-19074651D02*
X14939206Y-19046080D01*
X14939206Y-19046080D02*
X14929682Y-18998461D01*
X14929682Y-18998461D02*
X14929682Y-18960366D01*
X14929682Y-18960366D02*
X14939206Y-18912747D01*
X14939206Y-18912747D02*
X14948730Y-18884175D01*
X14948730Y-18884175D02*
X14958254Y-18865128D01*
X14958254Y-18865128D02*
X14977301Y-18836556D01*
X14977301Y-18836556D02*
X14986825Y-18827032D01*
X15053492Y-18874651D02*
X15063015Y-18865128D01*
X15063015Y-18865128D02*
X15082063Y-18855604D01*
X15082063Y-18855604D02*
X15129682Y-18855604D01*
X15129682Y-18855604D02*
X15148730Y-18865128D01*
X15148730Y-18865128D02*
X15158254Y-18874651D01*
X15158254Y-18874651D02*
X15167777Y-18893699D01*
X15167777Y-18893699D02*
X15167777Y-18912747D01*
X15167777Y-18912747D02*
X15158254Y-18941318D01*
X15158254Y-18941318D02*
X15043968Y-19055604D01*
X15043968Y-19055604D02*
X15167777Y-19055604D01*
X15234444Y-18855604D02*
X15367777Y-18855604D01*
X15367777Y-18855604D02*
X15282063Y-19055604D01*
X15596349Y-19055604D02*
X15596349Y-18855604D01*
X15682063Y-19055604D02*
X15682063Y-18950842D01*
X15682063Y-18950842D02*
X15672539Y-18931794D01*
X15672539Y-18931794D02*
X15653492Y-18922270D01*
X15653492Y-18922270D02*
X15624920Y-18922270D01*
X15624920Y-18922270D02*
X15605873Y-18931794D01*
X15605873Y-18931794D02*
X15596349Y-18941318D01*
X15805873Y-19055604D02*
X15786825Y-19046080D01*
X15786825Y-19046080D02*
X15777301Y-19036556D01*
X15777301Y-19036556D02*
X15767777Y-19017509D01*
X15767777Y-19017509D02*
X15767777Y-18960366D01*
X15767777Y-18960366D02*
X15777301Y-18941318D01*
X15777301Y-18941318D02*
X15786825Y-18931794D01*
X15786825Y-18931794D02*
X15805873Y-18922270D01*
X15805873Y-18922270D02*
X15834444Y-18922270D01*
X15834444Y-18922270D02*
X15853492Y-18931794D01*
X15853492Y-18931794D02*
X15863016Y-18941318D01*
X15863016Y-18941318D02*
X15872539Y-18960366D01*
X15872539Y-18960366D02*
X15872539Y-19017509D01*
X15872539Y-19017509D02*
X15863016Y-19036556D01*
X15863016Y-19036556D02*
X15853492Y-19046080D01*
X15853492Y-19046080D02*
X15834444Y-19055604D01*
X15834444Y-19055604D02*
X15805873Y-19055604D01*
X15986825Y-19055604D02*
X15967777Y-19046080D01*
X15967777Y-19046080D02*
X15958254Y-19027032D01*
X15958254Y-19027032D02*
X15958254Y-18855604D01*
X16139206Y-19046080D02*
X16120158Y-19055604D01*
X16120158Y-19055604D02*
X16082063Y-19055604D01*
X16082063Y-19055604D02*
X16063016Y-19046080D01*
X16063016Y-19046080D02*
X16053492Y-19027032D01*
X16053492Y-19027032D02*
X16053492Y-18950842D01*
X16053492Y-18950842D02*
X16063016Y-18931794D01*
X16063016Y-18931794D02*
X16082063Y-18922270D01*
X16082063Y-18922270D02*
X16120158Y-18922270D01*
X16120158Y-18922270D02*
X16139206Y-18931794D01*
X16139206Y-18931794D02*
X16148730Y-18950842D01*
X16148730Y-18950842D02*
X16148730Y-18969890D01*
X16148730Y-18969890D02*
X16053492Y-18988937D01*
X16224920Y-19046080D02*
X16243968Y-19055604D01*
X16243968Y-19055604D02*
X16282063Y-19055604D01*
X16282063Y-19055604D02*
X16301111Y-19046080D01*
X16301111Y-19046080D02*
X16310635Y-19027032D01*
X16310635Y-19027032D02*
X16310635Y-19017509D01*
X16310635Y-19017509D02*
X16301111Y-18998461D01*
X16301111Y-18998461D02*
X16282063Y-18988937D01*
X16282063Y-18988937D02*
X16253492Y-18988937D01*
X16253492Y-18988937D02*
X16234444Y-18979413D01*
X16234444Y-18979413D02*
X16224920Y-18960366D01*
X16224920Y-18960366D02*
X16224920Y-18950842D01*
X16224920Y-18950842D02*
X16234444Y-18931794D01*
X16234444Y-18931794D02*
X16253492Y-18922270D01*
X16253492Y-18922270D02*
X16282063Y-18922270D01*
X16282063Y-18922270D02*
X16301111Y-18931794D01*
X16377301Y-19131794D02*
X16386825Y-19122270D01*
X16386825Y-19122270D02*
X16405873Y-19093699D01*
X16405873Y-19093699D02*
X16415397Y-19074651D01*
X16415397Y-19074651D02*
X16424920Y-19046080D01*
X16424920Y-19046080D02*
X16434444Y-18998461D01*
X16434444Y-18998461D02*
X16434444Y-18960366D01*
X16434444Y-18960366D02*
X16424920Y-18912747D01*
X16424920Y-18912747D02*
X16415397Y-18884175D01*
X16415397Y-18884175D02*
X16405873Y-18865128D01*
X16405873Y-18865128D02*
X16386825Y-18836556D01*
X16386825Y-18836556D02*
X16377301Y-18827032D01*
D16*
X11374920Y-19277080D02*
X11424920Y-19227080D01*
X11374920Y-19177080D01*
X11324920Y-19227080D01*
X11374920Y-19277080D01*
D11*
X11777301Y-19319604D02*
X11663015Y-19319604D01*
X11720158Y-19319604D02*
X11720158Y-19119604D01*
X11720158Y-19119604D02*
X11701110Y-19148175D01*
X11701110Y-19148175D02*
X11682063Y-19167223D01*
X11682063Y-19167223D02*
X11663015Y-19176747D01*
X11863015Y-19300556D02*
X11872539Y-19310080D01*
X11872539Y-19310080D02*
X11863015Y-19319604D01*
X11863015Y-19319604D02*
X11853491Y-19310080D01*
X11853491Y-19310080D02*
X11863015Y-19300556D01*
X11863015Y-19300556D02*
X11863015Y-19319604D01*
X11996348Y-19119604D02*
X12015396Y-19119604D01*
X12015396Y-19119604D02*
X12034444Y-19129128D01*
X12034444Y-19129128D02*
X12043968Y-19138651D01*
X12043968Y-19138651D02*
X12053491Y-19157699D01*
X12053491Y-19157699D02*
X12063015Y-19195794D01*
X12063015Y-19195794D02*
X12063015Y-19243413D01*
X12063015Y-19243413D02*
X12053491Y-19281509D01*
X12053491Y-19281509D02*
X12043968Y-19300556D01*
X12043968Y-19300556D02*
X12034444Y-19310080D01*
X12034444Y-19310080D02*
X12015396Y-19319604D01*
X12015396Y-19319604D02*
X11996348Y-19319604D01*
X11996348Y-19319604D02*
X11977301Y-19310080D01*
X11977301Y-19310080D02*
X11967777Y-19300556D01*
X11967777Y-19300556D02*
X11958253Y-19281509D01*
X11958253Y-19281509D02*
X11948729Y-19243413D01*
X11948729Y-19243413D02*
X11948729Y-19195794D01*
X11948729Y-19195794D02*
X11958253Y-19157699D01*
X11958253Y-19157699D02*
X11967777Y-19138651D01*
X11967777Y-19138651D02*
X11977301Y-19129128D01*
X11977301Y-19129128D02*
X11996348Y-19119604D01*
X12186825Y-19119604D02*
X12205872Y-19119604D01*
X12205872Y-19119604D02*
X12224920Y-19129128D01*
X12224920Y-19129128D02*
X12234444Y-19138651D01*
X12234444Y-19138651D02*
X12243968Y-19157699D01*
X12243968Y-19157699D02*
X12253491Y-19195794D01*
X12253491Y-19195794D02*
X12253491Y-19243413D01*
X12253491Y-19243413D02*
X12243968Y-19281509D01*
X12243968Y-19281509D02*
X12234444Y-19300556D01*
X12234444Y-19300556D02*
X12224920Y-19310080D01*
X12224920Y-19310080D02*
X12205872Y-19319604D01*
X12205872Y-19319604D02*
X12186825Y-19319604D01*
X12186825Y-19319604D02*
X12167777Y-19310080D01*
X12167777Y-19310080D02*
X12158253Y-19300556D01*
X12158253Y-19300556D02*
X12148729Y-19281509D01*
X12148729Y-19281509D02*
X12139206Y-19243413D01*
X12139206Y-19243413D02*
X12139206Y-19195794D01*
X12139206Y-19195794D02*
X12148729Y-19157699D01*
X12148729Y-19157699D02*
X12158253Y-19138651D01*
X12158253Y-19138651D02*
X12167777Y-19129128D01*
X12167777Y-19129128D02*
X12186825Y-19119604D01*
X12377301Y-19119604D02*
X12396349Y-19119604D01*
X12396349Y-19119604D02*
X12415396Y-19129128D01*
X12415396Y-19129128D02*
X12424920Y-19138651D01*
X12424920Y-19138651D02*
X12434444Y-19157699D01*
X12434444Y-19157699D02*
X12443968Y-19195794D01*
X12443968Y-19195794D02*
X12443968Y-19243413D01*
X12443968Y-19243413D02*
X12434444Y-19281509D01*
X12434444Y-19281509D02*
X12424920Y-19300556D01*
X12424920Y-19300556D02*
X12415396Y-19310080D01*
X12415396Y-19310080D02*
X12396349Y-19319604D01*
X12396349Y-19319604D02*
X12377301Y-19319604D01*
X12377301Y-19319604D02*
X12358253Y-19310080D01*
X12358253Y-19310080D02*
X12348729Y-19300556D01*
X12348729Y-19300556D02*
X12339206Y-19281509D01*
X12339206Y-19281509D02*
X12329682Y-19243413D01*
X12329682Y-19243413D02*
X12329682Y-19195794D01*
X12329682Y-19195794D02*
X12339206Y-19157699D01*
X12339206Y-19157699D02*
X12348729Y-19138651D01*
X12348729Y-19138651D02*
X12358253Y-19129128D01*
X12358253Y-19129128D02*
X12377301Y-19119604D01*
X12529682Y-19319604D02*
X12529682Y-19186270D01*
X12529682Y-19205318D02*
X12539206Y-19195794D01*
X12539206Y-19195794D02*
X12558253Y-19186270D01*
X12558253Y-19186270D02*
X12586825Y-19186270D01*
X12586825Y-19186270D02*
X12605872Y-19195794D01*
X12605872Y-19195794D02*
X12615396Y-19214842D01*
X12615396Y-19214842D02*
X12615396Y-19319604D01*
X12615396Y-19214842D02*
X12624920Y-19195794D01*
X12624920Y-19195794D02*
X12643968Y-19186270D01*
X12643968Y-19186270D02*
X12672539Y-19186270D01*
X12672539Y-19186270D02*
X12691587Y-19195794D01*
X12691587Y-19195794D02*
X12701110Y-19214842D01*
X12701110Y-19214842D02*
X12701110Y-19319604D01*
X12796349Y-19319604D02*
X12796349Y-19186270D01*
X12796349Y-19205318D02*
X12805872Y-19195794D01*
X12805872Y-19195794D02*
X12824920Y-19186270D01*
X12824920Y-19186270D02*
X12853491Y-19186270D01*
X12853491Y-19186270D02*
X12872539Y-19195794D01*
X12872539Y-19195794D02*
X12882063Y-19214842D01*
X12882063Y-19214842D02*
X12882063Y-19319604D01*
X12882063Y-19214842D02*
X12891587Y-19195794D01*
X12891587Y-19195794D02*
X12910634Y-19186270D01*
X12910634Y-19186270D02*
X12939206Y-19186270D01*
X12939206Y-19186270D02*
X12958253Y-19195794D01*
X12958253Y-19195794D02*
X12967777Y-19214842D01*
X12967777Y-19214842D02*
X12967777Y-19319604D01*
X13358253Y-19110080D02*
X13186825Y-19367223D01*
X13615396Y-19119604D02*
X13634444Y-19119604D01*
X13634444Y-19119604D02*
X13653492Y-19129128D01*
X13653492Y-19129128D02*
X13663015Y-19138651D01*
X13663015Y-19138651D02*
X13672539Y-19157699D01*
X13672539Y-19157699D02*
X13682063Y-19195794D01*
X13682063Y-19195794D02*
X13682063Y-19243413D01*
X13682063Y-19243413D02*
X13672539Y-19281509D01*
X13672539Y-19281509D02*
X13663015Y-19300556D01*
X13663015Y-19300556D02*
X13653492Y-19310080D01*
X13653492Y-19310080D02*
X13634444Y-19319604D01*
X13634444Y-19319604D02*
X13615396Y-19319604D01*
X13615396Y-19319604D02*
X13596349Y-19310080D01*
X13596349Y-19310080D02*
X13586825Y-19300556D01*
X13586825Y-19300556D02*
X13577301Y-19281509D01*
X13577301Y-19281509D02*
X13567777Y-19243413D01*
X13567777Y-19243413D02*
X13567777Y-19195794D01*
X13567777Y-19195794D02*
X13577301Y-19157699D01*
X13577301Y-19157699D02*
X13586825Y-19138651D01*
X13586825Y-19138651D02*
X13596349Y-19129128D01*
X13596349Y-19129128D02*
X13615396Y-19119604D01*
X13767777Y-19300556D02*
X13777301Y-19310080D01*
X13777301Y-19310080D02*
X13767777Y-19319604D01*
X13767777Y-19319604D02*
X13758253Y-19310080D01*
X13758253Y-19310080D02*
X13767777Y-19300556D01*
X13767777Y-19300556D02*
X13767777Y-19319604D01*
X13901111Y-19119604D02*
X13920158Y-19119604D01*
X13920158Y-19119604D02*
X13939206Y-19129128D01*
X13939206Y-19129128D02*
X13948730Y-19138651D01*
X13948730Y-19138651D02*
X13958253Y-19157699D01*
X13958253Y-19157699D02*
X13967777Y-19195794D01*
X13967777Y-19195794D02*
X13967777Y-19243413D01*
X13967777Y-19243413D02*
X13958253Y-19281509D01*
X13958253Y-19281509D02*
X13948730Y-19300556D01*
X13948730Y-19300556D02*
X13939206Y-19310080D01*
X13939206Y-19310080D02*
X13920158Y-19319604D01*
X13920158Y-19319604D02*
X13901111Y-19319604D01*
X13901111Y-19319604D02*
X13882063Y-19310080D01*
X13882063Y-19310080D02*
X13872539Y-19300556D01*
X13872539Y-19300556D02*
X13863015Y-19281509D01*
X13863015Y-19281509D02*
X13853492Y-19243413D01*
X13853492Y-19243413D02*
X13853492Y-19195794D01*
X13853492Y-19195794D02*
X13863015Y-19157699D01*
X13863015Y-19157699D02*
X13872539Y-19138651D01*
X13872539Y-19138651D02*
X13882063Y-19129128D01*
X13882063Y-19129128D02*
X13901111Y-19119604D01*
X14034444Y-19119604D02*
X14158253Y-19119604D01*
X14158253Y-19119604D02*
X14091587Y-19195794D01*
X14091587Y-19195794D02*
X14120158Y-19195794D01*
X14120158Y-19195794D02*
X14139206Y-19205318D01*
X14139206Y-19205318D02*
X14148730Y-19214842D01*
X14148730Y-19214842D02*
X14158253Y-19233890D01*
X14158253Y-19233890D02*
X14158253Y-19281509D01*
X14158253Y-19281509D02*
X14148730Y-19300556D01*
X14148730Y-19300556D02*
X14139206Y-19310080D01*
X14139206Y-19310080D02*
X14120158Y-19319604D01*
X14120158Y-19319604D02*
X14063015Y-19319604D01*
X14063015Y-19319604D02*
X14043968Y-19310080D01*
X14043968Y-19310080D02*
X14034444Y-19300556D01*
X14253492Y-19319604D02*
X14291587Y-19319604D01*
X14291587Y-19319604D02*
X14310634Y-19310080D01*
X14310634Y-19310080D02*
X14320158Y-19300556D01*
X14320158Y-19300556D02*
X14339206Y-19271985D01*
X14339206Y-19271985D02*
X14348730Y-19233890D01*
X14348730Y-19233890D02*
X14348730Y-19157699D01*
X14348730Y-19157699D02*
X14339206Y-19138651D01*
X14339206Y-19138651D02*
X14329682Y-19129128D01*
X14329682Y-19129128D02*
X14310634Y-19119604D01*
X14310634Y-19119604D02*
X14272539Y-19119604D01*
X14272539Y-19119604D02*
X14253492Y-19129128D01*
X14253492Y-19129128D02*
X14243968Y-19138651D01*
X14243968Y-19138651D02*
X14234444Y-19157699D01*
X14234444Y-19157699D02*
X14234444Y-19205318D01*
X14234444Y-19205318D02*
X14243968Y-19224366D01*
X14243968Y-19224366D02*
X14253492Y-19233890D01*
X14253492Y-19233890D02*
X14272539Y-19243413D01*
X14272539Y-19243413D02*
X14310634Y-19243413D01*
X14310634Y-19243413D02*
X14329682Y-19233890D01*
X14329682Y-19233890D02*
X14339206Y-19224366D01*
X14339206Y-19224366D02*
X14348730Y-19205318D01*
X14520158Y-19186270D02*
X14520158Y-19319604D01*
X14472539Y-19110080D02*
X14424920Y-19252937D01*
X14424920Y-19252937D02*
X14548730Y-19252937D01*
X14615396Y-19119604D02*
X14615396Y-19157699D01*
X14691587Y-19119604D02*
X14691587Y-19157699D01*
X14986825Y-19395794D02*
X14977301Y-19386270D01*
X14977301Y-19386270D02*
X14958254Y-19357699D01*
X14958254Y-19357699D02*
X14948730Y-19338651D01*
X14948730Y-19338651D02*
X14939206Y-19310080D01*
X14939206Y-19310080D02*
X14929682Y-19262461D01*
X14929682Y-19262461D02*
X14929682Y-19224366D01*
X14929682Y-19224366D02*
X14939206Y-19176747D01*
X14939206Y-19176747D02*
X14948730Y-19148175D01*
X14948730Y-19148175D02*
X14958254Y-19129128D01*
X14958254Y-19129128D02*
X14977301Y-19100556D01*
X14977301Y-19100556D02*
X14986825Y-19091032D01*
X15148730Y-19186270D02*
X15148730Y-19319604D01*
X15101111Y-19110080D02*
X15053492Y-19252937D01*
X15053492Y-19252937D02*
X15177301Y-19252937D01*
X15348730Y-19119604D02*
X15253492Y-19119604D01*
X15253492Y-19119604D02*
X15243968Y-19214842D01*
X15243968Y-19214842D02*
X15253492Y-19205318D01*
X15253492Y-19205318D02*
X15272539Y-19195794D01*
X15272539Y-19195794D02*
X15320158Y-19195794D01*
X15320158Y-19195794D02*
X15339206Y-19205318D01*
X15339206Y-19205318D02*
X15348730Y-19214842D01*
X15348730Y-19214842D02*
X15358254Y-19233890D01*
X15358254Y-19233890D02*
X15358254Y-19281509D01*
X15358254Y-19281509D02*
X15348730Y-19300556D01*
X15348730Y-19300556D02*
X15339206Y-19310080D01*
X15339206Y-19310080D02*
X15320158Y-19319604D01*
X15320158Y-19319604D02*
X15272539Y-19319604D01*
X15272539Y-19319604D02*
X15253492Y-19310080D01*
X15253492Y-19310080D02*
X15243968Y-19300556D01*
X15596349Y-19319604D02*
X15596349Y-19119604D01*
X15682063Y-19319604D02*
X15682063Y-19214842D01*
X15682063Y-19214842D02*
X15672539Y-19195794D01*
X15672539Y-19195794D02*
X15653492Y-19186270D01*
X15653492Y-19186270D02*
X15624920Y-19186270D01*
X15624920Y-19186270D02*
X15605873Y-19195794D01*
X15605873Y-19195794D02*
X15596349Y-19205318D01*
X15805873Y-19319604D02*
X15786825Y-19310080D01*
X15786825Y-19310080D02*
X15777301Y-19300556D01*
X15777301Y-19300556D02*
X15767777Y-19281509D01*
X15767777Y-19281509D02*
X15767777Y-19224366D01*
X15767777Y-19224366D02*
X15777301Y-19205318D01*
X15777301Y-19205318D02*
X15786825Y-19195794D01*
X15786825Y-19195794D02*
X15805873Y-19186270D01*
X15805873Y-19186270D02*
X15834444Y-19186270D01*
X15834444Y-19186270D02*
X15853492Y-19195794D01*
X15853492Y-19195794D02*
X15863016Y-19205318D01*
X15863016Y-19205318D02*
X15872539Y-19224366D01*
X15872539Y-19224366D02*
X15872539Y-19281509D01*
X15872539Y-19281509D02*
X15863016Y-19300556D01*
X15863016Y-19300556D02*
X15853492Y-19310080D01*
X15853492Y-19310080D02*
X15834444Y-19319604D01*
X15834444Y-19319604D02*
X15805873Y-19319604D01*
X15986825Y-19319604D02*
X15967777Y-19310080D01*
X15967777Y-19310080D02*
X15958254Y-19291032D01*
X15958254Y-19291032D02*
X15958254Y-19119604D01*
X16139206Y-19310080D02*
X16120158Y-19319604D01*
X16120158Y-19319604D02*
X16082063Y-19319604D01*
X16082063Y-19319604D02*
X16063016Y-19310080D01*
X16063016Y-19310080D02*
X16053492Y-19291032D01*
X16053492Y-19291032D02*
X16053492Y-19214842D01*
X16053492Y-19214842D02*
X16063016Y-19195794D01*
X16063016Y-19195794D02*
X16082063Y-19186270D01*
X16082063Y-19186270D02*
X16120158Y-19186270D01*
X16120158Y-19186270D02*
X16139206Y-19195794D01*
X16139206Y-19195794D02*
X16148730Y-19214842D01*
X16148730Y-19214842D02*
X16148730Y-19233890D01*
X16148730Y-19233890D02*
X16053492Y-19252937D01*
X16224920Y-19310080D02*
X16243968Y-19319604D01*
X16243968Y-19319604D02*
X16282063Y-19319604D01*
X16282063Y-19319604D02*
X16301111Y-19310080D01*
X16301111Y-19310080D02*
X16310635Y-19291032D01*
X16310635Y-19291032D02*
X16310635Y-19281509D01*
X16310635Y-19281509D02*
X16301111Y-19262461D01*
X16301111Y-19262461D02*
X16282063Y-19252937D01*
X16282063Y-19252937D02*
X16253492Y-19252937D01*
X16253492Y-19252937D02*
X16234444Y-19243413D01*
X16234444Y-19243413D02*
X16224920Y-19224366D01*
X16224920Y-19224366D02*
X16224920Y-19214842D01*
X16224920Y-19214842D02*
X16234444Y-19195794D01*
X16234444Y-19195794D02*
X16253492Y-19186270D01*
X16253492Y-19186270D02*
X16282063Y-19186270D01*
X16282063Y-19186270D02*
X16301111Y-19195794D01*
X16377301Y-19395794D02*
X16386825Y-19386270D01*
X16386825Y-19386270D02*
X16405873Y-19357699D01*
X16405873Y-19357699D02*
X16415397Y-19338651D01*
X16415397Y-19338651D02*
X16424920Y-19310080D01*
X16424920Y-19310080D02*
X16434444Y-19262461D01*
X16434444Y-19262461D02*
X16434444Y-19224366D01*
X16434444Y-19224366D02*
X16424920Y-19176747D01*
X16424920Y-19176747D02*
X16415397Y-19148175D01*
X16415397Y-19148175D02*
X16405873Y-19129128D01*
X16405873Y-19129128D02*
X16386825Y-19100556D01*
X16386825Y-19100556D02*
X16377301Y-19091032D01*
D17*
X11322920Y-19440080D02*
X11424920Y-19542080D01*
X11424920Y-19440080D02*
X11322920Y-19542080D01*
X11424920Y-19491080D02*
G75*
G03*
X11424920Y-19491080I-51000J0D01*
G01*
D11*
X11777301Y-19583604D02*
X11663015Y-19583604D01*
X11720158Y-19583604D02*
X11720158Y-19383604D01*
X11720158Y-19383604D02*
X11701110Y-19412175D01*
X11701110Y-19412175D02*
X11682063Y-19431223D01*
X11682063Y-19431223D02*
X11663015Y-19440747D01*
X11863015Y-19564556D02*
X11872539Y-19574080D01*
X11872539Y-19574080D02*
X11863015Y-19583604D01*
X11863015Y-19583604D02*
X11853491Y-19574080D01*
X11853491Y-19574080D02*
X11863015Y-19564556D01*
X11863015Y-19564556D02*
X11863015Y-19583604D01*
X11996348Y-19383604D02*
X12015396Y-19383604D01*
X12015396Y-19383604D02*
X12034444Y-19393128D01*
X12034444Y-19393128D02*
X12043968Y-19402651D01*
X12043968Y-19402651D02*
X12053491Y-19421699D01*
X12053491Y-19421699D02*
X12063015Y-19459794D01*
X12063015Y-19459794D02*
X12063015Y-19507413D01*
X12063015Y-19507413D02*
X12053491Y-19545509D01*
X12053491Y-19545509D02*
X12043968Y-19564556D01*
X12043968Y-19564556D02*
X12034444Y-19574080D01*
X12034444Y-19574080D02*
X12015396Y-19583604D01*
X12015396Y-19583604D02*
X11996348Y-19583604D01*
X11996348Y-19583604D02*
X11977301Y-19574080D01*
X11977301Y-19574080D02*
X11967777Y-19564556D01*
X11967777Y-19564556D02*
X11958253Y-19545509D01*
X11958253Y-19545509D02*
X11948729Y-19507413D01*
X11948729Y-19507413D02*
X11948729Y-19459794D01*
X11948729Y-19459794D02*
X11958253Y-19421699D01*
X11958253Y-19421699D02*
X11967777Y-19402651D01*
X11967777Y-19402651D02*
X11977301Y-19393128D01*
X11977301Y-19393128D02*
X11996348Y-19383604D01*
X12139206Y-19402651D02*
X12148729Y-19393128D01*
X12148729Y-19393128D02*
X12167777Y-19383604D01*
X12167777Y-19383604D02*
X12215396Y-19383604D01*
X12215396Y-19383604D02*
X12234444Y-19393128D01*
X12234444Y-19393128D02*
X12243968Y-19402651D01*
X12243968Y-19402651D02*
X12253491Y-19421699D01*
X12253491Y-19421699D02*
X12253491Y-19440747D01*
X12253491Y-19440747D02*
X12243968Y-19469318D01*
X12243968Y-19469318D02*
X12129682Y-19583604D01*
X12129682Y-19583604D02*
X12253491Y-19583604D01*
X12377301Y-19383604D02*
X12396349Y-19383604D01*
X12396349Y-19383604D02*
X12415396Y-19393128D01*
X12415396Y-19393128D02*
X12424920Y-19402651D01*
X12424920Y-19402651D02*
X12434444Y-19421699D01*
X12434444Y-19421699D02*
X12443968Y-19459794D01*
X12443968Y-19459794D02*
X12443968Y-19507413D01*
X12443968Y-19507413D02*
X12434444Y-19545509D01*
X12434444Y-19545509D02*
X12424920Y-19564556D01*
X12424920Y-19564556D02*
X12415396Y-19574080D01*
X12415396Y-19574080D02*
X12396349Y-19583604D01*
X12396349Y-19583604D02*
X12377301Y-19583604D01*
X12377301Y-19583604D02*
X12358253Y-19574080D01*
X12358253Y-19574080D02*
X12348729Y-19564556D01*
X12348729Y-19564556D02*
X12339206Y-19545509D01*
X12339206Y-19545509D02*
X12329682Y-19507413D01*
X12329682Y-19507413D02*
X12329682Y-19459794D01*
X12329682Y-19459794D02*
X12339206Y-19421699D01*
X12339206Y-19421699D02*
X12348729Y-19402651D01*
X12348729Y-19402651D02*
X12358253Y-19393128D01*
X12358253Y-19393128D02*
X12377301Y-19383604D01*
X12529682Y-19583604D02*
X12529682Y-19450270D01*
X12529682Y-19469318D02*
X12539206Y-19459794D01*
X12539206Y-19459794D02*
X12558253Y-19450270D01*
X12558253Y-19450270D02*
X12586825Y-19450270D01*
X12586825Y-19450270D02*
X12605872Y-19459794D01*
X12605872Y-19459794D02*
X12615396Y-19478842D01*
X12615396Y-19478842D02*
X12615396Y-19583604D01*
X12615396Y-19478842D02*
X12624920Y-19459794D01*
X12624920Y-19459794D02*
X12643968Y-19450270D01*
X12643968Y-19450270D02*
X12672539Y-19450270D01*
X12672539Y-19450270D02*
X12691587Y-19459794D01*
X12691587Y-19459794D02*
X12701110Y-19478842D01*
X12701110Y-19478842D02*
X12701110Y-19583604D01*
X12796349Y-19583604D02*
X12796349Y-19450270D01*
X12796349Y-19469318D02*
X12805872Y-19459794D01*
X12805872Y-19459794D02*
X12824920Y-19450270D01*
X12824920Y-19450270D02*
X12853491Y-19450270D01*
X12853491Y-19450270D02*
X12872539Y-19459794D01*
X12872539Y-19459794D02*
X12882063Y-19478842D01*
X12882063Y-19478842D02*
X12882063Y-19583604D01*
X12882063Y-19478842D02*
X12891587Y-19459794D01*
X12891587Y-19459794D02*
X12910634Y-19450270D01*
X12910634Y-19450270D02*
X12939206Y-19450270D01*
X12939206Y-19450270D02*
X12958253Y-19459794D01*
X12958253Y-19459794D02*
X12967777Y-19478842D01*
X12967777Y-19478842D02*
X12967777Y-19583604D01*
X13358253Y-19374080D02*
X13186825Y-19631223D01*
X13615396Y-19383604D02*
X13634444Y-19383604D01*
X13634444Y-19383604D02*
X13653492Y-19393128D01*
X13653492Y-19393128D02*
X13663015Y-19402651D01*
X13663015Y-19402651D02*
X13672539Y-19421699D01*
X13672539Y-19421699D02*
X13682063Y-19459794D01*
X13682063Y-19459794D02*
X13682063Y-19507413D01*
X13682063Y-19507413D02*
X13672539Y-19545509D01*
X13672539Y-19545509D02*
X13663015Y-19564556D01*
X13663015Y-19564556D02*
X13653492Y-19574080D01*
X13653492Y-19574080D02*
X13634444Y-19583604D01*
X13634444Y-19583604D02*
X13615396Y-19583604D01*
X13615396Y-19583604D02*
X13596349Y-19574080D01*
X13596349Y-19574080D02*
X13586825Y-19564556D01*
X13586825Y-19564556D02*
X13577301Y-19545509D01*
X13577301Y-19545509D02*
X13567777Y-19507413D01*
X13567777Y-19507413D02*
X13567777Y-19459794D01*
X13567777Y-19459794D02*
X13577301Y-19421699D01*
X13577301Y-19421699D02*
X13586825Y-19402651D01*
X13586825Y-19402651D02*
X13596349Y-19393128D01*
X13596349Y-19393128D02*
X13615396Y-19383604D01*
X13767777Y-19564556D02*
X13777301Y-19574080D01*
X13777301Y-19574080D02*
X13767777Y-19583604D01*
X13767777Y-19583604D02*
X13758253Y-19574080D01*
X13758253Y-19574080D02*
X13767777Y-19564556D01*
X13767777Y-19564556D02*
X13767777Y-19583604D01*
X13901111Y-19383604D02*
X13920158Y-19383604D01*
X13920158Y-19383604D02*
X13939206Y-19393128D01*
X13939206Y-19393128D02*
X13948730Y-19402651D01*
X13948730Y-19402651D02*
X13958253Y-19421699D01*
X13958253Y-19421699D02*
X13967777Y-19459794D01*
X13967777Y-19459794D02*
X13967777Y-19507413D01*
X13967777Y-19507413D02*
X13958253Y-19545509D01*
X13958253Y-19545509D02*
X13948730Y-19564556D01*
X13948730Y-19564556D02*
X13939206Y-19574080D01*
X13939206Y-19574080D02*
X13920158Y-19583604D01*
X13920158Y-19583604D02*
X13901111Y-19583604D01*
X13901111Y-19583604D02*
X13882063Y-19574080D01*
X13882063Y-19574080D02*
X13872539Y-19564556D01*
X13872539Y-19564556D02*
X13863015Y-19545509D01*
X13863015Y-19545509D02*
X13853492Y-19507413D01*
X13853492Y-19507413D02*
X13853492Y-19459794D01*
X13853492Y-19459794D02*
X13863015Y-19421699D01*
X13863015Y-19421699D02*
X13872539Y-19402651D01*
X13872539Y-19402651D02*
X13882063Y-19393128D01*
X13882063Y-19393128D02*
X13901111Y-19383604D01*
X14139206Y-19450270D02*
X14139206Y-19583604D01*
X14091587Y-19374080D02*
X14043968Y-19516937D01*
X14043968Y-19516937D02*
X14167777Y-19516937D01*
X14282063Y-19383604D02*
X14301111Y-19383604D01*
X14301111Y-19383604D02*
X14320158Y-19393128D01*
X14320158Y-19393128D02*
X14329682Y-19402651D01*
X14329682Y-19402651D02*
X14339206Y-19421699D01*
X14339206Y-19421699D02*
X14348730Y-19459794D01*
X14348730Y-19459794D02*
X14348730Y-19507413D01*
X14348730Y-19507413D02*
X14339206Y-19545509D01*
X14339206Y-19545509D02*
X14329682Y-19564556D01*
X14329682Y-19564556D02*
X14320158Y-19574080D01*
X14320158Y-19574080D02*
X14301111Y-19583604D01*
X14301111Y-19583604D02*
X14282063Y-19583604D01*
X14282063Y-19583604D02*
X14263015Y-19574080D01*
X14263015Y-19574080D02*
X14253492Y-19564556D01*
X14253492Y-19564556D02*
X14243968Y-19545509D01*
X14243968Y-19545509D02*
X14234444Y-19507413D01*
X14234444Y-19507413D02*
X14234444Y-19459794D01*
X14234444Y-19459794D02*
X14243968Y-19421699D01*
X14243968Y-19421699D02*
X14253492Y-19402651D01*
X14253492Y-19402651D02*
X14263015Y-19393128D01*
X14263015Y-19393128D02*
X14282063Y-19383604D01*
X14424920Y-19402651D02*
X14434444Y-19393128D01*
X14434444Y-19393128D02*
X14453492Y-19383604D01*
X14453492Y-19383604D02*
X14501111Y-19383604D01*
X14501111Y-19383604D02*
X14520158Y-19393128D01*
X14520158Y-19393128D02*
X14529682Y-19402651D01*
X14529682Y-19402651D02*
X14539206Y-19421699D01*
X14539206Y-19421699D02*
X14539206Y-19440747D01*
X14539206Y-19440747D02*
X14529682Y-19469318D01*
X14529682Y-19469318D02*
X14415396Y-19583604D01*
X14415396Y-19583604D02*
X14539206Y-19583604D01*
X14615396Y-19383604D02*
X14615396Y-19421699D01*
X14691587Y-19383604D02*
X14691587Y-19421699D01*
X14986825Y-19659794D02*
X14977301Y-19650270D01*
X14977301Y-19650270D02*
X14958254Y-19621699D01*
X14958254Y-19621699D02*
X14948730Y-19602651D01*
X14948730Y-19602651D02*
X14939206Y-19574080D01*
X14939206Y-19574080D02*
X14929682Y-19526461D01*
X14929682Y-19526461D02*
X14929682Y-19488366D01*
X14929682Y-19488366D02*
X14939206Y-19440747D01*
X14939206Y-19440747D02*
X14948730Y-19412175D01*
X14948730Y-19412175D02*
X14958254Y-19393128D01*
X14958254Y-19393128D02*
X14977301Y-19364556D01*
X14977301Y-19364556D02*
X14986825Y-19355032D01*
X15148730Y-19450270D02*
X15148730Y-19583604D01*
X15101111Y-19374080D02*
X15053492Y-19516937D01*
X15053492Y-19516937D02*
X15177301Y-19516937D01*
X15291587Y-19383604D02*
X15310635Y-19383604D01*
X15310635Y-19383604D02*
X15329682Y-19393128D01*
X15329682Y-19393128D02*
X15339206Y-19402651D01*
X15339206Y-19402651D02*
X15348730Y-19421699D01*
X15348730Y-19421699D02*
X15358254Y-19459794D01*
X15358254Y-19459794D02*
X15358254Y-19507413D01*
X15358254Y-19507413D02*
X15348730Y-19545509D01*
X15348730Y-19545509D02*
X15339206Y-19564556D01*
X15339206Y-19564556D02*
X15329682Y-19574080D01*
X15329682Y-19574080D02*
X15310635Y-19583604D01*
X15310635Y-19583604D02*
X15291587Y-19583604D01*
X15291587Y-19583604D02*
X15272539Y-19574080D01*
X15272539Y-19574080D02*
X15263015Y-19564556D01*
X15263015Y-19564556D02*
X15253492Y-19545509D01*
X15253492Y-19545509D02*
X15243968Y-19507413D01*
X15243968Y-19507413D02*
X15243968Y-19459794D01*
X15243968Y-19459794D02*
X15253492Y-19421699D01*
X15253492Y-19421699D02*
X15263015Y-19402651D01*
X15263015Y-19402651D02*
X15272539Y-19393128D01*
X15272539Y-19393128D02*
X15291587Y-19383604D01*
X15596349Y-19583604D02*
X15596349Y-19383604D01*
X15682063Y-19583604D02*
X15682063Y-19478842D01*
X15682063Y-19478842D02*
X15672539Y-19459794D01*
X15672539Y-19459794D02*
X15653492Y-19450270D01*
X15653492Y-19450270D02*
X15624920Y-19450270D01*
X15624920Y-19450270D02*
X15605873Y-19459794D01*
X15605873Y-19459794D02*
X15596349Y-19469318D01*
X15805873Y-19583604D02*
X15786825Y-19574080D01*
X15786825Y-19574080D02*
X15777301Y-19564556D01*
X15777301Y-19564556D02*
X15767777Y-19545509D01*
X15767777Y-19545509D02*
X15767777Y-19488366D01*
X15767777Y-19488366D02*
X15777301Y-19469318D01*
X15777301Y-19469318D02*
X15786825Y-19459794D01*
X15786825Y-19459794D02*
X15805873Y-19450270D01*
X15805873Y-19450270D02*
X15834444Y-19450270D01*
X15834444Y-19450270D02*
X15853492Y-19459794D01*
X15853492Y-19459794D02*
X15863016Y-19469318D01*
X15863016Y-19469318D02*
X15872539Y-19488366D01*
X15872539Y-19488366D02*
X15872539Y-19545509D01*
X15872539Y-19545509D02*
X15863016Y-19564556D01*
X15863016Y-19564556D02*
X15853492Y-19574080D01*
X15853492Y-19574080D02*
X15834444Y-19583604D01*
X15834444Y-19583604D02*
X15805873Y-19583604D01*
X15986825Y-19583604D02*
X15967777Y-19574080D01*
X15967777Y-19574080D02*
X15958254Y-19555032D01*
X15958254Y-19555032D02*
X15958254Y-19383604D01*
X16139206Y-19574080D02*
X16120158Y-19583604D01*
X16120158Y-19583604D02*
X16082063Y-19583604D01*
X16082063Y-19583604D02*
X16063016Y-19574080D01*
X16063016Y-19574080D02*
X16053492Y-19555032D01*
X16053492Y-19555032D02*
X16053492Y-19478842D01*
X16053492Y-19478842D02*
X16063016Y-19459794D01*
X16063016Y-19459794D02*
X16082063Y-19450270D01*
X16082063Y-19450270D02*
X16120158Y-19450270D01*
X16120158Y-19450270D02*
X16139206Y-19459794D01*
X16139206Y-19459794D02*
X16148730Y-19478842D01*
X16148730Y-19478842D02*
X16148730Y-19497890D01*
X16148730Y-19497890D02*
X16053492Y-19516937D01*
X16224920Y-19574080D02*
X16243968Y-19583604D01*
X16243968Y-19583604D02*
X16282063Y-19583604D01*
X16282063Y-19583604D02*
X16301111Y-19574080D01*
X16301111Y-19574080D02*
X16310635Y-19555032D01*
X16310635Y-19555032D02*
X16310635Y-19545509D01*
X16310635Y-19545509D02*
X16301111Y-19526461D01*
X16301111Y-19526461D02*
X16282063Y-19516937D01*
X16282063Y-19516937D02*
X16253492Y-19516937D01*
X16253492Y-19516937D02*
X16234444Y-19507413D01*
X16234444Y-19507413D02*
X16224920Y-19488366D01*
X16224920Y-19488366D02*
X16224920Y-19478842D01*
X16224920Y-19478842D02*
X16234444Y-19459794D01*
X16234444Y-19459794D02*
X16253492Y-19450270D01*
X16253492Y-19450270D02*
X16282063Y-19450270D01*
X16282063Y-19450270D02*
X16301111Y-19459794D01*
X16377301Y-19659794D02*
X16386825Y-19650270D01*
X16386825Y-19650270D02*
X16405873Y-19621699D01*
X16405873Y-19621699D02*
X16415397Y-19602651D01*
X16415397Y-19602651D02*
X16424920Y-19574080D01*
X16424920Y-19574080D02*
X16434444Y-19526461D01*
X16434444Y-19526461D02*
X16434444Y-19488366D01*
X16434444Y-19488366D02*
X16424920Y-19440747D01*
X16424920Y-19440747D02*
X16415397Y-19412175D01*
X16415397Y-19412175D02*
X16405873Y-19393128D01*
X16405873Y-19393128D02*
X16386825Y-19364556D01*
X16386825Y-19364556D02*
X16377301Y-19355032D01*
X11224920Y-19655080D02*
X11424920Y-19855080D01*
X11424920Y-19655080D02*
X11224920Y-19855080D01*
X11324920Y-19655080D02*
X11324920Y-19855080D01*
X11224920Y-19755080D02*
X11424920Y-19755080D01*
X11653491Y-19647604D02*
X11777301Y-19647604D01*
X11777301Y-19647604D02*
X11710634Y-19723794D01*
X11710634Y-19723794D02*
X11739206Y-19723794D01*
X11739206Y-19723794D02*
X11758253Y-19733318D01*
X11758253Y-19733318D02*
X11767777Y-19742842D01*
X11767777Y-19742842D02*
X11777301Y-19761890D01*
X11777301Y-19761890D02*
X11777301Y-19809509D01*
X11777301Y-19809509D02*
X11767777Y-19828556D01*
X11767777Y-19828556D02*
X11758253Y-19838080D01*
X11758253Y-19838080D02*
X11739206Y-19847604D01*
X11739206Y-19847604D02*
X11682063Y-19847604D01*
X11682063Y-19847604D02*
X11663015Y-19838080D01*
X11663015Y-19838080D02*
X11653491Y-19828556D01*
X11863015Y-19828556D02*
X11872539Y-19838080D01*
X11872539Y-19838080D02*
X11863015Y-19847604D01*
X11863015Y-19847604D02*
X11853491Y-19838080D01*
X11853491Y-19838080D02*
X11863015Y-19828556D01*
X11863015Y-19828556D02*
X11863015Y-19847604D01*
X11948729Y-19666651D02*
X11958253Y-19657128D01*
X11958253Y-19657128D02*
X11977301Y-19647604D01*
X11977301Y-19647604D02*
X12024920Y-19647604D01*
X12024920Y-19647604D02*
X12043968Y-19657128D01*
X12043968Y-19657128D02*
X12053491Y-19666651D01*
X12053491Y-19666651D02*
X12063015Y-19685699D01*
X12063015Y-19685699D02*
X12063015Y-19704747D01*
X12063015Y-19704747D02*
X12053491Y-19733318D01*
X12053491Y-19733318D02*
X11939206Y-19847604D01*
X11939206Y-19847604D02*
X12063015Y-19847604D01*
X12186825Y-19647604D02*
X12205872Y-19647604D01*
X12205872Y-19647604D02*
X12224920Y-19657128D01*
X12224920Y-19657128D02*
X12234444Y-19666651D01*
X12234444Y-19666651D02*
X12243968Y-19685699D01*
X12243968Y-19685699D02*
X12253491Y-19723794D01*
X12253491Y-19723794D02*
X12253491Y-19771413D01*
X12253491Y-19771413D02*
X12243968Y-19809509D01*
X12243968Y-19809509D02*
X12234444Y-19828556D01*
X12234444Y-19828556D02*
X12224920Y-19838080D01*
X12224920Y-19838080D02*
X12205872Y-19847604D01*
X12205872Y-19847604D02*
X12186825Y-19847604D01*
X12186825Y-19847604D02*
X12167777Y-19838080D01*
X12167777Y-19838080D02*
X12158253Y-19828556D01*
X12158253Y-19828556D02*
X12148729Y-19809509D01*
X12148729Y-19809509D02*
X12139206Y-19771413D01*
X12139206Y-19771413D02*
X12139206Y-19723794D01*
X12139206Y-19723794D02*
X12148729Y-19685699D01*
X12148729Y-19685699D02*
X12158253Y-19666651D01*
X12158253Y-19666651D02*
X12167777Y-19657128D01*
X12167777Y-19657128D02*
X12186825Y-19647604D01*
X12377301Y-19647604D02*
X12396349Y-19647604D01*
X12396349Y-19647604D02*
X12415396Y-19657128D01*
X12415396Y-19657128D02*
X12424920Y-19666651D01*
X12424920Y-19666651D02*
X12434444Y-19685699D01*
X12434444Y-19685699D02*
X12443968Y-19723794D01*
X12443968Y-19723794D02*
X12443968Y-19771413D01*
X12443968Y-19771413D02*
X12434444Y-19809509D01*
X12434444Y-19809509D02*
X12424920Y-19828556D01*
X12424920Y-19828556D02*
X12415396Y-19838080D01*
X12415396Y-19838080D02*
X12396349Y-19847604D01*
X12396349Y-19847604D02*
X12377301Y-19847604D01*
X12377301Y-19847604D02*
X12358253Y-19838080D01*
X12358253Y-19838080D02*
X12348729Y-19828556D01*
X12348729Y-19828556D02*
X12339206Y-19809509D01*
X12339206Y-19809509D02*
X12329682Y-19771413D01*
X12329682Y-19771413D02*
X12329682Y-19723794D01*
X12329682Y-19723794D02*
X12339206Y-19685699D01*
X12339206Y-19685699D02*
X12348729Y-19666651D01*
X12348729Y-19666651D02*
X12358253Y-19657128D01*
X12358253Y-19657128D02*
X12377301Y-19647604D01*
X12529682Y-19847604D02*
X12529682Y-19714270D01*
X12529682Y-19733318D02*
X12539206Y-19723794D01*
X12539206Y-19723794D02*
X12558253Y-19714270D01*
X12558253Y-19714270D02*
X12586825Y-19714270D01*
X12586825Y-19714270D02*
X12605872Y-19723794D01*
X12605872Y-19723794D02*
X12615396Y-19742842D01*
X12615396Y-19742842D02*
X12615396Y-19847604D01*
X12615396Y-19742842D02*
X12624920Y-19723794D01*
X12624920Y-19723794D02*
X12643968Y-19714270D01*
X12643968Y-19714270D02*
X12672539Y-19714270D01*
X12672539Y-19714270D02*
X12691587Y-19723794D01*
X12691587Y-19723794D02*
X12701110Y-19742842D01*
X12701110Y-19742842D02*
X12701110Y-19847604D01*
X12796349Y-19847604D02*
X12796349Y-19714270D01*
X12796349Y-19733318D02*
X12805872Y-19723794D01*
X12805872Y-19723794D02*
X12824920Y-19714270D01*
X12824920Y-19714270D02*
X12853491Y-19714270D01*
X12853491Y-19714270D02*
X12872539Y-19723794D01*
X12872539Y-19723794D02*
X12882063Y-19742842D01*
X12882063Y-19742842D02*
X12882063Y-19847604D01*
X12882063Y-19742842D02*
X12891587Y-19723794D01*
X12891587Y-19723794D02*
X12910634Y-19714270D01*
X12910634Y-19714270D02*
X12939206Y-19714270D01*
X12939206Y-19714270D02*
X12958253Y-19723794D01*
X12958253Y-19723794D02*
X12967777Y-19742842D01*
X12967777Y-19742842D02*
X12967777Y-19847604D01*
X13358253Y-19638080D02*
X13186825Y-19895223D01*
X13615396Y-19647604D02*
X13634444Y-19647604D01*
X13634444Y-19647604D02*
X13653492Y-19657128D01*
X13653492Y-19657128D02*
X13663015Y-19666651D01*
X13663015Y-19666651D02*
X13672539Y-19685699D01*
X13672539Y-19685699D02*
X13682063Y-19723794D01*
X13682063Y-19723794D02*
X13682063Y-19771413D01*
X13682063Y-19771413D02*
X13672539Y-19809509D01*
X13672539Y-19809509D02*
X13663015Y-19828556D01*
X13663015Y-19828556D02*
X13653492Y-19838080D01*
X13653492Y-19838080D02*
X13634444Y-19847604D01*
X13634444Y-19847604D02*
X13615396Y-19847604D01*
X13615396Y-19847604D02*
X13596349Y-19838080D01*
X13596349Y-19838080D02*
X13586825Y-19828556D01*
X13586825Y-19828556D02*
X13577301Y-19809509D01*
X13577301Y-19809509D02*
X13567777Y-19771413D01*
X13567777Y-19771413D02*
X13567777Y-19723794D01*
X13567777Y-19723794D02*
X13577301Y-19685699D01*
X13577301Y-19685699D02*
X13586825Y-19666651D01*
X13586825Y-19666651D02*
X13596349Y-19657128D01*
X13596349Y-19657128D02*
X13615396Y-19647604D01*
X13767777Y-19828556D02*
X13777301Y-19838080D01*
X13777301Y-19838080D02*
X13767777Y-19847604D01*
X13767777Y-19847604D02*
X13758253Y-19838080D01*
X13758253Y-19838080D02*
X13767777Y-19828556D01*
X13767777Y-19828556D02*
X13767777Y-19847604D01*
X13967777Y-19847604D02*
X13853492Y-19847604D01*
X13910634Y-19847604D02*
X13910634Y-19647604D01*
X13910634Y-19647604D02*
X13891587Y-19676175D01*
X13891587Y-19676175D02*
X13872539Y-19695223D01*
X13872539Y-19695223D02*
X13853492Y-19704747D01*
X14043968Y-19666651D02*
X14053492Y-19657128D01*
X14053492Y-19657128D02*
X14072539Y-19647604D01*
X14072539Y-19647604D02*
X14120158Y-19647604D01*
X14120158Y-19647604D02*
X14139206Y-19657128D01*
X14139206Y-19657128D02*
X14148730Y-19666651D01*
X14148730Y-19666651D02*
X14158253Y-19685699D01*
X14158253Y-19685699D02*
X14158253Y-19704747D01*
X14158253Y-19704747D02*
X14148730Y-19733318D01*
X14148730Y-19733318D02*
X14034444Y-19847604D01*
X14034444Y-19847604D02*
X14158253Y-19847604D01*
X14329682Y-19647604D02*
X14291587Y-19647604D01*
X14291587Y-19647604D02*
X14272539Y-19657128D01*
X14272539Y-19657128D02*
X14263015Y-19666651D01*
X14263015Y-19666651D02*
X14243968Y-19695223D01*
X14243968Y-19695223D02*
X14234444Y-19733318D01*
X14234444Y-19733318D02*
X14234444Y-19809509D01*
X14234444Y-19809509D02*
X14243968Y-19828556D01*
X14243968Y-19828556D02*
X14253492Y-19838080D01*
X14253492Y-19838080D02*
X14272539Y-19847604D01*
X14272539Y-19847604D02*
X14310634Y-19847604D01*
X14310634Y-19847604D02*
X14329682Y-19838080D01*
X14329682Y-19838080D02*
X14339206Y-19828556D01*
X14339206Y-19828556D02*
X14348730Y-19809509D01*
X14348730Y-19809509D02*
X14348730Y-19761890D01*
X14348730Y-19761890D02*
X14339206Y-19742842D01*
X14339206Y-19742842D02*
X14329682Y-19733318D01*
X14329682Y-19733318D02*
X14310634Y-19723794D01*
X14310634Y-19723794D02*
X14272539Y-19723794D01*
X14272539Y-19723794D02*
X14253492Y-19733318D01*
X14253492Y-19733318D02*
X14243968Y-19742842D01*
X14243968Y-19742842D02*
X14234444Y-19761890D01*
X14472539Y-19647604D02*
X14491587Y-19647604D01*
X14491587Y-19647604D02*
X14510634Y-19657128D01*
X14510634Y-19657128D02*
X14520158Y-19666651D01*
X14520158Y-19666651D02*
X14529682Y-19685699D01*
X14529682Y-19685699D02*
X14539206Y-19723794D01*
X14539206Y-19723794D02*
X14539206Y-19771413D01*
X14539206Y-19771413D02*
X14529682Y-19809509D01*
X14529682Y-19809509D02*
X14520158Y-19828556D01*
X14520158Y-19828556D02*
X14510634Y-19838080D01*
X14510634Y-19838080D02*
X14491587Y-19847604D01*
X14491587Y-19847604D02*
X14472539Y-19847604D01*
X14472539Y-19847604D02*
X14453492Y-19838080D01*
X14453492Y-19838080D02*
X14443968Y-19828556D01*
X14443968Y-19828556D02*
X14434444Y-19809509D01*
X14434444Y-19809509D02*
X14424920Y-19771413D01*
X14424920Y-19771413D02*
X14424920Y-19723794D01*
X14424920Y-19723794D02*
X14434444Y-19685699D01*
X14434444Y-19685699D02*
X14443968Y-19666651D01*
X14443968Y-19666651D02*
X14453492Y-19657128D01*
X14453492Y-19657128D02*
X14472539Y-19647604D01*
X14615396Y-19647604D02*
X14615396Y-19685699D01*
X14691587Y-19647604D02*
X14691587Y-19685699D01*
X14986825Y-19923794D02*
X14977301Y-19914270D01*
X14977301Y-19914270D02*
X14958254Y-19885699D01*
X14958254Y-19885699D02*
X14948730Y-19866651D01*
X14948730Y-19866651D02*
X14939206Y-19838080D01*
X14939206Y-19838080D02*
X14929682Y-19790461D01*
X14929682Y-19790461D02*
X14929682Y-19752366D01*
X14929682Y-19752366D02*
X14939206Y-19704747D01*
X14939206Y-19704747D02*
X14948730Y-19676175D01*
X14948730Y-19676175D02*
X14958254Y-19657128D01*
X14958254Y-19657128D02*
X14977301Y-19628556D01*
X14977301Y-19628556D02*
X14986825Y-19619032D01*
X15148730Y-19714270D02*
X15148730Y-19847604D01*
X15101111Y-19638080D02*
X15053492Y-19780937D01*
X15053492Y-19780937D02*
X15177301Y-19780937D01*
X15405873Y-19847604D02*
X15405873Y-19647604D01*
X15491587Y-19847604D02*
X15491587Y-19742842D01*
X15491587Y-19742842D02*
X15482063Y-19723794D01*
X15482063Y-19723794D02*
X15463016Y-19714270D01*
X15463016Y-19714270D02*
X15434444Y-19714270D01*
X15434444Y-19714270D02*
X15415396Y-19723794D01*
X15415396Y-19723794D02*
X15405873Y-19733318D01*
X15615396Y-19847604D02*
X15596349Y-19838080D01*
X15596349Y-19838080D02*
X15586825Y-19828556D01*
X15586825Y-19828556D02*
X15577301Y-19809509D01*
X15577301Y-19809509D02*
X15577301Y-19752366D01*
X15577301Y-19752366D02*
X15586825Y-19733318D01*
X15586825Y-19733318D02*
X15596349Y-19723794D01*
X15596349Y-19723794D02*
X15615396Y-19714270D01*
X15615396Y-19714270D02*
X15643968Y-19714270D01*
X15643968Y-19714270D02*
X15663016Y-19723794D01*
X15663016Y-19723794D02*
X15672539Y-19733318D01*
X15672539Y-19733318D02*
X15682063Y-19752366D01*
X15682063Y-19752366D02*
X15682063Y-19809509D01*
X15682063Y-19809509D02*
X15672539Y-19828556D01*
X15672539Y-19828556D02*
X15663016Y-19838080D01*
X15663016Y-19838080D02*
X15643968Y-19847604D01*
X15643968Y-19847604D02*
X15615396Y-19847604D01*
X15796349Y-19847604D02*
X15777301Y-19838080D01*
X15777301Y-19838080D02*
X15767777Y-19819032D01*
X15767777Y-19819032D02*
X15767777Y-19647604D01*
X15948730Y-19838080D02*
X15929682Y-19847604D01*
X15929682Y-19847604D02*
X15891587Y-19847604D01*
X15891587Y-19847604D02*
X15872539Y-19838080D01*
X15872539Y-19838080D02*
X15863016Y-19819032D01*
X15863016Y-19819032D02*
X15863016Y-19742842D01*
X15863016Y-19742842D02*
X15872539Y-19723794D01*
X15872539Y-19723794D02*
X15891587Y-19714270D01*
X15891587Y-19714270D02*
X15929682Y-19714270D01*
X15929682Y-19714270D02*
X15948730Y-19723794D01*
X15948730Y-19723794D02*
X15958254Y-19742842D01*
X15958254Y-19742842D02*
X15958254Y-19761890D01*
X15958254Y-19761890D02*
X15863016Y-19780937D01*
X16034444Y-19838080D02*
X16053492Y-19847604D01*
X16053492Y-19847604D02*
X16091587Y-19847604D01*
X16091587Y-19847604D02*
X16110635Y-19838080D01*
X16110635Y-19838080D02*
X16120158Y-19819032D01*
X16120158Y-19819032D02*
X16120158Y-19809509D01*
X16120158Y-19809509D02*
X16110635Y-19790461D01*
X16110635Y-19790461D02*
X16091587Y-19780937D01*
X16091587Y-19780937D02*
X16063016Y-19780937D01*
X16063016Y-19780937D02*
X16043968Y-19771413D01*
X16043968Y-19771413D02*
X16034444Y-19752366D01*
X16034444Y-19752366D02*
X16034444Y-19742842D01*
X16034444Y-19742842D02*
X16043968Y-19723794D01*
X16043968Y-19723794D02*
X16063016Y-19714270D01*
X16063016Y-19714270D02*
X16091587Y-19714270D01*
X16091587Y-19714270D02*
X16110635Y-19723794D01*
X16186825Y-19923794D02*
X16196349Y-19914270D01*
X16196349Y-19914270D02*
X16215397Y-19885699D01*
X16215397Y-19885699D02*
X16224920Y-19866651D01*
X16224920Y-19866651D02*
X16234444Y-19838080D01*
X16234444Y-19838080D02*
X16243968Y-19790461D01*
X16243968Y-19790461D02*
X16243968Y-19752366D01*
X16243968Y-19752366D02*
X16234444Y-19704747D01*
X16234444Y-19704747D02*
X16224920Y-19676175D01*
X16224920Y-19676175D02*
X16215397Y-19657128D01*
X16215397Y-19657128D02*
X16196349Y-19628556D01*
X16196349Y-19628556D02*
X16186825Y-19619032D01*
X11224920Y-19975080D02*
X11424920Y-20175080D01*
X11424920Y-19975080D02*
X11224920Y-20175080D01*
X11395631Y-20145791D02*
X11395631Y-20004369D01*
X11254209Y-20004369D01*
X11254209Y-20145791D01*
X11395631Y-20145791D01*
X11758253Y-20034270D02*
X11758253Y-20167604D01*
X11710634Y-19958080D02*
X11663015Y-20100937D01*
X11663015Y-20100937D02*
X11786825Y-20100937D01*
X11863015Y-20148556D02*
X11872539Y-20158080D01*
X11872539Y-20158080D02*
X11863015Y-20167604D01*
X11863015Y-20167604D02*
X11853491Y-20158080D01*
X11853491Y-20158080D02*
X11863015Y-20148556D01*
X11863015Y-20148556D02*
X11863015Y-20167604D01*
X12053491Y-19967604D02*
X11958253Y-19967604D01*
X11958253Y-19967604D02*
X11948729Y-20062842D01*
X11948729Y-20062842D02*
X11958253Y-20053318D01*
X11958253Y-20053318D02*
X11977301Y-20043794D01*
X11977301Y-20043794D02*
X12024920Y-20043794D01*
X12024920Y-20043794D02*
X12043968Y-20053318D01*
X12043968Y-20053318D02*
X12053491Y-20062842D01*
X12053491Y-20062842D02*
X12063015Y-20081890D01*
X12063015Y-20081890D02*
X12063015Y-20129509D01*
X12063015Y-20129509D02*
X12053491Y-20148556D01*
X12053491Y-20148556D02*
X12043968Y-20158080D01*
X12043968Y-20158080D02*
X12024920Y-20167604D01*
X12024920Y-20167604D02*
X11977301Y-20167604D01*
X11977301Y-20167604D02*
X11958253Y-20158080D01*
X11958253Y-20158080D02*
X11948729Y-20148556D01*
X12186825Y-19967604D02*
X12205872Y-19967604D01*
X12205872Y-19967604D02*
X12224920Y-19977128D01*
X12224920Y-19977128D02*
X12234444Y-19986651D01*
X12234444Y-19986651D02*
X12243968Y-20005699D01*
X12243968Y-20005699D02*
X12253491Y-20043794D01*
X12253491Y-20043794D02*
X12253491Y-20091413D01*
X12253491Y-20091413D02*
X12243968Y-20129509D01*
X12243968Y-20129509D02*
X12234444Y-20148556D01*
X12234444Y-20148556D02*
X12224920Y-20158080D01*
X12224920Y-20158080D02*
X12205872Y-20167604D01*
X12205872Y-20167604D02*
X12186825Y-20167604D01*
X12186825Y-20167604D02*
X12167777Y-20158080D01*
X12167777Y-20158080D02*
X12158253Y-20148556D01*
X12158253Y-20148556D02*
X12148729Y-20129509D01*
X12148729Y-20129509D02*
X12139206Y-20091413D01*
X12139206Y-20091413D02*
X12139206Y-20043794D01*
X12139206Y-20043794D02*
X12148729Y-20005699D01*
X12148729Y-20005699D02*
X12158253Y-19986651D01*
X12158253Y-19986651D02*
X12167777Y-19977128D01*
X12167777Y-19977128D02*
X12186825Y-19967604D01*
X12377301Y-19967604D02*
X12396349Y-19967604D01*
X12396349Y-19967604D02*
X12415396Y-19977128D01*
X12415396Y-19977128D02*
X12424920Y-19986651D01*
X12424920Y-19986651D02*
X12434444Y-20005699D01*
X12434444Y-20005699D02*
X12443968Y-20043794D01*
X12443968Y-20043794D02*
X12443968Y-20091413D01*
X12443968Y-20091413D02*
X12434444Y-20129509D01*
X12434444Y-20129509D02*
X12424920Y-20148556D01*
X12424920Y-20148556D02*
X12415396Y-20158080D01*
X12415396Y-20158080D02*
X12396349Y-20167604D01*
X12396349Y-20167604D02*
X12377301Y-20167604D01*
X12377301Y-20167604D02*
X12358253Y-20158080D01*
X12358253Y-20158080D02*
X12348729Y-20148556D01*
X12348729Y-20148556D02*
X12339206Y-20129509D01*
X12339206Y-20129509D02*
X12329682Y-20091413D01*
X12329682Y-20091413D02*
X12329682Y-20043794D01*
X12329682Y-20043794D02*
X12339206Y-20005699D01*
X12339206Y-20005699D02*
X12348729Y-19986651D01*
X12348729Y-19986651D02*
X12358253Y-19977128D01*
X12358253Y-19977128D02*
X12377301Y-19967604D01*
X12529682Y-20167604D02*
X12529682Y-20034270D01*
X12529682Y-20053318D02*
X12539206Y-20043794D01*
X12539206Y-20043794D02*
X12558253Y-20034270D01*
X12558253Y-20034270D02*
X12586825Y-20034270D01*
X12586825Y-20034270D02*
X12605872Y-20043794D01*
X12605872Y-20043794D02*
X12615396Y-20062842D01*
X12615396Y-20062842D02*
X12615396Y-20167604D01*
X12615396Y-20062842D02*
X12624920Y-20043794D01*
X12624920Y-20043794D02*
X12643968Y-20034270D01*
X12643968Y-20034270D02*
X12672539Y-20034270D01*
X12672539Y-20034270D02*
X12691587Y-20043794D01*
X12691587Y-20043794D02*
X12701110Y-20062842D01*
X12701110Y-20062842D02*
X12701110Y-20167604D01*
X12796349Y-20167604D02*
X12796349Y-20034270D01*
X12796349Y-20053318D02*
X12805872Y-20043794D01*
X12805872Y-20043794D02*
X12824920Y-20034270D01*
X12824920Y-20034270D02*
X12853491Y-20034270D01*
X12853491Y-20034270D02*
X12872539Y-20043794D01*
X12872539Y-20043794D02*
X12882063Y-20062842D01*
X12882063Y-20062842D02*
X12882063Y-20167604D01*
X12882063Y-20062842D02*
X12891587Y-20043794D01*
X12891587Y-20043794D02*
X12910634Y-20034270D01*
X12910634Y-20034270D02*
X12939206Y-20034270D01*
X12939206Y-20034270D02*
X12958253Y-20043794D01*
X12958253Y-20043794D02*
X12967777Y-20062842D01*
X12967777Y-20062842D02*
X12967777Y-20167604D01*
X13358253Y-19958080D02*
X13186825Y-20215223D01*
X13615396Y-19967604D02*
X13634444Y-19967604D01*
X13634444Y-19967604D02*
X13653492Y-19977128D01*
X13653492Y-19977128D02*
X13663015Y-19986651D01*
X13663015Y-19986651D02*
X13672539Y-20005699D01*
X13672539Y-20005699D02*
X13682063Y-20043794D01*
X13682063Y-20043794D02*
X13682063Y-20091413D01*
X13682063Y-20091413D02*
X13672539Y-20129509D01*
X13672539Y-20129509D02*
X13663015Y-20148556D01*
X13663015Y-20148556D02*
X13653492Y-20158080D01*
X13653492Y-20158080D02*
X13634444Y-20167604D01*
X13634444Y-20167604D02*
X13615396Y-20167604D01*
X13615396Y-20167604D02*
X13596349Y-20158080D01*
X13596349Y-20158080D02*
X13586825Y-20148556D01*
X13586825Y-20148556D02*
X13577301Y-20129509D01*
X13577301Y-20129509D02*
X13567777Y-20091413D01*
X13567777Y-20091413D02*
X13567777Y-20043794D01*
X13567777Y-20043794D02*
X13577301Y-20005699D01*
X13577301Y-20005699D02*
X13586825Y-19986651D01*
X13586825Y-19986651D02*
X13596349Y-19977128D01*
X13596349Y-19977128D02*
X13615396Y-19967604D01*
X13767777Y-20148556D02*
X13777301Y-20158080D01*
X13777301Y-20158080D02*
X13767777Y-20167604D01*
X13767777Y-20167604D02*
X13758253Y-20158080D01*
X13758253Y-20158080D02*
X13767777Y-20148556D01*
X13767777Y-20148556D02*
X13767777Y-20167604D01*
X13967777Y-20167604D02*
X13853492Y-20167604D01*
X13910634Y-20167604D02*
X13910634Y-19967604D01*
X13910634Y-19967604D02*
X13891587Y-19996175D01*
X13891587Y-19996175D02*
X13872539Y-20015223D01*
X13872539Y-20015223D02*
X13853492Y-20024747D01*
X14034444Y-19967604D02*
X14167777Y-19967604D01*
X14167777Y-19967604D02*
X14082063Y-20167604D01*
X14224920Y-19967604D02*
X14358253Y-19967604D01*
X14358253Y-19967604D02*
X14272539Y-20167604D01*
X14424920Y-19986651D02*
X14434444Y-19977128D01*
X14434444Y-19977128D02*
X14453492Y-19967604D01*
X14453492Y-19967604D02*
X14501111Y-19967604D01*
X14501111Y-19967604D02*
X14520158Y-19977128D01*
X14520158Y-19977128D02*
X14529682Y-19986651D01*
X14529682Y-19986651D02*
X14539206Y-20005699D01*
X14539206Y-20005699D02*
X14539206Y-20024747D01*
X14539206Y-20024747D02*
X14529682Y-20053318D01*
X14529682Y-20053318D02*
X14415396Y-20167604D01*
X14415396Y-20167604D02*
X14539206Y-20167604D01*
X14615396Y-19967604D02*
X14615396Y-20005699D01*
X14691587Y-19967604D02*
X14691587Y-20005699D01*
X14986825Y-20243794D02*
X14977301Y-20234270D01*
X14977301Y-20234270D02*
X14958254Y-20205699D01*
X14958254Y-20205699D02*
X14948730Y-20186651D01*
X14948730Y-20186651D02*
X14939206Y-20158080D01*
X14939206Y-20158080D02*
X14929682Y-20110461D01*
X14929682Y-20110461D02*
X14929682Y-20072366D01*
X14929682Y-20072366D02*
X14939206Y-20024747D01*
X14939206Y-20024747D02*
X14948730Y-19996175D01*
X14948730Y-19996175D02*
X14958254Y-19977128D01*
X14958254Y-19977128D02*
X14977301Y-19948556D01*
X14977301Y-19948556D02*
X14986825Y-19939032D01*
X15053492Y-19986651D02*
X15063015Y-19977128D01*
X15063015Y-19977128D02*
X15082063Y-19967604D01*
X15082063Y-19967604D02*
X15129682Y-19967604D01*
X15129682Y-19967604D02*
X15148730Y-19977128D01*
X15148730Y-19977128D02*
X15158254Y-19986651D01*
X15158254Y-19986651D02*
X15167777Y-20005699D01*
X15167777Y-20005699D02*
X15167777Y-20024747D01*
X15167777Y-20024747D02*
X15158254Y-20053318D01*
X15158254Y-20053318D02*
X15043968Y-20167604D01*
X15043968Y-20167604D02*
X15167777Y-20167604D01*
X15405873Y-20167604D02*
X15405873Y-19967604D01*
X15491587Y-20167604D02*
X15491587Y-20062842D01*
X15491587Y-20062842D02*
X15482063Y-20043794D01*
X15482063Y-20043794D02*
X15463016Y-20034270D01*
X15463016Y-20034270D02*
X15434444Y-20034270D01*
X15434444Y-20034270D02*
X15415396Y-20043794D01*
X15415396Y-20043794D02*
X15405873Y-20053318D01*
X15615396Y-20167604D02*
X15596349Y-20158080D01*
X15596349Y-20158080D02*
X15586825Y-20148556D01*
X15586825Y-20148556D02*
X15577301Y-20129509D01*
X15577301Y-20129509D02*
X15577301Y-20072366D01*
X15577301Y-20072366D02*
X15586825Y-20053318D01*
X15586825Y-20053318D02*
X15596349Y-20043794D01*
X15596349Y-20043794D02*
X15615396Y-20034270D01*
X15615396Y-20034270D02*
X15643968Y-20034270D01*
X15643968Y-20034270D02*
X15663016Y-20043794D01*
X15663016Y-20043794D02*
X15672539Y-20053318D01*
X15672539Y-20053318D02*
X15682063Y-20072366D01*
X15682063Y-20072366D02*
X15682063Y-20129509D01*
X15682063Y-20129509D02*
X15672539Y-20148556D01*
X15672539Y-20148556D02*
X15663016Y-20158080D01*
X15663016Y-20158080D02*
X15643968Y-20167604D01*
X15643968Y-20167604D02*
X15615396Y-20167604D01*
X15796349Y-20167604D02*
X15777301Y-20158080D01*
X15777301Y-20158080D02*
X15767777Y-20139032D01*
X15767777Y-20139032D02*
X15767777Y-19967604D01*
X15948730Y-20158080D02*
X15929682Y-20167604D01*
X15929682Y-20167604D02*
X15891587Y-20167604D01*
X15891587Y-20167604D02*
X15872539Y-20158080D01*
X15872539Y-20158080D02*
X15863016Y-20139032D01*
X15863016Y-20139032D02*
X15863016Y-20062842D01*
X15863016Y-20062842D02*
X15872539Y-20043794D01*
X15872539Y-20043794D02*
X15891587Y-20034270D01*
X15891587Y-20034270D02*
X15929682Y-20034270D01*
X15929682Y-20034270D02*
X15948730Y-20043794D01*
X15948730Y-20043794D02*
X15958254Y-20062842D01*
X15958254Y-20062842D02*
X15958254Y-20081890D01*
X15958254Y-20081890D02*
X15863016Y-20100937D01*
X16034444Y-20158080D02*
X16053492Y-20167604D01*
X16053492Y-20167604D02*
X16091587Y-20167604D01*
X16091587Y-20167604D02*
X16110635Y-20158080D01*
X16110635Y-20158080D02*
X16120158Y-20139032D01*
X16120158Y-20139032D02*
X16120158Y-20129509D01*
X16120158Y-20129509D02*
X16110635Y-20110461D01*
X16110635Y-20110461D02*
X16091587Y-20100937D01*
X16091587Y-20100937D02*
X16063016Y-20100937D01*
X16063016Y-20100937D02*
X16043968Y-20091413D01*
X16043968Y-20091413D02*
X16034444Y-20072366D01*
X16034444Y-20072366D02*
X16034444Y-20062842D01*
X16034444Y-20062842D02*
X16043968Y-20043794D01*
X16043968Y-20043794D02*
X16063016Y-20034270D01*
X16063016Y-20034270D02*
X16091587Y-20034270D01*
X16091587Y-20034270D02*
X16110635Y-20043794D01*
X16186825Y-20243794D02*
X16196349Y-20234270D01*
X16196349Y-20234270D02*
X16215397Y-20205699D01*
X16215397Y-20205699D02*
X16224920Y-20186651D01*
X16224920Y-20186651D02*
X16234444Y-20158080D01*
X16234444Y-20158080D02*
X16243968Y-20110461D01*
X16243968Y-20110461D02*
X16243968Y-20072366D01*
X16243968Y-20072366D02*
X16234444Y-20024747D01*
X16234444Y-20024747D02*
X16224920Y-19996175D01*
X16224920Y-19996175D02*
X16215397Y-19977128D01*
X16215397Y-19977128D02*
X16196349Y-19948556D01*
X16196349Y-19948556D02*
X16186825Y-19939032D01*
M02*
