%TF.GenerationSoftware,KiCad,Pcbnew,7.0.2*%
%TF.CreationDate,2023-06-22T18:12:30-04:00*%
%TF.ProjectId,ProtogenBackpackPCB,50726f74-6f67-4656-9e42-61636b706163,rev?*%
%TF.SameCoordinates,Original*%
%TF.FileFunction,Soldermask,Bot*%
%TF.FilePolarity,Negative*%
%FSLAX46Y46*%
G04 Gerber Fmt 4.6, Leading zero omitted, Abs format (unit mm)*
G04 Created by KiCad (PCBNEW 7.0.2) date 2023-06-22 18:12:30*
%MOMM*%
%LPD*%
G01*
G04 APERTURE LIST*
G04 Aperture macros list*
%AMRoundRect*
0 Rectangle with rounded corners*
0 $1 Rounding radius*
0 $2 $3 $4 $5 $6 $7 $8 $9 X,Y pos of 4 corners*
0 Add a 4 corners polygon primitive as box body*
4,1,4,$2,$3,$4,$5,$6,$7,$8,$9,$2,$3,0*
0 Add four circle primitives for the rounded corners*
1,1,$1+$1,$2,$3*
1,1,$1+$1,$4,$5*
1,1,$1+$1,$6,$7*
1,1,$1+$1,$8,$9*
0 Add four rect primitives between the rounded corners*
20,1,$1+$1,$2,$3,$4,$5,0*
20,1,$1+$1,$4,$5,$6,$7,0*
20,1,$1+$1,$6,$7,$8,$9,0*
20,1,$1+$1,$8,$9,$2,$3,0*%
G04 Aperture macros list end*
%ADD10O,1.700000X1.700000*%
%ADD11R,1.700000X1.700000*%
%ADD12C,0.800000*%
%ADD13C,6.400000*%
%ADD14RoundRect,0.250000X-0.350000X-0.625000X0.350000X-0.625000X0.350000X0.625000X-0.350000X0.625000X0*%
%ADD15O,1.200000X1.750000*%
%ADD16RoundRect,0.250000X0.625000X-0.350000X0.625000X0.350000X-0.625000X0.350000X-0.625000X-0.350000X0*%
%ADD17O,1.750000X1.200000*%
%ADD18RoundRect,1.500000X1.500000X1.500000X-1.500000X1.500000X-1.500000X-1.500000X1.500000X-1.500000X0*%
%ADD19C,6.000000*%
%ADD20R,1.508000X1.508000*%
%ADD21C,1.508000*%
%ADD22RoundRect,0.250000X-0.625000X0.350000X-0.625000X-0.350000X0.625000X-0.350000X0.625000X0.350000X0*%
G04 APERTURE END LIST*
D10*
%TO.C,J2*%
X128778000Y-40640000D03*
X126238000Y-40640000D03*
X123698000Y-40640000D03*
X121158000Y-40640000D03*
D11*
X118618000Y-40640000D03*
%TD*%
%TO.C,J1*%
X147320000Y-40640000D03*
D10*
X144780000Y-40640000D03*
X142240000Y-40640000D03*
X139700000Y-40640000D03*
X137160000Y-40640000D03*
%TD*%
D12*
%TO.C,H2*%
X160528000Y-31610000D03*
X162928000Y-29210000D03*
X158830944Y-27512944D03*
X158830944Y-30907056D03*
X162225056Y-27512944D03*
X162225056Y-30907056D03*
D13*
X160528000Y-29210000D03*
D12*
X158128000Y-29210000D03*
X160528000Y-26810000D03*
%TD*%
D14*
%TO.C,SW1*%
X149892000Y-33020000D03*
D15*
X151892000Y-33020000D03*
%TD*%
D16*
%TO.C,J5*%
X125984000Y-80358000D03*
D17*
X125984000Y-78358000D03*
X125984000Y-76358000D03*
X125984000Y-74358000D03*
X125984000Y-72358000D03*
X125984000Y-70358000D03*
%TD*%
D18*
%TO.C,BT1*%
X135680000Y-33020000D03*
D19*
X128480000Y-33020000D03*
%TD*%
D16*
%TO.C,J4*%
X125984000Y-95852000D03*
D17*
X125984000Y-93852000D03*
X125984000Y-91852000D03*
X125984000Y-89852000D03*
X125984000Y-87852000D03*
X125984000Y-85852000D03*
%TD*%
D20*
%TO.C,U3*%
X140079500Y-122936000D03*
D21*
X140079500Y-125476000D03*
X140079500Y-128016000D03*
X140079500Y-130556000D03*
X140079500Y-133096000D03*
X140079500Y-135636000D03*
X140079500Y-138176000D03*
X140079500Y-140716000D03*
X152779500Y-122936000D03*
X152779500Y-125476000D03*
X152779500Y-128016000D03*
X152779500Y-130556000D03*
X152779500Y-133096000D03*
X152779500Y-135636000D03*
X152779500Y-138176000D03*
X152779500Y-140716000D03*
%TD*%
D12*
%TO.C,H4*%
X160528000Y-173850000D03*
X158830944Y-173147056D03*
X162225056Y-169752944D03*
X158830944Y-169752944D03*
X162225056Y-173147056D03*
X158128000Y-171450000D03*
X162928000Y-171450000D03*
X160528000Y-169050000D03*
D13*
X160528000Y-171450000D03*
%TD*%
D11*
%TO.C,J3*%
X151613000Y-50785000D03*
D10*
X151613000Y-48245000D03*
X151613000Y-45705000D03*
%TD*%
D12*
%TO.C,H3*%
X116412944Y-173147056D03*
X118110000Y-169050000D03*
D13*
X118110000Y-171450000D03*
D12*
X119807056Y-173147056D03*
X119807056Y-169752944D03*
X120510000Y-171450000D03*
X116412944Y-169752944D03*
X118110000Y-173850000D03*
X115710000Y-171450000D03*
%TD*%
D22*
%TO.C,M1*%
X135043000Y-149654000D03*
D17*
X135043000Y-151654000D03*
X135043000Y-153654000D03*
X135043000Y-155654000D03*
%TD*%
D10*
%TO.C,U1*%
X157861000Y-62738000D03*
X157861000Y-65278000D03*
D11*
X157861000Y-67818000D03*
D10*
X157861000Y-70358000D03*
X157861000Y-72898000D03*
X157861000Y-75438000D03*
X157861000Y-77978000D03*
D11*
X157861000Y-80518000D03*
D10*
X157861000Y-83058000D03*
X157861000Y-85598000D03*
X157861000Y-88138000D03*
X157861000Y-90678000D03*
D11*
X157861000Y-93218000D03*
D10*
X157861000Y-95758000D03*
X157861000Y-98298000D03*
X157861000Y-100838000D03*
X157861000Y-103378000D03*
D11*
X157861000Y-105918000D03*
D10*
X157861000Y-108458000D03*
X157861000Y-110998000D03*
X140081000Y-110998000D03*
X140081000Y-108458000D03*
D11*
X140081000Y-105918000D03*
D10*
X140081000Y-103378000D03*
X140081000Y-100838000D03*
X140081000Y-98298000D03*
X140081000Y-95758000D03*
D11*
X140081000Y-93218000D03*
D10*
X140081000Y-90678000D03*
X140081000Y-88138000D03*
X140081000Y-85598000D03*
X140081000Y-83058000D03*
D11*
X140081000Y-80518000D03*
D10*
X140081000Y-77978000D03*
X140081000Y-75438000D03*
X140081000Y-72898000D03*
X140081000Y-70358000D03*
D11*
X140081000Y-67818000D03*
D10*
X140081000Y-65278000D03*
X140081000Y-62738000D03*
%TD*%
D22*
%TO.C,M2*%
X135043000Y-128826000D03*
D17*
X135043000Y-130826000D03*
X135043000Y-132826000D03*
X135043000Y-134826000D03*
%TD*%
D16*
%TO.C,J6*%
X155956000Y-50260000D03*
D17*
X155956000Y-48260000D03*
X155956000Y-46260000D03*
X155956000Y-44260000D03*
X155956000Y-42260000D03*
%TD*%
D12*
%TO.C,H1*%
X118110000Y-26810000D03*
X116412944Y-30907056D03*
X119807056Y-30907056D03*
D13*
X118110000Y-29210000D03*
D12*
X115710000Y-29210000D03*
X116412944Y-27512944D03*
X119807056Y-27512944D03*
X120510000Y-29210000D03*
X118110000Y-31610000D03*
%TD*%
D20*
%TO.C,U2*%
X140081000Y-143764000D03*
D21*
X140081000Y-146304000D03*
X140081000Y-148844000D03*
X140081000Y-151384000D03*
X140081000Y-153924000D03*
X140081000Y-156464000D03*
X140081000Y-159004000D03*
X140081000Y-161544000D03*
X152781000Y-143764000D03*
X152781000Y-146304000D03*
X152781000Y-148844000D03*
X152781000Y-151384000D03*
X152781000Y-153924000D03*
X152781000Y-156464000D03*
X152781000Y-159004000D03*
X152781000Y-161544000D03*
%TD*%
M02*
