%TF.GenerationSoftware,KiCad,Pcbnew,7.0.2*%
%TF.CreationDate,2023-06-22T18:12:35-04:00*%
%TF.ProjectId,ProtogenBackpackPCB,50726f74-6f67-4656-9e42-61636b706163,rev?*%
%TF.SameCoordinates,Original*%
%TF.FileFunction,Plated,1,2,PTH,Drill*%
%TF.FilePolarity,Positive*%
%FSLAX46Y46*%
G04 Gerber Fmt 4.6, Leading zero omitted, Abs format (unit mm)*
G04 Created by KiCad (PCBNEW 7.0.2) date 2023-06-22 18:12:35*
%MOMM*%
%LPD*%
G01*
G04 APERTURE LIST*
%TA.AperFunction,ViaDrill*%
%ADD10C,0.400000*%
%TD*%
%TA.AperFunction,ViaDrill*%
%ADD11C,0.406400*%
%TD*%
%TA.AperFunction,ComponentDrill*%
%ADD12C,0.500000*%
%TD*%
%TA.AperFunction,ComponentDrill*%
%ADD13C,0.750000*%
%TD*%
%TA.AperFunction,ComponentDrill*%
%ADD14C,1.000000*%
%TD*%
%TA.AperFunction,ComponentDrill*%
%ADD15C,1.020000*%
%TD*%
%TA.AperFunction,ComponentDrill*%
%ADD16C,3.200000*%
%TD*%
%TA.AperFunction,ComponentDrill*%
%ADD17C,4.500000*%
%TD*%
G04 APERTURE END LIST*
D10*
X161290000Y-134874000D03*
X161290000Y-138938000D03*
X161290000Y-155702000D03*
X161290000Y-159796000D03*
D11*
X136144000Y-88392000D03*
X136144000Y-89662000D03*
X160528000Y-47244000D03*
X161036000Y-79756000D03*
D12*
%TO.C,H1*%
X115710000Y-29210000D03*
%TO.C,H3*%
X115710000Y-171450000D03*
%TO.C,H1*%
X116412944Y-27512944D03*
X116412944Y-30907056D03*
%TO.C,H3*%
X116412944Y-169752944D03*
X116412944Y-173147056D03*
%TO.C,H1*%
X118110000Y-26810000D03*
X118110000Y-31610000D03*
%TO.C,H3*%
X118110000Y-169050000D03*
X118110000Y-173850000D03*
%TO.C,H1*%
X119807056Y-27512944D03*
X119807056Y-30907056D03*
%TO.C,H3*%
X119807056Y-169752944D03*
X119807056Y-173147056D03*
%TO.C,H1*%
X120510000Y-29210000D03*
%TO.C,H3*%
X120510000Y-171450000D03*
%TO.C,H2*%
X158128000Y-29210000D03*
%TO.C,H4*%
X158128000Y-171450000D03*
%TO.C,H2*%
X158830944Y-27512944D03*
X158830944Y-30907056D03*
%TO.C,H4*%
X158830944Y-169752944D03*
X158830944Y-173147056D03*
%TO.C,H2*%
X160528000Y-26810000D03*
X160528000Y-31610000D03*
%TO.C,H4*%
X160528000Y-169050000D03*
X160528000Y-173850000D03*
%TO.C,H2*%
X162225056Y-27512944D03*
X162225056Y-30907056D03*
%TO.C,H4*%
X162225056Y-169752944D03*
X162225056Y-173147056D03*
%TO.C,H2*%
X162928000Y-29210000D03*
%TO.C,H4*%
X162928000Y-171450000D03*
D13*
%TO.C,J5*%
X125984000Y-70358000D03*
X125984000Y-72358000D03*
X125984000Y-74358000D03*
X125984000Y-76358000D03*
X125984000Y-78358000D03*
X125984000Y-80358000D03*
%TO.C,J4*%
X125984000Y-85852000D03*
X125984000Y-87852000D03*
X125984000Y-89852000D03*
X125984000Y-91852000D03*
X125984000Y-93852000D03*
X125984000Y-95852000D03*
%TO.C,M2*%
X135043000Y-128826000D03*
X135043000Y-130826000D03*
X135043000Y-132826000D03*
X135043000Y-134826000D03*
%TO.C,M1*%
X135043000Y-149654000D03*
X135043000Y-151654000D03*
X135043000Y-153654000D03*
X135043000Y-155654000D03*
%TO.C,SW1*%
X149892000Y-33020000D03*
X151892000Y-33020000D03*
%TO.C,J6*%
X155956000Y-42260000D03*
X155956000Y-44260000D03*
X155956000Y-46260000D03*
X155956000Y-48260000D03*
X155956000Y-50260000D03*
D14*
%TO.C,J2*%
X118618000Y-40640000D03*
X121158000Y-40640000D03*
X123698000Y-40640000D03*
X126238000Y-40640000D03*
X128778000Y-40640000D03*
%TO.C,J1*%
X137160000Y-40640000D03*
X139700000Y-40640000D03*
%TO.C,U3*%
X140079500Y-122936000D03*
X140079500Y-125476000D03*
X140079500Y-128016000D03*
X140079500Y-130556000D03*
X140079500Y-133096000D03*
X140079500Y-135636000D03*
X140079500Y-138176000D03*
X140079500Y-140716000D03*
%TO.C,U2*%
X140081000Y-143764000D03*
X140081000Y-146304000D03*
X140081000Y-148844000D03*
X140081000Y-151384000D03*
X140081000Y-153924000D03*
X140081000Y-156464000D03*
X140081000Y-159004000D03*
X140081000Y-161544000D03*
%TO.C,J1*%
X142240000Y-40640000D03*
X144780000Y-40640000D03*
X147320000Y-40640000D03*
%TO.C,J3*%
X151613000Y-45705000D03*
X151613000Y-48245000D03*
X151613000Y-50785000D03*
%TO.C,U3*%
X152779500Y-122936000D03*
X152779500Y-125476000D03*
X152779500Y-128016000D03*
X152779500Y-130556000D03*
X152779500Y-133096000D03*
X152779500Y-135636000D03*
X152779500Y-138176000D03*
X152779500Y-140716000D03*
%TO.C,U2*%
X152781000Y-143764000D03*
X152781000Y-146304000D03*
X152781000Y-148844000D03*
X152781000Y-151384000D03*
X152781000Y-153924000D03*
X152781000Y-156464000D03*
X152781000Y-159004000D03*
X152781000Y-161544000D03*
D15*
%TO.C,U1*%
X140081000Y-62738000D03*
X140081000Y-65278000D03*
X140081000Y-67818000D03*
X140081000Y-70358000D03*
X140081000Y-72898000D03*
X140081000Y-75438000D03*
X140081000Y-77978000D03*
X140081000Y-80518000D03*
X140081000Y-83058000D03*
X140081000Y-85598000D03*
X140081000Y-88138000D03*
X140081000Y-90678000D03*
X140081000Y-93218000D03*
X140081000Y-95758000D03*
X140081000Y-98298000D03*
X140081000Y-100838000D03*
X140081000Y-103378000D03*
X140081000Y-105918000D03*
X140081000Y-108458000D03*
X140081000Y-110998000D03*
X157861000Y-62738000D03*
X157861000Y-65278000D03*
X157861000Y-67818000D03*
X157861000Y-70358000D03*
X157861000Y-72898000D03*
X157861000Y-75438000D03*
X157861000Y-77978000D03*
X157861000Y-80518000D03*
X157861000Y-83058000D03*
X157861000Y-85598000D03*
X157861000Y-88138000D03*
X157861000Y-90678000D03*
X157861000Y-93218000D03*
X157861000Y-95758000D03*
X157861000Y-98298000D03*
X157861000Y-100838000D03*
X157861000Y-103378000D03*
X157861000Y-105918000D03*
X157861000Y-108458000D03*
X157861000Y-110998000D03*
D16*
%TO.C,H1*%
X118110000Y-29210000D03*
%TO.C,H3*%
X118110000Y-171450000D03*
%TO.C,H2*%
X160528000Y-29210000D03*
%TO.C,H4*%
X160528000Y-171450000D03*
D17*
%TO.C,BT1*%
X128480000Y-33020000D03*
X135680000Y-33020000D03*
M02*
