%TF.GenerationSoftware,KiCad,Pcbnew,(6.0.11)*%
%TF.CreationDate,2023-04-04T20:38:18-04:00*%
%TF.ProjectId,ProtogenBackpackPCB,50726f74-6f67-4656-9e42-61636b706163,rev?*%
%TF.SameCoordinates,Original*%
%TF.FileFunction,Legend,Top*%
%TF.FilePolarity,Positive*%
%FSLAX46Y46*%
G04 Gerber Fmt 4.6, Leading zero omitted, Abs format (unit mm)*
G04 Created by KiCad (PCBNEW (6.0.11)) date 2023-04-04 20:38:18*
%MOMM*%
%LPD*%
G01*
G04 APERTURE LIST*
%ADD10C,0.150000*%
%ADD11C,0.120000*%
%ADD12C,0.101600*%
%ADD13C,0.127000*%
%ADD14C,0.200000*%
%ADD15C,0.100000*%
G04 APERTURE END LIST*
D10*
X123642380Y-84867619D02*
X123642380Y-85343809D01*
X122642380Y-85343809D01*
X123118571Y-84534285D02*
X123118571Y-84200952D01*
X123642380Y-84058095D02*
X123642380Y-84534285D01*
X122642380Y-84534285D01*
X122642380Y-84058095D01*
X123642380Y-83629523D02*
X122642380Y-83629523D01*
X122642380Y-83391428D01*
X122690000Y-83248571D01*
X122785238Y-83153333D01*
X122880476Y-83105714D01*
X123070952Y-83058095D01*
X123213809Y-83058095D01*
X123404285Y-83105714D01*
X123499523Y-83153333D01*
X123594761Y-83248571D01*
X123642380Y-83391428D01*
X123642380Y-83629523D01*
X123594761Y-82677142D02*
X123642380Y-82581904D01*
X123642380Y-82391428D01*
X123594761Y-82296190D01*
X123499523Y-82248571D01*
X123451904Y-82248571D01*
X123356666Y-82296190D01*
X123309047Y-82391428D01*
X123309047Y-82534285D01*
X123261428Y-82629523D01*
X123166190Y-82677142D01*
X123118571Y-82677142D01*
X123023333Y-82629523D01*
X122975714Y-82534285D01*
X122975714Y-82391428D01*
X123023333Y-82296190D01*
X123118571Y-71238095D02*
X123166190Y-71095238D01*
X123213809Y-71047619D01*
X123309047Y-71000000D01*
X123451904Y-71000000D01*
X123547142Y-71047619D01*
X123594761Y-71095238D01*
X123642380Y-71190476D01*
X123642380Y-71571428D01*
X122642380Y-71571428D01*
X122642380Y-71238095D01*
X122690000Y-71142857D01*
X122737619Y-71095238D01*
X122832857Y-71047619D01*
X122928095Y-71047619D01*
X123023333Y-71095238D01*
X123070952Y-71142857D01*
X123118571Y-71238095D01*
X123118571Y-71571428D01*
X122642380Y-70571428D02*
X123451904Y-70571428D01*
X123547142Y-70523809D01*
X123594761Y-70476190D01*
X123642380Y-70380952D01*
X123642380Y-70190476D01*
X123594761Y-70095238D01*
X123547142Y-70047619D01*
X123451904Y-70000000D01*
X122642380Y-70000000D01*
X122642380Y-69666666D02*
X122642380Y-69095238D01*
X123642380Y-69380952D02*
X122642380Y-69380952D01*
X122642380Y-68904761D02*
X122642380Y-68333333D01*
X123642380Y-68619047D02*
X122642380Y-68619047D01*
X122642380Y-67809523D02*
X122642380Y-67619047D01*
X122690000Y-67523809D01*
X122785238Y-67428571D01*
X122975714Y-67380952D01*
X123309047Y-67380952D01*
X123499523Y-67428571D01*
X123594761Y-67523809D01*
X123642380Y-67619047D01*
X123642380Y-67809523D01*
X123594761Y-67904761D01*
X123499523Y-68000000D01*
X123309047Y-68047619D01*
X122975714Y-68047619D01*
X122785238Y-68000000D01*
X122690000Y-67904761D01*
X122642380Y-67809523D01*
X123642380Y-66952380D02*
X122642380Y-66952380D01*
X123642380Y-66380952D01*
X122642380Y-66380952D01*
X123594761Y-65952380D02*
X123642380Y-65809523D01*
X123642380Y-65571428D01*
X123594761Y-65476190D01*
X123547142Y-65428571D01*
X123451904Y-65380952D01*
X123356666Y-65380952D01*
X123261428Y-65428571D01*
X123213809Y-65476190D01*
X123166190Y-65571428D01*
X123118571Y-65761904D01*
X123070952Y-65857142D01*
X123023333Y-65904761D01*
X122928095Y-65952380D01*
X122832857Y-65952380D01*
X122737619Y-65904761D01*
X122690000Y-65857142D01*
X122642380Y-65761904D01*
X122642380Y-65523809D01*
X122690000Y-65380952D01*
X158250000Y-130809904D02*
X158202380Y-130905142D01*
X158202380Y-131048000D01*
X158250000Y-131190857D01*
X158345238Y-131286095D01*
X158440476Y-131333714D01*
X158630952Y-131381333D01*
X158773809Y-131381333D01*
X158964285Y-131333714D01*
X159059523Y-131286095D01*
X159154761Y-131190857D01*
X159202380Y-131048000D01*
X159202380Y-130952761D01*
X159154761Y-130809904D01*
X159107142Y-130762285D01*
X158773809Y-130762285D01*
X158773809Y-130952761D01*
X159202380Y-130333714D02*
X158202380Y-130333714D01*
X159202380Y-129762285D01*
X158202380Y-129762285D01*
X159202380Y-129286095D02*
X158202380Y-129286095D01*
X158202380Y-129048000D01*
X158250000Y-128905142D01*
X158345238Y-128809904D01*
X158440476Y-128762285D01*
X158630952Y-128714666D01*
X158773809Y-128714666D01*
X158964285Y-128762285D01*
X159059523Y-128809904D01*
X159154761Y-128905142D01*
X159202380Y-129048000D01*
X159202380Y-129286095D01*
X161361428Y-131333714D02*
X161361428Y-130571809D01*
X161742380Y-130952761D02*
X160980476Y-130952761D01*
X160742380Y-129619428D02*
X160742380Y-130095619D01*
X161218571Y-130143238D01*
X161170952Y-130095619D01*
X161123333Y-130000380D01*
X161123333Y-129762285D01*
X161170952Y-129667047D01*
X161218571Y-129619428D01*
X161313809Y-129571809D01*
X161551904Y-129571809D01*
X161647142Y-129619428D01*
X161694761Y-129667047D01*
X161742380Y-129762285D01*
X161742380Y-130000380D01*
X161694761Y-130095619D01*
X161647142Y-130143238D01*
X160742380Y-129286095D02*
X161742380Y-128952761D01*
X160742380Y-128619428D01*
X161361428Y-152161714D02*
X161361428Y-151399809D01*
X161742380Y-151780761D02*
X160980476Y-151780761D01*
X160742380Y-150447428D02*
X160742380Y-150923619D01*
X161218571Y-150971238D01*
X161170952Y-150923619D01*
X161123333Y-150828380D01*
X161123333Y-150590285D01*
X161170952Y-150495047D01*
X161218571Y-150447428D01*
X161313809Y-150399809D01*
X161551904Y-150399809D01*
X161647142Y-150447428D01*
X161694761Y-150495047D01*
X161742380Y-150590285D01*
X161742380Y-150828380D01*
X161694761Y-150923619D01*
X161647142Y-150971238D01*
X160742380Y-150114095D02*
X161742380Y-149780761D01*
X160742380Y-149447428D01*
X158250000Y-151637904D02*
X158202380Y-151733142D01*
X158202380Y-151876000D01*
X158250000Y-152018857D01*
X158345238Y-152114095D01*
X158440476Y-152161714D01*
X158630952Y-152209333D01*
X158773809Y-152209333D01*
X158964285Y-152161714D01*
X159059523Y-152114095D01*
X159154761Y-152018857D01*
X159202380Y-151876000D01*
X159202380Y-151780761D01*
X159154761Y-151637904D01*
X159107142Y-151590285D01*
X158773809Y-151590285D01*
X158773809Y-151780761D01*
X159202380Y-151161714D02*
X158202380Y-151161714D01*
X159202380Y-150590285D01*
X158202380Y-150590285D01*
X159202380Y-150114095D02*
X158202380Y-150114095D01*
X158202380Y-149876000D01*
X158250000Y-149733142D01*
X158345238Y-149637904D01*
X158440476Y-149590285D01*
X158630952Y-149542666D01*
X158773809Y-149542666D01*
X158964285Y-149590285D01*
X159059523Y-149637904D01*
X159154761Y-149733142D01*
X159202380Y-149876000D01*
X159202380Y-150114095D01*
%TO.C,R1*%
X161123333Y-88082380D02*
X160790000Y-87606190D01*
X160551904Y-88082380D02*
X160551904Y-87082380D01*
X160932857Y-87082380D01*
X161028095Y-87130000D01*
X161075714Y-87177619D01*
X161123333Y-87272857D01*
X161123333Y-87415714D01*
X161075714Y-87510952D01*
X161028095Y-87558571D01*
X160932857Y-87606190D01*
X160551904Y-87606190D01*
X162075714Y-88082380D02*
X161504285Y-88082380D01*
X161790000Y-88082380D02*
X161790000Y-87082380D01*
X161694761Y-87225238D01*
X161599523Y-87320476D01*
X161504285Y-87368095D01*
%TO.C,JP4*%
X155376666Y-125690380D02*
X155376666Y-126404666D01*
X155329047Y-126547523D01*
X155233809Y-126642761D01*
X155090952Y-126690380D01*
X154995714Y-126690380D01*
X155852857Y-126690380D02*
X155852857Y-125690380D01*
X156233809Y-125690380D01*
X156329047Y-125738000D01*
X156376666Y-125785619D01*
X156424285Y-125880857D01*
X156424285Y-126023714D01*
X156376666Y-126118952D01*
X156329047Y-126166571D01*
X156233809Y-126214190D01*
X155852857Y-126214190D01*
X157281428Y-126023714D02*
X157281428Y-126690380D01*
X157043333Y-125642761D02*
X156805238Y-126357047D01*
X157424285Y-126357047D01*
%TO.C,JP3*%
X155249666Y-133310380D02*
X155249666Y-134024666D01*
X155202047Y-134167523D01*
X155106809Y-134262761D01*
X154963952Y-134310380D01*
X154868714Y-134310380D01*
X155725857Y-134310380D02*
X155725857Y-133310380D01*
X156106809Y-133310380D01*
X156202047Y-133358000D01*
X156249666Y-133405619D01*
X156297285Y-133500857D01*
X156297285Y-133643714D01*
X156249666Y-133738952D01*
X156202047Y-133786571D01*
X156106809Y-133834190D01*
X155725857Y-133834190D01*
X156630619Y-133310380D02*
X157249666Y-133310380D01*
X156916333Y-133691333D01*
X157059190Y-133691333D01*
X157154428Y-133738952D01*
X157202047Y-133786571D01*
X157249666Y-133881809D01*
X157249666Y-134119904D01*
X157202047Y-134215142D01*
X157154428Y-134262761D01*
X157059190Y-134310380D01*
X156773476Y-134310380D01*
X156678238Y-134262761D01*
X156630619Y-134215142D01*
%TO.C,JP2*%
X155376666Y-146518380D02*
X155376666Y-147232666D01*
X155329047Y-147375523D01*
X155233809Y-147470761D01*
X155090952Y-147518380D01*
X154995714Y-147518380D01*
X155852857Y-147518380D02*
X155852857Y-146518380D01*
X156233809Y-146518380D01*
X156329047Y-146566000D01*
X156376666Y-146613619D01*
X156424285Y-146708857D01*
X156424285Y-146851714D01*
X156376666Y-146946952D01*
X156329047Y-146994571D01*
X156233809Y-147042190D01*
X155852857Y-147042190D01*
X156805238Y-146613619D02*
X156852857Y-146566000D01*
X156948095Y-146518380D01*
X157186190Y-146518380D01*
X157281428Y-146566000D01*
X157329047Y-146613619D01*
X157376666Y-146708857D01*
X157376666Y-146804095D01*
X157329047Y-146946952D01*
X156757619Y-147518380D01*
X157376666Y-147518380D01*
%TO.C,JP1*%
X155376666Y-154138380D02*
X155376666Y-154852666D01*
X155329047Y-154995523D01*
X155233809Y-155090761D01*
X155090952Y-155138380D01*
X154995714Y-155138380D01*
X155852857Y-155138380D02*
X155852857Y-154138380D01*
X156233809Y-154138380D01*
X156329047Y-154186000D01*
X156376666Y-154233619D01*
X156424285Y-154328857D01*
X156424285Y-154471714D01*
X156376666Y-154566952D01*
X156329047Y-154614571D01*
X156233809Y-154662190D01*
X155852857Y-154662190D01*
X157376666Y-155138380D02*
X156805238Y-155138380D01*
X157090952Y-155138380D02*
X157090952Y-154138380D01*
X156995714Y-154281238D01*
X156900476Y-154376476D01*
X156805238Y-154424095D01*
%TO.C,SW1*%
X147526666Y-30524761D02*
X147669523Y-30572380D01*
X147907619Y-30572380D01*
X148002857Y-30524761D01*
X148050476Y-30477142D01*
X148098095Y-30381904D01*
X148098095Y-30286666D01*
X148050476Y-30191428D01*
X148002857Y-30143809D01*
X147907619Y-30096190D01*
X147717142Y-30048571D01*
X147621904Y-30000952D01*
X147574285Y-29953333D01*
X147526666Y-29858095D01*
X147526666Y-29762857D01*
X147574285Y-29667619D01*
X147621904Y-29620000D01*
X147717142Y-29572380D01*
X147955238Y-29572380D01*
X148098095Y-29620000D01*
X148431428Y-29572380D02*
X148669523Y-30572380D01*
X148860000Y-29858095D01*
X149050476Y-30572380D01*
X149288571Y-29572380D01*
X150193333Y-30572380D02*
X149621904Y-30572380D01*
X149907619Y-30572380D02*
X149907619Y-29572380D01*
X149812380Y-29715238D01*
X149717142Y-29810476D01*
X149621904Y-29858095D01*
%TO.C,J5*%
X122536380Y-62563333D02*
X123250666Y-62563333D01*
X123393523Y-62610952D01*
X123488761Y-62706190D01*
X123536380Y-62849047D01*
X123536380Y-62944285D01*
X122536380Y-61610952D02*
X122536380Y-62087142D01*
X123012571Y-62134761D01*
X122964952Y-62087142D01*
X122917333Y-61991904D01*
X122917333Y-61753809D01*
X122964952Y-61658571D01*
X123012571Y-61610952D01*
X123107809Y-61563333D01*
X123345904Y-61563333D01*
X123441142Y-61610952D01*
X123488761Y-61658571D01*
X123536380Y-61753809D01*
X123536380Y-61991904D01*
X123488761Y-62087142D01*
X123441142Y-62134761D01*
%TO.C,Q3*%
X137064761Y-88355419D02*
X136969523Y-88307800D01*
X136874285Y-88212561D01*
X136731428Y-88069704D01*
X136636190Y-88022085D01*
X136540952Y-88022085D01*
X136588571Y-88260180D02*
X136493333Y-88212561D01*
X136398095Y-88117323D01*
X136350476Y-87926847D01*
X136350476Y-87593514D01*
X136398095Y-87403038D01*
X136493333Y-87307800D01*
X136588571Y-87260180D01*
X136779047Y-87260180D01*
X136874285Y-87307800D01*
X136969523Y-87403038D01*
X137017142Y-87593514D01*
X137017142Y-87926847D01*
X136969523Y-88117323D01*
X136874285Y-88212561D01*
X136779047Y-88260180D01*
X136588571Y-88260180D01*
X137350476Y-87260180D02*
X137969523Y-87260180D01*
X137636190Y-87641133D01*
X137779047Y-87641133D01*
X137874285Y-87688752D01*
X137921904Y-87736371D01*
X137969523Y-87831609D01*
X137969523Y-88069704D01*
X137921904Y-88164942D01*
X137874285Y-88212561D01*
X137779047Y-88260180D01*
X137493333Y-88260180D01*
X137398095Y-88212561D01*
X137350476Y-88164942D01*
%TO.C,Q4*%
X137064761Y-92417119D02*
X136969523Y-92369500D01*
X136874285Y-92274261D01*
X136731428Y-92131404D01*
X136636190Y-92083785D01*
X136540952Y-92083785D01*
X136588571Y-92321880D02*
X136493333Y-92274261D01*
X136398095Y-92179023D01*
X136350476Y-91988547D01*
X136350476Y-91655214D01*
X136398095Y-91464738D01*
X136493333Y-91369500D01*
X136588571Y-91321880D01*
X136779047Y-91321880D01*
X136874285Y-91369500D01*
X136969523Y-91464738D01*
X137017142Y-91655214D01*
X137017142Y-91988547D01*
X136969523Y-92179023D01*
X136874285Y-92274261D01*
X136779047Y-92321880D01*
X136588571Y-92321880D01*
X137874285Y-91655214D02*
X137874285Y-92321880D01*
X137636190Y-91274261D02*
X137398095Y-91988547D01*
X138017142Y-91988547D01*
%TO.C,BT1*%
X140819285Y-32948571D02*
X140962142Y-32996190D01*
X141009761Y-33043809D01*
X141057380Y-33139047D01*
X141057380Y-33281904D01*
X141009761Y-33377142D01*
X140962142Y-33424761D01*
X140866904Y-33472380D01*
X140485952Y-33472380D01*
X140485952Y-32472380D01*
X140819285Y-32472380D01*
X140914523Y-32520000D01*
X140962142Y-32567619D01*
X141009761Y-32662857D01*
X141009761Y-32758095D01*
X140962142Y-32853333D01*
X140914523Y-32900952D01*
X140819285Y-32948571D01*
X140485952Y-32948571D01*
X141343095Y-32472380D02*
X141914523Y-32472380D01*
X141628809Y-33472380D02*
X141628809Y-32472380D01*
X142771666Y-33472380D02*
X142200238Y-33472380D01*
X142485952Y-33472380D02*
X142485952Y-32472380D01*
X142390714Y-32615238D01*
X142295476Y-32710476D01*
X142200238Y-32758095D01*
%TO.C,J1*%
X146986666Y-38187380D02*
X146986666Y-38901666D01*
X146939047Y-39044523D01*
X146843809Y-39139761D01*
X146700952Y-39187380D01*
X146605714Y-39187380D01*
X147986666Y-39187380D02*
X147415238Y-39187380D01*
X147700952Y-39187380D02*
X147700952Y-38187380D01*
X147605714Y-38330238D01*
X147510476Y-38425476D01*
X147415238Y-38473095D01*
X142787619Y-42102738D02*
X141787619Y-42436071D01*
X142787619Y-42769404D01*
X141787619Y-43102738D02*
X142787619Y-43102738D01*
X141787619Y-43578928D02*
X142787619Y-43578928D01*
X141787619Y-44150357D01*
X142787619Y-44150357D01*
X147867619Y-42102738D02*
X146867619Y-42436071D01*
X147867619Y-42769404D01*
X147867619Y-43293214D02*
X147867619Y-43483690D01*
X147820000Y-43578928D01*
X147724761Y-43674166D01*
X147534285Y-43721785D01*
X147200952Y-43721785D01*
X147010476Y-43674166D01*
X146915238Y-43578928D01*
X146867619Y-43483690D01*
X146867619Y-43293214D01*
X146915238Y-43197976D01*
X147010476Y-43102738D01*
X147200952Y-43055119D01*
X147534285Y-43055119D01*
X147724761Y-43102738D01*
X147820000Y-43197976D01*
X147867619Y-43293214D01*
X147867619Y-44150357D02*
X147058095Y-44150357D01*
X146962857Y-44197976D01*
X146915238Y-44245595D01*
X146867619Y-44340833D01*
X146867619Y-44531309D01*
X146915238Y-44626547D01*
X146962857Y-44674166D01*
X147058095Y-44721785D01*
X147867619Y-44721785D01*
X147867619Y-45055119D02*
X147867619Y-45626547D01*
X146867619Y-45340833D02*
X147867619Y-45340833D01*
X145280000Y-42769404D02*
X145327619Y-42674166D01*
X145327619Y-42531309D01*
X145280000Y-42388452D01*
X145184761Y-42293214D01*
X145089523Y-42245595D01*
X144899047Y-42197976D01*
X144756190Y-42197976D01*
X144565714Y-42245595D01*
X144470476Y-42293214D01*
X144375238Y-42388452D01*
X144327619Y-42531309D01*
X144327619Y-42626547D01*
X144375238Y-42769404D01*
X144422857Y-42817023D01*
X144756190Y-42817023D01*
X144756190Y-42626547D01*
X144327619Y-43245595D02*
X145327619Y-43245595D01*
X144327619Y-43817023D01*
X145327619Y-43817023D01*
X144327619Y-44293214D02*
X145327619Y-44293214D01*
X145327619Y-44531309D01*
X145280000Y-44674166D01*
X145184761Y-44769404D01*
X145089523Y-44817023D01*
X144899047Y-44864642D01*
X144756190Y-44864642D01*
X144565714Y-44817023D01*
X144470476Y-44769404D01*
X144375238Y-44674166D01*
X144327619Y-44531309D01*
X144327619Y-44293214D01*
X140530000Y-42007500D02*
X140530000Y-42959880D01*
X139295238Y-42197976D02*
X139247619Y-42340833D01*
X139247619Y-42578928D01*
X139295238Y-42674166D01*
X139342857Y-42721785D01*
X139438095Y-42769404D01*
X139533333Y-42769404D01*
X139628571Y-42721785D01*
X139676190Y-42674166D01*
X139723809Y-42578928D01*
X139771428Y-42388452D01*
X139819047Y-42293214D01*
X139866666Y-42245595D01*
X139961904Y-42197976D01*
X140057142Y-42197976D01*
X140152380Y-42245595D01*
X140200000Y-42293214D01*
X140247619Y-42388452D01*
X140247619Y-42626547D01*
X140200000Y-42769404D01*
X140530000Y-42959880D02*
X140530000Y-44007500D01*
X139247619Y-43197976D02*
X140247619Y-43197976D01*
X139771428Y-43197976D02*
X139771428Y-43769404D01*
X139247619Y-43769404D02*
X140247619Y-43769404D01*
X140530000Y-44007500D02*
X140530000Y-45007500D01*
X139247619Y-44245595D02*
X140247619Y-44245595D01*
X140247619Y-44483690D01*
X140200000Y-44626547D01*
X140104761Y-44721785D01*
X140009523Y-44769404D01*
X139819047Y-44817023D01*
X139676190Y-44817023D01*
X139485714Y-44769404D01*
X139390476Y-44721785D01*
X139295238Y-44626547D01*
X139247619Y-44483690D01*
X139247619Y-44245595D01*
X140530000Y-45007500D02*
X140530000Y-46055119D01*
X139247619Y-45245595D02*
X140247619Y-45245595D01*
X139247619Y-45817023D01*
X140247619Y-45817023D01*
%TO.C,Q1*%
X137064761Y-80225119D02*
X136969523Y-80177500D01*
X136874285Y-80082261D01*
X136731428Y-79939404D01*
X136636190Y-79891785D01*
X136540952Y-79891785D01*
X136588571Y-80129880D02*
X136493333Y-80082261D01*
X136398095Y-79987023D01*
X136350476Y-79796547D01*
X136350476Y-79463214D01*
X136398095Y-79272738D01*
X136493333Y-79177500D01*
X136588571Y-79129880D01*
X136779047Y-79129880D01*
X136874285Y-79177500D01*
X136969523Y-79272738D01*
X137017142Y-79463214D01*
X137017142Y-79796547D01*
X136969523Y-79987023D01*
X136874285Y-80082261D01*
X136779047Y-80129880D01*
X136588571Y-80129880D01*
X137969523Y-80129880D02*
X137398095Y-80129880D01*
X137683809Y-80129880D02*
X137683809Y-79129880D01*
X137588571Y-79272738D01*
X137493333Y-79367976D01*
X137398095Y-79415595D01*
%TO.C,J4*%
X122494380Y-77803333D02*
X123208666Y-77803333D01*
X123351523Y-77850952D01*
X123446761Y-77946190D01*
X123494380Y-78089047D01*
X123494380Y-78184285D01*
X122827714Y-76898571D02*
X123494380Y-76898571D01*
X122446761Y-77136666D02*
X123161047Y-77374761D01*
X123161047Y-76755714D01*
%TO.C,U3*%
X136398095Y-114387380D02*
X136398095Y-115196904D01*
X136445714Y-115292142D01*
X136493333Y-115339761D01*
X136588571Y-115387380D01*
X136779047Y-115387380D01*
X136874285Y-115339761D01*
X136921904Y-115292142D01*
X136969523Y-115196904D01*
X136969523Y-114387380D01*
X137350476Y-114387380D02*
X137969523Y-114387380D01*
X137636190Y-114768333D01*
X137779047Y-114768333D01*
X137874285Y-114815952D01*
X137921904Y-114863571D01*
X137969523Y-114958809D01*
X137969523Y-115196904D01*
X137921904Y-115292142D01*
X137874285Y-115339761D01*
X137779047Y-115387380D01*
X137493333Y-115387380D01*
X137398095Y-115339761D01*
X137350476Y-115292142D01*
%TO.C,D1*%
X157376904Y-50617380D02*
X157376904Y-49617380D01*
X157615000Y-49617380D01*
X157757857Y-49665000D01*
X157853095Y-49760238D01*
X157900714Y-49855476D01*
X157948333Y-50045952D01*
X157948333Y-50188809D01*
X157900714Y-50379285D01*
X157853095Y-50474523D01*
X157757857Y-50569761D01*
X157615000Y-50617380D01*
X157376904Y-50617380D01*
X158900714Y-50617380D02*
X158329285Y-50617380D01*
X158615000Y-50617380D02*
X158615000Y-49617380D01*
X158519761Y-49760238D01*
X158424523Y-49855476D01*
X158329285Y-49903095D01*
%TO.C,J3*%
X151279666Y-42632380D02*
X151279666Y-43346666D01*
X151232047Y-43489523D01*
X151136809Y-43584761D01*
X150993952Y-43632380D01*
X150898714Y-43632380D01*
X151660619Y-42632380D02*
X152279666Y-42632380D01*
X151946333Y-43013333D01*
X152089190Y-43013333D01*
X152184428Y-43060952D01*
X152232047Y-43108571D01*
X152279666Y-43203809D01*
X152279666Y-43441904D01*
X152232047Y-43537142D01*
X152184428Y-43584761D01*
X152089190Y-43632380D01*
X151803476Y-43632380D01*
X151708238Y-43584761D01*
X151660619Y-43537142D01*
%TO.C,M1*%
X131262380Y-146605523D02*
X130262380Y-146605523D01*
X130976666Y-146272190D01*
X130262380Y-145938857D01*
X131262380Y-145938857D01*
X131262380Y-144938857D02*
X131262380Y-145510285D01*
X131262380Y-145224571D02*
X130262380Y-145224571D01*
X130405238Y-145319809D01*
X130500476Y-145415047D01*
X130548095Y-145510285D01*
%TO.C,J2*%
X129206666Y-38187380D02*
X129206666Y-38901666D01*
X129159047Y-39044523D01*
X129063809Y-39139761D01*
X128920952Y-39187380D01*
X128825714Y-39187380D01*
X129635238Y-38282619D02*
X129682857Y-38235000D01*
X129778095Y-38187380D01*
X130016190Y-38187380D01*
X130111428Y-38235000D01*
X130159047Y-38282619D01*
X130206666Y-38377857D01*
X130206666Y-38473095D01*
X130159047Y-38615952D01*
X129587619Y-39187380D01*
X130206666Y-39187380D01*
X127547619Y-42102738D02*
X126547619Y-42436071D01*
X127547619Y-42769404D01*
X126547619Y-43102738D02*
X127547619Y-43102738D01*
X126547619Y-43578928D02*
X127547619Y-43578928D01*
X126547619Y-44150357D01*
X127547619Y-44150357D01*
X129611428Y-42245595D02*
X129611428Y-42578928D01*
X129087619Y-42721785D02*
X129087619Y-42245595D01*
X130087619Y-42245595D01*
X130087619Y-42721785D01*
X129087619Y-43150357D02*
X130087619Y-43150357D01*
X129087619Y-43721785D01*
X130087619Y-43721785D01*
X119927619Y-42102738D02*
X118927619Y-42436071D01*
X119927619Y-42769404D01*
X119927619Y-43293214D02*
X119927619Y-43483690D01*
X119880000Y-43578928D01*
X119784761Y-43674166D01*
X119594285Y-43721785D01*
X119260952Y-43721785D01*
X119070476Y-43674166D01*
X118975238Y-43578928D01*
X118927619Y-43483690D01*
X118927619Y-43293214D01*
X118975238Y-43197976D01*
X119070476Y-43102738D01*
X119260952Y-43055119D01*
X119594285Y-43055119D01*
X119784761Y-43102738D01*
X119880000Y-43197976D01*
X119927619Y-43293214D01*
X119927619Y-44150357D02*
X119118095Y-44150357D01*
X119022857Y-44197976D01*
X118975238Y-44245595D01*
X118927619Y-44340833D01*
X118927619Y-44531309D01*
X118975238Y-44626547D01*
X119022857Y-44674166D01*
X119118095Y-44721785D01*
X119927619Y-44721785D01*
X119927619Y-45055119D02*
X119927619Y-45626547D01*
X118927619Y-45340833D02*
X119927619Y-45340833D01*
X123690000Y-42769404D02*
X123737619Y-42674166D01*
X123737619Y-42531309D01*
X123690000Y-42388452D01*
X123594761Y-42293214D01*
X123499523Y-42245595D01*
X123309047Y-42197976D01*
X123166190Y-42197976D01*
X122975714Y-42245595D01*
X122880476Y-42293214D01*
X122785238Y-42388452D01*
X122737619Y-42531309D01*
X122737619Y-42626547D01*
X122785238Y-42769404D01*
X122832857Y-42817023D01*
X123166190Y-42817023D01*
X123166190Y-42626547D01*
X122737619Y-43245595D02*
X123737619Y-43245595D01*
X122737619Y-43817023D01*
X123737619Y-43817023D01*
X122737619Y-44293214D02*
X123737619Y-44293214D01*
X123737619Y-44531309D01*
X123690000Y-44674166D01*
X123594761Y-44769404D01*
X123499523Y-44817023D01*
X123309047Y-44864642D01*
X123166190Y-44864642D01*
X122975714Y-44817023D01*
X122880476Y-44769404D01*
X122785238Y-44674166D01*
X122737619Y-44531309D01*
X122737619Y-44293214D01*
%TO.C,U1*%
X138303095Y-52792380D02*
X138303095Y-53601904D01*
X138350714Y-53697142D01*
X138398333Y-53744761D01*
X138493571Y-53792380D01*
X138684047Y-53792380D01*
X138779285Y-53744761D01*
X138826904Y-53697142D01*
X138874523Y-53601904D01*
X138874523Y-52792380D01*
X139874523Y-53792380D02*
X139303095Y-53792380D01*
X139588809Y-53792380D02*
X139588809Y-52792380D01*
X139493571Y-52935238D01*
X139398333Y-53030476D01*
X139303095Y-53078095D01*
%TO.C,M2*%
X131262380Y-125777523D02*
X130262380Y-125777523D01*
X130976666Y-125444190D01*
X130262380Y-125110857D01*
X131262380Y-125110857D01*
X130357619Y-124682285D02*
X130310000Y-124634666D01*
X130262380Y-124539428D01*
X130262380Y-124301333D01*
X130310000Y-124206095D01*
X130357619Y-124158476D01*
X130452857Y-124110857D01*
X130548095Y-124110857D01*
X130690952Y-124158476D01*
X131262380Y-124729904D01*
X131262380Y-124110857D01*
%TO.C,Q5*%
X137064761Y-96481119D02*
X136969523Y-96433500D01*
X136874285Y-96338261D01*
X136731428Y-96195404D01*
X136636190Y-96147785D01*
X136540952Y-96147785D01*
X136588571Y-96385880D02*
X136493333Y-96338261D01*
X136398095Y-96243023D01*
X136350476Y-96052547D01*
X136350476Y-95719214D01*
X136398095Y-95528738D01*
X136493333Y-95433500D01*
X136588571Y-95385880D01*
X136779047Y-95385880D01*
X136874285Y-95433500D01*
X136969523Y-95528738D01*
X137017142Y-95719214D01*
X137017142Y-96052547D01*
X136969523Y-96243023D01*
X136874285Y-96338261D01*
X136779047Y-96385880D01*
X136588571Y-96385880D01*
X137921904Y-95385880D02*
X137445714Y-95385880D01*
X137398095Y-95862071D01*
X137445714Y-95814452D01*
X137540952Y-95766833D01*
X137779047Y-95766833D01*
X137874285Y-95814452D01*
X137921904Y-95862071D01*
X137969523Y-95957309D01*
X137969523Y-96195404D01*
X137921904Y-96290642D01*
X137874285Y-96338261D01*
X137779047Y-96385880D01*
X137540952Y-96385880D01*
X137445714Y-96338261D01*
X137398095Y-96290642D01*
%TO.C,Q2*%
X137064761Y-84289119D02*
X136969523Y-84241500D01*
X136874285Y-84146261D01*
X136731428Y-84003404D01*
X136636190Y-83955785D01*
X136540952Y-83955785D01*
X136588571Y-84193880D02*
X136493333Y-84146261D01*
X136398095Y-84051023D01*
X136350476Y-83860547D01*
X136350476Y-83527214D01*
X136398095Y-83336738D01*
X136493333Y-83241500D01*
X136588571Y-83193880D01*
X136779047Y-83193880D01*
X136874285Y-83241500D01*
X136969523Y-83336738D01*
X137017142Y-83527214D01*
X137017142Y-83860547D01*
X136969523Y-84051023D01*
X136874285Y-84146261D01*
X136779047Y-84193880D01*
X136588571Y-84193880D01*
X137398095Y-83289119D02*
X137445714Y-83241500D01*
X137540952Y-83193880D01*
X137779047Y-83193880D01*
X137874285Y-83241500D01*
X137921904Y-83289119D01*
X137969523Y-83384357D01*
X137969523Y-83479595D01*
X137921904Y-83622452D01*
X137350476Y-84193880D01*
X137969523Y-84193880D01*
%TO.C,U2*%
X136398095Y-135088380D02*
X136398095Y-135897904D01*
X136445714Y-135993142D01*
X136493333Y-136040761D01*
X136588571Y-136088380D01*
X136779047Y-136088380D01*
X136874285Y-136040761D01*
X136921904Y-135993142D01*
X136969523Y-135897904D01*
X136969523Y-135088380D01*
X137398095Y-135183619D02*
X137445714Y-135136000D01*
X137540952Y-135088380D01*
X137779047Y-135088380D01*
X137874285Y-135136000D01*
X137921904Y-135183619D01*
X137969523Y-135278857D01*
X137969523Y-135374095D01*
X137921904Y-135516952D01*
X137350476Y-136088380D01*
X137969523Y-136088380D01*
D11*
%TO.C,R1*%
X160301000Y-89942936D02*
X160301000Y-90397064D01*
X161771000Y-89942936D02*
X161771000Y-90397064D01*
%TO.C,JP4*%
X161220000Y-125038000D02*
X160920000Y-124738000D01*
X161520000Y-124738000D02*
X160920000Y-124738000D01*
X157970000Y-126538000D02*
X157970000Y-125938000D01*
X161420000Y-127238000D02*
X158620000Y-127238000D01*
X162070000Y-125938000D02*
X162070000Y-126538000D01*
X158620000Y-125238000D02*
X161420000Y-125238000D01*
X161220000Y-125038000D02*
X161520000Y-124738000D01*
X161370000Y-127238000D02*
G75*
G03*
X162070000Y-126538000I1J699999D01*
G01*
X162070000Y-125938000D02*
G75*
G03*
X161370000Y-125238000I-699999J1D01*
G01*
X158670000Y-125238000D02*
G75*
G03*
X157970000Y-125938000I0J-700000D01*
G01*
X157970000Y-126538000D02*
G75*
G03*
X158670000Y-127238000I700000J0D01*
G01*
%TO.C,JP3*%
X158820000Y-135058000D02*
X159120000Y-135358000D01*
X158520000Y-135358000D02*
X159120000Y-135358000D01*
X162070000Y-133558000D02*
X162070000Y-134158000D01*
X158620000Y-132858000D02*
X161420000Y-132858000D01*
X157970000Y-134158000D02*
X157970000Y-133558000D01*
X161420000Y-134858000D02*
X158620000Y-134858000D01*
X158820000Y-135058000D02*
X158520000Y-135358000D01*
X158670000Y-132858000D02*
G75*
G03*
X157970000Y-133558000I-1J-699999D01*
G01*
X157970000Y-134158000D02*
G75*
G03*
X158670000Y-134858000I699999J-1D01*
G01*
X161370000Y-134858000D02*
G75*
G03*
X162070000Y-134158000I0J700000D01*
G01*
X162070000Y-133558000D02*
G75*
G03*
X161370000Y-132858000I-700000J0D01*
G01*
%TO.C,JP2*%
X161220000Y-145866000D02*
X160920000Y-145566000D01*
X161520000Y-145566000D02*
X160920000Y-145566000D01*
X157970000Y-147366000D02*
X157970000Y-146766000D01*
X161420000Y-148066000D02*
X158620000Y-148066000D01*
X162070000Y-146766000D02*
X162070000Y-147366000D01*
X158620000Y-146066000D02*
X161420000Y-146066000D01*
X161220000Y-145866000D02*
X161520000Y-145566000D01*
X161370000Y-148066000D02*
G75*
G03*
X162070000Y-147366000I1J699999D01*
G01*
X162070000Y-146766000D02*
G75*
G03*
X161370000Y-146066000I-699999J1D01*
G01*
X158670000Y-146066000D02*
G75*
G03*
X157970000Y-146766000I0J-700000D01*
G01*
X157970000Y-147366000D02*
G75*
G03*
X158670000Y-148066000I700000J0D01*
G01*
%TO.C,JP1*%
X158820000Y-155886000D02*
X159120000Y-156186000D01*
X158520000Y-156186000D02*
X159120000Y-156186000D01*
X162070000Y-154386000D02*
X162070000Y-154986000D01*
X158620000Y-153686000D02*
X161420000Y-153686000D01*
X157970000Y-154986000D02*
X157970000Y-154386000D01*
X161420000Y-155686000D02*
X158620000Y-155686000D01*
X158820000Y-155886000D02*
X158520000Y-156186000D01*
X158670000Y-153686000D02*
G75*
G03*
X157970000Y-154386000I-1J-699999D01*
G01*
X157970000Y-154986000D02*
G75*
G03*
X158670000Y-155686000I699999J-1D01*
G01*
X161370000Y-155686000D02*
G75*
G03*
X162070000Y-154986000I0J700000D01*
G01*
X162070000Y-154386000D02*
G75*
G03*
X161370000Y-153686000I-700000J0D01*
G01*
%TO.C,SW1*%
X145800000Y-32520000D02*
X146410000Y-32520000D01*
X151310000Y-31820000D02*
X149360000Y-31820000D01*
X146410000Y-31820000D02*
X146410000Y-35320000D01*
X148760000Y-34820000D02*
X148960000Y-34820000D01*
X151310000Y-35320000D02*
X151310000Y-31820000D01*
X145800000Y-31210000D02*
X145800000Y-35930000D01*
X145800000Y-35930000D02*
X151920000Y-35930000D01*
X148960000Y-34820000D02*
X148960000Y-35320000D01*
X146410000Y-35320000D02*
X151310000Y-35320000D01*
X149360000Y-31820000D02*
X149360000Y-31210000D01*
X147260000Y-31010000D02*
X147260000Y-31210000D01*
X146750000Y-30910000D02*
X145500000Y-30910000D01*
X151920000Y-31210000D02*
X145800000Y-31210000D01*
X147560000Y-31010000D02*
X147260000Y-31010000D01*
X147560000Y-31110000D02*
X147260000Y-31110000D01*
X148360000Y-31820000D02*
X146410000Y-31820000D01*
X151920000Y-33820000D02*
X151310000Y-33820000D01*
X145500000Y-30910000D02*
X145500000Y-32160000D01*
X148760000Y-35320000D02*
X148760000Y-34820000D01*
X147560000Y-31210000D02*
X147560000Y-31010000D01*
X148860000Y-35320000D02*
X148860000Y-34820000D01*
X148360000Y-31210000D02*
X148360000Y-31820000D01*
X151920000Y-32520000D02*
X151310000Y-32520000D01*
X151920000Y-35930000D02*
X151920000Y-31210000D01*
X145800000Y-33820000D02*
X146410000Y-33820000D01*
%TO.C,J5*%
X128284000Y-64500000D02*
X127784000Y-64500000D01*
X127784000Y-68400000D02*
X128284000Y-68400000D01*
X127784000Y-64600000D02*
X127784000Y-64400000D01*
X127784000Y-70400000D02*
X128284000Y-70400000D01*
X126784000Y-75560000D02*
X126784000Y-74950000D01*
X128284000Y-66600000D02*
X127784000Y-66600000D01*
X127784000Y-64400000D02*
X128284000Y-64400000D01*
X124174000Y-75560000D02*
X128894000Y-75560000D01*
X123974000Y-74100000D02*
X124174000Y-74100000D01*
X128284000Y-68500000D02*
X127784000Y-68500000D01*
X125484000Y-61440000D02*
X125484000Y-62050000D01*
X127784000Y-72600000D02*
X127784000Y-72400000D01*
X128284000Y-62050000D02*
X124784000Y-62050000D01*
X127784000Y-66400000D02*
X128284000Y-66400000D01*
X123874000Y-74610000D02*
X123874000Y-75860000D01*
X123974000Y-73800000D02*
X123974000Y-74100000D01*
X124784000Y-74950000D02*
X128284000Y-74950000D01*
X127784000Y-66600000D02*
X127784000Y-66400000D01*
X128284000Y-70600000D02*
X127784000Y-70600000D01*
X128284000Y-64600000D02*
X127784000Y-64600000D01*
X124784000Y-64000000D02*
X124174000Y-64000000D01*
X128284000Y-72500000D02*
X127784000Y-72500000D01*
X127784000Y-68600000D02*
X127784000Y-68400000D01*
X124784000Y-62050000D02*
X124784000Y-64000000D01*
X124074000Y-73800000D02*
X124074000Y-74100000D01*
X128284000Y-66500000D02*
X127784000Y-66500000D01*
X128894000Y-61440000D02*
X124174000Y-61440000D01*
X127784000Y-70600000D02*
X127784000Y-70400000D01*
X125484000Y-75560000D02*
X125484000Y-74950000D01*
X127784000Y-72400000D02*
X128284000Y-72400000D01*
X128284000Y-68600000D02*
X127784000Y-68600000D01*
X128284000Y-72600000D02*
X127784000Y-72600000D01*
X124174000Y-61440000D02*
X124174000Y-75560000D01*
X124784000Y-73000000D02*
X124784000Y-74950000D01*
X126784000Y-61440000D02*
X126784000Y-62050000D01*
X128894000Y-75560000D02*
X128894000Y-61440000D01*
X124174000Y-73000000D02*
X124784000Y-73000000D01*
X124174000Y-73800000D02*
X123974000Y-73800000D01*
X128284000Y-70500000D02*
X127784000Y-70500000D01*
X128284000Y-74950000D02*
X128284000Y-62050000D01*
X123874000Y-75860000D02*
X125124000Y-75860000D01*
%TO.C,Q3*%
X132890000Y-87805500D02*
X132890000Y-88455500D01*
X136010000Y-87805500D02*
X136010000Y-88455500D01*
X132890000Y-87805500D02*
X132890000Y-87155500D01*
X136010000Y-87805500D02*
X136010000Y-86130500D01*
%TO.C,Q4*%
X132890000Y-91869500D02*
X132890000Y-92519500D01*
X136010000Y-91869500D02*
X136010000Y-92519500D01*
X136010000Y-91869500D02*
X136010000Y-90194500D01*
X132890000Y-91869500D02*
X132890000Y-91219500D01*
%TO.C,BT1*%
X137080000Y-28870000D02*
X124230000Y-28870000D01*
X139930000Y-34620000D02*
X139930000Y-31470000D01*
X139930000Y-31470000D02*
X137080000Y-28870000D01*
X124230000Y-28870000D02*
X124230000Y-37170000D01*
X124230000Y-37170000D02*
X137080000Y-37170000D01*
X137080000Y-37170000D02*
X139930000Y-34620000D01*
D12*
%TO.C,J1*%
X148590000Y-39370000D02*
X147320000Y-39370000D01*
X148590000Y-39370000D02*
X148590000Y-40640000D01*
X138430000Y-39370000D02*
X146050000Y-39370000D01*
X148590000Y-52070000D02*
X138430000Y-52070000D01*
X148590000Y-41910000D02*
X148590000Y-52070000D01*
X138430000Y-52070000D02*
X138430000Y-39370000D01*
D11*
%TO.C,Q1*%
X132872000Y-79677500D02*
X132872000Y-80327500D01*
X135992000Y-79677500D02*
X135992000Y-78002500D01*
X132872000Y-79677500D02*
X132872000Y-79027500D01*
X135992000Y-79677500D02*
X135992000Y-80327500D01*
%TO.C,J4*%
X128242000Y-83920000D02*
X127742000Y-83920000D01*
X128242000Y-77370000D02*
X124742000Y-77370000D01*
X123832000Y-91180000D02*
X125082000Y-91180000D01*
X123932000Y-89420000D02*
X124132000Y-89420000D01*
X128242000Y-85820000D02*
X127742000Y-85820000D01*
X128852000Y-76760000D02*
X124132000Y-76760000D01*
X127742000Y-79720000D02*
X128242000Y-79720000D01*
X124132000Y-90880000D02*
X128852000Y-90880000D01*
X128242000Y-90270000D02*
X128242000Y-77370000D01*
X128242000Y-85920000D02*
X127742000Y-85920000D01*
X127742000Y-87920000D02*
X127742000Y-87720000D01*
X128242000Y-79820000D02*
X127742000Y-79820000D01*
X124132000Y-89120000D02*
X123932000Y-89120000D01*
X125442000Y-76760000D02*
X125442000Y-77370000D01*
X127742000Y-83920000D02*
X127742000Y-83720000D01*
X124032000Y-89120000D02*
X124032000Y-89420000D01*
X123832000Y-89930000D02*
X123832000Y-91180000D01*
X123932000Y-89120000D02*
X123932000Y-89420000D01*
X124132000Y-88320000D02*
X124742000Y-88320000D01*
X126742000Y-76760000D02*
X126742000Y-77370000D01*
X124742000Y-88320000D02*
X124742000Y-90270000D01*
X128242000Y-83820000D02*
X127742000Y-83820000D01*
X124742000Y-79320000D02*
X124132000Y-79320000D01*
X127742000Y-81920000D02*
X127742000Y-81720000D01*
X124742000Y-90270000D02*
X128242000Y-90270000D01*
X127742000Y-83720000D02*
X128242000Y-83720000D01*
X127742000Y-79920000D02*
X127742000Y-79720000D01*
X124132000Y-76760000D02*
X124132000Y-90880000D01*
X124742000Y-77370000D02*
X124742000Y-79320000D01*
X127742000Y-85720000D02*
X128242000Y-85720000D01*
X126742000Y-90880000D02*
X126742000Y-90270000D01*
X128242000Y-87920000D02*
X127742000Y-87920000D01*
X128242000Y-81920000D02*
X127742000Y-81920000D01*
X127742000Y-87720000D02*
X128242000Y-87720000D01*
X127742000Y-81720000D02*
X128242000Y-81720000D01*
X128242000Y-87820000D02*
X127742000Y-87820000D01*
X127742000Y-85920000D02*
X127742000Y-85720000D01*
X125442000Y-90880000D02*
X125442000Y-90270000D01*
X128242000Y-79920000D02*
X127742000Y-79920000D01*
X128242000Y-81820000D02*
X127742000Y-81820000D01*
X128852000Y-90880000D02*
X128852000Y-76760000D01*
D13*
%TO.C,U3*%
X154049500Y-135128000D02*
X138809500Y-135128000D01*
X138809500Y-114808000D02*
X154049500Y-114808000D01*
X154049500Y-114808000D02*
X154049500Y-135128000D01*
X138809500Y-135128000D02*
X138809500Y-114808000D01*
D14*
X138329500Y-116078000D02*
G75*
G03*
X138329500Y-116078000I-100000J0D01*
G01*
D11*
%TO.C,D1*%
X159123000Y-48767000D02*
X159123000Y-44882000D01*
X156853000Y-44882000D02*
X156853000Y-48767000D01*
X156853000Y-48767000D02*
X159123000Y-48767000D01*
%TO.C,J3*%
X152943000Y-49515000D02*
X150283000Y-49515000D01*
X152943000Y-44375000D02*
X150283000Y-44375000D01*
X152943000Y-49515000D02*
X152943000Y-44375000D01*
X151613000Y-52115000D02*
X150283000Y-52115000D01*
X150283000Y-52115000D02*
X150283000Y-50785000D01*
X150283000Y-49515000D02*
X150283000Y-44375000D01*
%TO.C,M1*%
X132743000Y-145696000D02*
X133243000Y-145696000D01*
X133243000Y-147896000D02*
X132743000Y-147896000D01*
X133243000Y-143896000D02*
X132743000Y-143896000D01*
X136953000Y-142496000D02*
X136953000Y-142196000D01*
X136243000Y-141346000D02*
X132743000Y-141346000D01*
X134243000Y-140736000D02*
X134243000Y-141346000D01*
X132133000Y-140736000D02*
X132133000Y-150856000D01*
X135543000Y-150856000D02*
X135543000Y-150246000D01*
X132743000Y-147796000D02*
X133243000Y-147796000D01*
X133243000Y-145696000D02*
X133243000Y-145896000D01*
X135543000Y-140736000D02*
X135543000Y-141346000D01*
X136853000Y-143296000D02*
X136243000Y-143296000D01*
X133243000Y-145896000D02*
X132743000Y-145896000D01*
X133243000Y-143696000D02*
X133243000Y-143896000D01*
X136243000Y-143296000D02*
X136243000Y-141346000D01*
X134243000Y-150856000D02*
X134243000Y-150246000D01*
X132743000Y-145796000D02*
X133243000Y-145796000D01*
X136243000Y-150246000D02*
X136243000Y-148296000D01*
X137053000Y-142496000D02*
X137053000Y-142196000D01*
X137053000Y-142196000D02*
X136853000Y-142196000D01*
X133243000Y-147696000D02*
X133243000Y-147896000D01*
X132743000Y-141346000D02*
X132743000Y-150246000D01*
X132743000Y-143696000D02*
X133243000Y-143696000D01*
X136243000Y-148296000D02*
X136853000Y-148296000D01*
X132133000Y-150856000D02*
X136853000Y-150856000D01*
X136853000Y-142496000D02*
X137053000Y-142496000D01*
X137153000Y-140436000D02*
X135903000Y-140436000D01*
X132743000Y-143796000D02*
X133243000Y-143796000D01*
X136853000Y-150856000D02*
X136853000Y-140736000D01*
X132743000Y-150246000D02*
X136243000Y-150246000D01*
X137153000Y-141686000D02*
X137153000Y-140436000D01*
X132743000Y-147696000D02*
X133243000Y-147696000D01*
X136853000Y-140736000D02*
X132133000Y-140736000D01*
D15*
%TO.C,J2*%
X135830000Y-59630000D02*
X118050000Y-59630000D01*
D11*
X128270000Y-39310000D02*
X118050000Y-39310000D01*
D15*
X135830000Y-39310000D02*
X135830000Y-59630000D01*
D11*
X129540000Y-39310000D02*
X130870000Y-39310000D01*
D15*
X118050000Y-59630000D02*
X118050000Y-39310000D01*
D11*
X130870000Y-39310000D02*
X130870000Y-40640000D01*
%TO.C,U1*%
X159471000Y-74710000D02*
X159471000Y-75110000D01*
X159471000Y-105510000D02*
X152671000Y-105510000D01*
X138471000Y-67110000D02*
X138471000Y-67510000D01*
X159471000Y-59510000D02*
X159471000Y-59910000D01*
X141478000Y-57177000D02*
X141478000Y-54510000D01*
X159471000Y-56910000D02*
X159471000Y-57310000D01*
X138471000Y-100110000D02*
X138471000Y-100510000D01*
X138471000Y-59510000D02*
X138471000Y-59910000D01*
X159471000Y-77310000D02*
X159471000Y-77710000D01*
X159471000Y-92510000D02*
X159471000Y-92910000D01*
X138471000Y-82310000D02*
X138471000Y-82710000D01*
X159471000Y-54510000D02*
X159471000Y-54810000D01*
X159471000Y-90010000D02*
X159471000Y-90410000D01*
X138471000Y-92510000D02*
X138471000Y-92910000D01*
X159471000Y-64610000D02*
X159471000Y-65010000D01*
X159471000Y-100110000D02*
X159471000Y-100510000D01*
X138471000Y-69610000D02*
X138471000Y-70010000D01*
X159471000Y-97610000D02*
X159471000Y-98010000D01*
X159471000Y-67110000D02*
X159471000Y-67510000D01*
X159471000Y-82310000D02*
X159471000Y-82710000D01*
X138471000Y-74710000D02*
X138471000Y-75110000D01*
X138471000Y-62010000D02*
X138471000Y-62410000D01*
X159471000Y-69610000D02*
X159471000Y-70010000D01*
X138471000Y-54510000D02*
X138471000Y-54810000D01*
X138471000Y-57177000D02*
X141478000Y-57177000D01*
X145271000Y-105510000D02*
X138471000Y-105510000D01*
X159471000Y-84910000D02*
X159471000Y-85310000D01*
X138471000Y-102710000D02*
X138471000Y-103110000D01*
X138471000Y-84910000D02*
X138471000Y-85310000D01*
X138471000Y-54510000D02*
X159471000Y-54510000D01*
X138471000Y-56910000D02*
X138471000Y-57310000D01*
X138471000Y-97610000D02*
X138471000Y-98010000D01*
X138471000Y-64610000D02*
X138471000Y-65010000D01*
X159471000Y-87410000D02*
X159471000Y-87810000D01*
X159471000Y-72210000D02*
X159471000Y-72610000D01*
X159471000Y-95110000D02*
X159471000Y-95510000D01*
X159471000Y-62010000D02*
X159471000Y-62410000D01*
X138471000Y-77310000D02*
X138471000Y-77710000D01*
X138471000Y-72210000D02*
X138471000Y-72610000D01*
X159471000Y-102710000D02*
X159471000Y-103110000D01*
X138471000Y-87410000D02*
X138471000Y-87810000D01*
X138471000Y-95110000D02*
X138471000Y-95510000D01*
X138471000Y-90010000D02*
X138471000Y-90410000D01*
X159471000Y-79810000D02*
X159471000Y-80210000D01*
X138471000Y-79810000D02*
X138471000Y-80210000D01*
%TO.C,M2*%
X132133000Y-130028000D02*
X136853000Y-130028000D01*
X132743000Y-126868000D02*
X133243000Y-126868000D01*
X136853000Y-119908000D02*
X132133000Y-119908000D01*
X132743000Y-126968000D02*
X133243000Y-126968000D01*
X137053000Y-121668000D02*
X137053000Y-121368000D01*
X133243000Y-125068000D02*
X132743000Y-125068000D01*
X137153000Y-120858000D02*
X137153000Y-119608000D01*
X132743000Y-129418000D02*
X136243000Y-129418000D01*
X136243000Y-129418000D02*
X136243000Y-127468000D01*
X136953000Y-121668000D02*
X136953000Y-121368000D01*
X136853000Y-121668000D02*
X137053000Y-121668000D01*
X133243000Y-126868000D02*
X133243000Y-127068000D01*
X132743000Y-124968000D02*
X133243000Y-124968000D01*
X136243000Y-122468000D02*
X136243000Y-120518000D01*
X134243000Y-130028000D02*
X134243000Y-129418000D01*
X133243000Y-127068000D02*
X132743000Y-127068000D01*
X137153000Y-119608000D02*
X135903000Y-119608000D01*
X132743000Y-124868000D02*
X133243000Y-124868000D01*
X137053000Y-121368000D02*
X136853000Y-121368000D01*
X136243000Y-127468000D02*
X136853000Y-127468000D01*
X133243000Y-123068000D02*
X132743000Y-123068000D01*
X133243000Y-122868000D02*
X133243000Y-123068000D01*
X136853000Y-122468000D02*
X136243000Y-122468000D01*
X135543000Y-119908000D02*
X135543000Y-120518000D01*
X136853000Y-130028000D02*
X136853000Y-119908000D01*
X133243000Y-124868000D02*
X133243000Y-125068000D01*
X136243000Y-120518000D02*
X132743000Y-120518000D01*
X132743000Y-120518000D02*
X132743000Y-129418000D01*
X132743000Y-122968000D02*
X133243000Y-122968000D01*
X132133000Y-119908000D02*
X132133000Y-130028000D01*
X135543000Y-130028000D02*
X135543000Y-129418000D01*
X134243000Y-119908000D02*
X134243000Y-120518000D01*
X132743000Y-122868000D02*
X133243000Y-122868000D01*
%TO.C,Q5*%
X132890000Y-95933500D02*
X132890000Y-96583500D01*
X136010000Y-95933500D02*
X136010000Y-96583500D01*
X136010000Y-95933500D02*
X136010000Y-94258500D01*
X132890000Y-95933500D02*
X132890000Y-95283500D01*
%TO.C,Q2*%
X132890000Y-83741500D02*
X132890000Y-84391500D01*
X132890000Y-83741500D02*
X132890000Y-83091500D01*
X136010000Y-83741500D02*
X136010000Y-84391500D01*
X136010000Y-83741500D02*
X136010000Y-82066500D01*
D13*
%TO.C,U2*%
X154051000Y-155956000D02*
X138811000Y-155956000D01*
X138811000Y-135636000D02*
X154051000Y-135636000D01*
X154051000Y-135636000D02*
X154051000Y-155956000D01*
X138811000Y-155956000D02*
X138811000Y-135636000D01*
D14*
X138331000Y-136906000D02*
G75*
G03*
X138331000Y-136906000I-100000J0D01*
G01*
%TD*%
M02*
