%TF.GenerationSoftware,KiCad,Pcbnew,(6.0.11)*%
%TF.CreationDate,2023-04-04T20:38:18-04:00*%
%TF.ProjectId,ProtogenBackpackPCB,50726f74-6f67-4656-9e42-61636b706163,rev?*%
%TF.SameCoordinates,Original*%
%TF.FileFunction,Soldermask,Top*%
%TF.FilePolarity,Negative*%
%FSLAX46Y46*%
G04 Gerber Fmt 4.6, Leading zero omitted, Abs format (unit mm)*
G04 Created by KiCad (PCBNEW (6.0.11)) date 2023-04-04 20:38:18*
%MOMM*%
%LPD*%
G01*
G04 APERTURE LIST*
G04 Aperture macros list*
%AMRoundRect*
0 Rectangle with rounded corners*
0 $1 Rounding radius*
0 $2 $3 $4 $5 $6 $7 $8 $9 X,Y pos of 4 corners*
0 Add a 4 corners polygon primitive as box body*
4,1,4,$2,$3,$4,$5,$6,$7,$8,$9,$2,$3,0*
0 Add four circle primitives for the rounded corners*
1,1,$1+$1,$2,$3*
1,1,$1+$1,$4,$5*
1,1,$1+$1,$6,$7*
1,1,$1+$1,$8,$9*
0 Add four rect primitives between the rounded corners*
20,1,$1+$1,$2,$3,$4,$5,0*
20,1,$1+$1,$4,$5,$6,$7,0*
20,1,$1+$1,$6,$7,$8,$9,0*
20,1,$1+$1,$8,$9,$2,$3,0*%
%AMFreePoly0*
4,1,22,0.550000,-0.750000,0.000000,-0.750000,0.000000,-0.745033,-0.079941,-0.743568,-0.215256,-0.701293,-0.333266,-0.622738,-0.424486,-0.514219,-0.481581,-0.384460,-0.499164,-0.250000,-0.500000,-0.250000,-0.500000,0.250000,-0.499164,0.250000,-0.499963,0.256109,-0.478152,0.396186,-0.417904,0.524511,-0.324060,0.630769,-0.204165,0.706417,-0.067858,0.745374,0.000000,0.744959,0.000000,0.750000,
0.550000,0.750000,0.550000,-0.750000,0.550000,-0.750000,$1*%
%AMFreePoly1*
4,1,20,0.000000,0.744959,0.073905,0.744508,0.209726,0.703889,0.328688,0.626782,0.421226,0.519385,0.479903,0.390333,0.500000,0.250000,0.500000,-0.250000,0.499851,-0.262216,0.476331,-0.402017,0.414519,-0.529596,0.319384,-0.634700,0.198574,-0.708877,0.061801,-0.746166,0.000000,-0.745033,0.000000,-0.750000,-0.550000,-0.750000,-0.550000,0.750000,0.000000,0.750000,0.000000,0.744959,
0.000000,0.744959,$1*%
G04 Aperture macros list end*
%ADD10RoundRect,0.250000X-0.450000X0.262500X-0.450000X-0.262500X0.450000X-0.262500X0.450000X0.262500X0*%
%ADD11FreePoly0,180.000000*%
%ADD12R,1.000000X1.500000*%
%ADD13FreePoly1,180.000000*%
%ADD14FreePoly0,0.000000*%
%ADD15FreePoly1,0.000000*%
%ADD16RoundRect,0.250000X-0.350000X-0.625000X0.350000X-0.625000X0.350000X0.625000X-0.350000X0.625000X0*%
%ADD17O,1.200000X1.750000*%
%ADD18RoundRect,0.250000X0.625000X-0.350000X0.625000X0.350000X-0.625000X0.350000X-0.625000X-0.350000X0*%
%ADD19O,1.750000X1.200000*%
%ADD20RoundRect,0.150000X-0.150000X0.587500X-0.150000X-0.587500X0.150000X-0.587500X0.150000X0.587500X0*%
%ADD21RoundRect,1.500000X1.500000X1.500000X-1.500000X1.500000X-1.500000X-1.500000X1.500000X-1.500000X0*%
%ADD22C,6.000000*%
%ADD23R,1.700000X1.700000*%
%ADD24O,1.700000X1.700000*%
%ADD25R,1.508000X1.508000*%
%ADD26C,1.508000*%
%ADD27RoundRect,0.250000X0.625000X-0.375000X0.625000X0.375000X-0.625000X0.375000X-0.625000X-0.375000X0*%
%ADD28RoundRect,0.250000X-0.625000X0.350000X-0.625000X-0.350000X0.625000X-0.350000X0.625000X0.350000X0*%
G04 APERTURE END LIST*
D10*
%TO.C,R1*%
X161036000Y-91082500D03*
X161036000Y-89257500D03*
%TD*%
D11*
%TO.C,JP4*%
X161320000Y-126238000D03*
D12*
X160020000Y-126238000D03*
D13*
X158720000Y-126238000D03*
%TD*%
D14*
%TO.C,JP3*%
X158720000Y-133858000D03*
D12*
X160020000Y-133858000D03*
D15*
X161320000Y-133858000D03*
%TD*%
D11*
%TO.C,JP2*%
X161320000Y-147066000D03*
D12*
X160020000Y-147066000D03*
D13*
X158720000Y-147066000D03*
%TD*%
D14*
%TO.C,JP1*%
X158720000Y-154686000D03*
D12*
X160020000Y-154686000D03*
D15*
X161320000Y-154686000D03*
%TD*%
D16*
%TO.C,SW1*%
X147860000Y-33020000D03*
D17*
X149860000Y-33020000D03*
%TD*%
D18*
%TO.C,J5*%
X125984000Y-73500000D03*
D19*
X125984000Y-71500000D03*
X125984000Y-69500000D03*
X125984000Y-67500000D03*
X125984000Y-65500000D03*
X125984000Y-63500000D03*
%TD*%
D20*
%TO.C,Q3*%
X135400000Y-86868000D03*
X133500000Y-86868000D03*
X134450000Y-88743000D03*
%TD*%
%TO.C,Q4*%
X135400000Y-90932000D03*
X133500000Y-90932000D03*
X134450000Y-92807000D03*
%TD*%
D21*
%TO.C,BT1*%
X135680000Y-33020000D03*
D22*
X128480000Y-33020000D03*
%TD*%
D23*
%TO.C,J1*%
X147320000Y-40640000D03*
D24*
X144780000Y-40640000D03*
X142240000Y-40640000D03*
X139700000Y-40640000D03*
%TD*%
D20*
%TO.C,Q1*%
X135382000Y-78740000D03*
X133482000Y-78740000D03*
X134432000Y-80615000D03*
%TD*%
D18*
%TO.C,J4*%
X125942000Y-88820000D03*
D19*
X125942000Y-86820000D03*
X125942000Y-84820000D03*
X125942000Y-82820000D03*
X125942000Y-80820000D03*
X125942000Y-78820000D03*
%TD*%
D25*
%TO.C,U3*%
X140079500Y-116078000D03*
D26*
X140079500Y-118618000D03*
X140079500Y-121158000D03*
X140079500Y-123698000D03*
X140079500Y-126238000D03*
X140079500Y-128778000D03*
X140079500Y-131318000D03*
X140079500Y-133858000D03*
X152779500Y-116078000D03*
X152779500Y-118618000D03*
X152779500Y-121158000D03*
X152779500Y-123698000D03*
X152779500Y-126238000D03*
X152779500Y-128778000D03*
X152779500Y-131318000D03*
X152779500Y-133858000D03*
%TD*%
D27*
%TO.C,D1*%
X157988000Y-47882000D03*
X157988000Y-45082000D03*
%TD*%
D23*
%TO.C,J3*%
X151613000Y-50785000D03*
D24*
X151613000Y-48245000D03*
X151613000Y-45705000D03*
%TD*%
D28*
%TO.C,M1*%
X135043000Y-142796000D03*
D19*
X135043000Y-144796000D03*
X135043000Y-146796000D03*
X135043000Y-148796000D03*
%TD*%
D23*
%TO.C,J2*%
X129540000Y-40640000D03*
D24*
X127000000Y-40640000D03*
X124460000Y-40640000D03*
X121920000Y-40640000D03*
X119380000Y-40640000D03*
%TD*%
%TO.C,U1*%
X140081000Y-55880000D03*
X140081000Y-58420000D03*
D23*
X140081000Y-60960000D03*
D24*
X140081000Y-63500000D03*
X140081000Y-66040000D03*
X140081000Y-68580000D03*
X140081000Y-71120000D03*
D23*
X140081000Y-73660000D03*
D24*
X140081000Y-76200000D03*
X140081000Y-78740000D03*
X140081000Y-81280000D03*
X140081000Y-83820000D03*
D23*
X140081000Y-86360000D03*
D24*
X140081000Y-88900000D03*
X140081000Y-91440000D03*
X140081000Y-93980000D03*
X140081000Y-96520000D03*
D23*
X140081000Y-99060000D03*
D24*
X140081000Y-101600000D03*
X140081000Y-104140000D03*
X157861000Y-104140000D03*
X157861000Y-101600000D03*
D23*
X157861000Y-99060000D03*
D24*
X157861000Y-96520000D03*
X157861000Y-93980000D03*
X157861000Y-91440000D03*
X157861000Y-88900000D03*
D23*
X157861000Y-86360000D03*
D24*
X157861000Y-83820000D03*
X157861000Y-81280000D03*
X157861000Y-78740000D03*
X157861000Y-76200000D03*
D23*
X157861000Y-73660000D03*
D24*
X157861000Y-71120000D03*
X157861000Y-68580000D03*
X157861000Y-66040000D03*
X157861000Y-63500000D03*
D23*
X157861000Y-60960000D03*
D24*
X157861000Y-58420000D03*
X157861000Y-55880000D03*
%TD*%
D28*
%TO.C,M2*%
X135043000Y-121968000D03*
D19*
X135043000Y-123968000D03*
X135043000Y-125968000D03*
X135043000Y-127968000D03*
%TD*%
D20*
%TO.C,Q5*%
X135400000Y-94996000D03*
X133500000Y-94996000D03*
X134450000Y-96871000D03*
%TD*%
%TO.C,Q2*%
X135400000Y-82804000D03*
X133500000Y-82804000D03*
X134450000Y-84679000D03*
%TD*%
D25*
%TO.C,U2*%
X140081000Y-136906000D03*
D26*
X140081000Y-139446000D03*
X140081000Y-141986000D03*
X140081000Y-144526000D03*
X140081000Y-147066000D03*
X140081000Y-149606000D03*
X140081000Y-152146000D03*
X140081000Y-154686000D03*
X152781000Y-136906000D03*
X152781000Y-139446000D03*
X152781000Y-141986000D03*
X152781000Y-144526000D03*
X152781000Y-147066000D03*
X152781000Y-149606000D03*
X152781000Y-152146000D03*
X152781000Y-154686000D03*
%TD*%
M02*
