%TF.GenerationSoftware,KiCad,Pcbnew,(6.0.11)*%
%TF.CreationDate,2023-04-04T20:38:18-04:00*%
%TF.ProjectId,ProtogenBackpackPCB,50726f74-6f67-4656-9e42-61636b706163,rev?*%
%TF.SameCoordinates,Original*%
%TF.FileFunction,Copper,L2,Bot*%
%TF.FilePolarity,Positive*%
%FSLAX46Y46*%
G04 Gerber Fmt 4.6, Leading zero omitted, Abs format (unit mm)*
G04 Created by KiCad (PCBNEW (6.0.11)) date 2023-04-04 20:38:18*
%MOMM*%
%LPD*%
G01*
G04 APERTURE LIST*
G04 Aperture macros list*
%AMRoundRect*
0 Rectangle with rounded corners*
0 $1 Rounding radius*
0 $2 $3 $4 $5 $6 $7 $8 $9 X,Y pos of 4 corners*
0 Add a 4 corners polygon primitive as box body*
4,1,4,$2,$3,$4,$5,$6,$7,$8,$9,$2,$3,0*
0 Add four circle primitives for the rounded corners*
1,1,$1+$1,$2,$3*
1,1,$1+$1,$4,$5*
1,1,$1+$1,$6,$7*
1,1,$1+$1,$8,$9*
0 Add four rect primitives between the rounded corners*
20,1,$1+$1,$2,$3,$4,$5,0*
20,1,$1+$1,$4,$5,$6,$7,0*
20,1,$1+$1,$6,$7,$8,$9,0*
20,1,$1+$1,$8,$9,$2,$3,0*%
G04 Aperture macros list end*
%TA.AperFunction,ComponentPad*%
%ADD10RoundRect,0.250000X-0.350000X-0.625000X0.350000X-0.625000X0.350000X0.625000X-0.350000X0.625000X0*%
%TD*%
%TA.AperFunction,ComponentPad*%
%ADD11O,1.200000X1.750000*%
%TD*%
%TA.AperFunction,ComponentPad*%
%ADD12RoundRect,0.250000X0.625000X-0.350000X0.625000X0.350000X-0.625000X0.350000X-0.625000X-0.350000X0*%
%TD*%
%TA.AperFunction,ComponentPad*%
%ADD13O,1.750000X1.200000*%
%TD*%
%TA.AperFunction,ComponentPad*%
%ADD14RoundRect,1.500000X1.500000X1.500000X-1.500000X1.500000X-1.500000X-1.500000X1.500000X-1.500000X0*%
%TD*%
%TA.AperFunction,ComponentPad*%
%ADD15C,6.000000*%
%TD*%
%TA.AperFunction,ComponentPad*%
%ADD16R,1.700000X1.700000*%
%TD*%
%TA.AperFunction,ComponentPad*%
%ADD17O,1.700000X1.700000*%
%TD*%
%TA.AperFunction,ComponentPad*%
%ADD18R,1.508000X1.508000*%
%TD*%
%TA.AperFunction,ComponentPad*%
%ADD19C,1.508000*%
%TD*%
%TA.AperFunction,ComponentPad*%
%ADD20RoundRect,0.250000X-0.625000X0.350000X-0.625000X-0.350000X0.625000X-0.350000X0.625000X0.350000X0*%
%TD*%
%TA.AperFunction,ViaPad*%
%ADD21C,0.800000*%
%TD*%
%TA.AperFunction,ViaPad*%
%ADD22C,0.812800*%
%TD*%
%TA.AperFunction,Conductor*%
%ADD23C,0.635000*%
%TD*%
%TA.AperFunction,Conductor*%
%ADD24C,0.250000*%
%TD*%
%TA.AperFunction,Conductor*%
%ADD25C,1.016000*%
%TD*%
%TA.AperFunction,Conductor*%
%ADD26C,0.254000*%
%TD*%
G04 APERTURE END LIST*
D10*
%TO.P,SW1,1,A*%
%TO.N,Net-(BT1-Pad1)*%
X147860000Y-33020000D03*
D11*
%TO.P,SW1,2,B*%
%TO.N,+BATT*%
X149860000Y-33020000D03*
%TD*%
D12*
%TO.P,J5,1,Pin_1*%
%TO.N,GND*%
X125984000Y-73500000D03*
D13*
%TO.P,J5,2,Pin_2*%
%TO.N,BUTTON_4*%
X125984000Y-71500000D03*
%TO.P,J5,3,Pin_3*%
%TO.N,BUTTON_3*%
X125984000Y-69500000D03*
%TO.P,J5,4,Pin_4*%
%TO.N,BUTTON_2*%
X125984000Y-67500000D03*
%TO.P,J5,5,Pin_5*%
%TO.N,BUTTON_1*%
X125984000Y-65500000D03*
%TO.P,J5,6,Pin_6*%
%TO.N,BUTTON_0*%
X125984000Y-63500000D03*
%TD*%
D14*
%TO.P,BT1,1,+*%
%TO.N,Net-(BT1-Pad1)*%
X135680000Y-33020000D03*
D15*
%TO.P,BT1,2,-*%
%TO.N,GND*%
X128480000Y-33020000D03*
%TD*%
D16*
%TO.P,J1,1,Pin_1*%
%TO.N,VDD*%
X147320000Y-40640000D03*
D17*
%TO.P,J1,2,Pin_2*%
%TO.N,GND*%
X144780000Y-40640000D03*
%TO.P,J1,3,Pin_3*%
%TO.N,+BATT*%
X142240000Y-40640000D03*
%TO.P,J1,4,Pin_4*%
%TO.N,/~{SHDN}*%
X139700000Y-40640000D03*
%TD*%
D12*
%TO.P,J4,1,Pin_1*%
%TO.N,+12V*%
X125942000Y-88820000D03*
D13*
%TO.P,J4,2,Pin_2*%
%TO.N,Net-(J4-Pad2)*%
X125942000Y-86820000D03*
%TO.P,J4,3,Pin_3*%
%TO.N,Net-(J4-Pad3)*%
X125942000Y-84820000D03*
%TO.P,J4,4,Pin_4*%
%TO.N,Net-(J4-Pad4)*%
X125942000Y-82820000D03*
%TO.P,J4,5,Pin_5*%
%TO.N,Net-(J4-Pad5)*%
X125942000Y-80820000D03*
%TO.P,J4,6,Pin_6*%
%TO.N,Net-(J4-Pad6)*%
X125942000Y-78820000D03*
%TD*%
D18*
%TO.P,U3,1,GND*%
%TO.N,GND*%
X140079500Y-116078000D03*
D19*
%TO.P,U3,2,VIO*%
%TO.N,VDD*%
X140079500Y-118618000D03*
%TO.P,U3,3,M1B*%
%TO.N,M2A-*%
X140079500Y-121158000D03*
%TO.P,U3,4,M1A*%
%TO.N,M2A+*%
X140079500Y-123698000D03*
%TO.P,U3,5,M2A*%
%TO.N,M2B+*%
X140079500Y-126238000D03*
%TO.P,U3,6,M2B*%
%TO.N,M2B-*%
X140079500Y-128778000D03*
%TO.P,U3,7,GND*%
%TO.N,GND*%
X140079500Y-131318000D03*
%TO.P,U3,8,VM*%
%TO.N,+12V*%
X140079500Y-133858000D03*
%TO.P,U3,9,DIR*%
%TO.N,BOT_DIR*%
X152779500Y-116078000D03*
%TO.P,U3,10,STEP*%
%TO.N,BOT_REEL_STEP*%
X152779500Y-118618000D03*
%TO.P,U3,11,PDN*%
%TO.N,GND*%
X152779500Y-121158000D03*
%TO.P,U3,12,UART*%
%TO.N,STEPPER_UART*%
X152779500Y-123698000D03*
%TO.P,U3,13,SPRD*%
%TO.N,GND*%
X152779500Y-126238000D03*
%TO.P,U3,14,MS2*%
%TO.N,M1_MS2*%
X152779500Y-128778000D03*
%TO.P,U3,15,MS1*%
%TO.N,M1_MS1*%
X152779500Y-131318000D03*
%TO.P,U3,16,~{EN}*%
%TO.N,REEL_~{EN}*%
X152779500Y-133858000D03*
%TD*%
D16*
%TO.P,J3,1,Pin_1*%
%TO.N,DBG_UART_TX*%
X151613000Y-50785000D03*
D17*
%TO.P,J3,2,Pin_2*%
%TO.N,GND*%
X151613000Y-48245000D03*
%TO.P,J3,3,Pin_3*%
%TO.N,DBG_UART_RX*%
X151613000Y-45705000D03*
%TD*%
D20*
%TO.P,M1,1,Pin_1*%
%TO.N,M1A-*%
X135043000Y-142796000D03*
D13*
%TO.P,M1,2,Pin_2*%
%TO.N,M1A+*%
X135043000Y-144796000D03*
%TO.P,M1,3,Pin_3*%
%TO.N,M1B+*%
X135043000Y-146796000D03*
%TO.P,M1,4,Pin_4*%
%TO.N,M1B-*%
X135043000Y-148796000D03*
%TD*%
D16*
%TO.P,J2,1,Pin_1*%
%TO.N,/EN*%
X129540000Y-40640000D03*
D17*
%TO.P,J2,2,Pin_2*%
%TO.N,+BATT*%
X127000000Y-40640000D03*
%TO.P,J2,3,Pin_3*%
%TO.N,GND*%
X124460000Y-40640000D03*
%TO.P,J2,4,Pin_4*%
X121920000Y-40640000D03*
%TO.P,J2,5,Pin_5*%
%TO.N,+12V*%
X119380000Y-40640000D03*
%TD*%
%TO.P,U1,1,GPIO0*%
%TO.N,DBG_UART_RX*%
X140081000Y-55880000D03*
%TO.P,U1,2,GPIO1*%
%TO.N,DBG_UART_TX*%
X140081000Y-58420000D03*
D16*
%TO.P,U1,3,GND*%
%TO.N,GND*%
X140081000Y-60960000D03*
D17*
%TO.P,U1,4,GPIO2*%
%TO.N,BUTTON_0*%
X140081000Y-63500000D03*
%TO.P,U1,5,GPIO3*%
%TO.N,BUTTON_1*%
X140081000Y-66040000D03*
%TO.P,U1,6,GPIO4*%
%TO.N,BUTTON_2*%
X140081000Y-68580000D03*
%TO.P,U1,7,GPIO5*%
%TO.N,BUTTON_3*%
X140081000Y-71120000D03*
D16*
%TO.P,U1,8,GND*%
%TO.N,GND*%
X140081000Y-73660000D03*
D17*
%TO.P,U1,9,GPIO6*%
%TO.N,BUTTON_4*%
X140081000Y-76200000D03*
%TO.P,U1,10,GPIO7*%
%TO.N,Light_0*%
X140081000Y-78740000D03*
%TO.P,U1,11,GPIO8*%
%TO.N,Light_1*%
X140081000Y-81280000D03*
%TO.P,U1,12,GPIO9*%
%TO.N,Light_2*%
X140081000Y-83820000D03*
D16*
%TO.P,U1,13,GND*%
%TO.N,GND*%
X140081000Y-86360000D03*
D17*
%TO.P,U1,14,GPIO10*%
%TO.N,Light_3*%
X140081000Y-88900000D03*
%TO.P,U1,15,GPIO11*%
%TO.N,Light_4*%
X140081000Y-91440000D03*
%TO.P,U1,16,GPIO12*%
%TO.N,BOT_DIR*%
X140081000Y-93980000D03*
%TO.P,U1,17,GPIO13*%
%TO.N,BOT_REEL_STEP*%
X140081000Y-96520000D03*
D16*
%TO.P,U1,18,GND*%
%TO.N,GND*%
X140081000Y-99060000D03*
D17*
%TO.P,U1,19,GPIO14*%
%TO.N,TOP_DIR*%
X140081000Y-101600000D03*
%TO.P,U1,20,GPIO15*%
%TO.N,TOP_REEL_STEP*%
X140081000Y-104140000D03*
%TO.P,U1,21,GPIO16*%
%TO.N,REEL_~{EN}*%
X157861000Y-104140000D03*
%TO.P,U1,22,GPIO17*%
%TO.N,unconnected-(U1-Pad22)*%
X157861000Y-101600000D03*
D16*
%TO.P,U1,23,GND*%
%TO.N,GND*%
X157861000Y-99060000D03*
D17*
%TO.P,U1,24,GPIO18*%
%TO.N,unconnected-(U1-Pad24)*%
X157861000Y-96520000D03*
%TO.P,U1,25,GPIO19*%
%TO.N,unconnected-(U1-Pad25)*%
X157861000Y-93980000D03*
%TO.P,U1,26,GPIO20*%
%TO.N,Net-(U1-Pad26)*%
X157861000Y-91440000D03*
%TO.P,U1,27,GPIO21*%
%TO.N,STEPPER_UART*%
X157861000Y-88900000D03*
D16*
%TO.P,U1,28,GND*%
%TO.N,GND*%
X157861000Y-86360000D03*
D17*
%TO.P,U1,29,GPIO22*%
%TO.N,unconnected-(U1-Pad29)*%
X157861000Y-83820000D03*
%TO.P,U1,30,RUN*%
%TO.N,unconnected-(U1-Pad30)*%
X157861000Y-81280000D03*
%TO.P,U1,31,GPIO26_ADC0*%
%TO.N,unconnected-(U1-Pad31)*%
X157861000Y-78740000D03*
%TO.P,U1,32,GPIO27_ADC1*%
%TO.N,unconnected-(U1-Pad32)*%
X157861000Y-76200000D03*
D16*
%TO.P,U1,33,AGND*%
%TO.N,GND*%
X157861000Y-73660000D03*
D17*
%TO.P,U1,34,GPIO28_ADC2*%
%TO.N,unconnected-(U1-Pad34)*%
X157861000Y-71120000D03*
%TO.P,U1,35,ADC_VREF*%
%TO.N,unconnected-(U1-Pad35)*%
X157861000Y-68580000D03*
%TO.P,U1,36,3V3*%
%TO.N,unconnected-(U1-Pad36)*%
X157861000Y-66040000D03*
%TO.P,U1,37,3V3_EN*%
%TO.N,unconnected-(U1-Pad37)*%
X157861000Y-63500000D03*
D16*
%TO.P,U1,38,GND*%
%TO.N,GND*%
X157861000Y-60960000D03*
D17*
%TO.P,U1,39,VSYS*%
%TO.N,Net-(D1-Pad1)*%
X157861000Y-58420000D03*
%TO.P,U1,40,VBUS*%
%TO.N,unconnected-(U1-Pad40)*%
X157861000Y-55880000D03*
%TD*%
D20*
%TO.P,M2,1,Pin_1*%
%TO.N,M2A-*%
X135043000Y-121968000D03*
D13*
%TO.P,M2,2,Pin_2*%
%TO.N,M2A+*%
X135043000Y-123968000D03*
%TO.P,M2,3,Pin_3*%
%TO.N,M2B+*%
X135043000Y-125968000D03*
%TO.P,M2,4,Pin_4*%
%TO.N,M2B-*%
X135043000Y-127968000D03*
%TD*%
D18*
%TO.P,U2,1,GND*%
%TO.N,GND*%
X140081000Y-136906000D03*
D19*
%TO.P,U2,2,VIO*%
%TO.N,VDD*%
X140081000Y-139446000D03*
%TO.P,U2,3,M1B*%
%TO.N,M1A-*%
X140081000Y-141986000D03*
%TO.P,U2,4,M1A*%
%TO.N,M1A+*%
X140081000Y-144526000D03*
%TO.P,U2,5,M2A*%
%TO.N,M1B+*%
X140081000Y-147066000D03*
%TO.P,U2,6,M2B*%
%TO.N,M1B-*%
X140081000Y-149606000D03*
%TO.P,U2,7,GND*%
%TO.N,GND*%
X140081000Y-152146000D03*
%TO.P,U2,8,VM*%
%TO.N,+12V*%
X140081000Y-154686000D03*
%TO.P,U2,9,DIR*%
%TO.N,TOP_DIR*%
X152781000Y-136906000D03*
%TO.P,U2,10,STEP*%
%TO.N,TOP_REEL_STEP*%
X152781000Y-139446000D03*
%TO.P,U2,11,PDN*%
%TO.N,GND*%
X152781000Y-141986000D03*
%TO.P,U2,12,UART*%
%TO.N,STEPPER_UART*%
X152781000Y-144526000D03*
%TO.P,U2,13,SPRD*%
%TO.N,GND*%
X152781000Y-147066000D03*
%TO.P,U2,14,MS2*%
%TO.N,M0_MS2*%
X152781000Y-149606000D03*
%TO.P,U2,15,MS1*%
%TO.N,M0_MS1*%
X152781000Y-152146000D03*
%TO.P,U2,16,~{EN}*%
%TO.N,REEL_~{EN}*%
X152781000Y-154686000D03*
%TD*%
D21*
%TO.N,VDD*%
X161290000Y-132080000D03*
X161290000Y-128016000D03*
X161290000Y-148844000D03*
X161290000Y-152938000D03*
D22*
X157988000Y-42672000D03*
%TO.N,Net-(J4-Pad2)*%
X132334000Y-96774000D03*
%TO.N,Net-(J4-Pad3)*%
X132334000Y-92710000D03*
%TO.N,Net-(J4-Pad4)*%
X132334000Y-88646000D03*
%TO.N,Net-(J4-Pad5)*%
X132334000Y-84582000D03*
%TO.N,Net-(J4-Pad6)*%
X132334000Y-80518000D03*
%TD*%
D23*
%TO.N,+BATT*%
X148082000Y-38100000D02*
X149860000Y-36322000D01*
%TO.N,M2B-*%
X139269500Y-127968000D02*
X140079500Y-128778000D01*
X135041500Y-127968000D02*
X139269500Y-127968000D01*
%TO.N,M2B+*%
X135041500Y-125968000D02*
X139809500Y-125968000D01*
%TO.N,M2A+*%
X135041500Y-123968000D02*
X139809500Y-123968000D01*
%TO.N,M2A-*%
X139269500Y-121968000D02*
X140079500Y-121158000D01*
X135043000Y-121968000D02*
X139269500Y-121968000D01*
D24*
%TO.N,REEL_~{EN}*%
X154686000Y-152781000D02*
X152781000Y-154686000D01*
X154686000Y-131951500D02*
X154686000Y-152781000D01*
X154686000Y-107315000D02*
X154686000Y-131951500D01*
X154686000Y-131951500D02*
X152779500Y-133858000D01*
X157861000Y-104140000D02*
X154686000Y-107315000D01*
%TO.N,STEPPER_UART*%
X150876000Y-142621000D02*
X152781000Y-144526000D01*
X150876000Y-121794500D02*
X150876000Y-142621000D01*
X150876000Y-121794500D02*
X152779500Y-123698000D01*
X150876000Y-95885000D02*
X150876000Y-121794500D01*
X157861000Y-88900000D02*
X150876000Y-95885000D01*
D25*
%TO.N,+12V*%
X126366500Y-154686000D02*
X119380000Y-147699500D01*
X140079500Y-133858000D02*
X119380000Y-133858000D01*
X119380000Y-133858000D02*
X119380000Y-147699500D01*
X119380000Y-89154000D02*
X119380000Y-133858000D01*
X119380000Y-40640000D02*
X119380000Y-89154000D01*
X140081000Y-154686000D02*
X126366500Y-154686000D01*
D26*
X125942000Y-88820000D02*
X119380000Y-88820000D01*
D23*
%TO.N,+BATT*%
X142240000Y-38100000D02*
X148082000Y-38100000D01*
X142240000Y-38100000D02*
X142240000Y-40640000D01*
X127000000Y-40640000D02*
X127000000Y-39370000D01*
X149860000Y-36322000D02*
X149860000Y-33020000D01*
X127000000Y-39370000D02*
X128270000Y-38100000D01*
X128270000Y-38100000D02*
X142240000Y-38100000D01*
%TO.N,Net-(BT1-Pad1)*%
X135680000Y-33020000D02*
X147860000Y-33020000D01*
%TO.N,M1A-*%
X139271000Y-142796000D02*
X140081000Y-141986000D01*
X135043000Y-142796000D02*
X139271000Y-142796000D01*
%TO.N,M1A+*%
X135043000Y-144796000D02*
X139811000Y-144796000D01*
%TO.N,M1B+*%
X135043000Y-146796000D02*
X139811000Y-146796000D01*
%TO.N,M1B-*%
X135043000Y-148796000D02*
X139271000Y-148796000D01*
X139271000Y-148796000D02*
X140081000Y-149606000D01*
D26*
%TO.N,Net-(J4-Pad2)*%
X132334000Y-96774000D02*
X130810000Y-95250000D01*
X130810000Y-91688000D02*
X125942000Y-86820000D01*
X130810000Y-95250000D02*
X130810000Y-91688000D01*
%TO.N,Net-(J4-Pad3)*%
X132334000Y-92710000D02*
X132334000Y-91212000D01*
X132334000Y-91212000D02*
X125942000Y-84820000D01*
%TO.N,Net-(J4-Pad4)*%
X132334000Y-88646000D02*
X126508000Y-82820000D01*
%TO.N,Net-(J4-Pad5)*%
X132334000Y-84582000D02*
X128572000Y-80820000D01*
X128572000Y-80820000D02*
X125942000Y-80820000D01*
%TO.N,Net-(J4-Pad6)*%
X130636000Y-78820000D02*
X125942000Y-78820000D01*
X132334000Y-80518000D02*
X130636000Y-78820000D01*
%TD*%
%TA.AperFunction,Conductor*%
%TO.N,VDD*%
G36*
X163733621Y-25928502D02*
G01*
X163780114Y-25982158D01*
X163791500Y-26034500D01*
X163791500Y-174765500D01*
X163771498Y-174833621D01*
X163717842Y-174880114D01*
X163665500Y-174891500D01*
X114934500Y-174891500D01*
X114866379Y-174871498D01*
X114819886Y-174817842D01*
X114808500Y-174765500D01*
X114808500Y-40606695D01*
X118017251Y-40606695D01*
X118030110Y-40829715D01*
X118031247Y-40834761D01*
X118031248Y-40834767D01*
X118045606Y-40898475D01*
X118079222Y-41047639D01*
X118163266Y-41254616D01*
X118279987Y-41445088D01*
X118283367Y-41448990D01*
X118283368Y-41448991D01*
X118332737Y-41505984D01*
X118362220Y-41570570D01*
X118363500Y-41588482D01*
X118363500Y-133797709D01*
X118362810Y-133810879D01*
X118358607Y-133850869D01*
X118359166Y-133857008D01*
X118362981Y-133898931D01*
X118363500Y-133910351D01*
X118363500Y-147637224D01*
X118362763Y-147650832D01*
X118360694Y-147669881D01*
X118358638Y-147688804D01*
X118359588Y-147699661D01*
X118363046Y-147739190D01*
X118363375Y-147744018D01*
X118363500Y-147746573D01*
X118363500Y-147749657D01*
X118363801Y-147752724D01*
X118367722Y-147792719D01*
X118367844Y-147794032D01*
X118368112Y-147797095D01*
X118376012Y-147887392D01*
X118377511Y-147892552D01*
X118378035Y-147897894D01*
X118395714Y-147956448D01*
X118405098Y-147987531D01*
X118405455Y-147988736D01*
X118431628Y-148078822D01*
X118434100Y-148083590D01*
X118435652Y-148088732D01*
X118438547Y-148094177D01*
X118438550Y-148094184D01*
X118479633Y-148171450D01*
X118480213Y-148172554D01*
X118523366Y-148255804D01*
X118526718Y-148260003D01*
X118529239Y-148264744D01*
X118533131Y-148269516D01*
X118588438Y-148337329D01*
X118589266Y-148338355D01*
X118595893Y-148346656D01*
X118620768Y-148377816D01*
X118623263Y-148380311D01*
X118623973Y-148381105D01*
X118627693Y-148385460D01*
X118651337Y-148414451D01*
X118651340Y-148414454D01*
X118655232Y-148419226D01*
X118659980Y-148423154D01*
X118659981Y-148423155D01*
X118690873Y-148448711D01*
X118699652Y-148456700D01*
X125603685Y-155360733D01*
X125612786Y-155370875D01*
X125636725Y-155400649D01*
X125675502Y-155433187D01*
X125679129Y-155436351D01*
X125680998Y-155438046D01*
X125683192Y-155440240D01*
X125716758Y-155467812D01*
X125717555Y-155468474D01*
X125789433Y-155528786D01*
X125794139Y-155531373D01*
X125798289Y-155534782D01*
X125803713Y-155537690D01*
X125803723Y-155537697D01*
X125880868Y-155579061D01*
X125882028Y-155579690D01*
X125964121Y-155624821D01*
X125969241Y-155626445D01*
X125973974Y-155628983D01*
X126052297Y-155652929D01*
X126063493Y-155656352D01*
X126064752Y-155656744D01*
X126148261Y-155683235D01*
X126148265Y-155683236D01*
X126154135Y-155685098D01*
X126159473Y-155685697D01*
X126164609Y-155687267D01*
X126170739Y-155687890D01*
X126170741Y-155687890D01*
X126198237Y-155690683D01*
X126257868Y-155696739D01*
X126259008Y-155696861D01*
X126309284Y-155702500D01*
X126312790Y-155702500D01*
X126313916Y-155702563D01*
X126319610Y-155703011D01*
X126356805Y-155706789D01*
X126356811Y-155706789D01*
X126362935Y-155707411D01*
X126408977Y-155703059D01*
X126420834Y-155702500D01*
X139291882Y-155702500D01*
X139364153Y-155725287D01*
X139447338Y-155783534D01*
X139452316Y-155785855D01*
X139452319Y-155785857D01*
X139642568Y-155874571D01*
X139647550Y-155876894D01*
X139652858Y-155878316D01*
X139652860Y-155878317D01*
X139718252Y-155895839D01*
X139860932Y-155934070D01*
X140081000Y-155953323D01*
X140301068Y-155934070D01*
X140443748Y-155895839D01*
X140509140Y-155878317D01*
X140509142Y-155878316D01*
X140514450Y-155876894D01*
X140519432Y-155874571D01*
X140709675Y-155785860D01*
X140709680Y-155785857D01*
X140714662Y-155783534D01*
X140719171Y-155780377D01*
X140891109Y-155659985D01*
X140891112Y-155659983D01*
X140895620Y-155656826D01*
X141051826Y-155500620D01*
X141178534Y-155319661D01*
X141271894Y-155119450D01*
X141329070Y-154906068D01*
X141348323Y-154686000D01*
X141329070Y-154465932D01*
X141271894Y-154252550D01*
X141178534Y-154052339D01*
X141051826Y-153871380D01*
X140895620Y-153715174D01*
X140891112Y-153712017D01*
X140891109Y-153712015D01*
X140719171Y-153591623D01*
X140719168Y-153591621D01*
X140714662Y-153588466D01*
X140709680Y-153586143D01*
X140709675Y-153586140D01*
X140589699Y-153530195D01*
X140536414Y-153483278D01*
X140516953Y-153415001D01*
X140537495Y-153347041D01*
X140589699Y-153301805D01*
X140709675Y-153245860D01*
X140709680Y-153245857D01*
X140714662Y-153243534D01*
X140719171Y-153240377D01*
X140891109Y-153119985D01*
X140891112Y-153119983D01*
X140895620Y-153116826D01*
X141051826Y-152960620D01*
X141178534Y-152779661D01*
X141194613Y-152745181D01*
X141269571Y-152584432D01*
X141269572Y-152584431D01*
X141271894Y-152579450D01*
X141329070Y-152366068D01*
X141348323Y-152146000D01*
X141329070Y-151925932D01*
X141271894Y-151712550D01*
X141178534Y-151512339D01*
X141051826Y-151331380D01*
X140895620Y-151175174D01*
X140891112Y-151172017D01*
X140891109Y-151172015D01*
X140719171Y-151051623D01*
X140719168Y-151051621D01*
X140714662Y-151048466D01*
X140709680Y-151046143D01*
X140709675Y-151046140D01*
X140589699Y-150990195D01*
X140536414Y-150943278D01*
X140516953Y-150875001D01*
X140537495Y-150807041D01*
X140589699Y-150761805D01*
X140709675Y-150705860D01*
X140709680Y-150705857D01*
X140714662Y-150703534D01*
X140719171Y-150700377D01*
X140891109Y-150579985D01*
X140891112Y-150579983D01*
X140895620Y-150576826D01*
X141051826Y-150420620D01*
X141178534Y-150239661D01*
X141271894Y-150039450D01*
X141329070Y-149826068D01*
X141348323Y-149606000D01*
X141329070Y-149385932D01*
X141271894Y-149172550D01*
X141178534Y-148972339D01*
X141051826Y-148791380D01*
X140895620Y-148635174D01*
X140891112Y-148632017D01*
X140891109Y-148632015D01*
X140719171Y-148511623D01*
X140719168Y-148511621D01*
X140714662Y-148508466D01*
X140709680Y-148506143D01*
X140709675Y-148506140D01*
X140589699Y-148450195D01*
X140536414Y-148403278D01*
X140516953Y-148335001D01*
X140537495Y-148267041D01*
X140589699Y-148221805D01*
X140709675Y-148165860D01*
X140709680Y-148165857D01*
X140714662Y-148163534D01*
X140719171Y-148160377D01*
X140891109Y-148039985D01*
X140891112Y-148039983D01*
X140895620Y-148036826D01*
X141051826Y-147880620D01*
X141178534Y-147699661D01*
X141201304Y-147650832D01*
X141269571Y-147504432D01*
X141269572Y-147504431D01*
X141271894Y-147499450D01*
X141329070Y-147286068D01*
X141348323Y-147066000D01*
X141329070Y-146845932D01*
X141271894Y-146632550D01*
X141178534Y-146432339D01*
X141051826Y-146251380D01*
X140895620Y-146095174D01*
X140891112Y-146092017D01*
X140891109Y-146092015D01*
X140719171Y-145971623D01*
X140719168Y-145971621D01*
X140714662Y-145968466D01*
X140709680Y-145966143D01*
X140709675Y-145966140D01*
X140589699Y-145910195D01*
X140536414Y-145863278D01*
X140516953Y-145795001D01*
X140537495Y-145727041D01*
X140589699Y-145681805D01*
X140709675Y-145625860D01*
X140709680Y-145625857D01*
X140714662Y-145623534D01*
X140864345Y-145518725D01*
X140891109Y-145499985D01*
X140891112Y-145499983D01*
X140895620Y-145496826D01*
X141051826Y-145340620D01*
X141178534Y-145159661D01*
X141271894Y-144959450D01*
X141273650Y-144952899D01*
X141327646Y-144751381D01*
X141329070Y-144746068D01*
X141348323Y-144526000D01*
X141329070Y-144305932D01*
X141271894Y-144092550D01*
X141226004Y-143994138D01*
X141180857Y-143897320D01*
X141180855Y-143897317D01*
X141178534Y-143892339D01*
X141051826Y-143711380D01*
X140895620Y-143555174D01*
X140891112Y-143552017D01*
X140891109Y-143552015D01*
X140719171Y-143431623D01*
X140719169Y-143431622D01*
X140714662Y-143428466D01*
X140709680Y-143426143D01*
X140709675Y-143426140D01*
X140589699Y-143370195D01*
X140536414Y-143323278D01*
X140516953Y-143255001D01*
X140537495Y-143187041D01*
X140589699Y-143141805D01*
X140709675Y-143085860D01*
X140709680Y-143085857D01*
X140714662Y-143083534D01*
X140750976Y-143058107D01*
X140891109Y-142959985D01*
X140891112Y-142959983D01*
X140895620Y-142956826D01*
X141051826Y-142800620D01*
X141178534Y-142619661D01*
X141214640Y-142542233D01*
X141269571Y-142424432D01*
X141269572Y-142424431D01*
X141271894Y-142419450D01*
X141329070Y-142206068D01*
X141348323Y-141986000D01*
X141329070Y-141765932D01*
X141271894Y-141552550D01*
X141178534Y-141352339D01*
X141051826Y-141171380D01*
X140895620Y-141015174D01*
X140891112Y-141012017D01*
X140891109Y-141012015D01*
X140719171Y-140891623D01*
X140719168Y-140891621D01*
X140714662Y-140888466D01*
X140709680Y-140886143D01*
X140709675Y-140886140D01*
X140589107Y-140829919D01*
X140535822Y-140783002D01*
X140516361Y-140714725D01*
X140536903Y-140646765D01*
X140589107Y-140601529D01*
X140709424Y-140545425D01*
X140718919Y-140539942D01*
X140761021Y-140510462D01*
X140769396Y-140499985D01*
X140762328Y-140486538D01*
X140093812Y-139818022D01*
X140079868Y-139810408D01*
X140078035Y-139810539D01*
X140071420Y-139814790D01*
X139398951Y-140487259D01*
X139392521Y-140499034D01*
X139401817Y-140511049D01*
X139443081Y-140539942D01*
X139452576Y-140545425D01*
X139572893Y-140601529D01*
X139626178Y-140648446D01*
X139645639Y-140716723D01*
X139625097Y-140784683D01*
X139572893Y-140829919D01*
X139452320Y-140886143D01*
X139452317Y-140886145D01*
X139447339Y-140888466D01*
X139266380Y-141015174D01*
X139110174Y-141171380D01*
X138983466Y-141352339D01*
X138890106Y-141552550D01*
X138832930Y-141765932D01*
X138832451Y-141771411D01*
X138825139Y-141854982D01*
X138799275Y-141921100D01*
X138741772Y-141962740D01*
X138699618Y-141970000D01*
X136316950Y-141970000D01*
X136248829Y-141949998D01*
X136227932Y-141933173D01*
X136146483Y-141851866D01*
X136141303Y-141846695D01*
X136135072Y-141842854D01*
X135996968Y-141757725D01*
X135996966Y-141757724D01*
X135990738Y-141753885D01*
X135830254Y-141700655D01*
X135829389Y-141700368D01*
X135829387Y-141700368D01*
X135822861Y-141698203D01*
X135816025Y-141697503D01*
X135816022Y-141697502D01*
X135772969Y-141693091D01*
X135718400Y-141687500D01*
X134367600Y-141687500D01*
X134364354Y-141687837D01*
X134364350Y-141687837D01*
X134268692Y-141697762D01*
X134268688Y-141697763D01*
X134261834Y-141698474D01*
X134255298Y-141700655D01*
X134255296Y-141700655D01*
X134123194Y-141744728D01*
X134094054Y-141754450D01*
X133943652Y-141847522D01*
X133818695Y-141972697D01*
X133725885Y-142123262D01*
X133670203Y-142291139D01*
X133659500Y-142395600D01*
X133659500Y-143196400D01*
X133659837Y-143199646D01*
X133659837Y-143199650D01*
X133667002Y-143268699D01*
X133670474Y-143302166D01*
X133672655Y-143308702D01*
X133672655Y-143308704D01*
X133693170Y-143370195D01*
X133726450Y-143469946D01*
X133819522Y-143620348D01*
X133944697Y-143745305D01*
X133950927Y-143749145D01*
X133950928Y-143749146D01*
X133996236Y-143777074D01*
X134043729Y-143829846D01*
X134055153Y-143899918D01*
X134026879Y-143965042D01*
X134007955Y-143983418D01*
X134000080Y-143989604D01*
X133996148Y-143994135D01*
X133996145Y-143994138D01*
X133915071Y-144087568D01*
X133861448Y-144149363D01*
X133858448Y-144154549D01*
X133858445Y-144154553D01*
X133790490Y-144272018D01*
X133755527Y-144332454D01*
X133686139Y-144532271D01*
X133655787Y-144741604D01*
X133665567Y-144952899D01*
X133715125Y-145158534D01*
X133717607Y-145163992D01*
X133717608Y-145163996D01*
X133728033Y-145186924D01*
X133802674Y-145351087D01*
X133925054Y-145523611D01*
X134077850Y-145669881D01*
X134082888Y-145673134D01*
X134110163Y-145690746D01*
X134156540Y-145744501D01*
X134166493Y-145814797D01*
X134136861Y-145879314D01*
X134119649Y-145895681D01*
X134000080Y-145989604D01*
X133996148Y-145994135D01*
X133996145Y-145994138D01*
X133911212Y-146092015D01*
X133861448Y-146149363D01*
X133858448Y-146154549D01*
X133858445Y-146154553D01*
X133799824Y-146255884D01*
X133755527Y-146332454D01*
X133686139Y-146532271D01*
X133685278Y-146538206D01*
X133685278Y-146538208D01*
X133672322Y-146627568D01*
X133655787Y-146741604D01*
X133665567Y-146952899D01*
X133715125Y-147158534D01*
X133802674Y-147351087D01*
X133925054Y-147523611D01*
X134077850Y-147669881D01*
X134082888Y-147673134D01*
X134110163Y-147690746D01*
X134156540Y-147744501D01*
X134166493Y-147814797D01*
X134136861Y-147879314D01*
X134119649Y-147895681D01*
X134000080Y-147989604D01*
X133996148Y-147994135D01*
X133996145Y-147994138D01*
X133927802Y-148072897D01*
X133861448Y-148149363D01*
X133858448Y-148154549D01*
X133858445Y-148154553D01*
X133766162Y-148314070D01*
X133755527Y-148332454D01*
X133686139Y-148532271D01*
X133685278Y-148538206D01*
X133685278Y-148538208D01*
X133670654Y-148639071D01*
X133655787Y-148741604D01*
X133665567Y-148952899D01*
X133715125Y-149158534D01*
X133717607Y-149163992D01*
X133717608Y-149163996D01*
X133723912Y-149177860D01*
X133802674Y-149351087D01*
X133925054Y-149523611D01*
X134077850Y-149669881D01*
X134255548Y-149784620D01*
X134261114Y-149786863D01*
X134446168Y-149861442D01*
X134446171Y-149861443D01*
X134451737Y-149863686D01*
X134659337Y-149904228D01*
X134664899Y-149904500D01*
X135370846Y-149904500D01*
X135528566Y-149889452D01*
X135731534Y-149829908D01*
X135815111Y-149786863D01*
X135914249Y-149735804D01*
X135914252Y-149735802D01*
X135919580Y-149733058D01*
X136026700Y-149648914D01*
X136092625Y-149622564D01*
X136104533Y-149622000D01*
X138699618Y-149622000D01*
X138767739Y-149642002D01*
X138814232Y-149695658D01*
X138825139Y-149737018D01*
X138832930Y-149826068D01*
X138890106Y-150039450D01*
X138983466Y-150239661D01*
X139110174Y-150420620D01*
X139266380Y-150576826D01*
X139270888Y-150579983D01*
X139270891Y-150579985D01*
X139442829Y-150700377D01*
X139447338Y-150703534D01*
X139452320Y-150705857D01*
X139452325Y-150705860D01*
X139572301Y-150761805D01*
X139625586Y-150808722D01*
X139645047Y-150876999D01*
X139624505Y-150944959D01*
X139572301Y-150990195D01*
X139452320Y-151046143D01*
X139452317Y-151046145D01*
X139447339Y-151048466D01*
X139266380Y-151175174D01*
X139110174Y-151331380D01*
X138983466Y-151512339D01*
X138890106Y-151712550D01*
X138832930Y-151925932D01*
X138813677Y-152146000D01*
X138832930Y-152366068D01*
X138890106Y-152579450D01*
X138892428Y-152584431D01*
X138892429Y-152584432D01*
X138967388Y-152745181D01*
X138983466Y-152779661D01*
X139110174Y-152960620D01*
X139266380Y-153116826D01*
X139270888Y-153119983D01*
X139270891Y-153119985D01*
X139442829Y-153240377D01*
X139447338Y-153243534D01*
X139452320Y-153245857D01*
X139452325Y-153245860D01*
X139572301Y-153301805D01*
X139625586Y-153348722D01*
X139645047Y-153416999D01*
X139624505Y-153484959D01*
X139572301Y-153530195D01*
X139452320Y-153586143D01*
X139452317Y-153586145D01*
X139447339Y-153588466D01*
X139386950Y-153630750D01*
X139364153Y-153646713D01*
X139291883Y-153669500D01*
X126839738Y-153669500D01*
X126771617Y-153649498D01*
X126750643Y-153632595D01*
X120433405Y-147315357D01*
X120399379Y-147253045D01*
X120396500Y-147226262D01*
X120396500Y-139451475D01*
X138814658Y-139451475D01*
X138832946Y-139660501D01*
X138834849Y-139671296D01*
X138889155Y-139873968D01*
X138892901Y-139884260D01*
X138981577Y-140074425D01*
X138987055Y-140083915D01*
X139016539Y-140126022D01*
X139027015Y-140134396D01*
X139040463Y-140127327D01*
X139708978Y-139458812D01*
X139715356Y-139447132D01*
X140445408Y-139447132D01*
X140445539Y-139448965D01*
X140449790Y-139455580D01*
X141122259Y-140128049D01*
X141134033Y-140134479D01*
X141146049Y-140125183D01*
X141174945Y-140083915D01*
X141180423Y-140074425D01*
X141269099Y-139884260D01*
X141272845Y-139873968D01*
X141327151Y-139671296D01*
X141329054Y-139660501D01*
X141347342Y-139451475D01*
X141347342Y-139440525D01*
X141329054Y-139231499D01*
X141327151Y-139220704D01*
X141272845Y-139018032D01*
X141269099Y-139007740D01*
X141180423Y-138817575D01*
X141174945Y-138808085D01*
X141145461Y-138765978D01*
X141134985Y-138757604D01*
X141121537Y-138764673D01*
X140453022Y-139433188D01*
X140445408Y-139447132D01*
X139715356Y-139447132D01*
X139716592Y-139444868D01*
X139716461Y-139443035D01*
X139712210Y-139436420D01*
X139039741Y-138763951D01*
X139027967Y-138757521D01*
X139015951Y-138766817D01*
X138987055Y-138808085D01*
X138981577Y-138817575D01*
X138892901Y-139007740D01*
X138889155Y-139018032D01*
X138834849Y-139220704D01*
X138832946Y-139231499D01*
X138814658Y-139440525D01*
X138814658Y-139451475D01*
X120396500Y-139451475D01*
X120396500Y-137708134D01*
X138818500Y-137708134D01*
X138825255Y-137770316D01*
X138876385Y-137906705D01*
X138963739Y-138023261D01*
X139080295Y-138110615D01*
X139216684Y-138161745D01*
X139278866Y-138168500D01*
X139309245Y-138168500D01*
X139377366Y-138188502D01*
X139423859Y-138242158D01*
X139433963Y-138312432D01*
X139407666Y-138373172D01*
X139392604Y-138392015D01*
X139399673Y-138405463D01*
X140068188Y-139073978D01*
X140082132Y-139081592D01*
X140083965Y-139081461D01*
X140090580Y-139077210D01*
X140763049Y-138404741D01*
X140769479Y-138392966D01*
X140752949Y-138371599D01*
X140727086Y-138305481D01*
X140741076Y-138235876D01*
X140790475Y-138184884D01*
X140852607Y-138168500D01*
X140883134Y-138168500D01*
X140945316Y-138161745D01*
X141081705Y-138110615D01*
X141198261Y-138023261D01*
X141285615Y-137906705D01*
X141336745Y-137770316D01*
X141343500Y-137708134D01*
X141343500Y-136103866D01*
X141336745Y-136041684D01*
X141285615Y-135905295D01*
X141198261Y-135788739D01*
X141081705Y-135701385D01*
X140945316Y-135650255D01*
X140883134Y-135643500D01*
X139278866Y-135643500D01*
X139216684Y-135650255D01*
X139080295Y-135701385D01*
X138963739Y-135788739D01*
X138876385Y-135905295D01*
X138825255Y-136041684D01*
X138818500Y-136103866D01*
X138818500Y-137708134D01*
X120396500Y-137708134D01*
X120396500Y-135000500D01*
X120416502Y-134932379D01*
X120470158Y-134885886D01*
X120522500Y-134874500D01*
X139290382Y-134874500D01*
X139362653Y-134897287D01*
X139445838Y-134955534D01*
X139450816Y-134957855D01*
X139450819Y-134957857D01*
X139542268Y-135000500D01*
X139646050Y-135048894D01*
X139651358Y-135050316D01*
X139651360Y-135050317D01*
X139716752Y-135067839D01*
X139859432Y-135106070D01*
X140079500Y-135125323D01*
X140299568Y-135106070D01*
X140442248Y-135067839D01*
X140507640Y-135050317D01*
X140507642Y-135050316D01*
X140512950Y-135048894D01*
X140616732Y-135000500D01*
X140708175Y-134957860D01*
X140708180Y-134957857D01*
X140713162Y-134955534D01*
X140746231Y-134932379D01*
X140889609Y-134831985D01*
X140889612Y-134831983D01*
X140894120Y-134828826D01*
X141050326Y-134672620D01*
X141177034Y-134491661D01*
X141270394Y-134291450D01*
X141327570Y-134078068D01*
X141346823Y-133858000D01*
X141327570Y-133637932D01*
X141270394Y-133424550D01*
X141177034Y-133224339D01*
X141050326Y-133043380D01*
X140894120Y-132887174D01*
X140889612Y-132884017D01*
X140889609Y-132884015D01*
X140717671Y-132763623D01*
X140717668Y-132763621D01*
X140713162Y-132760466D01*
X140708180Y-132758143D01*
X140708175Y-132758140D01*
X140588199Y-132702195D01*
X140534914Y-132655278D01*
X140515453Y-132587001D01*
X140535995Y-132519041D01*
X140588199Y-132473805D01*
X140708175Y-132417860D01*
X140708180Y-132417857D01*
X140713162Y-132415534D01*
X140717671Y-132412377D01*
X140889609Y-132291985D01*
X140889612Y-132291983D01*
X140894120Y-132288826D01*
X141050326Y-132132620D01*
X141177034Y-131951661D01*
X141188283Y-131927539D01*
X141268071Y-131756432D01*
X141268072Y-131756431D01*
X141270394Y-131751450D01*
X141327570Y-131538068D01*
X141346823Y-131318000D01*
X141327570Y-131097932D01*
X141270394Y-130884550D01*
X141177034Y-130684339D01*
X141050326Y-130503380D01*
X140894120Y-130347174D01*
X140889612Y-130344017D01*
X140889609Y-130344015D01*
X140717671Y-130223623D01*
X140717668Y-130223621D01*
X140713162Y-130220466D01*
X140708180Y-130218143D01*
X140708175Y-130218140D01*
X140588199Y-130162195D01*
X140534914Y-130115278D01*
X140515453Y-130047001D01*
X140535995Y-129979041D01*
X140588199Y-129933805D01*
X140708175Y-129877860D01*
X140708180Y-129877857D01*
X140713162Y-129875534D01*
X140717671Y-129872377D01*
X140889609Y-129751985D01*
X140889612Y-129751983D01*
X140894120Y-129748826D01*
X141050326Y-129592620D01*
X141177034Y-129411661D01*
X141270394Y-129211450D01*
X141327570Y-128998068D01*
X141346823Y-128778000D01*
X141327570Y-128557932D01*
X141270394Y-128344550D01*
X141177034Y-128144339D01*
X141050326Y-127963380D01*
X140894120Y-127807174D01*
X140889612Y-127804017D01*
X140889609Y-127804015D01*
X140717671Y-127683623D01*
X140717668Y-127683621D01*
X140713162Y-127680466D01*
X140708180Y-127678143D01*
X140708175Y-127678140D01*
X140588199Y-127622195D01*
X140534914Y-127575278D01*
X140515453Y-127507001D01*
X140535995Y-127439041D01*
X140588199Y-127393805D01*
X140708175Y-127337860D01*
X140708180Y-127337857D01*
X140713162Y-127335534D01*
X140717671Y-127332377D01*
X140889609Y-127211985D01*
X140889612Y-127211983D01*
X140894120Y-127208826D01*
X141050326Y-127052620D01*
X141177034Y-126871661D01*
X141270394Y-126671450D01*
X141327570Y-126458068D01*
X141346823Y-126238000D01*
X141327570Y-126017932D01*
X141270394Y-125804550D01*
X141177034Y-125604339D01*
X141050326Y-125423380D01*
X140894120Y-125267174D01*
X140889612Y-125264017D01*
X140889609Y-125264015D01*
X140717671Y-125143623D01*
X140717668Y-125143621D01*
X140713162Y-125140466D01*
X140708180Y-125138143D01*
X140708175Y-125138140D01*
X140588199Y-125082195D01*
X140534914Y-125035278D01*
X140515453Y-124967001D01*
X140535995Y-124899041D01*
X140588199Y-124853805D01*
X140708175Y-124797860D01*
X140708180Y-124797857D01*
X140713162Y-124795534D01*
X140862845Y-124690725D01*
X140889609Y-124671985D01*
X140889612Y-124671983D01*
X140894120Y-124668826D01*
X141050326Y-124512620D01*
X141177034Y-124331661D01*
X141270394Y-124131450D01*
X141272150Y-124124899D01*
X141326146Y-123923381D01*
X141327570Y-123918068D01*
X141346823Y-123698000D01*
X141327570Y-123477932D01*
X141270394Y-123264550D01*
X141224504Y-123166138D01*
X141179357Y-123069320D01*
X141179355Y-123069317D01*
X141177034Y-123064339D01*
X141050326Y-122883380D01*
X140894120Y-122727174D01*
X140889612Y-122724017D01*
X140889609Y-122724015D01*
X140717671Y-122603623D01*
X140717669Y-122603622D01*
X140713162Y-122600466D01*
X140708180Y-122598143D01*
X140708175Y-122598140D01*
X140588199Y-122542195D01*
X140534914Y-122495278D01*
X140515453Y-122427001D01*
X140535995Y-122359041D01*
X140588199Y-122313805D01*
X140708175Y-122257860D01*
X140708180Y-122257857D01*
X140713162Y-122255534D01*
X140717671Y-122252377D01*
X140889609Y-122131985D01*
X140889612Y-122131983D01*
X140894120Y-122128826D01*
X141050326Y-121972620D01*
X141177034Y-121791661D01*
X141206910Y-121727593D01*
X141268071Y-121596432D01*
X141268072Y-121596431D01*
X141270394Y-121591450D01*
X141327570Y-121378068D01*
X141346823Y-121158000D01*
X141327570Y-120937932D01*
X141270394Y-120724550D01*
X141177034Y-120524339D01*
X141050326Y-120343380D01*
X140894120Y-120187174D01*
X140889612Y-120184017D01*
X140889609Y-120184015D01*
X140717671Y-120063623D01*
X140717668Y-120063621D01*
X140713162Y-120060466D01*
X140708180Y-120058143D01*
X140708175Y-120058140D01*
X140587607Y-120001919D01*
X140534322Y-119955002D01*
X140514861Y-119886725D01*
X140535403Y-119818765D01*
X140587607Y-119773529D01*
X140707924Y-119717425D01*
X140717419Y-119711942D01*
X140759521Y-119682462D01*
X140767896Y-119671985D01*
X140760828Y-119658538D01*
X140092312Y-118990022D01*
X140078368Y-118982408D01*
X140076535Y-118982539D01*
X140069920Y-118986790D01*
X139397451Y-119659259D01*
X139391021Y-119671034D01*
X139400317Y-119683049D01*
X139441581Y-119711942D01*
X139451076Y-119717425D01*
X139571393Y-119773529D01*
X139624678Y-119820446D01*
X139644139Y-119888723D01*
X139623597Y-119956683D01*
X139571393Y-120001919D01*
X139450820Y-120058143D01*
X139450817Y-120058145D01*
X139445839Y-120060466D01*
X139264880Y-120187174D01*
X139108674Y-120343380D01*
X138981966Y-120524339D01*
X138888606Y-120724550D01*
X138831430Y-120937932D01*
X138830951Y-120943411D01*
X138823639Y-121026982D01*
X138797775Y-121093100D01*
X138740272Y-121134740D01*
X138698118Y-121142000D01*
X136316950Y-121142000D01*
X136248829Y-121121998D01*
X136227932Y-121105173D01*
X136146483Y-121023866D01*
X136141303Y-121018695D01*
X136135072Y-121014854D01*
X135996968Y-120929725D01*
X135996966Y-120929724D01*
X135990738Y-120925885D01*
X135830254Y-120872655D01*
X135829389Y-120872368D01*
X135829387Y-120872368D01*
X135822861Y-120870203D01*
X135816025Y-120869503D01*
X135816022Y-120869502D01*
X135772969Y-120865091D01*
X135718400Y-120859500D01*
X134367600Y-120859500D01*
X134364354Y-120859837D01*
X134364350Y-120859837D01*
X134268692Y-120869762D01*
X134268688Y-120869763D01*
X134261834Y-120870474D01*
X134255298Y-120872655D01*
X134255296Y-120872655D01*
X134123194Y-120916728D01*
X134094054Y-120926450D01*
X133943652Y-121019522D01*
X133818695Y-121144697D01*
X133725885Y-121295262D01*
X133670203Y-121463139D01*
X133659500Y-121567600D01*
X133659500Y-122368400D01*
X133659837Y-122371646D01*
X133659837Y-122371650D01*
X133667002Y-122440699D01*
X133670474Y-122474166D01*
X133672655Y-122480702D01*
X133672655Y-122480704D01*
X133693170Y-122542195D01*
X133726450Y-122641946D01*
X133819522Y-122792348D01*
X133944697Y-122917305D01*
X133950927Y-122921145D01*
X133950928Y-122921146D01*
X133996236Y-122949074D01*
X134043729Y-123001846D01*
X134055153Y-123071918D01*
X134026879Y-123137042D01*
X134007955Y-123155418D01*
X134000080Y-123161604D01*
X133996148Y-123166135D01*
X133996145Y-123166138D01*
X133915071Y-123259568D01*
X133861448Y-123321363D01*
X133858448Y-123326549D01*
X133858445Y-123326553D01*
X133831141Y-123373750D01*
X133755527Y-123504454D01*
X133686139Y-123704271D01*
X133655787Y-123913604D01*
X133665567Y-124124899D01*
X133715125Y-124330534D01*
X133717607Y-124335992D01*
X133717608Y-124335996D01*
X133769449Y-124450013D01*
X133802674Y-124523087D01*
X133925054Y-124695611D01*
X134077850Y-124841881D01*
X134082888Y-124845134D01*
X134110163Y-124862746D01*
X134156540Y-124916501D01*
X134166493Y-124986797D01*
X134136861Y-125051314D01*
X134119649Y-125067681D01*
X134000080Y-125161604D01*
X133996148Y-125166135D01*
X133996145Y-125166138D01*
X133911212Y-125264015D01*
X133861448Y-125321363D01*
X133858448Y-125326549D01*
X133858445Y-125326553D01*
X133768690Y-125481701D01*
X133755527Y-125504454D01*
X133686139Y-125704271D01*
X133685278Y-125710206D01*
X133685278Y-125710208D01*
X133672322Y-125799568D01*
X133655787Y-125913604D01*
X133665567Y-126124899D01*
X133715125Y-126330534D01*
X133802674Y-126523087D01*
X133925054Y-126695611D01*
X134077850Y-126841881D01*
X134082888Y-126845134D01*
X134110163Y-126862746D01*
X134156540Y-126916501D01*
X134166493Y-126986797D01*
X134136861Y-127051314D01*
X134119649Y-127067681D01*
X134000080Y-127161604D01*
X133996148Y-127166135D01*
X133996145Y-127166138D01*
X133877554Y-127302802D01*
X133861448Y-127321363D01*
X133858448Y-127326549D01*
X133858445Y-127326553D01*
X133793369Y-127439041D01*
X133755527Y-127504454D01*
X133686139Y-127704271D01*
X133685278Y-127710206D01*
X133685278Y-127710208D01*
X133670654Y-127811071D01*
X133655787Y-127913604D01*
X133665567Y-128124899D01*
X133715125Y-128330534D01*
X133717607Y-128335992D01*
X133717608Y-128335996D01*
X133723912Y-128349860D01*
X133802674Y-128523087D01*
X133925054Y-128695611D01*
X134077850Y-128841881D01*
X134255548Y-128956620D01*
X134261114Y-128958863D01*
X134446168Y-129033442D01*
X134446171Y-129033443D01*
X134451737Y-129035686D01*
X134659337Y-129076228D01*
X134664899Y-129076500D01*
X135370846Y-129076500D01*
X135528566Y-129061452D01*
X135731534Y-129001908D01*
X135815111Y-128958863D01*
X135914249Y-128907804D01*
X135914252Y-128907802D01*
X135919580Y-128905058D01*
X136026700Y-128820914D01*
X136092625Y-128794564D01*
X136104533Y-128794000D01*
X138698118Y-128794000D01*
X138766239Y-128814002D01*
X138812732Y-128867658D01*
X138823639Y-128909018D01*
X138831430Y-128998068D01*
X138888606Y-129211450D01*
X138981966Y-129411661D01*
X139108674Y-129592620D01*
X139264880Y-129748826D01*
X139269388Y-129751983D01*
X139269391Y-129751985D01*
X139441329Y-129872377D01*
X139445838Y-129875534D01*
X139450820Y-129877857D01*
X139450825Y-129877860D01*
X139570801Y-129933805D01*
X139624086Y-129980722D01*
X139643547Y-130048999D01*
X139623005Y-130116959D01*
X139570801Y-130162195D01*
X139450820Y-130218143D01*
X139450817Y-130218145D01*
X139445839Y-130220466D01*
X139264880Y-130347174D01*
X139108674Y-130503380D01*
X138981966Y-130684339D01*
X138888606Y-130884550D01*
X138831430Y-131097932D01*
X138812177Y-131318000D01*
X138831430Y-131538068D01*
X138888606Y-131751450D01*
X138890928Y-131756431D01*
X138890929Y-131756432D01*
X138970718Y-131927539D01*
X138981966Y-131951661D01*
X139108674Y-132132620D01*
X139264880Y-132288826D01*
X139269388Y-132291983D01*
X139269391Y-132291985D01*
X139441329Y-132412377D01*
X139445838Y-132415534D01*
X139450820Y-132417857D01*
X139450825Y-132417860D01*
X139570801Y-132473805D01*
X139624086Y-132520722D01*
X139643547Y-132588999D01*
X139623005Y-132656959D01*
X139570801Y-132702195D01*
X139450820Y-132758143D01*
X139450817Y-132758145D01*
X139445839Y-132760466D01*
X139385450Y-132802750D01*
X139362653Y-132818713D01*
X139290383Y-132841500D01*
X120522500Y-132841500D01*
X120454379Y-132821498D01*
X120407886Y-132767842D01*
X120396500Y-132715500D01*
X120396500Y-118623475D01*
X138813158Y-118623475D01*
X138831446Y-118832501D01*
X138833349Y-118843296D01*
X138887655Y-119045968D01*
X138891401Y-119056260D01*
X138980077Y-119246425D01*
X138985555Y-119255915D01*
X139015039Y-119298022D01*
X139025515Y-119306396D01*
X139038963Y-119299327D01*
X139707478Y-118630812D01*
X139713856Y-118619132D01*
X140443908Y-118619132D01*
X140444039Y-118620965D01*
X140448290Y-118627580D01*
X141120759Y-119300049D01*
X141132533Y-119306479D01*
X141144549Y-119297183D01*
X141173445Y-119255915D01*
X141178923Y-119246425D01*
X141267599Y-119056260D01*
X141271345Y-119045968D01*
X141325651Y-118843296D01*
X141327554Y-118832501D01*
X141345842Y-118623475D01*
X141345842Y-118612525D01*
X141327554Y-118403499D01*
X141325651Y-118392704D01*
X141271345Y-118190032D01*
X141267599Y-118179740D01*
X141178923Y-117989575D01*
X141173445Y-117980085D01*
X141143961Y-117937978D01*
X141133485Y-117929604D01*
X141120037Y-117936673D01*
X140451522Y-118605188D01*
X140443908Y-118619132D01*
X139713856Y-118619132D01*
X139715092Y-118616868D01*
X139714961Y-118615035D01*
X139710710Y-118608420D01*
X139038241Y-117935951D01*
X139026467Y-117929521D01*
X139014451Y-117938817D01*
X138985555Y-117980085D01*
X138980077Y-117989575D01*
X138891401Y-118179740D01*
X138887655Y-118190032D01*
X138833349Y-118392704D01*
X138831446Y-118403499D01*
X138813158Y-118612525D01*
X138813158Y-118623475D01*
X120396500Y-118623475D01*
X120396500Y-116880134D01*
X138817000Y-116880134D01*
X138823755Y-116942316D01*
X138874885Y-117078705D01*
X138962239Y-117195261D01*
X139078795Y-117282615D01*
X139215184Y-117333745D01*
X139277366Y-117340500D01*
X139307745Y-117340500D01*
X139375866Y-117360502D01*
X139422359Y-117414158D01*
X139432463Y-117484432D01*
X139406166Y-117545172D01*
X139391104Y-117564015D01*
X139398173Y-117577463D01*
X140066688Y-118245978D01*
X140080632Y-118253592D01*
X140082465Y-118253461D01*
X140089080Y-118249210D01*
X140761549Y-117576741D01*
X140767979Y-117564966D01*
X140751449Y-117543599D01*
X140725586Y-117477481D01*
X140739576Y-117407876D01*
X140788975Y-117356884D01*
X140851107Y-117340500D01*
X140881634Y-117340500D01*
X140943816Y-117333745D01*
X141080205Y-117282615D01*
X141196761Y-117195261D01*
X141284115Y-117078705D01*
X141335245Y-116942316D01*
X141342000Y-116880134D01*
X141342000Y-115275866D01*
X141335245Y-115213684D01*
X141284115Y-115077295D01*
X141196761Y-114960739D01*
X141080205Y-114873385D01*
X140943816Y-114822255D01*
X140881634Y-114815500D01*
X139277366Y-114815500D01*
X139215184Y-114822255D01*
X139078795Y-114873385D01*
X138962239Y-114960739D01*
X138874885Y-115077295D01*
X138823755Y-115213684D01*
X138817000Y-115275866D01*
X138817000Y-116880134D01*
X120396500Y-116880134D01*
X120396500Y-104106695D01*
X138718251Y-104106695D01*
X138718548Y-104111848D01*
X138718548Y-104111851D01*
X138724011Y-104206590D01*
X138731110Y-104329715D01*
X138732247Y-104334761D01*
X138732248Y-104334767D01*
X138752119Y-104422939D01*
X138780222Y-104547639D01*
X138864266Y-104754616D01*
X138980987Y-104945088D01*
X139127250Y-105113938D01*
X139299126Y-105256632D01*
X139492000Y-105369338D01*
X139700692Y-105449030D01*
X139705760Y-105450061D01*
X139705763Y-105450062D01*
X139813017Y-105471883D01*
X139919597Y-105493567D01*
X139924772Y-105493757D01*
X139924774Y-105493757D01*
X140137673Y-105501564D01*
X140137677Y-105501564D01*
X140142837Y-105501753D01*
X140147957Y-105501097D01*
X140147959Y-105501097D01*
X140359288Y-105474025D01*
X140359289Y-105474025D01*
X140364416Y-105473368D01*
X140369366Y-105471883D01*
X140573429Y-105410661D01*
X140573434Y-105410659D01*
X140578384Y-105409174D01*
X140778994Y-105310896D01*
X140960860Y-105181173D01*
X141119096Y-105023489D01*
X141178594Y-104940689D01*
X141246435Y-104846277D01*
X141249453Y-104842077D01*
X141348430Y-104641811D01*
X141413370Y-104428069D01*
X141442529Y-104206590D01*
X141444156Y-104140000D01*
X141425852Y-103917361D01*
X141371431Y-103700702D01*
X141282354Y-103495840D01*
X141161014Y-103308277D01*
X141010670Y-103143051D01*
X141006619Y-103139852D01*
X141006615Y-103139848D01*
X140839414Y-103007800D01*
X140839410Y-103007798D01*
X140835359Y-103004598D01*
X140794053Y-102981796D01*
X140744084Y-102931364D01*
X140729312Y-102861921D01*
X140754428Y-102795516D01*
X140781780Y-102768909D01*
X140825603Y-102737650D01*
X140960860Y-102641173D01*
X141119096Y-102483489D01*
X141178594Y-102400689D01*
X141246435Y-102306277D01*
X141249453Y-102302077D01*
X141348430Y-102101811D01*
X141413370Y-101888069D01*
X141442529Y-101666590D01*
X141444156Y-101600000D01*
X141425852Y-101377361D01*
X141371431Y-101160702D01*
X141282354Y-100955840D01*
X141161014Y-100768277D01*
X141157532Y-100764450D01*
X141013798Y-100606488D01*
X140982746Y-100542642D01*
X140991141Y-100472143D01*
X141036317Y-100417375D01*
X141062761Y-100403706D01*
X141169297Y-100363767D01*
X141177705Y-100360615D01*
X141294261Y-100273261D01*
X141381615Y-100156705D01*
X141432745Y-100020316D01*
X141439500Y-99958134D01*
X141439500Y-98161866D01*
X141432745Y-98099684D01*
X141381615Y-97963295D01*
X141294261Y-97846739D01*
X141177705Y-97759385D01*
X141165132Y-97754672D01*
X141059203Y-97714960D01*
X141002439Y-97672318D01*
X140977739Y-97605756D01*
X140992947Y-97536408D01*
X141014493Y-97507727D01*
X141064746Y-97457649D01*
X141119096Y-97403489D01*
X141178594Y-97320689D01*
X141246435Y-97226277D01*
X141249453Y-97222077D01*
X141285979Y-97148173D01*
X141346136Y-97026453D01*
X141346137Y-97026451D01*
X141348430Y-97021811D01*
X141413370Y-96808069D01*
X141442529Y-96586590D01*
X141444156Y-96520000D01*
X141425852Y-96297361D01*
X141371431Y-96080702D01*
X141282354Y-95875840D01*
X141275304Y-95864943D01*
X150237780Y-95864943D01*
X150238526Y-95872835D01*
X150241941Y-95908961D01*
X150242500Y-95920819D01*
X150242500Y-121715733D01*
X150241973Y-121726916D01*
X150240298Y-121734409D01*
X150240547Y-121742335D01*
X150240547Y-121742336D01*
X150242438Y-121802486D01*
X150242500Y-121806445D01*
X150242500Y-142542233D01*
X150241973Y-142553416D01*
X150240298Y-142560909D01*
X150240547Y-142568835D01*
X150240547Y-142568836D01*
X150242438Y-142628986D01*
X150242500Y-142632945D01*
X150242500Y-142660856D01*
X150242997Y-142664790D01*
X150242997Y-142664791D01*
X150243005Y-142664856D01*
X150243938Y-142676693D01*
X150245327Y-142720889D01*
X150250978Y-142740339D01*
X150254987Y-142759700D01*
X150257526Y-142779797D01*
X150260445Y-142787168D01*
X150260445Y-142787170D01*
X150273804Y-142820912D01*
X150277649Y-142832142D01*
X150289982Y-142874593D01*
X150294015Y-142881412D01*
X150294017Y-142881417D01*
X150300293Y-142892028D01*
X150308988Y-142909776D01*
X150316448Y-142928617D01*
X150321110Y-142935033D01*
X150321110Y-142935034D01*
X150342436Y-142964387D01*
X150348952Y-142974307D01*
X150371458Y-143012362D01*
X150385779Y-143026683D01*
X150398619Y-143041716D01*
X150410528Y-143058107D01*
X150416634Y-143063158D01*
X150444605Y-143086298D01*
X150453384Y-143094288D01*
X151509406Y-144150310D01*
X151543432Y-144212622D01*
X151542017Y-144272018D01*
X151534354Y-144300615D01*
X151534353Y-144300623D01*
X151532930Y-144305932D01*
X151513677Y-144526000D01*
X151532930Y-144746068D01*
X151534354Y-144751381D01*
X151588351Y-144952899D01*
X151590106Y-144959450D01*
X151683466Y-145159661D01*
X151810174Y-145340620D01*
X151966380Y-145496826D01*
X151970888Y-145499983D01*
X151970891Y-145499985D01*
X151997655Y-145518725D01*
X152147338Y-145623534D01*
X152152320Y-145625857D01*
X152152325Y-145625860D01*
X152272301Y-145681805D01*
X152325586Y-145728722D01*
X152345047Y-145796999D01*
X152324505Y-145864959D01*
X152272301Y-145910195D01*
X152152320Y-145966143D01*
X152152317Y-145966145D01*
X152147339Y-145968466D01*
X151966380Y-146095174D01*
X151810174Y-146251380D01*
X151683466Y-146432339D01*
X151590106Y-146632550D01*
X151532930Y-146845932D01*
X151513677Y-147066000D01*
X151532930Y-147286068D01*
X151590106Y-147499450D01*
X151592428Y-147504431D01*
X151592429Y-147504432D01*
X151660697Y-147650832D01*
X151683466Y-147699661D01*
X151810174Y-147880620D01*
X151966380Y-148036826D01*
X151970888Y-148039983D01*
X151970891Y-148039985D01*
X152142829Y-148160377D01*
X152147338Y-148163534D01*
X152152320Y-148165857D01*
X152152325Y-148165860D01*
X152272301Y-148221805D01*
X152325586Y-148268722D01*
X152345047Y-148336999D01*
X152324505Y-148404959D01*
X152272301Y-148450195D01*
X152152320Y-148506143D01*
X152152317Y-148506145D01*
X152147339Y-148508466D01*
X151966380Y-148635174D01*
X151810174Y-148791380D01*
X151683466Y-148972339D01*
X151590106Y-149172550D01*
X151532930Y-149385932D01*
X151513677Y-149606000D01*
X151532930Y-149826068D01*
X151590106Y-150039450D01*
X151683466Y-150239661D01*
X151810174Y-150420620D01*
X151966380Y-150576826D01*
X151970888Y-150579983D01*
X151970891Y-150579985D01*
X152142829Y-150700377D01*
X152147338Y-150703534D01*
X152152320Y-150705857D01*
X152152325Y-150705860D01*
X152272301Y-150761805D01*
X152325586Y-150808722D01*
X152345047Y-150876999D01*
X152324505Y-150944959D01*
X152272301Y-150990195D01*
X152152320Y-151046143D01*
X152152317Y-151046145D01*
X152147339Y-151048466D01*
X151966380Y-151175174D01*
X151810174Y-151331380D01*
X151683466Y-151512339D01*
X151590106Y-151712550D01*
X151532930Y-151925932D01*
X151513677Y-152146000D01*
X151532930Y-152366068D01*
X151590106Y-152579450D01*
X151592428Y-152584431D01*
X151592429Y-152584432D01*
X151667388Y-152745181D01*
X151683466Y-152779661D01*
X151810174Y-152960620D01*
X151966380Y-153116826D01*
X151970888Y-153119983D01*
X151970891Y-153119985D01*
X152142829Y-153240377D01*
X152147338Y-153243534D01*
X152152320Y-153245857D01*
X152152325Y-153245860D01*
X152272301Y-153301805D01*
X152325586Y-153348722D01*
X152345047Y-153416999D01*
X152324505Y-153484959D01*
X152272301Y-153530195D01*
X152152320Y-153586143D01*
X152152317Y-153586145D01*
X152147339Y-153588466D01*
X151966380Y-153715174D01*
X151810174Y-153871380D01*
X151683466Y-154052339D01*
X151590106Y-154252550D01*
X151532930Y-154465932D01*
X151513677Y-154686000D01*
X151532930Y-154906068D01*
X151590106Y-155119450D01*
X151683466Y-155319661D01*
X151810174Y-155500620D01*
X151966380Y-155656826D01*
X151970888Y-155659983D01*
X151970891Y-155659985D01*
X152142829Y-155780377D01*
X152147338Y-155783534D01*
X152152320Y-155785857D01*
X152152325Y-155785860D01*
X152342568Y-155874571D01*
X152347550Y-155876894D01*
X152352858Y-155878316D01*
X152352860Y-155878317D01*
X152418252Y-155895839D01*
X152560932Y-155934070D01*
X152781000Y-155953323D01*
X153001068Y-155934070D01*
X153143748Y-155895839D01*
X153209140Y-155878317D01*
X153209142Y-155878316D01*
X153214450Y-155876894D01*
X153219432Y-155874571D01*
X153409675Y-155785860D01*
X153409680Y-155785857D01*
X153414662Y-155783534D01*
X153419171Y-155780377D01*
X153591109Y-155659985D01*
X153591112Y-155659983D01*
X153595620Y-155656826D01*
X153751826Y-155500620D01*
X153878534Y-155319661D01*
X153971894Y-155119450D01*
X154029070Y-154906068D01*
X154048323Y-154686000D01*
X154029070Y-154465932D01*
X154027647Y-154460623D01*
X154027646Y-154460615D01*
X154019983Y-154432018D01*
X154021671Y-154361041D01*
X154052594Y-154310310D01*
X155078253Y-153284652D01*
X155086539Y-153277112D01*
X155093018Y-153273000D01*
X155139644Y-153223348D01*
X155142398Y-153220507D01*
X155162135Y-153200770D01*
X155164615Y-153197573D01*
X155172320Y-153188551D01*
X155197159Y-153162100D01*
X155202586Y-153156321D01*
X155206405Y-153149375D01*
X155206407Y-153149372D01*
X155212348Y-153138566D01*
X155223199Y-153122047D01*
X155224798Y-153119985D01*
X155235614Y-153106041D01*
X155238759Y-153098772D01*
X155238762Y-153098768D01*
X155253174Y-153065463D01*
X155258391Y-153054813D01*
X155279695Y-153016060D01*
X155284733Y-152996437D01*
X155291137Y-152977734D01*
X155296033Y-152966420D01*
X155296033Y-152966419D01*
X155299181Y-152959145D01*
X155300420Y-152951322D01*
X155300423Y-152951312D01*
X155306099Y-152915476D01*
X155308505Y-152903856D01*
X155317528Y-152868711D01*
X155317528Y-152868710D01*
X155319500Y-152861030D01*
X155319500Y-152840776D01*
X155321051Y-152821065D01*
X155322980Y-152808886D01*
X155324220Y-152801057D01*
X155320059Y-152757038D01*
X155319500Y-152745181D01*
X155319500Y-132011276D01*
X155321051Y-131991565D01*
X155322980Y-131979386D01*
X155324220Y-131971557D01*
X155320059Y-131927538D01*
X155319500Y-131915681D01*
X155319500Y-107629594D01*
X155339502Y-107561473D01*
X155356405Y-107540499D01*
X157405549Y-105491355D01*
X157467861Y-105457329D01*
X157519762Y-105456979D01*
X157699597Y-105493567D01*
X157704772Y-105493757D01*
X157704774Y-105493757D01*
X157917673Y-105501564D01*
X157917677Y-105501564D01*
X157922837Y-105501753D01*
X157927957Y-105501097D01*
X157927959Y-105501097D01*
X158139288Y-105474025D01*
X158139289Y-105474025D01*
X158144416Y-105473368D01*
X158149366Y-105471883D01*
X158353429Y-105410661D01*
X158353434Y-105410659D01*
X158358384Y-105409174D01*
X158558994Y-105310896D01*
X158740860Y-105181173D01*
X158899096Y-105023489D01*
X158958594Y-104940689D01*
X159026435Y-104846277D01*
X159029453Y-104842077D01*
X159128430Y-104641811D01*
X159193370Y-104428069D01*
X159222529Y-104206590D01*
X159224156Y-104140000D01*
X159205852Y-103917361D01*
X159151431Y-103700702D01*
X159062354Y-103495840D01*
X158941014Y-103308277D01*
X158790670Y-103143051D01*
X158786619Y-103139852D01*
X158786615Y-103139848D01*
X158619414Y-103007800D01*
X158619410Y-103007798D01*
X158615359Y-103004598D01*
X158574053Y-102981796D01*
X158524084Y-102931364D01*
X158509312Y-102861921D01*
X158534428Y-102795516D01*
X158561780Y-102768909D01*
X158605603Y-102737650D01*
X158740860Y-102641173D01*
X158899096Y-102483489D01*
X158958594Y-102400689D01*
X159026435Y-102306277D01*
X159029453Y-102302077D01*
X159128430Y-102101811D01*
X159193370Y-101888069D01*
X159222529Y-101666590D01*
X159224156Y-101600000D01*
X159205852Y-101377361D01*
X159151431Y-101160702D01*
X159062354Y-100955840D01*
X158941014Y-100768277D01*
X158937532Y-100764450D01*
X158793798Y-100606488D01*
X158762746Y-100542642D01*
X158771141Y-100472143D01*
X158816317Y-100417375D01*
X158842761Y-100403706D01*
X158949297Y-100363767D01*
X158957705Y-100360615D01*
X159074261Y-100273261D01*
X159161615Y-100156705D01*
X159212745Y-100020316D01*
X159219500Y-99958134D01*
X159219500Y-98161866D01*
X159212745Y-98099684D01*
X159161615Y-97963295D01*
X159074261Y-97846739D01*
X158957705Y-97759385D01*
X158945132Y-97754672D01*
X158839203Y-97714960D01*
X158782439Y-97672318D01*
X158757739Y-97605756D01*
X158772947Y-97536408D01*
X158794493Y-97507727D01*
X158844746Y-97457649D01*
X158899096Y-97403489D01*
X158958594Y-97320689D01*
X159026435Y-97226277D01*
X159029453Y-97222077D01*
X159065979Y-97148173D01*
X159126136Y-97026453D01*
X159126137Y-97026451D01*
X159128430Y-97021811D01*
X159193370Y-96808069D01*
X159222529Y-96586590D01*
X159224156Y-96520000D01*
X159205852Y-96297361D01*
X159151431Y-96080702D01*
X159062354Y-95875840D01*
X158985078Y-95756389D01*
X158943822Y-95692617D01*
X158943820Y-95692614D01*
X158941014Y-95688277D01*
X158790670Y-95523051D01*
X158786619Y-95519852D01*
X158786615Y-95519848D01*
X158619414Y-95387800D01*
X158619410Y-95387798D01*
X158615359Y-95384598D01*
X158574053Y-95361796D01*
X158524084Y-95311364D01*
X158509312Y-95241921D01*
X158534428Y-95175516D01*
X158561780Y-95148909D01*
X158605603Y-95117650D01*
X158740860Y-95021173D01*
X158775387Y-94986767D01*
X158895435Y-94867137D01*
X158899096Y-94863489D01*
X158958594Y-94780689D01*
X159026435Y-94686277D01*
X159029453Y-94682077D01*
X159128430Y-94481811D01*
X159193370Y-94268069D01*
X159222529Y-94046590D01*
X159224156Y-93980000D01*
X159205852Y-93757361D01*
X159151431Y-93540702D01*
X159062354Y-93335840D01*
X158941014Y-93148277D01*
X158790670Y-92983051D01*
X158786619Y-92979852D01*
X158786615Y-92979848D01*
X158619414Y-92847800D01*
X158619410Y-92847798D01*
X158615359Y-92844598D01*
X158574053Y-92821796D01*
X158524084Y-92771364D01*
X158509312Y-92701921D01*
X158534428Y-92635516D01*
X158561780Y-92608909D01*
X158605603Y-92577650D01*
X158740860Y-92481173D01*
X158899096Y-92323489D01*
X158958594Y-92240689D01*
X159026435Y-92146277D01*
X159029453Y-92142077D01*
X159057939Y-92084441D01*
X159126136Y-91946453D01*
X159126137Y-91946451D01*
X159128430Y-91941811D01*
X159184746Y-91756455D01*
X159191865Y-91733023D01*
X159191865Y-91733021D01*
X159193370Y-91728069D01*
X159222529Y-91506590D01*
X159222611Y-91503240D01*
X159224074Y-91443365D01*
X159224074Y-91443361D01*
X159224156Y-91440000D01*
X159205852Y-91217361D01*
X159151431Y-91000702D01*
X159062354Y-90795840D01*
X158941014Y-90608277D01*
X158790670Y-90443051D01*
X158786619Y-90439852D01*
X158786615Y-90439848D01*
X158619414Y-90307800D01*
X158619410Y-90307798D01*
X158615359Y-90304598D01*
X158574053Y-90281796D01*
X158524084Y-90231364D01*
X158509312Y-90161921D01*
X158534428Y-90095516D01*
X158561780Y-90068909D01*
X158605603Y-90037650D01*
X158740860Y-89941173D01*
X158753578Y-89928500D01*
X158895435Y-89787137D01*
X158899096Y-89783489D01*
X158909883Y-89768478D01*
X159026435Y-89606277D01*
X159029453Y-89602077D01*
X159068888Y-89522287D01*
X159126136Y-89406453D01*
X159126137Y-89406451D01*
X159128430Y-89401811D01*
X159193370Y-89188069D01*
X159222529Y-88966590D01*
X159224156Y-88900000D01*
X159205852Y-88677361D01*
X159151431Y-88460702D01*
X159062354Y-88255840D01*
X158992112Y-88147262D01*
X158943822Y-88072617D01*
X158943820Y-88072614D01*
X158941014Y-88068277D01*
X158932118Y-88058500D01*
X158793798Y-87906488D01*
X158762746Y-87842642D01*
X158771141Y-87772143D01*
X158816317Y-87717375D01*
X158842761Y-87703706D01*
X158949297Y-87663767D01*
X158957705Y-87660615D01*
X159074261Y-87573261D01*
X159161615Y-87456705D01*
X159212745Y-87320316D01*
X159219500Y-87258134D01*
X159219500Y-85461866D01*
X159212745Y-85399684D01*
X159161615Y-85263295D01*
X159074261Y-85146739D01*
X158957705Y-85059385D01*
X158945132Y-85054672D01*
X158839203Y-85014960D01*
X158782439Y-84972318D01*
X158757739Y-84905756D01*
X158772947Y-84836408D01*
X158794493Y-84807727D01*
X158829075Y-84773266D01*
X158899096Y-84703489D01*
X158958594Y-84620689D01*
X159026435Y-84526277D01*
X159029453Y-84522077D01*
X159094367Y-84390734D01*
X159126136Y-84326453D01*
X159126137Y-84326451D01*
X159128430Y-84321811D01*
X159193370Y-84108069D01*
X159222529Y-83886590D01*
X159224156Y-83820000D01*
X159205852Y-83597361D01*
X159151431Y-83380702D01*
X159062354Y-83175840D01*
X158941014Y-82988277D01*
X158790670Y-82823051D01*
X158786619Y-82819852D01*
X158786615Y-82819848D01*
X158619414Y-82687800D01*
X158619410Y-82687798D01*
X158615359Y-82684598D01*
X158574053Y-82661796D01*
X158524084Y-82611364D01*
X158509312Y-82541921D01*
X158534428Y-82475516D01*
X158561780Y-82448909D01*
X158605603Y-82417650D01*
X158740860Y-82321173D01*
X158899096Y-82163489D01*
X158958594Y-82080689D01*
X159026435Y-81986277D01*
X159029453Y-81982077D01*
X159047225Y-81946119D01*
X159126136Y-81786453D01*
X159126137Y-81786451D01*
X159128430Y-81781811D01*
X159193370Y-81568069D01*
X159222529Y-81346590D01*
X159223243Y-81317376D01*
X159224074Y-81283365D01*
X159224074Y-81283361D01*
X159224156Y-81280000D01*
X159205852Y-81057361D01*
X159151431Y-80840702D01*
X159062354Y-80635840D01*
X159014719Y-80562208D01*
X158943822Y-80452617D01*
X158943820Y-80452614D01*
X158941014Y-80448277D01*
X158790670Y-80283051D01*
X158786619Y-80279852D01*
X158786615Y-80279848D01*
X158619414Y-80147800D01*
X158619410Y-80147798D01*
X158615359Y-80144598D01*
X158574053Y-80121796D01*
X158524084Y-80071364D01*
X158509312Y-80001921D01*
X158534428Y-79935516D01*
X158561780Y-79908909D01*
X158614227Y-79871499D01*
X158740860Y-79781173D01*
X158753577Y-79768501D01*
X158895435Y-79627137D01*
X158899096Y-79623489D01*
X158957131Y-79542725D01*
X159026435Y-79446277D01*
X159029453Y-79442077D01*
X159062562Y-79375087D01*
X159126136Y-79246453D01*
X159126137Y-79246451D01*
X159128430Y-79241811D01*
X159193370Y-79028069D01*
X159222529Y-78806590D01*
X159223384Y-78771601D01*
X159224074Y-78743365D01*
X159224074Y-78743361D01*
X159224156Y-78740000D01*
X159205852Y-78517361D01*
X159151431Y-78300702D01*
X159062354Y-78095840D01*
X158941014Y-77908277D01*
X158790670Y-77743051D01*
X158786619Y-77739852D01*
X158786615Y-77739848D01*
X158619414Y-77607800D01*
X158619410Y-77607798D01*
X158615359Y-77604598D01*
X158574053Y-77581796D01*
X158524084Y-77531364D01*
X158509312Y-77461921D01*
X158534428Y-77395516D01*
X158561780Y-77368909D01*
X158605603Y-77337650D01*
X158740860Y-77241173D01*
X158899096Y-77083489D01*
X158958594Y-77000689D01*
X159026435Y-76906277D01*
X159029453Y-76902077D01*
X159128430Y-76701811D01*
X159193370Y-76488069D01*
X159222529Y-76266590D01*
X159224156Y-76200000D01*
X159205852Y-75977361D01*
X159151431Y-75760702D01*
X159062354Y-75555840D01*
X158941014Y-75368277D01*
X158937532Y-75364450D01*
X158793798Y-75206488D01*
X158762746Y-75142642D01*
X158771141Y-75072143D01*
X158816317Y-75017375D01*
X158842761Y-75003706D01*
X158949297Y-74963767D01*
X158957705Y-74960615D01*
X159074261Y-74873261D01*
X159161615Y-74756705D01*
X159212745Y-74620316D01*
X159219500Y-74558134D01*
X159219500Y-72761866D01*
X159212745Y-72699684D01*
X159161615Y-72563295D01*
X159074261Y-72446739D01*
X158957705Y-72359385D01*
X158945132Y-72354672D01*
X158839203Y-72314960D01*
X158782439Y-72272318D01*
X158757739Y-72205756D01*
X158772947Y-72136408D01*
X158794493Y-72107727D01*
X158895435Y-72007137D01*
X158899096Y-72003489D01*
X158958594Y-71920689D01*
X159026435Y-71826277D01*
X159029453Y-71822077D01*
X159061225Y-71757792D01*
X159126136Y-71626453D01*
X159126137Y-71626451D01*
X159128430Y-71621811D01*
X159193370Y-71408069D01*
X159222529Y-71186590D01*
X159224156Y-71120000D01*
X159205852Y-70897361D01*
X159151431Y-70680702D01*
X159062354Y-70475840D01*
X158993712Y-70369736D01*
X158943822Y-70292617D01*
X158943820Y-70292614D01*
X158941014Y-70288277D01*
X158790670Y-70123051D01*
X158786619Y-70119852D01*
X158786615Y-70119848D01*
X158619414Y-69987800D01*
X158619410Y-69987798D01*
X158615359Y-69984598D01*
X158574053Y-69961796D01*
X158524084Y-69911364D01*
X158509312Y-69841921D01*
X158534428Y-69775516D01*
X158561780Y-69748909D01*
X158605603Y-69717650D01*
X158740860Y-69621173D01*
X158899096Y-69463489D01*
X158907639Y-69451601D01*
X159026435Y-69286277D01*
X159029453Y-69282077D01*
X159049158Y-69242208D01*
X159126136Y-69086453D01*
X159126137Y-69086451D01*
X159128430Y-69081811D01*
X159193370Y-68868069D01*
X159222529Y-68646590D01*
X159224156Y-68580000D01*
X159205852Y-68357361D01*
X159151431Y-68140702D01*
X159062354Y-67935840D01*
X158954675Y-67769393D01*
X158943822Y-67752617D01*
X158943820Y-67752614D01*
X158941014Y-67748277D01*
X158790670Y-67583051D01*
X158786619Y-67579852D01*
X158786615Y-67579848D01*
X158619414Y-67447800D01*
X158619410Y-67447798D01*
X158615359Y-67444598D01*
X158574053Y-67421796D01*
X158524084Y-67371364D01*
X158509312Y-67301921D01*
X158534428Y-67235516D01*
X158561780Y-67208909D01*
X158605603Y-67177650D01*
X158740860Y-67081173D01*
X158899096Y-66923489D01*
X158952742Y-66848833D01*
X159026435Y-66746277D01*
X159029453Y-66742077D01*
X159055242Y-66689898D01*
X159126136Y-66546453D01*
X159126137Y-66546451D01*
X159128430Y-66541811D01*
X159193370Y-66328069D01*
X159222529Y-66106590D01*
X159223668Y-66059974D01*
X159224074Y-66043365D01*
X159224074Y-66043361D01*
X159224156Y-66040000D01*
X159205852Y-65817361D01*
X159151431Y-65600702D01*
X159062354Y-65395840D01*
X158941014Y-65208277D01*
X158790670Y-65043051D01*
X158786619Y-65039852D01*
X158786615Y-65039848D01*
X158619414Y-64907800D01*
X158619410Y-64907798D01*
X158615359Y-64904598D01*
X158574053Y-64881796D01*
X158524084Y-64831364D01*
X158509312Y-64761921D01*
X158534428Y-64695516D01*
X158561780Y-64668909D01*
X158626330Y-64622866D01*
X158740860Y-64541173D01*
X158763315Y-64518797D01*
X158882209Y-64400317D01*
X158899096Y-64383489D01*
X158908979Y-64369736D01*
X159026435Y-64206277D01*
X159029453Y-64202077D01*
X159128430Y-64001811D01*
X159193370Y-63788069D01*
X159222529Y-63566590D01*
X159222827Y-63554396D01*
X159224074Y-63503365D01*
X159224074Y-63503361D01*
X159224156Y-63500000D01*
X159205852Y-63277361D01*
X159151431Y-63060702D01*
X159062354Y-62855840D01*
X158957399Y-62693604D01*
X158943822Y-62672617D01*
X158943820Y-62672614D01*
X158941014Y-62668277D01*
X158937532Y-62664450D01*
X158793798Y-62506488D01*
X158762746Y-62442642D01*
X158771141Y-62372143D01*
X158816317Y-62317375D01*
X158842761Y-62303706D01*
X158949297Y-62263767D01*
X158957705Y-62260615D01*
X159074261Y-62173261D01*
X159161615Y-62056705D01*
X159212745Y-61920316D01*
X159219500Y-61858134D01*
X159219500Y-60061866D01*
X159212745Y-59999684D01*
X159161615Y-59863295D01*
X159074261Y-59746739D01*
X158957705Y-59659385D01*
X158945132Y-59654672D01*
X158839203Y-59614960D01*
X158782439Y-59572318D01*
X158757739Y-59505756D01*
X158772947Y-59436408D01*
X158794493Y-59407727D01*
X158895435Y-59307137D01*
X158899096Y-59303489D01*
X158958594Y-59220689D01*
X159026435Y-59126277D01*
X159029453Y-59122077D01*
X159128430Y-58921811D01*
X159193370Y-58708069D01*
X159222529Y-58486590D01*
X159224156Y-58420000D01*
X159205852Y-58197361D01*
X159151431Y-57980702D01*
X159062354Y-57775840D01*
X158941014Y-57588277D01*
X158790670Y-57423051D01*
X158786619Y-57419852D01*
X158786615Y-57419848D01*
X158619414Y-57287800D01*
X158619410Y-57287798D01*
X158615359Y-57284598D01*
X158574053Y-57261796D01*
X158524084Y-57211364D01*
X158509312Y-57141921D01*
X158534428Y-57075516D01*
X158561780Y-57048909D01*
X158605603Y-57017650D01*
X158740860Y-56921173D01*
X158899096Y-56763489D01*
X158958594Y-56680689D01*
X159026435Y-56586277D01*
X159029453Y-56582077D01*
X159128430Y-56381811D01*
X159193370Y-56168069D01*
X159222529Y-55946590D01*
X159224156Y-55880000D01*
X159205852Y-55657361D01*
X159151431Y-55440702D01*
X159062354Y-55235840D01*
X158941014Y-55048277D01*
X158790670Y-54883051D01*
X158786619Y-54879852D01*
X158786615Y-54879848D01*
X158619414Y-54747800D01*
X158619410Y-54747798D01*
X158615359Y-54744598D01*
X158419789Y-54636638D01*
X158414920Y-54634914D01*
X158414916Y-54634912D01*
X158214087Y-54563795D01*
X158214083Y-54563794D01*
X158209212Y-54562069D01*
X158204119Y-54561162D01*
X158204116Y-54561161D01*
X157994373Y-54523800D01*
X157994367Y-54523799D01*
X157989284Y-54522894D01*
X157915452Y-54521992D01*
X157771081Y-54520228D01*
X157771079Y-54520228D01*
X157765911Y-54520165D01*
X157545091Y-54553955D01*
X157332756Y-54623357D01*
X157134607Y-54726507D01*
X157130474Y-54729610D01*
X157130471Y-54729612D01*
X157106247Y-54747800D01*
X156955965Y-54860635D01*
X156801629Y-55022138D01*
X156675743Y-55206680D01*
X156581688Y-55409305D01*
X156521989Y-55624570D01*
X156498251Y-55846695D01*
X156498548Y-55851848D01*
X156498548Y-55851851D01*
X156504011Y-55946590D01*
X156511110Y-56069715D01*
X156512247Y-56074761D01*
X156512248Y-56074767D01*
X156532119Y-56162939D01*
X156560222Y-56287639D01*
X156644266Y-56494616D01*
X156760987Y-56685088D01*
X156907250Y-56853938D01*
X157079126Y-56996632D01*
X157149595Y-57037811D01*
X157152445Y-57039476D01*
X157201169Y-57091114D01*
X157214240Y-57160897D01*
X157187509Y-57226669D01*
X157147055Y-57260027D01*
X157134607Y-57266507D01*
X157130474Y-57269610D01*
X157130471Y-57269612D01*
X157106247Y-57287800D01*
X156955965Y-57400635D01*
X156801629Y-57562138D01*
X156675743Y-57746680D01*
X156581688Y-57949305D01*
X156521989Y-58164570D01*
X156498251Y-58386695D01*
X156498548Y-58391848D01*
X156498548Y-58391851D01*
X156504011Y-58486590D01*
X156511110Y-58609715D01*
X156512247Y-58614761D01*
X156512248Y-58614767D01*
X156532119Y-58702939D01*
X156560222Y-58827639D01*
X156644266Y-59034616D01*
X156760987Y-59225088D01*
X156907250Y-59393938D01*
X156911230Y-59397242D01*
X156915981Y-59401187D01*
X156955616Y-59460090D01*
X156957113Y-59531071D01*
X156919997Y-59591593D01*
X156879724Y-59616112D01*
X156764295Y-59659385D01*
X156647739Y-59746739D01*
X156560385Y-59863295D01*
X156509255Y-59999684D01*
X156502500Y-60061866D01*
X156502500Y-61858134D01*
X156509255Y-61920316D01*
X156560385Y-62056705D01*
X156647739Y-62173261D01*
X156764295Y-62260615D01*
X156772704Y-62263767D01*
X156772705Y-62263768D01*
X156881451Y-62304535D01*
X156938216Y-62347176D01*
X156962916Y-62413738D01*
X156947709Y-62483087D01*
X156928316Y-62509568D01*
X156877311Y-62562942D01*
X156801629Y-62642138D01*
X156675743Y-62826680D01*
X156581688Y-63029305D01*
X156521989Y-63244570D01*
X156498251Y-63466695D01*
X156498548Y-63471848D01*
X156498548Y-63471851D01*
X156509218Y-63656899D01*
X156511110Y-63689715D01*
X156512247Y-63694761D01*
X156512248Y-63694767D01*
X156526452Y-63757792D01*
X156560222Y-63907639D01*
X156644266Y-64114616D01*
X156760987Y-64305088D01*
X156907250Y-64473938D01*
X157079126Y-64616632D01*
X157149595Y-64657811D01*
X157152445Y-64659476D01*
X157201169Y-64711114D01*
X157214240Y-64780897D01*
X157187509Y-64846669D01*
X157147055Y-64880027D01*
X157134607Y-64886507D01*
X157130474Y-64889610D01*
X157130471Y-64889612D01*
X157106247Y-64907800D01*
X156955965Y-65020635D01*
X156801629Y-65182138D01*
X156675743Y-65366680D01*
X156581688Y-65569305D01*
X156521989Y-65784570D01*
X156498251Y-66006695D01*
X156498548Y-66011848D01*
X156498548Y-66011851D01*
X156506320Y-66146637D01*
X156511110Y-66229715D01*
X156512247Y-66234761D01*
X156512248Y-66234767D01*
X156527369Y-66301862D01*
X156560222Y-66447639D01*
X156644266Y-66654616D01*
X156760987Y-66845088D01*
X156907250Y-67013938D01*
X157079126Y-67156632D01*
X157149595Y-67197811D01*
X157152445Y-67199476D01*
X157201169Y-67251114D01*
X157214240Y-67320897D01*
X157187509Y-67386669D01*
X157147055Y-67420027D01*
X157134607Y-67426507D01*
X157130474Y-67429610D01*
X157130471Y-67429612D01*
X156960100Y-67557530D01*
X156955965Y-67560635D01*
X156801629Y-67722138D01*
X156798715Y-67726410D01*
X156798714Y-67726411D01*
X156769394Y-67769393D01*
X156675743Y-67906680D01*
X156660003Y-67940590D01*
X156604587Y-68059974D01*
X156581688Y-68109305D01*
X156521989Y-68324570D01*
X156498251Y-68546695D01*
X156498548Y-68551848D01*
X156498548Y-68551851D01*
X156506983Y-68698138D01*
X156511110Y-68769715D01*
X156512247Y-68774761D01*
X156512248Y-68774767D01*
X156528940Y-68848833D01*
X156560222Y-68987639D01*
X156644266Y-69194616D01*
X156760987Y-69385088D01*
X156907250Y-69553938D01*
X157079126Y-69696632D01*
X157149595Y-69737811D01*
X157152445Y-69739476D01*
X157201169Y-69791114D01*
X157214240Y-69860897D01*
X157187509Y-69926669D01*
X157147055Y-69960027D01*
X157134607Y-69966507D01*
X157130474Y-69969610D01*
X157130471Y-69969612D01*
X157016629Y-70055087D01*
X156955965Y-70100635D01*
X156952393Y-70104373D01*
X156830666Y-70231753D01*
X156801629Y-70262138D01*
X156675743Y-70446680D01*
X156642268Y-70518797D01*
X156590527Y-70630264D01*
X156581688Y-70649305D01*
X156521989Y-70864570D01*
X156498251Y-71086695D01*
X156498548Y-71091848D01*
X156498548Y-71091851D01*
X156504011Y-71186590D01*
X156511110Y-71309715D01*
X156512247Y-71314761D01*
X156512248Y-71314767D01*
X156518634Y-71343101D01*
X156560222Y-71527639D01*
X156644266Y-71734616D01*
X156665577Y-71769393D01*
X156719080Y-71856701D01*
X156760987Y-71925088D01*
X156907250Y-72093938D01*
X156911230Y-72097242D01*
X156915981Y-72101187D01*
X156955616Y-72160090D01*
X156957113Y-72231071D01*
X156919997Y-72291593D01*
X156879724Y-72316112D01*
X156764295Y-72359385D01*
X156647739Y-72446739D01*
X156560385Y-72563295D01*
X156509255Y-72699684D01*
X156502500Y-72761866D01*
X156502500Y-74558134D01*
X156509255Y-74620316D01*
X156560385Y-74756705D01*
X156647739Y-74873261D01*
X156764295Y-74960615D01*
X156772704Y-74963767D01*
X156772705Y-74963768D01*
X156881451Y-75004535D01*
X156938216Y-75047176D01*
X156962916Y-75113738D01*
X156947709Y-75183087D01*
X156928316Y-75209568D01*
X156801629Y-75342138D01*
X156675743Y-75526680D01*
X156581688Y-75729305D01*
X156521989Y-75944570D01*
X156498251Y-76166695D01*
X156498548Y-76171848D01*
X156498548Y-76171851D01*
X156504011Y-76266590D01*
X156511110Y-76389715D01*
X156512247Y-76394761D01*
X156512248Y-76394767D01*
X156532119Y-76482939D01*
X156560222Y-76607639D01*
X156644266Y-76814616D01*
X156760987Y-77005088D01*
X156907250Y-77173938D01*
X157079126Y-77316632D01*
X157149595Y-77357811D01*
X157152445Y-77359476D01*
X157201169Y-77411114D01*
X157214240Y-77480897D01*
X157187509Y-77546669D01*
X157147055Y-77580027D01*
X157134607Y-77586507D01*
X157130474Y-77589610D01*
X157130471Y-77589612D01*
X156967769Y-77711772D01*
X156955965Y-77720635D01*
X156948700Y-77728237D01*
X156850135Y-77831380D01*
X156801629Y-77882138D01*
X156675743Y-78066680D01*
X156660003Y-78100590D01*
X156600745Y-78228251D01*
X156581688Y-78269305D01*
X156521989Y-78484570D01*
X156498251Y-78706695D01*
X156498548Y-78711848D01*
X156498548Y-78711851D01*
X156504011Y-78806590D01*
X156511110Y-78929715D01*
X156512247Y-78934761D01*
X156512248Y-78934767D01*
X156523056Y-78982725D01*
X156560222Y-79147639D01*
X156644266Y-79354616D01*
X156760987Y-79545088D01*
X156907250Y-79713938D01*
X157079126Y-79856632D01*
X157149595Y-79897811D01*
X157152445Y-79899476D01*
X157201169Y-79951114D01*
X157214240Y-80020897D01*
X157187509Y-80086669D01*
X157147055Y-80120027D01*
X157134607Y-80126507D01*
X157130474Y-80129610D01*
X157130471Y-80129612D01*
X156968756Y-80251031D01*
X156955965Y-80260635D01*
X156952393Y-80264373D01*
X156805836Y-80417736D01*
X156801629Y-80422138D01*
X156675743Y-80606680D01*
X156660003Y-80640590D01*
X156599190Y-80771601D01*
X156581688Y-80809305D01*
X156521989Y-81024570D01*
X156498251Y-81246695D01*
X156498548Y-81251848D01*
X156498548Y-81251851D01*
X156504011Y-81346590D01*
X156511110Y-81469715D01*
X156512247Y-81474761D01*
X156512248Y-81474767D01*
X156527564Y-81542725D01*
X156560222Y-81687639D01*
X156644266Y-81894616D01*
X156760987Y-82085088D01*
X156907250Y-82253938D01*
X157079126Y-82396632D01*
X157149595Y-82437811D01*
X157152445Y-82439476D01*
X157201169Y-82491114D01*
X157214240Y-82560897D01*
X157187509Y-82626669D01*
X157147055Y-82660027D01*
X157134607Y-82666507D01*
X157130474Y-82669610D01*
X157130471Y-82669612D01*
X156960100Y-82797530D01*
X156955965Y-82800635D01*
X156801629Y-82962138D01*
X156798715Y-82966410D01*
X156798714Y-82966411D01*
X156786404Y-82984457D01*
X156675743Y-83146680D01*
X156581688Y-83349305D01*
X156521989Y-83564570D01*
X156498251Y-83786695D01*
X156498548Y-83791848D01*
X156498548Y-83791851D01*
X156504011Y-83886590D01*
X156511110Y-84009715D01*
X156512247Y-84014761D01*
X156512248Y-84014767D01*
X156532119Y-84102939D01*
X156560222Y-84227639D01*
X156621673Y-84378976D01*
X156626448Y-84390734D01*
X156644266Y-84434616D01*
X156646965Y-84439020D01*
X156747252Y-84602674D01*
X156760987Y-84625088D01*
X156907250Y-84793938D01*
X156911230Y-84797242D01*
X156915981Y-84801187D01*
X156955616Y-84860090D01*
X156957113Y-84931071D01*
X156919997Y-84991593D01*
X156879724Y-85016112D01*
X156764295Y-85059385D01*
X156647739Y-85146739D01*
X156560385Y-85263295D01*
X156509255Y-85399684D01*
X156502500Y-85461866D01*
X156502500Y-87258134D01*
X156509255Y-87320316D01*
X156560385Y-87456705D01*
X156647739Y-87573261D01*
X156764295Y-87660615D01*
X156772704Y-87663767D01*
X156772705Y-87663768D01*
X156881451Y-87704535D01*
X156938216Y-87747176D01*
X156962916Y-87813738D01*
X156947709Y-87883087D01*
X156928316Y-87909568D01*
X156801629Y-88042138D01*
X156798715Y-88046410D01*
X156798714Y-88046411D01*
X156786409Y-88064450D01*
X156675743Y-88226680D01*
X156581688Y-88429305D01*
X156521989Y-88644570D01*
X156498251Y-88866695D01*
X156498548Y-88871848D01*
X156498548Y-88871851D01*
X156504011Y-88966590D01*
X156511110Y-89089715D01*
X156512247Y-89094761D01*
X156512248Y-89094767D01*
X156544453Y-89237668D01*
X156539917Y-89308520D01*
X156510631Y-89354464D01*
X150483747Y-95381348D01*
X150475461Y-95388888D01*
X150468982Y-95393000D01*
X150463557Y-95398777D01*
X150422357Y-95442651D01*
X150419602Y-95445493D01*
X150399865Y-95465230D01*
X150397385Y-95468427D01*
X150389682Y-95477447D01*
X150359414Y-95509679D01*
X150355595Y-95516625D01*
X150355593Y-95516628D01*
X150349652Y-95527434D01*
X150338801Y-95543953D01*
X150326386Y-95559959D01*
X150323241Y-95567228D01*
X150323238Y-95567232D01*
X150308826Y-95600537D01*
X150303609Y-95611187D01*
X150282305Y-95649940D01*
X150280334Y-95657615D01*
X150280334Y-95657616D01*
X150277267Y-95669562D01*
X150270863Y-95688266D01*
X150262819Y-95706855D01*
X150261580Y-95714678D01*
X150261577Y-95714688D01*
X150255901Y-95750524D01*
X150253495Y-95762144D01*
X150242500Y-95804970D01*
X150242500Y-95825224D01*
X150240949Y-95844934D01*
X150237780Y-95864943D01*
X141275304Y-95864943D01*
X141205078Y-95756389D01*
X141163822Y-95692617D01*
X141163820Y-95692614D01*
X141161014Y-95688277D01*
X141010670Y-95523051D01*
X141006619Y-95519852D01*
X141006615Y-95519848D01*
X140839414Y-95387800D01*
X140839410Y-95387798D01*
X140835359Y-95384598D01*
X140794053Y-95361796D01*
X140744084Y-95311364D01*
X140729312Y-95241921D01*
X140754428Y-95175516D01*
X140781780Y-95148909D01*
X140825603Y-95117650D01*
X140960860Y-95021173D01*
X140995387Y-94986767D01*
X141115435Y-94867137D01*
X141119096Y-94863489D01*
X141178594Y-94780689D01*
X141246435Y-94686277D01*
X141249453Y-94682077D01*
X141348430Y-94481811D01*
X141413370Y-94268069D01*
X141442529Y-94046590D01*
X141444156Y-93980000D01*
X141425852Y-93757361D01*
X141371431Y-93540702D01*
X141282354Y-93335840D01*
X141161014Y-93148277D01*
X141010670Y-92983051D01*
X141006619Y-92979852D01*
X141006615Y-92979848D01*
X140839414Y-92847800D01*
X140839410Y-92847798D01*
X140835359Y-92844598D01*
X140794053Y-92821796D01*
X140744084Y-92771364D01*
X140729312Y-92701921D01*
X140754428Y-92635516D01*
X140781780Y-92608909D01*
X140825603Y-92577650D01*
X140960860Y-92481173D01*
X141119096Y-92323489D01*
X141178594Y-92240689D01*
X141246435Y-92146277D01*
X141249453Y-92142077D01*
X141277939Y-92084441D01*
X141346136Y-91946453D01*
X141346137Y-91946451D01*
X141348430Y-91941811D01*
X141404746Y-91756455D01*
X141411865Y-91733023D01*
X141411865Y-91733021D01*
X141413370Y-91728069D01*
X141442529Y-91506590D01*
X141442611Y-91503240D01*
X141444074Y-91443365D01*
X141444074Y-91443361D01*
X141444156Y-91440000D01*
X141425852Y-91217361D01*
X141371431Y-91000702D01*
X141282354Y-90795840D01*
X141161014Y-90608277D01*
X141010670Y-90443051D01*
X141006619Y-90439852D01*
X141006615Y-90439848D01*
X140839414Y-90307800D01*
X140839410Y-90307798D01*
X140835359Y-90304598D01*
X140794053Y-90281796D01*
X140744084Y-90231364D01*
X140729312Y-90161921D01*
X140754428Y-90095516D01*
X140781780Y-90068909D01*
X140825603Y-90037650D01*
X140960860Y-89941173D01*
X140973578Y-89928500D01*
X141115435Y-89787137D01*
X141119096Y-89783489D01*
X141129883Y-89768478D01*
X141246435Y-89606277D01*
X141249453Y-89602077D01*
X141288888Y-89522287D01*
X141346136Y-89406453D01*
X141346137Y-89406451D01*
X141348430Y-89401811D01*
X141413370Y-89188069D01*
X141442529Y-88966590D01*
X141444156Y-88900000D01*
X141425852Y-88677361D01*
X141371431Y-88460702D01*
X141282354Y-88255840D01*
X141212112Y-88147262D01*
X141163822Y-88072617D01*
X141163820Y-88072614D01*
X141161014Y-88068277D01*
X141152118Y-88058500D01*
X141013798Y-87906488D01*
X140982746Y-87842642D01*
X140991141Y-87772143D01*
X141036317Y-87717375D01*
X141062761Y-87703706D01*
X141169297Y-87663767D01*
X141177705Y-87660615D01*
X141294261Y-87573261D01*
X141381615Y-87456705D01*
X141432745Y-87320316D01*
X141439500Y-87258134D01*
X141439500Y-85461866D01*
X141432745Y-85399684D01*
X141381615Y-85263295D01*
X141294261Y-85146739D01*
X141177705Y-85059385D01*
X141165132Y-85054672D01*
X141059203Y-85014960D01*
X141002439Y-84972318D01*
X140977739Y-84905756D01*
X140992947Y-84836408D01*
X141014493Y-84807727D01*
X141049075Y-84773266D01*
X141119096Y-84703489D01*
X141178594Y-84620689D01*
X141246435Y-84526277D01*
X141249453Y-84522077D01*
X141314367Y-84390734D01*
X141346136Y-84326453D01*
X141346137Y-84326451D01*
X141348430Y-84321811D01*
X141413370Y-84108069D01*
X141442529Y-83886590D01*
X141444156Y-83820000D01*
X141425852Y-83597361D01*
X141371431Y-83380702D01*
X141282354Y-83175840D01*
X141161014Y-82988277D01*
X141010670Y-82823051D01*
X141006619Y-82819852D01*
X141006615Y-82819848D01*
X140839414Y-82687800D01*
X140839410Y-82687798D01*
X140835359Y-82684598D01*
X140794053Y-82661796D01*
X140744084Y-82611364D01*
X140729312Y-82541921D01*
X140754428Y-82475516D01*
X140781780Y-82448909D01*
X140825603Y-82417650D01*
X140960860Y-82321173D01*
X141119096Y-82163489D01*
X141178594Y-82080689D01*
X141246435Y-81986277D01*
X141249453Y-81982077D01*
X141267225Y-81946119D01*
X141346136Y-81786453D01*
X141346137Y-81786451D01*
X141348430Y-81781811D01*
X141413370Y-81568069D01*
X141442529Y-81346590D01*
X141443243Y-81317376D01*
X141444074Y-81283365D01*
X141444074Y-81283361D01*
X141444156Y-81280000D01*
X141425852Y-81057361D01*
X141371431Y-80840702D01*
X141282354Y-80635840D01*
X141234719Y-80562208D01*
X141163822Y-80452617D01*
X141163820Y-80452614D01*
X141161014Y-80448277D01*
X141010670Y-80283051D01*
X141006619Y-80279852D01*
X141006615Y-80279848D01*
X140839414Y-80147800D01*
X140839410Y-80147798D01*
X140835359Y-80144598D01*
X140794053Y-80121796D01*
X140744084Y-80071364D01*
X140729312Y-80001921D01*
X140754428Y-79935516D01*
X140781780Y-79908909D01*
X140834227Y-79871499D01*
X140960860Y-79781173D01*
X140973577Y-79768501D01*
X141115435Y-79627137D01*
X141119096Y-79623489D01*
X141177131Y-79542725D01*
X141246435Y-79446277D01*
X141249453Y-79442077D01*
X141282562Y-79375087D01*
X141346136Y-79246453D01*
X141346137Y-79246451D01*
X141348430Y-79241811D01*
X141413370Y-79028069D01*
X141442529Y-78806590D01*
X141443384Y-78771601D01*
X141444074Y-78743365D01*
X141444074Y-78743361D01*
X141444156Y-78740000D01*
X141425852Y-78517361D01*
X141371431Y-78300702D01*
X141282354Y-78095840D01*
X141161014Y-77908277D01*
X141010670Y-77743051D01*
X141006619Y-77739852D01*
X141006615Y-77739848D01*
X140839414Y-77607800D01*
X140839410Y-77607798D01*
X140835359Y-77604598D01*
X140794053Y-77581796D01*
X140744084Y-77531364D01*
X140729312Y-77461921D01*
X140754428Y-77395516D01*
X140781780Y-77368909D01*
X140825603Y-77337650D01*
X140960860Y-77241173D01*
X141119096Y-77083489D01*
X141178594Y-77000689D01*
X141246435Y-76906277D01*
X141249453Y-76902077D01*
X141348430Y-76701811D01*
X141413370Y-76488069D01*
X141442529Y-76266590D01*
X141444156Y-76200000D01*
X141425852Y-75977361D01*
X141371431Y-75760702D01*
X141282354Y-75555840D01*
X141161014Y-75368277D01*
X141157532Y-75364450D01*
X141013798Y-75206488D01*
X140982746Y-75142642D01*
X140991141Y-75072143D01*
X141036317Y-75017375D01*
X141062761Y-75003706D01*
X141169297Y-74963767D01*
X141177705Y-74960615D01*
X141294261Y-74873261D01*
X141381615Y-74756705D01*
X141432745Y-74620316D01*
X141439500Y-74558134D01*
X141439500Y-72761866D01*
X141432745Y-72699684D01*
X141381615Y-72563295D01*
X141294261Y-72446739D01*
X141177705Y-72359385D01*
X141165132Y-72354672D01*
X141059203Y-72314960D01*
X141002439Y-72272318D01*
X140977739Y-72205756D01*
X140992947Y-72136408D01*
X141014493Y-72107727D01*
X141115435Y-72007137D01*
X141119096Y-72003489D01*
X141178594Y-71920689D01*
X141246435Y-71826277D01*
X141249453Y-71822077D01*
X141281225Y-71757792D01*
X141346136Y-71626453D01*
X141346137Y-71626451D01*
X141348430Y-71621811D01*
X141413370Y-71408069D01*
X141442529Y-71186590D01*
X141444156Y-71120000D01*
X141425852Y-70897361D01*
X141371431Y-70680702D01*
X141282354Y-70475840D01*
X141213712Y-70369736D01*
X141163822Y-70292617D01*
X141163820Y-70292614D01*
X141161014Y-70288277D01*
X141010670Y-70123051D01*
X141006619Y-70119852D01*
X141006615Y-70119848D01*
X140839414Y-69987800D01*
X140839410Y-69987798D01*
X140835359Y-69984598D01*
X140794053Y-69961796D01*
X140744084Y-69911364D01*
X140729312Y-69841921D01*
X140754428Y-69775516D01*
X140781780Y-69748909D01*
X140825603Y-69717650D01*
X140960860Y-69621173D01*
X141119096Y-69463489D01*
X141127639Y-69451601D01*
X141246435Y-69286277D01*
X141249453Y-69282077D01*
X141269158Y-69242208D01*
X141346136Y-69086453D01*
X141346137Y-69086451D01*
X141348430Y-69081811D01*
X141413370Y-68868069D01*
X141442529Y-68646590D01*
X141444156Y-68580000D01*
X141425852Y-68357361D01*
X141371431Y-68140702D01*
X141282354Y-67935840D01*
X141174675Y-67769393D01*
X141163822Y-67752617D01*
X141163820Y-67752614D01*
X141161014Y-67748277D01*
X141010670Y-67583051D01*
X141006619Y-67579852D01*
X141006615Y-67579848D01*
X140839414Y-67447800D01*
X140839410Y-67447798D01*
X140835359Y-67444598D01*
X140794053Y-67421796D01*
X140744084Y-67371364D01*
X140729312Y-67301921D01*
X140754428Y-67235516D01*
X140781780Y-67208909D01*
X140825603Y-67177650D01*
X140960860Y-67081173D01*
X141119096Y-66923489D01*
X141172742Y-66848833D01*
X141246435Y-66746277D01*
X141249453Y-66742077D01*
X141275242Y-66689898D01*
X141346136Y-66546453D01*
X141346137Y-66546451D01*
X141348430Y-66541811D01*
X141413370Y-66328069D01*
X141442529Y-66106590D01*
X141443668Y-66059974D01*
X141444074Y-66043365D01*
X141444074Y-66043361D01*
X141444156Y-66040000D01*
X141425852Y-65817361D01*
X141371431Y-65600702D01*
X141282354Y-65395840D01*
X141161014Y-65208277D01*
X141010670Y-65043051D01*
X141006619Y-65039852D01*
X141006615Y-65039848D01*
X140839414Y-64907800D01*
X140839410Y-64907798D01*
X140835359Y-64904598D01*
X140794053Y-64881796D01*
X140744084Y-64831364D01*
X140729312Y-64761921D01*
X140754428Y-64695516D01*
X140781780Y-64668909D01*
X140846330Y-64622866D01*
X140960860Y-64541173D01*
X140983315Y-64518797D01*
X141102209Y-64400317D01*
X141119096Y-64383489D01*
X141128979Y-64369736D01*
X141246435Y-64206277D01*
X141249453Y-64202077D01*
X141348430Y-64001811D01*
X141413370Y-63788069D01*
X141442529Y-63566590D01*
X141442827Y-63554396D01*
X141444074Y-63503365D01*
X141444074Y-63503361D01*
X141444156Y-63500000D01*
X141425852Y-63277361D01*
X141371431Y-63060702D01*
X141282354Y-62855840D01*
X141177399Y-62693604D01*
X141163822Y-62672617D01*
X141163820Y-62672614D01*
X141161014Y-62668277D01*
X141157532Y-62664450D01*
X141013798Y-62506488D01*
X140982746Y-62442642D01*
X140991141Y-62372143D01*
X141036317Y-62317375D01*
X141062761Y-62303706D01*
X141169297Y-62263767D01*
X141177705Y-62260615D01*
X141294261Y-62173261D01*
X141381615Y-62056705D01*
X141432745Y-61920316D01*
X141439500Y-61858134D01*
X141439500Y-60061866D01*
X141432745Y-59999684D01*
X141381615Y-59863295D01*
X141294261Y-59746739D01*
X141177705Y-59659385D01*
X141165132Y-59654672D01*
X141059203Y-59614960D01*
X141002439Y-59572318D01*
X140977739Y-59505756D01*
X140992947Y-59436408D01*
X141014493Y-59407727D01*
X141115435Y-59307137D01*
X141119096Y-59303489D01*
X141178594Y-59220689D01*
X141246435Y-59126277D01*
X141249453Y-59122077D01*
X141348430Y-58921811D01*
X141413370Y-58708069D01*
X141442529Y-58486590D01*
X141444156Y-58420000D01*
X141425852Y-58197361D01*
X141371431Y-57980702D01*
X141282354Y-57775840D01*
X141161014Y-57588277D01*
X141010670Y-57423051D01*
X141006619Y-57419852D01*
X141006615Y-57419848D01*
X140839414Y-57287800D01*
X140839410Y-57287798D01*
X140835359Y-57284598D01*
X140794053Y-57261796D01*
X140744084Y-57211364D01*
X140729312Y-57141921D01*
X140754428Y-57075516D01*
X140781780Y-57048909D01*
X140825603Y-57017650D01*
X140960860Y-56921173D01*
X141119096Y-56763489D01*
X141178594Y-56680689D01*
X141246435Y-56586277D01*
X141249453Y-56582077D01*
X141348430Y-56381811D01*
X141413370Y-56168069D01*
X141442529Y-55946590D01*
X141444156Y-55880000D01*
X141425852Y-55657361D01*
X141371431Y-55440702D01*
X141282354Y-55235840D01*
X141161014Y-55048277D01*
X141010670Y-54883051D01*
X141006619Y-54879852D01*
X141006615Y-54879848D01*
X140839414Y-54747800D01*
X140839410Y-54747798D01*
X140835359Y-54744598D01*
X140639789Y-54636638D01*
X140634920Y-54634914D01*
X140634916Y-54634912D01*
X140434087Y-54563795D01*
X140434083Y-54563794D01*
X140429212Y-54562069D01*
X140424119Y-54561162D01*
X140424116Y-54561161D01*
X140214373Y-54523800D01*
X140214367Y-54523799D01*
X140209284Y-54522894D01*
X140135452Y-54521992D01*
X139991081Y-54520228D01*
X139991079Y-54520228D01*
X139985911Y-54520165D01*
X139765091Y-54553955D01*
X139552756Y-54623357D01*
X139354607Y-54726507D01*
X139350474Y-54729610D01*
X139350471Y-54729612D01*
X139326247Y-54747800D01*
X139175965Y-54860635D01*
X139021629Y-55022138D01*
X138895743Y-55206680D01*
X138801688Y-55409305D01*
X138741989Y-55624570D01*
X138718251Y-55846695D01*
X138718548Y-55851848D01*
X138718548Y-55851851D01*
X138724011Y-55946590D01*
X138731110Y-56069715D01*
X138732247Y-56074761D01*
X138732248Y-56074767D01*
X138752119Y-56162939D01*
X138780222Y-56287639D01*
X138864266Y-56494616D01*
X138980987Y-56685088D01*
X139127250Y-56853938D01*
X139299126Y-56996632D01*
X139369595Y-57037811D01*
X139372445Y-57039476D01*
X139421169Y-57091114D01*
X139434240Y-57160897D01*
X139407509Y-57226669D01*
X139367055Y-57260027D01*
X139354607Y-57266507D01*
X139350474Y-57269610D01*
X139350471Y-57269612D01*
X139326247Y-57287800D01*
X139175965Y-57400635D01*
X139021629Y-57562138D01*
X138895743Y-57746680D01*
X138801688Y-57949305D01*
X138741989Y-58164570D01*
X138718251Y-58386695D01*
X138718548Y-58391848D01*
X138718548Y-58391851D01*
X138724011Y-58486590D01*
X138731110Y-58609715D01*
X138732247Y-58614761D01*
X138732248Y-58614767D01*
X138752119Y-58702939D01*
X138780222Y-58827639D01*
X138864266Y-59034616D01*
X138980987Y-59225088D01*
X139127250Y-59393938D01*
X139131230Y-59397242D01*
X139135981Y-59401187D01*
X139175616Y-59460090D01*
X139177113Y-59531071D01*
X139139997Y-59591593D01*
X139099724Y-59616112D01*
X138984295Y-59659385D01*
X138867739Y-59746739D01*
X138780385Y-59863295D01*
X138729255Y-59999684D01*
X138722500Y-60061866D01*
X138722500Y-61858134D01*
X138729255Y-61920316D01*
X138780385Y-62056705D01*
X138867739Y-62173261D01*
X138984295Y-62260615D01*
X138992704Y-62263767D01*
X138992705Y-62263768D01*
X139101451Y-62304535D01*
X139158216Y-62347176D01*
X139182916Y-62413738D01*
X139167709Y-62483087D01*
X139148316Y-62509568D01*
X139097311Y-62562942D01*
X139021629Y-62642138D01*
X138895743Y-62826680D01*
X138801688Y-63029305D01*
X138741989Y-63244570D01*
X138718251Y-63466695D01*
X138718548Y-63471848D01*
X138718548Y-63471851D01*
X138729218Y-63656899D01*
X138731110Y-63689715D01*
X138732247Y-63694761D01*
X138732248Y-63694767D01*
X138746452Y-63757792D01*
X138780222Y-63907639D01*
X138864266Y-64114616D01*
X138980987Y-64305088D01*
X139127250Y-64473938D01*
X139299126Y-64616632D01*
X139369595Y-64657811D01*
X139372445Y-64659476D01*
X139421169Y-64711114D01*
X139434240Y-64780897D01*
X139407509Y-64846669D01*
X139367055Y-64880027D01*
X139354607Y-64886507D01*
X139350474Y-64889610D01*
X139350471Y-64889612D01*
X139326247Y-64907800D01*
X139175965Y-65020635D01*
X139021629Y-65182138D01*
X138895743Y-65366680D01*
X138801688Y-65569305D01*
X138741989Y-65784570D01*
X138718251Y-66006695D01*
X138718548Y-66011848D01*
X138718548Y-66011851D01*
X138726320Y-66146637D01*
X138731110Y-66229715D01*
X138732247Y-66234761D01*
X138732248Y-66234767D01*
X138747369Y-66301862D01*
X138780222Y-66447639D01*
X138864266Y-66654616D01*
X138980987Y-66845088D01*
X139127250Y-67013938D01*
X139299126Y-67156632D01*
X139369595Y-67197811D01*
X139372445Y-67199476D01*
X139421169Y-67251114D01*
X139434240Y-67320897D01*
X139407509Y-67386669D01*
X139367055Y-67420027D01*
X139354607Y-67426507D01*
X139350474Y-67429610D01*
X139350471Y-67429612D01*
X139180100Y-67557530D01*
X139175965Y-67560635D01*
X139021629Y-67722138D01*
X139018715Y-67726410D01*
X139018714Y-67726411D01*
X138989394Y-67769393D01*
X138895743Y-67906680D01*
X138880003Y-67940590D01*
X138824587Y-68059974D01*
X138801688Y-68109305D01*
X138741989Y-68324570D01*
X138718251Y-68546695D01*
X138718548Y-68551848D01*
X138718548Y-68551851D01*
X138726983Y-68698138D01*
X138731110Y-68769715D01*
X138732247Y-68774761D01*
X138732248Y-68774767D01*
X138748940Y-68848833D01*
X138780222Y-68987639D01*
X138864266Y-69194616D01*
X138980987Y-69385088D01*
X139127250Y-69553938D01*
X139299126Y-69696632D01*
X139369595Y-69737811D01*
X139372445Y-69739476D01*
X139421169Y-69791114D01*
X139434240Y-69860897D01*
X139407509Y-69926669D01*
X139367055Y-69960027D01*
X139354607Y-69966507D01*
X139350474Y-69969610D01*
X139350471Y-69969612D01*
X139236629Y-70055087D01*
X139175965Y-70100635D01*
X139172393Y-70104373D01*
X139050666Y-70231753D01*
X139021629Y-70262138D01*
X138895743Y-70446680D01*
X138862268Y-70518797D01*
X138810527Y-70630264D01*
X138801688Y-70649305D01*
X138741989Y-70864570D01*
X138718251Y-71086695D01*
X138718548Y-71091848D01*
X138718548Y-71091851D01*
X138724011Y-71186590D01*
X138731110Y-71309715D01*
X138732247Y-71314761D01*
X138732248Y-71314767D01*
X138738634Y-71343101D01*
X138780222Y-71527639D01*
X138864266Y-71734616D01*
X138885577Y-71769393D01*
X138939080Y-71856701D01*
X138980987Y-71925088D01*
X139127250Y-72093938D01*
X139131230Y-72097242D01*
X139135981Y-72101187D01*
X139175616Y-72160090D01*
X139177113Y-72231071D01*
X139139997Y-72291593D01*
X139099724Y-72316112D01*
X138984295Y-72359385D01*
X138867739Y-72446739D01*
X138780385Y-72563295D01*
X138729255Y-72699684D01*
X138722500Y-72761866D01*
X138722500Y-74558134D01*
X138729255Y-74620316D01*
X138780385Y-74756705D01*
X138867739Y-74873261D01*
X138984295Y-74960615D01*
X138992704Y-74963767D01*
X138992705Y-74963768D01*
X139101451Y-75004535D01*
X139158216Y-75047176D01*
X139182916Y-75113738D01*
X139167709Y-75183087D01*
X139148316Y-75209568D01*
X139021629Y-75342138D01*
X138895743Y-75526680D01*
X138801688Y-75729305D01*
X138741989Y-75944570D01*
X138718251Y-76166695D01*
X138718548Y-76171848D01*
X138718548Y-76171851D01*
X138724011Y-76266590D01*
X138731110Y-76389715D01*
X138732247Y-76394761D01*
X138732248Y-76394767D01*
X138752119Y-76482939D01*
X138780222Y-76607639D01*
X138864266Y-76814616D01*
X138980987Y-77005088D01*
X139127250Y-77173938D01*
X139299126Y-77316632D01*
X139369595Y-77357811D01*
X139372445Y-77359476D01*
X139421169Y-77411114D01*
X139434240Y-77480897D01*
X139407509Y-77546669D01*
X139367055Y-77580027D01*
X139354607Y-77586507D01*
X139350474Y-77589610D01*
X139350471Y-77589612D01*
X139187769Y-77711772D01*
X139175965Y-77720635D01*
X139168700Y-77728237D01*
X139070135Y-77831380D01*
X139021629Y-77882138D01*
X138895743Y-78066680D01*
X138880003Y-78100590D01*
X138820745Y-78228251D01*
X138801688Y-78269305D01*
X138741989Y-78484570D01*
X138718251Y-78706695D01*
X138718548Y-78711848D01*
X138718548Y-78711851D01*
X138724011Y-78806590D01*
X138731110Y-78929715D01*
X138732247Y-78934761D01*
X138732248Y-78934767D01*
X138743056Y-78982725D01*
X138780222Y-79147639D01*
X138864266Y-79354616D01*
X138980987Y-79545088D01*
X139127250Y-79713938D01*
X139299126Y-79856632D01*
X139369595Y-79897811D01*
X139372445Y-79899476D01*
X139421169Y-79951114D01*
X139434240Y-80020897D01*
X139407509Y-80086669D01*
X139367055Y-80120027D01*
X139354607Y-80126507D01*
X139350474Y-80129610D01*
X139350471Y-80129612D01*
X139188756Y-80251031D01*
X139175965Y-80260635D01*
X139172393Y-80264373D01*
X139025836Y-80417736D01*
X139021629Y-80422138D01*
X138895743Y-80606680D01*
X138880003Y-80640590D01*
X138819190Y-80771601D01*
X138801688Y-80809305D01*
X138741989Y-81024570D01*
X138718251Y-81246695D01*
X138718548Y-81251848D01*
X138718548Y-81251851D01*
X138724011Y-81346590D01*
X138731110Y-81469715D01*
X138732247Y-81474761D01*
X138732248Y-81474767D01*
X138747564Y-81542725D01*
X138780222Y-81687639D01*
X138864266Y-81894616D01*
X138980987Y-82085088D01*
X139127250Y-82253938D01*
X139299126Y-82396632D01*
X139369595Y-82437811D01*
X139372445Y-82439476D01*
X139421169Y-82491114D01*
X139434240Y-82560897D01*
X139407509Y-82626669D01*
X139367055Y-82660027D01*
X139354607Y-82666507D01*
X139350474Y-82669610D01*
X139350471Y-82669612D01*
X139180100Y-82797530D01*
X139175965Y-82800635D01*
X139021629Y-82962138D01*
X139018715Y-82966410D01*
X139018714Y-82966411D01*
X139006404Y-82984457D01*
X138895743Y-83146680D01*
X138801688Y-83349305D01*
X138741989Y-83564570D01*
X138718251Y-83786695D01*
X138718548Y-83791848D01*
X138718548Y-83791851D01*
X138724011Y-83886590D01*
X138731110Y-84009715D01*
X138732247Y-84014761D01*
X138732248Y-84014767D01*
X138752119Y-84102939D01*
X138780222Y-84227639D01*
X138841673Y-84378976D01*
X138846448Y-84390734D01*
X138864266Y-84434616D01*
X138866965Y-84439020D01*
X138967252Y-84602674D01*
X138980987Y-84625088D01*
X139127250Y-84793938D01*
X139131230Y-84797242D01*
X139135981Y-84801187D01*
X139175616Y-84860090D01*
X139177113Y-84931071D01*
X139139997Y-84991593D01*
X139099724Y-85016112D01*
X138984295Y-85059385D01*
X138867739Y-85146739D01*
X138780385Y-85263295D01*
X138729255Y-85399684D01*
X138722500Y-85461866D01*
X138722500Y-87258134D01*
X138729255Y-87320316D01*
X138780385Y-87456705D01*
X138867739Y-87573261D01*
X138984295Y-87660615D01*
X138992704Y-87663767D01*
X138992705Y-87663768D01*
X139101451Y-87704535D01*
X139158216Y-87747176D01*
X139182916Y-87813738D01*
X139167709Y-87883087D01*
X139148316Y-87909568D01*
X139021629Y-88042138D01*
X139018715Y-88046410D01*
X139018714Y-88046411D01*
X139006409Y-88064450D01*
X138895743Y-88226680D01*
X138801688Y-88429305D01*
X138741989Y-88644570D01*
X138718251Y-88866695D01*
X138718548Y-88871848D01*
X138718548Y-88871851D01*
X138724011Y-88966590D01*
X138731110Y-89089715D01*
X138732247Y-89094761D01*
X138732248Y-89094767D01*
X138751684Y-89181009D01*
X138780222Y-89307639D01*
X138864266Y-89514616D01*
X138866965Y-89519020D01*
X138946936Y-89649521D01*
X138980987Y-89705088D01*
X139127250Y-89873938D01*
X139299126Y-90016632D01*
X139369595Y-90057811D01*
X139372445Y-90059476D01*
X139421169Y-90111114D01*
X139434240Y-90180897D01*
X139407509Y-90246669D01*
X139367055Y-90280027D01*
X139354607Y-90286507D01*
X139350474Y-90289610D01*
X139350471Y-90289612D01*
X139326247Y-90307800D01*
X139175965Y-90420635D01*
X139021629Y-90582138D01*
X138895743Y-90766680D01*
X138801688Y-90969305D01*
X138741989Y-91184570D01*
X138718251Y-91406695D01*
X138718548Y-91411848D01*
X138718548Y-91411851D01*
X138725286Y-91528701D01*
X138731110Y-91629715D01*
X138732247Y-91634761D01*
X138732248Y-91634767D01*
X138748714Y-91707829D01*
X138780222Y-91847639D01*
X138864266Y-92054616D01*
X138980987Y-92245088D01*
X139127250Y-92413938D01*
X139299126Y-92556632D01*
X139369595Y-92597811D01*
X139372445Y-92599476D01*
X139421169Y-92651114D01*
X139434240Y-92720897D01*
X139407509Y-92786669D01*
X139367055Y-92820027D01*
X139354607Y-92826507D01*
X139350474Y-92829610D01*
X139350471Y-92829612D01*
X139255037Y-92901266D01*
X139175965Y-92960635D01*
X139021629Y-93122138D01*
X138895743Y-93306680D01*
X138801688Y-93509305D01*
X138741989Y-93724570D01*
X138718251Y-93946695D01*
X138718548Y-93951848D01*
X138718548Y-93951851D01*
X138724011Y-94046590D01*
X138731110Y-94169715D01*
X138732247Y-94174761D01*
X138732248Y-94174767D01*
X138752119Y-94262939D01*
X138780222Y-94387639D01*
X138864266Y-94594616D01*
X138980987Y-94785088D01*
X139127250Y-94953938D01*
X139299126Y-95096632D01*
X139369595Y-95137811D01*
X139372445Y-95139476D01*
X139421169Y-95191114D01*
X139434240Y-95260897D01*
X139407509Y-95326669D01*
X139367055Y-95360027D01*
X139354607Y-95366507D01*
X139350474Y-95369610D01*
X139350471Y-95369612D01*
X139181102Y-95496778D01*
X139175965Y-95500635D01*
X139021629Y-95662138D01*
X139018715Y-95666410D01*
X139018714Y-95666411D01*
X138978906Y-95724767D01*
X138895743Y-95846680D01*
X138801688Y-96049305D01*
X138741989Y-96264570D01*
X138718251Y-96486695D01*
X138718548Y-96491848D01*
X138718548Y-96491851D01*
X138724011Y-96586590D01*
X138731110Y-96709715D01*
X138732247Y-96714761D01*
X138732248Y-96714767D01*
X138752119Y-96802939D01*
X138780222Y-96927639D01*
X138864266Y-97134616D01*
X138980987Y-97325088D01*
X139127250Y-97493938D01*
X139131230Y-97497242D01*
X139135981Y-97501187D01*
X139175616Y-97560090D01*
X139177113Y-97631071D01*
X139139997Y-97691593D01*
X139099724Y-97716112D01*
X138984295Y-97759385D01*
X138867739Y-97846739D01*
X138780385Y-97963295D01*
X138729255Y-98099684D01*
X138722500Y-98161866D01*
X138722500Y-99958134D01*
X138729255Y-100020316D01*
X138780385Y-100156705D01*
X138867739Y-100273261D01*
X138984295Y-100360615D01*
X138992704Y-100363767D01*
X138992705Y-100363768D01*
X139101451Y-100404535D01*
X139158216Y-100447176D01*
X139182916Y-100513738D01*
X139167709Y-100583087D01*
X139148316Y-100609568D01*
X139021629Y-100742138D01*
X138895743Y-100926680D01*
X138801688Y-101129305D01*
X138741989Y-101344570D01*
X138718251Y-101566695D01*
X138718548Y-101571848D01*
X138718548Y-101571851D01*
X138724011Y-101666590D01*
X138731110Y-101789715D01*
X138732247Y-101794761D01*
X138732248Y-101794767D01*
X138752119Y-101882939D01*
X138780222Y-102007639D01*
X138864266Y-102214616D01*
X138980987Y-102405088D01*
X139127250Y-102573938D01*
X139299126Y-102716632D01*
X139369595Y-102757811D01*
X139372445Y-102759476D01*
X139421169Y-102811114D01*
X139434240Y-102880897D01*
X139407509Y-102946669D01*
X139367055Y-102980027D01*
X139354607Y-102986507D01*
X139350474Y-102989610D01*
X139350471Y-102989612D01*
X139326247Y-103007800D01*
X139175965Y-103120635D01*
X139021629Y-103282138D01*
X138895743Y-103466680D01*
X138801688Y-103669305D01*
X138741989Y-103884570D01*
X138718251Y-104106695D01*
X120396500Y-104106695D01*
X120396500Y-89581500D01*
X120416502Y-89513379D01*
X120470158Y-89466886D01*
X120522500Y-89455500D01*
X124531457Y-89455500D01*
X124599578Y-89475502D01*
X124638600Y-89515196D01*
X124718522Y-89644348D01*
X124843697Y-89769305D01*
X124849927Y-89773145D01*
X124849928Y-89773146D01*
X124987090Y-89857694D01*
X124994262Y-89862115D01*
X125039863Y-89877240D01*
X125155611Y-89915632D01*
X125155613Y-89915632D01*
X125162139Y-89917797D01*
X125168975Y-89918497D01*
X125168978Y-89918498D01*
X125212031Y-89922909D01*
X125266600Y-89928500D01*
X126617400Y-89928500D01*
X126620646Y-89928163D01*
X126620650Y-89928163D01*
X126716308Y-89918238D01*
X126716312Y-89918237D01*
X126723166Y-89917526D01*
X126729702Y-89915345D01*
X126729704Y-89915345D01*
X126865525Y-89870031D01*
X126890946Y-89861550D01*
X127041348Y-89768478D01*
X127166305Y-89643303D01*
X127240901Y-89522287D01*
X127255275Y-89498968D01*
X127255276Y-89498966D01*
X127259115Y-89492738D01*
X127308624Y-89343472D01*
X127349054Y-89285112D01*
X127414619Y-89257875D01*
X127484500Y-89270408D01*
X127517312Y-89294044D01*
X128827724Y-90604457D01*
X130137595Y-91914328D01*
X130171621Y-91976640D01*
X130174500Y-92003423D01*
X130174500Y-95170980D01*
X130173970Y-95182214D01*
X130172292Y-95189719D01*
X130173932Y-95241921D01*
X130174438Y-95258012D01*
X130174500Y-95261969D01*
X130174500Y-95289983D01*
X130174996Y-95293908D01*
X130174996Y-95293909D01*
X130175008Y-95294004D01*
X130175941Y-95305849D01*
X130177335Y-95350205D01*
X130179547Y-95357817D01*
X130183013Y-95369748D01*
X130187023Y-95389112D01*
X130189573Y-95409299D01*
X130192489Y-95416663D01*
X130192490Y-95416668D01*
X130205907Y-95450556D01*
X130209752Y-95461785D01*
X130213045Y-95473120D01*
X130222131Y-95504393D01*
X130226169Y-95511220D01*
X130226170Y-95511223D01*
X130232488Y-95521906D01*
X130241188Y-95539664D01*
X130245761Y-95551215D01*
X130245765Y-95551221D01*
X130248681Y-95558588D01*
X130253339Y-95564999D01*
X130253340Y-95565001D01*
X130274764Y-95594488D01*
X130281281Y-95604410D01*
X130299826Y-95635768D01*
X130299829Y-95635772D01*
X130303866Y-95642598D01*
X130318250Y-95656982D01*
X130331091Y-95672016D01*
X130343058Y-95688487D01*
X130349166Y-95693540D01*
X130377255Y-95716777D01*
X130386035Y-95724767D01*
X131380018Y-96718750D01*
X131414044Y-96781062D01*
X131416233Y-96794673D01*
X131434163Y-96965266D01*
X131436203Y-96971544D01*
X131436203Y-96971545D01*
X131454044Y-97026453D01*
X131493593Y-97148173D01*
X131589753Y-97314727D01*
X131718440Y-97457649D01*
X131723782Y-97461530D01*
X131723784Y-97461532D01*
X131868688Y-97566810D01*
X131874030Y-97570691D01*
X131880058Y-97573375D01*
X131880060Y-97573376D01*
X132022135Y-97636632D01*
X132049723Y-97648915D01*
X132143782Y-97668908D01*
X132231383Y-97687528D01*
X132231387Y-97687528D01*
X132237840Y-97688900D01*
X132430160Y-97688900D01*
X132436613Y-97687528D01*
X132436617Y-97687528D01*
X132524219Y-97668907D01*
X132618277Y-97648915D01*
X132645865Y-97636632D01*
X132787940Y-97573376D01*
X132787942Y-97573375D01*
X132793970Y-97570691D01*
X132799312Y-97566810D01*
X132944216Y-97461532D01*
X132944218Y-97461530D01*
X132949560Y-97457649D01*
X133078247Y-97314727D01*
X133174407Y-97148173D01*
X133213956Y-97026453D01*
X133231797Y-96971545D01*
X133231797Y-96971544D01*
X133233837Y-96965266D01*
X133249839Y-96813023D01*
X133253250Y-96780565D01*
X133253940Y-96774000D01*
X133233837Y-96582734D01*
X133174407Y-96399827D01*
X133078247Y-96233273D01*
X133047923Y-96199594D01*
X132953982Y-96095262D01*
X132953981Y-96095261D01*
X132949560Y-96090351D01*
X132944218Y-96086470D01*
X132944216Y-96086468D01*
X132799312Y-95981190D01*
X132799311Y-95981189D01*
X132793970Y-95977309D01*
X132787942Y-95974625D01*
X132787940Y-95974624D01*
X132624308Y-95901770D01*
X132624306Y-95901769D01*
X132618277Y-95899085D01*
X132524218Y-95879092D01*
X132436617Y-95860472D01*
X132436613Y-95860472D01*
X132430160Y-95859100D01*
X132370023Y-95859100D01*
X132301902Y-95839098D01*
X132280928Y-95822195D01*
X131482405Y-95023672D01*
X131448379Y-94961360D01*
X131445500Y-94934577D01*
X131445500Y-93418759D01*
X131465502Y-93350638D01*
X131519158Y-93304145D01*
X131589432Y-93294041D01*
X131654012Y-93323535D01*
X131665131Y-93334443D01*
X131718440Y-93393649D01*
X131723782Y-93397530D01*
X131723784Y-93397532D01*
X131753001Y-93418759D01*
X131874030Y-93506691D01*
X131880058Y-93509375D01*
X131880060Y-93509376D01*
X131961690Y-93545720D01*
X132049723Y-93584915D01*
X132143781Y-93604907D01*
X132231383Y-93623528D01*
X132231387Y-93623528D01*
X132237840Y-93624900D01*
X132430160Y-93624900D01*
X132436613Y-93623528D01*
X132436617Y-93623528D01*
X132524219Y-93604907D01*
X132618277Y-93584915D01*
X132706310Y-93545720D01*
X132787940Y-93509376D01*
X132787942Y-93509375D01*
X132793970Y-93506691D01*
X132914999Y-93418759D01*
X132944216Y-93397532D01*
X132944218Y-93397530D01*
X132949560Y-93393649D01*
X133027867Y-93306680D01*
X133073828Y-93255635D01*
X133073829Y-93255634D01*
X133078247Y-93250727D01*
X133152488Y-93122138D01*
X133171103Y-93089896D01*
X133171104Y-93089895D01*
X133174407Y-93084173D01*
X133206023Y-92986870D01*
X133231797Y-92907545D01*
X133231797Y-92907544D01*
X133233837Y-92901266D01*
X133253940Y-92710000D01*
X133233837Y-92518734D01*
X133174407Y-92335827D01*
X133078247Y-92169273D01*
X133001864Y-92084441D01*
X132971146Y-92020434D01*
X132969500Y-92000131D01*
X132969500Y-91291020D01*
X132970030Y-91279786D01*
X132971708Y-91272281D01*
X132969562Y-91203988D01*
X132969500Y-91200031D01*
X132969500Y-91172017D01*
X132968992Y-91167996D01*
X132968058Y-91156144D01*
X132966914Y-91119718D01*
X132966914Y-91119717D01*
X132966665Y-91111795D01*
X132960987Y-91092251D01*
X132956977Y-91072888D01*
X132955420Y-91060560D01*
X132955420Y-91060558D01*
X132954427Y-91052701D01*
X132951511Y-91045337D01*
X132951510Y-91045332D01*
X132938093Y-91011444D01*
X132934248Y-91000215D01*
X132926718Y-90974297D01*
X132921869Y-90957607D01*
X132917830Y-90950777D01*
X132911512Y-90940094D01*
X132902812Y-90922336D01*
X132898239Y-90910785D01*
X132898235Y-90910779D01*
X132895319Y-90903412D01*
X132869234Y-90867509D01*
X132862719Y-90857590D01*
X132844174Y-90826232D01*
X132844171Y-90826228D01*
X132840134Y-90819402D01*
X132825750Y-90805018D01*
X132812909Y-90789984D01*
X132805602Y-90779927D01*
X132800942Y-90773513D01*
X132766744Y-90745222D01*
X132757965Y-90737233D01*
X127304589Y-85283856D01*
X127270563Y-85221544D01*
X127274657Y-85153429D01*
X127298861Y-85083729D01*
X127320189Y-84936632D01*
X127328352Y-84880336D01*
X127328352Y-84880333D01*
X127329213Y-84874396D01*
X127328936Y-84868404D01*
X127328936Y-84868397D01*
X127328021Y-84848632D01*
X127344853Y-84779659D01*
X127396302Y-84730736D01*
X127466034Y-84717395D01*
X127531909Y-84743872D01*
X127542981Y-84753713D01*
X131380018Y-88590750D01*
X131414044Y-88653062D01*
X131416233Y-88666673D01*
X131434163Y-88837266D01*
X131493593Y-89020173D01*
X131589753Y-89186727D01*
X131594171Y-89191634D01*
X131594172Y-89191635D01*
X131714018Y-89324738D01*
X131718440Y-89329649D01*
X131723782Y-89333530D01*
X131723784Y-89333532D01*
X131752595Y-89354464D01*
X131874030Y-89442691D01*
X131880058Y-89445375D01*
X131880060Y-89445376D01*
X132032797Y-89513379D01*
X132049723Y-89520915D01*
X132143782Y-89540908D01*
X132231383Y-89559528D01*
X132231387Y-89559528D01*
X132237840Y-89560900D01*
X132430160Y-89560900D01*
X132436613Y-89559528D01*
X132436617Y-89559528D01*
X132524219Y-89540907D01*
X132618277Y-89520915D01*
X132635203Y-89513379D01*
X132787940Y-89445376D01*
X132787942Y-89445375D01*
X132793970Y-89442691D01*
X132915405Y-89354464D01*
X132944216Y-89333532D01*
X132944218Y-89333530D01*
X132949560Y-89329649D01*
X132953982Y-89324738D01*
X133073828Y-89191635D01*
X133073829Y-89191634D01*
X133078247Y-89186727D01*
X133174407Y-89020173D01*
X133233837Y-88837266D01*
X133253940Y-88646000D01*
X133233837Y-88454734D01*
X133174407Y-88271827D01*
X133078247Y-88105273D01*
X133018036Y-88038401D01*
X132953982Y-87967262D01*
X132953981Y-87967261D01*
X132949560Y-87962351D01*
X132944218Y-87958470D01*
X132944216Y-87958468D01*
X132799312Y-87853190D01*
X132799311Y-87853189D01*
X132793970Y-87849309D01*
X132787942Y-87846625D01*
X132787940Y-87846624D01*
X132624308Y-87773770D01*
X132624306Y-87773769D01*
X132618277Y-87771085D01*
X132505793Y-87747176D01*
X132436617Y-87732472D01*
X132436613Y-87732472D01*
X132430160Y-87731100D01*
X132370023Y-87731100D01*
X132301902Y-87711098D01*
X132280928Y-87694195D01*
X127357324Y-82770591D01*
X127323298Y-82708279D01*
X127320554Y-82687321D01*
X127320428Y-82684598D01*
X127319433Y-82663101D01*
X127269875Y-82457466D01*
X127265985Y-82448909D01*
X127184806Y-82270368D01*
X127182326Y-82264913D01*
X127059946Y-82092389D01*
X126907150Y-81946119D01*
X126901255Y-81942312D01*
X126874837Y-81925254D01*
X126828460Y-81871499D01*
X126818507Y-81801203D01*
X126848139Y-81736686D01*
X126865353Y-81720317D01*
X126872446Y-81714746D01*
X126984920Y-81626396D01*
X127095540Y-81498918D01*
X127155291Y-81460579D01*
X127190703Y-81455500D01*
X128256578Y-81455500D01*
X128324699Y-81475502D01*
X128345673Y-81492405D01*
X131380018Y-84526750D01*
X131414044Y-84589062D01*
X131416233Y-84602674D01*
X131431074Y-84743872D01*
X131434163Y-84773266D01*
X131493593Y-84956173D01*
X131496896Y-84961895D01*
X131496897Y-84961896D01*
X131523663Y-85008255D01*
X131589753Y-85122727D01*
X131718440Y-85265649D01*
X131723782Y-85269530D01*
X131723784Y-85269532D01*
X131861561Y-85369632D01*
X131874030Y-85378691D01*
X131880058Y-85381375D01*
X131880060Y-85381376D01*
X132043692Y-85454230D01*
X132049723Y-85456915D01*
X132143782Y-85476908D01*
X132231383Y-85495528D01*
X132231387Y-85495528D01*
X132237840Y-85496900D01*
X132430160Y-85496900D01*
X132436613Y-85495528D01*
X132436617Y-85495528D01*
X132524218Y-85476908D01*
X132618277Y-85456915D01*
X132624308Y-85454230D01*
X132787940Y-85381376D01*
X132787942Y-85381375D01*
X132793970Y-85378691D01*
X132806439Y-85369632D01*
X132944216Y-85269532D01*
X132944218Y-85269530D01*
X132949560Y-85265649D01*
X133078247Y-85122727D01*
X133144337Y-85008255D01*
X133171103Y-84961896D01*
X133171104Y-84961895D01*
X133174407Y-84956173D01*
X133233837Y-84773266D01*
X133236927Y-84743872D01*
X133253250Y-84588565D01*
X133253940Y-84582000D01*
X133233837Y-84390734D01*
X133224541Y-84362122D01*
X133176449Y-84214112D01*
X133174407Y-84207827D01*
X133078247Y-84041273D01*
X132949560Y-83898351D01*
X132944218Y-83894470D01*
X132944216Y-83894468D01*
X132799312Y-83789190D01*
X132799311Y-83789189D01*
X132793970Y-83785309D01*
X132787942Y-83782625D01*
X132787940Y-83782624D01*
X132624308Y-83709770D01*
X132624306Y-83709769D01*
X132618277Y-83707085D01*
X132524218Y-83687092D01*
X132436617Y-83668472D01*
X132436613Y-83668472D01*
X132430160Y-83667100D01*
X132370023Y-83667100D01*
X132301902Y-83647098D01*
X132280928Y-83630195D01*
X129077250Y-80426517D01*
X129069674Y-80418191D01*
X129065553Y-80411697D01*
X129015734Y-80364914D01*
X129012893Y-80362160D01*
X128993094Y-80342361D01*
X128989969Y-80339937D01*
X128989960Y-80339929D01*
X128989874Y-80339863D01*
X128980849Y-80332155D01*
X128954285Y-80307210D01*
X128948506Y-80301783D01*
X128930669Y-80291977D01*
X128914153Y-80281127D01*
X128898067Y-80268650D01*
X128857334Y-80251024D01*
X128846686Y-80245807D01*
X128835058Y-80239415D01*
X128807803Y-80224431D01*
X128800128Y-80222460D01*
X128800122Y-80222458D01*
X128788089Y-80219369D01*
X128769387Y-80212966D01*
X128750708Y-80204883D01*
X128716872Y-80199524D01*
X128706873Y-80197940D01*
X128695260Y-80195535D01*
X128652282Y-80184500D01*
X128631935Y-80184500D01*
X128612224Y-80182949D01*
X128599950Y-80181005D01*
X128592121Y-80179765D01*
X128584229Y-80180511D01*
X128547944Y-80183941D01*
X128536086Y-80184500D01*
X127190388Y-80184500D01*
X127122267Y-80164498D01*
X127087618Y-80131399D01*
X127063416Y-80097279D01*
X127063409Y-80097271D01*
X127059946Y-80092389D01*
X126907150Y-79946119D01*
X126890729Y-79935516D01*
X126874837Y-79925254D01*
X126828460Y-79871499D01*
X126818507Y-79801203D01*
X126848139Y-79736686D01*
X126865353Y-79720317D01*
X126867509Y-79718624D01*
X126984920Y-79626396D01*
X127095540Y-79498918D01*
X127155291Y-79460579D01*
X127190703Y-79455500D01*
X130320578Y-79455500D01*
X130388699Y-79475502D01*
X130409669Y-79492401D01*
X131380020Y-80462753D01*
X131414044Y-80525063D01*
X131416233Y-80538675D01*
X131426446Y-80635840D01*
X131434163Y-80709266D01*
X131493593Y-80892173D01*
X131589753Y-81058727D01*
X131718440Y-81201649D01*
X131723782Y-81205530D01*
X131723784Y-81205532D01*
X131830913Y-81283365D01*
X131874030Y-81314691D01*
X131880058Y-81317375D01*
X131880060Y-81317376D01*
X132020657Y-81379974D01*
X132049723Y-81392915D01*
X132143782Y-81412908D01*
X132231383Y-81431528D01*
X132231387Y-81431528D01*
X132237840Y-81432900D01*
X132430160Y-81432900D01*
X132436613Y-81431528D01*
X132436617Y-81431528D01*
X132524218Y-81412908D01*
X132618277Y-81392915D01*
X132647343Y-81379974D01*
X132787940Y-81317376D01*
X132787942Y-81317375D01*
X132793970Y-81314691D01*
X132837087Y-81283365D01*
X132944216Y-81205532D01*
X132944218Y-81205530D01*
X132949560Y-81201649D01*
X133078247Y-81058727D01*
X133174407Y-80892173D01*
X133233837Y-80709266D01*
X133253940Y-80518000D01*
X133237709Y-80363574D01*
X133234527Y-80333298D01*
X133234527Y-80333297D01*
X133233837Y-80326734D01*
X133220885Y-80286870D01*
X133176449Y-80150112D01*
X133174407Y-80143827D01*
X133147533Y-80097279D01*
X133112521Y-80036638D01*
X133078247Y-79977273D01*
X133054694Y-79951114D01*
X132953982Y-79839262D01*
X132953981Y-79839261D01*
X132949560Y-79834351D01*
X132944218Y-79830470D01*
X132944216Y-79830468D01*
X132799312Y-79725190D01*
X132799311Y-79725189D01*
X132793970Y-79721309D01*
X132787942Y-79718625D01*
X132787940Y-79718624D01*
X132624308Y-79645770D01*
X132624306Y-79645769D01*
X132618277Y-79643085D01*
X132518453Y-79621867D01*
X132436617Y-79604472D01*
X132436613Y-79604472D01*
X132430160Y-79603100D01*
X132370023Y-79603100D01*
X132301902Y-79583098D01*
X132280928Y-79566195D01*
X131141250Y-78426517D01*
X131133674Y-78418191D01*
X131129553Y-78411697D01*
X131079734Y-78364914D01*
X131076893Y-78362160D01*
X131057094Y-78342361D01*
X131053969Y-78339937D01*
X131053960Y-78339929D01*
X131053874Y-78339863D01*
X131044849Y-78332155D01*
X131018285Y-78307210D01*
X131012506Y-78301783D01*
X131001904Y-78295954D01*
X130994671Y-78291978D01*
X130978153Y-78281127D01*
X130962067Y-78268650D01*
X130921334Y-78251024D01*
X130910686Y-78245807D01*
X130899058Y-78239415D01*
X130871803Y-78224431D01*
X130864128Y-78222460D01*
X130864122Y-78222458D01*
X130852089Y-78219369D01*
X130833387Y-78212966D01*
X130814708Y-78204883D01*
X130780872Y-78199524D01*
X130770873Y-78197940D01*
X130759260Y-78195535D01*
X130716282Y-78184500D01*
X130695935Y-78184500D01*
X130676224Y-78182949D01*
X130663950Y-78181005D01*
X130656121Y-78179765D01*
X130648229Y-78180511D01*
X130611944Y-78183941D01*
X130600086Y-78184500D01*
X127190388Y-78184500D01*
X127122267Y-78164498D01*
X127087618Y-78131399D01*
X127063416Y-78097279D01*
X127063409Y-78097271D01*
X127059946Y-78092389D01*
X126907150Y-77946119D01*
X126729452Y-77831380D01*
X126669354Y-77807160D01*
X126538832Y-77754558D01*
X126538829Y-77754557D01*
X126533263Y-77752314D01*
X126325663Y-77711772D01*
X126320101Y-77711500D01*
X125614154Y-77711500D01*
X125456434Y-77726548D01*
X125253466Y-77786092D01*
X125248139Y-77788836D01*
X125248138Y-77788836D01*
X125070751Y-77880196D01*
X125070748Y-77880198D01*
X125065420Y-77882942D01*
X124899080Y-78013604D01*
X124895148Y-78018135D01*
X124895145Y-78018138D01*
X124776554Y-78154802D01*
X124760448Y-78173363D01*
X124757448Y-78178549D01*
X124757445Y-78178553D01*
X124730904Y-78224431D01*
X124654527Y-78356454D01*
X124585139Y-78556271D01*
X124584278Y-78562206D01*
X124584278Y-78562208D01*
X124558012Y-78743365D01*
X124554787Y-78765604D01*
X124564567Y-78976899D01*
X124614125Y-79182534D01*
X124701674Y-79375087D01*
X124824054Y-79547611D01*
X124976850Y-79693881D01*
X124981888Y-79697134D01*
X125009163Y-79714746D01*
X125055540Y-79768501D01*
X125065493Y-79838797D01*
X125035861Y-79903314D01*
X125018649Y-79919681D01*
X124899080Y-80013604D01*
X124895148Y-80018135D01*
X124895145Y-80018138D01*
X124791044Y-80138104D01*
X124760448Y-80173363D01*
X124757448Y-80178549D01*
X124757445Y-80178553D01*
X124730904Y-80224431D01*
X124654527Y-80356454D01*
X124585139Y-80556271D01*
X124584278Y-80562206D01*
X124584278Y-80562208D01*
X124562956Y-80709266D01*
X124554787Y-80765604D01*
X124564567Y-80976899D01*
X124565971Y-80982724D01*
X124565971Y-80982725D01*
X124584288Y-81058727D01*
X124614125Y-81182534D01*
X124616607Y-81187992D01*
X124616608Y-81187996D01*
X124643297Y-81246695D01*
X124701674Y-81375087D01*
X124824054Y-81547611D01*
X124828381Y-81551753D01*
X124970330Y-81687639D01*
X124976850Y-81693881D01*
X124981888Y-81697134D01*
X125009163Y-81714746D01*
X125055540Y-81768501D01*
X125065493Y-81838797D01*
X125035861Y-81903314D01*
X125018649Y-81919681D01*
X124899080Y-82013604D01*
X124895148Y-82018135D01*
X124895145Y-82018138D01*
X124826474Y-82097275D01*
X124760448Y-82173363D01*
X124757448Y-82178549D01*
X124757445Y-82178553D01*
X124716094Y-82250031D01*
X124654527Y-82356454D01*
X124585139Y-82556271D01*
X124584278Y-82562206D01*
X124584278Y-82562208D01*
X124566138Y-82687321D01*
X124554787Y-82765604D01*
X124564567Y-82976899D01*
X124565971Y-82982724D01*
X124565971Y-82982725D01*
X124612512Y-83175840D01*
X124614125Y-83182534D01*
X124701674Y-83375087D01*
X124824054Y-83547611D01*
X124976850Y-83693881D01*
X124981888Y-83697134D01*
X125009163Y-83714746D01*
X125055540Y-83768501D01*
X125065493Y-83838797D01*
X125035861Y-83903314D01*
X125018649Y-83919681D01*
X124899080Y-84013604D01*
X124895148Y-84018135D01*
X124895145Y-84018138D01*
X124875070Y-84041273D01*
X124760448Y-84173363D01*
X124757448Y-84178549D01*
X124757445Y-84178553D01*
X124671883Y-84326453D01*
X124654527Y-84356454D01*
X124585139Y-84556271D01*
X124584278Y-84562206D01*
X124584278Y-84562208D01*
X124559843Y-84730736D01*
X124554787Y-84765604D01*
X124564567Y-84976899D01*
X124565971Y-84982724D01*
X124565971Y-84982725D01*
X124604202Y-85141358D01*
X124614125Y-85182534D01*
X124616607Y-85187992D01*
X124616608Y-85187996D01*
X124668916Y-85303041D01*
X124701674Y-85375087D01*
X124824054Y-85547611D01*
X124976850Y-85693881D01*
X124981888Y-85697134D01*
X125009163Y-85714746D01*
X125055540Y-85768501D01*
X125065493Y-85838797D01*
X125035861Y-85903314D01*
X125018649Y-85919681D01*
X124899080Y-86013604D01*
X124895148Y-86018135D01*
X124895145Y-86018138D01*
X124776554Y-86154802D01*
X124760448Y-86173363D01*
X124757448Y-86178549D01*
X124757445Y-86178553D01*
X124663661Y-86340665D01*
X124654527Y-86356454D01*
X124585139Y-86556271D01*
X124554787Y-86765604D01*
X124564567Y-86976899D01*
X124614125Y-87182534D01*
X124701674Y-87375087D01*
X124824054Y-87547611D01*
X124828381Y-87551753D01*
X124828386Y-87551759D01*
X124919317Y-87638806D01*
X124954694Y-87700361D01*
X124951175Y-87771270D01*
X124909879Y-87829021D01*
X124898496Y-87836965D01*
X124842652Y-87871522D01*
X124717695Y-87996697D01*
X124713855Y-88002927D01*
X124713854Y-88002928D01*
X124638844Y-88124616D01*
X124586071Y-88172110D01*
X124531584Y-88184500D01*
X120522500Y-88184500D01*
X120454379Y-88164498D01*
X120407886Y-88110842D01*
X120396500Y-88058500D01*
X120396500Y-71445604D01*
X124596787Y-71445604D01*
X124606567Y-71656899D01*
X124656125Y-71862534D01*
X124658607Y-71867992D01*
X124658608Y-71867996D01*
X124702053Y-71963546D01*
X124743674Y-72055087D01*
X124866054Y-72227611D01*
X124870381Y-72231753D01*
X124870386Y-72231759D01*
X124961317Y-72318806D01*
X124996694Y-72380361D01*
X124993175Y-72451270D01*
X124951879Y-72509021D01*
X124940496Y-72516965D01*
X124884652Y-72551522D01*
X124879479Y-72556704D01*
X124864506Y-72571703D01*
X124759695Y-72676697D01*
X124755855Y-72682927D01*
X124755854Y-72682928D01*
X124705090Y-72765283D01*
X124666885Y-72827262D01*
X124611203Y-72995139D01*
X124600500Y-73099600D01*
X124600500Y-73900400D01*
X124611474Y-74006166D01*
X124667450Y-74173946D01*
X124760522Y-74324348D01*
X124885697Y-74449305D01*
X124891927Y-74453145D01*
X124891928Y-74453146D01*
X125029090Y-74537694D01*
X125036262Y-74542115D01*
X125074256Y-74554717D01*
X125197611Y-74595632D01*
X125197613Y-74595632D01*
X125204139Y-74597797D01*
X125210975Y-74598497D01*
X125210978Y-74598498D01*
X125254031Y-74602909D01*
X125308600Y-74608500D01*
X126659400Y-74608500D01*
X126662646Y-74608163D01*
X126662650Y-74608163D01*
X126758308Y-74598238D01*
X126758312Y-74598237D01*
X126765166Y-74597526D01*
X126771702Y-74595345D01*
X126771704Y-74595345D01*
X126903806Y-74551272D01*
X126932946Y-74541550D01*
X127083348Y-74448478D01*
X127208305Y-74323303D01*
X127301115Y-74172738D01*
X127356797Y-74004861D01*
X127367500Y-73900400D01*
X127367500Y-73099600D01*
X127356526Y-72993834D01*
X127300550Y-72826054D01*
X127207478Y-72675652D01*
X127082303Y-72550695D01*
X127030764Y-72518925D01*
X126983271Y-72466154D01*
X126971847Y-72396082D01*
X127000121Y-72330958D01*
X127019045Y-72312582D01*
X127026920Y-72306396D01*
X127030852Y-72301865D01*
X127030855Y-72301862D01*
X127161621Y-72151167D01*
X127165552Y-72146637D01*
X127168552Y-72141451D01*
X127168555Y-72141447D01*
X127268467Y-71968742D01*
X127271473Y-71963546D01*
X127340861Y-71763729D01*
X127371213Y-71554396D01*
X127361433Y-71343101D01*
X127311875Y-71137466D01*
X127268525Y-71042122D01*
X127226806Y-70950368D01*
X127224326Y-70944913D01*
X127101946Y-70772389D01*
X126949150Y-70626119D01*
X126943255Y-70622312D01*
X126916837Y-70605254D01*
X126870460Y-70551499D01*
X126860507Y-70481203D01*
X126890139Y-70416686D01*
X126907353Y-70400317D01*
X126914446Y-70394746D01*
X127026920Y-70306396D01*
X127030852Y-70301865D01*
X127030855Y-70301862D01*
X127161621Y-70151167D01*
X127165552Y-70146637D01*
X127168552Y-70141451D01*
X127168555Y-70141447D01*
X127268467Y-69968742D01*
X127271473Y-69963546D01*
X127340861Y-69763729D01*
X127371213Y-69554396D01*
X127361433Y-69343101D01*
X127325648Y-69194616D01*
X127313281Y-69143299D01*
X127313280Y-69143297D01*
X127311875Y-69137466D01*
X127268525Y-69042122D01*
X127257084Y-69016959D01*
X127224326Y-68944913D01*
X127101946Y-68772389D01*
X126949150Y-68626119D01*
X126943255Y-68622312D01*
X126916837Y-68605254D01*
X126870460Y-68551499D01*
X126860507Y-68481203D01*
X126890139Y-68416686D01*
X126907353Y-68400317D01*
X126914446Y-68394746D01*
X127026920Y-68306396D01*
X127030852Y-68301865D01*
X127030855Y-68301862D01*
X127161621Y-68151167D01*
X127165552Y-68146637D01*
X127168552Y-68141451D01*
X127168555Y-68141447D01*
X127268467Y-67968742D01*
X127271473Y-67963546D01*
X127340861Y-67763729D01*
X127342472Y-67752617D01*
X127370352Y-67560336D01*
X127370352Y-67560333D01*
X127371213Y-67554396D01*
X127361433Y-67343101D01*
X127316494Y-67156632D01*
X127313281Y-67143299D01*
X127313280Y-67143297D01*
X127311875Y-67137466D01*
X127268525Y-67042122D01*
X127255710Y-67013938D01*
X127224326Y-66944913D01*
X127101946Y-66772389D01*
X126949150Y-66626119D01*
X126943255Y-66622312D01*
X126916837Y-66605254D01*
X126870460Y-66551499D01*
X126860507Y-66481203D01*
X126890139Y-66416686D01*
X126907353Y-66400317D01*
X126914446Y-66394746D01*
X127026920Y-66306396D01*
X127030852Y-66301865D01*
X127030855Y-66301862D01*
X127161621Y-66151167D01*
X127165552Y-66146637D01*
X127168552Y-66141451D01*
X127168555Y-66141447D01*
X127268467Y-65968742D01*
X127271473Y-65963546D01*
X127340861Y-65763729D01*
X127357219Y-65650909D01*
X127370352Y-65560336D01*
X127370352Y-65560333D01*
X127371213Y-65554396D01*
X127361433Y-65343101D01*
X127311875Y-65137466D01*
X127268525Y-65042122D01*
X127226806Y-64950368D01*
X127224326Y-64944913D01*
X127101946Y-64772389D01*
X126949150Y-64626119D01*
X126943255Y-64622312D01*
X126916837Y-64605254D01*
X126870460Y-64551499D01*
X126860507Y-64481203D01*
X126890139Y-64416686D01*
X126907353Y-64400317D01*
X126914446Y-64394746D01*
X127026920Y-64306396D01*
X127030852Y-64301865D01*
X127030855Y-64301862D01*
X127161621Y-64151167D01*
X127165552Y-64146637D01*
X127168552Y-64141451D01*
X127168555Y-64141447D01*
X127268467Y-63968742D01*
X127271473Y-63963546D01*
X127340861Y-63763729D01*
X127371213Y-63554396D01*
X127361433Y-63343101D01*
X127311875Y-63137466D01*
X127276973Y-63060702D01*
X127226806Y-62950368D01*
X127224326Y-62944913D01*
X127101946Y-62772389D01*
X126949150Y-62626119D01*
X126771452Y-62511380D01*
X126701248Y-62483087D01*
X126580832Y-62434558D01*
X126580829Y-62434557D01*
X126575263Y-62432314D01*
X126367663Y-62391772D01*
X126362101Y-62391500D01*
X125656154Y-62391500D01*
X125498434Y-62406548D01*
X125295466Y-62466092D01*
X125290139Y-62468836D01*
X125290138Y-62468836D01*
X125112751Y-62560196D01*
X125112748Y-62560198D01*
X125107420Y-62562942D01*
X124941080Y-62693604D01*
X124937148Y-62698135D01*
X124937145Y-62698138D01*
X124868474Y-62777275D01*
X124802448Y-62853363D01*
X124799448Y-62858549D01*
X124799445Y-62858553D01*
X124798267Y-62860590D01*
X124696527Y-63036454D01*
X124627139Y-63236271D01*
X124596787Y-63445604D01*
X124606567Y-63656899D01*
X124607971Y-63662724D01*
X124607971Y-63662725D01*
X124636943Y-63782939D01*
X124656125Y-63862534D01*
X124658607Y-63867992D01*
X124658608Y-63867996D01*
X124702053Y-63963546D01*
X124743674Y-64055087D01*
X124866054Y-64227611D01*
X125018850Y-64373881D01*
X125023888Y-64377134D01*
X125051163Y-64394746D01*
X125097540Y-64448501D01*
X125107493Y-64518797D01*
X125077861Y-64583314D01*
X125060649Y-64599681D01*
X124941080Y-64693604D01*
X124937148Y-64698135D01*
X124937145Y-64698138D01*
X124821538Y-64831364D01*
X124802448Y-64853363D01*
X124799448Y-64858549D01*
X124799445Y-64858553D01*
X124770955Y-64907800D01*
X124696527Y-65036454D01*
X124627139Y-65236271D01*
X124596787Y-65445604D01*
X124606567Y-65656899D01*
X124656125Y-65862534D01*
X124658607Y-65867992D01*
X124658608Y-65867996D01*
X124702053Y-65963546D01*
X124743674Y-66055087D01*
X124866054Y-66227611D01*
X125018850Y-66373881D01*
X125023888Y-66377134D01*
X125051163Y-66394746D01*
X125097540Y-66448501D01*
X125107493Y-66518797D01*
X125077861Y-66583314D01*
X125060649Y-66599681D01*
X124941080Y-66693604D01*
X124937148Y-66698135D01*
X124937145Y-66698138D01*
X124868474Y-66777275D01*
X124802448Y-66853363D01*
X124799448Y-66858549D01*
X124799445Y-66858553D01*
X124752312Y-66940026D01*
X124696527Y-67036454D01*
X124627139Y-67236271D01*
X124626278Y-67242206D01*
X124626278Y-67242208D01*
X124599106Y-67429612D01*
X124596787Y-67445604D01*
X124606567Y-67656899D01*
X124607971Y-67662724D01*
X124607971Y-67662725D01*
X124622290Y-67722138D01*
X124656125Y-67862534D01*
X124658607Y-67867992D01*
X124658608Y-67867996D01*
X124702053Y-67963546D01*
X124743674Y-68055087D01*
X124866054Y-68227611D01*
X125018850Y-68373881D01*
X125023888Y-68377134D01*
X125051163Y-68394746D01*
X125097540Y-68448501D01*
X125107493Y-68518797D01*
X125077861Y-68583314D01*
X125060649Y-68599681D01*
X124941080Y-68693604D01*
X124937148Y-68698135D01*
X124937145Y-68698138D01*
X124870650Y-68774767D01*
X124802448Y-68853363D01*
X124799448Y-68858549D01*
X124799445Y-68858553D01*
X124796908Y-68862939D01*
X124696527Y-69036454D01*
X124627139Y-69236271D01*
X124626278Y-69242206D01*
X124626278Y-69242208D01*
X124604996Y-69388990D01*
X124596787Y-69445604D01*
X124606567Y-69656899D01*
X124656125Y-69862534D01*
X124658607Y-69867992D01*
X124658608Y-69867996D01*
X124700453Y-69960027D01*
X124743674Y-70055087D01*
X124866054Y-70227611D01*
X125018850Y-70373881D01*
X125023888Y-70377134D01*
X125051163Y-70394746D01*
X125097540Y-70448501D01*
X125107493Y-70518797D01*
X125077861Y-70583314D01*
X125060649Y-70599681D01*
X124941080Y-70693604D01*
X124937148Y-70698135D01*
X124937145Y-70698138D01*
X124868474Y-70777275D01*
X124802448Y-70853363D01*
X124799448Y-70858549D01*
X124799445Y-70858553D01*
X124752312Y-70940026D01*
X124696527Y-71036454D01*
X124627139Y-71236271D01*
X124626278Y-71242206D01*
X124626278Y-71242208D01*
X124615758Y-71314767D01*
X124596787Y-71445604D01*
X120396500Y-71445604D01*
X120396500Y-48211695D01*
X150250251Y-48211695D01*
X150250548Y-48216848D01*
X150250548Y-48216851D01*
X150256011Y-48311590D01*
X150263110Y-48434715D01*
X150264247Y-48439761D01*
X150264248Y-48439767D01*
X150284119Y-48527939D01*
X150312222Y-48652639D01*
X150396266Y-48859616D01*
X150512987Y-49050088D01*
X150659250Y-49218938D01*
X150663230Y-49222242D01*
X150667981Y-49226187D01*
X150707616Y-49285090D01*
X150709113Y-49356071D01*
X150671997Y-49416593D01*
X150631724Y-49441112D01*
X150516295Y-49484385D01*
X150399739Y-49571739D01*
X150312385Y-49688295D01*
X150261255Y-49824684D01*
X150254500Y-49886866D01*
X150254500Y-51683134D01*
X150261255Y-51745316D01*
X150312385Y-51881705D01*
X150399739Y-51998261D01*
X150516295Y-52085615D01*
X150652684Y-52136745D01*
X150714866Y-52143500D01*
X152511134Y-52143500D01*
X152573316Y-52136745D01*
X152709705Y-52085615D01*
X152826261Y-51998261D01*
X152913615Y-51881705D01*
X152964745Y-51745316D01*
X152971500Y-51683134D01*
X152971500Y-49886866D01*
X152964745Y-49824684D01*
X152913615Y-49688295D01*
X152826261Y-49571739D01*
X152709705Y-49484385D01*
X152697132Y-49479672D01*
X152591203Y-49439960D01*
X152534439Y-49397318D01*
X152509739Y-49330756D01*
X152524947Y-49261408D01*
X152546493Y-49232727D01*
X152647435Y-49132137D01*
X152651096Y-49128489D01*
X152710594Y-49045689D01*
X152778435Y-48951277D01*
X152781453Y-48947077D01*
X152880430Y-48746811D01*
X152945370Y-48533069D01*
X152974529Y-48311590D01*
X152976156Y-48245000D01*
X152957852Y-48022361D01*
X152903431Y-47805702D01*
X152814354Y-47600840D01*
X152693014Y-47413277D01*
X152542670Y-47248051D01*
X152538619Y-47244852D01*
X152538615Y-47244848D01*
X152371414Y-47112800D01*
X152371410Y-47112798D01*
X152367359Y-47109598D01*
X152326053Y-47086796D01*
X152276084Y-47036364D01*
X152261312Y-46966921D01*
X152286428Y-46900516D01*
X152313780Y-46873909D01*
X152357603Y-46842650D01*
X152492860Y-46746173D01*
X152651096Y-46588489D01*
X152710594Y-46505689D01*
X152778435Y-46411277D01*
X152781453Y-46407077D01*
X152880430Y-46206811D01*
X152945370Y-45993069D01*
X152974529Y-45771590D01*
X152976156Y-45705000D01*
X152957852Y-45482361D01*
X152903431Y-45265702D01*
X152814354Y-45060840D01*
X152693014Y-44873277D01*
X152542670Y-44708051D01*
X152538619Y-44704852D01*
X152538615Y-44704848D01*
X152371414Y-44572800D01*
X152371410Y-44572798D01*
X152367359Y-44569598D01*
X152171789Y-44461638D01*
X152166920Y-44459914D01*
X152166916Y-44459912D01*
X151966087Y-44388795D01*
X151966083Y-44388794D01*
X151961212Y-44387069D01*
X151956119Y-44386162D01*
X151956116Y-44386161D01*
X151746373Y-44348800D01*
X151746367Y-44348799D01*
X151741284Y-44347894D01*
X151667452Y-44346992D01*
X151523081Y-44345228D01*
X151523079Y-44345228D01*
X151517911Y-44345165D01*
X151297091Y-44378955D01*
X151084756Y-44448357D01*
X150886607Y-44551507D01*
X150882474Y-44554610D01*
X150882471Y-44554612D01*
X150858247Y-44572800D01*
X150707965Y-44685635D01*
X150553629Y-44847138D01*
X150427743Y-45031680D01*
X150333688Y-45234305D01*
X150273989Y-45449570D01*
X150250251Y-45671695D01*
X150250548Y-45676848D01*
X150250548Y-45676851D01*
X150256011Y-45771590D01*
X150263110Y-45894715D01*
X150264247Y-45899761D01*
X150264248Y-45899767D01*
X150284119Y-45987939D01*
X150312222Y-46112639D01*
X150396266Y-46319616D01*
X150512987Y-46510088D01*
X150659250Y-46678938D01*
X150831126Y-46821632D01*
X150901595Y-46862811D01*
X150904445Y-46864476D01*
X150953169Y-46916114D01*
X150966240Y-46985897D01*
X150939509Y-47051669D01*
X150899055Y-47085027D01*
X150886607Y-47091507D01*
X150882474Y-47094610D01*
X150882471Y-47094612D01*
X150858247Y-47112800D01*
X150707965Y-47225635D01*
X150553629Y-47387138D01*
X150427743Y-47571680D01*
X150333688Y-47774305D01*
X150273989Y-47989570D01*
X150250251Y-48211695D01*
X120396500Y-48211695D01*
X120396500Y-41594119D01*
X120420177Y-41520593D01*
X120548453Y-41342077D01*
X120549776Y-41343028D01*
X120596645Y-41299857D01*
X120666580Y-41287625D01*
X120732026Y-41315144D01*
X120759875Y-41346994D01*
X120819987Y-41445088D01*
X120966250Y-41613938D01*
X121138126Y-41756632D01*
X121331000Y-41869338D01*
X121539692Y-41949030D01*
X121544760Y-41950061D01*
X121544763Y-41950062D01*
X121652017Y-41971883D01*
X121758597Y-41993567D01*
X121763772Y-41993757D01*
X121763774Y-41993757D01*
X121976673Y-42001564D01*
X121976677Y-42001564D01*
X121981837Y-42001753D01*
X121986957Y-42001097D01*
X121986959Y-42001097D01*
X122198288Y-41974025D01*
X122198289Y-41974025D01*
X122203416Y-41973368D01*
X122208366Y-41971883D01*
X122412429Y-41910661D01*
X122412434Y-41910659D01*
X122417384Y-41909174D01*
X122617994Y-41810896D01*
X122799860Y-41681173D01*
X122958096Y-41523489D01*
X123017594Y-41440689D01*
X123088453Y-41342077D01*
X123089776Y-41343028D01*
X123136645Y-41299857D01*
X123206580Y-41287625D01*
X123272026Y-41315144D01*
X123299875Y-41346994D01*
X123359987Y-41445088D01*
X123506250Y-41613938D01*
X123678126Y-41756632D01*
X123871000Y-41869338D01*
X124079692Y-41949030D01*
X124084760Y-41950061D01*
X124084763Y-41950062D01*
X124192017Y-41971883D01*
X124298597Y-41993567D01*
X124303772Y-41993757D01*
X124303774Y-41993757D01*
X124516673Y-42001564D01*
X124516677Y-42001564D01*
X124521837Y-42001753D01*
X124526957Y-42001097D01*
X124526959Y-42001097D01*
X124738288Y-41974025D01*
X124738289Y-41974025D01*
X124743416Y-41973368D01*
X124748366Y-41971883D01*
X124952429Y-41910661D01*
X124952434Y-41910659D01*
X124957384Y-41909174D01*
X125157994Y-41810896D01*
X125339860Y-41681173D01*
X125498096Y-41523489D01*
X125557594Y-41440689D01*
X125628453Y-41342077D01*
X125629776Y-41343028D01*
X125676645Y-41299857D01*
X125746580Y-41287625D01*
X125812026Y-41315144D01*
X125839875Y-41346994D01*
X125899987Y-41445088D01*
X126046250Y-41613938D01*
X126218126Y-41756632D01*
X126411000Y-41869338D01*
X126619692Y-41949030D01*
X126624760Y-41950061D01*
X126624763Y-41950062D01*
X126732017Y-41971883D01*
X126838597Y-41993567D01*
X126843772Y-41993757D01*
X126843774Y-41993757D01*
X127056673Y-42001564D01*
X127056677Y-42001564D01*
X127061837Y-42001753D01*
X127066957Y-42001097D01*
X127066959Y-42001097D01*
X127278288Y-41974025D01*
X127278289Y-41974025D01*
X127283416Y-41973368D01*
X127288366Y-41971883D01*
X127492429Y-41910661D01*
X127492434Y-41910659D01*
X127497384Y-41909174D01*
X127697994Y-41810896D01*
X127879860Y-41681173D01*
X127988091Y-41573319D01*
X128050462Y-41539404D01*
X128121268Y-41544592D01*
X128178030Y-41587238D01*
X128195012Y-41618341D01*
X128239385Y-41736705D01*
X128326739Y-41853261D01*
X128443295Y-41940615D01*
X128579684Y-41991745D01*
X128641866Y-41998500D01*
X130438134Y-41998500D01*
X130500316Y-41991745D01*
X130636705Y-41940615D01*
X130753261Y-41853261D01*
X130840615Y-41736705D01*
X130891745Y-41600316D01*
X130898500Y-41538134D01*
X130898500Y-39741866D01*
X130891745Y-39679684D01*
X130840615Y-39543295D01*
X130753261Y-39426739D01*
X130636705Y-39339385D01*
X130500316Y-39288255D01*
X130438134Y-39281500D01*
X128641866Y-39281500D01*
X128579684Y-39288255D01*
X128576513Y-39289444D01*
X128507612Y-39285845D01*
X128449968Y-39244399D01*
X128423883Y-39178368D01*
X128437638Y-39108717D01*
X128460271Y-39077870D01*
X128575236Y-38962905D01*
X128637548Y-38928879D01*
X128664331Y-38926000D01*
X141288000Y-38926000D01*
X141356121Y-38946002D01*
X141402614Y-38999658D01*
X141414000Y-39052000D01*
X141414000Y-39498335D01*
X141393998Y-39566456D01*
X141363655Y-39599094D01*
X141334965Y-39620635D01*
X141180629Y-39782138D01*
X141073201Y-39939621D01*
X141018293Y-39984621D01*
X140947768Y-39992792D01*
X140884021Y-39961538D01*
X140863324Y-39937054D01*
X140782822Y-39812617D01*
X140782820Y-39812614D01*
X140780014Y-39808277D01*
X140629670Y-39643051D01*
X140625616Y-39639849D01*
X140625615Y-39639848D01*
X140458414Y-39507800D01*
X140458410Y-39507798D01*
X140454359Y-39504598D01*
X140258789Y-39396638D01*
X140253920Y-39394914D01*
X140253916Y-39394912D01*
X140053087Y-39323795D01*
X140053083Y-39323794D01*
X140048212Y-39322069D01*
X140043119Y-39321162D01*
X140043116Y-39321161D01*
X139833373Y-39283800D01*
X139833367Y-39283799D01*
X139828284Y-39282894D01*
X139754452Y-39281992D01*
X139610081Y-39280228D01*
X139610079Y-39280228D01*
X139604911Y-39280165D01*
X139384091Y-39313955D01*
X139171756Y-39383357D01*
X138973607Y-39486507D01*
X138969474Y-39489610D01*
X138969471Y-39489612D01*
X138799100Y-39617530D01*
X138794965Y-39620635D01*
X138640629Y-39782138D01*
X138514743Y-39966680D01*
X138420688Y-40169305D01*
X138360989Y-40384570D01*
X138337251Y-40606695D01*
X138350110Y-40829715D01*
X138351247Y-40834761D01*
X138351248Y-40834767D01*
X138365606Y-40898475D01*
X138399222Y-41047639D01*
X138483266Y-41254616D01*
X138520685Y-41315678D01*
X138597291Y-41440688D01*
X138599987Y-41445088D01*
X138746250Y-41613938D01*
X138918126Y-41756632D01*
X139111000Y-41869338D01*
X139319692Y-41949030D01*
X139324760Y-41950061D01*
X139324763Y-41950062D01*
X139432017Y-41971883D01*
X139538597Y-41993567D01*
X139543772Y-41993757D01*
X139543774Y-41993757D01*
X139756673Y-42001564D01*
X139756677Y-42001564D01*
X139761837Y-42001753D01*
X139766957Y-42001097D01*
X139766959Y-42001097D01*
X139978288Y-41974025D01*
X139978289Y-41974025D01*
X139983416Y-41973368D01*
X139988366Y-41971883D01*
X140192429Y-41910661D01*
X140192434Y-41910659D01*
X140197384Y-41909174D01*
X140397994Y-41810896D01*
X140579860Y-41681173D01*
X140738096Y-41523489D01*
X140797594Y-41440689D01*
X140868453Y-41342077D01*
X140869776Y-41343028D01*
X140916645Y-41299857D01*
X140986580Y-41287625D01*
X141052026Y-41315144D01*
X141079875Y-41346994D01*
X141139987Y-41445088D01*
X141286250Y-41613938D01*
X141458126Y-41756632D01*
X141651000Y-41869338D01*
X141859692Y-41949030D01*
X141864760Y-41950061D01*
X141864763Y-41950062D01*
X141972017Y-41971883D01*
X142078597Y-41993567D01*
X142083772Y-41993757D01*
X142083774Y-41993757D01*
X142296673Y-42001564D01*
X142296677Y-42001564D01*
X142301837Y-42001753D01*
X142306957Y-42001097D01*
X142306959Y-42001097D01*
X142518288Y-41974025D01*
X142518289Y-41974025D01*
X142523416Y-41973368D01*
X142528366Y-41971883D01*
X142732429Y-41910661D01*
X142732434Y-41910659D01*
X142737384Y-41909174D01*
X142937994Y-41810896D01*
X143119860Y-41681173D01*
X143278096Y-41523489D01*
X143337594Y-41440689D01*
X143408453Y-41342077D01*
X143409776Y-41343028D01*
X143456645Y-41299857D01*
X143526580Y-41287625D01*
X143592026Y-41315144D01*
X143619875Y-41346994D01*
X143679987Y-41445088D01*
X143826250Y-41613938D01*
X143998126Y-41756632D01*
X144191000Y-41869338D01*
X144399692Y-41949030D01*
X144404760Y-41950061D01*
X144404763Y-41950062D01*
X144512017Y-41971883D01*
X144618597Y-41993567D01*
X144623772Y-41993757D01*
X144623774Y-41993757D01*
X144836673Y-42001564D01*
X144836677Y-42001564D01*
X144841837Y-42001753D01*
X144846957Y-42001097D01*
X144846959Y-42001097D01*
X145058288Y-41974025D01*
X145058289Y-41974025D01*
X145063416Y-41973368D01*
X145068366Y-41971883D01*
X145272429Y-41910661D01*
X145272434Y-41910659D01*
X145277384Y-41909174D01*
X145477994Y-41810896D01*
X145659860Y-41681173D01*
X145727331Y-41613938D01*
X145768479Y-41572933D01*
X145830851Y-41539017D01*
X145901658Y-41544205D01*
X145958419Y-41586851D01*
X145975401Y-41617954D01*
X146016676Y-41728054D01*
X146025214Y-41743649D01*
X146101715Y-41845724D01*
X146114276Y-41858285D01*
X146216351Y-41934786D01*
X146231946Y-41943324D01*
X146352394Y-41988478D01*
X146367649Y-41992105D01*
X146418514Y-41997631D01*
X146425328Y-41998000D01*
X147047885Y-41998000D01*
X147063124Y-41993525D01*
X147064329Y-41992135D01*
X147066000Y-41984452D01*
X147066000Y-41979884D01*
X147574000Y-41979884D01*
X147578475Y-41995123D01*
X147579865Y-41996328D01*
X147587548Y-41997999D01*
X148214669Y-41997999D01*
X148221490Y-41997629D01*
X148272352Y-41992105D01*
X148287604Y-41988479D01*
X148408054Y-41943324D01*
X148423649Y-41934786D01*
X148525724Y-41858285D01*
X148538285Y-41845724D01*
X148614786Y-41743649D01*
X148623324Y-41728054D01*
X148668478Y-41607606D01*
X148672105Y-41592351D01*
X148677631Y-41541486D01*
X148678000Y-41534672D01*
X148678000Y-40912115D01*
X148673525Y-40896876D01*
X148672135Y-40895671D01*
X148664452Y-40894000D01*
X147592115Y-40894000D01*
X147576876Y-40898475D01*
X147575671Y-40899865D01*
X147574000Y-40907548D01*
X147574000Y-41979884D01*
X147066000Y-41979884D01*
X147066000Y-40367885D01*
X147574000Y-40367885D01*
X147578475Y-40383124D01*
X147579865Y-40384329D01*
X147587548Y-40386000D01*
X148659884Y-40386000D01*
X148675123Y-40381525D01*
X148676328Y-40380135D01*
X148677999Y-40372452D01*
X148677999Y-39745331D01*
X148677629Y-39738510D01*
X148672105Y-39687648D01*
X148668479Y-39672396D01*
X148623324Y-39551946D01*
X148614786Y-39536351D01*
X148538285Y-39434276D01*
X148525724Y-39421715D01*
X148423649Y-39345214D01*
X148408054Y-39336676D01*
X148287606Y-39291522D01*
X148272351Y-39287895D01*
X148221486Y-39282369D01*
X148214672Y-39282000D01*
X147592115Y-39282000D01*
X147576876Y-39286475D01*
X147575671Y-39287865D01*
X147574000Y-39295548D01*
X147574000Y-40367885D01*
X147066000Y-40367885D01*
X147066000Y-39300116D01*
X147061525Y-39284877D01*
X147060135Y-39283672D01*
X147052452Y-39282001D01*
X146425331Y-39282001D01*
X146418510Y-39282371D01*
X146367648Y-39287895D01*
X146352396Y-39291521D01*
X146231946Y-39336676D01*
X146216351Y-39345214D01*
X146114276Y-39421715D01*
X146101715Y-39434276D01*
X146025214Y-39536351D01*
X146016676Y-39551946D01*
X145975297Y-39662322D01*
X145932655Y-39719087D01*
X145866093Y-39743786D01*
X145796744Y-39728578D01*
X145764121Y-39702891D01*
X145713151Y-39646876D01*
X145713145Y-39646870D01*
X145709670Y-39643051D01*
X145705616Y-39639849D01*
X145705615Y-39639848D01*
X145538414Y-39507800D01*
X145538410Y-39507798D01*
X145534359Y-39504598D01*
X145338789Y-39396638D01*
X145333920Y-39394914D01*
X145333916Y-39394912D01*
X145133087Y-39323795D01*
X145133083Y-39323794D01*
X145128212Y-39322069D01*
X145123119Y-39321162D01*
X145123116Y-39321161D01*
X144913373Y-39283800D01*
X144913367Y-39283799D01*
X144908284Y-39282894D01*
X144834452Y-39281992D01*
X144690081Y-39280228D01*
X144690079Y-39280228D01*
X144684911Y-39280165D01*
X144464091Y-39313955D01*
X144251756Y-39383357D01*
X144053607Y-39486507D01*
X144049474Y-39489610D01*
X144049471Y-39489612D01*
X143879100Y-39617530D01*
X143874965Y-39620635D01*
X143720629Y-39782138D01*
X143613201Y-39939621D01*
X143558293Y-39984621D01*
X143487768Y-39992792D01*
X143424021Y-39961538D01*
X143403324Y-39937054D01*
X143322822Y-39812617D01*
X143322820Y-39812614D01*
X143320014Y-39808277D01*
X143169670Y-39643051D01*
X143113907Y-39599012D01*
X143072845Y-39541096D01*
X143066000Y-39500131D01*
X143066000Y-39052000D01*
X143086002Y-38983879D01*
X143139658Y-38937386D01*
X143192000Y-38926000D01*
X148041967Y-38926000D01*
X148052512Y-38926442D01*
X148102300Y-38930623D01*
X148179743Y-38920289D01*
X148182743Y-38919927D01*
X148224498Y-38915391D01*
X148253634Y-38912226D01*
X148253636Y-38912226D01*
X148260417Y-38911489D01*
X148266883Y-38909313D01*
X148269233Y-38908796D01*
X148269783Y-38908699D01*
X148270550Y-38908520D01*
X148271085Y-38908365D01*
X148273432Y-38907789D01*
X148280190Y-38906887D01*
X148353542Y-38880189D01*
X148356443Y-38879174D01*
X148424039Y-38856425D01*
X148424046Y-38856422D01*
X148430511Y-38854246D01*
X148436360Y-38850731D01*
X148438553Y-38849718D01*
X148439068Y-38849506D01*
X148439766Y-38849173D01*
X148440267Y-38848900D01*
X148442421Y-38847840D01*
X148448834Y-38845506D01*
X148514802Y-38803641D01*
X148517394Y-38802041D01*
X148578502Y-38765324D01*
X148584344Y-38761814D01*
X148589295Y-38757133D01*
X148591231Y-38755663D01*
X148592162Y-38755015D01*
X148595996Y-38752115D01*
X148600364Y-38749343D01*
X148604464Y-38745677D01*
X148656386Y-38693755D01*
X148658908Y-38691302D01*
X148709782Y-38643193D01*
X148709784Y-38643191D01*
X148714740Y-38638504D01*
X148718574Y-38632863D01*
X148722703Y-38628011D01*
X148729560Y-38620581D01*
X150415755Y-36934385D01*
X150423522Y-36927242D01*
X150456480Y-36899390D01*
X150461693Y-36894985D01*
X150509130Y-36832941D01*
X150511029Y-36830518D01*
X150555692Y-36774969D01*
X150555693Y-36774967D01*
X150559969Y-36769649D01*
X150563006Y-36763531D01*
X150564295Y-36761515D01*
X150564623Y-36761046D01*
X150565030Y-36760393D01*
X150565302Y-36759898D01*
X150566549Y-36757839D01*
X150570697Y-36752414D01*
X150603700Y-36681639D01*
X150605034Y-36678867D01*
X150636732Y-36615011D01*
X150639767Y-36608898D01*
X150641419Y-36602273D01*
X150642253Y-36600006D01*
X150642472Y-36599481D01*
X150642721Y-36598777D01*
X150642883Y-36598227D01*
X150643661Y-36595943D01*
X150646543Y-36589761D01*
X150648031Y-36583103D01*
X150648034Y-36583095D01*
X150663581Y-36513542D01*
X150664289Y-36510546D01*
X150681533Y-36441385D01*
X150681533Y-36441382D01*
X150683184Y-36434762D01*
X150683375Y-36427941D01*
X150683703Y-36425544D01*
X150683904Y-36424430D01*
X150684566Y-36419656D01*
X150685693Y-36414616D01*
X150686000Y-36409125D01*
X150686000Y-36335711D01*
X150686049Y-36332193D01*
X150688004Y-36262186D01*
X150688195Y-36255365D01*
X150686916Y-36248658D01*
X150686406Y-36242323D01*
X150686000Y-36232216D01*
X150686000Y-34085755D01*
X150706002Y-34017634D01*
X150720984Y-33998623D01*
X150729732Y-33989485D01*
X150729736Y-33989480D01*
X150733881Y-33985150D01*
X150848620Y-33807452D01*
X150875123Y-33741690D01*
X150925442Y-33616832D01*
X150925443Y-33616829D01*
X150927686Y-33611263D01*
X150968228Y-33403663D01*
X150968500Y-33398101D01*
X150968500Y-32692154D01*
X150953452Y-32534434D01*
X150893908Y-32331466D01*
X150870673Y-32286352D01*
X150799804Y-32148751D01*
X150799802Y-32148748D01*
X150797058Y-32143420D01*
X150666396Y-31977080D01*
X150661865Y-31973148D01*
X150661862Y-31973145D01*
X150511167Y-31842379D01*
X150506637Y-31838448D01*
X150501451Y-31835448D01*
X150501447Y-31835445D01*
X150328742Y-31735533D01*
X150323546Y-31732527D01*
X150123729Y-31663139D01*
X150117794Y-31662278D01*
X150117792Y-31662278D01*
X149920336Y-31633648D01*
X149920333Y-31633648D01*
X149914396Y-31632787D01*
X149703101Y-31642567D01*
X149571923Y-31674181D01*
X149503299Y-31690719D01*
X149503297Y-31690720D01*
X149497466Y-31692125D01*
X149492008Y-31694607D01*
X149492004Y-31694608D01*
X149376959Y-31746916D01*
X149304913Y-31779674D01*
X149132389Y-31902054D01*
X149128247Y-31906381D01*
X149128241Y-31906386D01*
X149041194Y-31997317D01*
X148979639Y-32032694D01*
X148908730Y-32029175D01*
X148850979Y-31987879D01*
X148843032Y-31976491D01*
X148808478Y-31920652D01*
X148683303Y-31795695D01*
X148580826Y-31732527D01*
X148538968Y-31706725D01*
X148538966Y-31706724D01*
X148532738Y-31702885D01*
X148372254Y-31649655D01*
X148371389Y-31649368D01*
X148371387Y-31649368D01*
X148364861Y-31647203D01*
X148358025Y-31646503D01*
X148358022Y-31646502D01*
X148314969Y-31642091D01*
X148260400Y-31636500D01*
X147459600Y-31636500D01*
X147456354Y-31636837D01*
X147456350Y-31636837D01*
X147360692Y-31646762D01*
X147360688Y-31646763D01*
X147353834Y-31647474D01*
X147347298Y-31649655D01*
X147347296Y-31649655D01*
X147224213Y-31690719D01*
X147186054Y-31703450D01*
X147035652Y-31796522D01*
X146910695Y-31921697D01*
X146906855Y-31927927D01*
X146906854Y-31927928D01*
X146869900Y-31987879D01*
X146817885Y-32072262D01*
X146815580Y-32079212D01*
X146806142Y-32107666D01*
X146765712Y-32166026D01*
X146700148Y-32193264D01*
X146686549Y-32194000D01*
X139314499Y-32194000D01*
X139246378Y-32173998D01*
X139199885Y-32120342D01*
X139188499Y-32068000D01*
X139188499Y-31407664D01*
X139185743Y-31344520D01*
X139172448Y-31260574D01*
X139142491Y-31071429D01*
X139142489Y-31071422D01*
X139141802Y-31067082D01*
X139059675Y-30798460D01*
X139000570Y-30671708D01*
X138942826Y-30547874D01*
X138942823Y-30547868D01*
X138940964Y-30543882D01*
X138903141Y-30485640D01*
X138790377Y-30311998D01*
X138790374Y-30311994D01*
X138787977Y-30308303D01*
X138603692Y-30096308D01*
X138391697Y-29912023D01*
X138388006Y-29909626D01*
X138388002Y-29909623D01*
X138159815Y-29761437D01*
X138156118Y-29759036D01*
X138152132Y-29757177D01*
X138152126Y-29757174D01*
X137905534Y-29642187D01*
X137905529Y-29642185D01*
X137901540Y-29640325D01*
X137897327Y-29639037D01*
X137897322Y-29639035D01*
X137734514Y-29589259D01*
X137632918Y-29558198D01*
X137628578Y-29557511D01*
X137628571Y-29557509D01*
X137359003Y-29514815D01*
X137355480Y-29514257D01*
X137351919Y-29514102D01*
X137351914Y-29514101D01*
X137293713Y-29511560D01*
X137293709Y-29511560D01*
X137292337Y-29511500D01*
X135681171Y-29511500D01*
X134067664Y-29511501D01*
X134066295Y-29511561D01*
X134066284Y-29511561D01*
X134008086Y-29514101D01*
X134008080Y-29514102D01*
X134004520Y-29514257D01*
X133931898Y-29525759D01*
X133731429Y-29557509D01*
X133731422Y-29557511D01*
X133727082Y-29558198D01*
X133625486Y-29589259D01*
X133462678Y-29639035D01*
X133462673Y-29639037D01*
X133458460Y-29640325D01*
X133454471Y-29642185D01*
X133454466Y-29642187D01*
X133207874Y-29757174D01*
X133207868Y-29757177D01*
X133203882Y-29759036D01*
X133200185Y-29761437D01*
X132971998Y-29909623D01*
X132971994Y-29909626D01*
X132968303Y-29912023D01*
X132756308Y-30096308D01*
X132572023Y-30308303D01*
X132569626Y-30311994D01*
X132569623Y-30311998D01*
X132456859Y-30485640D01*
X132419036Y-30543882D01*
X132417177Y-30547868D01*
X132417174Y-30547874D01*
X132359430Y-30671708D01*
X132300325Y-30798460D01*
X132218198Y-31067082D01*
X132217511Y-31071422D01*
X132217509Y-31071429D01*
X132187552Y-31260574D01*
X132174257Y-31344520D01*
X132171500Y-31407663D01*
X132171500Y-32298307D01*
X132151498Y-32366428D01*
X132097842Y-32412921D01*
X132027568Y-32423025D01*
X131962988Y-32393531D01*
X131924604Y-32333805D01*
X131921051Y-32318016D01*
X131917059Y-32292807D01*
X131917056Y-32292794D01*
X131916541Y-32289541D01*
X131821361Y-31934326D01*
X131807643Y-31898588D01*
X131690757Y-31594091D01*
X131689573Y-31591006D01*
X131596856Y-31409039D01*
X131524119Y-31266284D01*
X131524115Y-31266277D01*
X131522620Y-31263343D01*
X131322332Y-30954925D01*
X131090902Y-30669133D01*
X130830867Y-30409098D01*
X130545075Y-30177668D01*
X130236658Y-29977380D01*
X130233724Y-29975885D01*
X130233717Y-29975881D01*
X129911934Y-29811925D01*
X129908994Y-29810427D01*
X129565674Y-29678639D01*
X129210459Y-29583459D01*
X129017442Y-29552888D01*
X128850489Y-29526445D01*
X128850481Y-29526444D01*
X128847241Y-29525931D01*
X128480000Y-29506685D01*
X128112759Y-29525931D01*
X128109519Y-29526444D01*
X128109511Y-29526445D01*
X127942558Y-29552888D01*
X127749541Y-29583459D01*
X127394326Y-29678639D01*
X127051006Y-29810427D01*
X127048066Y-29811925D01*
X126726284Y-29975881D01*
X126726277Y-29975885D01*
X126723343Y-29977380D01*
X126414925Y-30177668D01*
X126129133Y-30409098D01*
X125869098Y-30669133D01*
X125637668Y-30954925D01*
X125437380Y-31263343D01*
X125435885Y-31266277D01*
X125435881Y-31266284D01*
X125363144Y-31409039D01*
X125270427Y-31591006D01*
X125269243Y-31594091D01*
X125152358Y-31898588D01*
X125138639Y-31934326D01*
X125043459Y-32289541D01*
X124985931Y-32652759D01*
X124966685Y-33020000D01*
X124985931Y-33387241D01*
X125043459Y-33750459D01*
X125138639Y-34105674D01*
X125139824Y-34108762D01*
X125139825Y-34108764D01*
X125145874Y-34124521D01*
X125270427Y-34448994D01*
X125271925Y-34451934D01*
X125397813Y-34699002D01*
X125437380Y-34776657D01*
X125637668Y-35085075D01*
X125869098Y-35370867D01*
X126129133Y-35630902D01*
X126414925Y-35862332D01*
X126417700Y-35864134D01*
X126595903Y-35979860D01*
X126723342Y-36062620D01*
X126726276Y-36064115D01*
X126726283Y-36064119D01*
X127048066Y-36228075D01*
X127051006Y-36229573D01*
X127189735Y-36282826D01*
X127318341Y-36332193D01*
X127394326Y-36361361D01*
X127749541Y-36456541D01*
X127942558Y-36487112D01*
X128109511Y-36513555D01*
X128109519Y-36513556D01*
X128112759Y-36514069D01*
X128480000Y-36533315D01*
X128847241Y-36514069D01*
X128850481Y-36513556D01*
X128850489Y-36513555D01*
X129017442Y-36487112D01*
X129210459Y-36456541D01*
X129565674Y-36361361D01*
X129641660Y-36332193D01*
X129770265Y-36282826D01*
X129908994Y-36229573D01*
X129911934Y-36228075D01*
X130233717Y-36064119D01*
X130233724Y-36064115D01*
X130236658Y-36062620D01*
X130364098Y-35979860D01*
X130542300Y-35864134D01*
X130545075Y-35862332D01*
X130830867Y-35630902D01*
X131090902Y-35370867D01*
X131322332Y-35085075D01*
X131522620Y-34776657D01*
X131562188Y-34699002D01*
X131688075Y-34451934D01*
X131689573Y-34448994D01*
X131814126Y-34124521D01*
X131820175Y-34108764D01*
X131820176Y-34108762D01*
X131821361Y-34105674D01*
X131916541Y-33750459D01*
X131917930Y-33741690D01*
X131921052Y-33721978D01*
X131951465Y-33657826D01*
X132011734Y-33620299D01*
X132082723Y-33621313D01*
X132141895Y-33660546D01*
X132170462Y-33725542D01*
X132171501Y-33741686D01*
X132171501Y-34632336D01*
X132174257Y-34695480D01*
X132174815Y-34699002D01*
X132217509Y-34968571D01*
X132217511Y-34968578D01*
X132218198Y-34972918D01*
X132300325Y-35241540D01*
X132302185Y-35245529D01*
X132302187Y-35245534D01*
X132417174Y-35492126D01*
X132417177Y-35492132D01*
X132419036Y-35496118D01*
X132421437Y-35499815D01*
X132505044Y-35628558D01*
X132572023Y-35731697D01*
X132756308Y-35943692D01*
X132968303Y-36127977D01*
X132971994Y-36130374D01*
X132971998Y-36130377D01*
X133122440Y-36228075D01*
X133203882Y-36280964D01*
X133207868Y-36282823D01*
X133207874Y-36282826D01*
X133454466Y-36397813D01*
X133454471Y-36397815D01*
X133458460Y-36399675D01*
X133462673Y-36400963D01*
X133462678Y-36400965D01*
X133625486Y-36450741D01*
X133727082Y-36481802D01*
X133731422Y-36482489D01*
X133731429Y-36482491D01*
X133989709Y-36523397D01*
X134004520Y-36525743D01*
X134008081Y-36525898D01*
X134008086Y-36525899D01*
X134066287Y-36528440D01*
X134066291Y-36528440D01*
X134067663Y-36528500D01*
X135678829Y-36528500D01*
X137292336Y-36528499D01*
X137293705Y-36528439D01*
X137293716Y-36528439D01*
X137351914Y-36525899D01*
X137351920Y-36525898D01*
X137355480Y-36525743D01*
X137451432Y-36510546D01*
X137628571Y-36482491D01*
X137628578Y-36482489D01*
X137632918Y-36481802D01*
X137734514Y-36450741D01*
X137897322Y-36400965D01*
X137897327Y-36400963D01*
X137901540Y-36399675D01*
X137905529Y-36397815D01*
X137905534Y-36397813D01*
X138152126Y-36282826D01*
X138152132Y-36282823D01*
X138156118Y-36280964D01*
X138237560Y-36228075D01*
X138388002Y-36130377D01*
X138388006Y-36130374D01*
X138391697Y-36127977D01*
X138603692Y-35943692D01*
X138787977Y-35731697D01*
X138854957Y-35628558D01*
X138938563Y-35499815D01*
X138940964Y-35496118D01*
X138942823Y-35492132D01*
X138942826Y-35492126D01*
X139057813Y-35245534D01*
X139057815Y-35245529D01*
X139059675Y-35241540D01*
X139141802Y-34972918D01*
X139142489Y-34968578D01*
X139142491Y-34968571D01*
X139185185Y-34699003D01*
X139185185Y-34699002D01*
X139185743Y-34695480D01*
X139188500Y-34632337D01*
X139188500Y-33972000D01*
X139208502Y-33903879D01*
X139262158Y-33857386D01*
X139314500Y-33846000D01*
X146686641Y-33846000D01*
X146754762Y-33866002D01*
X146801255Y-33919658D01*
X146806164Y-33932123D01*
X146816130Y-33961993D01*
X146818450Y-33968946D01*
X146911522Y-34119348D01*
X147036697Y-34244305D01*
X147042927Y-34248145D01*
X147042928Y-34248146D01*
X147180090Y-34332694D01*
X147187262Y-34337115D01*
X147267005Y-34363564D01*
X147348611Y-34390632D01*
X147348613Y-34390632D01*
X147355139Y-34392797D01*
X147361975Y-34393497D01*
X147361978Y-34393498D01*
X147405031Y-34397909D01*
X147459600Y-34403500D01*
X148260400Y-34403500D01*
X148263646Y-34403163D01*
X148263650Y-34403163D01*
X148359308Y-34393238D01*
X148359312Y-34393237D01*
X148366166Y-34392526D01*
X148372702Y-34390345D01*
X148372704Y-34390345D01*
X148504806Y-34346272D01*
X148533946Y-34336550D01*
X148684348Y-34243478D01*
X148809305Y-34118303D01*
X148810689Y-34116058D01*
X148867035Y-34076109D01*
X148937958Y-34072877D01*
X148999369Y-34108502D01*
X149031772Y-34171673D01*
X149034000Y-34195264D01*
X149034000Y-35927670D01*
X149013998Y-35995791D01*
X148997095Y-36016765D01*
X147776765Y-37237095D01*
X147714453Y-37271121D01*
X147687670Y-37274000D01*
X142318333Y-37274000D01*
X142297756Y-37272308D01*
X142294790Y-37271817D01*
X142293116Y-37271540D01*
X142293115Y-37271540D01*
X142286380Y-37270425D01*
X142279563Y-37270782D01*
X142279559Y-37270782D01*
X142221462Y-37273827D01*
X142214868Y-37274000D01*
X128310033Y-37274000D01*
X128299489Y-37273558D01*
X128284603Y-37272308D01*
X128249700Y-37269377D01*
X128172257Y-37279711D01*
X128169257Y-37280073D01*
X128127502Y-37284609D01*
X128098366Y-37287774D01*
X128098364Y-37287774D01*
X128091583Y-37288511D01*
X128085117Y-37290687D01*
X128082767Y-37291204D01*
X128082218Y-37291301D01*
X128081459Y-37291478D01*
X128080914Y-37291636D01*
X128078575Y-37292211D01*
X128071810Y-37293113D01*
X127998404Y-37319831D01*
X127995569Y-37320824D01*
X127921489Y-37345754D01*
X127915639Y-37349269D01*
X127913427Y-37350291D01*
X127912922Y-37350499D01*
X127912239Y-37350825D01*
X127911723Y-37351106D01*
X127909582Y-37352160D01*
X127903166Y-37354495D01*
X127897401Y-37358153D01*
X127897402Y-37358153D01*
X127837241Y-37396331D01*
X127834623Y-37397948D01*
X127767656Y-37438186D01*
X127762699Y-37442874D01*
X127760763Y-37444343D01*
X127759840Y-37444984D01*
X127755995Y-37447892D01*
X127751636Y-37450658D01*
X127747536Y-37454323D01*
X127695614Y-37506245D01*
X127693093Y-37508698D01*
X127637260Y-37561496D01*
X127633426Y-37567137D01*
X127629297Y-37571989D01*
X127622440Y-37579419D01*
X126444245Y-38757615D01*
X126436478Y-38764758D01*
X126398307Y-38797015D01*
X126394164Y-38802434D01*
X126394163Y-38802435D01*
X126350869Y-38859062D01*
X126348971Y-38861482D01*
X126300031Y-38922350D01*
X126296998Y-38928460D01*
X126295696Y-38930496D01*
X126295377Y-38930952D01*
X126294967Y-38931610D01*
X126294698Y-38932100D01*
X126293447Y-38934166D01*
X126289303Y-38939586D01*
X126268649Y-38983879D01*
X126256305Y-39010351D01*
X126254971Y-39013122D01*
X126220233Y-39083102D01*
X126218581Y-39089727D01*
X126217747Y-39091994D01*
X126217528Y-39092519D01*
X126217279Y-39093223D01*
X126217117Y-39093773D01*
X126216339Y-39096057D01*
X126213457Y-39102239D01*
X126211969Y-39108897D01*
X126211966Y-39108905D01*
X126196419Y-39178458D01*
X126195711Y-39181454D01*
X126180017Y-39244399D01*
X126176816Y-39257238D01*
X126176625Y-39264059D01*
X126176297Y-39266456D01*
X126176096Y-39267570D01*
X126175434Y-39272344D01*
X126174307Y-39277384D01*
X126174000Y-39282875D01*
X126174000Y-39356289D01*
X126173951Y-39359807D01*
X126171805Y-39436635D01*
X126173084Y-39443342D01*
X126173594Y-39449677D01*
X126174000Y-39459784D01*
X126174000Y-39498335D01*
X126153998Y-39566456D01*
X126123655Y-39599094D01*
X126094965Y-39620635D01*
X125940629Y-39782138D01*
X125833201Y-39939621D01*
X125778293Y-39984621D01*
X125707768Y-39992792D01*
X125644021Y-39961538D01*
X125623324Y-39937054D01*
X125542822Y-39812617D01*
X125542820Y-39812614D01*
X125540014Y-39808277D01*
X125389670Y-39643051D01*
X125385616Y-39639849D01*
X125385615Y-39639848D01*
X125218414Y-39507800D01*
X125218410Y-39507798D01*
X125214359Y-39504598D01*
X125018789Y-39396638D01*
X125013920Y-39394914D01*
X125013916Y-39394912D01*
X124813087Y-39323795D01*
X124813083Y-39323794D01*
X124808212Y-39322069D01*
X124803119Y-39321162D01*
X124803116Y-39321161D01*
X124593373Y-39283800D01*
X124593367Y-39283799D01*
X124588284Y-39282894D01*
X124514452Y-39281992D01*
X124370081Y-39280228D01*
X124370079Y-39280228D01*
X124364911Y-39280165D01*
X124144091Y-39313955D01*
X123931756Y-39383357D01*
X123733607Y-39486507D01*
X123729474Y-39489610D01*
X123729471Y-39489612D01*
X123559100Y-39617530D01*
X123554965Y-39620635D01*
X123400629Y-39782138D01*
X123293201Y-39939621D01*
X123238293Y-39984621D01*
X123167768Y-39992792D01*
X123104021Y-39961538D01*
X123083324Y-39937054D01*
X123002822Y-39812617D01*
X123002820Y-39812614D01*
X123000014Y-39808277D01*
X122849670Y-39643051D01*
X122845616Y-39639849D01*
X122845615Y-39639848D01*
X122678414Y-39507800D01*
X122678410Y-39507798D01*
X122674359Y-39504598D01*
X122478789Y-39396638D01*
X122473920Y-39394914D01*
X122473916Y-39394912D01*
X122273087Y-39323795D01*
X122273083Y-39323794D01*
X122268212Y-39322069D01*
X122263119Y-39321162D01*
X122263116Y-39321161D01*
X122053373Y-39283800D01*
X122053367Y-39283799D01*
X122048284Y-39282894D01*
X121974452Y-39281992D01*
X121830081Y-39280228D01*
X121830079Y-39280228D01*
X121824911Y-39280165D01*
X121604091Y-39313955D01*
X121391756Y-39383357D01*
X121193607Y-39486507D01*
X121189474Y-39489610D01*
X121189471Y-39489612D01*
X121019100Y-39617530D01*
X121014965Y-39620635D01*
X120860629Y-39782138D01*
X120753201Y-39939621D01*
X120698293Y-39984621D01*
X120627768Y-39992792D01*
X120564021Y-39961538D01*
X120543324Y-39937054D01*
X120462822Y-39812617D01*
X120462820Y-39812614D01*
X120460014Y-39808277D01*
X120309670Y-39643051D01*
X120305616Y-39639849D01*
X120305615Y-39639848D01*
X120138414Y-39507800D01*
X120138410Y-39507798D01*
X120134359Y-39504598D01*
X119938789Y-39396638D01*
X119933920Y-39394914D01*
X119933916Y-39394912D01*
X119733087Y-39323795D01*
X119733083Y-39323794D01*
X119728212Y-39322069D01*
X119723119Y-39321162D01*
X119723116Y-39321161D01*
X119513373Y-39283800D01*
X119513367Y-39283799D01*
X119508284Y-39282894D01*
X119434452Y-39281992D01*
X119290081Y-39280228D01*
X119290079Y-39280228D01*
X119284911Y-39280165D01*
X119064091Y-39313955D01*
X118851756Y-39383357D01*
X118653607Y-39486507D01*
X118649474Y-39489610D01*
X118649471Y-39489612D01*
X118479100Y-39617530D01*
X118474965Y-39620635D01*
X118320629Y-39782138D01*
X118194743Y-39966680D01*
X118100688Y-40169305D01*
X118040989Y-40384570D01*
X118017251Y-40606695D01*
X114808500Y-40606695D01*
X114808500Y-26034500D01*
X114828502Y-25966379D01*
X114882158Y-25919886D01*
X114934500Y-25908500D01*
X163665500Y-25908500D01*
X163733621Y-25928502D01*
G37*
%TD.AperFunction*%
%TD*%
M02*
