%TF.GenerationSoftware,KiCad,Pcbnew,7.0.2*%
%TF.CreationDate,2023-06-22T15:29:06-04:00*%
%TF.ProjectId,protopico,70726f74-6f70-4696-936f-2e6b69636164,rev?*%
%TF.SameCoordinates,Original*%
%TF.FileFunction,Plated,1,2,PTH,Drill*%
%TF.FilePolarity,Positive*%
%FSLAX46Y46*%
G04 Gerber Fmt 4.6, Leading zero omitted, Abs format (unit mm)*
G04 Created by KiCad (PCBNEW 7.0.2) date 2023-06-22 15:29:06*
%MOMM*%
%LPD*%
G01*
G04 APERTURE LIST*
%TA.AperFunction,ViaDrill*%
%ADD10C,0.300000*%
%TD*%
%TA.AperFunction,ViaDrill*%
%ADD11C,0.406400*%
%TD*%
%TA.AperFunction,ViaDrill*%
%ADD12C,0.635000*%
%TD*%
%TA.AperFunction,ComponentDrill*%
%ADD13C,0.800000*%
%TD*%
%TA.AperFunction,ComponentDrill*%
%ADD14C,1.000000*%
%TD*%
%TA.AperFunction,ComponentDrill*%
%ADD15C,1.520000*%
%TD*%
G04 APERTURE END LIST*
D10*
X140462000Y-77216000D03*
X147574000Y-76850000D03*
X150368000Y-75184000D03*
X153416000Y-74930000D03*
X153670000Y-77470000D03*
X160000000Y-76474000D03*
X175387000Y-93218000D03*
X178500000Y-84250000D03*
X179832000Y-93000000D03*
X179832000Y-95504000D03*
X180000000Y-104250000D03*
X180250000Y-113000000D03*
X183478000Y-105500000D03*
D11*
X112522000Y-99822000D03*
X115364186Y-85533366D03*
X115364186Y-114110634D03*
X123458047Y-73420047D03*
X123458047Y-126223953D03*
X133350000Y-80645000D03*
X135350000Y-86138000D03*
X135571366Y-65326186D03*
X135571366Y-134317814D03*
X144830800Y-78384400D03*
X149860000Y-62484000D03*
X149860000Y-137160000D03*
X164148634Y-65326186D03*
X164148634Y-134317814D03*
X176261953Y-73420047D03*
X176261953Y-126223953D03*
X184355814Y-85533366D03*
X184355814Y-114110634D03*
X187198000Y-99822000D03*
D12*
X120650000Y-79502000D03*
D13*
%TO.C,U1*%
X148590000Y-82550000D03*
X148590000Y-85090000D03*
X148590000Y-87630000D03*
X148590000Y-90170000D03*
X148590000Y-92710000D03*
X148590000Y-95250000D03*
X148590000Y-97790000D03*
X148590000Y-100330000D03*
X166370000Y-82550000D03*
X166370000Y-85090000D03*
X166370000Y-87630000D03*
X166370000Y-90170000D03*
X166370000Y-92710000D03*
X166370000Y-95250000D03*
X166370000Y-97790000D03*
X166370000Y-100330000D03*
D14*
%TO.C,U3*%
X122174000Y-84455000D03*
X122174000Y-86995000D03*
X122174000Y-89535000D03*
X122174000Y-92075000D03*
X122174000Y-94615000D03*
%TO.C,U2*%
X122174000Y-97790000D03*
X122174000Y-100330000D03*
X122174000Y-102870000D03*
X122174000Y-105410000D03*
X122174000Y-107950000D03*
D15*
%TO.C,J1*%
X141986000Y-109474000D03*
X147066000Y-109474000D03*
%TO.C,J6*%
X166370000Y-76200000D03*
X171450000Y-76200000D03*
M02*
