%TF.GenerationSoftware,KiCad,Pcbnew,7.0.7*%
%TF.CreationDate,2023-08-31T16:12:04-04:00*%
%TF.ProjectId,protopico,70726f74-6f70-4696-936f-2e6b69636164,rev?*%
%TF.SameCoordinates,Original*%
%TF.FileFunction,Soldermask,Top*%
%TF.FilePolarity,Negative*%
%FSLAX46Y46*%
G04 Gerber Fmt 4.6, Leading zero omitted, Abs format (unit mm)*
G04 Created by KiCad (PCBNEW 7.0.7) date 2023-08-31 16:12:04*
%MOMM*%
%LPD*%
G01*
G04 APERTURE LIST*
G04 Aperture macros list*
%AMRoundRect*
0 Rectangle with rounded corners*
0 $1 Rounding radius*
0 $2 $3 $4 $5 $6 $7 $8 $9 X,Y pos of 4 corners*
0 Add a 4 corners polygon primitive as box body*
4,1,4,$2,$3,$4,$5,$6,$7,$8,$9,$2,$3,0*
0 Add four circle primitives for the rounded corners*
1,1,$1+$1,$2,$3*
1,1,$1+$1,$4,$5*
1,1,$1+$1,$6,$7*
1,1,$1+$1,$8,$9*
0 Add four rect primitives between the rounded corners*
20,1,$1+$1,$2,$3,$4,$5,0*
20,1,$1+$1,$4,$5,$6,$7,0*
20,1,$1+$1,$6,$7,$8,$9,0*
20,1,$1+$1,$8,$9,$2,$3,0*%
%AMFreePoly0*
4,1,6,1.000000,0.000000,0.500000,-0.750000,-0.500000,-0.750000,-0.500000,0.750000,0.500000,0.750000,1.000000,0.000000,1.000000,0.000000,$1*%
%AMFreePoly1*
4,1,6,0.500000,-0.750000,-0.650000,-0.750000,-0.150000,0.000000,-0.650000,0.750000,0.500000,0.750000,0.500000,-0.750000,0.500000,-0.750000,$1*%
G04 Aperture macros list end*
%ADD10FreePoly0,180.000000*%
%ADD11FreePoly1,180.000000*%
%ADD12C,3.200000*%
%ADD13R,1.500000X1.500000*%
%ADD14FreePoly0,0.000000*%
%ADD15RoundRect,0.250000X-0.250000X-1.500000X0.250000X-1.500000X0.250000X1.500000X-0.250000X1.500000X0*%
%ADD16RoundRect,0.250001X-0.499999X-1.449999X0.499999X-1.449999X0.499999X1.449999X-0.499999X1.449999X0*%
%ADD17R,1.400000X1.600000*%
%ADD18RoundRect,0.150000X0.150000X-0.837500X0.150000X0.837500X-0.150000X0.837500X-0.150000X-0.837500X0*%
%ADD19C,2.000000*%
%ADD20RoundRect,0.250000X0.250000X1.500000X-0.250000X1.500000X-0.250000X-1.500000X0.250000X-1.500000X0*%
%ADD21RoundRect,0.250001X0.499999X1.449999X-0.499999X1.449999X-0.499999X-1.449999X0.499999X-1.449999X0*%
%ADD22RoundRect,0.150000X-0.150000X-0.625000X0.150000X-0.625000X0.150000X0.625000X-0.150000X0.625000X0*%
%ADD23RoundRect,0.250000X-0.350000X-0.650000X0.350000X-0.650000X0.350000X0.650000X-0.350000X0.650000X0*%
%ADD24RoundRect,0.150000X0.150000X0.625000X-0.150000X0.625000X-0.150000X-0.625000X0.150000X-0.625000X0*%
%ADD25RoundRect,0.250000X0.350000X0.650000X-0.350000X0.650000X-0.350000X-0.650000X0.350000X-0.650000X0*%
%ADD26FreePoly0,90.000000*%
%ADD27FreePoly0,270.000000*%
%ADD28RoundRect,0.250000X-0.475000X0.337500X-0.475000X-0.337500X0.475000X-0.337500X0.475000X0.337500X0*%
%ADD29RoundRect,0.250000X0.375000X0.625000X-0.375000X0.625000X-0.375000X-0.625000X0.375000X-0.625000X0*%
%ADD30RoundRect,0.150000X-0.625000X0.150000X-0.625000X-0.150000X0.625000X-0.150000X0.625000X0.150000X0*%
%ADD31RoundRect,0.250000X-0.650000X0.350000X-0.650000X-0.350000X0.650000X-0.350000X0.650000X0.350000X0*%
%ADD32C,1.695450*%
%ADD33R,1.695450X1.695450*%
G04 APERTURE END LIST*
D10*
%TO.C,JP5*%
X147791000Y-113030000D03*
D11*
X146341000Y-113030000D03*
%TD*%
D12*
%TO.C,H2*%
X127858373Y-121823627D03*
%TD*%
%TO.C,H3*%
X171861627Y-121823627D03*
%TD*%
D13*
%TO.C,JP4*%
X150838000Y-104140000D03*
X148438000Y-104140000D03*
D10*
X151638000Y-104140000D03*
D14*
X147638000Y-104140000D03*
%TD*%
D15*
%TO.C,J5*%
X162830000Y-109220000D03*
X164830000Y-109220000D03*
D16*
X160480000Y-114970000D03*
X167180000Y-114970000D03*
%TD*%
D12*
%TO.C,H4*%
X149860000Y-130937000D03*
%TD*%
D17*
%TO.C,SW2*%
X130326000Y-93516000D03*
X130326000Y-86316000D03*
X133326000Y-93516000D03*
X133326000Y-86316000D03*
%TD*%
D18*
%TO.C,U1*%
X156845000Y-89822500D03*
X158115000Y-89822500D03*
X159385000Y-89822500D03*
X160655000Y-89822500D03*
X161925000Y-89822500D03*
X163195000Y-89822500D03*
X164465000Y-89822500D03*
X165735000Y-89822500D03*
X167005000Y-89822500D03*
X168275000Y-89822500D03*
X168275000Y-82897500D03*
X167005000Y-82897500D03*
X165735000Y-82897500D03*
X164465000Y-82897500D03*
X163195000Y-82897500D03*
X161925000Y-82897500D03*
X160655000Y-82897500D03*
X159385000Y-82897500D03*
X158115000Y-82897500D03*
X156845000Y-82897500D03*
%TD*%
D12*
%TO.C,H1*%
X149860000Y-68707000D03*
%TD*%
D13*
%TO.C,JP2*%
X150184000Y-78486000D03*
X152584000Y-78486000D03*
D14*
X149384000Y-78486000D03*
D10*
X153384000Y-78486000D03*
%TD*%
D19*
%TO.C,TP2*%
X119888000Y-109728000D03*
%TD*%
D13*
%TO.C,JP1*%
X150184000Y-74676000D03*
X152584000Y-74676000D03*
D14*
X149384000Y-74676000D03*
D10*
X153384000Y-74676000D03*
%TD*%
D20*
%TO.C,J2*%
X141986000Y-79283000D03*
X139986000Y-79283000D03*
X137986000Y-79283000D03*
D21*
X144336000Y-73533000D03*
X135636000Y-73533000D03*
%TD*%
D19*
%TO.C,TP1*%
X122682000Y-105664000D03*
%TD*%
D22*
%TO.C,J7*%
X143534000Y-118142000D03*
X144534000Y-118142000D03*
X145534000Y-118142000D03*
X146534000Y-118142000D03*
D23*
X142234000Y-122017000D03*
X147834000Y-122017000D03*
%TD*%
D24*
%TO.C,J1*%
X163655000Y-76676000D03*
X162655000Y-76676000D03*
X161655000Y-76676000D03*
X160655000Y-76676000D03*
X159655000Y-76676000D03*
D25*
X164955000Y-72801000D03*
X158355000Y-72801000D03*
%TD*%
D13*
%TO.C,JP3*%
X137668000Y-94799000D03*
X137668000Y-92399000D03*
D26*
X137668000Y-95599000D03*
D27*
X137668000Y-91599000D03*
%TD*%
D22*
%TO.C,J3*%
X116991000Y-86519000D03*
X117991000Y-86519000D03*
X118991000Y-86519000D03*
X119991000Y-86519000D03*
D23*
X115691000Y-90394000D03*
X121291000Y-90394000D03*
%TD*%
D22*
%TO.C,J6*%
X134892000Y-118142000D03*
X135892000Y-118142000D03*
X136892000Y-118142000D03*
X137892000Y-118142000D03*
D23*
X133592000Y-122017000D03*
X139192000Y-122017000D03*
%TD*%
D28*
%TO.C,C1*%
X154432000Y-82804000D03*
X154432000Y-84879000D03*
%TD*%
D29*
%TO.C,F1*%
X154438000Y-109220000D03*
X151638000Y-109220000D03*
%TD*%
D17*
%TO.C,SW1*%
X124000000Y-93516000D03*
X124000000Y-86316000D03*
X127000000Y-93516000D03*
X127000000Y-86316000D03*
%TD*%
D30*
%TO.C,M1*%
X137636000Y-110260000D03*
X137636000Y-111260000D03*
X137636000Y-112260000D03*
X137636000Y-113260000D03*
D31*
X133761000Y-108960000D03*
X133761000Y-114560000D03*
%TD*%
D30*
%TO.C,J4*%
X137636000Y-100608000D03*
X137636000Y-101608000D03*
X137636000Y-102608000D03*
X137636000Y-103608000D03*
D31*
X133761000Y-99308000D03*
X133761000Y-104908000D03*
%TD*%
D32*
%TO.C,VR2*%
X142240000Y-114300000D03*
X142240000Y-111760000D03*
X142240000Y-109220000D03*
D33*
X142240000Y-106680000D03*
D32*
X142240000Y-104140000D03*
D33*
X152908000Y-114300000D03*
%TD*%
D32*
%TO.C,VR1*%
X142240000Y-95885000D03*
X142240000Y-93345000D03*
X142240000Y-90805000D03*
D33*
X142240000Y-88265000D03*
D32*
X142240000Y-85725000D03*
%TD*%
M02*
