%TF.GenerationSoftware,KiCad,Pcbnew,7.0.7*%
%TF.CreationDate,2023-08-31T16:12:03-04:00*%
%TF.ProjectId,protopico,70726f74-6f70-4696-936f-2e6b69636164,rev?*%
%TF.SameCoordinates,Original*%
%TF.FileFunction,Legend,Bot*%
%TF.FilePolarity,Positive*%
%FSLAX46Y46*%
G04 Gerber Fmt 4.6, Leading zero omitted, Abs format (unit mm)*
G04 Created by KiCad (PCBNEW 7.0.7) date 2023-08-31 16:12:03*
%MOMM*%
%LPD*%
G01*
G04 APERTURE LIST*
G04 Aperture macros list*
%AMRoundRect*
0 Rectangle with rounded corners*
0 $1 Rounding radius*
0 $2 $3 $4 $5 $6 $7 $8 $9 X,Y pos of 4 corners*
0 Add a 4 corners polygon primitive as box body*
4,1,4,$2,$3,$4,$5,$6,$7,$8,$9,$2,$3,0*
0 Add four circle primitives for the rounded corners*
1,1,$1+$1,$2,$3*
1,1,$1+$1,$4,$5*
1,1,$1+$1,$6,$7*
1,1,$1+$1,$8,$9*
0 Add four rect primitives between the rounded corners*
20,1,$1+$1,$2,$3,$4,$5,0*
20,1,$1+$1,$4,$5,$6,$7,0*
20,1,$1+$1,$6,$7,$8,$9,0*
20,1,$1+$1,$8,$9,$2,$3,0*%
%AMRotRect*
0 Rectangle, with rotation*
0 The origin of the aperture is its center*
0 $1 length*
0 $2 width*
0 $3 Rotation angle, in degrees counterclockwise*
0 Add horizontal line*
21,1,$1,$2,0,0,$3*%
G04 Aperture macros list end*
%ADD10C,0.150000*%
%ADD11C,0.152400*%
%ADD12C,0.100000*%
%ADD13C,0.120000*%
%ADD14R,1.400000X1.200000*%
%ADD15C,3.200000*%
%ADD16RotRect,1.500000X0.900000X337.500000*%
%ADD17RotRect,1.500000X0.900000X292.500000*%
%ADD18RotRect,1.500000X0.900000X45.000000*%
%ADD19RotRect,1.500000X0.900000X22.500000*%
%ADD20RotRect,1.500000X0.900000X225.000000*%
%ADD21RoundRect,0.250000X0.450000X-0.262500X0.450000X0.262500X-0.450000X0.262500X-0.450000X-0.262500X0*%
%ADD22C,1.695450*%
%ADD23R,1.695450X1.695450*%
%ADD24R,0.900000X1.500000*%
%ADD25RoundRect,0.250000X0.475000X-0.250000X0.475000X0.250000X-0.475000X0.250000X-0.475000X-0.250000X0*%
%ADD26R,1.500000X0.900000*%
%ADD27RoundRect,0.050000X0.387500X0.050000X-0.387500X0.050000X-0.387500X-0.050000X0.387500X-0.050000X0*%
%ADD28RoundRect,0.050000X0.050000X0.387500X-0.050000X0.387500X-0.050000X-0.387500X0.050000X-0.387500X0*%
%ADD29R,3.200000X3.200000*%
%ADD30RoundRect,0.140000X0.170000X-0.140000X0.170000X0.140000X-0.170000X0.140000X-0.170000X-0.140000X0*%
%ADD31RoundRect,0.140000X-0.170000X0.140000X-0.170000X-0.140000X0.170000X-0.140000X0.170000X0.140000X0*%
%ADD32RoundRect,0.135000X-0.185000X0.135000X-0.185000X-0.135000X0.185000X-0.135000X0.185000X0.135000X0*%
%ADD33RotRect,1.500000X0.900000X247.500000*%
%ADD34RoundRect,0.250000X-0.475000X0.250000X-0.475000X-0.250000X0.475000X-0.250000X0.475000X0.250000X0*%
%ADD35RoundRect,0.250000X0.262500X0.450000X-0.262500X0.450000X-0.262500X-0.450000X0.262500X-0.450000X0*%
%ADD36RotRect,1.500000X0.900000X202.500000*%
%ADD37RotRect,1.500000X0.900000X67.500000*%
%ADD38RotRect,1.500000X0.900000X112.500000*%
%ADD39RotRect,1.500000X0.900000X157.500000*%
%ADD40RoundRect,0.250000X-0.450000X0.262500X-0.450000X-0.262500X0.450000X-0.262500X0.450000X0.262500X0*%
%ADD41RoundRect,0.140000X-0.140000X-0.170000X0.140000X-0.170000X0.140000X0.170000X-0.140000X0.170000X0*%
%ADD42RotRect,1.500000X0.900000X315.000000*%
%ADD43RoundRect,0.140000X0.140000X0.170000X-0.140000X0.170000X-0.140000X-0.170000X0.140000X-0.170000X0*%
%ADD44RoundRect,0.150000X0.650000X0.150000X-0.650000X0.150000X-0.650000X-0.150000X0.650000X-0.150000X0*%
%ADD45RotRect,1.500000X0.900000X135.000000*%
%ADD46RoundRect,0.140000X-0.021213X0.219203X-0.219203X0.021213X0.021213X-0.219203X0.219203X-0.021213X0*%
G04 APERTURE END LIST*
D10*
X158127506Y-96024819D02*
X158127506Y-96739104D01*
X158127506Y-96739104D02*
X158175125Y-96881961D01*
X158175125Y-96881961D02*
X158270363Y-96977200D01*
X158270363Y-96977200D02*
X158413220Y-97024819D01*
X158413220Y-97024819D02*
X158508458Y-97024819D01*
X157175125Y-97024819D02*
X157651315Y-97024819D01*
X157651315Y-97024819D02*
X157651315Y-96024819D01*
X156270363Y-96929580D02*
X156317982Y-96977200D01*
X156317982Y-96977200D02*
X156460839Y-97024819D01*
X156460839Y-97024819D02*
X156556077Y-97024819D01*
X156556077Y-97024819D02*
X156698934Y-96977200D01*
X156698934Y-96977200D02*
X156794172Y-96881961D01*
X156794172Y-96881961D02*
X156841791Y-96786723D01*
X156841791Y-96786723D02*
X156889410Y-96596247D01*
X156889410Y-96596247D02*
X156889410Y-96453390D01*
X156889410Y-96453390D02*
X156841791Y-96262914D01*
X156841791Y-96262914D02*
X156794172Y-96167676D01*
X156794172Y-96167676D02*
X156698934Y-96072438D01*
X156698934Y-96072438D02*
X156556077Y-96024819D01*
X156556077Y-96024819D02*
X156460839Y-96024819D01*
X156460839Y-96024819D02*
X156317982Y-96072438D01*
X156317982Y-96072438D02*
X156270363Y-96120057D01*
X155556077Y-96024819D02*
X155556077Y-96739104D01*
X155556077Y-96739104D02*
X155603696Y-96881961D01*
X155603696Y-96881961D02*
X155698934Y-96977200D01*
X155698934Y-96977200D02*
X155841791Y-97024819D01*
X155841791Y-97024819D02*
X155937029Y-97024819D01*
X154603696Y-97024819D02*
X155079886Y-97024819D01*
X155079886Y-97024819D02*
X155079886Y-96024819D01*
X153698934Y-96929580D02*
X153746553Y-96977200D01*
X153746553Y-96977200D02*
X153889410Y-97024819D01*
X153889410Y-97024819D02*
X153984648Y-97024819D01*
X153984648Y-97024819D02*
X154127505Y-96977200D01*
X154127505Y-96977200D02*
X154222743Y-96881961D01*
X154222743Y-96881961D02*
X154270362Y-96786723D01*
X154270362Y-96786723D02*
X154317981Y-96596247D01*
X154317981Y-96596247D02*
X154317981Y-96453390D01*
X154317981Y-96453390D02*
X154270362Y-96262914D01*
X154270362Y-96262914D02*
X154222743Y-96167676D01*
X154222743Y-96167676D02*
X154127505Y-96072438D01*
X154127505Y-96072438D02*
X153984648Y-96024819D01*
X153984648Y-96024819D02*
X153889410Y-96024819D01*
X153889410Y-96024819D02*
X153746553Y-96072438D01*
X153746553Y-96072438D02*
X153698934Y-96120057D01*
X152984648Y-96024819D02*
X152984648Y-96739104D01*
X152984648Y-96739104D02*
X153032267Y-96881961D01*
X153032267Y-96881961D02*
X153127505Y-96977200D01*
X153127505Y-96977200D02*
X153270362Y-97024819D01*
X153270362Y-97024819D02*
X153365600Y-97024819D01*
X152032267Y-97024819D02*
X152508457Y-97024819D01*
X152508457Y-97024819D02*
X152508457Y-96024819D01*
X151127505Y-96929580D02*
X151175124Y-96977200D01*
X151175124Y-96977200D02*
X151317981Y-97024819D01*
X151317981Y-97024819D02*
X151413219Y-97024819D01*
X151413219Y-97024819D02*
X151556076Y-96977200D01*
X151556076Y-96977200D02*
X151651314Y-96881961D01*
X151651314Y-96881961D02*
X151698933Y-96786723D01*
X151698933Y-96786723D02*
X151746552Y-96596247D01*
X151746552Y-96596247D02*
X151746552Y-96453390D01*
X151746552Y-96453390D02*
X151698933Y-96262914D01*
X151698933Y-96262914D02*
X151651314Y-96167676D01*
X151651314Y-96167676D02*
X151556076Y-96072438D01*
X151556076Y-96072438D02*
X151413219Y-96024819D01*
X151413219Y-96024819D02*
X151317981Y-96024819D01*
X151317981Y-96024819D02*
X151175124Y-96072438D01*
X151175124Y-96072438D02*
X151127505Y-96120057D01*
X150413219Y-96024819D02*
X150413219Y-96739104D01*
X150413219Y-96739104D02*
X150460838Y-96881961D01*
X150460838Y-96881961D02*
X150556076Y-96977200D01*
X150556076Y-96977200D02*
X150698933Y-97024819D01*
X150698933Y-97024819D02*
X150794171Y-97024819D01*
X149460838Y-97024819D02*
X149937028Y-97024819D01*
X149937028Y-97024819D02*
X149937028Y-96024819D01*
X148556076Y-96929580D02*
X148603695Y-96977200D01*
X148603695Y-96977200D02*
X148746552Y-97024819D01*
X148746552Y-97024819D02*
X148841790Y-97024819D01*
X148841790Y-97024819D02*
X148984647Y-96977200D01*
X148984647Y-96977200D02*
X149079885Y-96881961D01*
X149079885Y-96881961D02*
X149127504Y-96786723D01*
X149127504Y-96786723D02*
X149175123Y-96596247D01*
X149175123Y-96596247D02*
X149175123Y-96453390D01*
X149175123Y-96453390D02*
X149127504Y-96262914D01*
X149127504Y-96262914D02*
X149079885Y-96167676D01*
X149079885Y-96167676D02*
X148984647Y-96072438D01*
X148984647Y-96072438D02*
X148841790Y-96024819D01*
X148841790Y-96024819D02*
X148746552Y-96024819D01*
X148746552Y-96024819D02*
X148603695Y-96072438D01*
X148603695Y-96072438D02*
X148556076Y-96120057D01*
X125952190Y-113426628D02*
X125952190Y-113902819D01*
X126285523Y-112902819D02*
X125952190Y-113426628D01*
X125952190Y-113426628D02*
X125618857Y-112902819D01*
X124761714Y-113902819D02*
X125333142Y-113902819D01*
X125047428Y-113902819D02*
X125047428Y-112902819D01*
X125047428Y-112902819D02*
X125142666Y-113045676D01*
X125142666Y-113045676D02*
X125237904Y-113140914D01*
X125237904Y-113140914D02*
X125333142Y-113188533D01*
X163757044Y-69444649D02*
X164139727Y-68520769D01*
X164139727Y-68520769D02*
X163919756Y-68429654D01*
X163919756Y-68429654D02*
X163769550Y-68418979D01*
X163769550Y-68418979D02*
X163645115Y-68470522D01*
X163645115Y-68470522D02*
X163564675Y-68540287D01*
X163564675Y-68540287D02*
X163447789Y-68698041D01*
X163447789Y-68698041D02*
X163393120Y-68830024D01*
X163393120Y-68830024D02*
X163364222Y-69024224D01*
X163364222Y-69024224D02*
X163371770Y-69130436D01*
X163371770Y-69130436D02*
X163423312Y-69254870D01*
X163423312Y-69254870D02*
X163537072Y-69353533D01*
X163537072Y-69353533D02*
X163757044Y-69444649D01*
X162349227Y-68861512D02*
X162877158Y-69080188D01*
X162613193Y-68970850D02*
X162995876Y-68046970D01*
X162995876Y-68046970D02*
X163029196Y-68215399D01*
X163029196Y-68215399D02*
X163080738Y-68339834D01*
X163080738Y-68339834D02*
X163150504Y-68420274D01*
X161940014Y-67609618D02*
X162115991Y-67682510D01*
X162115991Y-67682510D02*
X162185756Y-67762950D01*
X162185756Y-67762950D02*
X162211528Y-67825168D01*
X162211528Y-67825168D02*
X162244847Y-67993596D01*
X162244847Y-67993596D02*
X162215949Y-68187797D01*
X162215949Y-68187797D02*
X162070165Y-68539751D01*
X162070165Y-68539751D02*
X161989725Y-68609516D01*
X161989725Y-68609516D02*
X161927507Y-68635287D01*
X161927507Y-68635287D02*
X161821296Y-68642836D01*
X161821296Y-68642836D02*
X161645319Y-68569944D01*
X161645319Y-68569944D02*
X161575553Y-68489503D01*
X161575553Y-68489503D02*
X161549782Y-68427286D01*
X161549782Y-68427286D02*
X161542234Y-68321074D01*
X161542234Y-68321074D02*
X161633349Y-68101103D01*
X161633349Y-68101103D02*
X161713789Y-68031338D01*
X161713789Y-68031338D02*
X161776007Y-68005566D01*
X161776007Y-68005566D02*
X161882218Y-67998018D01*
X161882218Y-67998018D02*
X162058195Y-68070910D01*
X162058195Y-68070910D02*
X162127961Y-68151351D01*
X162127961Y-68151351D02*
X162153732Y-68213568D01*
X162153732Y-68213568D02*
X162161280Y-68319779D01*
X159264222Y-65527116D02*
X159792153Y-65745792D01*
X159528187Y-65636454D02*
X159910871Y-64712575D01*
X159910871Y-64712575D02*
X159944190Y-64881004D01*
X159944190Y-64881004D02*
X159995733Y-65005438D01*
X159995733Y-65005438D02*
X160065498Y-65085878D01*
X181166725Y-88168663D02*
X182090604Y-87785980D01*
X182090604Y-87785980D02*
X181999489Y-87566008D01*
X181999489Y-87566008D02*
X181900826Y-87452248D01*
X181900826Y-87452248D02*
X181776391Y-87400706D01*
X181776391Y-87400706D02*
X181670180Y-87393158D01*
X181670180Y-87393158D02*
X181475979Y-87422056D01*
X181475979Y-87422056D02*
X181343997Y-87476725D01*
X181343997Y-87476725D02*
X181186243Y-87593611D01*
X181186243Y-87593611D02*
X181116477Y-87674051D01*
X181116477Y-87674051D02*
X181064935Y-87798486D01*
X181064935Y-87798486D02*
X181075609Y-87948692D01*
X181075609Y-87948692D02*
X181166725Y-88168663D01*
X180583588Y-86760847D02*
X180802264Y-87288778D01*
X180692926Y-87024812D02*
X181616806Y-86642129D01*
X181616806Y-86642129D02*
X181521269Y-86784786D01*
X181521269Y-86784786D02*
X181469726Y-86909221D01*
X181469726Y-86909221D02*
X181462178Y-87015432D01*
X180871493Y-85713827D02*
X180255573Y-85968950D01*
X181314562Y-85788015D02*
X180745764Y-86281331D01*
X180745764Y-86281331D02*
X180508864Y-85709406D01*
X180759934Y-82221644D02*
X180978610Y-82749575D01*
X180869272Y-82485610D02*
X181793152Y-82102926D01*
X181793152Y-82102926D02*
X181697615Y-82245584D01*
X181697615Y-82245584D02*
X181646073Y-82370018D01*
X181646073Y-82370018D02*
X181638524Y-82476230D01*
X126776438Y-75694614D02*
X126069331Y-74987508D01*
X126069331Y-74987508D02*
X125900972Y-75155866D01*
X125900972Y-75155866D02*
X125833629Y-75290553D01*
X125833629Y-75290553D02*
X125833629Y-75425240D01*
X125833629Y-75425240D02*
X125867301Y-75526256D01*
X125867301Y-75526256D02*
X125968316Y-75694614D01*
X125968316Y-75694614D02*
X126069331Y-75795630D01*
X126069331Y-75795630D02*
X126237690Y-75896645D01*
X126237690Y-75896645D02*
X126338705Y-75930317D01*
X126338705Y-75930317D02*
X126473392Y-75930317D01*
X126473392Y-75930317D02*
X126608079Y-75862973D01*
X126608079Y-75862973D02*
X126776438Y-75694614D01*
X125429568Y-75627271D02*
X124991835Y-76065004D01*
X124991835Y-76065004D02*
X125496911Y-76098675D01*
X125496911Y-76098675D02*
X125395896Y-76199691D01*
X125395896Y-76199691D02*
X125362224Y-76300706D01*
X125362224Y-76300706D02*
X125362224Y-76368049D01*
X125362224Y-76368049D02*
X125395896Y-76469065D01*
X125395896Y-76469065D02*
X125564255Y-76637423D01*
X125564255Y-76637423D02*
X125665270Y-76671095D01*
X125665270Y-76671095D02*
X125732614Y-76671095D01*
X125732614Y-76671095D02*
X125833629Y-76637423D01*
X125833629Y-76637423D02*
X126035659Y-76435393D01*
X126035659Y-76435393D02*
X126069331Y-76334378D01*
X126069331Y-76334378D02*
X126069331Y-76267034D01*
X121774499Y-78009547D02*
X122178560Y-77605486D01*
X121976530Y-77807516D02*
X121269423Y-77100410D01*
X121269423Y-77100410D02*
X121437782Y-77134081D01*
X121437782Y-77134081D02*
X121572469Y-77134081D01*
X121572469Y-77134081D02*
X121673484Y-77100410D01*
X137766720Y-68697505D02*
X137384036Y-67773625D01*
X137384036Y-67773625D02*
X137164065Y-67864740D01*
X137164065Y-67864740D02*
X137050305Y-67963404D01*
X137050305Y-67963404D02*
X136998763Y-68087838D01*
X136998763Y-68087838D02*
X136991215Y-68194050D01*
X136991215Y-68194050D02*
X137020112Y-68388250D01*
X137020112Y-68388250D02*
X137074782Y-68520233D01*
X137074782Y-68520233D02*
X137191668Y-68677987D01*
X137191668Y-68677987D02*
X137272108Y-68747752D01*
X137272108Y-68747752D02*
X137396543Y-68799295D01*
X137396543Y-68799295D02*
X137546749Y-68788620D01*
X137546749Y-68788620D02*
X137766720Y-68697505D01*
X136540597Y-68226074D02*
X136478380Y-68200303D01*
X136478380Y-68200303D02*
X136372168Y-68192755D01*
X136372168Y-68192755D02*
X136152197Y-68283870D01*
X136152197Y-68283870D02*
X136082432Y-68364310D01*
X136082432Y-68364310D02*
X136056660Y-68426528D01*
X136056660Y-68426528D02*
X136049112Y-68532739D01*
X136049112Y-68532739D02*
X136085558Y-68620728D01*
X136085558Y-68620728D02*
X136184221Y-68734487D01*
X136184221Y-68734487D02*
X136930829Y-69043742D01*
X136930829Y-69043742D02*
X136358903Y-69280642D01*
X132259644Y-68922065D02*
X132787575Y-68703389D01*
X132523610Y-68812727D02*
X132140926Y-67888847D01*
X132140926Y-67888847D02*
X132283584Y-67984384D01*
X132283584Y-67984384D02*
X132408018Y-68035926D01*
X132408018Y-68035926D02*
X132514230Y-68043475D01*
X174967314Y-123212054D02*
X174260207Y-122504948D01*
X174260207Y-122504948D02*
X174091848Y-122673306D01*
X174091848Y-122673306D02*
X174024505Y-122807993D01*
X174024505Y-122807993D02*
X174024505Y-122942680D01*
X174024505Y-122942680D02*
X174058177Y-123043696D01*
X174058177Y-123043696D02*
X174159192Y-123212054D01*
X174159192Y-123212054D02*
X174260207Y-123313070D01*
X174260207Y-123313070D02*
X174428566Y-123414085D01*
X174428566Y-123414085D02*
X174529581Y-123447757D01*
X174529581Y-123447757D02*
X174664268Y-123447757D01*
X174664268Y-123447757D02*
X174798955Y-123380413D01*
X174798955Y-123380413D02*
X174967314Y-123212054D01*
X173889818Y-124289550D02*
X174293879Y-123885489D01*
X174091848Y-124087520D02*
X173384742Y-123380413D01*
X173384742Y-123380413D02*
X173553100Y-123414085D01*
X173553100Y-123414085D02*
X173687787Y-123414085D01*
X173687787Y-123414085D02*
X173788803Y-123380413D01*
X173216383Y-124962986D02*
X173620444Y-124558925D01*
X173418413Y-124760955D02*
X172711306Y-124053848D01*
X172711306Y-124053848D02*
X172879665Y-124087520D01*
X172879665Y-124087520D02*
X173014352Y-124087520D01*
X173014352Y-124087520D02*
X173115367Y-124053848D01*
X178184649Y-122681725D02*
X178588710Y-122277664D01*
X178386680Y-122479694D02*
X177679573Y-121772588D01*
X177679573Y-121772588D02*
X177847932Y-121806259D01*
X177847932Y-121806259D02*
X177982619Y-121806259D01*
X177982619Y-121806259D02*
X178083634Y-121772588D01*
X140407819Y-108140833D02*
X139931628Y-107807500D01*
X140407819Y-107569405D02*
X139407819Y-107569405D01*
X139407819Y-107569405D02*
X139407819Y-107950357D01*
X139407819Y-107950357D02*
X139455438Y-108045595D01*
X139455438Y-108045595D02*
X139503057Y-108093214D01*
X139503057Y-108093214D02*
X139598295Y-108140833D01*
X139598295Y-108140833D02*
X139741152Y-108140833D01*
X139741152Y-108140833D02*
X139836390Y-108093214D01*
X139836390Y-108093214D02*
X139884009Y-108045595D01*
X139884009Y-108045595D02*
X139931628Y-107950357D01*
X139931628Y-107950357D02*
X139931628Y-107569405D01*
X139407819Y-108474167D02*
X139407819Y-109140833D01*
X139407819Y-109140833D02*
X140407819Y-108712262D01*
D11*
X160192904Y-116138476D02*
X159176904Y-115799809D01*
X159176904Y-115799809D02*
X160192904Y-115461142D01*
X159176904Y-114541904D02*
X159660713Y-114880571D01*
X159176904Y-115122476D02*
X160192904Y-115122476D01*
X160192904Y-115122476D02*
X160192904Y-114735428D01*
X160192904Y-114735428D02*
X160144523Y-114638666D01*
X160144523Y-114638666D02*
X160096142Y-114590285D01*
X160096142Y-114590285D02*
X159999380Y-114541904D01*
X159999380Y-114541904D02*
X159854237Y-114541904D01*
X159854237Y-114541904D02*
X159757475Y-114590285D01*
X159757475Y-114590285D02*
X159709094Y-114638666D01*
X159709094Y-114638666D02*
X159660713Y-114735428D01*
X159660713Y-114735428D02*
X159660713Y-115122476D01*
X160096142Y-114154857D02*
X160144523Y-114106476D01*
X160144523Y-114106476D02*
X160192904Y-114009714D01*
X160192904Y-114009714D02*
X160192904Y-113767809D01*
X160192904Y-113767809D02*
X160144523Y-113671047D01*
X160144523Y-113671047D02*
X160096142Y-113622666D01*
X160096142Y-113622666D02*
X159999380Y-113574285D01*
X159999380Y-113574285D02*
X159902618Y-113574285D01*
X159902618Y-113574285D02*
X159757475Y-113622666D01*
X159757475Y-113622666D02*
X159176904Y-114203238D01*
X159176904Y-114203238D02*
X159176904Y-113574285D01*
X152133905Y-112265523D02*
X152037143Y-112313904D01*
X152037143Y-112313904D02*
X151892000Y-112313904D01*
X151892000Y-112313904D02*
X151746857Y-112265523D01*
X151746857Y-112265523D02*
X151650095Y-112168761D01*
X151650095Y-112168761D02*
X151601714Y-112071999D01*
X151601714Y-112071999D02*
X151553333Y-111878475D01*
X151553333Y-111878475D02*
X151553333Y-111733332D01*
X151553333Y-111733332D02*
X151601714Y-111539808D01*
X151601714Y-111539808D02*
X151650095Y-111443046D01*
X151650095Y-111443046D02*
X151746857Y-111346285D01*
X151746857Y-111346285D02*
X151892000Y-111297904D01*
X151892000Y-111297904D02*
X151988762Y-111297904D01*
X151988762Y-111297904D02*
X152133905Y-111346285D01*
X152133905Y-111346285D02*
X152182286Y-111394665D01*
X152182286Y-111394665D02*
X152182286Y-111733332D01*
X152182286Y-111733332D02*
X151988762Y-111733332D01*
X152617714Y-111297904D02*
X152617714Y-112313904D01*
X152617714Y-112313904D02*
X153198286Y-111297904D01*
X153198286Y-111297904D02*
X153198286Y-112313904D01*
X153682095Y-111297904D02*
X153682095Y-112313904D01*
X153682095Y-112313904D02*
X153924000Y-112313904D01*
X153924000Y-112313904D02*
X154069143Y-112265523D01*
X154069143Y-112265523D02*
X154165905Y-112168761D01*
X154165905Y-112168761D02*
X154214286Y-112071999D01*
X154214286Y-112071999D02*
X154262667Y-111878475D01*
X154262667Y-111878475D02*
X154262667Y-111733332D01*
X154262667Y-111733332D02*
X154214286Y-111539808D01*
X154214286Y-111539808D02*
X154165905Y-111443046D01*
X154165905Y-111443046D02*
X154069143Y-111346285D01*
X154069143Y-111346285D02*
X153924000Y-111297904D01*
X153924000Y-111297904D02*
X153682095Y-111297904D01*
X143707024Y-104693904D02*
X144045691Y-103677904D01*
X144045691Y-103677904D02*
X144384358Y-104693904D01*
X144916548Y-104693904D02*
X145110072Y-104693904D01*
X145110072Y-104693904D02*
X145206834Y-104645523D01*
X145206834Y-104645523D02*
X145303596Y-104548761D01*
X145303596Y-104548761D02*
X145351977Y-104355237D01*
X145351977Y-104355237D02*
X145351977Y-104016570D01*
X145351977Y-104016570D02*
X145303596Y-103823046D01*
X145303596Y-103823046D02*
X145206834Y-103726285D01*
X145206834Y-103726285D02*
X145110072Y-103677904D01*
X145110072Y-103677904D02*
X144916548Y-103677904D01*
X144916548Y-103677904D02*
X144819786Y-103726285D01*
X144819786Y-103726285D02*
X144723024Y-103823046D01*
X144723024Y-103823046D02*
X144674643Y-104016570D01*
X144674643Y-104016570D02*
X144674643Y-104355237D01*
X144674643Y-104355237D02*
X144723024Y-104548761D01*
X144723024Y-104548761D02*
X144819786Y-104645523D01*
X144819786Y-104645523D02*
X144916548Y-104693904D01*
X145787405Y-104693904D02*
X145787405Y-103871427D01*
X145787405Y-103871427D02*
X145835786Y-103774665D01*
X145835786Y-103774665D02*
X145884167Y-103726285D01*
X145884167Y-103726285D02*
X145980929Y-103677904D01*
X145980929Y-103677904D02*
X146174453Y-103677904D01*
X146174453Y-103677904D02*
X146271215Y-103726285D01*
X146271215Y-103726285D02*
X146319596Y-103774665D01*
X146319596Y-103774665D02*
X146367977Y-103871427D01*
X146367977Y-103871427D02*
X146367977Y-104693904D01*
X146706643Y-104693904D02*
X147287215Y-104693904D01*
X146996929Y-103677904D02*
X146996929Y-104693904D01*
X143852167Y-111830094D02*
X144190834Y-111830094D01*
X144335977Y-111297904D02*
X143852167Y-111297904D01*
X143852167Y-111297904D02*
X143852167Y-112313904D01*
X143852167Y-112313904D02*
X144335977Y-112313904D01*
X144771405Y-111297904D02*
X144771405Y-112313904D01*
X144771405Y-112313904D02*
X145351977Y-111297904D01*
X145351977Y-111297904D02*
X145351977Y-112313904D01*
X144384358Y-107185523D02*
X144287596Y-107233904D01*
X144287596Y-107233904D02*
X144142453Y-107233904D01*
X144142453Y-107233904D02*
X143997310Y-107185523D01*
X143997310Y-107185523D02*
X143900548Y-107088761D01*
X143900548Y-107088761D02*
X143852167Y-106991999D01*
X143852167Y-106991999D02*
X143803786Y-106798475D01*
X143803786Y-106798475D02*
X143803786Y-106653332D01*
X143803786Y-106653332D02*
X143852167Y-106459808D01*
X143852167Y-106459808D02*
X143900548Y-106363046D01*
X143900548Y-106363046D02*
X143997310Y-106266285D01*
X143997310Y-106266285D02*
X144142453Y-106217904D01*
X144142453Y-106217904D02*
X144239215Y-106217904D01*
X144239215Y-106217904D02*
X144384358Y-106266285D01*
X144384358Y-106266285D02*
X144432739Y-106314665D01*
X144432739Y-106314665D02*
X144432739Y-106653332D01*
X144432739Y-106653332D02*
X144239215Y-106653332D01*
X144868167Y-106217904D02*
X144868167Y-107233904D01*
X144868167Y-107233904D02*
X145448739Y-106217904D01*
X145448739Y-106217904D02*
X145448739Y-107233904D01*
X145932548Y-106217904D02*
X145932548Y-107233904D01*
X145932548Y-107233904D02*
X146174453Y-107233904D01*
X146174453Y-107233904D02*
X146319596Y-107185523D01*
X146319596Y-107185523D02*
X146416358Y-107088761D01*
X146416358Y-107088761D02*
X146464739Y-106991999D01*
X146464739Y-106991999D02*
X146513120Y-106798475D01*
X146513120Y-106798475D02*
X146513120Y-106653332D01*
X146513120Y-106653332D02*
X146464739Y-106459808D01*
X146464739Y-106459808D02*
X146416358Y-106363046D01*
X146416358Y-106363046D02*
X146319596Y-106266285D01*
X146319596Y-106266285D02*
X146174453Y-106217904D01*
X146174453Y-106217904D02*
X145932548Y-106217904D01*
X143707024Y-109773904D02*
X144045691Y-108757904D01*
X144045691Y-108757904D02*
X144384358Y-109773904D01*
X144723024Y-108757904D02*
X144723024Y-109773904D01*
X145206834Y-108757904D02*
X145206834Y-109773904D01*
X145206834Y-109773904D02*
X145787406Y-108757904D01*
X145787406Y-108757904D02*
X145787406Y-109773904D01*
X143852167Y-113837904D02*
X143852167Y-114853904D01*
X143852167Y-114853904D02*
X144239215Y-114853904D01*
X144239215Y-114853904D02*
X144335977Y-114805523D01*
X144335977Y-114805523D02*
X144384358Y-114757142D01*
X144384358Y-114757142D02*
X144432739Y-114660380D01*
X144432739Y-114660380D02*
X144432739Y-114515237D01*
X144432739Y-114515237D02*
X144384358Y-114418475D01*
X144384358Y-114418475D02*
X144335977Y-114370094D01*
X144335977Y-114370094D02*
X144239215Y-114321713D01*
X144239215Y-114321713D02*
X143852167Y-114321713D01*
X145400358Y-114805523D02*
X145303596Y-114853904D01*
X145303596Y-114853904D02*
X145158453Y-114853904D01*
X145158453Y-114853904D02*
X145013310Y-114805523D01*
X145013310Y-114805523D02*
X144916548Y-114708761D01*
X144916548Y-114708761D02*
X144868167Y-114611999D01*
X144868167Y-114611999D02*
X144819786Y-114418475D01*
X144819786Y-114418475D02*
X144819786Y-114273332D01*
X144819786Y-114273332D02*
X144868167Y-114079808D01*
X144868167Y-114079808D02*
X144916548Y-113983046D01*
X144916548Y-113983046D02*
X145013310Y-113886285D01*
X145013310Y-113886285D02*
X145158453Y-113837904D01*
X145158453Y-113837904D02*
X145255215Y-113837904D01*
X145255215Y-113837904D02*
X145400358Y-113886285D01*
X145400358Y-113886285D02*
X145448739Y-113934665D01*
X145448739Y-113934665D02*
X145448739Y-114273332D01*
X145448739Y-114273332D02*
X145255215Y-114273332D01*
D10*
X116476819Y-99083905D02*
X115476819Y-99083905D01*
X115476819Y-99083905D02*
X115476819Y-99322000D01*
X115476819Y-99322000D02*
X115524438Y-99464857D01*
X115524438Y-99464857D02*
X115619676Y-99560095D01*
X115619676Y-99560095D02*
X115714914Y-99607714D01*
X115714914Y-99607714D02*
X115905390Y-99655333D01*
X115905390Y-99655333D02*
X116048247Y-99655333D01*
X116048247Y-99655333D02*
X116238723Y-99607714D01*
X116238723Y-99607714D02*
X116333961Y-99560095D01*
X116333961Y-99560095D02*
X116429200Y-99464857D01*
X116429200Y-99464857D02*
X116476819Y-99322000D01*
X116476819Y-99322000D02*
X116476819Y-99083905D01*
X115476819Y-100560095D02*
X115476819Y-100083905D01*
X115476819Y-100083905D02*
X115953009Y-100036286D01*
X115953009Y-100036286D02*
X115905390Y-100083905D01*
X115905390Y-100083905D02*
X115857771Y-100179143D01*
X115857771Y-100179143D02*
X115857771Y-100417238D01*
X115857771Y-100417238D02*
X115905390Y-100512476D01*
X115905390Y-100512476D02*
X115953009Y-100560095D01*
X115953009Y-100560095D02*
X116048247Y-100607714D01*
X116048247Y-100607714D02*
X116286342Y-100607714D01*
X116286342Y-100607714D02*
X116381580Y-100560095D01*
X116381580Y-100560095D02*
X116429200Y-100512476D01*
X116429200Y-100512476D02*
X116476819Y-100417238D01*
X116476819Y-100417238D02*
X116476819Y-100179143D01*
X116476819Y-100179143D02*
X116429200Y-100083905D01*
X116429200Y-100083905D02*
X116381580Y-100036286D01*
X114576819Y-104257714D02*
X114576819Y-103686286D01*
X114576819Y-103972000D02*
X113576819Y-103972000D01*
X113576819Y-103972000D02*
X113719676Y-103876762D01*
X113719676Y-103876762D02*
X113814914Y-103781524D01*
X113814914Y-103781524D02*
X113862533Y-103686286D01*
X121009580Y-110355142D02*
X121057200Y-110307523D01*
X121057200Y-110307523D02*
X121104819Y-110164666D01*
X121104819Y-110164666D02*
X121104819Y-110069428D01*
X121104819Y-110069428D02*
X121057200Y-109926571D01*
X121057200Y-109926571D02*
X120961961Y-109831333D01*
X120961961Y-109831333D02*
X120866723Y-109783714D01*
X120866723Y-109783714D02*
X120676247Y-109736095D01*
X120676247Y-109736095D02*
X120533390Y-109736095D01*
X120533390Y-109736095D02*
X120342914Y-109783714D01*
X120342914Y-109783714D02*
X120247676Y-109831333D01*
X120247676Y-109831333D02*
X120152438Y-109926571D01*
X120152438Y-109926571D02*
X120104819Y-110069428D01*
X120104819Y-110069428D02*
X120104819Y-110164666D01*
X120104819Y-110164666D02*
X120152438Y-110307523D01*
X120152438Y-110307523D02*
X120200057Y-110355142D01*
X121104819Y-111307523D02*
X121104819Y-110736095D01*
X121104819Y-111021809D02*
X120104819Y-111021809D01*
X120104819Y-111021809D02*
X120247676Y-110926571D01*
X120247676Y-110926571D02*
X120342914Y-110831333D01*
X120342914Y-110831333D02*
X120390533Y-110736095D01*
X120438152Y-112164666D02*
X121104819Y-112164666D01*
X120057200Y-111926571D02*
X120771485Y-111688476D01*
X120771485Y-111688476D02*
X120771485Y-112307523D01*
D12*
X160562580Y-92114523D02*
X159562580Y-91781190D01*
X159562580Y-91781190D02*
X160562580Y-91447857D01*
X159562580Y-90543095D02*
X160038771Y-90876428D01*
X159562580Y-91114523D02*
X160562580Y-91114523D01*
X160562580Y-91114523D02*
X160562580Y-90733571D01*
X160562580Y-90733571D02*
X160514961Y-90638333D01*
X160514961Y-90638333D02*
X160467342Y-90590714D01*
X160467342Y-90590714D02*
X160372104Y-90543095D01*
X160372104Y-90543095D02*
X160229247Y-90543095D01*
X160229247Y-90543095D02*
X160134009Y-90590714D01*
X160134009Y-90590714D02*
X160086390Y-90638333D01*
X160086390Y-90638333D02*
X160038771Y-90733571D01*
X160038771Y-90733571D02*
X160038771Y-91114523D01*
X159562580Y-89590714D02*
X159562580Y-90162142D01*
X159562580Y-89876428D02*
X160562580Y-89876428D01*
X160562580Y-89876428D02*
X160419723Y-89971666D01*
X160419723Y-89971666D02*
X160324485Y-90066904D01*
X160324485Y-90066904D02*
X160276866Y-90162142D01*
D11*
X144384358Y-88770523D02*
X144287596Y-88818904D01*
X144287596Y-88818904D02*
X144142453Y-88818904D01*
X144142453Y-88818904D02*
X143997310Y-88770523D01*
X143997310Y-88770523D02*
X143900548Y-88673761D01*
X143900548Y-88673761D02*
X143852167Y-88576999D01*
X143852167Y-88576999D02*
X143803786Y-88383475D01*
X143803786Y-88383475D02*
X143803786Y-88238332D01*
X143803786Y-88238332D02*
X143852167Y-88044808D01*
X143852167Y-88044808D02*
X143900548Y-87948046D01*
X143900548Y-87948046D02*
X143997310Y-87851285D01*
X143997310Y-87851285D02*
X144142453Y-87802904D01*
X144142453Y-87802904D02*
X144239215Y-87802904D01*
X144239215Y-87802904D02*
X144384358Y-87851285D01*
X144384358Y-87851285D02*
X144432739Y-87899665D01*
X144432739Y-87899665D02*
X144432739Y-88238332D01*
X144432739Y-88238332D02*
X144239215Y-88238332D01*
X144868167Y-87802904D02*
X144868167Y-88818904D01*
X144868167Y-88818904D02*
X145448739Y-87802904D01*
X145448739Y-87802904D02*
X145448739Y-88818904D01*
X145932548Y-87802904D02*
X145932548Y-88818904D01*
X145932548Y-88818904D02*
X146174453Y-88818904D01*
X146174453Y-88818904D02*
X146319596Y-88770523D01*
X146319596Y-88770523D02*
X146416358Y-88673761D01*
X146416358Y-88673761D02*
X146464739Y-88576999D01*
X146464739Y-88576999D02*
X146513120Y-88383475D01*
X146513120Y-88383475D02*
X146513120Y-88238332D01*
X146513120Y-88238332D02*
X146464739Y-88044808D01*
X146464739Y-88044808D02*
X146416358Y-87948046D01*
X146416358Y-87948046D02*
X146319596Y-87851285D01*
X146319596Y-87851285D02*
X146174453Y-87802904D01*
X146174453Y-87802904D02*
X145932548Y-87802904D01*
X143707024Y-86278904D02*
X144045691Y-85262904D01*
X144045691Y-85262904D02*
X144384358Y-86278904D01*
X144916548Y-86278904D02*
X145110072Y-86278904D01*
X145110072Y-86278904D02*
X145206834Y-86230523D01*
X145206834Y-86230523D02*
X145303596Y-86133761D01*
X145303596Y-86133761D02*
X145351977Y-85940237D01*
X145351977Y-85940237D02*
X145351977Y-85601570D01*
X145351977Y-85601570D02*
X145303596Y-85408046D01*
X145303596Y-85408046D02*
X145206834Y-85311285D01*
X145206834Y-85311285D02*
X145110072Y-85262904D01*
X145110072Y-85262904D02*
X144916548Y-85262904D01*
X144916548Y-85262904D02*
X144819786Y-85311285D01*
X144819786Y-85311285D02*
X144723024Y-85408046D01*
X144723024Y-85408046D02*
X144674643Y-85601570D01*
X144674643Y-85601570D02*
X144674643Y-85940237D01*
X144674643Y-85940237D02*
X144723024Y-86133761D01*
X144723024Y-86133761D02*
X144819786Y-86230523D01*
X144819786Y-86230523D02*
X144916548Y-86278904D01*
X145787405Y-86278904D02*
X145787405Y-85456427D01*
X145787405Y-85456427D02*
X145835786Y-85359665D01*
X145835786Y-85359665D02*
X145884167Y-85311285D01*
X145884167Y-85311285D02*
X145980929Y-85262904D01*
X145980929Y-85262904D02*
X146174453Y-85262904D01*
X146174453Y-85262904D02*
X146271215Y-85311285D01*
X146271215Y-85311285D02*
X146319596Y-85359665D01*
X146319596Y-85359665D02*
X146367977Y-85456427D01*
X146367977Y-85456427D02*
X146367977Y-86278904D01*
X146706643Y-86278904D02*
X147287215Y-86278904D01*
X146996929Y-85262904D02*
X146996929Y-86278904D01*
X143852167Y-95422904D02*
X143852167Y-96438904D01*
X143852167Y-96438904D02*
X144239215Y-96438904D01*
X144239215Y-96438904D02*
X144335977Y-96390523D01*
X144335977Y-96390523D02*
X144384358Y-96342142D01*
X144384358Y-96342142D02*
X144432739Y-96245380D01*
X144432739Y-96245380D02*
X144432739Y-96100237D01*
X144432739Y-96100237D02*
X144384358Y-96003475D01*
X144384358Y-96003475D02*
X144335977Y-95955094D01*
X144335977Y-95955094D02*
X144239215Y-95906713D01*
X144239215Y-95906713D02*
X143852167Y-95906713D01*
X145400358Y-96390523D02*
X145303596Y-96438904D01*
X145303596Y-96438904D02*
X145158453Y-96438904D01*
X145158453Y-96438904D02*
X145013310Y-96390523D01*
X145013310Y-96390523D02*
X144916548Y-96293761D01*
X144916548Y-96293761D02*
X144868167Y-96196999D01*
X144868167Y-96196999D02*
X144819786Y-96003475D01*
X144819786Y-96003475D02*
X144819786Y-95858332D01*
X144819786Y-95858332D02*
X144868167Y-95664808D01*
X144868167Y-95664808D02*
X144916548Y-95568046D01*
X144916548Y-95568046D02*
X145013310Y-95471285D01*
X145013310Y-95471285D02*
X145158453Y-95422904D01*
X145158453Y-95422904D02*
X145255215Y-95422904D01*
X145255215Y-95422904D02*
X145400358Y-95471285D01*
X145400358Y-95471285D02*
X145448739Y-95519665D01*
X145448739Y-95519665D02*
X145448739Y-95858332D01*
X145448739Y-95858332D02*
X145255215Y-95858332D01*
X143707024Y-91358904D02*
X144045691Y-90342904D01*
X144045691Y-90342904D02*
X144384358Y-91358904D01*
X144723024Y-90342904D02*
X144723024Y-91358904D01*
X145206834Y-90342904D02*
X145206834Y-91358904D01*
X145206834Y-91358904D02*
X145787406Y-90342904D01*
X145787406Y-90342904D02*
X145787406Y-91358904D01*
X143803786Y-92931285D02*
X143948929Y-92882904D01*
X143948929Y-92882904D02*
X144190834Y-92882904D01*
X144190834Y-92882904D02*
X144287596Y-92931285D01*
X144287596Y-92931285D02*
X144335977Y-92979665D01*
X144335977Y-92979665D02*
X144384358Y-93076427D01*
X144384358Y-93076427D02*
X144384358Y-93173189D01*
X144384358Y-93173189D02*
X144335977Y-93269951D01*
X144335977Y-93269951D02*
X144287596Y-93318332D01*
X144287596Y-93318332D02*
X144190834Y-93366713D01*
X144190834Y-93366713D02*
X143997310Y-93415094D01*
X143997310Y-93415094D02*
X143900548Y-93463475D01*
X143900548Y-93463475D02*
X143852167Y-93511856D01*
X143852167Y-93511856D02*
X143803786Y-93608618D01*
X143803786Y-93608618D02*
X143803786Y-93705380D01*
X143803786Y-93705380D02*
X143852167Y-93802142D01*
X143852167Y-93802142D02*
X143900548Y-93850523D01*
X143900548Y-93850523D02*
X143997310Y-93898904D01*
X143997310Y-93898904D02*
X144239215Y-93898904D01*
X144239215Y-93898904D02*
X144384358Y-93850523D01*
X144819786Y-92882904D02*
X144819786Y-93898904D01*
X144819786Y-93415094D02*
X145400358Y-93415094D01*
X145400358Y-92882904D02*
X145400358Y-93898904D01*
X145884167Y-92882904D02*
X145884167Y-93898904D01*
X145884167Y-93898904D02*
X146126072Y-93898904D01*
X146126072Y-93898904D02*
X146271215Y-93850523D01*
X146271215Y-93850523D02*
X146367977Y-93753761D01*
X146367977Y-93753761D02*
X146416358Y-93656999D01*
X146416358Y-93656999D02*
X146464739Y-93463475D01*
X146464739Y-93463475D02*
X146464739Y-93318332D01*
X146464739Y-93318332D02*
X146416358Y-93124808D01*
X146416358Y-93124808D02*
X146367977Y-93028046D01*
X146367977Y-93028046D02*
X146271215Y-92931285D01*
X146271215Y-92931285D02*
X146126072Y-92882904D01*
X146126072Y-92882904D02*
X145884167Y-92882904D01*
X146900167Y-92882904D02*
X146900167Y-93898904D01*
X146900167Y-93898904D02*
X147480739Y-92882904D01*
X147480739Y-92882904D02*
X147480739Y-93898904D01*
X143711863Y-94180965D02*
X147621044Y-94180965D01*
D10*
X150598094Y-66438819D02*
X150598094Y-65438819D01*
X150598094Y-65438819D02*
X150359999Y-65438819D01*
X150359999Y-65438819D02*
X150217142Y-65486438D01*
X150217142Y-65486438D02*
X150121904Y-65581676D01*
X150121904Y-65581676D02*
X150074285Y-65676914D01*
X150074285Y-65676914D02*
X150026666Y-65867390D01*
X150026666Y-65867390D02*
X150026666Y-66010247D01*
X150026666Y-66010247D02*
X150074285Y-66200723D01*
X150074285Y-66200723D02*
X150121904Y-66295961D01*
X150121904Y-66295961D02*
X150217142Y-66391200D01*
X150217142Y-66391200D02*
X150359999Y-66438819D01*
X150359999Y-66438819D02*
X150598094Y-66438819D01*
X149074285Y-66438819D02*
X149645713Y-66438819D01*
X149359999Y-66438819D02*
X149359999Y-65438819D01*
X149359999Y-65438819D02*
X149455237Y-65581676D01*
X149455237Y-65581676D02*
X149550475Y-65676914D01*
X149550475Y-65676914D02*
X149645713Y-65724533D01*
X145424285Y-64538819D02*
X145995713Y-64538819D01*
X145709999Y-64538819D02*
X145709999Y-63538819D01*
X145709999Y-63538819D02*
X145805237Y-63681676D01*
X145805237Y-63681676D02*
X145900475Y-63776914D01*
X145900475Y-63776914D02*
X145995713Y-63824533D01*
X125513904Y-94926819D02*
X125513904Y-95736342D01*
X125513904Y-95736342D02*
X125466285Y-95831580D01*
X125466285Y-95831580D02*
X125418666Y-95879200D01*
X125418666Y-95879200D02*
X125323428Y-95926819D01*
X125323428Y-95926819D02*
X125132952Y-95926819D01*
X125132952Y-95926819D02*
X125037714Y-95879200D01*
X125037714Y-95879200D02*
X124990095Y-95831580D01*
X124990095Y-95831580D02*
X124942476Y-95736342D01*
X124942476Y-95736342D02*
X124942476Y-94926819D01*
X124561523Y-94926819D02*
X123942476Y-94926819D01*
X123942476Y-94926819D02*
X124275809Y-95307771D01*
X124275809Y-95307771D02*
X124132952Y-95307771D01*
X124132952Y-95307771D02*
X124037714Y-95355390D01*
X124037714Y-95355390D02*
X123990095Y-95403009D01*
X123990095Y-95403009D02*
X123942476Y-95498247D01*
X123942476Y-95498247D02*
X123942476Y-95736342D01*
X123942476Y-95736342D02*
X123990095Y-95831580D01*
X123990095Y-95831580D02*
X124037714Y-95879200D01*
X124037714Y-95879200D02*
X124132952Y-95926819D01*
X124132952Y-95926819D02*
X124418666Y-95926819D01*
X124418666Y-95926819D02*
X124513904Y-95879200D01*
X124513904Y-95879200D02*
X124561523Y-95831580D01*
X184152819Y-98607714D02*
X183152819Y-98607714D01*
X183152819Y-98607714D02*
X183152819Y-98845809D01*
X183152819Y-98845809D02*
X183200438Y-98988666D01*
X183200438Y-98988666D02*
X183295676Y-99083904D01*
X183295676Y-99083904D02*
X183390914Y-99131523D01*
X183390914Y-99131523D02*
X183581390Y-99179142D01*
X183581390Y-99179142D02*
X183724247Y-99179142D01*
X183724247Y-99179142D02*
X183914723Y-99131523D01*
X183914723Y-99131523D02*
X184009961Y-99083904D01*
X184009961Y-99083904D02*
X184105200Y-98988666D01*
X184105200Y-98988666D02*
X184152819Y-98845809D01*
X184152819Y-98845809D02*
X184152819Y-98607714D01*
X184152819Y-100131523D02*
X184152819Y-99560095D01*
X184152819Y-99845809D02*
X183152819Y-99845809D01*
X183152819Y-99845809D02*
X183295676Y-99750571D01*
X183295676Y-99750571D02*
X183390914Y-99655333D01*
X183390914Y-99655333D02*
X183438533Y-99560095D01*
X183152819Y-100464857D02*
X183152819Y-101083904D01*
X183152819Y-101083904D02*
X183533771Y-100750571D01*
X183533771Y-100750571D02*
X183533771Y-100893428D01*
X183533771Y-100893428D02*
X183581390Y-100988666D01*
X183581390Y-100988666D02*
X183629009Y-101036285D01*
X183629009Y-101036285D02*
X183724247Y-101083904D01*
X183724247Y-101083904D02*
X183962342Y-101083904D01*
X183962342Y-101083904D02*
X184057580Y-101036285D01*
X184057580Y-101036285D02*
X184105200Y-100988666D01*
X184105200Y-100988666D02*
X184152819Y-100893428D01*
X184152819Y-100893428D02*
X184152819Y-100607714D01*
X184152819Y-100607714D02*
X184105200Y-100512476D01*
X184105200Y-100512476D02*
X184057580Y-100464857D01*
X186052819Y-95957714D02*
X186052819Y-95386286D01*
X186052819Y-95672000D02*
X185052819Y-95672000D01*
X185052819Y-95672000D02*
X185195676Y-95576762D01*
X185195676Y-95576762D02*
X185290914Y-95481524D01*
X185290914Y-95481524D02*
X185338533Y-95386286D01*
X125073580Y-88538207D02*
X125121200Y-88490588D01*
X125121200Y-88490588D02*
X125168819Y-88347731D01*
X125168819Y-88347731D02*
X125168819Y-88252493D01*
X125168819Y-88252493D02*
X125121200Y-88109636D01*
X125121200Y-88109636D02*
X125025961Y-88014398D01*
X125025961Y-88014398D02*
X124930723Y-87966779D01*
X124930723Y-87966779D02*
X124740247Y-87919160D01*
X124740247Y-87919160D02*
X124597390Y-87919160D01*
X124597390Y-87919160D02*
X124406914Y-87966779D01*
X124406914Y-87966779D02*
X124311676Y-88014398D01*
X124311676Y-88014398D02*
X124216438Y-88109636D01*
X124216438Y-88109636D02*
X124168819Y-88252493D01*
X124168819Y-88252493D02*
X124168819Y-88347731D01*
X124168819Y-88347731D02*
X124216438Y-88490588D01*
X124216438Y-88490588D02*
X124264057Y-88538207D01*
X124168819Y-88871541D02*
X124168819Y-89490588D01*
X124168819Y-89490588D02*
X124549771Y-89157255D01*
X124549771Y-89157255D02*
X124549771Y-89300112D01*
X124549771Y-89300112D02*
X124597390Y-89395350D01*
X124597390Y-89395350D02*
X124645009Y-89442969D01*
X124645009Y-89442969D02*
X124740247Y-89490588D01*
X124740247Y-89490588D02*
X124978342Y-89490588D01*
X124978342Y-89490588D02*
X125073580Y-89442969D01*
X125073580Y-89442969D02*
X125121200Y-89395350D01*
X125121200Y-89395350D02*
X125168819Y-89300112D01*
X125168819Y-89300112D02*
X125168819Y-89014398D01*
X125168819Y-89014398D02*
X125121200Y-88919160D01*
X125121200Y-88919160D02*
X125073580Y-88871541D01*
D11*
X121269334Y-89314739D02*
X121317715Y-89266358D01*
X121317715Y-89266358D02*
X121366095Y-89121215D01*
X121366095Y-89121215D02*
X121366095Y-89024453D01*
X121366095Y-89024453D02*
X121317715Y-88879310D01*
X121317715Y-88879310D02*
X121220953Y-88782548D01*
X121220953Y-88782548D02*
X121124191Y-88734167D01*
X121124191Y-88734167D02*
X120930667Y-88685786D01*
X120930667Y-88685786D02*
X120785524Y-88685786D01*
X120785524Y-88685786D02*
X120592000Y-88734167D01*
X120592000Y-88734167D02*
X120495238Y-88782548D01*
X120495238Y-88782548D02*
X120398476Y-88879310D01*
X120398476Y-88879310D02*
X120350095Y-89024453D01*
X120350095Y-89024453D02*
X120350095Y-89121215D01*
X120350095Y-89121215D02*
X120398476Y-89266358D01*
X120398476Y-89266358D02*
X120446857Y-89314739D01*
X120688762Y-90185596D02*
X121366095Y-90185596D01*
X120301715Y-89943691D02*
X121027429Y-89701786D01*
X121027429Y-89701786D02*
X121027429Y-90330739D01*
D10*
X126626857Y-106531580D02*
X126674476Y-106579200D01*
X126674476Y-106579200D02*
X126817333Y-106626819D01*
X126817333Y-106626819D02*
X126912571Y-106626819D01*
X126912571Y-106626819D02*
X127055428Y-106579200D01*
X127055428Y-106579200D02*
X127150666Y-106483961D01*
X127150666Y-106483961D02*
X127198285Y-106388723D01*
X127198285Y-106388723D02*
X127245904Y-106198247D01*
X127245904Y-106198247D02*
X127245904Y-106055390D01*
X127245904Y-106055390D02*
X127198285Y-105864914D01*
X127198285Y-105864914D02*
X127150666Y-105769676D01*
X127150666Y-105769676D02*
X127055428Y-105674438D01*
X127055428Y-105674438D02*
X126912571Y-105626819D01*
X126912571Y-105626819D02*
X126817333Y-105626819D01*
X126817333Y-105626819D02*
X126674476Y-105674438D01*
X126674476Y-105674438D02*
X126626857Y-105722057D01*
X125674476Y-106626819D02*
X126245904Y-106626819D01*
X125960190Y-106626819D02*
X125960190Y-105626819D01*
X125960190Y-105626819D02*
X126055428Y-105769676D01*
X126055428Y-105769676D02*
X126150666Y-105864914D01*
X126150666Y-105864914D02*
X126245904Y-105912533D01*
X124722095Y-106626819D02*
X125293523Y-106626819D01*
X125007809Y-106626819D02*
X125007809Y-105626819D01*
X125007809Y-105626819D02*
X125103047Y-105769676D01*
X125103047Y-105769676D02*
X125198285Y-105864914D01*
X125198285Y-105864914D02*
X125293523Y-105912533D01*
X150598094Y-134114819D02*
X150598094Y-133114819D01*
X150598094Y-133114819D02*
X150359999Y-133114819D01*
X150359999Y-133114819D02*
X150217142Y-133162438D01*
X150217142Y-133162438D02*
X150121904Y-133257676D01*
X150121904Y-133257676D02*
X150074285Y-133352914D01*
X150074285Y-133352914D02*
X150026666Y-133543390D01*
X150026666Y-133543390D02*
X150026666Y-133686247D01*
X150026666Y-133686247D02*
X150074285Y-133876723D01*
X150074285Y-133876723D02*
X150121904Y-133971961D01*
X150121904Y-133971961D02*
X150217142Y-134067200D01*
X150217142Y-134067200D02*
X150359999Y-134114819D01*
X150359999Y-134114819D02*
X150598094Y-134114819D01*
X149550475Y-134114819D02*
X149359999Y-134114819D01*
X149359999Y-134114819D02*
X149264761Y-134067200D01*
X149264761Y-134067200D02*
X149217142Y-134019580D01*
X149217142Y-134019580D02*
X149121904Y-133876723D01*
X149121904Y-133876723D02*
X149074285Y-133686247D01*
X149074285Y-133686247D02*
X149074285Y-133305295D01*
X149074285Y-133305295D02*
X149121904Y-133210057D01*
X149121904Y-133210057D02*
X149169523Y-133162438D01*
X149169523Y-133162438D02*
X149264761Y-133114819D01*
X149264761Y-133114819D02*
X149455237Y-133114819D01*
X149455237Y-133114819D02*
X149550475Y-133162438D01*
X149550475Y-133162438D02*
X149598094Y-133210057D01*
X149598094Y-133210057D02*
X149645713Y-133305295D01*
X149645713Y-133305295D02*
X149645713Y-133543390D01*
X149645713Y-133543390D02*
X149598094Y-133638628D01*
X149598094Y-133638628D02*
X149550475Y-133686247D01*
X149550475Y-133686247D02*
X149455237Y-133733866D01*
X149455237Y-133733866D02*
X149264761Y-133733866D01*
X149264761Y-133733866D02*
X149169523Y-133686247D01*
X149169523Y-133686247D02*
X149121904Y-133638628D01*
X149121904Y-133638628D02*
X149074285Y-133543390D01*
X153724285Y-136014819D02*
X154295713Y-136014819D01*
X154009999Y-136014819D02*
X154009999Y-135014819D01*
X154009999Y-135014819D02*
X154105237Y-135157676D01*
X154105237Y-135157676D02*
X154200475Y-135252914D01*
X154200475Y-135252914D02*
X154295713Y-135300533D01*
D11*
X122636095Y-90330739D02*
X122152286Y-89992072D01*
X122636095Y-89750167D02*
X121620095Y-89750167D01*
X121620095Y-89750167D02*
X121620095Y-90137215D01*
X121620095Y-90137215D02*
X121668476Y-90233977D01*
X121668476Y-90233977D02*
X121716857Y-90282358D01*
X121716857Y-90282358D02*
X121813619Y-90330739D01*
X121813619Y-90330739D02*
X121958762Y-90330739D01*
X121958762Y-90330739D02*
X122055524Y-90282358D01*
X122055524Y-90282358D02*
X122103905Y-90233977D01*
X122103905Y-90233977D02*
X122152286Y-90137215D01*
X122152286Y-90137215D02*
X122152286Y-89750167D01*
X121620095Y-91249977D02*
X121620095Y-90766167D01*
X121620095Y-90766167D02*
X122103905Y-90717786D01*
X122103905Y-90717786D02*
X122055524Y-90766167D01*
X122055524Y-90766167D02*
X122007143Y-90862929D01*
X122007143Y-90862929D02*
X122007143Y-91104834D01*
X122007143Y-91104834D02*
X122055524Y-91201596D01*
X122055524Y-91201596D02*
X122103905Y-91249977D01*
X122103905Y-91249977D02*
X122200667Y-91298358D01*
X122200667Y-91298358D02*
X122442572Y-91298358D01*
X122442572Y-91298358D02*
X122539334Y-91249977D01*
X122539334Y-91249977D02*
X122587715Y-91201596D01*
X122587715Y-91201596D02*
X122636095Y-91104834D01*
X122636095Y-91104834D02*
X122636095Y-90862929D01*
X122636095Y-90862929D02*
X122587715Y-90766167D01*
X122587715Y-90766167D02*
X122539334Y-90717786D01*
D10*
X182007121Y-111823439D02*
X181083241Y-111440756D01*
X181083241Y-111440756D02*
X180992126Y-111660727D01*
X180992126Y-111660727D02*
X180981451Y-111810933D01*
X180981451Y-111810933D02*
X181032994Y-111935368D01*
X181032994Y-111935368D02*
X181102759Y-112015808D01*
X181102759Y-112015808D02*
X181260513Y-112132694D01*
X181260513Y-112132694D02*
X181392496Y-112187363D01*
X181392496Y-112187363D02*
X181586696Y-112216261D01*
X181586696Y-112216261D02*
X181692908Y-112208713D01*
X181692908Y-112208713D02*
X181817342Y-112157171D01*
X181817342Y-112157171D02*
X181916005Y-112043411D01*
X181916005Y-112043411D02*
X182007121Y-111823439D01*
X181423984Y-113231256D02*
X181642660Y-112703325D01*
X181533322Y-112967290D02*
X180609442Y-112584607D01*
X180609442Y-112584607D02*
X180777871Y-112551287D01*
X180777871Y-112551287D02*
X180902306Y-112499745D01*
X180902306Y-112499745D02*
X180982746Y-112429979D01*
X180442309Y-113236973D02*
X180380091Y-113262744D01*
X180380091Y-113262744D02*
X180299651Y-113332509D01*
X180299651Y-113332509D02*
X180208536Y-113552481D01*
X180208536Y-113552481D02*
X180216084Y-113658692D01*
X180216084Y-113658692D02*
X180241855Y-113720910D01*
X180241855Y-113720910D02*
X180311621Y-113801350D01*
X180311621Y-113801350D02*
X180399610Y-113837796D01*
X180399610Y-113837796D02*
X180549815Y-113848471D01*
X180549815Y-113848471D02*
X181296423Y-113539216D01*
X181296423Y-113539216D02*
X181059523Y-114111141D01*
X184776602Y-110102257D02*
X184995278Y-109574326D01*
X184885940Y-109838292D02*
X183962061Y-109455608D01*
X183962061Y-109455608D02*
X184130490Y-109422289D01*
X184130490Y-109422289D02*
X184254924Y-109370746D01*
X184254924Y-109370746D02*
X184335364Y-109300981D01*
X130915580Y-110355142D02*
X130963200Y-110307523D01*
X130963200Y-110307523D02*
X131010819Y-110164666D01*
X131010819Y-110164666D02*
X131010819Y-110069428D01*
X131010819Y-110069428D02*
X130963200Y-109926571D01*
X130963200Y-109926571D02*
X130867961Y-109831333D01*
X130867961Y-109831333D02*
X130772723Y-109783714D01*
X130772723Y-109783714D02*
X130582247Y-109736095D01*
X130582247Y-109736095D02*
X130439390Y-109736095D01*
X130439390Y-109736095D02*
X130248914Y-109783714D01*
X130248914Y-109783714D02*
X130153676Y-109831333D01*
X130153676Y-109831333D02*
X130058438Y-109926571D01*
X130058438Y-109926571D02*
X130010819Y-110069428D01*
X130010819Y-110069428D02*
X130010819Y-110164666D01*
X130010819Y-110164666D02*
X130058438Y-110307523D01*
X130058438Y-110307523D02*
X130106057Y-110355142D01*
X131010819Y-111307523D02*
X131010819Y-110736095D01*
X131010819Y-111021809D02*
X130010819Y-111021809D01*
X130010819Y-111021809D02*
X130153676Y-110926571D01*
X130153676Y-110926571D02*
X130248914Y-110831333D01*
X130248914Y-110831333D02*
X130296533Y-110736095D01*
X130010819Y-111640857D02*
X130010819Y-112259904D01*
X130010819Y-112259904D02*
X130391771Y-111926571D01*
X130391771Y-111926571D02*
X130391771Y-112069428D01*
X130391771Y-112069428D02*
X130439390Y-112164666D01*
X130439390Y-112164666D02*
X130487009Y-112212285D01*
X130487009Y-112212285D02*
X130582247Y-112259904D01*
X130582247Y-112259904D02*
X130820342Y-112259904D01*
X130820342Y-112259904D02*
X130915580Y-112212285D01*
X130915580Y-112212285D02*
X130963200Y-112164666D01*
X130963200Y-112164666D02*
X131010819Y-112069428D01*
X131010819Y-112069428D02*
X131010819Y-111783714D01*
X131010819Y-111783714D02*
X130963200Y-111688476D01*
X130963200Y-111688476D02*
X130915580Y-111640857D01*
X130976666Y-79322819D02*
X131309999Y-78846628D01*
X131548094Y-79322819D02*
X131548094Y-78322819D01*
X131548094Y-78322819D02*
X131167142Y-78322819D01*
X131167142Y-78322819D02*
X131071904Y-78370438D01*
X131071904Y-78370438D02*
X131024285Y-78418057D01*
X131024285Y-78418057D02*
X130976666Y-78513295D01*
X130976666Y-78513295D02*
X130976666Y-78656152D01*
X130976666Y-78656152D02*
X131024285Y-78751390D01*
X131024285Y-78751390D02*
X131071904Y-78799009D01*
X131071904Y-78799009D02*
X131167142Y-78846628D01*
X131167142Y-78846628D02*
X131548094Y-78846628D01*
X130595713Y-78418057D02*
X130548094Y-78370438D01*
X130548094Y-78370438D02*
X130452856Y-78322819D01*
X130452856Y-78322819D02*
X130214761Y-78322819D01*
X130214761Y-78322819D02*
X130119523Y-78370438D01*
X130119523Y-78370438D02*
X130071904Y-78418057D01*
X130071904Y-78418057D02*
X130024285Y-78513295D01*
X130024285Y-78513295D02*
X130024285Y-78608533D01*
X130024285Y-78608533D02*
X130071904Y-78751390D01*
X130071904Y-78751390D02*
X130643332Y-79322819D01*
X130643332Y-79322819D02*
X130024285Y-79322819D01*
D11*
X119999334Y-89314739D02*
X120047715Y-89266358D01*
X120047715Y-89266358D02*
X120096095Y-89121215D01*
X120096095Y-89121215D02*
X120096095Y-89024453D01*
X120096095Y-89024453D02*
X120047715Y-88879310D01*
X120047715Y-88879310D02*
X119950953Y-88782548D01*
X119950953Y-88782548D02*
X119854191Y-88734167D01*
X119854191Y-88734167D02*
X119660667Y-88685786D01*
X119660667Y-88685786D02*
X119515524Y-88685786D01*
X119515524Y-88685786D02*
X119322000Y-88734167D01*
X119322000Y-88734167D02*
X119225238Y-88782548D01*
X119225238Y-88782548D02*
X119128476Y-88879310D01*
X119128476Y-88879310D02*
X119080095Y-89024453D01*
X119080095Y-89024453D02*
X119080095Y-89121215D01*
X119080095Y-89121215D02*
X119128476Y-89266358D01*
X119128476Y-89266358D02*
X119176857Y-89314739D01*
X119080095Y-90233977D02*
X119080095Y-89750167D01*
X119080095Y-89750167D02*
X119563905Y-89701786D01*
X119563905Y-89701786D02*
X119515524Y-89750167D01*
X119515524Y-89750167D02*
X119467143Y-89846929D01*
X119467143Y-89846929D02*
X119467143Y-90088834D01*
X119467143Y-90088834D02*
X119515524Y-90185596D01*
X119515524Y-90185596D02*
X119563905Y-90233977D01*
X119563905Y-90233977D02*
X119660667Y-90282358D01*
X119660667Y-90282358D02*
X119902572Y-90282358D01*
X119902572Y-90282358D02*
X119999334Y-90233977D01*
X119999334Y-90233977D02*
X120047715Y-90185596D01*
X120047715Y-90185596D02*
X120096095Y-90088834D01*
X120096095Y-90088834D02*
X120096095Y-89846929D01*
X120096095Y-89846929D02*
X120047715Y-89750167D01*
X120047715Y-89750167D02*
X119999334Y-89701786D01*
D10*
X164105147Y-131039746D02*
X163722464Y-130115867D01*
X163722464Y-130115867D02*
X163502492Y-130206982D01*
X163502492Y-130206982D02*
X163388732Y-130305645D01*
X163388732Y-130305645D02*
X163337190Y-130430080D01*
X163337190Y-130430080D02*
X163329642Y-130536291D01*
X163329642Y-130536291D02*
X163358540Y-130730492D01*
X163358540Y-130730492D02*
X163413209Y-130862474D01*
X163413209Y-130862474D02*
X163530095Y-131020228D01*
X163530095Y-131020228D02*
X163610535Y-131089994D01*
X163610535Y-131089994D02*
X163734970Y-131141536D01*
X163734970Y-131141536D02*
X163885176Y-131130862D01*
X163885176Y-131130862D02*
X164105147Y-131039746D01*
X162697331Y-131622883D02*
X163225262Y-131404207D01*
X162961296Y-131513545D02*
X162578613Y-130589665D01*
X162578613Y-130589665D02*
X162721270Y-130685202D01*
X162721270Y-130685202D02*
X162845705Y-130736745D01*
X162845705Y-130736745D02*
X162951916Y-130744293D01*
X161742722Y-130935903D02*
X161654733Y-130972349D01*
X161654733Y-130972349D02*
X161584968Y-131052789D01*
X161584968Y-131052789D02*
X161559196Y-131115007D01*
X161559196Y-131115007D02*
X161551648Y-131221218D01*
X161551648Y-131221218D02*
X161580546Y-131415418D01*
X161580546Y-131415418D02*
X161671661Y-131635389D01*
X161671661Y-131635389D02*
X161788547Y-131793143D01*
X161788547Y-131793143D02*
X161868988Y-131862909D01*
X161868988Y-131862909D02*
X161931205Y-131888680D01*
X161931205Y-131888680D02*
X162037417Y-131896228D01*
X162037417Y-131896228D02*
X162125405Y-131859782D01*
X162125405Y-131859782D02*
X162195171Y-131779342D01*
X162195171Y-131779342D02*
X162220942Y-131717125D01*
X162220942Y-131717125D02*
X162228490Y-131610913D01*
X162228490Y-131610913D02*
X162199592Y-131416713D01*
X162199592Y-131416713D02*
X162108477Y-131196742D01*
X162108477Y-131196742D02*
X161991591Y-131038988D01*
X161991591Y-131038988D02*
X161911150Y-130969222D01*
X161911150Y-130969222D02*
X161848933Y-130943451D01*
X161848933Y-130943451D02*
X161742722Y-130935903D01*
X167280526Y-131781007D02*
X167808457Y-131562331D01*
X167544492Y-131671669D02*
X167161808Y-130747789D01*
X167161808Y-130747789D02*
X167304466Y-130843326D01*
X167304466Y-130843326D02*
X167428900Y-130894868D01*
X167428900Y-130894868D02*
X167535112Y-130902417D01*
X119300418Y-86364899D02*
X118376539Y-85982215D01*
X118376539Y-85982215D02*
X118285424Y-86202186D01*
X118285424Y-86202186D02*
X118274749Y-86352392D01*
X118274749Y-86352392D02*
X118326291Y-86476827D01*
X118326291Y-86476827D02*
X118396057Y-86557267D01*
X118396057Y-86557267D02*
X118553811Y-86674153D01*
X118553811Y-86674153D02*
X118685794Y-86728823D01*
X118685794Y-86728823D02*
X118879994Y-86757720D01*
X118879994Y-86757720D02*
X118986205Y-86750172D01*
X118986205Y-86750172D02*
X119110640Y-86698630D01*
X119110640Y-86698630D02*
X119209303Y-86584870D01*
X119209303Y-86584870D02*
X119300418Y-86364899D01*
X118137808Y-87429604D02*
X118753728Y-87684726D01*
X117876969Y-87063849D02*
X118627998Y-87117223D01*
X118627998Y-87117223D02*
X118391099Y-87689148D01*
X115565116Y-90417777D02*
X115783792Y-89889846D01*
X115674454Y-90153812D02*
X114750575Y-89771128D01*
X114750575Y-89771128D02*
X114919004Y-89737809D01*
X114919004Y-89737809D02*
X115043438Y-89686266D01*
X115043438Y-89686266D02*
X115123878Y-89616501D01*
D11*
X126349334Y-88552739D02*
X126397715Y-88504358D01*
X126397715Y-88504358D02*
X126446095Y-88359215D01*
X126446095Y-88359215D02*
X126446095Y-88262453D01*
X126446095Y-88262453D02*
X126397715Y-88117310D01*
X126397715Y-88117310D02*
X126300953Y-88020548D01*
X126300953Y-88020548D02*
X126204191Y-87972167D01*
X126204191Y-87972167D02*
X126010667Y-87923786D01*
X126010667Y-87923786D02*
X125865524Y-87923786D01*
X125865524Y-87923786D02*
X125672000Y-87972167D01*
X125672000Y-87972167D02*
X125575238Y-88020548D01*
X125575238Y-88020548D02*
X125478476Y-88117310D01*
X125478476Y-88117310D02*
X125430095Y-88262453D01*
X125430095Y-88262453D02*
X125430095Y-88359215D01*
X125430095Y-88359215D02*
X125478476Y-88504358D01*
X125478476Y-88504358D02*
X125526857Y-88552739D01*
X125526857Y-88939786D02*
X125478476Y-88988167D01*
X125478476Y-88988167D02*
X125430095Y-89084929D01*
X125430095Y-89084929D02*
X125430095Y-89326834D01*
X125430095Y-89326834D02*
X125478476Y-89423596D01*
X125478476Y-89423596D02*
X125526857Y-89471977D01*
X125526857Y-89471977D02*
X125623619Y-89520358D01*
X125623619Y-89520358D02*
X125720381Y-89520358D01*
X125720381Y-89520358D02*
X125865524Y-89471977D01*
X125865524Y-89471977D02*
X126446095Y-88891405D01*
X126446095Y-88891405D02*
X126446095Y-89520358D01*
D10*
X127674666Y-81608819D02*
X128007999Y-81132628D01*
X128246094Y-81608819D02*
X128246094Y-80608819D01*
X128246094Y-80608819D02*
X127865142Y-80608819D01*
X127865142Y-80608819D02*
X127769904Y-80656438D01*
X127769904Y-80656438D02*
X127722285Y-80704057D01*
X127722285Y-80704057D02*
X127674666Y-80799295D01*
X127674666Y-80799295D02*
X127674666Y-80942152D01*
X127674666Y-80942152D02*
X127722285Y-81037390D01*
X127722285Y-81037390D02*
X127769904Y-81085009D01*
X127769904Y-81085009D02*
X127865142Y-81132628D01*
X127865142Y-81132628D02*
X128246094Y-81132628D01*
X127341332Y-80608819D02*
X126722285Y-80608819D01*
X126722285Y-80608819D02*
X127055618Y-80989771D01*
X127055618Y-80989771D02*
X126912761Y-80989771D01*
X126912761Y-80989771D02*
X126817523Y-81037390D01*
X126817523Y-81037390D02*
X126769904Y-81085009D01*
X126769904Y-81085009D02*
X126722285Y-81180247D01*
X126722285Y-81180247D02*
X126722285Y-81418342D01*
X126722285Y-81418342D02*
X126769904Y-81513580D01*
X126769904Y-81513580D02*
X126817523Y-81561200D01*
X126817523Y-81561200D02*
X126912761Y-81608819D01*
X126912761Y-81608819D02*
X127198475Y-81608819D01*
X127198475Y-81608819D02*
X127293713Y-81561200D01*
X127293713Y-81561200D02*
X127341332Y-81513580D01*
X118460022Y-113627204D02*
X119383902Y-113244520D01*
X119383902Y-113244520D02*
X119292787Y-113024549D01*
X119292787Y-113024549D02*
X119194123Y-112910789D01*
X119194123Y-112910789D02*
X119069689Y-112859247D01*
X119069689Y-112859247D02*
X118963477Y-112851699D01*
X118963477Y-112851699D02*
X118769277Y-112880596D01*
X118769277Y-112880596D02*
X118637294Y-112935266D01*
X118637294Y-112935266D02*
X118479540Y-113052152D01*
X118479540Y-113052152D02*
X118409775Y-113132592D01*
X118409775Y-113132592D02*
X118358232Y-113257027D01*
X118358232Y-113257027D02*
X118368907Y-113407233D01*
X118368907Y-113407233D02*
X118460022Y-113627204D01*
X118837211Y-111924693D02*
X118910103Y-112100670D01*
X118910103Y-112100670D02*
X118902555Y-112206881D01*
X118902555Y-112206881D02*
X118876784Y-112269098D01*
X118876784Y-112269098D02*
X118781247Y-112411756D01*
X118781247Y-112411756D02*
X118623493Y-112528642D01*
X118623493Y-112528642D02*
X118271539Y-112674427D01*
X118271539Y-112674427D02*
X118165327Y-112666878D01*
X118165327Y-112666878D02*
X118103110Y-112641107D01*
X118103110Y-112641107D02*
X118022670Y-112571342D01*
X118022670Y-112571342D02*
X117949778Y-112395364D01*
X117949778Y-112395364D02*
X117957326Y-112289153D01*
X117957326Y-112289153D02*
X117983097Y-112226936D01*
X117983097Y-112226936D02*
X118052863Y-112146495D01*
X118052863Y-112146495D02*
X118272834Y-112055380D01*
X118272834Y-112055380D02*
X118379045Y-112062928D01*
X118379045Y-112062928D02*
X118441263Y-112088700D01*
X118441263Y-112088700D02*
X118521703Y-112158465D01*
X118521703Y-112158465D02*
X118594595Y-112334442D01*
X118594595Y-112334442D02*
X118587047Y-112440654D01*
X118587047Y-112440654D02*
X118561276Y-112502871D01*
X118561276Y-112502871D02*
X118491510Y-112583311D01*
X117900992Y-117242526D02*
X118119668Y-117770457D01*
X118010330Y-117506492D02*
X118934210Y-117123808D01*
X118934210Y-117123808D02*
X118838673Y-117266466D01*
X118838673Y-117266466D02*
X118787131Y-117390900D01*
X118787131Y-117390900D02*
X118779582Y-117497112D01*
X137418616Y-131786890D02*
X137801300Y-130863011D01*
X137801300Y-130863011D02*
X137581329Y-130771896D01*
X137581329Y-130771896D02*
X137431123Y-130761221D01*
X137431123Y-130761221D02*
X137306688Y-130812763D01*
X137306688Y-130812763D02*
X137226248Y-130882529D01*
X137226248Y-130882529D02*
X137109362Y-131040283D01*
X137109362Y-131040283D02*
X137054692Y-131172266D01*
X137054692Y-131172266D02*
X137025795Y-131366466D01*
X137025795Y-131366466D02*
X137033343Y-131472677D01*
X137033343Y-131472677D02*
X137084885Y-131597112D01*
X137084885Y-131597112D02*
X137198645Y-131695775D01*
X137198645Y-131695775D02*
X137418616Y-131786890D01*
X136581430Y-130821606D02*
X136687642Y-130814058D01*
X136687642Y-130814058D02*
X136749859Y-130788287D01*
X136749859Y-130788287D02*
X136830299Y-130718522D01*
X136830299Y-130718522D02*
X136848523Y-130674527D01*
X136848523Y-130674527D02*
X136840974Y-130568316D01*
X136840974Y-130568316D02*
X136815203Y-130506098D01*
X136815203Y-130506098D02*
X136745438Y-130425658D01*
X136745438Y-130425658D02*
X136569460Y-130352766D01*
X136569460Y-130352766D02*
X136463249Y-130360314D01*
X136463249Y-130360314D02*
X136401032Y-130386086D01*
X136401032Y-130386086D02*
X136320591Y-130455851D01*
X136320591Y-130455851D02*
X136302368Y-130499845D01*
X136302368Y-130499845D02*
X136309917Y-130606057D01*
X136309917Y-130606057D02*
X136335688Y-130668274D01*
X136335688Y-130668274D02*
X136405453Y-130748714D01*
X136405453Y-130748714D02*
X136581430Y-130821606D01*
X136581430Y-130821606D02*
X136651196Y-130902047D01*
X136651196Y-130902047D02*
X136676967Y-130964264D01*
X136676967Y-130964264D02*
X136684515Y-131070476D01*
X136684515Y-131070476D02*
X136611623Y-131246453D01*
X136611623Y-131246453D02*
X136531183Y-131316218D01*
X136531183Y-131316218D02*
X136468966Y-131341989D01*
X136468966Y-131341989D02*
X136362754Y-131349538D01*
X136362754Y-131349538D02*
X136186777Y-131276646D01*
X136186777Y-131276646D02*
X136117012Y-131196205D01*
X136117012Y-131196205D02*
X136091240Y-131133988D01*
X136091240Y-131133988D02*
X136083692Y-131027776D01*
X136083692Y-131027776D02*
X136156584Y-130851799D01*
X136156584Y-130851799D02*
X136237024Y-130782034D01*
X136237024Y-130782034D02*
X136299242Y-130756263D01*
X136299242Y-130756263D02*
X136405453Y-130748714D01*
X139579742Y-134738602D02*
X140107673Y-134957278D01*
X139843707Y-134847940D02*
X140226391Y-133924061D01*
X140226391Y-133924061D02*
X140259710Y-134092490D01*
X140259710Y-134092490D02*
X140311253Y-134216924D01*
X140311253Y-134216924D02*
X140381018Y-134297364D01*
X134786666Y-77416819D02*
X135119999Y-76940628D01*
X135358094Y-77416819D02*
X135358094Y-76416819D01*
X135358094Y-76416819D02*
X134977142Y-76416819D01*
X134977142Y-76416819D02*
X134881904Y-76464438D01*
X134881904Y-76464438D02*
X134834285Y-76512057D01*
X134834285Y-76512057D02*
X134786666Y-76607295D01*
X134786666Y-76607295D02*
X134786666Y-76750152D01*
X134786666Y-76750152D02*
X134834285Y-76845390D01*
X134834285Y-76845390D02*
X134881904Y-76893009D01*
X134881904Y-76893009D02*
X134977142Y-76940628D01*
X134977142Y-76940628D02*
X135358094Y-76940628D01*
X133834285Y-77416819D02*
X134405713Y-77416819D01*
X134119999Y-77416819D02*
X134119999Y-76416819D01*
X134119999Y-76416819D02*
X134215237Y-76559676D01*
X134215237Y-76559676D02*
X134310475Y-76654914D01*
X134310475Y-76654914D02*
X134405713Y-76702533D01*
X131738666Y-103246580D02*
X131786285Y-103294200D01*
X131786285Y-103294200D02*
X131929142Y-103341819D01*
X131929142Y-103341819D02*
X132024380Y-103341819D01*
X132024380Y-103341819D02*
X132167237Y-103294200D01*
X132167237Y-103294200D02*
X132262475Y-103198961D01*
X132262475Y-103198961D02*
X132310094Y-103103723D01*
X132310094Y-103103723D02*
X132357713Y-102913247D01*
X132357713Y-102913247D02*
X132357713Y-102770390D01*
X132357713Y-102770390D02*
X132310094Y-102579914D01*
X132310094Y-102579914D02*
X132262475Y-102484676D01*
X132262475Y-102484676D02*
X132167237Y-102389438D01*
X132167237Y-102389438D02*
X132024380Y-102341819D01*
X132024380Y-102341819D02*
X131929142Y-102341819D01*
X131929142Y-102341819D02*
X131786285Y-102389438D01*
X131786285Y-102389438D02*
X131738666Y-102437057D01*
X131262475Y-103341819D02*
X131071999Y-103341819D01*
X131071999Y-103341819D02*
X130976761Y-103294200D01*
X130976761Y-103294200D02*
X130929142Y-103246580D01*
X130929142Y-103246580D02*
X130833904Y-103103723D01*
X130833904Y-103103723D02*
X130786285Y-102913247D01*
X130786285Y-102913247D02*
X130786285Y-102532295D01*
X130786285Y-102532295D02*
X130833904Y-102437057D01*
X130833904Y-102437057D02*
X130881523Y-102389438D01*
X130881523Y-102389438D02*
X130976761Y-102341819D01*
X130976761Y-102341819D02*
X131167237Y-102341819D01*
X131167237Y-102341819D02*
X131262475Y-102389438D01*
X131262475Y-102389438D02*
X131310094Y-102437057D01*
X131310094Y-102437057D02*
X131357713Y-102532295D01*
X131357713Y-102532295D02*
X131357713Y-102770390D01*
X131357713Y-102770390D02*
X131310094Y-102865628D01*
X131310094Y-102865628D02*
X131262475Y-102913247D01*
X131262475Y-102913247D02*
X131167237Y-102960866D01*
X131167237Y-102960866D02*
X130976761Y-102960866D01*
X130976761Y-102960866D02*
X130881523Y-102913247D01*
X130881523Y-102913247D02*
X130833904Y-102865628D01*
X130833904Y-102865628D02*
X130786285Y-102770390D01*
X174324103Y-77075156D02*
X175031209Y-76368049D01*
X175031209Y-76368049D02*
X174862851Y-76199690D01*
X174862851Y-76199690D02*
X174728164Y-76132347D01*
X174728164Y-76132347D02*
X174593477Y-76132347D01*
X174593477Y-76132347D02*
X174492461Y-76166019D01*
X174492461Y-76166019D02*
X174324103Y-76267034D01*
X174324103Y-76267034D02*
X174223087Y-76368049D01*
X174223087Y-76368049D02*
X174122072Y-76536408D01*
X174122072Y-76536408D02*
X174088400Y-76637423D01*
X174088400Y-76637423D02*
X174088400Y-76772110D01*
X174088400Y-76772110D02*
X174155744Y-76906797D01*
X174155744Y-76906797D02*
X174324103Y-77075156D01*
X173246607Y-75997660D02*
X173650668Y-76401721D01*
X173448637Y-76199690D02*
X174155744Y-75492584D01*
X174155744Y-75492584D02*
X174122072Y-75660942D01*
X174122072Y-75660942D02*
X174122072Y-75795629D01*
X174122072Y-75795629D02*
X174155744Y-75896645D01*
X173313950Y-74650790D02*
X173650668Y-74987507D01*
X173650668Y-74987507D02*
X173347622Y-75357896D01*
X173347622Y-75357896D02*
X173347622Y-75290553D01*
X173347622Y-75290553D02*
X173313950Y-75189538D01*
X173313950Y-75189538D02*
X173145591Y-75021179D01*
X173145591Y-75021179D02*
X173044576Y-74987507D01*
X173044576Y-74987507D02*
X172977232Y-74987507D01*
X172977232Y-74987507D02*
X172876217Y-75021179D01*
X172876217Y-75021179D02*
X172707858Y-75189538D01*
X172707858Y-75189538D02*
X172674187Y-75290553D01*
X172674187Y-75290553D02*
X172674187Y-75357896D01*
X172674187Y-75357896D02*
X172707858Y-75458912D01*
X172707858Y-75458912D02*
X172876217Y-75627270D01*
X172876217Y-75627270D02*
X172977232Y-75660942D01*
X172977232Y-75660942D02*
X173044576Y-75660942D01*
X171672452Y-71736499D02*
X172076513Y-72140560D01*
X171874483Y-71938530D02*
X172581589Y-71231423D01*
X172581589Y-71231423D02*
X172547918Y-71399782D01*
X172547918Y-71399782D02*
X172547918Y-71534469D01*
X172547918Y-71534469D02*
X172581589Y-71635484D01*
D11*
X118533332Y-95020974D02*
X118581713Y-95069355D01*
X118581713Y-95069355D02*
X118726856Y-95117735D01*
X118726856Y-95117735D02*
X118823618Y-95117735D01*
X118823618Y-95117735D02*
X118968761Y-95069355D01*
X118968761Y-95069355D02*
X119065523Y-94972593D01*
X119065523Y-94972593D02*
X119113904Y-94875831D01*
X119113904Y-94875831D02*
X119162285Y-94682307D01*
X119162285Y-94682307D02*
X119162285Y-94537164D01*
X119162285Y-94537164D02*
X119113904Y-94343640D01*
X119113904Y-94343640D02*
X119065523Y-94246878D01*
X119065523Y-94246878D02*
X118968761Y-94150116D01*
X118968761Y-94150116D02*
X118823618Y-94101735D01*
X118823618Y-94101735D02*
X118726856Y-94101735D01*
X118726856Y-94101735D02*
X118581713Y-94150116D01*
X118581713Y-94150116D02*
X118533332Y-94198497D01*
X118194666Y-94101735D02*
X117517332Y-94101735D01*
X117517332Y-94101735D02*
X117952761Y-95117735D01*
D10*
X133603904Y-83486819D02*
X133603904Y-84296342D01*
X133603904Y-84296342D02*
X133556285Y-84391580D01*
X133556285Y-84391580D02*
X133508666Y-84439200D01*
X133508666Y-84439200D02*
X133413428Y-84486819D01*
X133413428Y-84486819D02*
X133222952Y-84486819D01*
X133222952Y-84486819D02*
X133127714Y-84439200D01*
X133127714Y-84439200D02*
X133080095Y-84391580D01*
X133080095Y-84391580D02*
X133032476Y-84296342D01*
X133032476Y-84296342D02*
X133032476Y-83486819D01*
X132603904Y-83582057D02*
X132556285Y-83534438D01*
X132556285Y-83534438D02*
X132461047Y-83486819D01*
X132461047Y-83486819D02*
X132222952Y-83486819D01*
X132222952Y-83486819D02*
X132127714Y-83534438D01*
X132127714Y-83534438D02*
X132080095Y-83582057D01*
X132080095Y-83582057D02*
X132032476Y-83677295D01*
X132032476Y-83677295D02*
X132032476Y-83772533D01*
X132032476Y-83772533D02*
X132080095Y-83915390D01*
X132080095Y-83915390D02*
X132651523Y-84486819D01*
X132651523Y-84486819D02*
X132032476Y-84486819D01*
X131738666Y-98039580D02*
X131786285Y-98087200D01*
X131786285Y-98087200D02*
X131929142Y-98134819D01*
X131929142Y-98134819D02*
X132024380Y-98134819D01*
X132024380Y-98134819D02*
X132167237Y-98087200D01*
X132167237Y-98087200D02*
X132262475Y-97991961D01*
X132262475Y-97991961D02*
X132310094Y-97896723D01*
X132310094Y-97896723D02*
X132357713Y-97706247D01*
X132357713Y-97706247D02*
X132357713Y-97563390D01*
X132357713Y-97563390D02*
X132310094Y-97372914D01*
X132310094Y-97372914D02*
X132262475Y-97277676D01*
X132262475Y-97277676D02*
X132167237Y-97182438D01*
X132167237Y-97182438D02*
X132024380Y-97134819D01*
X132024380Y-97134819D02*
X131929142Y-97134819D01*
X131929142Y-97134819D02*
X131786285Y-97182438D01*
X131786285Y-97182438D02*
X131738666Y-97230057D01*
X130881523Y-97134819D02*
X131071999Y-97134819D01*
X131071999Y-97134819D02*
X131167237Y-97182438D01*
X131167237Y-97182438D02*
X131214856Y-97230057D01*
X131214856Y-97230057D02*
X131310094Y-97372914D01*
X131310094Y-97372914D02*
X131357713Y-97563390D01*
X131357713Y-97563390D02*
X131357713Y-97944342D01*
X131357713Y-97944342D02*
X131310094Y-98039580D01*
X131310094Y-98039580D02*
X131262475Y-98087200D01*
X131262475Y-98087200D02*
X131167237Y-98134819D01*
X131167237Y-98134819D02*
X130976761Y-98134819D01*
X130976761Y-98134819D02*
X130881523Y-98087200D01*
X130881523Y-98087200D02*
X130833904Y-98039580D01*
X130833904Y-98039580D02*
X130786285Y-97944342D01*
X130786285Y-97944342D02*
X130786285Y-97706247D01*
X130786285Y-97706247D02*
X130833904Y-97611009D01*
X130833904Y-97611009D02*
X130881523Y-97563390D01*
X130881523Y-97563390D02*
X130976761Y-97515771D01*
X130976761Y-97515771D02*
X131167237Y-97515771D01*
X131167237Y-97515771D02*
X131262475Y-97563390D01*
X131262475Y-97563390D02*
X131310094Y-97611009D01*
X131310094Y-97611009D02*
X131357713Y-97706247D01*
X126133227Y-124592596D02*
X126840333Y-123885489D01*
X126840333Y-123885489D02*
X126671975Y-123717130D01*
X126671975Y-123717130D02*
X126537288Y-123649787D01*
X126537288Y-123649787D02*
X126402601Y-123649787D01*
X126402601Y-123649787D02*
X126301585Y-123683459D01*
X126301585Y-123683459D02*
X126133227Y-123784474D01*
X126133227Y-123784474D02*
X126032211Y-123885489D01*
X126032211Y-123885489D02*
X125931196Y-124053848D01*
X125931196Y-124053848D02*
X125897524Y-124154863D01*
X125897524Y-124154863D02*
X125897524Y-124289550D01*
X125897524Y-124289550D02*
X125964868Y-124424237D01*
X125964868Y-124424237D02*
X126133227Y-124592596D01*
X126200570Y-123245726D02*
X125729166Y-122774321D01*
X125729166Y-122774321D02*
X125325105Y-123784474D01*
X127000274Y-128146649D02*
X127404335Y-128550710D01*
X127202305Y-128348680D02*
X127909411Y-127641573D01*
X127909411Y-127641573D02*
X127875740Y-127809932D01*
X127875740Y-127809932D02*
X127875740Y-127944619D01*
X127875740Y-127944619D02*
X127909411Y-128045634D01*
X140407819Y-102933833D02*
X139931628Y-102600500D01*
X140407819Y-102362405D02*
X139407819Y-102362405D01*
X139407819Y-102362405D02*
X139407819Y-102743357D01*
X139407819Y-102743357D02*
X139455438Y-102838595D01*
X139455438Y-102838595D02*
X139503057Y-102886214D01*
X139503057Y-102886214D02*
X139598295Y-102933833D01*
X139598295Y-102933833D02*
X139741152Y-102933833D01*
X139741152Y-102933833D02*
X139836390Y-102886214D01*
X139836390Y-102886214D02*
X139884009Y-102838595D01*
X139884009Y-102838595D02*
X139931628Y-102743357D01*
X139931628Y-102743357D02*
X139931628Y-102362405D01*
X139407819Y-103790976D02*
X139407819Y-103600500D01*
X139407819Y-103600500D02*
X139455438Y-103505262D01*
X139455438Y-103505262D02*
X139503057Y-103457643D01*
X139503057Y-103457643D02*
X139645914Y-103362405D01*
X139645914Y-103362405D02*
X139836390Y-103314786D01*
X139836390Y-103314786D02*
X140217342Y-103314786D01*
X140217342Y-103314786D02*
X140312580Y-103362405D01*
X140312580Y-103362405D02*
X140360200Y-103410024D01*
X140360200Y-103410024D02*
X140407819Y-103505262D01*
X140407819Y-103505262D02*
X140407819Y-103695738D01*
X140407819Y-103695738D02*
X140360200Y-103790976D01*
X140360200Y-103790976D02*
X140312580Y-103838595D01*
X140312580Y-103838595D02*
X140217342Y-103886214D01*
X140217342Y-103886214D02*
X139979247Y-103886214D01*
X139979247Y-103886214D02*
X139884009Y-103838595D01*
X139884009Y-103838595D02*
X139836390Y-103790976D01*
X139836390Y-103790976D02*
X139788771Y-103695738D01*
X139788771Y-103695738D02*
X139788771Y-103505262D01*
X139788771Y-103505262D02*
X139836390Y-103410024D01*
X139836390Y-103410024D02*
X139884009Y-103362405D01*
X139884009Y-103362405D02*
X139979247Y-103314786D01*
X118558666Y-99165580D02*
X118606285Y-99213200D01*
X118606285Y-99213200D02*
X118749142Y-99260819D01*
X118749142Y-99260819D02*
X118844380Y-99260819D01*
X118844380Y-99260819D02*
X118987237Y-99213200D01*
X118987237Y-99213200D02*
X119082475Y-99117961D01*
X119082475Y-99117961D02*
X119130094Y-99022723D01*
X119130094Y-99022723D02*
X119177713Y-98832247D01*
X119177713Y-98832247D02*
X119177713Y-98689390D01*
X119177713Y-98689390D02*
X119130094Y-98498914D01*
X119130094Y-98498914D02*
X119082475Y-98403676D01*
X119082475Y-98403676D02*
X118987237Y-98308438D01*
X118987237Y-98308438D02*
X118844380Y-98260819D01*
X118844380Y-98260819D02*
X118749142Y-98260819D01*
X118749142Y-98260819D02*
X118606285Y-98308438D01*
X118606285Y-98308438D02*
X118558666Y-98356057D01*
X117987237Y-98689390D02*
X118082475Y-98641771D01*
X118082475Y-98641771D02*
X118130094Y-98594152D01*
X118130094Y-98594152D02*
X118177713Y-98498914D01*
X118177713Y-98498914D02*
X118177713Y-98451295D01*
X118177713Y-98451295D02*
X118130094Y-98356057D01*
X118130094Y-98356057D02*
X118082475Y-98308438D01*
X118082475Y-98308438D02*
X117987237Y-98260819D01*
X117987237Y-98260819D02*
X117796761Y-98260819D01*
X117796761Y-98260819D02*
X117701523Y-98308438D01*
X117701523Y-98308438D02*
X117653904Y-98356057D01*
X117653904Y-98356057D02*
X117606285Y-98451295D01*
X117606285Y-98451295D02*
X117606285Y-98498914D01*
X117606285Y-98498914D02*
X117653904Y-98594152D01*
X117653904Y-98594152D02*
X117701523Y-98641771D01*
X117701523Y-98641771D02*
X117796761Y-98689390D01*
X117796761Y-98689390D02*
X117987237Y-98689390D01*
X117987237Y-98689390D02*
X118082475Y-98737009D01*
X118082475Y-98737009D02*
X118130094Y-98784628D01*
X118130094Y-98784628D02*
X118177713Y-98879866D01*
X118177713Y-98879866D02*
X118177713Y-99070342D01*
X118177713Y-99070342D02*
X118130094Y-99165580D01*
X118130094Y-99165580D02*
X118082475Y-99213200D01*
X118082475Y-99213200D02*
X117987237Y-99260819D01*
X117987237Y-99260819D02*
X117796761Y-99260819D01*
X117796761Y-99260819D02*
X117701523Y-99213200D01*
X117701523Y-99213200D02*
X117653904Y-99165580D01*
X117653904Y-99165580D02*
X117606285Y-99070342D01*
X117606285Y-99070342D02*
X117606285Y-98879866D01*
X117606285Y-98879866D02*
X117653904Y-98784628D01*
X117653904Y-98784628D02*
X117701523Y-98737009D01*
X117701523Y-98737009D02*
X117796761Y-98689390D01*
X119006857Y-103229580D02*
X119054476Y-103277200D01*
X119054476Y-103277200D02*
X119197333Y-103324819D01*
X119197333Y-103324819D02*
X119292571Y-103324819D01*
X119292571Y-103324819D02*
X119435428Y-103277200D01*
X119435428Y-103277200D02*
X119530666Y-103181961D01*
X119530666Y-103181961D02*
X119578285Y-103086723D01*
X119578285Y-103086723D02*
X119625904Y-102896247D01*
X119625904Y-102896247D02*
X119625904Y-102753390D01*
X119625904Y-102753390D02*
X119578285Y-102562914D01*
X119578285Y-102562914D02*
X119530666Y-102467676D01*
X119530666Y-102467676D02*
X119435428Y-102372438D01*
X119435428Y-102372438D02*
X119292571Y-102324819D01*
X119292571Y-102324819D02*
X119197333Y-102324819D01*
X119197333Y-102324819D02*
X119054476Y-102372438D01*
X119054476Y-102372438D02*
X119006857Y-102420057D01*
X118054476Y-103324819D02*
X118625904Y-103324819D01*
X118340190Y-103324819D02*
X118340190Y-102324819D01*
X118340190Y-102324819D02*
X118435428Y-102467676D01*
X118435428Y-102467676D02*
X118530666Y-102562914D01*
X118530666Y-102562914D02*
X118625904Y-102610533D01*
X117435428Y-102324819D02*
X117340190Y-102324819D01*
X117340190Y-102324819D02*
X117244952Y-102372438D01*
X117244952Y-102372438D02*
X117197333Y-102420057D01*
X117197333Y-102420057D02*
X117149714Y-102515295D01*
X117149714Y-102515295D02*
X117102095Y-102705771D01*
X117102095Y-102705771D02*
X117102095Y-102943866D01*
X117102095Y-102943866D02*
X117149714Y-103134342D01*
X117149714Y-103134342D02*
X117197333Y-103229580D01*
X117197333Y-103229580D02*
X117244952Y-103277200D01*
X117244952Y-103277200D02*
X117340190Y-103324819D01*
X117340190Y-103324819D02*
X117435428Y-103324819D01*
X117435428Y-103324819D02*
X117530666Y-103277200D01*
X117530666Y-103277200D02*
X117578285Y-103229580D01*
X117578285Y-103229580D02*
X117625904Y-103134342D01*
X117625904Y-103134342D02*
X117673523Y-102943866D01*
X117673523Y-102943866D02*
X117673523Y-102705771D01*
X117673523Y-102705771D02*
X117625904Y-102515295D01*
X117625904Y-102515295D02*
X117578285Y-102420057D01*
X117578285Y-102420057D02*
X117530666Y-102372438D01*
X117530666Y-102372438D02*
X117435428Y-102324819D01*
X122120830Y-105971693D02*
X122188174Y-105971693D01*
X122188174Y-105971693D02*
X122322861Y-105904349D01*
X122322861Y-105904349D02*
X122390204Y-105837006D01*
X122390204Y-105837006D02*
X122457548Y-105702319D01*
X122457548Y-105702319D02*
X122457548Y-105567632D01*
X122457548Y-105567632D02*
X122423876Y-105466617D01*
X122423876Y-105466617D02*
X122322861Y-105298258D01*
X122322861Y-105298258D02*
X122221846Y-105197243D01*
X122221846Y-105197243D02*
X122053487Y-105096227D01*
X122053487Y-105096227D02*
X121952472Y-105062556D01*
X121952472Y-105062556D02*
X121817785Y-105062556D01*
X121817785Y-105062556D02*
X121683098Y-105129899D01*
X121683098Y-105129899D02*
X121615754Y-105197243D01*
X121615754Y-105197243D02*
X121548411Y-105331930D01*
X121548411Y-105331930D02*
X121548411Y-105399273D01*
X121514739Y-106712471D02*
X121918800Y-106308410D01*
X121716769Y-106510441D02*
X121009663Y-105803334D01*
X121009663Y-105803334D02*
X121178021Y-105837006D01*
X121178021Y-105837006D02*
X121312708Y-105837006D01*
X121312708Y-105837006D02*
X121413724Y-105803334D01*
X120605601Y-106342082D02*
X120538258Y-106342082D01*
X120538258Y-106342082D02*
X120437243Y-106375754D01*
X120437243Y-106375754D02*
X120268884Y-106544113D01*
X120268884Y-106544113D02*
X120235212Y-106645128D01*
X120235212Y-106645128D02*
X120235212Y-106712472D01*
X120235212Y-106712472D02*
X120268884Y-106813487D01*
X120268884Y-106813487D02*
X120336227Y-106880830D01*
X120336227Y-106880830D02*
X120470914Y-106948174D01*
X120470914Y-106948174D02*
X121279036Y-106948174D01*
X121279036Y-106948174D02*
X120841304Y-107385907D01*
D11*
X123906095Y-90330739D02*
X123422286Y-89992072D01*
X123906095Y-89750167D02*
X122890095Y-89750167D01*
X122890095Y-89750167D02*
X122890095Y-90137215D01*
X122890095Y-90137215D02*
X122938476Y-90233977D01*
X122938476Y-90233977D02*
X122986857Y-90282358D01*
X122986857Y-90282358D02*
X123083619Y-90330739D01*
X123083619Y-90330739D02*
X123228762Y-90330739D01*
X123228762Y-90330739D02*
X123325524Y-90282358D01*
X123325524Y-90282358D02*
X123373905Y-90233977D01*
X123373905Y-90233977D02*
X123422286Y-90137215D01*
X123422286Y-90137215D02*
X123422286Y-89750167D01*
X123228762Y-91201596D02*
X123906095Y-91201596D01*
X122841715Y-90959691D02*
X123567429Y-90717786D01*
X123567429Y-90717786D02*
X123567429Y-91346739D01*
D13*
%TO.C,Y1*%
X123476000Y-112648000D02*
X123476000Y-109348000D01*
X123476000Y-109348000D02*
X127476000Y-109348000D01*
%TO.C,D16*%
X161828853Y-61388723D02*
X168573174Y-64182312D01*
X159724094Y-66470060D02*
X166468415Y-69263649D01*
X168573174Y-64182312D02*
X168133088Y-65244773D01*
%TO.C,D14*%
X185499688Y-81108826D02*
X188293277Y-87853147D01*
X180418351Y-83213585D02*
X183211940Y-89957906D01*
X188293277Y-87853147D02*
X187230816Y-88293233D01*
%TO.C,D3*%
X118932564Y-74056443D02*
X124094443Y-68894564D01*
X122821651Y-77945530D02*
X127983530Y-72783651D01*
X124094443Y-68894564D02*
X124907616Y-69707736D01*
%TO.C,D2*%
X131146826Y-64182312D02*
X137891147Y-61388723D01*
X133251585Y-69263649D02*
X139995906Y-66470060D01*
X137891147Y-61388723D02*
X138331233Y-62451184D01*
%TO.C,D11*%
X180787436Y-125587557D02*
X175625557Y-130749436D01*
X176898349Y-121698470D02*
X171736470Y-126860349D01*
X175625557Y-130749436D02*
X174812384Y-129936264D01*
%TO.C,R7*%
X137568000Y-108534564D02*
X137568000Y-108080436D01*
X139038000Y-108534564D02*
X139038000Y-108080436D01*
D12*
%TO.C,VR2*%
X140970000Y-115570000D02*
X158750000Y-115570000D01*
X158750000Y-115570000D02*
X158750000Y-97790000D01*
X158750000Y-97790000D02*
X140970000Y-97790000D01*
X140970000Y-97790000D02*
X140970000Y-115570000D01*
D13*
%TO.C,D5*%
X109772000Y-103472000D02*
X109772000Y-96172000D01*
X115272000Y-103472000D02*
X115272000Y-96172000D01*
X109772000Y-96172000D02*
X110922000Y-96172000D01*
%TO.C,C14*%
X121477000Y-111221252D02*
X121477000Y-110698748D01*
X122947000Y-111221252D02*
X122947000Y-110698748D01*
D12*
%TO.C,VR1*%
X140970000Y-97155000D02*
X158750000Y-97155000D01*
X158750000Y-97155000D02*
X158750000Y-84455000D01*
X158750000Y-84455000D02*
X140970000Y-84455000D01*
X140970000Y-84455000D02*
X140970000Y-97155000D01*
D13*
%TO.C,D1*%
X146210000Y-59734000D02*
X153510000Y-59734000D01*
X146210000Y-65234000D02*
X153510000Y-65234000D01*
X153510000Y-59734000D02*
X153510000Y-60884000D01*
%TO.C,U3*%
X128362000Y-103902000D02*
X128362000Y-103252000D01*
X127712000Y-103902000D02*
X128362000Y-103902000D01*
X127712000Y-96682000D02*
X128362000Y-96682000D01*
X121792000Y-103902000D02*
X121142000Y-103902000D01*
X121792000Y-96682000D02*
X121142000Y-96682000D01*
X121142000Y-103902000D02*
X121142000Y-103252000D01*
X121142000Y-96682000D02*
X121142000Y-97332000D01*
%TO.C,D13*%
X189948000Y-96172000D02*
X189948000Y-103472000D01*
X184448000Y-96172000D02*
X184448000Y-103472000D01*
X189948000Y-103472000D02*
X188798000Y-103472000D01*
%TO.C,C3*%
X124100000Y-92817836D02*
X124100000Y-92602164D01*
X124820000Y-92817836D02*
X124820000Y-92602164D01*
%TO.C,C4*%
X121052000Y-93805836D02*
X121052000Y-93590164D01*
X121772000Y-93805836D02*
X121772000Y-93590164D01*
%TO.C,C11*%
X124566000Y-107814164D02*
X124566000Y-108029836D01*
X123846000Y-107814164D02*
X123846000Y-108029836D01*
%TO.C,D9*%
X153510000Y-139910000D02*
X146210000Y-139910000D01*
X153510000Y-134410000D02*
X146210000Y-134410000D01*
X146210000Y-139910000D02*
X146210000Y-138760000D01*
%TO.C,R5*%
X122808000Y-93572359D02*
X122808000Y-93879641D01*
X122048000Y-93572359D02*
X122048000Y-93879641D01*
%TO.C,D12*%
X188293277Y-111790853D02*
X185499688Y-118535174D01*
X183211940Y-109686094D02*
X180418351Y-116430415D01*
X185499688Y-118535174D02*
X184437227Y-118095088D01*
%TO.C,C13*%
X129551000Y-110698748D02*
X129551000Y-111221252D01*
X128081000Y-110698748D02*
X128081000Y-111221252D01*
%TO.C,R2*%
X131037064Y-81253000D02*
X130582936Y-81253000D01*
X131037064Y-79783000D02*
X130582936Y-79783000D01*
%TO.C,C5*%
X120036000Y-93805836D02*
X120036000Y-93590164D01*
X120756000Y-93805836D02*
X120756000Y-93590164D01*
%TO.C,D10*%
X168573174Y-135461688D02*
X161828853Y-138255277D01*
X166468415Y-130380351D02*
X159724094Y-133173940D01*
X161828853Y-138255277D02*
X161388767Y-137192816D01*
%TO.C,D4*%
X111426723Y-87853147D02*
X114220312Y-81108826D01*
X116508060Y-89957906D02*
X119301649Y-83213585D01*
X114220312Y-81108826D02*
X115282773Y-81548912D01*
%TO.C,C2*%
X125116000Y-92817836D02*
X125116000Y-92602164D01*
X125836000Y-92817836D02*
X125836000Y-92602164D01*
%TO.C,R3*%
X127735064Y-83539000D02*
X127280936Y-83539000D01*
X127735064Y-82069000D02*
X127280936Y-82069000D01*
%TO.C,D6*%
X114220312Y-118535174D02*
X111426723Y-111790853D01*
X119301649Y-116430415D02*
X116508060Y-109686094D01*
X111426723Y-111790853D02*
X112489184Y-111350767D01*
%TO.C,D8*%
X137891147Y-138255277D02*
X131146826Y-135461688D01*
X139995906Y-133173940D02*
X133251585Y-130380351D01*
X131146826Y-135461688D02*
X131586912Y-134399227D01*
%TO.C,R1*%
X135355000Y-79378436D02*
X135355000Y-79832564D01*
X133885000Y-79378436D02*
X133885000Y-79832564D01*
%TO.C,C9*%
X131464164Y-101367000D02*
X131679836Y-101367000D01*
X131464164Y-102087000D02*
X131679836Y-102087000D01*
%TO.C,D15*%
X175625557Y-68894564D02*
X180787436Y-74056443D01*
X171736470Y-72783651D02*
X176898349Y-77945530D01*
X180787436Y-74056443D02*
X179974264Y-74869616D01*
%TO.C,C7*%
X118499836Y-96499000D02*
X118284164Y-96499000D01*
X118499836Y-95779000D02*
X118284164Y-95779000D01*
%TO.C,U2*%
X135567000Y-90317000D02*
X135567000Y-90057000D01*
X135567000Y-85127000D02*
X137242000Y-85127000D01*
X135567000Y-84867000D02*
X135567000Y-85127000D01*
X132842000Y-90317000D02*
X135567000Y-90317000D01*
X132842000Y-90317000D02*
X130117000Y-90317000D01*
X132842000Y-84867000D02*
X135567000Y-84867000D01*
X132842000Y-84867000D02*
X130117000Y-84867000D01*
X130117000Y-90317000D02*
X130117000Y-90057000D01*
X130117000Y-84867000D02*
X130117000Y-85127000D01*
%TO.C,C6*%
X131464164Y-96160000D02*
X131679836Y-96160000D01*
X131464164Y-96880000D02*
X131679836Y-96880000D01*
%TO.C,D7*%
X124094443Y-130749436D02*
X118932564Y-125587557D01*
X127983530Y-126860349D02*
X122821651Y-121698470D01*
X118932564Y-125587557D02*
X119745736Y-124774384D01*
%TO.C,R6*%
X137568000Y-103327564D02*
X137568000Y-102873436D01*
X139038000Y-103327564D02*
X139038000Y-102873436D01*
%TO.C,C8*%
X118499836Y-97896000D02*
X118284164Y-97896000D01*
X118499836Y-97176000D02*
X118284164Y-97176000D01*
%TO.C,C10*%
X118471836Y-101706000D02*
X118256164Y-101706000D01*
X118471836Y-100986000D02*
X118256164Y-100986000D01*
%TO.C,C12*%
X123266810Y-106604307D02*
X123114307Y-106756810D01*
X122757693Y-106095190D02*
X122605190Y-106247693D01*
%TO.C,R4*%
X123824000Y-93572359D02*
X123824000Y-93879641D01*
X123064000Y-93572359D02*
X123064000Y-93879641D01*
%TD*%
%LPC*%
D14*
%TO.C,Y1*%
X124376000Y-110148000D03*
X126576000Y-110148000D03*
X126576000Y-111848000D03*
X124376000Y-111848000D03*
%TD*%
D15*
%TO.C,H2*%
X127858373Y-121823627D03*
%TD*%
%TO.C,H3*%
X171861627Y-121823627D03*
%TD*%
%TO.C,H4*%
X149860000Y-130937000D03*
%TD*%
%TO.C,H1*%
X149860000Y-68707000D03*
%TD*%
D16*
%TO.C,D16*%
X161253701Y-65913013D03*
X162516557Y-62864210D03*
X167043567Y-64739359D03*
X165780711Y-67788162D03*
%TD*%
D17*
%TO.C,D14*%
X181893838Y-83901289D03*
X184942641Y-82638433D03*
X186817790Y-87165443D03*
X183768987Y-88428299D03*
%TD*%
D18*
%TO.C,D3*%
X122892362Y-76319185D03*
X120558909Y-73985732D03*
X124023732Y-70520909D03*
X126357185Y-72854362D03*
%TD*%
D19*
%TO.C,D2*%
X133939289Y-67788162D03*
X132676433Y-64739359D03*
X137203443Y-62864210D03*
X138466299Y-65913013D03*
%TD*%
D20*
%TO.C,D11*%
X176827638Y-123324815D03*
X179161091Y-125658268D03*
X175696268Y-129123091D03*
X173362815Y-126789638D03*
%TD*%
D21*
%TO.C,R7*%
X138303000Y-109220000D03*
X138303000Y-107395000D03*
%TD*%
D22*
%TO.C,VR2*%
X142240000Y-114300000D03*
X142240000Y-111760000D03*
X142240000Y-109220000D03*
D23*
X142240000Y-106680000D03*
D22*
X142240000Y-104140000D03*
D23*
X152908000Y-114300000D03*
%TD*%
D24*
%TO.C,D5*%
X114172000Y-102272000D03*
X110872000Y-102272000D03*
X110872000Y-97372000D03*
X114172000Y-97372000D03*
%TD*%
D25*
%TO.C,C14*%
X122212000Y-111910000D03*
X122212000Y-110010000D03*
%TD*%
D22*
%TO.C,VR1*%
X142240000Y-95885000D03*
X142240000Y-93345000D03*
X142240000Y-90805000D03*
D23*
X142240000Y-88265000D03*
D22*
X142240000Y-85725000D03*
%TD*%
D26*
%TO.C,D1*%
X147410000Y-64134000D03*
X147410000Y-60834000D03*
X152310000Y-60834000D03*
X152310000Y-64134000D03*
%TD*%
D27*
%TO.C,U3*%
X128189500Y-97692000D03*
X128189500Y-98092000D03*
X128189500Y-98492000D03*
X128189500Y-98892000D03*
X128189500Y-99292000D03*
X128189500Y-99692000D03*
X128189500Y-100092000D03*
X128189500Y-100492000D03*
X128189500Y-100892000D03*
X128189500Y-101292000D03*
X128189500Y-101692000D03*
X128189500Y-102092000D03*
X128189500Y-102492000D03*
X128189500Y-102892000D03*
D28*
X127352000Y-103729500D03*
X126952000Y-103729500D03*
X126552000Y-103729500D03*
X126152000Y-103729500D03*
X125752000Y-103729500D03*
X125352000Y-103729500D03*
X124952000Y-103729500D03*
X124552000Y-103729500D03*
X124152000Y-103729500D03*
X123752000Y-103729500D03*
X123352000Y-103729500D03*
X122952000Y-103729500D03*
X122552000Y-103729500D03*
X122152000Y-103729500D03*
D27*
X121314500Y-102892000D03*
X121314500Y-102492000D03*
X121314500Y-102092000D03*
X121314500Y-101692000D03*
X121314500Y-101292000D03*
X121314500Y-100892000D03*
X121314500Y-100492000D03*
X121314500Y-100092000D03*
X121314500Y-99692000D03*
X121314500Y-99292000D03*
X121314500Y-98892000D03*
X121314500Y-98492000D03*
X121314500Y-98092000D03*
X121314500Y-97692000D03*
D28*
X122152000Y-96854500D03*
X122552000Y-96854500D03*
X122952000Y-96854500D03*
X123352000Y-96854500D03*
X123752000Y-96854500D03*
X124152000Y-96854500D03*
X124552000Y-96854500D03*
X124952000Y-96854500D03*
X125352000Y-96854500D03*
X125752000Y-96854500D03*
X126152000Y-96854500D03*
X126552000Y-96854500D03*
X126952000Y-96854500D03*
X127352000Y-96854500D03*
D29*
X124752000Y-100292000D03*
%TD*%
D24*
%TO.C,D13*%
X185548000Y-97372000D03*
X188848000Y-97372000D03*
X188848000Y-102272000D03*
X185548000Y-102272000D03*
%TD*%
D30*
%TO.C,C3*%
X124460000Y-93190000D03*
X124460000Y-92230000D03*
%TD*%
%TO.C,C4*%
X121412000Y-94178000D03*
X121412000Y-93218000D03*
%TD*%
D31*
%TO.C,C11*%
X124206000Y-107442000D03*
X124206000Y-108402000D03*
%TD*%
D26*
%TO.C,D9*%
X152310000Y-135510000D03*
X152310000Y-138810000D03*
X147410000Y-138810000D03*
X147410000Y-135510000D03*
%TD*%
D32*
%TO.C,R5*%
X122428000Y-93216000D03*
X122428000Y-94236000D03*
%TD*%
D33*
%TO.C,D12*%
X183768987Y-111215701D03*
X186817790Y-112478557D03*
X184942641Y-117005567D03*
X181893838Y-115742711D03*
%TD*%
D34*
%TO.C,C13*%
X128816000Y-110010000D03*
X128816000Y-111910000D03*
%TD*%
D35*
%TO.C,R2*%
X131722500Y-80518000D03*
X129897500Y-80518000D03*
%TD*%
D30*
%TO.C,C5*%
X120396000Y-94178000D03*
X120396000Y-93218000D03*
%TD*%
D36*
%TO.C,D10*%
X165780711Y-131855838D03*
X167043567Y-134904641D03*
X162516557Y-136779790D03*
X161253701Y-133730987D03*
%TD*%
D37*
%TO.C,D4*%
X115951013Y-88428299D03*
X112902210Y-87165443D03*
X114777359Y-82638433D03*
X117826162Y-83901289D03*
%TD*%
D30*
%TO.C,C2*%
X125476000Y-93190000D03*
X125476000Y-92230000D03*
%TD*%
D35*
%TO.C,R3*%
X128420500Y-82804000D03*
X126595500Y-82804000D03*
%TD*%
D38*
%TO.C,D6*%
X117826162Y-115742711D03*
X114777359Y-117005567D03*
X112902210Y-112478557D03*
X115951013Y-111215701D03*
%TD*%
D39*
%TO.C,D8*%
X138466299Y-133730987D03*
X137203443Y-136779790D03*
X132676433Y-134904641D03*
X133939289Y-131855838D03*
%TD*%
D40*
%TO.C,R1*%
X134620000Y-78693000D03*
X134620000Y-80518000D03*
%TD*%
D41*
%TO.C,C9*%
X131092000Y-101727000D03*
X132052000Y-101727000D03*
%TD*%
D42*
%TO.C,D15*%
X173362815Y-72854362D03*
X175696268Y-70520909D03*
X179161091Y-73985732D03*
X176827638Y-76319185D03*
%TD*%
D43*
%TO.C,C7*%
X118872000Y-96139000D03*
X117912000Y-96139000D03*
%TD*%
D44*
%TO.C,U2*%
X136442000Y-85687000D03*
X136442000Y-86957000D03*
X136442000Y-88227000D03*
X136442000Y-89497000D03*
X129242000Y-89497000D03*
X129242000Y-88227000D03*
X129242000Y-86957000D03*
X129242000Y-85687000D03*
%TD*%
D41*
%TO.C,C6*%
X131092000Y-96520000D03*
X132052000Y-96520000D03*
%TD*%
D45*
%TO.C,D7*%
X126357185Y-126789638D03*
X124023732Y-129123091D03*
X120558909Y-125658268D03*
X122892362Y-123324815D03*
%TD*%
D21*
%TO.C,R6*%
X138303000Y-104013000D03*
X138303000Y-102188000D03*
%TD*%
D43*
%TO.C,C8*%
X118872000Y-97536000D03*
X117912000Y-97536000D03*
%TD*%
%TO.C,C10*%
X118844000Y-101346000D03*
X117884000Y-101346000D03*
%TD*%
D46*
%TO.C,C12*%
X123275411Y-106086589D03*
X122596589Y-106765411D03*
%TD*%
D32*
%TO.C,R4*%
X123444000Y-93216000D03*
X123444000Y-94236000D03*
%TD*%
%LPD*%
M02*
