M48
; DRILL file {KiCad 7.0.7} date Thu Aug 31 16:12:06 2023
; FORMAT={-:-/ absolute / inch / decimal}
; #@! TF.CreationDate,2023-08-31T16:12:06-04:00
; #@! TF.GenerationSoftware,Kicad,Pcbnew,7.0.7
; #@! TF.FileFunction,Plated,1,4,PTH
FMAT,2
INCH
; #@! TA.AperFunction,Plated,PTH,ViaDrill
T1C0.0118
; #@! TA.AperFunction,Plated,PTH,ViaDrill
T2C0.0160
; #@! TA.AperFunction,Plated,PTH,ComponentDrill
T3C0.0400
%
G90
G05
T1
X4.68Y-3.9091
X4.68Y-4.04
X4.72Y-4.12
X4.72Y-4.16
X4.72Y-4.2
X4.775Y-3.81
X4.895Y-3.765
X4.895Y-4.175
X4.93Y-4.04
X5.0Y-3.92
X5.03Y-3.17
X5.035Y-4.215
X5.065Y-3.78
X5.09Y-3.945
X5.105Y-3.845
X5.115Y-3.965
X5.115Y-4.0
X5.13Y-3.26
X5.15Y-4.39
X5.235Y-3.8
X5.34Y-3.79
X5.35Y-4.585
X5.39Y-4.725
X5.42Y-3.81
X5.53Y-3.31
X5.69Y-4.72
X5.73Y-4.775
T2
X4.43Y-3.93
X4.5419Y-3.3675
X4.5419Y-4.4925
X4.59Y-3.785
X4.59Y-3.84
X4.59Y-3.99
X4.645Y-3.53
X4.685Y-3.485
X4.74Y-3.62
X4.78Y-3.62
X4.79Y-4.24
X4.805Y-3.285
X4.85Y-4.2678
X4.8606Y-2.8906
X4.8606Y-4.9694
X4.8982Y-4.4552
X4.91Y-3.95
X4.92Y-3.59
X4.96Y-3.59
X4.965Y-4.235
X4.9848Y-4.28
X5.255Y-4.65
X5.26Y-4.005
X5.2635Y-3.5235
X5.3375Y-2.5719
X5.3375Y-5.2881
X5.3395Y-4.3805
X5.445Y-3.9
X5.445Y-4.165
X5.495Y-3.535
X5.66Y-4.565
X5.69Y-4.3785
X5.795Y-2.94
X5.82Y-3.09
X5.84Y-3.405
X5.9Y-2.46
X5.9Y-5.4
X6.01Y-3.625
X6.08Y-3.1838
X6.125Y-2.94
X6.13Y-3.09
X6.16Y-3.705
X6.275Y-3.64
X6.4625Y-2.5719
X6.4625Y-5.2881
X6.505Y-3.02
X6.9394Y-4.9694
X6.94Y-2.89
X7.2581Y-3.3675
X7.2581Y-4.4925
X7.37Y-3.93
T3
X5.6Y-3.375
X5.6Y-3.475
X5.6Y-3.575
X5.6Y-3.675
X5.6Y-3.775
X5.6Y-4.1
X5.6Y-4.2
X5.6Y-4.3
X5.6Y-4.4
X5.6Y-4.5
X6.02Y-4.5
T0
M30
